<?xml-stylesheet href="spot.css" type="text/css"?><svg width="260pt" height="197pt" viewBox="0 0 260 197" xmlns="http://www.w3.org/2000/svg"><g class="graph" transform="translate(4 193)"><path fill="#fff" stroke="transparent" d="M-4 4v-197h260V4H-4z"/><text x="104.5" y="-175.4" font-family="Lato" font-size="12">[Büchi]</text><g class="node"><circle fill="#ffffa0" stroke="#000" cx="56" cy="-68" r="18"/><text text-anchor="middle" x="56" y="-64.9" font-family="Lato" font-size="12">0</text></g><g class="edge"><path fill="none" stroke="#000" d="M1.15-68h29.48"/><path stroke="#000" d="M37.94-68l-7-3.15 3.5 3.15h-3.5 3.5l-3.5 3.15 7-3.15h0z"/></g><g class="edge"><path fill="none" stroke="#000" d="M49.62-85.04C48.32-94.86 50.45-104 56-104c4.17 0 6.4 5.14 6.71 11.86"/><path stroke="#000" d="M62.38-85.04l3.47-6.84-3.31 3.35.17-3.5h0l-.17 3.5-2.98-3.65 2.82 7.14h0z"/><text x="52" y="-107.4" font-family="Lato" font-size="12">1</text></g><g class="node"><circle fill="#ffffa0" stroke="#000" cx="145" cy="-115" r="18"/><circle fill="none" stroke="#000" cx="145" cy="-115" r="22"/><text x="141" y="-111.9" font-family="Lato" font-size="12">1</text></g><g class="edge"><path fill="none" stroke="#000" d="M72.15-76.19c12.95-6.99 31.84-17.2 47-25.38"/><path stroke="#000" d="M125.39-104.95l-7.66.56 4.58 1.11-3.08 1.66h0l3.08-1.66-1.58 4.43 4.66-6.1h0z"/><text x="94.5" y="-95.4" font-family="Lato" font-size="12">b</text></g><g class="node"><circle fill="#ffffa0" stroke="#000" cx="145" cy="-22" r="18"/><circle fill="none" stroke="#000" cx="145" cy="-22" r="22"/><text text-anchor="middle" x="145" y="-18.9" font-family="Lato" font-size="12">2</text></g><g class="edge"><path fill="none" stroke="#000" d="M72.15-59.99c12.87 6.8 31.59 16.7 46.7 24.69"/><path stroke="#000" d="M125.08-32.01l-4.72-6.05 1.62 4.42-3.09-1.64h0l3.09 1.64-4.57 1.15 7.67.48h0z"/><text x="92" y="-53.4" font-family="Lato" font-size="12">!a</text></g><g class="edge"><path fill="none" stroke="#000" d="M136.63-135.58C135.47-145.84 138.26-155 145-155c5.05 0 7.89 5.15 8.5 12.05"/><path stroke="#000" d="M153.37-135.58l3.27-6.94-3.21 3.44.06-3.5h0l-.06 3.5-3.09-3.55 3.03 7.05h0z"/><text x="141" y="-158.4" font-family="Lato" font-size="12">b</text></g><g class="node"><circle fill="#ffffa0" stroke="#000" cx="234" cy="-115" r="18"/><text text-anchor="middle" x="234" y="-111.9" font-family="Lato" font-size="12">3</text></g><g class="edge"><path fill="none" stroke="#000" d="M167.06-115h41.55"/><path stroke="#000" d="M215.93-115l-7-3.15 3.5 3.15h-3.5 3.5l-3.5 3.15 7-3.15h0z"/><text x="185" y="-118.4" font-family="Lato" font-size="12">!b</text></g><g class="edge"><path fill="none" stroke="#000" d="M136.63-42.58C135.47-52.84 138.26-62 145-62c5.05 0 7.89 5.15 8.5 12.05"/><path stroke="#000" d="M153.37-42.58l3.27-6.94-3.21 3.44.06-3.5h0l-.06 3.5-3.09-3.55 3.03 7.05h0z"/><text x="138.5" y="-65.4" font-family="Lato" font-size="12">!a</text></g><g class="edge"><path fill="none" stroke="#000" d="M218.22-105.98c-6.04 3.18-13.24 6.37-20.22 7.98-9.06 2.08-18.79.09-27.35-3.17"/><path stroke="#000" d="M164.06-104l5.19 5.66-1.97-4.27 3.21 1.38h0l-3.21-1.38 4.46-1.52-7.68.13h0z"/><text x="187.5" y="-101.4" font-family="Lato" font-size="12">b</text></g><g class="edge"><path fill="none" stroke="#000" d="M226.62-131.66c-1.64-9.96.82-19.34 7.38-19.34 4.92 0 7.54 5.27 7.84 12.11"/><path stroke="#000" d="M241.38-131.66l3.59-6.79-3.36 3.29.22-3.49h0l-.22 3.49-2.92-3.69 2.69 7.19h0z"/><text x="227.5" y="-154.4" font-family="Lato" font-size="12">!b</text></g></g></svg>