<?xml-stylesheet href="spot.css" type="text/css"?><svg width="641pt" height="228" viewBox="0 0 641 170.55" xmlns="http://www.w3.org/2000/svg"><g class="graph" transform="translate(4 166.55)"><path fill="#fff" stroke="transparent" d="M-4 4v-170.55h641V4H-4z"/><g class="node"><ellipse fill="#ffffa0" stroke="#000" cx="118" cy="-67.55" rx="27" ry="18"/><text text-anchor="middle" x="118" y="-64.45" font-family="Lato" font-size="12">init</text></g><g class="edge"><path fill="none" stroke="#000" d="M54.22-67.55H83.7"/><path stroke="#000" d="M90.97-67.55l-7-3.15 3.5 3.15h-3.5 3.5l-3.5 3.15 7-3.15h0z"/></g><g class="node"><path fill="#ffffa0" stroke="#000" d="M512-120.55h-54v36h54v-36z"/><text text-anchor="middle" x="485" y="-99.45" font-family="Lato" font-size="12">2</text></g><g class="edge"><path fill="none" stroke="#000" d="M135.58-81.33c7.86-5.86 17.66-12.24 27.42-16.22 98.05-39.87 131.4-48.21 236-32 17.51 2.72 36.36 8.4 51.85 13.86"/><path stroke="#000" d="M457.71-113.21l-5.52-5.34 2.23 4.15-3.3-1.19h0l3.3 1.19-4.37 1.77 7.66-.58h0z"/><text text-anchor="middle" x="308.5" y="-152.95" font-family="Lato" font-size="12">!a &amp; b</text><text text-anchor="middle" x="308.5" y="-139.95" font-family="Lato" font-size="12">{}</text></g><g class="node"><ellipse fill="#ffffa0" stroke="#000" cx="245" cy="-67.55" rx="27" ry="18"/><text text-anchor="middle" x="245" y="-64.45" font-family="Lato" font-size="12">1</text></g><g class="edge"><path fill="none" stroke="#000" d="M145.2-67.55h65.62"/><path stroke="#000" d="M217.83-67.55l-7-3.15 3.5 3.15h-3.5 3.5l-3.5 3.15 7-3.15h0z"/><text text-anchor="middle" x="181.5" y="-83.95" font-family="Lato" font-size="12">a &amp; !b</text><text text-anchor="middle" x="181.5" y="-70.95" font-family="Lato" font-size="12">{}</text></g><g class="node"><path fill="#ffffa0" stroke="#000" d="M399-52.55h-54v36h54v-36z"/><text text-anchor="middle" x="372" y="-31.45" font-family="Lato" font-size="12">3</text></g><g class="edge"><path fill="none" stroke="#000" d="M137.37-54.83c19.18 12.57 50.59 31.18 80.63 40.28 46.46 14.08 62.28 20.2 109 7 4.52-1.27 9.03-3.16 13.35-5.35"/><path stroke="#000" d="M346.52-16.29l-7.65.61 4.59 1.07-3.07 1.69h0l3.07-1.69-1.55 4.45 4.61-6.13h0z"/><text text-anchor="middle" x="245" y="-30.95" font-family="Lato" font-size="12">a &amp; b</text><text text-anchor="middle" x="245" y="-17.95" font-family="Lato" font-size="12">{}</text></g><g class="node"><path fill="#ffffa0" stroke="#000" d="M629-68.55h-54v36h54v-36z"/><path fill="none" stroke="#000" d="M633-72.55h-62v44h62v-44z"/><text text-anchor="middle" x="602" y="-47.45" font-family="Lato" font-size="12">4</text></g><g class="edge"><path fill="none" stroke="#000" d="M512.1-90.75c15.44 6.99 35.25 15.94 52.24 23.63"/><path stroke="#000" d="M570.94-64.14l-5.08-5.75 1.9 4.31-3.19-1.44h0l3.19 1.44-4.49 1.43 7.67.01h0z"/><text text-anchor="middle" x="541.5" y="-96.95" font-family="Lato" font-size="12">{a}</text><text text-anchor="middle" x="541.5" y="-83.95" font-family="Lato" font-size="12">{}</text></g><g class="edge"><path fill="none" stroke="#000" d="M267.5-77.85c7.03-2.95 14.96-5.87 22.5-7.7 55.14-13.36 121.35-16.51 160.43-17.09"/><path stroke="#000" d="M457.87-102.73l-7.04-3.07 3.54 3.11-3.5.04h0l3.5-.04-3.47 3.19 6.97-3.23h0z"/><text text-anchor="middle" x="372" y="-115.95" font-family="Lato" font-size="12">{a, b}</text><text text-anchor="middle" x="372" y="-102.95" font-family="Lato" font-size="12">{}</text></g><g class="edge"><path fill="none" stroke="#000" d="M270.4-61.1c19.28 5.09 46.37 12.24 67.59 17.84"/><path stroke="#000" d="M344.94-41.43l-5.96-4.83 2.58 3.94-3.39-.89h0l3.39.89-4.19 2.15 7.57-1.26h0z"/><text text-anchor="middle" x="308.5" y="-71.95" font-family="Lato" font-size="12">{b}</text><text text-anchor="middle" x="308.5" y="-58.95" font-family="Lato" font-size="12">{}</text></g><g class="edge"><path fill="none" stroke="#000" d="M399.08-46.36c12.66-6.09 27.91-13.96 40.92-22.19 5.51-3.48 11.18-7.49 16.54-11.51"/><path stroke="#000" d="M462.21-84.41l-7.48 1.76 4.7.37-2.78 2.13h0l2.78-2.13-.87 4.63 3.65-6.76h0z"/><text text-anchor="middle" x="428.5" y="-84.95" font-family="Lato" font-size="12">{a}</text><text text-anchor="middle" x="428.5" y="-71.95" font-family="Lato" font-size="12">{}</text></g><g class="edge"><path fill="none" stroke="#000" d="M344.94-20c-16.33 7.09-37.51 12.54-54.94 4.45-13.13-6.08-23.75-18.23-31.28-29.25"/><path stroke="#000" d="M254.87-50.76l1.15 7.58.75-4.64 1.9 2.93h0l-1.9-2.93 4.55 1.22-6.45-4.16h0z"/><text text-anchor="middle" x="308.5" y="-31.95" font-family="Lato" font-size="12">{b}</text><text text-anchor="middle" x="308.5" y="-18.95" font-family="Lato" font-size="12">{}</text></g><g class="edge"><path fill="none" stroke="#000" d="M399.15-36.38c40.42-2.84 118.21-8.3 164.52-11.55"/><path stroke="#000" d="M570.83-48.43l-7.21-2.65 3.71 2.9-3.49.24h0l3.49-.24-3.27 3.38 6.77-3.63h0z"/><text text-anchor="middle" x="485" y="-59.95" font-family="Lato" font-size="12">{a}</text><text text-anchor="middle" x="485" y="-46.95" font-family="Lato" font-size="12">{}</text></g><g class="edge"><path fill="none" stroke="#000" d="M590.88-72.76c-.91-9.58 2.8-17.79 11.12-17.79 6.11 0 9.73 4.43 10.86 10.58"/><path stroke="#000" d="M613.12-72.76l2.9-7.1-3.03 3.6-.12-3.49h0l.12 3.49-3.27-3.38 3.4 6.88h0z"/><text text-anchor="middle" x="602" y="-106.95" font-family="Lato" font-size="12">{a}</text><text text-anchor="middle" x="602" y="-93.95" font-family="Lato" font-size="12">{0}</text></g></g></svg>