<?xml-stylesheet href="spot.css" type="text/css"?><svg width="305pt" height="143pt" viewBox="0 0 305 143" xmlns="http://www.w3.org/2000/svg"><g class="graph" transform="translate(4 139)"><path fill="#fff" stroke="transparent" d="M-4 4v-143h305V4H-4z"/><text x="127" y="-121.4" font-family="Lato" font-size="12">[Büchi]</text><g class="node"><circle fill="#ffffa0" stroke="#000" cx="56" cy="-61" r="18"/><text text-anchor="middle" x="56" y="-57.9" font-family="Lato" font-size="12">2</text></g><g class="edge"><path fill="none" stroke="#000" d="M1.15-61h29.48"/><path stroke="#000" d="M37.94-61l-7-3.15 3.5 3.15h-3.5 3.5l-3.5 3.15 7-3.15h0z"/></g><g class="edge"><path fill="none" stroke="#e31a1c" stroke-width="2" d="M49.62-78.04C48.32-87.86 50.45-97 56-97c4.17 0 6.4 5.14 6.71 11.86"/><path fill="#e31a1c" stroke="#e31a1c" stroke-width="2" d="M62.38-78.04l3.47-6.84-2.81 3.37.17-3.5-.5-.02-.5-.02-.17 3.49-2.48-3.62 2.82 7.14h0z"/><text x="38" y="-100.4" font-family="Lato" font-size="12">a &amp; !c</text></g><g class="node"><circle fill="#ffffa0" stroke="#000" cx="275" cy="-61" r="18"/><circle fill="none" stroke="#000" cx="275" cy="-61" r="22"/><text text-anchor="middle" x="275" y="-57.9" font-family="Lato" font-size="12">0</text></g><g class="edge"><path fill="none" stroke="#e31a1c" stroke-width="2" d="M74-65.03C102.26-71.2 160.69-81.7 210-76c12.18 1.41 25.41 4.28 36.67 7.13"/><path fill="#e31a1c" stroke="#e31a1c" stroke-width="2" d="M253.75-67.01l-5.97-4.82 2.71 3.45-3.39-.89-.12.48-.13.49 3.38.89-4.05 1.67 7.57-1.27h0z"/><text x="188.5" y="-80.4" font-family="Lato" font-size="12">c</text></g><g class="node"><circle fill="#ffffa0" stroke="#000" cx="192" cy="-18" r="18"/><text x="188" y="-14.9" font-family="Lato" font-size="12">1</text></g><g class="edge"><path fill="none" stroke="#33a02c" stroke-width="2" d="M73.43-55.73c23.61 7.58 67.25 21.58 94.2 30.23"/><path fill="#33a02c" stroke="#33a02c" stroke-width="2" d="M174.43-23.32l-5.7-5.13 2.52 3.59-3.33-1.07-.15.48-.15.47 3.33 1.07-4.14 1.45 7.62-.86h0z"/><text x="92" y="-52.4" font-family="Lato" font-size="12">!a &amp; b &amp; !c</text></g><g class="edge"><path fill="none" stroke="#33a02c" stroke-width="2" d="M267.32-81.99c-.95-10.1 1.61-19.01 7.68-19.01 4.55 0 7.13 5.01 7.74 11.78"/><path fill="#33a02c" stroke="#33a02c" stroke-width="2" d="M282.68-81.99l3.2-6.98-2.67 3.48.02-3.5h-1l-.02 3.5-2.63-3.52 3.1 7.02h0z"/><text x="271" y="-104.4" font-family="Lato" font-size="12">1</text></g><g class="edge"><path fill="none" stroke="#33a02c" stroke-width="2" d="M208.24-26.09c11.42-6.06 27.3-14.49 40.6-21.55"/><path fill="#33a02c" stroke="#33a02c" stroke-width="2" d="M255.13-50.98l-7.66.5 4.33.7-3.09 1.64.23.44.24.44 3.09-1.64-1.85 3.98 4.71-6.06h0z"/><text x="228" y="-42.4" font-family="Lato" font-size="12">c</text></g><g class="edge"><path fill="none" stroke="#000" d="M185.27-35.04C183.89-44.86 186.14-54 192-54c4.4 0 6.76 5.14 7.09 11.86"/><path stroke="#000" d="M198.73-35.04l3.5-6.83-3.32 3.34.17-3.5h0l-.17 3.5-2.98-3.65 2.8 7.14h0z"/><text x="174" y="-57.4" font-family="Lato" font-size="12">b &amp; !c</text></g></g></svg>