<?xml-stylesheet href="spot.css" type="text/css"?><svg width="311pt" height="280" viewBox="0 0 311 210.35" xmlns="http://www.w3.org/2000/svg"><g class="graph" transform="translate(4 206.35)"><path fill="#fff" stroke="transparent" d="M-4 4v-210.35h311V4H-4z"/><text x="130" y="-188.75" font-family="Lato" font-size="12">[Büchi]</text><g class="node"><circle fill="#ffffa0" stroke="#e31a1c" stroke-width="2" cx="56" cy="-47.35" r="18"/><text text-anchor="middle" x="56" y="-44.25" font-family="Lato" font-size="12">0</text></g><g class="edge"><path fill="none" stroke="#000" d="M1.15-47.35h29.48"/><path stroke="#000" d="M37.94-47.35l-7-3.15 3.5 3.15h-3.5 3.5l-3.5 3.15 7-3.15h0z"/></g><g class="edge"><path fill="none" stroke="#ff4da0" stroke-width="2" d="M49.62-64.38c-1.3-9.82.83-18.97 6.38-18.97 4.17 0 6.4 5.15 6.71 11.86"/><path fill="#ff4da0" stroke="#ff4da0" stroke-width="2" d="M62.38-64.38l3.47-6.85-2.81 3.37.17-3.49-.5-.03-.5-.02-.17 3.5-2.48-3.62 2.82 7.14h0z"/><text x="52" y="-86.75" font-family="Lato" font-size="12">1</text></g><g class="node"><circle fill="#ffffa0" stroke="#000" cx="281" cy="-128.35" r="18"/><circle fill="none" stroke="#000" cx="281" cy="-128.35" r="22"/><text x="277" y="-125.25" font-family="Lato" font-size="12">1</text></g><g class="edge"><path fill="none" stroke="#ff4da0" stroke-width="2" d="M69.58-59.7C85.17-74.2 113.2-97.73 142-109.35c35.82-14.45 80.67-18.26 109.33-19.09"/><path fill="#ff4da0" stroke="#ff4da0" stroke-width="2" d="M258.61-128.59l-7.07-3 3.56 2.57-3.5.08.01.5.01.5 3.5-.08-3.45 2.72 6.94-3.29h0z"/><text x="145.5" y="-124.75" font-family="Lato" font-size="12">!a &amp; b</text></g><g class="node"><circle fill="#ffffa0" stroke="#000" cx="164" cy="-47.35" r="18"/><circle fill="none" stroke="#000" cx="164" cy="-47.35" r="22"/><text text-anchor="middle" x="164" y="-44.25" font-family="Lato" font-size="12">2</text></g><g class="edge"><path fill="none" stroke="#ff4da0" stroke-width="2" d="M74.03-47.35h60.86"/><path fill="#ff4da0" stroke="#ff4da0" stroke-width="2" d="M142-47.35l-7-3.15 3.5 2.65H135v1h3.5L135-44.2l7-3.15h0z"/><text x="92" y="-50.75" font-family="Lato" font-size="12">a &amp; b</text></g><g class="node"><circle fill="#ffffa0" stroke="#000" cx="281" cy="-27.35" r="18"/><circle fill="none" stroke="#000" cx="281" cy="-27.35" r="22"/><text text-anchor="middle" x="281" y="-24.25" font-family="Lato" font-size="12">3</text></g><g class="edge"><path fill="none" stroke="#ff4da0" stroke-width="2" d="M71.19-37.28C87.42-26.44 115.2-9.87 142-3.35c38.55 9.39 84.02-2.94 111.93-13.12"/><path fill="#ff4da0" stroke="#ff4da0" stroke-width="2" d="M260.63-18.99l-7.66-.48 4.21 1.25-3.27 1.23.17.47.18.47 3.27-1.24-2.34 3.72 5.44-5.42h0z"/><text x="145.5" y="-6.75" font-family="Lato" font-size="12">a &amp; !b</text></g><g class="edge"><path fill="none" stroke="#000" d="M270.57-148.1c-1.77-10.6 1.71-20.25 10.43-20.25 6.68 0 10.28 5.66 10.81 13.07"/><path stroke="#000" d="M291.43-148.1l3.51-6.83-3.33 3.33.19-3.49h0l-.19 3.49-2.96-3.66 2.78 7.16h0z"/><text x="277" y="-171.75" font-family="Lato" font-size="12">b</text></g><g class="edge"><path fill="none" stroke="#000" d="M182.47-59.65c19.75-13.91 52.03-36.65 74-52.12"/><path stroke="#000" d="M262.37-115.93l-7.54 1.46 4.68.56-2.86 2.01h0l2.86-2.01-1.05 4.59 3.91-6.61h0z"/><text x="204" y="-102.75" font-family="Lato" font-size="12">!a &amp; b</text></g><g class="edge"><path fill="none" stroke="#000" d="M153.93-67.1c-1.71-10.6 1.65-20.25 10.07-20.25 6.45 0 9.93 5.66 10.43 13.07"/><path stroke="#000" d="M174.07-67.1l3.5-6.83-3.32 3.33.18-3.49h0l-.18 3.49-2.97-3.66 2.79 7.16h0z"/><text x="148" y="-90.75" font-family="Lato" font-size="12">a &amp; b</text></g><g class="edge"><path fill="none" stroke="#000" d="M186.19-47.18c15.36.49 36.56 1.91 54.81 5.83 4.15.89 8.45 2.12 12.62 3.47"/><path stroke="#000" d="M260.46-35.51l-5.59-5.27 2.28 4.12-3.31-1.14h0l3.31 1.14-4.34 1.84 7.65-.69h0z"/><text x="204" y="-48.75" font-family="Lato" font-size="12">a &amp; !b</text></g><g class="edge"><path fill="none" stroke="#000" d="M259.3-23.2c-15.5 2.31-37.08 3.82-55.3-1.15-5.21-1.42-10.44-3.74-15.3-6.37"/><path stroke="#000" d="M182.35-34.44l4.45 6.26-1.43-4.49 3.02 1.77h0l-3.02-1.77 4.61-.95-7.63-.82h0z"/><text x="206.5" y="-27.75" font-family="Lato" font-size="12">a &amp; b</text></g><g class="edge"><path fill="none" stroke="#000" d="M270.57-47.1c-1.77-10.6 1.71-20.25 10.43-20.25 6.68 0 10.28 5.66 10.81 13.07"/><path stroke="#000" d="M291.43-47.1l3.51-6.83-3.33 3.33.19-3.49h0l-.19 3.49-2.96-3.66 2.78 7.16h0z"/><text x="262.5" y="-70.75" font-family="Lato" font-size="12">a &amp; !b</text></g></g></svg>