<?xml-stylesheet href="spot.css" type="text/css"?><svg width="236pt" height="107pt" viewBox="0 0 236 107.16" xmlns="http://www.w3.org/2000/svg"><g class="graph"><path fill="#fff" stroke="transparent" d="M0 107.16V0h236v107.16H0z"/><text x="8" y="-86.56" font-family="Lato" font-size="12" transform="translate(4 103.16)">(Fin(</text><text x="34" y="-86.56" font-family="Lato" font-size="12" fill="#1f78b4" transform="translate(4 103.16)">⓿</text><text x="47" y="-86.56" font-family="Lato" font-size="12" transform="translate(4 103.16)">) &amp; Inf(</text><text x="89" y="-86.56" font-family="Lato" font-size="12" fill="#ff4da0" transform="translate(4 103.16)">❶</text><text x="100" y="-86.56" font-family="Lato" font-size="12" transform="translate(4 103.16)">)) | (Fin(</text><text x="146" y="-86.56" font-family="Lato" font-size="12" fill="#ff7f00" transform="translate(4 103.16)">❷</text><text x="157" y="-86.56" font-family="Lato" font-size="12" transform="translate(4 103.16)">) &amp; Inf(</text><text x="199" y="-86.56" font-family="Lato" font-size="12" fill="#6a3d9a" transform="translate(4 103.16)">❸</text><text x="210" y="-86.56" font-family="Lato" font-size="12" transform="translate(4 103.16)">))</text><text x="86.5" y="-74.56" font-family="Lato" font-size="12" transform="translate(4 103.16)">[Rabin 2]</text><g class="node" transform="translate(4 103.16)"><path fill="#ffffa0" stroke="#000" d="M95.5-36.16h-14c-6 0-12 6-12 12v12c0 6 6 12 12 12h14c6 0 12-6 12-12v-12c0-6-6-12-12-12"/><text x="84.5" y="-21.56" font-family="Lato" font-size="12">0</text><text x="77.5" y="-9.56" font-family="Lato" font-size="12" fill="#ff4da0">❶</text><text x="88.5" y="-9.56" font-family="Lato" font-size="12" fill="#ff7f00">❷</text></g><g class="edge" transform="translate(4 103.16)"><path fill="none" stroke="#000" d="M32.66-18.16h29.23"/><path stroke="#000" d="M69.24-18.16l-7-3.15 3.5 3.15h-3.5 3.5l-3.5 3.15 7-3.15h0z"/></g><g class="edge" transform="translate(4 103.16)"><path fill="none" stroke="#000" d="M81.99-36.32c-1-9.38 1.17-17.84 6.51-17.84 3.92 0 6.14 4.56 6.64 10.7"/><path stroke="#000" d="M95.01-36.32l3.28-6.94-3.22 3.44.07-3.5h0l-.07 3.5-3.08-3.55 3.02 7.05h0z"/><text x="84.5" y="-57.56" font-family="Lato" font-size="12">a</text></g><g class="node" transform="translate(4 103.16)"><path fill="#ffffa0" stroke="#000" d="M184.5-36.16h-16c-6 0-12 6-12 12v12c0 6 6 12 12 12h16c6 0 12-6 12-12v-12c0-6-6-12-12-12"/><text x="172.5" y="-21.56" font-family="Lato" font-size="12">1</text><text x="164.5" y="-9.56" font-family="Lato" font-size="12" fill="#1f78b4">⓿</text><text x="177.5" y="-9.56" font-family="Lato" font-size="12" fill="#6a3d9a">❸</text></g><g class="edge" transform="translate(4 103.16)"><path fill="none" stroke="#000" d="M107.74-18.16h41.5"/><path stroke="#000" d="M156.39-18.16l-7-3.15 3.5 3.15h-3.5 3.5l-3.5 3.15 7-3.15h0z"/><text x="125.5" y="-21.56" font-family="Lato" font-size="12">!a</text></g><g class="edge" transform="translate(4 103.16)"><path fill="none" stroke="#000" d="M156.31-6.38c-9.19 4.27-20.43 7.54-30.81 5.22-3.79-.85-7.66-2.15-11.38-3.66"/><path stroke="#000" d="M107.62-7.71l5.12 5.73-1.92-4.3 3.2 1.42h0l-3.2-1.42 4.48-1.46-7.68.03h0z"/><text x="125.5" y="-4.56" font-family="Lato" font-size="12">!b</text></g><g class="edge" transform="translate(4 103.16)"><path fill="none" stroke="#000" d="M168.54-36.32c-1.22-9.38 1.43-17.84 7.96-17.84 4.8 0 7.5 4.56 8.11 10.7"/><path stroke="#000" d="M184.46-36.32l3.3-6.93-3.22 3.43.07-3.49h0l-.07 3.49-3.08-3.56 3 7.06h0z"/><text x="172.5" y="-57.56" font-family="Lato" font-size="12">b</text></g></g></svg>