<?xml-stylesheet href="spot.css" type="text/css"?><svg width="576" height="348" viewBox="0 0 432 260.68" xmlns="http://www.w3.org/2000/svg"><g class="graph" transform="translate(4 256.68)"><path fill="#fff" stroke="transparent" d="M-4 4v-260.68h432V4H-4z"/><text x="106" y="-240.08" font-family="Lato" font-size="12">(Fin(</text><text x="132" y="-240.08" font-family="Lato" font-size="12" fill="#1f78b4">⓿</text><text x="145" y="-240.08" font-family="Lato" font-size="12">) &amp; Inf(</text><text x="187" y="-240.08" font-family="Lato" font-size="12" fill="#ff4da0">❶</text><text x="198" y="-240.08" font-family="Lato" font-size="12">)) | (Fin(</text><text x="244" y="-240.08" font-family="Lato" font-size="12" fill="#ff7f00">❷</text><text x="255" y="-240.08" font-family="Lato" font-size="12">) &amp; Inf(</text><text x="297" y="-240.08" font-family="Lato" font-size="12" fill="#6a3d9a">❸</text><text x="308" y="-240.08" font-family="Lato" font-size="12">))</text><text x="184.5" y="-228.08" font-family="Lato" font-size="12">[Rabin 2]</text><g class="node"><path fill="#ffffa0" stroke="#000" d="M66-63.68H50c-6 0-12 6-12 12v12c0 6 6 12 12 12h16c6 0 12-6 12-12v-12c0-6-6-12-12-12"/><text x="54" y="-49.08" font-family="Lato" font-size="12">0</text><text x="46" y="-37.08" font-family="Lato" font-size="12" fill="#1f78b4">⓿</text><text x="59" y="-37.08" font-family="Lato" font-size="12" fill="#ff7f00">❷</text></g><g class="edge"><path fill="none" stroke="#000" d="M1.16-45.68h29.61"/><path stroke="#000" d="M37.81-45.68l-7-3.15 3.5 3.15h-3.5 3.5l-3.5 3.15 7-3.15h0z"/></g><g class="edge"><path fill="none" stroke="#000" d="M51.13-63.83c-1.06-9.39 1.23-17.85 6.87-17.85 4.14 0 6.48 4.57 7.01 10.71"/><path stroke="#000" d="M64.87-63.83l3.29-6.94-3.22 3.44.07-3.5h0l-.07 3.5-3.08-3.56 3.01 7.06h0z"/><text x="37.5" y="-85.08" font-family="Lato" font-size="12">!a &amp; !b</text></g><g class="node"><path fill="#ffffa0" stroke="#000" d="M182.5-157.68h-14c-6 0-12 6-12 12v12c0 6 6 12 12 12h14c6 0 12-6 12-12v-12c0-6-6-12-12-12"/><text x="171.5" y="-143.08" font-family="Lato" font-size="12">1</text><text x="164.5" y="-131.08" font-family="Lato" font-size="12" fill="#ff4da0">❶</text><text x="175.5" y="-131.08" font-family="Lato" font-size="12" fill="#ff7f00">❷</text></g><g class="edge"><path fill="none" stroke="#000" d="M63.75-63.71c5.24-16.4 15.27-40.1 32.25-53.97 15.02-12.26 36.45-17.7 53.13-20.1"/><path stroke="#000" d="M156.41-138.69l-7.33-2.26 3.86 2.69-3.47.43h0l3.47-.43-3.09 3.56 6.56-3.99h0z"/><text x="98" y="-138.08" font-family="Lato" font-size="12">a &amp; !b</text></g><g class="node"><path fill="#ffffa0" stroke="#000" d="M412-94.68h-16c-6 0-12 6-12 12v12c0 6 6 12 12 12h16c6 0 12-6 12-12v-12c0-6-6-12-12-12"/><text x="400" y="-80.08" font-family="Lato" font-size="12">2</text><text x="392" y="-68.08" font-family="Lato" font-size="12" fill="#1f78b4">⓿</text><text x="405" y="-68.08" font-family="Lato" font-size="12" fill="#6a3d9a">❸</text></g><g class="edge"><path fill="none" stroke="#000" d="M78.29-37.69c5.62 1.99 11.83 3.88 17.71 5.01 69.43 13.36 88.73 12.82 159 5 50.26-5.59 64.39-5.37 111-25 3.89-1.63 7.82-3.68 11.59-5.88"/><path stroke="#000" d="M383.75-62.36l-7.61 1 4.63.84-2.98 1.84h0l2.98-1.84-1.32 4.52 4.3-6.36h0z"/><text x="216" y="-31.08" font-family="Lato" font-size="12">!a &amp; b</text></g><g class="node"><path fill="#ffffa0" stroke="#000" d="M299-94.68h-14c-6 0-12 6-12 12v12c0 6 6 12 12 12h14c6 0 12-6 12-12v-12c0-6-6-12-12-12"/><text x="288" y="-80.08" font-family="Lato" font-size="12">3</text><text x="281" y="-68.08" font-family="Lato" font-size="12" fill="#ff4da0">❶</text><text x="292" y="-68.08" font-family="Lato" font-size="12" fill="#6a3d9a">❸</text></g><g class="edge"><path fill="none" stroke="#000" d="M78.38-48.27c41.87-5.59 140.73-18.8 187.4-25.04"/><path stroke="#000" d="M272.8-74.24l-7.35-2.2 3.88 2.66-3.47.46h0l3.47-.46-3.05 3.58 6.52-4.04h0z"/><text x="159.5" y="-67.08" font-family="Lato" font-size="12">a &amp; b</text></g><g class="edge"><path fill="none" stroke="#000" d="M159.67-121.55c-6.45 7.12-14.41 14.98-22.67 20.87-16.35 11.66-24.46 7.62-41 19-5.42 3.74-10.78 8.29-15.66 12.88"/><path stroke="#000" d="M75.25-63.83l7.21-2.63-4.71.19 2.51-2.45h0l-2.51 2.45.31-4.7-2.81 7.14h0z"/><text x="96" y="-104.08" font-family="Lato" font-size="12">!a &amp; !b</text></g><g class="edge"><path fill="none" stroke="#000" d="M165.01-157.83c-1.62-9.39 1.88-17.85 10.49-17.85 6.32 0 9.89 4.57 10.7 10.71"/><path stroke="#000" d="M185.99-157.83l3.35-6.91-3.25 3.41.1-3.5h0l-.1 3.5-3.05-3.59 2.95 7.09h0z"/><text x="157" y="-179.08" font-family="Lato" font-size="12">a &amp; !b</text></g><g class="edge"><path fill="none" stroke="#000" d="M187.73-157.92c6.49-8.83 15.51-18.61 26.27-23.76 60.94-29.16 97.95-40.52 152 0 24.67 18.49 32.96 54.7 35.71 79.37"/><path stroke="#000" d="M402.39-95.05l2.48-7.27-2.81 3.78-.33-3.48h0l.33 3.48-3.46-3.18 3.79 6.67h0z"/><text x="273.5" y="-211.08" font-family="Lato" font-size="12">!a &amp; b</text></g><g class="edge"><path fill="none" stroke="#000" d="M194.52-137.61c16.73 2.58 41.79 8.17 60.48 19.93 7.12 4.48 13.63 10.79 19.1 17.12"/><path stroke="#000" d="M278.82-94.8l-2-7.41-.22 4.7-2.21-2.71h0l2.21 2.71-4.65-.71 6.87 3.42h0z"/><text x="218.5" y="-137.08" font-family="Lato" font-size="12">a &amp; b</text></g><g class="edge"><path fill="none" stroke="#000" d="M390.85-58.46c-6.46 8.38-15.09 17.77-24.85 23.78-43.41 26.75-60.43 22.51-111 29-70.44 9.05-92.41 8.7-159-16-3.96-1.46-7.92-3.41-11.71-5.56"/><path stroke="#000" d="M78.11-31.01l4.34 6.33-1.35-4.51 2.99 1.82h0l-2.99-1.82 4.63-.86-7.62-.96h0z"/><text x="214" y="-9.08" font-family="Lato" font-size="12">!a &amp; !b</text></g><g class="edge"><path fill="none" stroke="#000" d="M383.82-91.06c-18.01-12.93-46.1-31.67-72.82-43.62-23.63-10.56-30.37-12.41-56-16-18.05-2.52-22.96-2.59-41 0-4.13.6-8.44 1.54-12.61 2.63"/><path stroke="#000" d="M194.58-146.11l7.59 1.11-4.22-2.07 3.36-.96h0l-3.36.96 2.5-3.99-5.87 4.95h0z"/><text x="273.5" y="-151.08" font-family="Lato" font-size="12">a &amp; !b</text></g><g class="edge"><path fill="none" stroke="#000" d="M393.87-94.83c-1.56-9.39 1.82-17.85 10.13-17.85 6.1 0 9.55 4.57 10.33 10.71"/><path stroke="#000" d="M414.13-94.83l3.34-6.91-3.24 3.41.09-3.5h0l-.09 3.5-3.05-3.58 2.95 7.08h0z"/><text x="385.5" y="-116.08" font-family="Lato" font-size="12">!a &amp; b</text></g><g class="edge"><path fill="none" stroke="#000" d="M383.7-76.68h-65.3"/><path stroke="#000" d="M311.16-76.68l7 3.15-3.5-3.15h3.5-3.5l3.5-3.15-7 3.15h0z"/><text x="331.5" y="-80.08" font-family="Lato" font-size="12">a &amp; b</text></g><g class="edge"><path fill="none" stroke="#000" d="M272.66-67.4c-18.72 8.9-48.89 21.71-76.66 26.72-38.06 6.87-82.99 3-110.75-.73"/><path stroke="#000" d="M78.24-42.41l6.49 4.1-3.02-3.61 3.46.49h0l-3.46-.49 3.91-2.62-7.38 2.13h0z"/><text x="155" y="-44.08" font-family="Lato" font-size="12">!a &amp; !b</text></g><g class="edge"><path fill="none" stroke="#000" d="M272.81-79.67c-16.33-3.29-40.47-9.67-58.81-21.01-6.73-4.16-13.09-9.8-18.6-15.5"/><path stroke="#000" d="M190.6-121.39l2.43 7.28-.06-4.71 2.38 2.58h0l-2.38-2.58 4.69.44-7.06-3.01h0z"/><text x="216" y="-104.08" font-family="Lato" font-size="12">a &amp; !b</text></g><g class="edge"><path fill="none" stroke="#000" d="M311.12-66.22c5.56 2.68 11.81 5.18 17.88 6.54 16.05 3.6 20.94 3.52 37 0 3.8-.83 7.67-2.09 11.41-3.55"/><path stroke="#000" d="M383.96-66.04l-7.67-.13 4.46 1.51-3.22 1.38h0l3.22-1.38-1.98 4.28 5.19-5.66h0z"/><text x="329" y="-63.08" font-family="Lato" font-size="12">!a &amp; b</text></g><g class="edge"><path fill="none" stroke="#000" d="M282.23-94.83c-1.5-9.39 1.75-17.85 9.77-17.85 5.89 0 9.21 4.57 9.96 10.71"/><path stroke="#000" d="M301.77-94.83l3.33-6.91-3.24 3.41.1-3.5h0l-.1 3.5-3.05-3.58 2.96 7.08h0z"/><text x="276" y="-116.08" font-family="Lato" font-size="12">a &amp; b</text></g></g></svg>