<?xml-stylesheet href="spot.css" type="text/css"?><svg width="247pt" height="157pt" viewBox="0 0 247 156.59" xmlns="http://www.w3.org/2000/svg"><g class="graph"><path fill="#fff" stroke="transparent" d="M0 156.59V0h247v156.59H0z"/><text x="44.5" y="-135.99" font-family="Lato" font-size="12" transform="translate(4 152.59)">Inf(</text><text x="65.5" y="-135.99" font-family="Lato" font-size="12" fill="#ff7f00" transform="translate(4 152.59)">❷</text><text x="76.5" y="-135.99" font-family="Lato" font-size="12" transform="translate(4 152.59)">) | (Fin(</text><text x="118.5" y="-135.99" font-family="Lato" font-size="12" fill="#ff4da0" transform="translate(4 152.59)">❶</text><text x="129.5" y="-135.99" font-family="Lato" font-size="12" transform="translate(4 152.59)">) &amp; Inf(</text><text x="171.5" y="-135.99" font-family="Lato" font-size="12" fill="#1f78b4" transform="translate(4 152.59)">⓿</text><text x="184.5" y="-135.99" font-family="Lato" font-size="12" transform="translate(4 152.59)">))</text><text x="60.5" y="-123.99" font-family="Lato" font-size="12" transform="translate(4 152.59)">[parity max even 3]</text><g class="node" transform="translate(4 152.59)"><path fill="#ffffa0" stroke="#000" d="M62-36.59H50c-6 0-12 6-12 12v12c0 6 6 12 12 12h12c6 0 12-6 12-12v-12c0-6-6-12-12-12"/><text x="52" y="-21.99" font-family="Lato" font-size="12">0</text><text x="50.5" y="-8.99" font-family="Lato" font-size="12" fill="#ff7f00">❷</text></g><g class="edge" transform="translate(4 152.59)"><path fill="none" stroke="#000" d="M1.15-18.59h29.48"/><path stroke="#000" d="M37.94-18.59l-7-3.15 3.5 3.15h-3.5 3.5l-3.5 3.15 7-3.15h0z"/></g><g class="node" transform="translate(4 152.59)"><path fill="#ffffa0" stroke="#000" d="M147-85.59h-12c-6 0-12 6-12 12v12c0 6 6 12 12 12h12c6 0 12-6 12-12v-12c0-6-6-12-12-12"/><text x="137" y="-70.99" font-family="Lato" font-size="12">1</text><text x="135.5" y="-57.99" font-family="Lato" font-size="12" fill="#ff4da0">❶</text></g><g class="edge" transform="translate(4 152.59)"><path fill="none" stroke="#000" d="M74.2-28.74c12.24-7.23 28.84-17.03 42.3-24.97"/><path stroke="#000" d="M122.82-57.45l-7.62.85 4.61.93-3.01 1.78h0l3.01-1.78-1.41 4.49 4.42-6.27h0z"/><text x="92" y="-48.99" font-family="Lato" font-size="12">!b</text></g><g class="node" transform="translate(4 152.59)"><path fill="#ffffa0" stroke="#000" d="M227-36.59h-12c-6 0-12 6-12 12v12c0 6 6 12 12 12h12c6 0 12-6 12-12v-12c0-6-6-12-12-12"/><text x="217" y="-21.99" font-family="Lato" font-size="12">2</text><text x="215.5" y="-8.99" font-family="Lato" font-size="12" fill="#ff4da0">❶</text></g><g class="edge" transform="translate(4 152.59)"><path fill="none" stroke="#000" d="M74.14-18.59h121.35"/><path stroke="#000" d="M202.6-18.59l-7-3.15 3.5 3.15h-3.5 3.5l-3.5 3.15 7-3.15h0z"/><text x="137" y="-21.99" font-family="Lato" font-size="12">b</text></g><g class="edge" transform="translate(4 152.59)"><path fill="none" stroke="#000" d="M133.76-85.74c-1.11-9.39 1.3-17.85 7.24-17.85 4.36 0 6.82 4.57 7.38 10.71"/><path stroke="#000" d="M148.24-85.74l3.28-6.94-3.21 3.44.06-3.5h0l-.06 3.5-3.08-3.56 3.01 7.06h0z"/><text x="134.5" y="-106.99" font-family="Lato" font-size="12">!b</text></g><g class="edge" transform="translate(4 152.59)"><path fill="none" stroke="#000" d="M159.31-56.71c11.01 6.91 25.4 15.95 37.4 23.49"/><path stroke="#000" d="M202.74-29.43l-4.25-6.39 1.28 4.53-2.96-1.86h0l2.96 1.86-4.64.8 7.61 1.06h0z"/><text x="177" y="-46.99" font-family="Lato" font-size="12">b</text></g><g class="edge" transform="translate(4 152.59)"><path fill="none" stroke="#000" d="M202.91-12.48C190.82-8.49 174.14-3.66 159-1.59c-15.85 2.17-20.13 2.01-36 0-14.13-1.79-29.56-5.65-41.95-9.25"/><path stroke="#000" d="M74.14-12.9l5.8 5.02-2.45-4.02 3.35 1h0l-3.35-1 4.26-2.01-7.61 1.01h0z"/><text x="137" y="-4.99" font-family="Lato" font-size="12">a</text></g><g class="edge" transform="translate(4 152.59)"><path fill="none" stroke="#000" d="M213.76-36.74c-1.11-9.39 1.3-17.85 7.24-17.85 4.36 0 6.82 4.57 7.38 10.71"/><path stroke="#000" d="M228.24-36.74l3.28-6.94-3.21 3.44.06-3.5h0l-.06 3.5-3.08-3.56 3.01 7.06h0z"/><text x="214.5" y="-57.99" font-family="Lato" font-size="12">!a</text></g></g></svg>