<?xml-stylesheet href="spot.css" type="text/css"?><svg width="317pt" height="146pt" viewBox="0 0 317 145.7" xmlns="http://www.w3.org/2000/svg"><g class="graph"><path fill="#fff" stroke="transparent" d="M0 145.7V0h317v145.7H0z"/><text x="124" y="-124.1" font-family="Lato" font-size="12" transform="translate(4 141.7)">[co-Büchi]</text><g class="node" transform="translate(4 141.7)"><circle fill="#ffffa0" stroke="#000" cx="60" cy="-52.7" r="18"/><circle fill="none" stroke="#000" cx="60" cy="-52.7" r="22"/><text text-anchor="middle" x="60" y="-49.6" font-family="Lato" font-size="12">0</text></g><g class="edge" transform="translate(4 141.7)"><path fill="none" stroke="#000" d="M1.17-52.7h29.54"/><path stroke="#000" d="M37.86-52.7l-7-3.15 3.5 3.15h-3.5 3.5l-3.5 3.15 7-3.15h0z"/></g><g class="node" transform="translate(4 141.7)"><circle fill="#ffffa0" stroke="#000" cx="291" cy="-42.7" r="18"/><text text-anchor="middle" x="291" y="-39.6" font-family="Lato" font-size="12">1</text></g><g class="edge" transform="translate(4 141.7)"><path fill="none" stroke="#000" d="M77.96-65.7c26.02-18.32 77.47-48.12 122.04-35 27.56 8.11 54.64 27.56 71.78 41.71"/><path stroke="#000" d="M277.2-54.42l-3.32-6.92.64 4.66-2.67-2.25h0l2.67 2.25-4.71.15 7.39 2.11h0z"/><text x="159" y="-107.1" font-family="Lato" font-size="12">!a &amp; !b</text></g><g class="node" transform="translate(4 141.7)"><circle fill="#ffffa0" stroke="#000" cx="179.5" cy="-42.7" r="18"/><text text-anchor="middle" x="179.5" y="-39.6" font-family="Lato" font-size="12">2</text></g><g class="edge" transform="translate(4 141.7)"><path fill="none" stroke="#000" d="M82.1-52.27c16.16.48 38.98 1.48 58.9 3.57 4.48.47 9.23 1.11 13.8 1.81"/><path stroke="#000" d="M161.75-45.78L155.34-50l2.95 3.67-3.45-.56h0l3.45.56-3.95 2.56 7.41-2.01h0z"/><text x="107" y="-54.1" font-family="Lato" font-size="12">a | b</text></g><g class="edge" transform="translate(4 141.7)"><path fill="none" stroke="#000" d="M275.06-33.71C257.72-23.84 227.93-8.63 200-2.7c-17.83 3.78-23.07 3.23-41 0-27.54-4.97-34.3-8.83-59-22-5.5-2.93-11.11-6.54-16.3-10.18"/><path stroke="#000" d="M77.83-39.12l3.82 6.65-.98-4.6 2.83 2.05h0l-2.83-2.05 4.68-.5-7.52-1.55h0z"/><text x="173" y="-6.1" font-family="Lato" font-size="12">!b</text></g><g class="edge" transform="translate(4 141.7)"><path fill="none" stroke="#000" d="M281.77-58.24c-2.6-10.37.48-20.46 9.23-20.46 6.7 0 10.08 5.92 10.12 13.34"/><path stroke="#000" d="M300.23-58.24l4-6.56-3.56 3.09.43-3.48h0l-.43 3.48-2.69-3.87 2.25 7.34h0z"/><text x="287" y="-82.1" font-family="Lato" font-size="12">b</text></g><g class="edge" transform="translate(4 141.7)"><path fill="none" stroke="#000" d="M162.37-36.86c-16.01 4.97-41.15 10.51-62.37 5.16-5.02-1.27-10.1-3.32-14.86-5.66"/><path stroke="#000" d="M78.88-40.68l4.71 6.06-1.62-4.42 3.09 1.64h0l-3.09-1.64 4.57-1.14-7.66-.5h0z"/><text x="100" y="-35.1" font-family="Lato" font-size="12">!a &amp; !b</text></g><g class="edge" transform="translate(4 141.7)"><path fill="none" stroke="#000" d="M197.61-42.7h67.85"/><path stroke="#000" d="M272.65-42.7l-7-3.15 3.5 3.15h-3.5 3.5l-3.5 3.15 7-3.15h0z"/><text x="218" y="-46.1" font-family="Lato" font-size="12">!a &amp; b</text></g><g class="edge" transform="translate(4 141.7)"><path fill="none" stroke="#000" d="M169.93-58.24c-2.7-10.37.49-20.46 9.57-20.46 6.95 0 10.45 5.92 10.5 13.34"/><path stroke="#000" d="M189.07-58.24l4.03-6.54-3.57 3.07.45-3.47h0l-.45 3.47-2.68-3.88 2.22 7.35h0z"/><text x="175.5" y="-82.1" font-family="Lato" font-size="12">a</text></g></g></svg>