<?xml-stylesheet href="spot.css" type="text/css"?><svg width="216" height="107pt" viewBox="0 0 162 107" xmlns="http://www.w3.org/2000/svg"><g class="graph"><path fill="#fff" stroke="transparent" d="M0 107V0h162v107H0z"/><text x="35" y="-86.4" font-family="Lato" font-size="12" transform="translate(4 103)">Inf(</text><text x="56" y="-86.4" font-family="Lato" font-size="12" fill="#1f78b4" transform="translate(4 103)">⓿</text><text x="69" y="-86.4" font-family="Lato" font-size="12" transform="translate(4 103)">)&amp;Inf(</text><text x="103" y="-86.4" font-family="Lato" font-size="12" fill="#ff4da0" transform="translate(4 103)">❶</text><text x="114" y="-86.4" font-family="Lato" font-size="12" transform="translate(4 103)">)</text><text x="35" y="-74.4" font-family="Lato" font-size="12" transform="translate(4 103)">[gen. Büchi 2]</text><g class="node" transform="translate(4 103)"><path fill="#ffffa0" stroke="#000" d="M62-36H50c-6 0-12 6-12 12v12c0 6 6 12 12 12h12c6 0 12-6 12-12v-12c0-6-6-12-12-12"/><text x="52" y="-21.4" font-family="Lato" font-size="12">0</text><text x="50.5" y="-8.4" font-family="Lato" font-size="12" fill="#ff4da0">❶</text></g><g class="edge" transform="translate(4 103)"><path fill="none" stroke="#000" d="M1.15-18h29.48"/><path stroke="#000" d="M37.94-18l-7-3.15 3.5 3.15h-3.5 3.5l-3.5 3.15 7-3.15h0z"/></g><g class="edge" transform="translate(4 103)"><path fill="none" stroke="#000" d="M49.49-36.15C48.49-45.54 50.66-54 56-54c3.92 0 6.14 4.56 6.64 10.7"/><path stroke="#000" d="M62.51-36.15l3.28-6.95-3.22 3.45.07-3.5h0l-.07 3.5-3.08-3.56 3.02 7.06h0z"/><text x="49.5" y="-57.4" font-family="Lato" font-size="12">!a</text></g><g class="node" transform="translate(4 103)"><path fill="#ffffa0" stroke="#000" d="M142-36h-12c-6 0-12 6-12 12v12c0 6 6 12 12 12h12c6 0 12-6 12-12v-12c0-6-6-12-12-12"/><text x="132" y="-21.4" font-family="Lato" font-size="12">1</text><text x="129.5" y="-8.4" font-family="Lato" font-size="12" fill="#1f78b4">⓿</text></g><g class="edge" transform="translate(4 103)"><path fill="none" stroke="#000" d="M74.31-18h36.4"/><path stroke="#000" d="M117.74-18l-7-3.15 3.5 3.15h-3.5 3.5l-3.5 3.15 7-3.15h0z"/><text x="92" y="-21.4" font-family="Lato" font-size="12">a</text></g><g class="edge" transform="translate(4 103)"><path fill="none" stroke="#000" d="M117.77-7.72C112.28-4.98 106.06-2.39 100-1 93.57.48 86.83-.75 80.64-3.09"/><path stroke="#000" d="M74.19-6l5.09 5.75-1.9-4.31 3.19 1.44h0l-3.19-1.44 4.49-1.43L74.19-6h0z"/><text x="92" y="-4.4" font-family="Lato" font-size="12">b</text></g><g class="edge" transform="translate(4 103)"><path fill="none" stroke="#000" d="M128.76-36.15C127.65-45.54 130.06-54 136-54c4.36 0 6.82 4.56 7.38 10.7"/><path stroke="#000" d="M143.24-36.15l3.28-6.94-3.21 3.44.06-3.5h0l-.06 3.5-3.08-3.56 3.01 7.06h0z"/><text x="129.5" y="-57.4" font-family="Lato" font-size="12">!b</text></g></g></svg>