<?xml-stylesheet href="spot.css" type="text/css"?><svg width="232" height="332" viewBox="0 0 174 249" xmlns="http://www.w3.org/2000/svg"><g class="graph" transform="translate(4 245)"><path fill="#fff" stroke="transparent" d="M-4 4v-249h174V4H-4z"/><text x="63.5" y="-228.4" font-family="Lato" font-size="12">Inf(</text><text x="84.5" y="-228.4" font-family="Lato" font-size="12" fill="#1f78b4">⓿</text><text x="97.5" y="-228.4" font-family="Lato" font-size="12">)</text><text x="61.5" y="-216.4" font-family="Lato" font-size="12">[Büchi]</text><g class="node"><circle fill="#ffffa0" stroke="#000" cx="56" cy="-82" r="18"/><text text-anchor="middle" x="56" y="-78.9" font-family="Lato" font-size="12">0</text></g><g class="edge"><path fill="none" stroke="#000" d="M1.15-82h29.48"/><path stroke="#000" d="M37.94-82l-7-3.15 3.5 3.15h-3.5 3.5l-3.5 3.15 7-3.15h0z"/></g><g class="node"><circle fill="#ffffa0" stroke="#000" cx="148" cy="-147" r="18"/><text text-anchor="middle" x="148" y="-143.9" font-family="Lato" font-size="12">1</text></g><g class="edge"><path fill="none" stroke="#000" d="M71.06-92.16c15.06-10.87 39.08-28.22 56.07-40.49"/><path stroke="#000" d="M133.04-136.92l-7.52 1.55 4.68.5-2.84 2.05h0l2.84-2.05-.99 4.61 3.83-6.66h0z"/><text x="94" y="-123.4" font-family="Lato" font-size="12">p0</text></g><g class="node"><circle fill="#ffffa0" stroke="#000" cx="148" cy="-18" r="18"/><text text-anchor="middle" x="148" y="-14.9" font-family="Lato" font-size="12">2</text></g><g class="edge"><path fill="none" stroke="#000" d="M71.06-72c14.97 10.65 38.8 27.59 55.77 39.65"/><path stroke="#000" d="M132.74-28.14l-3.88-6.62 1.03 4.59-2.86-2.03h0l2.86 2.03-4.68.54 7.53 1.49h0z"/><text x="92" y="-58.4" font-family="Lato" font-size="12">!p0</text></g><g class="edge"><path fill="none" stroke="#000" d="M139.98-163.29c-1.93-10.1.74-19.71 8.02-19.71 5.46 0 8.33 5.41 8.6 12.37"/><path stroke="#000" d="M156.02-163.29l3.69-6.73-3.41 3.24.27-3.49h0l-.27 3.49-2.87-3.74 2.59 7.23h0z"/><text x="144" y="-199.4" font-family="Lato" font-size="12">1</text><text x="141.5" y="-186.4" font-family="Lato" font-size="12" fill="#1f78b4">⓿</text></g><g class="edge"><path fill="none" stroke="#000" d="M143.87-35.78c-.71-9.53.67-18.22 4.13-18.22 2.54 0 3.96 4.68 4.25 10.95"/><path stroke="#000" d="M152.13-35.78l3.27-6.95-3.21 3.45.06-3.5h0l-.06 3.5-3.09-3.55 3.03 7.05h0z"/><text x="138" y="-57.4" font-family="Lato" font-size="12">!p1</text></g><g class="edge"><path fill="none" stroke="#000" d="M141.33-34.86C137.29-52.38 139.51-72 148-72c7.36 0 10.01 14.76 7.95 30.1"/><path stroke="#000" d="M154.67-34.86l4.35-6.33-3.73 2.88.63-3.44h0l-.63 3.44-2.47-4 1.85 7.45h0z"/><text x="140" y="-88.4" font-family="Lato" font-size="12">p1</text><text x="141.5" y="-75.4" font-family="Lato" font-size="12" fill="#1f78b4">⓿</text></g></g></svg>