<?xml-stylesheet href="spot.css" type="text/css"?><svg width="184pt" height="76pt" viewBox="0 0 183.5 76.02" xmlns="http://www.w3.org/2000/svg"><g class="graph"><path fill="#fff" stroke="transparent" d="M0 76.02V0h183.5v76.02H0z"/><g class="node" transform="translate(4 72.02)"><circle fill="#ffffa0" stroke="#000" cx="56" cy="-19.02" r="18"/><text text-anchor="middle" x="56" y="-15.92" font-family="Lato" font-size="12">0</text></g><g class="edge" transform="translate(4 72.02)"><path fill="none" stroke="#000" d="M1.15-19.02h29.48"/><path stroke="#000" d="M37.94-19.02l-7-3.15 3.5 3.15h-3.5 3.5l-3.5 3.15 7-3.15h0z"/></g><g class="edge" transform="translate(4 72.02)"><path fill="none" stroke="#000" d="M49.62-36.05c-1.3-9.83.83-18.97 6.38-18.97 4.17 0 6.4 5.15 6.71 11.86"/><path stroke="#000" d="M62.38-36.05l3.47-6.85-3.31 3.35.17-3.5h0l-.17 3.5-2.98-3.64 2.82 7.14h0z"/><text x="49.5" y="-58.42" font-family="Lato" font-size="12">!b</text></g><g class="node" transform="translate(4 72.02)"><circle fill="#ffffa0" stroke="#000" cx="155" cy="-19.02" r="18"/><text text-anchor="middle" x="155" y="-15.92" font-family="Lato" font-size="12">1</text></g><g class="edge" transform="translate(4 72.02)"><path fill="none" stroke="#000" d="M74.34-19.02h55.45"/><path stroke="#000" d="M136.81-19.02l-7-3.15 3.5 3.15h-3.5 3.5l-3.5 3.15 7-3.15h0z"/><text x="101.5" y="-22.42" font-family="Lato" font-size="12">b</text></g><g class="edge" transform="translate(4 72.02)"><path fill="none" stroke="#000" d="M139.22-10c-6.04 3.19-13.24 6.38-20.22 7.98-11.69 2.69-15.31 2.69-27 0-4.58-1.05-9.25-2.79-13.64-4.76"/><path stroke="#000" d="M71.78-10l4.9 5.91-1.76-4.37 3.15 1.54h0l-3.15-1.54 4.53-1.29-7.67-.25h0z"/><text x="92" y="-5.42" font-family="Lato" font-size="12">a | b</text></g><g class="edge" transform="translate(4 72.02)"><path fill="none" stroke="#000" d="M146.64-35.31c-2.02-10.1.77-19.71 8.36-19.71 5.7 0 8.69 5.41 8.98 12.37"/><path stroke="#000" d="M163.36-35.31l3.73-6.71-3.43 3.22.29-3.48h0l-.29 3.48-2.85-3.75 2.55 7.24h0z"/><text x="134.5" y="-58.42" font-family="Lato" font-size="12">!a &amp; !b</text></g></g></svg>