<?xml-stylesheet href="spot.css" type="text/css"?><svg width="508pt" height="356" viewBox="0 0 508 267.28" xmlns="http://www.w3.org/2000/svg"><g class="graph"><path fill="#fff" stroke="transparent" d="M0 267.28V0h508v267.28H0z"/><text x="144" y="-246.68" font-family="Lato" font-size="12" transform="translate(4 263.28)">(Fin(</text><text x="170" y="-246.68" font-family="Lato" font-size="12" fill="#1f78b4" transform="translate(4 263.28)">⓿</text><text x="183" y="-246.68" font-family="Lato" font-size="12" transform="translate(4 263.28)">) &amp; Inf(</text><text x="225" y="-246.68" font-family="Lato" font-size="12" fill="#ff4da0" transform="translate(4 263.28)">❶</text><text x="236" y="-246.68" font-family="Lato" font-size="12" transform="translate(4 263.28)">)) | (Fin(</text><text x="282" y="-246.68" font-family="Lato" font-size="12" fill="#ff7f00" transform="translate(4 263.28)">❷</text><text x="293" y="-246.68" font-family="Lato" font-size="12" transform="translate(4 263.28)">) &amp; Inf(</text><text x="335" y="-246.68" font-family="Lato" font-size="12" fill="#6a3d9a" transform="translate(4 263.28)">❸</text><text x="346" y="-246.68" font-family="Lato" font-size="12" transform="translate(4 263.28)">))</text><text x="222.5" y="-234.68" font-family="Lato" font-size="12" transform="translate(4 263.28)">[Rabin 2]</text><g class="node" transform="translate(4 263.28)"><path fill="#ffffa0" stroke="#000" d="M62-64.28H50c-6 0-12 6-12 12v12c0 6 6 12 12 12h12c6 0 12-6 12-12v-12c0-6-6-12-12-12"/><text x="52" y="-49.68" font-family="Lato" font-size="12">0</text><text x="49.5" y="-36.68" font-family="Lato" font-size="12" fill="#1f78b4">⓿</text></g><g class="edge" transform="translate(4 263.28)"><path fill="none" stroke="#000" d="M1.15-46.28h29.48"/><path stroke="#000" d="M37.94-46.28l-7-3.15 3.5 3.15h-3.5 3.5l-3.5 3.15 7-3.15h0z"/></g><g class="edge" transform="translate(4 263.28)"><path fill="none" stroke="#000" d="M49.49-64.43c-1-9.39 1.17-17.85 6.51-17.85 3.92 0 6.14 4.56 6.64 10.71"/><path stroke="#000" d="M62.51-64.43l3.28-6.94-3.22 3.44.07-3.5h0l-.07 3.5-3.08-3.56 3.02 7.06h0z"/><text x="28" y="-85.68" font-family="Lato" font-size="12">!p0 &amp; !p1</text></g><g class="node" transform="translate(4 263.28)"><path fill="#ffffa0" stroke="#000" d="M200-158.28h-12c-6 0-12 6-12 12v12c0 6 6 12 12 12h12c6 0 12-6 12-12v-12c0-6-6-12-12-12"/><text x="190" y="-143.68" font-family="Lato" font-size="12">1</text><text x="188.5" y="-130.68" font-family="Lato" font-size="12" fill="#ff4da0">❶</text></g><g class="edge" transform="translate(4 263.28)"><path fill="none" stroke="#000" d="M61.05-64.52c4.64-16.55 13.91-40.36 30.95-53.76 21.93-17.24 54.46-21.66 76.64-22.46"/><path stroke="#000" d="M175.73-140.89l-7.06-3 3.56 3.07-3.5.07h0l3.5-.07-3.43 3.22 6.93-3.29h0z"/><text x="94" y="-141.68" font-family="Lato" font-size="12">p0 &amp; !p1</text></g><g class="node" transform="translate(4 263.28)"><path fill="#ffffa0" stroke="#000" d="M482-95.28h-16c-6 0-12 6-12 12v12c0 6 6 12 12 12h16c6 0 12-6 12-12v-12c0-6-6-12-12-12"/><text x="470" y="-80.68" font-family="Lato" font-size="12">2</text><text x="462" y="-68.68" font-family="Lato" font-size="12" fill="#1f78b4">⓿</text><text x="475" y="-68.68" font-family="Lato" font-size="12" fill="#6a3d9a">❸</text></g><g class="edge" transform="translate(4 263.28)"><path fill="none" stroke="#000" d="M74.31-41.15c5.6 1.47 11.87 2.93 17.69 3.87 89.62 14.43 113.58 18.01 204 10 62.96-5.58 81.43-1.23 140-25 4.05-1.64 8.12-3.78 11.99-6.11"/><path stroke="#000" d="M453.89-62.16l-7.59 1.12 4.65.76-2.95 1.89h0l2.95-1.89-1.25 4.54 4.19-6.42h0z"/><text x="242" y="-30.68" font-family="Lato" font-size="12">!p0 &amp; p1</text></g><g class="node" transform="translate(4 263.28)"><path fill="#ffffa0" stroke="#000" d="M347-95.28h-14c-6 0-12 6-12 12v12c0 6 6 12 12 12h14c6 0 12-6 12-12v-12c0-6-6-12-12-12"/><text x="336" y="-80.68" font-family="Lato" font-size="12">3</text><text x="329" y="-68.68" font-family="Lato" font-size="12" fill="#ff4da0">❶</text><text x="340" y="-68.68" font-family="Lato" font-size="12" fill="#6a3d9a">❸</text></g><g class="edge" transform="translate(4 263.28)"><path fill="none" stroke="#000" d="M74.22-48.17c47.95-5.27 183.21-20.14 239.6-26.34"/><path stroke="#000" d="M320.92-75.29l-7.3-2.37 3.83 2.75-3.48.38h0l3.48-.38-3.14 3.51 6.61-3.89h0z"/><text x="170.5" y="-67.68" font-family="Lato" font-size="12">p0 &amp; p1</text></g><g class="edge" transform="translate(4 263.28)"><path fill="none" stroke="#000" d="M175.84-122.61c-7.93 7.39-17.8 15.57-27.84 21.33-22.8 13.07-33.78 4.97-56 19-5.52 3.49-10.81 8.02-15.52 12.68"/><path stroke="#000" d="M71.6-64.53l7.12-2.86-4.7.34 2.43-2.53h0l-2.43 2.53.16-4.71-2.58 7.23h0z"/><text x="92" y="-104.68" font-family="Lato" font-size="12">!p0 &amp; !p1</text></g><g class="edge" transform="translate(4 263.28)"><path fill="none" stroke="#000" d="M180.61-158.43c-2.06-9.39 2.41-17.85 13.39-17.85 8.07 0 12.62 4.56 13.65 10.71"/><path stroke="#000" d="M207.39-158.43l3.4-6.88-3.28 3.38.13-3.5h0l-.13 3.5-3.02-3.61 2.9 7.11h0z"/><text x="168" y="-179.68" font-family="Lato" font-size="12">p0 &amp; !p1</text></g><g class="edge" transform="translate(4 263.28)"><path fill="none" stroke="#000" d="M209.19-158.62c8-8.86 18.78-18.63 30.81-23.66 80.38-33.58 125.99-51.84 196 0 24.92 18.45 33.13 55 35.8 79.73"/><path stroke="#000" d="M472.46-95.29l2.5-7.26-2.82 3.78-.32-3.49h0l.32 3.49-3.45-3.2 3.77 6.68h0z"/><text x="314" y="-217.68" font-family="Lato" font-size="12">!p0 &amp; p1</text></g><g class="edge" transform="translate(4 263.28)"><path fill="none" stroke="#000" d="M212.05-139.37c20.89 1.72 56.85 6.7 83.95 21.09 8.26 4.38 16.06 10.8 22.69 17.27"/><path stroke="#000" d="M323.97-95.62l-2.65-7.21.2 4.71-2.45-2.5h0l2.45 2.5-4.7-.3 7.15 2.8h0z"/><text x="244.5" y="-138.68" font-family="Lato" font-size="12">p0 &amp; p1</text></g><g class="edge" transform="translate(4 263.28)"><path fill="none" stroke="#000" d="M462.66-58.83c-6.41 9.72-15.55 20.97-26.66 27.55-54.37 32.23-77.04 19.42-140 25-90.66 8.03-118.22 12.45-204-18-3.99-1.41-7.99-3.34-11.8-5.48"/><path stroke="#000" d="M74.03-33.48l4.36 6.31-1.37-4.5 3 1.81h0l-3-1.81 4.63-.89-7.62-.92h0z"/><text x="240" y="-9.68" font-family="Lato" font-size="12">!p0 &amp; !p1</text></g><g class="edge" transform="translate(4 263.28)"><path fill="none" stroke="#000" d="M453.62-89.78c-20.89-12.99-55.48-33.12-87.62-45.5-29.88-11.5-38.21-13.19-70-17-24.71-2.96-31.32-3.23-56 0-6.83.9-14.1 2.52-20.75 4.3"/><path stroke="#000" d="M212.31-146.03l7.59 1.14-4.22-2.09 3.37-.95h0l-3.37.95 2.51-3.98-5.88 4.93h0z"/><text x="314" y="-152.68" font-family="Lato" font-size="12">p0 &amp; !p1</text></g><g class="edge" transform="translate(4 263.28)"><path fill="none" stroke="#000" d="M462.42-95.43c-1.78-9.39 2.08-17.85 11.58-17.85 6.98 0 10.91 4.56 11.8 10.71"/><path stroke="#000" d="M485.58-95.43l3.37-6.9-3.26 3.4.11-3.5h0l-.11 3.5-3.04-3.6 2.93 7.1h0z"/><text x="448" y="-116.68" font-family="Lato" font-size="12">!p0 &amp; p1</text></g><g class="edge" transform="translate(4 263.28)"><path fill="none" stroke="#000" d="M453.86-77.28h-87.64"/><path stroke="#000" d="M359.08-77.28l7 3.15-3.5-3.15h3.5-3.5l3.5-3.15-7 3.15h0z"/><text x="386.5" y="-80.68" font-family="Lato" font-size="12">p0 &amp; p1</text></g><g class="edge" transform="translate(4 263.28)"><path fill="none" stroke="#000" d="M320.67-70.62c-7.6 2.7-16.53 5.77-24.67 8.34-32.6 10.3-40.14 16.29-74 21-24.65 3.43-31.12.57-56 0-29.1-.67-62.53-2.33-84.61-3.56"/><path stroke="#000" d="M74.36-45.24l6.81 3.54-3.32-3.34 3.5.2h0l-3.5-.2 3.68-2.95-7.17 2.75h0z"/><text x="166" y="-44.68" font-family="Lato" font-size="12">!p0 &amp; !p1</text></g><g class="edge" transform="translate(4 263.28)"><path fill="none" stroke="#000" d="M320.94-79.06c-20.56-2.6-54.69-8.69-80.94-22.22-8.04-4.14-15.84-10.01-22.63-15.94"/><path stroke="#000" d="M211.93-122.18l3.05 7.04-.46-4.68 2.58 2.36h0l-2.58-2.36 4.7.03-7.29-2.39h0z"/><text x="242" y="-104.68" font-family="Lato" font-size="12">p0 &amp; !p1</text></g><g class="edge" transform="translate(4 263.28)"><path fill="none" stroke="#000" d="M359.38-68.25c7.45 3.19 16.26 6.38 24.62 7.97 22.7 4.33 29.42 4.94 52 0 3.8-.83 7.67-2.09 11.41-3.55"/><path stroke="#000" d="M453.96-66.64l-7.67-.14 4.46 1.52-3.22 1.38h0l3.22-1.38-1.98 4.27 5.19-5.65h0z"/><text x="384" y="-63.68" font-family="Lato" font-size="12">!p0 &amp; p1</text></g><g class="edge" transform="translate(4 263.28)"><path fill="none" stroke="#000" d="M327.34-95.43c-1.95-9.39 2.27-17.85 12.66-17.85 7.63 0 11.93 4.56 12.91 10.71"/><path stroke="#000" d="M352.66-95.43l3.39-6.89-3.27 3.39.13-3.5h0l-.13 3.5-3.02-3.61 2.9 7.11h0z"/><text x="316.5" y="-116.68" font-family="Lato" font-size="12">p0 &amp; p1</text></g></g></svg>