<?xml-stylesheet href="spot.css" type="text/css"?><svg width="299pt" height="104pt" viewBox="0 0 298.81 104" xmlns="http://www.w3.org/2000/svg"><g class="graph" transform="translate(4 100)"><path fill="#fff" stroke="transparent" d="M-4 4v-104h298.81V4H-4z"/><text x="123.91" y="-82.4" font-family="Lato" font-size="12">[Büchi]</text><g class="node"><circle fill="#ffffa0" stroke="#000" cx="63.5" cy="-22" r="18"/><circle fill="none" stroke="#000" cx="63.5" cy="-22" r="22"/><text text-anchor="middle" x="63.5" y="-18.9" font-family="Lato" font-size="12">0</text></g><g class="edge"><path fill="none" stroke="#000" d="M4.67-22h29.54"/><path stroke="#000" d="M41.36-22l-7-3.15 3.5 3.15h-3.5 3.5l-3.5 3.15 7-3.15h0z"/></g><g class="edge"><path fill="none" stroke="#000" d="M56.18-42.99C55.28-53.09 57.72-62 63.5-62c4.34 0 6.79 5.01 7.37 11.78"/><path stroke="#000" d="M70.82-42.99l3.2-6.98-3.18 3.48.03-3.5h0l-.03 3.5-3.12-3.52 3.1 7.02h0z"/><text y="-65.4" font-family="Lato" font-size="12">!door_open | light_on</text></g><g class="node"><circle fill="#ffffa0" stroke="#000" cx="271.5" cy="-22" r="18"/><text text-anchor="middle" x="271.5" y="-18.9" font-family="Lato" font-size="12">1</text></g><g class="edge"><path fill="none" stroke="#000" d="M85.77-22h160.61"/><path stroke="#000" d="M253.47-22l-7-3.15 3.5 3.15h-3.5 3.5l-3.5 3.15 7-3.15h0z"/><text x="103.5" y="-25.4" font-family="Lato" font-size="12">door_open &amp; !light_on</text></g><g class="edge"><path fill="none" stroke="#000" d="M256.86-33.06C247.69-44.78 252.57-58 271.5-58c15.67 0 21.71 9.07 18.12 18.84"/><path stroke="#000" d="M286.14-33.06l6.2-4.52-4.47 1.48 1.74-3.04h0l-1.74 3.04-1-4.6-.73 7.64h0z"/><text text-anchor="middle" x="271.5" y="-61.4" font-family="Lato" font-size="12">1</text></g></g></svg>