<?xml-stylesheet href="spot.css" type="text/css"?><svg width="194pt" height="180" viewBox="0 0 193.5 135.23" xmlns="http://www.w3.org/2000/svg"><g class="graph"><path fill="#fff" stroke="transparent" d="M0 135.23V0h193.5v135.23H0z"/><g class="node" transform="translate(4 131.23)"><circle fill="#ffffa0" stroke="#000" cx="56" cy="-47.23" r="18"/><text text-anchor="middle" x="56" y="-44.13" font-family="Lato" font-size="12">0</text></g><g class="edge" transform="translate(4 131.23)"><path fill="none" stroke="#000" d="M1.15-47.23h29.48"/><path stroke="#000" d="M37.94-47.23l-7-3.15 3.5 3.15h-3.5 3.5l-3.5 3.15 7-3.15h0z"/></g><g class="edge" transform="translate(4 131.23)"><path fill="none" stroke="#000" d="M52.76-65.01c-.55-9.54.53-18.22 3.24-18.22 1.99 0 3.1 4.68 3.33 10.95"/><path stroke="#000" d="M59.24-65.01l3.24-6.96-3.2 3.46.05-3.5h0l-.05 3.5-3.1-3.54 3.06 7.04h0z"/><text x="35.5" y="-86.63" font-family="Lato" font-size="12">!a &amp; !b</text></g><g class="edge" transform="translate(4 131.23)"><path fill="none" stroke="#000" d="M50.68-64.65c-3.03-17.37-1.25-36.58 5.32-36.58 5.7 0 7.79 14.44 6.27 29.61"/><path stroke="#000" d="M61.32-64.65l4.07-6.51-3.6 3.04.47-3.47h0l-.47 3.47-2.65-3.89 2.18 7.36h0z"/><text x="37.5" y="-104.63" font-family="Lato" font-size="12">a &amp; !b</text></g><g class="node" transform="translate(4 131.23)"><circle fill="#ffffa0" stroke="#000" cx="165" cy="-47.23" r="18"/><text text-anchor="middle" x="165" y="-44.13" font-family="Lato" font-size="12">1</text></g><g class="edge" transform="translate(4 131.23)"><path fill="none" stroke="#000" d="M63.7-64.01C69.35-75.66 78.65-90.28 92-97.23c14.59-7.6 22.41-7.6 37 0 11.05 5.75 19.34 16.77 25.06 27"/><path stroke="#000" d="M157.3-64.01l-.44-7.67-1.18 4.56-1.61-3.1h0l1.61 3.1-4.41-1.65 6.03 4.76h0z"/><text x="92" y="-105.63" font-family="Lato" font-size="12">!a &amp; b</text></g><g class="edge" transform="translate(4 131.23)"><path fill="none" stroke="#000" d="M72.64-54.96c5.92-2.53 12.81-5.01 19.36-6.27 16.15-3.11 20.85-3.11 37 0 4.2.81 8.54 2.12 12.66 3.62"/><path stroke="#000" d="M148.36-54.96l-5.35-5.51 2.09 4.22-3.25-1.29h0l3.25 1.29-4.41 1.64 7.67-.35h0z"/><text x="94.5" y="-66.63" font-family="Lato" font-size="12">a &amp; b</text></g><g class="edge" transform="translate(4 131.23)"><path fill="none" stroke="#000" d="M146.93-45.47c-5.7.5-12.08.99-17.93 1.24-16.43.7-20.57.7-37 0-3.47-.15-7.13-.38-10.73-.65"/><path stroke="#000" d="M74.07-45.47l6.72 3.71-3.23-3.43 3.49.29h0l-3.49-.29 3.75-2.85-7.24 2.57h0z"/><text x="92" y="-47.63" font-family="Lato" font-size="12">a &amp; !b</text></g><g class="edge" transform="translate(4 131.23)"><path fill="none" stroke="#000" d="M150.16-36.56c-6.13 4.08-13.65 8.25-21.16 10.33-15.85 4.39-21.15 4.39-37 0-5.16-1.43-10.33-3.85-15.05-6.55"/><path stroke="#000" d="M70.84-36.56l4.29 6.36-1.32-4.52 2.98 1.84h0l-2.98-1.84 4.64-.83-7.61-1.01h0z"/><text x="92" y="-29.63" font-family="Lato" font-size="12">!a &amp; b</text></g><g class="edge" transform="translate(4 131.23)"><path fill="none" stroke="#000" d="M155.58-31.38c-6.01 9.5-15.06 20.75-26.58 26.15-14.89 6.97-22.11 6.97-37 0-9.18-4.3-16.79-12.32-22.54-20.21"/><path stroke="#000" d="M65.42-31.38l1.33 7.56.64-4.67 1.96 2.9h0l-1.96-2.9 4.57 1.13-6.54-4.02h0z"/><text x="94.5" y="-8.63" font-family="Lato" font-size="12">a &amp; b</text></g><g class="edge" transform="translate(4 131.23)"><path fill="none" stroke="#000" d="M155.77-62.77c-2.6-10.37.48-20.46 9.23-20.46 6.7 0 10.08 5.91 10.12 13.34"/><path stroke="#000" d="M174.23-62.77l4-6.56-3.56 3.08.43-3.47h0l-.43 3.47-2.69-3.86 2.25 7.34h0z"/><text x="144.5" y="-86.63" font-family="Lato" font-size="12">!a &amp; !b</text></g></g></svg>