<?xml-stylesheet href="spot.css" type="text/css"?><svg width="200pt" height="104pt" viewBox="0 0 199.5 104" xmlns="http://www.w3.org/2000/svg"><g class="graph" transform="translate(4 100)"><path fill="#fff" stroke="transparent" d="M-4 4v-104h199.5V4H-4z"/><text x="74.25" y="-82.4" font-family="Lato" font-size="12">[Büchi]</text><g class="node"><circle fill="#ffffa0" stroke="#000" cx="60" cy="-22" r="18"/><circle fill="none" stroke="#000" cx="60" cy="-22" r="22"/><text text-anchor="middle" x="60" y="-18.9" font-family="Lato" font-size="12">0</text></g><g class="edge"><path fill="none" stroke="#000" d="M1.17-22h29.54"/><path stroke="#000" d="M37.86-22l-7-3.15 3.5 3.15h-3.5 3.5l-3.5 3.15 7-3.15h0z"/></g><g class="edge"><path fill="none" stroke="#000" d="M52.68-42.99C51.78-53.09 54.22-62 60-62c4.34 0 6.79 5.01 7.37 11.78"/><path stroke="#000" d="M67.32-42.99l3.2-6.98-3.18 3.48.03-3.5h0l-.03 3.5-3.12-3.52 3.1 7.02h0z"/><text x="44" y="-65.4" font-family="Lato" font-size="12">a &amp; b</text></g><g class="node"><circle fill="#ffffa0" stroke="#000" cx="173" cy="-22" r="18"/><text text-anchor="middle" x="173" y="-18.9" font-family="Lato" font-size="12">1</text></g><g class="edge"><path fill="none" stroke="#000" d="M82.14-22h65.7"/><path stroke="#000" d="M154.94-22l-7-3.15 3.5 3.15h-3.5 3.5l-3.5 3.15 7-3.15h0z"/><text x="100" y="-25.4" font-family="Lato" font-size="12">a &amp; !b</text></g><g class="edge"><path fill="none" stroke="#000" d="M157.22-12.98C151.18-9.8 143.98-6.61 137-5c-16.03 3.69-20.9 3.36-37 0-4.46-.93-9.04-2.4-13.41-4.09"/><path stroke="#000" d="M79.92-11.9l5.23 5.62-2-4.26 3.22 1.36h0l-3.22-1.36 4.45-1.55-7.68.19h0z"/><text x="102.5" y="-8.4" font-family="Lato" font-size="12">a &amp; b</text></g><g class="edge"><path fill="none" stroke="#000" d="M163.77-37.54C161.17-47.91 164.25-58 173-58c6.7 0 10.08 5.92 10.12 13.34"/><path stroke="#000" d="M182.23-37.54l4-6.56-3.56 3.09.43-3.48h0l-.43 3.48-2.69-3.87 2.25 7.34h0z"/><text x="154.5" y="-61.4" font-family="Lato" font-size="12">a &amp; !b</text></g></g></svg>