<?xml-stylesheet href="spot.css" type="text/css"?><svg width="425pt" height="348" viewBox="0 0 424.5 261.42" xmlns="http://www.w3.org/2000/svg"><g class="graph" transform="translate(4 257.42)"><path fill="#fff" stroke="transparent" d="M-4 4v-261.42h424.5V4H-4z"/><text x="102.25" y="-240.82" font-family="Lato" font-size="12">(Fin(</text><text x="128.25" y="-240.82" font-family="Lato" font-size="12" fill="#1f78b4">⓿</text><text x="141.25" y="-240.82" font-family="Lato" font-size="12">) &amp; Inf(</text><text x="183.25" y="-240.82" font-family="Lato" font-size="12" fill="#ff4da0">❶</text><text x="194.25" y="-240.82" font-family="Lato" font-size="12">)) | (Fin(</text><text x="240.25" y="-240.82" font-family="Lato" font-size="12" fill="#ff7f00">❷</text><text x="251.25" y="-240.82" font-family="Lato" font-size="12">) &amp; Inf(</text><text x="293.25" y="-240.82" font-family="Lato" font-size="12" fill="#6a3d9a">❸</text><text x="304.25" y="-240.82" font-family="Lato" font-size="12">))</text><text x="180.75" y="-228.82" font-family="Lato" font-size="12">[Rabin 2]</text><g class="node"><path fill="#ffffa0" stroke="#000" d="M62-64.42H50c-6 0-12 6-12 12v12c0 6 6 12 12 12h12c6 0 12-6 12-12v-12c0-6-6-12-12-12"/><text x="52" y="-49.82" font-family="Lato" font-size="12">0</text><text x="50.5" y="-36.82" font-family="Lato" font-size="12" fill="#ff7f00">❷</text></g><g class="edge"><path fill="none" stroke="#000" d="M1.15-46.42h29.48"/><path stroke="#000" d="M37.94-46.42l-7-3.15 3.5 3.15h-3.5 3.5l-3.5 3.15 7-3.15h0z"/></g><g class="edge"><path fill="none" stroke="#000" d="M49.49-64.58c-1-9.38 1.17-17.84 6.51-17.84 3.92 0 6.14 4.56 6.64 10.7"/><path stroke="#000" d="M62.51-64.58l3.28-6.94-3.22 3.45.07-3.5h0l-.07 3.5-3.08-3.56 3.02 7.05h0z"/><text x="35.5" y="-85.82" font-family="Lato" font-size="12">!a &amp; !b</text></g><g class="node"><path fill="#ffffa0" stroke="#000" d="M178.5-158.42h-14c-6 0-12 6-12 12v12c0 6 6 12 12 12h14c6 0 12-6 12-12v-12c0-6-6-12-12-12"/><text x="167.5" y="-143.82" font-family="Lato" font-size="12">1</text><text x="160.5" y="-131.82" font-family="Lato" font-size="12" fill="#ff4da0">❶</text><text x="171.5" y="-131.82" font-family="Lato" font-size="12" fill="#ff7f00">❷</text></g><g class="edge"><path fill="none" stroke="#000" d="M61.23-64.44C66-80.83 75.36-104.52 92-118.42c14.88-12.43 36.32-17.86 53.04-20.22"/><path stroke="#000" d="M152.34-139.52l-7.32-2.29 3.85 2.71-3.48.42h0l3.48-.42-3.1 3.55 6.57-3.97h0z"/><text x="94" y="-138.82" font-family="Lato" font-size="12">a &amp; !b</text></g><g class="node"><path fill="#ffffa0" stroke="#000" d="M404-95.42h-12c-6 0-12 6-12 12v12c0 6 6 12 12 12h12c6 0 12-6 12-12v-12c0-6-6-12-12-12"/><text x="394" y="-80.82" font-family="Lato" font-size="12">2</text><text x="392.5" y="-67.82" font-family="Lato" font-size="12" fill="#6a3d9a">❸</text></g><g class="edge"><path fill="none" stroke="#000" d="M74.13-38.84c5.59 2.14 11.9 4.21 17.87 5.42 69.31 13.97 88.73 12.81 159 5 50.26-5.59 64.65-4.78 111-25 4.08-1.78 8.18-4.06 12.06-6.49"/><path stroke="#000" d="M379.96-63.83l-7.57 1.25 4.66.69-2.92 1.93h0l2.92-1.93-1.18 4.56 4.09-6.5h0z"/><text x="212" y="-31.82" font-family="Lato" font-size="12">!a &amp; b</text></g><g class="node"><path fill="#ffffa0" stroke="#000" d="M295-95.42h-14c-6 0-12 6-12 12v12c0 6 6 12 12 12h14c6 0 12-6 12-12v-12c0-6-6-12-12-12"/><text x="284" y="-80.82" font-family="Lato" font-size="12">3</text><text x="277" y="-68.82" font-family="Lato" font-size="12" fill="#ff4da0">❶</text><text x="288" y="-68.82" font-family="Lato" font-size="12" fill="#6a3d9a">❸</text></g><g class="edge"><path fill="none" stroke="#000" d="M74.29-48.75c40.26-5.43 140.42-18.93 187.5-25.28"/><path stroke="#000" d="M268.88-74.98l-7.36-2.19 3.89 2.66-3.47.47h0l3.47-.47-3.05 3.59 6.52-4.06h0z"/><text x="155.5" y="-67.82" font-family="Lato" font-size="12">a &amp; b</text></g><g class="edge"><path fill="none" stroke="#000" d="M155.67-122.3c-6.45 7.13-14.41 14.99-22.67 20.88-16.35 11.66-24.62 7.38-41 19-5.11 3.62-10.11 8.05-14.66 12.54"/><path stroke="#000" d="M72.23-64.62l7.14-2.82-4.7.31 2.44-2.51h0l-2.44 2.51.18-4.7-2.62 7.21h0z"/><text x="92" y="-104.82" font-family="Lato" font-size="12">!a &amp; !b</text></g><g class="edge"><path fill="none" stroke="#000" d="M161.01-158.58c-1.62-9.38 1.88-17.84 10.49-17.84 6.32 0 9.89 4.56 10.7 10.7"/><path stroke="#000" d="M181.99-158.58l3.35-6.9-3.25 3.41.1-3.5h0l-.1 3.5-3.05-3.59 2.95 7.08h0z"/><text x="153" y="-179.82" font-family="Lato" font-size="12">a &amp; !b</text></g><g class="edge"><path fill="none" stroke="#000" d="M183.73-158.67c6.49-8.82 15.51-18.6 26.27-23.75 60.94-29.17 98.29-40.98 152 0 24.37 18.59 31.96 54.77 34.22 79.41"/><path stroke="#000" d="M396.76-95.77l2.62-7.21-2.88 3.72-.26-3.49h0l.26 3.49-3.41-3.25 3.67 6.74h0z"/><text x="269.5" y="-211.82" font-family="Lato" font-size="12">!a &amp; b</text></g><g class="edge"><path fill="none" stroke="#000" d="M190.52-138.36c16.73 2.58 41.79 8.18 60.48 19.94 7.12 4.48 13.63 10.79 19.1 17.11"/><path stroke="#000" d="M274.82-95.55l-2-7.41-.22 4.71-2.21-2.71h0l2.21 2.71-4.65-.72 6.87 3.42h0z"/><text x="214.5" y="-137.82" font-family="Lato" font-size="12">a &amp; b</text></g><g class="edge"><path fill="none" stroke="#000" d="M385.7-59.2c-6.07 8.38-14.25 17.77-23.7 23.78-43.04 27.33-60.43 22.5-111 29-70.4 9.04-92.91 10.89-159-15-4.11-1.61-8.18-3.81-12.02-6.24"/><path stroke="#000" d="M74.17-31.61l4.01 6.54-1.12-4.57 2.9 1.97h0l-2.9-1.97 4.67-.64-7.56-1.33h0z"/><text x="210" y="-9.82" font-family="Lato" font-size="12">!a &amp; !b</text></g><g class="edge"><path fill="none" stroke="#000" d="M379.95-90.6c-17.48-12.96-45.86-32.55-72.95-44.82-23.58-10.68-30.37-12.41-56-16-18.05-2.53-22.96-2.59-41 0-4.13.59-8.44 1.53-12.61 2.62"/><path stroke="#000" d="M190.58-146.86l7.59 1.12-4.22-2.07 3.36-.96h0l-3.36.96 2.5-3.99-5.87 4.94h0z"/><text x="269.5" y="-151.82" font-family="Lato" font-size="12">a &amp; !b</text></g><g class="edge"><path fill="none" stroke="#000" d="M388.23-95.58c-1.5-9.38 1.75-17.84 9.77-17.84 5.89 0 9.21 4.56 9.96 10.7"/><path stroke="#000" d="M407.77-95.58l3.33-6.91-3.24 3.42.1-3.5h0l-.1 3.5-3.05-3.59 2.96 7.08h0z"/><text x="379.5" y="-116.82" font-family="Lato" font-size="12">!a &amp; b</text></g><g class="edge"><path fill="none" stroke="#000" d="M379.66-77.42h-65.3"/><path stroke="#000" d="M307.32-77.42l7 3.15-3.5-3.15h3.5-3.5l3.5-3.15-7 3.15h0z"/><text x="327.5" y="-80.82" font-family="Lato" font-size="12">a &amp; b</text></g><g class="edge"><path fill="none" stroke="#000" d="M268.66-68.15c-18.72 8.91-48.89 21.72-76.66 26.73-38.19 6.89-83.4 2.78-110.61-.98"/><path stroke="#000" d="M74.21-43.45l6.48 4.13-3.01-3.62 3.46.5h0l-3.46-.5 3.92-2.62-7.39 2.11h0z"/><text x="151" y="-44.82" font-family="Lato" font-size="12">!a &amp; !b</text></g><g class="edge"><path fill="none" stroke="#000" d="M268.81-80.42c-16.33-3.28-40.47-9.67-58.81-21-6.73-4.16-13.09-9.8-18.6-15.51"/><path stroke="#000" d="M186.6-122.14l2.43 7.29-.06-4.71 2.38 2.57h0l-2.38-2.57 4.69.44-7.06-3.02h0z"/><text x="212" y="-104.82" font-family="Lato" font-size="12">a &amp; !b</text></g><g class="edge"><path fill="none" stroke="#000" d="M307.12-66.97c5.56 2.68 11.81 5.19 17.88 6.55 16.05 3.6 20.97 3.68 37 0 3.79-.87 7.64-2.21 11.33-3.76"/><path stroke="#000" d="M379.77-67.15l-7.68.07 4.5 1.4-3.18 1.46h0l3.18-1.46-1.86 4.32 5.04-5.79h0z"/><text x="325" y="-63.82" font-family="Lato" font-size="12">!a &amp; b</text></g><g class="edge"><path fill="none" stroke="#000" d="M278.23-95.58c-1.5-9.38 1.75-17.84 9.77-17.84 5.89 0 9.21 4.56 9.96 10.7"/><path stroke="#000" d="M297.77-95.58l3.33-6.91-3.24 3.42.1-3.5h0l-.1 3.5-3.05-3.59 2.96 7.08h0z"/><text x="272" y="-116.82" font-family="Lato" font-size="12">a &amp; b</text></g></g></svg>