<?xml-stylesheet href="spot.css" type="text/css"?><svg width="260" height="173pt" viewBox="0 0 195 173.23" xmlns="http://www.w3.org/2000/svg"><g class="graph" transform="translate(4 169.23)"><path fill="#fff" stroke="transparent" d="M-4 4v-173.23h195V4H-4z"/><text x="74" y="-152.63" font-family="Lato" font-size="12">Inf(</text><text x="95" y="-152.63" font-family="Lato" font-size="12" fill="#1f78b4">⓿</text><text x="108" y="-152.63" font-family="Lato" font-size="12">)</text><text x="72" y="-140.63" font-family="Lato" font-size="12">[Büchi]</text><g class="node"><circle fill="#ffffa0" stroke="#000" cx="56" cy="-40.23" r="18"/><text text-anchor="middle" x="56" y="-37.13" font-family="Lato" font-size="12">1</text></g><g class="edge"><path fill="none" stroke="#000" d="M1.15-40.23h29.48"/><path stroke="#000" d="M37.94-40.23l-7-3.15 3.5 3.15h-3.5 3.5l-3.5 3.15 7-3.15h0z"/></g><g class="edge"><path fill="none" stroke="#000" d="M52.76-58.01c-.55-9.53.53-18.22 3.24-18.22 1.99 0 3.1 4.68 3.33 10.95"/><path stroke="#000" d="M59.24-58.01l3.24-6.96-3.2 3.46.05-3.5h0l-.05 3.5-3.1-3.54 3.06 7.04h0z"/><text x="37.5" y="-79.63" font-family="Lato" font-size="12">a &amp; !b</text></g><g class="edge"><path fill="none" stroke="#000" d="M50.68-57.65C47.65-75.02 49.43-94.23 56-94.23c5.7 0 7.79 14.45 6.27 29.61"/><path stroke="#000" d="M61.32-57.65l4.07-6.51-3.6 3.04.47-3.47h0l-.47 3.47-2.65-3.89 2.18 7.36h0z"/><text x="40" y="-110.63" font-family="Lato" font-size="12">a &amp; b</text><text x="49.5" y="-97.63" font-family="Lato" font-size="12" fill="#1f78b4">⓿</text></g><g class="node"><circle fill="#ffffa0" stroke="#000" cx="169" cy="-40.23" r="18"/><text text-anchor="middle" x="169" y="-37.13" font-family="Lato" font-size="12">0</text></g><g class="edge"><path fill="none" stroke="#000" d="M69.07-52.76C75.32-58.34 83.43-64.31 92-67.23c17.25-5.88 23.75-5.88 41 0 6.16 2.1 12.08 5.77 17.24 9.74"/><path stroke="#000" d="M155.93-52.76l-3.37-6.9.67 4.66-2.69-2.24h0l2.69 2.24-4.7.19 7.4 2.05h0z"/><text x="92" y="-74.63" font-family="Lato" font-size="12">!a &amp; !b</text></g><g class="edge"><path fill="none" stroke="#000" d="M74.07-38.47c5.7.51 12.08.99 17.93 1.24 18.21.78 22.79.78 41 0 3.47-.15 7.13-.38 10.73-.65"/><path stroke="#000" d="M150.93-38.47l-7.24-2.57 3.75 2.85-3.49.29h0l3.49-.29-3.23 3.43 6.72-3.71h0z"/><text x="94" y="-53.63" font-family="Lato" font-size="12">!a &amp; b</text><text x="106" y="-40.63" font-family="Lato" font-size="12" fill="#1f78b4">⓿</text></g><g class="edge"><path fill="none" stroke="#000" d="M158.12-25.89c-6.21 7.7-14.96 16.45-25.12 20.66-16.84 6.97-24.16 6.97-41 0-7.78-3.22-14.73-9.11-20.35-15.14"/><path stroke="#000" d="M66.88-25.89l2.2 7.36.09-4.71 2.29 2.65h0l-2.29-2.65 4.67.59-6.96-3.24h0z"/><text x="108.5" y="-8.63" font-family="Lato" font-size="12">a</text></g><g class="edge"><path fill="none" stroke="#000" d="M159.43-55.77c-2.7-10.37.49-20.46 9.57-20.46 6.95 0 10.45 5.92 10.5 13.34"/><path stroke="#000" d="M178.57-55.77l4.03-6.54-3.57 3.07.45-3.47h0l-.45 3.47-2.68-3.88 2.22 7.35h0z"/><text x="162.5" y="-79.63" font-family="Lato" font-size="12">!a</text></g></g></svg>