<?xml-stylesheet href="spot.css" type="text/css"?><svg width="216" height="151pt" viewBox="0 0 162 151" xmlns="http://www.w3.org/2000/svg"><g class="graph" transform="translate(4 147)"><path fill="#fff" stroke="transparent" d="M-4 4v-151h162V4H-4z"/><text x="57.5" y="-130.4" font-family="Lato" font-size="12">Inf(</text><text x="78.5" y="-130.4" font-family="Lato" font-size="12" fill="#1f78b4">⓿</text><text x="91.5" y="-130.4" font-family="Lato" font-size="12">)</text><text x="55.5" y="-118.4" font-family="Lato" font-size="12">[Büchi]</text><g class="node"><circle fill="#ffffa0" stroke="#000" cx="56" cy="-18" r="18"/><text text-anchor="middle" x="56" y="-14.9" font-family="Lato" font-size="12">0</text></g><g class="edge"><path fill="none" stroke="#000" d="M1.15-18h29.48"/><path stroke="#000" d="M37.94-18l-7-3.15 3.5 3.15h-3.5 3.5l-3.5 3.15 7-3.15h0z"/></g><g class="edge"><path fill="none" stroke="#000" d="M49.62-35.04C48.32-44.86 50.45-54 56-54c4.17 0 6.4 5.14 6.71 11.86"/><path stroke="#000" d="M62.38-35.04l3.47-6.84-3.31 3.35.17-3.5h0l-.17 3.5-2.98-3.65 2.82 7.14h0z"/><text x="49.5" y="-57.4" font-family="Lato" font-size="12">!a</text></g><g class="node"><circle fill="#ffffa0" stroke="#000" cx="136" cy="-18" r="18"/><text text-anchor="middle" x="136" y="-14.9" font-family="Lato" font-size="12">1</text></g><g class="edge"><path fill="none" stroke="#000" d="M74.31-18h36.4"/><path stroke="#000" d="M117.74-18l-7-3.15 3.5 3.15h-3.5 3.5l-3.5 3.15 7-3.15h0z"/><text x="92" y="-21.4" font-family="Lato" font-size="12">a</text></g><g class="edge"><path fill="none" stroke="#000" d="M132.4-35.78c-.61-9.53.59-18.22 3.6-18.22 2.21 0 3.44 4.68 3.7 10.95"/><path stroke="#000" d="M139.6-35.78l3.25-6.96-3.2 3.46.05-3.5h0l-.05 3.5-3.1-3.55 3.05 7.05h0z"/><text x="129.5" y="-57.4" font-family="Lato" font-size="12">!b</text></g><g class="edge"><path fill="none" stroke="#000" d="M130.15-35.14C126.71-52.58 128.66-72 136-72c6.37 0 8.68 14.6 6.94 29.85"/><path stroke="#000" d="M141.85-35.14l4.19-6.44-3.65 2.98.53-3.46h0l-.53 3.46-2.58-3.94 2.04 7.4h0z"/><text x="132" y="-88.4" font-family="Lato" font-size="12">b</text><text x="129.5" y="-75.4" font-family="Lato" font-size="12" fill="#1f78b4">⓿</text></g></g></svg>