<?xml-stylesheet href="spot.css" type="text/css"?><svg width="296pt" height="169pt" viewBox="0 0 296 169" xmlns="http://www.w3.org/2000/svg"><g class="graph" transform="translate(4 165)"><path fill="#fff" stroke="transparent" d="M-4 4v-169h296V4H-4z"/><text x="124.5" y="-148.4" font-family="Lato" font-size="12">Inf(</text><text x="145.5" y="-148.4" font-family="Lato" font-size="12" fill="#1f78b4">⓿</text><text x="158.5" y="-148.4" font-family="Lato" font-size="12">)</text><text x="122.5" y="-136.4" font-family="Lato" font-size="12">[Büchi]</text><g class="node"><circle fill="#ffffa0" stroke="#000" cx="56" cy="-34" r="18"/><text text-anchor="middle" x="56" y="-30.9" font-family="Lato" font-size="12">0</text></g><g class="edge"><path fill="none" stroke="#000" d="M1.15-34h29.48"/><path stroke="#000" d="M37.94-34l-7-3.15 3.5 3.15h-3.5 3.5l-3.5 3.15 7-3.15h0z"/></g><g class="edge"><path fill="none" stroke="#000" d="M49.62-51.04C48.32-60.86 50.45-70 56-70c4.17 0 6.4 5.14 6.71 11.86"/><path stroke="#000" d="M62.38-51.04l3.47-6.84-3.31 3.35.17-3.5h0l-.17 3.5-2.98-3.65 2.82 7.14h0z"/><text x="40" y="-86.4" font-family="Lato" font-size="12">a &amp; b</text><text x="49.5" y="-73.4" font-family="Lato" font-size="12" fill="#1f78b4">⓿</text></g><g class="node"><circle fill="#ffffa0" stroke="#000" cx="160.5" cy="-80" r="18"/><text text-anchor="middle" x="160.5" y="-76.9" font-family="Lato" font-size="12">1</text></g><g class="edge"><path fill="none" stroke="#000" d="M68.79-47.2C75.09-53.49 83.32-60.57 92-65c13.44-6.86 29.96-10.6 43.29-12.63"/><path stroke="#000" d="M142.33-78.59l-7.36-2.17 3.89 2.64-3.46.48h0l3.46-.48-3.04 3.6 6.51-4.07h0z"/><text x="101.5" y="-91.4" font-family="Lato" font-size="12">!b</text><text x="101.5" y="-78.4" font-family="Lato" font-size="12" fill="#1f78b4">⓿</text></g><g class="node"><circle fill="#ffffa0" stroke="#000" cx="270" cy="-18" r="18"/><text text-anchor="middle" x="270" y="-14.9" font-family="Lato" font-size="12">2</text></g><g class="edge"><path fill="none" stroke="#000" d="M74.25-32.52C91.42-31.06 118.53-28.8 142-27c35.71 2.74 77.08 5.61 102.65 7.36"/><path stroke="#000" d="M251.74-19.16l-6.77-3.62 3.28 3.38-3.49-.24h0l3.49.24-3.71 2.91 7.2-2.67h0z"/><text x="142" y="-43.4" font-family="Lato" font-size="12">!a &amp; b</text><text x="154" y="-30.4" font-family="Lato" font-size="12" fill="#1f78b4">⓿</text></g><g class="edge"><path fill="none" stroke="#000" d="M147.92-66.64C141.51-60.07 133.03-52.58 124-48c-13.32 6.76-29.72 10.26-42.95 12.07"/><path stroke="#000" d="M74.06-35.09l7.32 2.29-3.85-2.71 3.48-.42h0l-3.48.42 3.1-3.55-6.57 3.97h0z"/><text x="92" y="-51.4" font-family="Lato" font-size="12">a &amp; b</text></g><g class="edge"><path fill="none" stroke="#000" d="M151.52-95.92c-2.34-10.23.65-20.08 8.98-20.08 6.38 0 9.63 5.77 9.75 13.07"/><path stroke="#000" d="M169.48-95.92l3.89-6.61-3.51 3.13.38-3.47h0l-.38 3.47-2.75-3.82 2.37 7.3h0z"/><text x="154" y="-119.4" font-family="Lato" font-size="12">!b</text></g><g class="edge"><path fill="none" stroke="#000" d="M176.45-71.38c18.51 10.68 50.16 28.93 71.21 41.07"/><path stroke="#000" d="M253.83-26.75l-4.49-6.22 1.46 4.47-3.03-1.74h0l3.03 1.74-4.6.98 7.63.77h0z"/><text x="197" y="-61.4" font-family="Lato" font-size="12">!a &amp; b</text></g><g class="edge"><path fill="none" stroke="#000" d="M252.07-13.97C227.64-8.73 181.15-.93 142-7c-21.69-3.36-45.42-11.28-62.28-17.68"/><path stroke="#000" d="M72.94-27.31l5.39 5.47-2.13-4.2 3.26 1.27h0l-3.26-1.27 4.4-1.67-7.66.4h0z"/><text x="156.5" y="-10.4" font-family="Lato" font-size="12">a</text></g><g class="edge"><path fill="none" stroke="#000" d="M260.77-33.54C258.17-43.91 261.25-54 270-54c6.7 0 10.08 5.92 10.12 13.34"/><path stroke="#000" d="M279.23-33.54l4-6.56-3.56 3.09.43-3.48h0l-.43 3.48-2.69-3.87 2.25 7.34h0z"/><text x="263.5" y="-57.4" font-family="Lato" font-size="12">!a</text></g></g></svg>