<?xml-stylesheet href="spot.css" type="text/css"?><svg width="280pt" height="256" viewBox="0 0 280 192.21" xmlns="http://www.w3.org/2000/svg"><g class="graph"><path fill="#fff" stroke="transparent" d="M0 192.21V0h280v192.21H0z"/><text x="89.5" y="-171.61" font-family="Lato" font-size="12" transform="translate(4 188.21)">Fin(</text><text x="111.5" y="-171.61" font-family="Lato" font-size="12" fill="#1f78b4" transform="translate(4 188.21)">⓿</text><text x="124.5" y="-171.61" font-family="Lato" font-size="12" transform="translate(4 188.21)">) &amp; Inf(</text><text x="166.5" y="-171.61" font-family="Lato" font-size="12" fill="#ff4da0" transform="translate(4 188.21)">❶</text><text x="177.5" y="-171.61" font-family="Lato" font-size="12" transform="translate(4 188.21)">)</text><text x="108.5" y="-159.61" font-family="Lato" font-size="12" transform="translate(4 188.21)">[Rabin 1]</text><g class="node" transform="translate(4 188.21)"><path fill="#ffffa0" stroke="#000" d="M62-78.21H50c-6 0-12 6-12 12v12c0 6 6 12 12 12h12c6 0 12-6 12-12v-12c0-6-6-12-12-12"/><text text-anchor="middle" x="56" y="-57.11" font-family="Lato" font-size="12">1</text></g><g class="edge" transform="translate(4 188.21)"><path fill="none" stroke="#000" d="M1.15-60.21h29.48"/><path stroke="#000" d="M37.94-60.21l-7-3.15 3.5 3.15h-3.5 3.5l-3.5 3.15 7-3.15h0z"/></g><g class="edge" transform="translate(4 188.21)"><path fill="none" stroke="#000" d="M49.49-78.36c-1-9.39 1.17-17.85 6.51-17.85 3.92 0 6.14 4.56 6.64 10.71"/><path stroke="#000" d="M62.51-78.36l3.28-6.94-3.22 3.44.07-3.5h0l-.07 3.5-3.08-3.56 3.02 7.06h0z"/><text x="37.5" y="-99.61" font-family="Lato" font-size="12">a &amp; !b</text></g><g class="node" transform="translate(4 188.21)"><path fill="#ffffa0" stroke="#000" d="M175-121.21h-12c-6 0-12 6-12 12v12c0 6 6 12 12 12h12c6 0 12-6 12-12v-12c0-6-6-12-12-12"/><text text-anchor="middle" x="169" y="-100.11" font-family="Lato" font-size="12">0</text></g><g class="edge" transform="translate(4 188.21)"><path fill="none" stroke="#000" d="M74.34-66.93c18.74-7.26 48.72-18.87 69.7-27"/><path stroke="#000" d="M150.78-96.54l-7.67-.41 4.4 1.68-3.26 1.26h0l3.26-1.26-2.12 4.2 5.39-5.47h0z"/><text x="92" y="-92.61" font-family="Lato" font-size="12">!a &amp; !b</text></g><g class="node" transform="translate(4 188.21)"><path fill="#ffffa0" stroke="#000" d="M175-36.21h-12c-6 0-12 6-12 12v12c0 6 6 12 12 12h12c6 0 12-6 12-12v-12c0-6-6-12-12-12"/><text x="165" y="-21.61" font-family="Lato" font-size="12">3</text><text x="163.5" y="-8.61" font-family="Lato" font-size="12" fill="#ff4da0">❶</text></g><g class="edge" transform="translate(4 188.21)"><path fill="none" stroke="#000" d="M74.34-53.65c18.74 7.09 48.72 18.44 69.7 26.37"/><path stroke="#000" d="M150.78-24.73l-5.43-5.42 2.15 4.19-3.27-1.24h0l3.27 1.24-4.38 1.7 7.66-.47h0z"/><text x="108.5" y="-49.61" font-family="Lato" font-size="12">b</text></g><g class="edge" transform="translate(4 188.21)"><path fill="none" stroke="#000" d="M161.4-121.36c-1.17-9.39 1.37-17.85 7.6-17.85 4.58 0 7.16 4.56 7.75 10.71"/><path stroke="#000" d="M176.6-121.36l3.29-6.93-3.22 3.43.07-3.5h0l-.07 3.5-3.08-3.57 3.01 7.07h0z"/><text text-anchor="middle" x="169" y="-142.61" font-family="Lato" font-size="12">1</text></g><g class="edge" transform="translate(4 188.21)"><path fill="none" stroke="#000" d="M161.4-36.36c-1.17-9.39 1.37-17.85 7.6-17.85 4.58 0 7.16 4.56 7.75 10.71"/><path stroke="#000" d="M176.6-36.36l3.29-6.93-3.22 3.43.07-3.5h0l-.07 3.5-3.08-3.57 3.01 7.07h0z"/><text x="165" y="-57.61" font-family="Lato" font-size="12">b</text></g><g class="node" transform="translate(4 188.21)"><path fill="#ffffa0" stroke="#000" d="M260-36.21h-12c-6 0-12 6-12 12v12c0 6 6 12 12 12h12c6 0 12-6 12-12v-12c0-6-6-12-12-12"/><text text-anchor="middle" x="254" y="-15.11" font-family="Lato" font-size="12">2</text></g><g class="edge" transform="translate(4 188.21)"><path fill="none" stroke="#000" d="M187.2-18.21h41.56"/><path stroke="#000" d="M235.82-18.21l-7-3.15 3.5 3.15h-3.5 3.5l-3.5 3.15 7-3.15h0z"/><text x="205" y="-21.61" font-family="Lato" font-size="12">!b</text></g><g class="edge" transform="translate(4 188.21)"><path fill="none" stroke="#000" d="M235.95-7.12c-9.04 4.58-20.44 8.33-30.95 5.91-3.79-.87-7.64-2.21-11.33-3.76"/><path stroke="#000" d="M187.23-7.93l5.04 5.79-1.86-4.33L193.59-5h0l-3.18-1.47 4.5-1.39-7.68-.07h0z"/><text x="207.5" y="-4.61" font-family="Lato" font-size="12">b</text></g><g class="edge" transform="translate(4 188.21)"><path fill="none" stroke="#000" d="M246.4-36.36c-1.17-9.39 1.37-17.85 7.6-17.85 4.58 0 7.16 4.56 7.75 10.71"/><path stroke="#000" d="M261.6-36.36l3.29-6.93-3.22 3.43.07-3.5h0l-.07 3.5-3.08-3.57 3.01 7.07h0z"/><text x="247.5" y="-57.61" font-family="Lato" font-size="12">!b</text></g></g></svg>