<?xml-stylesheet href="spot.css" type="text/css"?><svg width="340" height="104pt" viewBox="0 0 255 104" xmlns="http://www.w3.org/2000/svg"><g class="graph"><path fill="#fff" stroke="transparent" d="M0 104V0h255v104H0z"/><text x="102" y="-82.4" font-family="Lato" font-size="12" transform="translate(4 100)">[Büchi]</text><g class="node" transform="translate(4 100)"><circle fill="#ffffa0" stroke="#000" cx="56" cy="-22" r="18"/><text text-anchor="middle" x="56" y="-18.9" font-family="Lato" font-size="12">0</text></g><g class="edge" transform="translate(4 100)"><path fill="none" stroke="#000" d="M1.15-22h29.48"/><path stroke="#000" d="M37.94-22l-7-3.15 3.5 3.15h-3.5 3.5l-3.5 3.15 7-3.15h0z"/></g><g class="edge" transform="translate(4 100)"><path fill="none" stroke="#000" d="M49.62-39.04C48.32-48.86 50.45-58 56-58c4.17 0 6.4 5.14 6.71 11.86"/><path stroke="#000" d="M62.38-39.04l3.47-6.84-3.31 3.35.17-3.5h0l-.17 3.5-2.98-3.65 2.82 7.14h0z"/><text x="37.5" y="-61.4" font-family="Lato" font-size="12">a &amp; !b</text></g><g class="node" transform="translate(4 100)"><circle fill="#ffffa0" stroke="#000" cx="140" cy="-22" r="18"/><circle fill="none" stroke="#000" cx="140" cy="-22" r="22"/><text text-anchor="middle" x="140" y="-18.9" font-family="Lato" font-size="12">2</text></g><g class="edge" transform="translate(4 100)"><path fill="none" stroke="#000" d="M74.39-22h36.21"/><path stroke="#000" d="M117.85-22l-7-3.15 3.5 3.15h-3.5 3.5l-3.5 3.15 7-3.15h0z"/><text x="92" y="-25.4" font-family="Lato" font-size="12">b</text></g><g class="edge" transform="translate(4 100)"><path fill="none" stroke="#000" d="M131.99-42.58C130.89-52.84 133.55-62 140-62c4.83 0 7.54 5.15 8.13 12.05"/><path stroke="#000" d="M148.01-42.58l3.26-6.95-3.21 3.45.06-3.5h0l-.06 3.5-3.09-3.55 3.04 7.05h0z"/><text x="136" y="-65.4" font-family="Lato" font-size="12">b</text></g><g class="node" transform="translate(4 100)"><circle fill="#ffffa0" stroke="#000" cx="229" cy="-22" r="18"/><text text-anchor="middle" x="229" y="-18.9" font-family="Lato" font-size="12">1</text></g><g class="edge" transform="translate(4 100)"><path fill="none" stroke="#000" d="M162.06-22h41.55"/><path stroke="#000" d="M210.93-22l-7-3.15 3.5 3.15h-3.5 3.5l-3.5 3.15 7-3.15h0z"/><text x="180" y="-25.4" font-family="Lato" font-size="12">!b</text></g><g class="edge" transform="translate(4 100)"><path fill="none" stroke="#000" d="M213.22-12.98C207.18-9.8 199.98-6.61 193-5c-9.06 2.08-18.79.09-27.35-3.17"/><path stroke="#000" d="M159.06-11l5.19 5.66-1.97-4.27 3.21 1.38h0l-3.21-1.38 4.46-1.52-7.68.13h0z"/><text x="182.5" y="-8.4" font-family="Lato" font-size="12">b</text></g><g class="edge" transform="translate(4 100)"><path fill="none" stroke="#000" d="M221.62-38.66C219.98-48.62 222.44-58 229-58c4.92 0 7.54 5.27 7.84 12.11"/><path stroke="#000" d="M236.38-38.66l3.59-6.79-3.36 3.29.22-3.49h0l-.22 3.49-2.92-3.69 2.69 7.19h0z"/><text x="222.5" y="-61.4" font-family="Lato" font-size="12">!b</text></g></g></svg>