<?xml-stylesheet href="spot.css" type="text/css"?><svg width="216" height="372" viewBox="0 0 162 279" xmlns="http://www.w3.org/2000/svg"><g class="graph" transform="translate(4 275)"><path fill="#fff" stroke="transparent" d="M-4 4v-279h162V4H-4z"/><text x="74.5" y="-257.4" font-family="Lato" font-size="12">t</text><text x="65.5" y="-244.4" font-family="Lato" font-size="12">[all]</text><g class="node"><circle fill="#ffffa0" stroke="#000" cx="56" cy="-103" r="18"/><text text-anchor="middle" x="56" y="-99.9" font-family="Lato" font-size="12">0</text></g><g class="edge"><path fill="none" stroke="#000" d="M1.15-103h29.48"/><path stroke="#000" d="M37.94-103l-7-3.15 3.5 3.15h-3.5 3.5l-3.5 3.15 7-3.15h0z"/></g><g class="node"><circle fill="#ffffa0" stroke="#000" cx="136" cy="-188" r="18"/><text text-anchor="middle" x="136" y="-184.9" font-family="Lato" font-size="12">1</text></g><g class="edge"><path fill="none" stroke="#000" d="M68.85-115.91c13.17-14.35 34.54-37.65 49.42-53.86"/><path stroke="#000" d="M123.04-174.97l-7.05 3.03 4.69-.45-2.37 2.58h0l2.37-2.58-.05 4.71 2.41-7.29h0z"/><text x="92" y="-151.4" font-family="Lato" font-size="12">a</text></g><g class="node"><circle fill="#ffffa0" stroke="#000" cx="136" cy="-103" r="18"/><text text-anchor="middle" x="136" y="-99.9" font-family="Lato" font-size="12">2</text></g><g class="edge"><path fill="none" stroke="#000" d="M74.31-103h36.4"/><path stroke="#000" d="M117.74-103l-7-3.15 3.5 3.15h-3.5 3.5l-3.5 3.15 7-3.15h0z"/><text x="92" y="-106.4" font-family="Lato" font-size="12">b</text></g><g class="node"><circle fill="#ffffa0" stroke="#000" cx="136" cy="-18" r="18"/><text text-anchor="middle" x="136" y="-14.9" font-family="Lato" font-size="12">3</text></g><g class="edge"><path fill="none" stroke="#000" d="M68.85-90.09c13.17 14.35 34.54 37.65 49.42 53.86"/><path stroke="#000" d="M123.04-31.03l-2.41-7.29.05 4.71-2.37-2.58h0l2.37 2.58-4.69-.45 7.05 3.03h0z"/><text x="92.5" y="-66.4" font-family="Lato" font-size="12">c</text></g><g class="edge"><path fill="none" stroke="#000" d="M128.97-204.66c-1.56-9.96.78-19.34 7.03-19.34 4.69 0 7.18 5.27 7.47 12.11"/><path stroke="#000" d="M143.03-204.66l3.57-6.8-3.36 3.3.22-3.49h0l-.22 3.49-2.93-3.68 2.72 7.18h0z"/><text x="132" y="-227.4" font-family="Lato" font-size="12">a</text></g><g class="edge"><path fill="none" stroke="#000" d="M128.97-119.66c-1.56-9.96.78-19.34 7.03-19.34 4.69 0 7.18 5.27 7.47 12.11"/><path stroke="#000" d="M143.03-119.66l3.57-6.8-3.36 3.3.22-3.49h0l-.22 3.49-2.93-3.68 2.72 7.18h0z"/><text x="132" y="-142.4" font-family="Lato" font-size="12">b</text></g><g class="edge"><path fill="none" stroke="#000" d="M128.97-34.66C127.41-44.62 129.75-54 136-54c4.69 0 7.18 5.27 7.47 12.11"/><path stroke="#000" d="M143.03-34.66l3.57-6.8-3.36 3.3.22-3.49h0l-.22 3.49-2.93-3.68 2.72 7.18h0z"/><text x="132.5" y="-57.4" font-family="Lato" font-size="12">c</text></g></g></svg>