<?xml-stylesheet href="spot.css" type="text/css"?><svg width="480" height="332" viewBox="0 0 360 249" xmlns="http://www.w3.org/2000/svg"><g class="graph" transform="translate(4 245)"><path fill="#fff" stroke="transparent" d="M-4 4v-249h360V4H-4z"/><text x="156.5" y="-228.4" font-family="Lato" font-size="12">Inf(</text><text x="177.5" y="-228.4" font-family="Lato" font-size="12" fill="#1f78b4">⓿</text><text x="190.5" y="-228.4" font-family="Lato" font-size="12">)</text><text x="154.5" y="-216.4" font-family="Lato" font-size="12">[Büchi]</text><g class="node"><circle fill="#ffffa0" stroke="#000" cx="56" cy="-67" r="18"/><text text-anchor="middle" x="56" y="-63.9" font-family="Lato" font-size="12">0</text></g><g class="edge"><path fill="none" stroke="#000" d="M1.15-67h29.48"/><path stroke="#000" d="M37.94-67l-7-3.15 3.5 3.15h-3.5 3.5l-3.5 3.15 7-3.15h0z"/></g><g class="node"><circle fill="#ffffa0" stroke="#000" cx="249" cy="-84" r="18"/><text text-anchor="middle" x="249" y="-80.9" font-family="Lato" font-size="12">1</text></g><g class="edge"><path fill="none" stroke="#000" d="M72.64-74.35C84.73-79.6 102.03-86.21 118-89c36.45-6.37 79.49-2.54 105.75 1.04"/><path stroke="#000" d="M231.02-86.91l-6.48-4.12 3.01 3.62-3.46-.5h0l3.46.5-3.91 2.62 7.38-2.12h0z"/><text x="129.5" y="-95.4" font-family="Lato" font-size="12">!a</text></g><g class="node"><circle fill="#ffffa0" stroke="#000" cx="136" cy="-18" r="18"/><text text-anchor="middle" x="136" y="-14.9" font-family="Lato" font-size="12">3</text></g><g class="edge"><path fill="none" stroke="#000" d="M71.67-57.78c11.99 7.53 29.07 18.26 42.48 26.68"/><path stroke="#000" d="M120.39-27.18l-4.25-6.39 1.29 4.53-2.96-1.86h0l2.96 1.86-4.64.81 7.6 1.05h0z"/><text x="92" y="-46.4" font-family="Lato" font-size="12">a</text></g><g class="node"><circle fill="#ffffa0" stroke="#000" cx="334" cy="-116" r="18"/><text text-anchor="middle" x="334" y="-112.9" font-family="Lato" font-size="12">2</text></g><g class="edge"><path fill="none" stroke="#000" d="M266-90.17c12.63-4.87 30.41-11.72 44.48-17.15"/><path stroke="#000" d="M317.05-109.85l-7.67-.42 4.4 1.68-3.27 1.26h0l3.27-1.26-2.13 4.2 5.4-5.46h0z"/><text x="285" y="-104.4" font-family="Lato" font-size="12">!b</text></g><g class="node"><circle fill="#ffffa0" stroke="#000" cx="334" cy="-18" r="18"/><text text-anchor="middle" x="334" y="-14.9" font-family="Lato" font-size="12">4</text></g><g class="edge"><path fill="none" stroke="#000" d="M263.71-73.1c13.57 10.79 34.49 27.43 49.8 39.6"/><path stroke="#000" d="M319.27-28.91l-3.51-6.83.77 4.65-2.74-2.18h0l2.74 2.18-4.7.28 7.44 1.9h0z"/><text x="287.5" y="-57.4" font-family="Lato" font-size="12">b</text></g><g class="edge"><path fill="none" stroke="#000" d="M151.97-26.9c19.39-11.53 53.29-31.69 75.19-44.71"/><path stroke="#000" d="M233.27-75.24l-7.63.87 4.62.92-3.01 1.79h0l3.01-1.79-1.4 4.5 4.41-6.29h0z"/><text x="172" y="-65.4" font-family="Lato" font-size="12">!a &amp; !b</text></g><g class="edge"><path fill="none" stroke="#000" d="M128.97-34.66C127.41-44.62 129.75-54 136-54c4.69 0 7.18 5.27 7.47 12.11"/><path stroke="#000" d="M143.03-34.66l3.57-6.8-3.36 3.3.22-3.49h0l-.22 3.49-2.93-3.68 2.72 7.18h0z"/><text x="117.5" y="-70.4" font-family="Lato" font-size="12">a &amp; !b</text><text x="129.5" y="-57.4" font-family="Lato" font-size="12" fill="#1f78b4">⓿</text></g><g class="edge"><path fill="none" stroke="#000" d="M154.05-18h154.77"/><path stroke="#000" d="M315.85-18l-7-3.15 3.5 3.15h-3.5 3.5l-3.5 3.15 7-3.15h0z"/><text x="245" y="-21.4" font-family="Lato" font-size="12">b</text></g><g class="edge"><path fill="none" stroke="#000" d="M330.22-133.78c-.64-9.53.62-18.22 3.78-18.22 2.32 0 3.61 4.68 3.88 10.95"/><path stroke="#000" d="M337.78-133.78l3.25-6.95-3.2 3.45.05-3.5h0l-.05 3.5-3.1-3.55 3.05 7.05h0z"/><text x="330" y="-155.4" font-family="Lato" font-size="12">b</text></g><g class="edge"><path fill="none" stroke="#000" d="M327.86-133.14C324.24-150.58 326.29-170 334-170c6.69 0 9.12 14.6 7.29 29.85"/><path stroke="#000" d="M340.14-133.14l4.24-6.4-3.67 2.94.56-3.45h0l-.56 3.45-2.55-3.96 1.98 7.42h0z"/><text x="327.5" y="-186.4" font-family="Lato" font-size="12">!b</text><text x="327.5" y="-173.4" font-family="Lato" font-size="12" fill="#1f78b4">⓿</text></g><g class="edge"><path fill="none" stroke="#000" d="M326.62-34.66C324.98-44.62 327.44-54 334-54c4.92 0 7.54 5.27 7.84 12.11"/><path stroke="#000" d="M341.38-34.66l3.59-6.79-3.36 3.29.22-3.49h0l-.22 3.49-2.92-3.69 2.69 7.19h0z"/><text x="330" y="-70.4" font-family="Lato" font-size="12">1</text><text x="327.5" y="-57.4" font-family="Lato" font-size="12" fill="#1f78b4">⓿</text></g></g></svg>