<?xml-stylesheet href="spot.css" type="text/css"?><svg width="461pt" height="197pt" viewBox="0 0 461 197" xmlns="http://www.w3.org/2000/svg"><g class="graph" transform="translate(4 193)"><path fill="#fff" stroke="transparent" d="M-4 4v-197h461V4H-4z"/><text x="205" y="-175.4" font-family="Lato" font-size="12">[Büchi]</text><g class="node"><circle fill="#ffffa0" stroke="#000" cx="56" cy="-67" r="18"/><text text-anchor="middle" x="56" y="-63.9" font-family="Lato" font-size="12">0</text></g><g class="edge"><path fill="none" stroke="#000" d="M1.15-67h29.48"/><path stroke="#000" d="M37.94-67l-7-3.15 3.5 3.15h-3.5 3.5l-3.5 3.15 7-3.15h0z"/></g><g class="node"><circle fill="#ffffa0" stroke="#000" cx="257" cy="-84" r="18"/><text text-anchor="middle" x="257" y="-80.9" font-family="Lato" font-size="12">1</text></g><g class="edge"><path fill="none" stroke="#000" d="M73.06-72.77C85.22-76.82 102.42-81.87 118-84c39.49-5.4 85.93-3.78 113.61-1.99"/><path stroke="#000" d="M238.9-85.48l-6.76-3.63 3.27 3.39-3.49-.25h0l3.49.25-3.71 2.9 7.2-2.66h0z"/><text x="133.5" y="-90.4" font-family="Lato" font-size="12">!a</text></g><g class="node"><circle fill="#ffffa0" stroke="#000" cx="140" cy="-22" r="18"/><circle fill="none" stroke="#000" cx="140" cy="-22" r="22"/><text text-anchor="middle" x="140" y="-18.9" font-family="Lato" font-size="12">2</text></g><g class="edge"><path fill="none" stroke="#000" d="M72.04-58.75c11.68 6.41 28.14 15.45 41.82 22.95"/><path stroke="#000" d="M120.31-32.26l-4.62-6.12 1.55 4.44-3.06-1.68h0l3.06 1.68-4.58 1.08 7.65.6h0z"/><text x="92" y="-51.4" font-family="Lato" font-size="12">a</text></g><g class="node"><circle fill="#ffffa0" stroke="#000" cx="346" cy="-115" r="18"/><circle fill="none" stroke="#000" cx="346" cy="-115" r="22"/><text text-anchor="middle" x="346" y="-111.9" font-family="Lato" font-size="12">4</text></g><g class="edge"><path fill="none" stroke="#000" d="M274.36-89.83c12.36-4.4 29.57-10.53 43.91-15.64"/><path stroke="#000" d="M325.04-107.89l-7.65-.62 4.36 1.8-3.3 1.17h0l3.3-1.17-2.24 4.14 5.53-5.32h0z"/><text x="293" y="-103.4" font-family="Lato" font-size="12">!b</text></g><g class="node"><circle fill="#ffffa0" stroke="#000" cx="346" cy="-22" r="18"/><circle fill="none" stroke="#000" cx="346" cy="-22" r="22"/><text text-anchor="middle" x="346" y="-18.9" font-family="Lato" font-size="12">5</text></g><g class="edge"><path fill="none" stroke="#000" d="M272.37-73.76c13.37 9.53 33.56 23.92 49.26 35.1"/><path stroke="#000" d="M327.61-34.39l-3.87-6.63 1.02 4.6-2.85-2.03h0l2.85 2.03-4.68.53 7.53 1.5h0z"/><text x="295.5" y="-62.4" font-family="Lato" font-size="12">b</text></g><g class="edge"><path fill="none" stroke="#000" d="M159.73-32.1c20.42-11.01 53.05-28.6 74.57-40.2"/><path stroke="#000" d="M240.59-75.69l-7.65.55 4.57 1.11-3.08 1.66h0l3.08-1.66-1.58 4.43 4.66-6.09h0z"/><text x="180" y="-67.4" font-family="Lato" font-size="12">!a &amp; !b</text></g><g class="edge"><path fill="none" stroke="#000" d="M131.99-42.58C130.89-52.84 133.55-62 140-62c4.83 0 7.54 5.15 8.13 12.05"/><path stroke="#000" d="M148.01-42.58l3.26-6.95-3.21 3.45.06-3.5h0l-.06 3.5-3.09-3.55 3.04 7.05h0z"/><text x="121.5" y="-65.4" font-family="Lato" font-size="12">a &amp; !b</text></g><g class="edge"><path fill="none" stroke="#000" d="M162.06-22h154.61"/><path stroke="#000" d="M323.75-22l-7-3.15 3.5 3.15h-3.5 3.5l-3.5 3.15 7-3.15h0z"/><text x="253" y="-25.4" font-family="Lato" font-size="12">b</text></g><g class="edge"><path fill="none" stroke="#000" d="M337.63-135.58C336.47-145.84 339.26-155 346-155c5.05 0 7.89 5.15 8.5 12.05"/><path stroke="#000" d="M354.37-135.58l3.27-6.94-3.21 3.44.06-3.5h0l-.06 3.5-3.09-3.55 3.03 7.05h0z"/><text x="339.5" y="-158.4" font-family="Lato" font-size="12">!b</text></g><g class="node"><circle fill="#ffffa0" stroke="#000" cx="435" cy="-115" r="18"/><text text-anchor="middle" x="435" y="-111.9" font-family="Lato" font-size="12">3</text></g><g class="edge"><path fill="none" stroke="#000" d="M368.06-115h41.55"/><path stroke="#000" d="M416.93-115l-7-3.15 3.5 3.15h-3.5 3.5l-3.5 3.15 7-3.15h0z"/><text x="388.5" y="-118.4" font-family="Lato" font-size="12">b</text></g><g class="edge"><path fill="none" stroke="#000" d="M337.63-42.58C336.47-52.84 339.26-62 346-62c5.05 0 7.89 5.15 8.5 12.05"/><path stroke="#000" d="M354.37-42.58l3.27-6.94-3.21 3.44.06-3.5h0l-.06 3.5-3.09-3.55 3.03 7.05h0z"/><text text-anchor="middle" x="346" y="-65.4" font-family="Lato" font-size="12">1</text></g><g class="edge"><path fill="none" stroke="#000" d="M419.22-105.98c-6.04 3.18-13.24 6.37-20.22 7.98-9.06 2.08-18.79.09-27.35-3.17"/><path stroke="#000" d="M365.06-104l5.19 5.66-1.97-4.27 3.21 1.38h0l-3.21-1.38 4.46-1.52-7.68.13h0z"/><text x="386" y="-101.4" font-family="Lato" font-size="12">!b</text></g><g class="edge"><path fill="none" stroke="#000" d="M427.62-131.66c-1.64-9.96.82-19.34 7.38-19.34 4.92 0 7.54 5.27 7.84 12.11"/><path stroke="#000" d="M442.38-131.66l3.59-6.79-3.36 3.29.22-3.49h0l-.22 3.49-2.92-3.69 2.69 7.19h0z"/><text x="431" y="-154.4" font-family="Lato" font-size="12">b</text></g></g></svg>