<?xml-stylesheet href="spot.css" type="text/css"?><svg width="430pt" height="260pt" viewBox="0 0 430 260.41" xmlns="http://www.w3.org/2000/svg"><g class="graph"><path fill="#fff" stroke="transparent" d="M0 260.41V0h430v260.41H0z"/><text x="107" y="-239.81" font-family="Lato" font-size="12" transform="translate(4 256.41)">(Fin(</text><text x="133" y="-239.81" font-family="Lato" font-size="12" fill="#1f78b4" transform="translate(4 256.41)">⓿</text><text x="146" y="-239.81" font-family="Lato" font-size="12" transform="translate(4 256.41)">) | Inf(</text><text x="183" y="-239.81" font-family="Lato" font-size="12" fill="#ff4da0" transform="translate(4 256.41)">❶</text><text x="194" y="-239.81" font-family="Lato" font-size="12" transform="translate(4 256.41)">)) &amp; (Fin(</text><text x="246" y="-239.81" font-family="Lato" font-size="12" fill="#ff7f00" transform="translate(4 256.41)">❷</text><text x="257" y="-239.81" font-family="Lato" font-size="12" transform="translate(4 256.41)">) | Inf(</text><text x="294" y="-239.81" font-family="Lato" font-size="12" fill="#6a3d9a" transform="translate(4 256.41)">❸</text><text x="305" y="-239.81" font-family="Lato" font-size="12" transform="translate(4 256.41)">))</text><text x="180.5" y="-227.81" font-family="Lato" font-size="12" transform="translate(4 256.41)">[Streett 2]</text><g class="node" transform="translate(4 256.41)"><path fill="#ffffa0" stroke="#000" d="M64-62.41H50c-6 0-12 6-12 12v12c0 6 6 12 12 12h14c6 0 12-6 12-12v-12c0-6-6-12-12-12"/><text x="53" y="-47.81" font-family="Lato" font-size="12">0</text><text x="46" y="-35.81" font-family="Lato" font-size="12" fill="#ff4da0">❶</text><text x="57" y="-35.81" font-family="Lato" font-size="12" fill="#6a3d9a">❸</text></g><g class="edge" transform="translate(4 256.41)"><path fill="none" stroke="#000" d="M1.16-44.41h29.23"/><path stroke="#000" d="M37.74-44.41l-7-3.15 3.5 3.15h-3.5 3.5l-3.5 3.15 7-3.15h0z"/></g><g class="edge" transform="translate(4 256.41)"><path fill="none" stroke="#000" d="M50.49-62.56c-1-9.39 1.17-17.85 6.51-17.85 3.92 0 6.14 4.56 6.64 10.71"/><path stroke="#000" d="M63.51-62.56l3.28-6.94-3.22 3.44.07-3.5h0l-.07 3.5-3.08-3.56 3.02 7.06h0z"/><text x="41" y="-83.81" font-family="Lato" font-size="12">a &amp; b</text></g><g class="node" transform="translate(4 256.41)"><path fill="#ffffa0" stroke="#000" d="M177.5-156.41h-16c-6 0-12 6-12 12v12c0 6 6 12 12 12h16c6 0 12-6 12-12v-12c0-6-6-12-12-12"/><text x="165.5" y="-141.81" font-family="Lato" font-size="12">1</text><text x="157.5" y="-129.81" font-family="Lato" font-size="12" fill="#1f78b4">⓿</text><text x="170.5" y="-129.81" font-family="Lato" font-size="12" fill="#6a3d9a">❸</text></g><g class="edge" transform="translate(4 256.41)"><path fill="none" stroke="#000" d="M62.63-62.69C67.7-79.04 77.39-102.5 94-116.41c13.51-11.31 32.63-16.8 48.11-19.48"/><path stroke="#000" d="M149.39-136.98l-7.4-2.07 3.93 2.59-3.46.52h0l3.46-.52-2.99 3.64 6.46-4.16h0z"/><text x="94" y="-135.81" font-family="Lato" font-size="12">!a &amp; b</text></g><g class="node" transform="translate(4 256.41)"><path fill="#ffffa0" stroke="#000" d="M410-93.41h-14c-6 0-12 6-12 12v12c0 6 6 12 12 12h14c6 0 12-6 12-12v-12c0-6-6-12-12-12"/><text x="399" y="-78.81" font-family="Lato" font-size="12">2</text><text x="392" y="-66.81" font-family="Lato" font-size="12" fill="#ff4da0">❶</text><text x="403" y="-66.81" font-family="Lato" font-size="12" fill="#ff7f00">❷</text></g><g class="edge" transform="translate(4 256.41)"><path fill="none" stroke="#000" d="M76.01-36.7C81.67-34.61 88-32.59 94-31.41c67.62 13.37 86.46 12.24 155 5 52.88-5.59 68.01-4.33 117-25 3.9-1.64 7.83-3.73 11.59-5.98"/><path stroke="#000" d="M383.71-61.29l-7.6 1.11 4.64.77-2.95 1.88h0l2.95-1.88-1.26 4.54 4.22-6.42h0z"/><text x="210" y="-29.81" font-family="Lato" font-size="12">a &amp; !b</text></g><g class="node" transform="translate(4 256.41)"><path fill="#ffffa0" stroke="#000" d="M295-93.41h-16c-6 0-12 6-12 12v12c0 6 6 12 12 12h16c6 0 12-6 12-12v-12c0-6-6-12-12-12"/><text x="283" y="-78.81" font-family="Lato" font-size="12">3</text><text x="275" y="-66.81" font-family="Lato" font-size="12" fill="#1f78b4">⓿</text><text x="288" y="-66.81" font-family="Lato" font-size="12" fill="#ff7f00">❷</text></g><g class="edge" transform="translate(4 256.41)"><path fill="none" stroke="#000" d="M76.27-46.89l183.34-24.93"/><path stroke="#000" d="M266.68-72.78l-7.36-2.18 3.89 2.65-3.47.47h0l3.47-.47-3.04 3.59 6.51-4.06h0z"/><text x="149" y="-64.81" font-family="Lato" font-size="12">!a &amp; !b</text></g><g class="edge" transform="translate(4 256.41)"><path fill="none" stroke="#000" d="M153.19-120.05c-6.4 6.99-14.2 14.7-22.19 20.64-14.83 11.04-22.06 8.11-37 19-5.25 3.83-10.44 8.42-15.19 13.02"/><path stroke="#000" d="M73.86-62.42l7.17-2.73-4.7.25 2.47-2.48h0l-2.47 2.48.24-4.7-2.71 7.18h0z"/><text x="96.5" y="-102.81" font-family="Lato" font-size="12">a &amp; b</text></g><g class="edge" transform="translate(4 256.41)"><path fill="none" stroke="#000" d="M159.37-156.56c-1.56-9.39 1.82-17.85 10.13-17.85 6.1 0 9.55 4.56 10.33 10.71"/><path stroke="#000" d="M179.63-156.56l3.34-6.91-3.24 3.41.09-3.5h0l-.09 3.5-3.05-3.59 2.95 7.09h0z"/><text x="151" y="-177.81" font-family="Lato" font-size="12">!a &amp; b</text></g><g class="edge" transform="translate(4 256.41)"><path fill="none" stroke="#000" d="M181.73-156.65c6.49-8.83 15.51-18.61 26.27-23.76 63.34-30.31 101.91-42.25 158 0 24.55 18.5 32.48 54.7 34.98 79.37"/><path stroke="#000" d="M401.59-93.78l2.55-7.24-2.85 3.75-.29-3.49h0l.29 3.49-3.43-3.22 3.73 6.71h0z"/><text x="268.5" y="-210.81" font-family="Lato" font-size="12">a &amp; !b</text></g><g class="edge" transform="translate(4 256.41)"><path fill="none" stroke="#000" d="M189.79-136.08c16.68 2.71 40.93 8.34 59.21 19.67 7.39 4.58 14.18 11.05 19.87 17.51"/><path stroke="#000" d="M273.39-93.53l-2.09-7.38-.16 4.7-2.25-2.68h0l2.25 2.68-4.67-.65 6.92 3.33h0z"/><text x="208" y="-134.81" font-family="Lato" font-size="12">!a &amp; !b</text></g><g class="edge" transform="translate(4 256.41)"><path fill="none" stroke="#000" d="M390.75-57.07c-6.26 8.72-14.79 18.55-24.75 24.66-45.49 27.91-63.98 20.96-117 27-68.77 7.83-90.21 9.34-155-15-3.96-1.49-7.93-3.49-11.7-5.69"/><path stroke="#000" d="M76.17-29.97l4.24 6.4-1.28-4.53 2.96 1.86h0l-2.96-1.86 4.64-.8-7.6-1.07h0z"/><text x="212.5" y="-8.81" font-family="Lato" font-size="12">a &amp; b</text></g><g class="edge" transform="translate(4 256.41)"><path fill="none" stroke="#000" d="M383.95-88.67c-18.49-13.04-48.48-32.68-76.95-44.74-24.52-10.38-31.59-11.64-58-15-18.08-2.3-22.93-2.37-41 0-3.66.48-7.48 1.21-11.21 2.07"/><path stroke="#000" d="M189.77-144.58l7.56 1.35-4.17-2.2 3.4-.85h0l-3.4.85 2.63-3.91-6.02 4.76h0z"/><text x="268.5" y="-148.81" font-family="Lato" font-size="12">!a &amp; b</text></g><g class="edge" transform="translate(4 256.41)"><path fill="none" stroke="#000" d="M392.87-93.56c-1.56-9.39 1.82-17.85 10.13-17.85 6.1 0 9.55 4.56 10.33 10.71"/><path stroke="#000" d="M413.13-93.56l3.34-6.91-3.24 3.41.09-3.5h0l-.09 3.5-3.05-3.59 2.95 7.09h0z"/><text x="384.5" y="-114.81" font-family="Lato" font-size="12">a &amp; !b</text></g><g class="edge" transform="translate(4 256.41)"><path fill="none" stroke="#000" d="M383.99-75.41h-69.72"/><path stroke="#000" d="M307.08-75.41l7 3.15-3.5-3.15h3.5-3.5l3.5-3.15-7 3.15h0z"/><text x="325" y="-78.81" font-family="Lato" font-size="12">!a &amp; !b</text></g><g class="edge" transform="translate(4 256.41)"><path fill="none" stroke="#000" d="M266.75-65.72c-18.96 8.93-49.04 21.53-76.75 26.31-36.77 6.35-80.12 2.61-106.83-.96"/><path stroke="#000" d="M76.09-41.36l6.5 4.09-3.03-3.61 3.46.49h0l-3.46-.49 3.9-2.63-7.37 2.15h0z"/><text x="153.5" y="-42.81" font-family="Lato" font-size="12">a &amp; b</text></g><g class="edge" transform="translate(4 256.41)"><path fill="none" stroke="#000" d="M266.92-78.48c-16.52-3.3-40.58-9.64-58.92-20.93-6.74-4.15-13.1-9.78-18.61-15.49"/><path stroke="#000" d="M184.59-120.11l2.43 7.29-.06-4.71 2.38 2.57h0l-2.38-2.57 4.69.44-7.06-3.02h0z"/><text x="210" y="-102.81" font-family="Lato" font-size="12">!a &amp; b</text></g><g class="edge" transform="translate(4 256.41)"><path fill="none" stroke="#000" d="M307.04-64.77c5.61 2.61 11.88 5.03 17.96 6.36 17.8 3.9 23.22 3.99 41 0 3.79-.85 7.66-2.15 11.38-3.65"/><path stroke="#000" d="M383.88-64.95l-7.68-.04 4.48 1.46-3.2 1.42h0l3.2-1.42-1.92 4.3 5.12-5.72h0z"/><text x="327" y="-61.81" font-family="Lato" font-size="12">a &amp; !b</text></g><g class="edge" transform="translate(4 256.41)"><path fill="none" stroke="#000" d="M276.51-93.56c-1.62-9.39 1.88-17.85 10.49-17.85 6.32 0 9.89 4.56 10.7 10.71"/><path stroke="#000" d="M297.49-93.56l3.35-6.91-3.25 3.41.1-3.5h0l-.1 3.5-3.05-3.59 2.95 7.09h0z"/><text x="266.5" y="-114.81" font-family="Lato" font-size="12">!a &amp; !b</text></g></g></svg>