<?xml-stylesheet href="spot.css" type="text/css"?><svg width="872" height="419pt" viewBox="0 0 654 419.5" xmlns="http://www.w3.org/2000/svg"><g class="graph" transform="translate(4 415.5)"><path fill="#fff" stroke="transparent" d="M-4 4v-419.5h654V4H-4z"/><g class="node"><ellipse fill="#ffffa0" stroke="#000" cx="118" cy="-312.5" rx="27" ry="18"/><text text-anchor="middle" x="118" y="-309.4" font-family="Lato" font-size="12">init</text></g><g class="edge"><path fill="none" stroke="#000" d="M54.22-312.5H83.7"/><path stroke="#000" d="M90.97-312.5l-7-3.15 3.5 3.15h-3.5 3.5l-3.5 3.15 7-3.15h0z"/></g><g class="node"><ellipse fill="#ffffa0" stroke="#000" cx="249" cy="-162.5" rx="27" ry="18"/><text text-anchor="middle" x="249" y="-159.4" font-family="Lato" font-size="12">3</text></g><g class="edge"><path fill="none" stroke="#000" d="M128.56-295.84c8.34 14 21.17 34.23 34.44 50.34 19.61 23.8 45.31 48.12 63.3 64.23"/><path stroke="#000" d="M231.62-176.55l-3.14-7 .52 4.68-2.61-2.33h0l2.61 2.33-4.71.03 7.33 2.29h0z"/><text text-anchor="middle" x="183.5" y="-261.9" font-family="Lato" font-size="12">!a &amp; !b</text><text text-anchor="middle" x="183.5" y="-248.9" font-family="Lato" font-size="12">{}</text></g><g class="node"><ellipse fill="#ffffa0" stroke="#000" cx="371" cy="-244.5" rx="27" ry="18"/><text text-anchor="middle" x="371" y="-241.4" font-family="Lato" font-size="12">2</text></g><g class="edge"><path fill="none" stroke="#000" d="M144.73-308.86c39.71 6.08 117.96 19.88 181.27 42.36 5.78 2.06 11.79 4.69 17.43 7.42"/><path stroke="#000" d="M349.86-255.87l-4.85-5.95 1.72 4.39-3.13-1.57h0l3.13 1.57-4.54 1.25 7.67.31h0z"/><text text-anchor="middle" x="249" y="-309.9" font-family="Lato" font-size="12">!a &amp; b</text><text text-anchor="middle" x="249" y="-296.9" font-family="Lato" font-size="12">{}</text></g><g class="node"><ellipse fill="#ffffa0" stroke="#000" cx="619" cy="-211.5" rx="27" ry="18"/><text text-anchor="middle" x="619" y="-208.4" font-family="Lato" font-size="12">4</text></g><g class="edge"><path fill="none" stroke="#000" d="M133.74-327.62c22.48-21.39 67.68-57.88 114.26-57.88h248c71.94 0 105.07 100.95 116.77 149.06"/><path stroke="#000" d="M614.41-229.46l1.47-7.54-2.27 4.13-.8-3.41h0l.8 3.41-3.87-2.69 4.67 6.1h0z"/><text text-anchor="middle" x="371" y="-401.9" font-family="Lato" font-size="12">a &amp; !b</text><text text-anchor="middle" x="371" y="-388.9" font-family="Lato" font-size="12">{}</text></g><g class="node"><path fill="#ffffa0" stroke="#000" d="M522-213.5h-54v36h54v-36z"/><text text-anchor="middle" x="495" y="-192.4" font-family="Lato" font-size="12">1</text></g><g class="edge"><path fill="none" stroke="#000" d="M143.92-317.83c31.11-5.84 85.86-13.41 132.08-5.67 80.68 13.52 109.59 9.57 174 60 14.59 11.43 25.82 29.12 33.29 43.59"/><path stroke="#000" d="M486.45-213.52l-.28-7.67-1.28 4.53-1.55-3.14h0l1.55 3.14-4.37-1.74 5.93 4.88h0z"/><text text-anchor="middle" x="310" y="-335.9" font-family="Lato" font-size="12">a &amp; b</text><text text-anchor="middle" x="310" y="-322.9" font-family="Lato" font-size="12">{}</text></g><g class="edge"><path fill="none" stroke="#000" d="M273.59-170.2c15.71-5.79 36.35-14.72 52.41-26.3 10.18-7.34 19.8-17.33 27.43-26.3"/><path stroke="#000" d="M357.92-228.22l-6.89 3.38 4.66-.68-2.24 2.69h0l2.24-2.69.19 4.7 2.04-7.4h0z"/><text text-anchor="middle" x="310" y="-212.9" font-family="Lato" font-size="12">{b}</text><text text-anchor="middle" x="310" y="-199.9" font-family="Lato" font-size="12">{}</text></g><g class="edge"><path fill="none" stroke="#000" d="M251.43-144.36c3.07 26.63 12.7 76.14 42.57 103.86 52.01 48.28 85.67 43.47 156 34 56.63-7.62 83.91 6.73 124-34 38.85-39.46 44.78-108.38 44.9-145.53"/><path stroke="#000" d="M618.85-193.46l-3.1 7.02 3.13-3.52.02 3.5h0l-.02-3.5 3.17 3.48-3.2-6.98h0z"/><text text-anchor="middle" x="433" y="-22.9" font-family="Lato" font-size="12">{a}</text><text text-anchor="middle" x="433" y="-9.9" font-family="Lato" font-size="12">{}</text></g><g class="edge"><path fill="none" stroke="#000" d="M268.14-149.27c27.82 18.63 82.74 48.81 129.86 34.77 32.28-9.62 60.56-37.12 77.91-57.42"/><path stroke="#000" d="M480.51-177.44l-6.9 3.36 4.66-.67-2.24 2.69h0l2.24-2.69.18 4.71 2.06-7.4h0z"/><text text-anchor="middle" x="371" y="-130.9" font-family="Lato" font-size="12">{a, b}</text><text text-anchor="middle" x="371" y="-117.9" font-family="Lato" font-size="12">{}</text></g><g class="edge"><path fill="none" stroke="#000" d="M344.24-241.32c-15.64 2.91-35.38 8.44-50.24 18.82-13.43 9.39-24.36 24.21-31.96 36.77"/><path stroke="#000" d="M258.37-179.4l6.23-4.48-4.48 1.45 1.76-3.03h0l-1.76 3.03-.96-4.61-.79 7.64h0z"/><text text-anchor="middle" x="310" y="-252.9" font-family="Lato" font-size="12">{b}</text><text text-anchor="middle" x="310" y="-239.9" font-family="Lato" font-size="12">{1}</text></g><g class="edge"><path fill="none" stroke="#000" d="M392.91-255.59c7.12-3.22 15.27-6.29 23.09-7.91 14.8-3.06 18.99-1.73 34 0 56.23 6.49 70.94 9.29 124 29 5.92 2.2 12.06 5.03 17.81 7.94"/><path stroke="#000" d="M598.34-223.13l-4.74-6.04 1.64 4.41-3.1-1.62h0l3.1 1.62-4.57 1.16 7.67.47h0z"/><text text-anchor="middle" x="495" y="-276.9" font-family="Lato" font-size="12">{a, b}</text><text text-anchor="middle" x="495" y="-263.9" font-family="Lato" font-size="12">{1}</text></g><g class="edge"><path fill="none" stroke="#000" d="M397.2-239.26c15.58 3.7 35.79 9.31 52.8 16.76 3.79 1.66 7.64 3.6 11.41 5.66"/><path stroke="#000" d="M467.65-213.28l-4.52-6.21 1.48 4.47-3.04-1.73h0l3.04 1.73-4.61 1 7.65.74h0z"/><text text-anchor="middle" x="433" y="-249.9" font-family="Lato" font-size="12">{a}</text><text text-anchor="middle" x="433" y="-236.9" font-family="Lato" font-size="12">{1}</text></g><g class="edge"><path fill="none" stroke="#000" d="M608.06-194.91c-8.01 12.33-20.2 28.93-34.06 40.41-47.61 39.43-63.88 48.61-124 63-68.22 16.34-94.65 10.02-156-24-11.01-6.1-20.85-15.93-28.41-25.03"/><path stroke="#000" d="M261.18-146.06l1.9 7.44.28-4.7 2.18 2.74h0l-2.18-2.74 4.64.77-6.82-3.51h0z"/><text text-anchor="middle" x="433" y="-107.9" font-family="Lato" font-size="12">{a}</text><text text-anchor="middle" x="433" y="-94.9" font-family="Lato" font-size="12">{0}</text></g><g class="edge"><path fill="none" stroke="#000" d="M605.49-227.44c-16.58-19.61-47.92-51.7-83.49-63.06-45.21-14.44-63.14-7.4-106 13-7.95 3.78-15.88 9.12-22.77 14.4"/><path stroke="#000" d="M387.7-258.71l7.44-1.88-4.7-.29 2.74-2.18h0l-2.74 2.18.79-4.65-3.53 6.82h0z"/><text text-anchor="middle" x="495" y="-313.9" font-family="Lato" font-size="12">{a, b}</text><text text-anchor="middle" x="495" y="-300.9" font-family="Lato" font-size="12">{0}</text></g><g class="edge"><path fill="none" stroke="#000" d="M608.01-194.79c-7.72 11.16-19.52 24.92-34.01 31.29-13.83 6.09-19.63 4.67-34 0-6.46-2.1-12.77-5.55-18.5-9.42"/><path stroke="#000" d="M515.53-177.25l3.82 6.66-.98-4.6 2.83 2.05h0l-2.83-2.05 4.68-.5-7.52-1.56h0z"/><text text-anchor="middle" x="557" y="-179.9" font-family="Lato" font-size="12">{b}</text><text text-anchor="middle" x="557" y="-166.9" font-family="Lato" font-size="12">{0}</text></g><g class="edge"><path fill="none" stroke="#000" d="M467.67-186.85c-5.77 1.65-11.89 3.22-17.67 4.35-58.03 11.37-126.86 16.45-166.78 18.59"/><path stroke="#000" d="M276.12-163.55l7.15 2.79-3.66-2.97 3.5-.18h0l-3.5.18 3.34-3.32-6.83 3.5h0z"/><text text-anchor="middle" x="371" y="-189.9" font-family="Lato" font-size="12">{a, b}</text><text text-anchor="middle" x="371" y="-176.9" font-family="Lato" font-size="12">{0,1}</text></g><g class="edge"><path fill="none" stroke="#000" d="M467.89-188.71c-15.74 2.72-35.79 3.68-51.89-3.79-13.13-6.09-23.75-18.23-31.28-29.25"/><path stroke="#000" d="M380.87-227.72l1.15 7.59.75-4.65 1.9 2.94h0l-1.9-2.94 4.55 1.23-6.45-4.17h0z"/><text text-anchor="middle" x="433" y="-208.9" font-family="Lato" font-size="12">{a}</text><text text-anchor="middle" x="433" y="-195.9" font-family="Lato" font-size="12">{0,1}</text></g><g class="edge"><path fill="none" stroke="#000" d="M522.17-198.93c18.46-2.42 43.32-5.68 63.09-8.27"/><path stroke="#000" d="M592.29-208.13l-7.35-2.21 3.88 2.67-3.47.45h0l3.47-.45-3.06 3.58 6.53-4.04h0z"/><text text-anchor="middle" x="557" y="-220.9" font-family="Lato" font-size="12">{b}</text><text text-anchor="middle" x="557" y="-207.9" font-family="Lato" font-size="12">{0,1}</text></g></g></svg>