<?xml-stylesheet href="spot.css" type="text/css"?><svg width="872" height="419pt" viewBox="0 0 654 419.5" xmlns="http://www.w3.org/2000/svg"><g class="graph" transform="translate(4 415.5)"><path fill="#fff" stroke="transparent" d="M-4 4v-419.5h654V4H-4z"/><g class="node"><ellipse fill="#ffffa0" stroke="#000" cx="118" cy="-312.5" rx="27" ry="18"/><text text-anchor="middle" x="118" y="-309.4" font-family="Lato" font-size="12">init</text></g><g class="edge"><path fill="none" stroke="#000" d="M54.22-312.5H83.7"/><path stroke="#000" d="M90.97-312.5l-7-3.15 3.5 3.15h-3.5 3.5l-3.5 3.15 7-3.15h0z"/></g><g class="node"><ellipse fill="#ffffa0" stroke="#000" cx="249" cy="-162.5" rx="27" ry="18"/><text text-anchor="middle" x="249" y="-159.4" font-family="Lato" font-size="12">2</text></g><g class="edge"><path fill="none" stroke="#000" d="M128.56-295.84c8.34 14 21.17 34.23 34.44 50.34 19.61 23.8 45.31 48.12 63.3 64.23"/><path stroke="#000" d="M231.62-176.55l-3.14-7 .52 4.68-2.61-2.33h0l2.61 2.33-4.71.03 7.33 2.29h0z"/><text text-anchor="middle" x="183.5" y="-261.9" font-family="Lato" font-size="12">!a &amp; !b</text><text text-anchor="middle" x="183.5" y="-248.9" font-family="Lato" font-size="12">{}</text></g><g class="node"><ellipse fill="#ffffa0" stroke="#000" cx="371" cy="-244.5" rx="27" ry="18"/><text text-anchor="middle" x="371" y="-241.4" font-family="Lato" font-size="12">3</text></g><g class="edge"><path fill="none" stroke="#000" d="M144.73-308.86c39.71 6.08 117.96 19.88 181.27 42.36 5.78 2.06 11.79 4.69 17.43 7.42"/><path stroke="#000" d="M349.86-255.87l-4.85-5.95 1.72 4.39-3.13-1.57h0l3.13 1.57-4.54 1.25 7.67.31h0z"/><text text-anchor="middle" x="249" y="-309.9" font-family="Lato" font-size="12">!a &amp; b</text><text text-anchor="middle" x="249" y="-296.9" font-family="Lato" font-size="12">{}</text></g><g class="node"><ellipse fill="#ffffa0" stroke="#000" cx="619" cy="-211.5" rx="27" ry="18"/><text text-anchor="middle" x="619" y="-208.4" font-family="Lato" font-size="12">4</text></g><g class="edge"><path fill="none" stroke="#000" d="M133.74-327.62c22.48-21.39 67.68-57.88 114.26-57.88h248c71.94 0 105.07 100.95 116.77 149.06"/><path stroke="#000" d="M614.41-229.46l1.47-7.54-2.27 4.13-.8-3.41h0l.8 3.41-3.87-2.69 4.67 6.1h0z"/><text text-anchor="middle" x="371" y="-401.9" font-family="Lato" font-size="12">a &amp; !b</text><text text-anchor="middle" x="371" y="-388.9" font-family="Lato" font-size="12">{}</text></g><g class="node"><ellipse fill="#ffffa0" stroke="#000" cx="495" cy="-162.5" rx="27" ry="18"/><text text-anchor="middle" x="495" y="-159.4" font-family="Lato" font-size="12">1</text></g><g class="edge"><path fill="none" stroke="#000" d="M142.95-319.55c50.28-13.41 169.23-37.69 255.05 4.05 51.42 25.01 78.29 92.02 89.5 128.5"/><path stroke="#000" d="M489.54-180.13l1.03-7.6-2.03 4.25-.99-3.36h0l.99 3.36-4.01-2.46 5.01 5.81h0z"/><text text-anchor="middle" x="310" y="-354.9" font-family="Lato" font-size="12">a &amp; b</text><text text-anchor="middle" x="310" y="-341.9" font-family="Lato" font-size="12">{}</text></g><g class="edge"><path fill="none" stroke="#000" d="M238.45-179.16c-2.34-9.96 1.17-19.34 10.55-19.34 7.03 0 10.77 5.28 11.21 12.11"/><path stroke="#000" d="M259.55-179.16l3.77-6.69-3.46 3.2.32-3.48h0l-.32 3.48-2.81-3.77 2.5 7.26h0z"/><text text-anchor="middle" x="249" y="-214.9" font-family="Lato" font-size="12">{}</text><text text-anchor="middle" x="249" y="-201.9" font-family="Lato" font-size="12">{}</text></g><g class="edge"><path fill="none" stroke="#000" d="M273.59-170.2c15.71-5.79 36.35-14.72 52.41-26.3 10.18-7.34 19.8-17.33 27.43-26.3"/><path stroke="#000" d="M357.92-228.22l-6.89 3.38 4.66-.68-2.24 2.69h0l2.24-2.69.19 4.7 2.04-7.4h0z"/><text text-anchor="middle" x="310" y="-212.9" font-family="Lato" font-size="12">{b}</text><text text-anchor="middle" x="310" y="-199.9" font-family="Lato" font-size="12">{}</text></g><g class="edge"><path fill="none" stroke="#000" d="M251.43-144.36c3.07 26.63 12.7 76.14 42.57 103.86 52.01 48.28 85.67 43.47 156 34 56.63-7.62 83.91 6.73 124-34 38.85-39.46 44.78-108.38 44.9-145.53"/><path stroke="#000" d="M618.85-193.46l-3.1 7.02 3.13-3.52.02 3.5h0l-.02-3.5 3.17 3.48-3.2-6.98h0z"/><text text-anchor="middle" x="433" y="-22.9" font-family="Lato" font-size="12">{a}</text><text text-anchor="middle" x="433" y="-9.9" font-family="Lato" font-size="12">{}</text></g><g class="edge"><path fill="none" stroke="#000" d="M268.4-149.76c18.24 11.79 47.45 28.49 75.6 35.26 46.69 11.23 63.12.63 106-21 6.36-3.21 13.02-7.03 19.17-10.77"/><path stroke="#000" d="M475.12-149.96l-7.61 1.01 4.64.84-2.98 1.84h0l2.98-1.84-1.32 4.52 4.29-6.37h0z"/><text text-anchor="middle" x="371" y="-130.9" font-family="Lato" font-size="12">{a, b}</text><text text-anchor="middle" x="371" y="-117.9" font-family="Lato" font-size="12">{}</text></g><g class="edge"><path fill="none" stroke="#000" d="M344.24-241.32c-15.64 2.91-35.38 8.44-50.24 18.82-13.43 9.39-24.36 24.21-31.96 36.77"/><path stroke="#000" d="M258.37-179.4l6.23-4.48-4.48 1.45 1.76-3.03h0l-1.76 3.03-.96-4.61-.79 7.64h0z"/><text text-anchor="middle" x="310" y="-252.9" font-family="Lato" font-size="12">{b}</text><text text-anchor="middle" x="310" y="-239.9" font-family="Lato" font-size="12">{1}</text></g><g class="edge"><path fill="none" stroke="#000" d="M360.45-261.16c-2.34-9.96 1.17-19.34 10.55-19.34 7.03 0 10.77 5.28 11.21 12.11"/><path stroke="#000" d="M381.55-261.16l3.77-6.69-3.46 3.2.32-3.48h0l-.32 3.48-2.81-3.77 2.5 7.26h0z"/><text text-anchor="middle" x="371" y="-296.9" font-family="Lato" font-size="12">{}</text><text text-anchor="middle" x="371" y="-283.9" font-family="Lato" font-size="12">{}</text></g><g class="edge"><path fill="none" stroke="#000" d="M395.47-252.79c6.56-1.94 13.75-3.73 20.53-4.71 14.96-2.16 18.98-1.62 34 0 56.08 6.04 70.3 9.74 124 27 5.24 1.68 10.7 3.77 15.93 5.93"/><path stroke="#000" d="M596.39-221.82l-5.21-5.64 1.99 4.27-3.22-1.38h0l3.22 1.38-4.46 1.52 7.68-.15h0z"/><text text-anchor="middle" x="495" y="-270.9" font-family="Lato" font-size="12">{a, b}</text><text text-anchor="middle" x="495" y="-257.9" font-family="Lato" font-size="12">{1}</text></g><g class="edge"><path fill="none" stroke="#000" d="M395.46-236.76c16.2 5.98 37.75 15.27 54.54 27.26 9.9 7.07 19.34 16.63 26.92 25.28"/><path stroke="#000" d="M481.85-178.42l-2.13-7.37-.14 4.71-2.26-2.67h0l2.26 2.67-4.66-.63 6.93 3.29h0z"/><text text-anchor="middle" x="433" y="-243.9" font-family="Lato" font-size="12">{a}</text><text text-anchor="middle" x="433" y="-230.9" font-family="Lato" font-size="12">{1}</text></g><g class="edge"><path fill="none" stroke="#000" d="M608.49-194.86c-7.95 12.8-20.26 30.3-34.49 42.36-47.3 40.11-63.73 49.37-124 64-68.38 16.61-94.87 7.85-156-27-10.94-6.23-20.77-16.08-28.35-25.15"/><path stroke="#000" d="M261.23-146.16l1.93 7.43.26-4.7 2.19 2.73h0l-2.19-2.73 4.65.76-6.84-3.49h0z"/><text text-anchor="middle" x="433" y="-104.9" font-family="Lato" font-size="12">{a}</text><text text-anchor="middle" x="433" y="-91.9" font-family="Lato" font-size="12">{0}</text></g><g class="edge"><path fill="none" stroke="#000" d="M604.6-226.84c-17.03-18.15-48.36-47.21-82.6-57.66-45.4-13.85-62.24-5.38-106 13-6.69 2.81-13.56 6.55-19.81 10.34"/><path stroke="#000" d="M390.17-257.38l7.6-1.05-4.64-.81 2.97-1.86h0l-2.97 1.86 1.29-4.53-4.25 6.39h0z"/><text text-anchor="middle" x="495" y="-306.9" font-family="Lato" font-size="12">{a, b}</text><text text-anchor="middle" x="495" y="-293.9" font-family="Lato" font-size="12">{0}</text></g><g class="edge"><path fill="none" stroke="#000" d="M608.1-228.16c-2.42-9.96 1.21-19.34 10.9-19.34 7.27 0 11.13 5.28 11.58 12.11"/><path stroke="#000" d="M629.9-228.16l3.79-6.68-3.46 3.19.33-3.48h0l-.33 3.48-2.81-3.78 2.48 7.27h0z"/><text text-anchor="middle" x="619" y="-263.9" font-family="Lato" font-size="12">{}</text><text text-anchor="middle" x="619" y="-250.9" font-family="Lato" font-size="12">{}</text></g><g class="edge"><path fill="none" stroke="#000" d="M607.98-194.85c-7.73 11.14-19.53 24.89-33.98 31.35-14 6.27-30.88 7.19-45.35 6.26"/><path stroke="#000" d="M521.33-157.87l6.7 3.74-3.21-3.44 3.48.3h0l-3.48-.3 3.76-2.84-7.25 2.54h0z"/><text text-anchor="middle" x="557" y="-179.9" font-family="Lato" font-size="12">{b}</text><text text-anchor="middle" x="557" y="-166.9" font-family="Lato" font-size="12">{0}</text></g><g class="edge"><path fill="none" stroke="#000" d="M467.71-162.5H283.33"/><path stroke="#000" d="M276.11-162.5l7 3.15-3.5-3.15h3.5-3.5l3.5-3.15-7 3.15h0z"/><text text-anchor="middle" x="371" y="-178.9" font-family="Lato" font-size="12">{a, b}</text><text text-anchor="middle" x="371" y="-165.9" font-family="Lato" font-size="12">{0,1}</text></g><g class="edge"><path fill="none" stroke="#000" d="M467.85-163.34c-16.13-1.64-36.59-5.82-51.85-16.16-14.84-10.04-26.04-26.92-33.43-40.95"/><path stroke="#000" d="M379.25-227.08l.32 7.67 1.25-4.54 1.57 3.13h0l-1.57-3.13 4.39 1.72-5.96-4.85h0z"/><text text-anchor="middle" x="433" y="-195.9" font-family="Lato" font-size="12">{a}</text><text text-anchor="middle" x="433" y="-182.9" font-family="Lato" font-size="12">{0,1}</text></g><g class="edge"><path fill="none" stroke="#000" d="M514.22-175.24c7.7-4.96 16.91-10.38 25.78-14.26 14.62-6.4 31.6-11.45 45.98-15.08"/><path stroke="#000" d="M592.8-206.26l-7.55-1.39 4.15 2.23-3.4.83h0l3.4-.83-2.65 3.89 6.05-4.73h0z"/><text text-anchor="middle" x="557" y="-216.9" font-family="Lato" font-size="12">{b}</text><text text-anchor="middle" x="557" y="-203.9" font-family="Lato" font-size="12">{0,1}</text></g><g class="edge"><path fill="none" stroke="#000" d="M484.1-179.16c-2.42-9.96 1.21-19.34 10.9-19.34 7.27 0 11.13 5.28 11.58 12.11"/><path stroke="#000" d="M505.9-179.16l3.79-6.68-3.46 3.19.33-3.48h0l-.33 3.48-2.81-3.78 2.48 7.27h0z"/><text text-anchor="middle" x="495" y="-214.9" font-family="Lato" font-size="12">{}</text><text text-anchor="middle" x="495" y="-201.9" font-family="Lato" font-size="12">{0,1}</text></g></g></svg>