<?xml-stylesheet href="spot.css" type="text/css"?><svg width="224" height="332" viewBox="0 0 167.5 249" xmlns="http://www.w3.org/2000/svg"><g class="graph" transform="translate(4 245)"><path fill="#fff" stroke="transparent" d="M-4 4v-249h167.5V4H-4z"/><text x="60.25" y="-228.4" font-family="Lato" font-size="12">Inf(</text><text x="81.25" y="-228.4" font-family="Lato" font-size="12" fill="#1f78b4">⓿</text><text x="94.25" y="-228.4" font-family="Lato" font-size="12">)</text><text x="58.25" y="-216.4" font-family="Lato" font-size="12">[Büchi]</text><g class="node"><circle fill="#ffffa0" stroke="#000" cx="56" cy="-82" r="18"/><text text-anchor="middle" x="56" y="-78.9" font-family="Lato" font-size="12">0</text></g><g class="edge"><path fill="none" stroke="#000" d="M1.15-82h29.48"/><path stroke="#000" d="M37.94-82l-7-3.15 3.5 3.15h-3.5 3.5l-3.5 3.15 7-3.15h0z"/></g><g class="edge"><path fill="none" stroke="#000" d="M49.62-99.04c-1.3-9.82.83-18.96 6.38-18.96 4.17 0 6.4 5.14 6.71 11.86"/><path stroke="#000" d="M62.38-99.04l3.47-6.84-3.31 3.35.17-3.5h0l-.17 3.5-2.98-3.65 2.82 7.14h0z"/><text x="52" y="-121.4" font-family="Lato" font-size="12">1</text></g><g class="node"><circle fill="#ffffa0" stroke="#000" cx="141" cy="-147" r="18"/><text x="137" y="-143.9" font-family="Lato" font-size="12">1</text></g><g class="edge"><path fill="none" stroke="#000" d="M70.71-92.73c13.57-10.64 34.49-27.02 49.8-39"/><path stroke="#000" d="M126.27-136.25l-7.45 1.84 4.7.32-2.76 2.16h0l2.76-2.16-.82 4.64 3.57-6.8h0z"/><text x="92" y="-121.4" font-family="Lato" font-size="12">!a</text></g><g class="node"><circle fill="#ffffa0" stroke="#000" cx="141" cy="-18" r="18"/><text text-anchor="middle" x="141" y="-14.9" font-family="Lato" font-size="12">2</text></g><g class="edge"><path fill="none" stroke="#000" d="M70.71-71.43c13.57 10.47 34.49 26.6 49.8 38.4"/><path stroke="#000" d="M126.27-28.58l-3.62-6.77.85 4.63-2.77-2.14h0l2.77 2.14-4.69.36 7.46 1.78h0z"/><text x="94.5" y="-56.4" font-family="Lato" font-size="12">a</text></g><g class="edge"><path fill="none" stroke="#000" d="M133.62-163.66c-1.64-9.96.82-19.34 7.38-19.34 4.92 0 7.54 5.27 7.84 12.11"/><path stroke="#000" d="M148.38-163.66l3.59-6.79-3.36 3.29.22-3.49h0l-.22 3.49-2.92-3.69 2.69 7.19h0z"/><text x="134.5" y="-199.4" font-family="Lato" font-size="12">!a</text><text x="134.5" y="-186.4" font-family="Lato" font-size="12" fill="#1f78b4">⓿</text></g><g class="edge"><path fill="none" stroke="#000" d="M137.22-35.78c-.64-9.53.62-18.22 3.78-18.22 2.32 0 3.61 4.68 3.88 10.95"/><path stroke="#000" d="M144.78-35.78l3.25-6.95-3.2 3.45.05-3.5h0l-.05 3.5-3.1-3.55 3.05 7.05h0z"/><text x="122.5" y="-57.4" font-family="Lato" font-size="12">!a &amp; b</text></g><g class="edge"><path fill="none" stroke="#000" d="M134.86-35.14C131.24-52.58 133.29-72 141-72c6.69 0 9.12 14.6 7.29 29.85"/><path stroke="#000" d="M147.14-35.14l4.24-6.4-3.67 2.94.56-3.45h0l-.56 3.45-2.55-3.96 1.98 7.42h0z"/><text x="137" y="-88.4" font-family="Lato" font-size="12">a</text><text x="134.5" y="-75.4" font-family="Lato" font-size="12" fill="#1f78b4">⓿</text></g></g></svg>