<?xml-stylesheet href="spot.css" type="text/css"?><svg width="433pt" height="184pt" viewBox="0 0 433 184.32" xmlns="http://www.w3.org/2000/svg"><g class="graph"><path fill="#fff" stroke="transparent" d="M0 184.32V0h433v184.32H0z"/><text x="191" y="-162.72" font-family="Lato" font-size="12" transform="translate(4 180.32)">[Büchi]</text><g class="node" transform="translate(4 180.32)"><circle fill="#ffffa0" stroke="#000" cx="60" cy="-73.32" r="18"/><circle fill="none" stroke="#000" cx="60" cy="-73.32" r="22"/><text text-anchor="middle" x="60" y="-70.22" font-family="Lato" font-size="12">0</text></g><g class="edge" transform="translate(4 180.32)"><path fill="none" stroke="#000" d="M1.17-73.32h29.54"/><path stroke="#000" d="M37.86-73.32l-7-3.15 3.5 3.15h-3.5 3.5l-3.5 3.15 7-3.15h0z"/></g><g class="edge" transform="translate(4 180.32)"><path fill="none" stroke="#000" d="M52.68-94.31c-.9-10.1 1.54-19.01 7.32-19.01 4.34 0 6.79 5.01 7.37 11.78"/><path stroke="#000" d="M67.32-94.31l3.2-6.98-3.18 3.48.03-3.5h0l-.03 3.5-3.12-3.53 3.1 7.03h0z"/><text x="56" y="-116.72" font-family="Lato" font-size="12">a</text></g><g class="node" transform="translate(4 180.32)"><circle fill="#ffffa0" stroke="#000" cx="407" cy="-106.32" r="18"/><text text-anchor="middle" x="407" y="-103.22" font-family="Lato" font-size="12">1</text></g><g class="edge" transform="translate(4 180.32)"><path fill="none" stroke="#000" d="M74.36-90.32c6.93-7.89 15.98-16.87 25.64-23 21.84-13.86 29.49-14.72 55-19 53.09-8.91 95.41-13.19 216 13 4.14.9 8.45 2.18 12.56 3.6"/><path stroke="#000" d="M390.26-113.25l-5.48-5.38 2.19 4.17-3.28-1.21h0l3.28 1.21-4.37 1.74 7.66-.53h0z"/><text x="209" y="-141.72" font-family="Lato" font-size="12">!a &amp; !b</text></g><g class="node" transform="translate(4 180.32)"><circle fill="#ffffa0" stroke="#000" cx="173" cy="-105.32" r="18"/><text text-anchor="middle" x="173" y="-102.22" font-family="Lato" font-size="12">2</text></g><g class="edge" transform="translate(4 180.32)"><path fill="none" stroke="#000" d="M81.74-69.79c15.71 1.78 37.54 2.32 55.26-4.53 6.93-2.68 13.37-7.41 18.8-12.37"/><path stroke="#000" d="M160.86-91.67l-7.2 2.66 4.71-.21-2.5 2.46h0l2.5-2.46-.29 4.7 2.78-7.15h0z"/><text x="100" y="-77.72" font-family="Lato" font-size="12">!a &amp; b</text></g><g class="edge" transform="translate(4 180.32)"><path fill="none" stroke="#000" d="M397.26-90.76C383.01-67.32 352.29-24.1 312-9.32 230.75 20.48 129.81-30.7 84.7-57.94"/><path stroke="#000" d="M78.72-61.61l4.31 6.34-1.33-4.51 2.98 1.83h0l-2.98-1.83 4.63-.86-7.61-.97h0z"/><text x="225.5" y="-9.72" font-family="Lato" font-size="12">a</text></g><g class="edge" transform="translate(4 180.32)"><path fill="none" stroke="#000" d="M397.43-121.86c-2.7-10.37.49-20.46 9.57-20.46 6.95 0 10.45 5.91 10.5 13.34"/><path stroke="#000" d="M416.57-121.86l4.03-6.54-3.57 3.07.45-3.48h0l-.45 3.48-2.68-3.88 2.22 7.35h0z"/><text x="400.5" y="-145.72" font-family="Lato" font-size="12">!a</text></g><g class="edge" transform="translate(4 180.32)"><path fill="none" stroke="#000" d="M155.28-101.64c-14.67 3.35-36.54 8.63-55.28 14.32-4.06 1.23-8.31 2.64-12.46 4.07"/><path stroke="#000" d="M80.71-80.83l7.65.63-4.35-1.8 3.3-1.17h0L84.01-82l2.25-4.14-5.55 5.31h0z"/><text x="114.5" y="-99.72" font-family="Lato" font-size="12">a</text></g><g class="edge" transform="translate(4 180.32)"><path fill="none" stroke="#000" d="M191.06-105.4c40.72-.17 143.73-.62 190.8-.82"/><path stroke="#000" d="M388.92-106.25l-7.02-3.12 3.52 3.14-3.5.01h0l3.5-.01-3.49 3.16 6.99-3.18h0z"/><text x="269.5" y="-108.72" font-family="Lato" font-size="12">!a &amp; !b</text></g><g class="node" transform="translate(4 180.32)"><circle fill="#ffffa0" stroke="#000" cx="290" cy="-40.32" r="18"/><circle fill="none" stroke="#000" cx="290" cy="-40.32" r="22"/><text text-anchor="middle" x="290" y="-37.22" font-family="Lato" font-size="12">3</text></g><g class="edge" transform="translate(4 180.32)"><path fill="none" stroke="#000" d="M189.03-96.82c19.15 10.82 52.48 29.66 75.36 42.59"/><path stroke="#000" d="M270.54-50.76L266-56.94l1.49 4.46-3.04-1.72h0l3.04 1.72-4.59 1.02 7.64.7h0z"/><text x="211" y="-86.72" font-family="Lato" font-size="12">!a &amp; b</text></g><g class="edge" transform="translate(4 180.32)"><path fill="none" stroke="#000" d="M267.92-42.3C232.89-45.74 160.56-53.52 100-64.32c-3.76-.67-7.71-1.47-11.59-2.31"/><path stroke="#000" d="M81.57-68.17l6.14 4.61-2.73-3.84 3.42.76h0l-3.42-.76 4.11-2.31-7.52 1.54h0z"/><text x="169" y="-57.72" font-family="Lato" font-size="12">a</text></g><g class="edge" transform="translate(4 180.32)"><path fill="none" stroke="#000" d="M309.48-50.93c20.48-11.75 53.48-30.69 75.08-43.09"/><path stroke="#000" d="M390.87-97.64l-7.64.75 4.61.99-3.04 1.74h0l3.04-1.74-1.47 4.48 4.5-6.22h0z"/><text x="330" y="-87.72" font-family="Lato" font-size="12">!a &amp; !b</text></g><g class="edge" transform="translate(4 180.32)"><path fill="none" stroke="#000" d="M279.29-59.67c-2-10.75 1.57-20.65 10.71-20.65 7 0 10.73 5.8 11.2 13.35"/><path stroke="#000" d="M300.71-59.67l3.61-6.77-3.37 3.28.23-3.49h0l-.23 3.49-2.91-3.7 2.67 7.19h0z"/><text x="271.5" y="-83.72" font-family="Lato" font-size="12">!a &amp; b</text></g></g></svg>