<?xml-stylesheet href="spot.css" type="text/css"?><svg width="400pt" height="157pt" viewBox="0 0 400 156.74" xmlns="http://www.w3.org/2000/svg"><g class="graph" transform="translate(4 152.74)"><path fill="#fff" stroke="transparent" d="M-4 4v-156.74h400V4H-4z"/><text x="174.5" y="-135.14" font-family="Lato" font-size="12">[Büchi]</text><g class="node"><circle fill="#ffffa0" stroke="#000" cx="56" cy="-80.74" r="18"/><text text-anchor="middle" x="56" y="-77.64" font-family="Lato" font-size="12">2</text></g><g class="edge"><path fill="none" stroke="#000" d="M1.15-80.74h29.48"/><path stroke="#000" d="M37.94-80.74l-7-3.15 3.5 3.15h-3.5 3.5l-3.5 3.15 7-3.15h0z"/></g><g class="node"><circle fill="#ffffa0" stroke="#000" cx="370" cy="-43.74" r="18"/><circle fill="none" stroke="#000" cx="370" cy="-43.74" r="22"/><text text-anchor="middle" x="370" y="-40.64" font-family="Lato" font-size="12">1</text></g><g class="edge"><path fill="none" stroke="#000" d="M72.98-86.75c40.32-14.2 148.79-46.34 231.02-14.99 18.67 7.12 35.38 22.34 47.19 35.41"/><path stroke="#000" d="M355.93-60.9l-2.23-7.34-.07 4.71-2.3-2.64h0l2.3 2.64-4.67-.57 6.97 3.2h0z"/><text x="213.5" y="-118.14" font-family="Lato" font-size="12">a &amp; b</text></g><g class="node"><circle fill="#ffffa0" stroke="#000" cx="169" cy="-39.74" r="18"/><circle fill="none" stroke="#000" cx="169" cy="-39.74" r="22"/><text text-anchor="middle" x="169" y="-36.64" font-family="Lato" font-size="12">3</text></g><g class="edge"><path fill="none" stroke="#000" d="M73.38-74.69c17.96 6.64 47.03 17.38 68.22 25.2"/><path stroke="#000" d="M148.18-47.06l-5.48-5.38 2.19 4.17-3.28-1.21h0l3.28 1.21-4.37 1.74 7.66-.53h0z"/><text x="92" y="-70.14" font-family="Lato" font-size="12">!a &amp; b</text></g><g class="node"><circle fill="#ffffa0" stroke="#000" cx="286" cy="-43.74" r="18"/><text text-anchor="middle" x="286" y="-40.64" font-family="Lato" font-size="12">0</text></g><g class="edge"><path fill="none" stroke="#000" d="M278.97-60.4c-1.56-9.96.78-19.34 7.03-19.34 4.69 0 7.18 5.28 7.47 12.12"/><path stroke="#000" d="M293.03-60.4l3.57-6.8-3.36 3.31.22-3.5h0l-.22 3.5-2.93-3.69 2.72 7.18h0z"/><text x="279.5" y="-83.14" font-family="Lato" font-size="12">!a</text></g><g class="edge"><path fill="none" stroke="#000" d="M304.39-43.74h36.21"/><path stroke="#000" d="M347.85-43.74l-7-3.15 3.5 3.15h-3.5 3.5l-3.5 3.15 7-3.15h0z"/><text x="322" y="-47.14" font-family="Lato" font-size="12">a</text></g><g class="edge"><path fill="none" stroke="#000" d="M361.99-64.32c-1.1-10.26 1.56-19.42 8.01-19.42 4.83 0 7.54 5.15 8.13 12.06"/><path stroke="#000" d="M378.01-64.32l3.26-6.94-3.21 3.44.06-3.5h0l-.06 3.5-3.09-3.55 3.04 7.05h0z"/><text text-anchor="middle" x="370" y="-87.14" font-family="Lato" font-size="12">1</text></g><g class="edge"><path fill="none" stroke="#000" d="M191.09-40.47c19.64-.68 48.9-1.7 69.52-2.42"/><path stroke="#000" d="M267.79-43.14l-7.1-2.9 3.6 3.02-3.49.13h0l3.49-.13-3.39 3.27 6.89-3.39h0z"/><text x="209" y="-45.14" font-family="Lato" font-size="12">!a &amp; !b</text></g><g class="edge"><path fill="none" stroke="#000" d="M188.25-28.49C214.08-14.02 262.74 7.94 304-3.74c15.42-4.36 30.77-13.53 42.68-21.98"/><path stroke="#000" d="M352.58-30.05l-7.51 1.6 4.69.47-2.82 2.07h0l2.82-2.07-.96 4.61 3.78-6.68h0z"/><text x="282" y="-7.14" font-family="Lato" font-size="12">a</text></g><g class="edge"><path fill="none" stroke="#000" d="M158.57-59.49c-1.77-10.6 1.71-20.25 10.43-20.25 6.68 0 10.28 5.66 10.81 13.07"/><path stroke="#000" d="M179.43-59.49l3.51-6.83-3.33 3.33.19-3.49h0l-.19 3.49-2.96-3.66 2.78 7.16h0z"/><text x="150.5" y="-83.14" font-family="Lato" font-size="12">!a &amp; b</text></g></g></svg>