<?xml-stylesheet href="spot.css" type="text/css"?><svg width="191pt" height="205pt" viewBox="0 0 191 205" xmlns="http://www.w3.org/2000/svg"><g class="graph" transform="translate(4 201)"><path fill="#fff" stroke="transparent" d="M-4 4v-205h191V4H-4z"/><text x="72" y="-184.4" font-family="Lato" font-size="12">Inf(</text><text x="93" y="-184.4" font-family="Lato" font-size="12" fill="#1f78b4">⓿</text><text x="106" y="-184.4" font-family="Lato" font-size="12">)</text><text x="70" y="-172.4" font-family="Lato" font-size="12">[Büchi]</text><g class="node"><circle fill="#ffffa0" stroke="#ff4da0" stroke-width="2" cx="56" cy="-67" r="18"/><text text-anchor="middle" x="56" y="-63.9" font-family="Lato" font-size="12">0</text></g><g class="edge"><path fill="none" stroke="#000" d="M1.15-67h29.48"/><path stroke="#000" d="M37.94-67l-7-3.15 3.5 3.15h-3.5 3.5l-3.5 3.15 7-3.15h0z"/></g><g class="edge"><path fill="none" stroke="#000" d="M49.62-84.04C48.32-93.86 50.45-103 56-103c4.17 0 6.4 5.14 6.71 11.86"/><path stroke="#000" d="M62.38-84.04l3.47-6.84-3.31 3.35.17-3.5h0l-.17 3.5-2.98-3.65 2.82 7.14h0z"/><text x="52" y="-119.4" font-family="Lato" font-size="12">a</text><text x="49.5" y="-106.4" font-family="Lato" font-size="12" fill="#1f78b4">⓿</text></g><g class="node"><circle fill="#ffffa0" stroke="#000" cx="165" cy="-116" r="18"/><text text-anchor="middle" x="165" y="-112.9" font-family="Lato" font-size="12">1</text></g><g class="edge"><path fill="none" stroke="#ff4da0" stroke-width="2" d="M69.86-78.73C76.16-83.99 84.09-89.91 92-94c15.13-7.82 33.51-13.37 47.91-16.95"/><path fill="#ff4da0" stroke="#ff4da0" stroke-width="2" d="M147.04-112.64l-7.54-1.45 4.02 1.77-3.41.81.12.49.12.48 3.4-.81-2.79 3.39 6.08-4.68h0z"/><text x="104" y="-110.4" font-family="Lato" font-size="12">!a</text></g><g class="node"><circle fill="#ffffa0" stroke="#000" cx="165" cy="-18" r="18"/><text text-anchor="middle" x="165" y="-14.9" font-family="Lato" font-size="12">2</text></g><g class="edge"><path fill="none" stroke="#ff4da0" stroke-width="2" d="M67.51-53.02C73.81-45.64 82.44-37.08 92-32c14.65 7.79 33.04 11.28 47.56 12.82"/><path fill="#ff4da0" stroke="#ff4da0" stroke-width="2" d="M146.77-18.53l-6.69-3.76 3.25 2.95-3.49-.31-.05.49-.04.5 3.49.31-3.73 2.33 7.26-2.51h0z"/><text x="92" y="-35.4" font-family="Lato" font-size="12">!a &amp; b</text></g><g class="edge"><path fill="none" stroke="#000" d="M154.45-101.09c-9.67 15-23.48 36.04-25.45 37.09-14.81 7.88-33.85 6.69-48.63 3.76"/><path stroke="#000" d="M73.49-61.79l6.14 4.61-2.73-3.84 3.42.77h0l-3.42-.77 4.11-2.31-7.52 1.54h0z"/><text x="106.5" y="-80.4" font-family="Lato" font-size="12">a</text><text x="104" y="-67.4" font-family="Lato" font-size="12" fill="#1f78b4">⓿</text></g><g class="edge"><path fill="none" stroke="#000" d="M155.77-131.54c-2.6-10.37.48-20.46 9.23-20.46 6.7 0 10.08 5.92 10.12 13.34"/><path stroke="#000" d="M174.23-131.54l4-6.56-3.56 3.09.43-3.48h0l-.43 3.48-2.69-3.87 2.25 7.34h0z"/><text x="158.5" y="-155.4" font-family="Lato" font-size="12">!a</text></g><g class="edge"><path fill="none" stroke="#000" d="M155.77-33.54C153.17-43.91 156.25-54 165-54c6.7 0 10.08 5.92 10.12 13.34"/><path stroke="#000" d="M174.23-33.54l4-6.56-3.56 3.09.43-3.48h0l-.43 3.48-2.69-3.87 2.25 7.34h0z"/><text x="161" y="-70.4" font-family="Lato" font-size="12">b</text><text x="158.5" y="-57.4" font-family="Lato" font-size="12" fill="#1f78b4">⓿</text></g></g></svg>