<?xml-stylesheet href="spot.css" type="text/css"?><svg width="287pt" height="143pt" viewBox="0 0 287 143" xmlns="http://www.w3.org/2000/svg"><g class="graph" transform="translate(4 139)"><path fill="#fff" stroke="transparent" d="M-4 4v-143h287V4H-4z"/><text x="118" y="-121.4" font-family="Lato" font-size="12">[Büchi]</text><g class="node"><circle fill="#ffffa0" stroke="#ff4da0" stroke-width="2" cx="60" cy="-61" r="18"/><circle fill="none" stroke="#ff4da0" stroke-width="2" cx="60" cy="-61" r="22"/><text text-anchor="middle" x="60" y="-57.9" font-family="Lato" font-size="12">0</text></g><g class="edge"><path fill="none" stroke="#000" d="M1.17-61h29.54"/><path stroke="#000" d="M37.86-61l-7-3.15 3.5 3.15h-3.5 3.5l-3.5 3.15 7-3.15h0z"/></g><g class="edge"><path fill="none" stroke="#ff4da0" stroke-width="2" d="M52.68-81.99C51.78-92.09 54.22-101 60-101c4.34 0 6.79 5.01 7.37 11.78"/><path fill="#ff4da0" stroke="#ff4da0" stroke-width="2" d="M67.32-81.99l3.2-6.98-2.68 3.48.03-3.5h-1l-.03 3.5-2.62-3.52 3.1 7.02h0z"/><text x="41.5" y="-104.4" font-family="Lato" font-size="12">!a &amp; b</text></g><g class="node"><circle fill="#ffffa0" stroke="#000" cx="257" cy="-61" r="18"/><circle fill="none" stroke="#000" cx="257" cy="-61" r="22"/><text text-anchor="middle" x="257" y="-57.9" font-family="Lato" font-size="12">1</text></g><g class="edge"><path fill="none" stroke="#000" d="M81.71-66.32C107.36-72.23 152.4-80.4 191-76c12.58 1.43 26.27 4.38 37.82 7.28"/><path stroke="#000" d="M235.71-66.93l-5.98-4.81 2.6 3.93-3.39-.88h0l3.39.88-4.18 2.17 7.56-1.29h0z"/><text x="157" y="-80.4" font-family="Lato" font-size="12">a &amp; b</text></g><g class="node"><circle fill="#ffffa0" stroke="#000" cx="173" cy="-18" r="18"/><text text-anchor="middle" x="173" y="-14.9" font-family="Lato" font-size="12">2</text></g><g class="edge"><path fill="none" stroke="#ff4da0" stroke-width="2" d="M80.84-53.31c19.19 7.43 48.24 18.68 68.37 26.48"/><path fill="#ff4da0" stroke="#ff4da0" stroke-width="2" d="M155.93-24.23l-5.39-5.46 2.3 3.73-3.26-1.26-.18.46-.18.47 3.26 1.27-4.22 1.2 7.67-.41h0z"/><text x="100" y="-48.4" font-family="Lato" font-size="12">!a &amp; b</text></g><g class="edge"><path fill="none" stroke="#000" d="M248.99-81.58C247.89-91.84 250.55-101 257-101c4.83 0 7.54 5.15 8.13 12.05"/><path stroke="#000" d="M265.01-81.58l3.26-6.95-3.21 3.45.06-3.5h0l-.06 3.5-3.09-3.55 3.04 7.05h0z"/><text text-anchor="middle" x="257" y="-104.4" font-family="Lato" font-size="12">1</text></g><g class="edge"><path fill="none" stroke="#000" d="M189.42-26.09c11.65-6.1 27.87-14.61 41.38-21.7"/><path stroke="#000" d="M237.19-51.14l-7.66.46 4.56 1.17-3.1 1.62h0l3.1-1.62-1.64 4.41 4.74-6.04h0z"/><text x="209" y="-42.4" font-family="Lato" font-size="12">a</text></g><g class="edge"><path fill="none" stroke="#000" d="M165.97-34.66C164.41-44.62 166.75-54 173-54c4.69 0 7.18 5.27 7.47 12.11"/><path stroke="#000" d="M180.03-34.66l3.57-6.8-3.36 3.3.22-3.49h0l-.22 3.49-2.93-3.68 2.72 7.18h0z"/><text x="166.5" y="-57.4" font-family="Lato" font-size="12">!a</text></g></g></svg>