<?xml-stylesheet href="spot.css" type="text/css"?><svg width="409pt" height="148" viewBox="0 0 409 110.76" xmlns="http://www.w3.org/2000/svg"><g class="graph" transform="translate(4 106.76)"><path fill="#fff" stroke="transparent" d="M-4 4v-110.76h409V4H-4z"/><text x="198" y="-89.16" font-family="Lato" font-size="12">t</text><text x="189" y="-76.16" font-family="Lato" font-size="12">[all]</text><g class="node"><circle fill="#ffffa0" stroke="#000" cx="56" cy="-19.76" r="18"/><text text-anchor="middle" x="56" y="-16.66" font-family="Lato" font-size="12">2</text></g><g class="edge"><path fill="none" stroke="#000" d="M1.15-19.76h29.48"/><path stroke="#000" d="M37.94-19.76l-7-3.15 3.5 3.15h-3.5 3.5l-3.5 3.15 7-3.15h0z"/></g><g class="edge"><path fill="none" stroke="#000" d="M49.62-36.8c-1.3-9.82.83-18.96 6.38-18.96 4.17 0 6.4 5.14 6.71 11.85"/><path stroke="#000" d="M62.38-36.8l3.47-6.85-3.31 3.35.17-3.49h0l-.17 3.49-2.98-3.64 2.82 7.14h0z"/><text x="37.5" y="-59.16" font-family="Lato" font-size="12">!a &amp; b</text></g><g class="node"><circle fill="#ffffa0" stroke="#000" cx="165" cy="-19.76" r="18"/><text text-anchor="middle" x="165" y="-16.66" font-family="Lato" font-size="12">1</text></g><g class="edge"><path fill="none" stroke="#000" d="M74.19-19.76h65.43"/><path stroke="#000" d="M146.85-19.76l-7-3.15 3.5 3.15h-3.5 3.5l-3.5 3.15 7-3.15h0z"/><text x="94.5" y="-23.16" font-family="Lato" font-size="12">a &amp; b</text></g><g class="node"><circle fill="#ffffa0" stroke="#000" cx="383" cy="-19.76" r="18"/><text text-anchor="middle" x="383" y="-16.66" font-family="Lato" font-size="12">0</text></g><g class="edge"><path fill="none" stroke="#000" d="M373.77-35.31c-2.6-10.36.48-20.45 9.23-20.45 6.7 0 10.08 5.91 10.12 13.34"/><path stroke="#000" d="M392.23-35.31l4-6.55-3.56 3.08.43-3.47h0l-.43 3.47-2.69-3.86 2.25 7.33h0z"/><text x="379" y="-59.16" font-family="Lato" font-size="12">b</text></g><g class="edge"><path fill="none" stroke="#000" d="M149.22-10.75c-6.04 3.19-13.24 6.38-20.22 7.99-16.03 3.68-20.97 3.68-37 0-4.58-1.06-9.25-2.79-13.64-4.76"/><path stroke="#000" d="M71.78-10.75l4.9 5.91-1.76-4.37 3.15 1.54h0l-3.15-1.54 4.53-1.29-7.67-.25h0z"/><text x="92" y="-6.16" font-family="Lato" font-size="12">!a &amp; b</text></g><g class="edge"><path fill="none" stroke="#000" d="M155.77-35.31c-2.6-10.36.48-20.45 9.23-20.45 6.7 0 10.08 5.91 10.12 13.34"/><path stroke="#000" d="M174.23-35.31l4-6.55-3.56 3.08.43-3.47h0l-.43 3.47-2.69-3.86 2.25 7.33h0z"/><text x="149" y="-59.16" font-family="Lato" font-size="12">a &amp; b</text></g><g class="node"><circle fill="#ffffa0" stroke="#000" cx="274" cy="-19.76" r="18"/><text text-anchor="middle" x="274" y="-16.66" font-family="Lato" font-size="12">3</text></g><g class="edge"><path fill="none" stroke="#000" d="M183.19-19.76h65.43"/><path stroke="#000" d="M255.85-19.76l-7-3.15 3.5 3.15h-3.5 3.5l-3.5 3.15 7-3.15h0z"/><text x="201" y="-23.16" font-family="Lato" font-size="12">a &amp; !b</text></g><g class="edge"><path fill="none" stroke="#000" d="M292.19-19.76h65.43"/><path stroke="#000" d="M364.85-19.76l-7-3.15 3.5 3.15h-3.5 3.5l-3.5 3.15 7-3.15h0z"/><text x="310" y="-23.16" font-family="Lato" font-size="12">!a &amp; b</text></g><g class="edge"><path fill="none" stroke="#000" d="M264.77-35.31c-2.6-10.36.48-20.45 9.23-20.45 6.7 0 10.08 5.91 10.12 13.34"/><path stroke="#000" d="M283.23-35.31l4-6.55-3.56 3.08.43-3.47h0l-.43 3.47-2.69-3.86 2.25 7.33h0z"/><text x="270" y="-59.16" font-family="Lato" font-size="12">a</text></g></g></svg>