<?xml-stylesheet href="spot.css" type="text/css"?><svg width="295pt" height="109pt" viewBox="0 0 295 109" xmlns="http://www.w3.org/2000/svg"><g class="graph" transform="translate(4 105)"><path fill="#fff" stroke="transparent" d="M-4 4v-109h295V4H-4z"/><text x="141" y="-87.4" font-family="Lato" font-size="12">t</text><text x="132" y="-74.4" font-family="Lato" font-size="12">[all]</text><g class="node"><circle fill="#ffffa0" stroke="#ff4da0" stroke-width="2" cx="56" cy="-18" r="18"/><text text-anchor="middle" x="56" y="-14.9" font-family="Lato" font-size="12">0</text></g><g class="edge"><path fill="none" stroke="#000" d="M1.15-18h29.48"/><path stroke="#000" d="M37.94-18l-7-3.15 3.5 3.15h-3.5 3.5l-3.5 3.15 7-3.15h0z"/></g><g class="edge"><path fill="none" stroke="#ff4da0" stroke-width="2" d="M49.62-35.04C48.32-44.86 50.45-54 56-54c4.17 0 6.4 5.14 6.71 11.86"/><path fill="#ff4da0" stroke="#ff4da0" stroke-width="2" d="M62.38-35.04l3.47-6.84-2.81 3.37.17-3.5-.5-.02-.5-.02-.17 3.49-2.48-3.62 2.82 7.14h0z"/><text x="52" y="-57.4" font-family="Lato" font-size="12">b</text></g><g class="node"><circle fill="#ffffa0" stroke="#000" cx="160" cy="-18" r="18"/><text text-anchor="middle" x="160" y="-14.9" font-family="Lato" font-size="12">2</text></g><g class="edge"><path fill="none" stroke="#ff4da0" stroke-width="2" d="M74.3-18h60.63"/><path fill="#ff4da0" stroke="#ff4da0" stroke-width="2" d="M141.95-18l-7-3.15 3.5 2.65h-3.5v1h3.5l-3.5 2.65 7-3.15h0z"/><text x="92" y="-21.4" font-family="Lato" font-size="12">a &amp; b</text></g><g class="edge"><path fill="none" stroke="#000" d="M151.02-33.92C148.68-44.15 151.67-54 160-54c6.38 0 9.63 5.77 9.75 13.07"/><path stroke="#000" d="M168.98-33.92l3.89-6.61-3.51 3.13.38-3.47h0l-.38 3.47-2.75-3.82 2.37 7.3h0z"/><text x="156" y="-57.4" font-family="Lato" font-size="12">a</text></g><g class="node"><circle fill="#ffffa0" stroke="#000" cx="269" cy="-18" r="18"/><text text-anchor="middle" x="269" y="-14.9" font-family="Lato" font-size="12">1</text></g><g class="edge"><path fill="none" stroke="#000" d="M178.19-18h65.43"/><path stroke="#000" d="M250.85-18l-7-3.15 3.5 3.15h-3.5 3.5l-3.5 3.15 7-3.15h0z"/><text x="196" y="-21.4" font-family="Lato" font-size="12">!a &amp; b</text></g><g class="edge"><path fill="none" stroke="#000" d="M259.77-33.54C257.17-43.91 260.25-54 269-54c6.7 0 10.08 5.92 10.12 13.34"/><path stroke="#000" d="M278.23-33.54l4-6.56-3.56 3.09.43-3.48h0l-.43 3.48-2.69-3.87 2.25 7.34h0z"/><text x="265" y="-57.4" font-family="Lato" font-size="12">b</text></g></g></svg>