<?xml-stylesheet href="spot.css" type="text/css"?><svg width="85pt" height="151pt" viewBox="0 0 85 151" xmlns="http://www.w3.org/2000/svg"><g class="graph"><path fill="#fff" stroke="transparent" d="M0 151V0h85v151H0z"/><text x="18.5" y="-130.4" font-family="Lato" font-size="12" transform="translate(4 147)">Fin(</text><text x="40.5" y="-130.4" font-family="Lato" font-size="12" fill="#1f78b4" transform="translate(4 147)">⓿</text><text x="53.5" y="-130.4" font-family="Lato" font-size="12" transform="translate(4 147)">)</text><text x="8" y="-118.4" font-family="Lato" font-size="12" transform="translate(4 147)">[co-Büchi]</text><g class="node" transform="translate(4 147)"><circle fill="#ffffa0" stroke="#000" cx="57.5" cy="-18" r="18"/><text text-anchor="middle" x="57.5" y="-14.9" font-family="Lato" font-size="12">0</text></g><g class="edge" transform="translate(4 147)"><path fill="none" stroke="#000" d="M2.65-18h29.48"/><path stroke="#000" d="M39.44-18l-7-3.15 3.5 3.15h-3.5 3.5l-3.5 3.15 7-3.15h0z"/></g><g class="edge" transform="translate(4 147)"><path fill="none" stroke="#000" d="M54.26-35.78C53.71-45.31 54.79-54 57.5-54c1.99 0 3.1 4.68 3.33 10.95"/><path stroke="#000" d="M60.74-35.78l3.24-6.96-3.2 3.46.05-3.5h0l-.05 3.5-3.1-3.54 3.06 7.04h0z"/><text x="53.5" y="-57.4" font-family="Lato" font-size="12">a</text></g><g class="edge" transform="translate(4 147)"><path fill="none" stroke="#000" d="M52.18-35.42C49.15-52.79 50.93-72 57.5-72c5.7 0 7.79 14.45 6.27 29.61"/><path stroke="#000" d="M62.82-35.42l4.07-6.51-3.6 3.04.47-3.47h0l-.47 3.47-2.65-3.89 2.18 7.36h0z"/><text x="51" y="-88.4" font-family="Lato" font-size="12">!a</text><text x="51" y="-75.4" font-family="Lato" font-size="12" fill="#1f78b4">⓿</text></g></g></svg>