<?xml-stylesheet href="spot.css" type="text/css"?><svg width="311pt" height="149pt" viewBox="0 0 311 149" xmlns="http://www.w3.org/2000/svg"><g class="graph" transform="translate(4 145)"><path fill="#fff" stroke="transparent" d="M-4 4v-149h311V4H-4z"/><text x="130" y="-127.4" font-family="Lato" font-size="12">[Büchi]</text><g class="node"><circle fill="#ffffa0" stroke="#ff4da0" stroke-width="2" cx="56" cy="-67" r="18"/><text text-anchor="middle" x="56" y="-63.9" font-family="Lato" font-size="12">0</text></g><g class="edge"><path fill="none" stroke="#000" d="M1.15-67h29.48"/><path stroke="#000" d="M37.94-67l-7-3.15 3.5 3.15h-3.5 3.5l-3.5 3.15 7-3.15h0z"/></g><g class="edge"><path fill="none" stroke="#ff4da0" stroke-width="2" d="M49.62-84.04C48.32-93.86 50.45-103 56-103c4.17 0 6.4 5.14 6.71 11.86"/><path fill="#ff4da0" stroke="#ff4da0" stroke-width="2" d="M62.38-84.04l3.47-6.84-2.81 3.37.17-3.5-.5-.02-.5-.02-.17 3.49-2.48-3.62 2.82 7.14h0z"/><text x="52" y="-106.4" font-family="Lato" font-size="12">b</text></g><g class="node"><circle fill="#ffffa0" stroke="#000" cx="281" cy="-67" r="18"/><circle fill="none" stroke="#000" cx="281" cy="-67" r="22"/><text text-anchor="middle" x="281" y="-63.9" font-family="Lato" font-size="12">1</text></g><g class="edge"><path fill="none" stroke="#ff4da0" stroke-width="2" d="M73.79-71.38C90.83-75.58 118.04-81.63 142-84c38.37-3.8 82.58 3.76 110.41 9.98"/><path fill="#ff4da0" stroke="#ff4da0" stroke-width="2" d="M259.46-72.39l-6.11-4.64 2.81 3.37-3.41-.79-.11.49-.11.48 3.41.79-4.01 1.8 7.53-1.5h0z"/><text x="145.5" y="-88.4" font-family="Lato" font-size="12">!a &amp; b</text></g><g class="node"><circle fill="#ffffa0" stroke="#000" cx="164" cy="-22" r="18"/><circle fill="none" stroke="#000" cx="164" cy="-22" r="22"/><text text-anchor="middle" x="164" y="-18.9" font-family="Lato" font-size="12">2</text></g><g class="edge"><path fill="none" stroke="#ff4da0" stroke-width="2" d="M73.1-60.17c16.96 7.21 43.94 18.66 63.92 27.14"/><path fill="#ff4da0" stroke="#ff4da0" stroke-width="2" d="M143.5-30.28l-5.21-5.63 2.19 3.8-3.23-1.36-.19.46-.2.46 3.22 1.37-4.25 1.07 7.67-.17h0z"/><text x="92" y="-54.4" font-family="Lato" font-size="12">a &amp; b</text></g><g class="edge"><path fill="none" stroke="#000" d="M270.57-86.76C268.8-97.35 272.28-107 281-107c6.68 0 10.28 5.66 10.81 13.06"/><path stroke="#000" d="M291.43-86.76l3.51-6.82-3.33 3.33.19-3.5h0l-.19 3.5-2.96-3.66 2.78 7.15h0z"/><text x="277" y="-110.4" font-family="Lato" font-size="12">b</text></g><g class="edge"><path fill="none" stroke="#000" d="M184.77-29.74c18.92-7.4 47.61-18.63 68.55-26.82"/><path stroke="#000" d="M260.1-59.21l-7.66-.39 4.4 1.66-3.25 1.28h0l3.25-1.28-2.11 4.21 5.37-5.48h0z"/><text x="204" y="-54.4" font-family="Lato" font-size="12">!a &amp; b</text></g><g class="edge"><path fill="none" stroke="#000" d="M153.93-41.76C152.22-52.35 155.58-62 164-62c6.45 0 9.93 5.66 10.43 13.06"/><path stroke="#000" d="M174.07-41.76l3.5-6.83-3.32 3.34.18-3.5h0l-.18 3.5-2.97-3.66 2.79 7.15h0z"/><text x="160" y="-65.4" font-family="Lato" font-size="12">a</text></g></g></svg>