<?xml-stylesheet href="spot.css" type="text/css"?><svg width="260" height="160" viewBox="0 0 195 120.41" xmlns="http://www.w3.org/2000/svg"><g class="graph" transform="translate(4 116.41)"><path fill="#fff" stroke="transparent" d="M-4 4v-120.41h195V4H-4z"/><text x="73.5" y="-99.81" font-family="Lato" font-size="12">Fin(</text><text x="95.5" y="-99.81" font-family="Lato" font-size="12" fill="#1f78b4">⓿</text><text x="108.5" y="-99.81" font-family="Lato" font-size="12">)</text><text x="63" y="-87.81" font-family="Lato" font-size="12">[co-Büchi]</text><g class="node"><circle fill="#ffffa0" stroke="#000" cx="56" cy="-31.41" r="18"/><text text-anchor="middle" x="56" y="-28.31" font-family="Lato" font-size="12">0</text></g><g class="edge"><path fill="none" stroke="#000" d="M1.15-31.41h29.48"/><path stroke="#000" d="M37.94-31.41l-7-3.15 3.5 3.15h-3.5 3.5l-3.5 3.15 7-3.15h0z"/></g><g class="edge"><path fill="none" stroke="#000" d="M49.62-48.45c-1.3-9.82.83-18.96 6.38-18.96 4.17 0 6.4 5.14 6.71 11.86"/><path stroke="#000" d="M62.38-48.45l3.47-6.84-3.31 3.35.17-3.5h0l-.17 3.5-2.98-3.65 2.82 7.14h0z"/><text x="49.5" y="-70.81" font-family="Lato" font-size="12">!a</text></g><g class="node"><circle fill="#ffffa0" stroke="#000" cx="169" cy="-31.41" r="18"/><text text-anchor="middle" x="169" y="-28.31" font-family="Lato" font-size="12">1</text></g><g class="edge"><path fill="none" stroke="#000" d="M74.07-33.17c5.7-.51 12.08-.99 17.93-1.24 18.21-.78 22.79-.78 41 0 3.47.15 7.13.38 10.73.65"/><path stroke="#000" d="M150.93-33.17l-6.72-3.71 3.23 3.43-3.49-.29h0l3.49.29-3.75 2.85 7.24-2.57h0z"/><text x="108.5" y="-50.81" font-family="Lato" font-size="12">a</text><text x="106" y="-37.81" font-family="Lato" font-size="12" fill="#1f78b4">⓿</text></g><g class="edge"><path fill="none" stroke="#000" d="M155.93-18.88C149.68-13.3 141.57-7.33 133-4.41c-17.25 5.88-23.75 5.88-41 0-6.16-2.1-12.08-5.77-17.24-9.74"/><path stroke="#000" d="M69.07-18.88l3.37 6.9-.67-4.66 2.69 2.24h0l-2.69-2.24 4.7-.18-7.4-2.06h0z"/><text x="92" y="-20.81" font-family="Lato" font-size="12">!a &amp; !b</text><text x="106" y="-7.81" font-family="Lato" font-size="12" fill="#1f78b4">⓿</text></g><g class="edge"><path fill="none" stroke="#000" d="M159.43-46.95c-2.7-10.37.49-20.46 9.57-20.46 6.95 0 10.45 5.92 10.5 13.34"/><path stroke="#000" d="M178.57-46.95l4.03-6.54-3.57 3.07.45-3.47h0l-.45 3.47-2.68-3.88 2.22 7.35h0z"/><text x="155.5" y="-70.81" font-family="Lato" font-size="12">a | b</text></g></g></svg>