<?xml-stylesheet href="spot.css" type="text/css"?><svg width="667pt" height="800" viewBox="0 0 666.5 599.93" xmlns="http://www.w3.org/2000/svg"><g class="graph"><path fill="#fff" stroke="transparent" d="M0 599.93V0h666.5v599.93H0z"/><text x="326.75" y="-578.33" font-family="Lato" font-size="12" transform="translate(4 595.93)">t</text><text x="317.75" y="-565.33" font-family="Lato" font-size="12" transform="translate(4 595.93)">[all]</text><g class="node" transform="translate(4 595.93)"><path fill="#ffffa0" stroke="#000" d="M135-296.97H46c-6 0-12 6-12 12v12c0 6 6 12 12 12h89c6 0 12-6 12-12v-12c0-6-6-12-12-12"/><text x="76" y="-282.37" font-family="Lato" font-size="12">x0y0</text><text x="42" y="-269.37" font-family="Lato" font-size="12">!odd_x &amp; !odd_y</text></g><g class="edge" transform="translate(4 595.93)"><path fill="none" stroke="#000" d="M1.07-278.97h25.37"/><path stroke="#000" d="M33.71-278.97l-7-3.15 3.5 3.15h-3.5 3.5l-3.5 3.15 7-3.15h0z"/></g><g class="node" transform="translate(4 595.93)"><path fill="#ffffa0" stroke="#000" d="M646.5-387.6h-84c-6 0-12 6-12 12v12c0 6 6 12 12 12h84c6 0 12-6 12-12v-12c0-6-6-12-12-12"/><text x="590" y="-373" font-family="Lato" font-size="12">x0y1</text><text x="558.5" y="-360" font-family="Lato" font-size="12">!odd_x &amp; odd_y</text></g><g class="edge" transform="translate(4 595.93)"><path fill="none" stroke="#000" d="M147.47-289.01c97.51-17.2 295.55-52.12 395.86-69.8"/><path stroke="#000" d="M550.39-360.06l-7.45-1.88 4 2.49-3.45.61h0l3.45-.61-2.9 3.71 6.35-4.32h0z"/></g><g class="node" transform="translate(4 595.93)"><path fill="#ffffa0" stroke="#000" d="M351.48-557.93h-84c-6 0-12 6-12 12v12c0 6 6 12 12 12h84c6 0 12-6 12-12v-12c0-6-6-12-12-12"/><text x="294.98" y="-543.33" font-family="Lato" font-size="12">x1y0</text><text x="263.48" y="-530.33" font-family="Lato" font-size="12">odd_x &amp; !odd_y</text></g><g class="edge" transform="translate(4 595.93)"><path fill="none" stroke="#000" d="M105.9-297.32c38.71-46.14 140.1-166.97 183.45-218.63"/><path stroke="#000" d="M294.1-521.6l-6.92 3.33 4.67-.65-2.25 2.68h0l2.25-2.68.16 4.7 2.09-7.38h0z"/></g><g class="node" transform="translate(4 595.93)"><path fill="#ffffa0" stroke="#000" d="M197-126.63h-89c-6 0-12 6-12 12v12c0 6 6 12 12 12h89c6 0 12-6 12-12v-12c0-6-6-12-12-12"/><text x="138" y="-112.03" font-family="Lato" font-size="12">x0y2</text><text x="104" y="-99.03" font-family="Lato" font-size="12">!odd_x &amp; !odd_y</text></g><g class="edge" transform="translate(4 595.93)"><path fill="none" stroke="#000" d="M573.08-351.46c-80.86 46.69-295.87 170.82-383.06 221.17"/><path stroke="#000" d="M183.71-126.66l7.64-.77-4.6-.98 3.03-1.75h0l-3.03 1.75 1.45-4.47-4.49 6.22h0z"/></g><g class="node" transform="translate(4 595.93)"><path fill="#ffffa0" stroke="#000" d="M527.99-526.46h-80c-6 0-12 6-12 12v12c0 6 6 12 12 12h80c6 0 12-6 12-12v-12c0-6-6-12-12-12"/><text x="473.49" y="-511.86" font-family="Lato" font-size="12">x1y1</text><text x="443.99" y="-498.86" font-family="Lato" font-size="12">odd_x &amp; odd_y</text></g><g class="edge" transform="translate(4 595.93)"><path fill="none" stroke="#000" d="M589.27-387.75c-20.84-24.85-58.3-69.49-81.35-96.96"/><path stroke="#000" d="M503.23-490.3l2.08 7.39.17-4.71 2.25 2.68h0l-2.25-2.68 4.66.66-6.91-3.34h0z"/></g><g class="edge" transform="translate(4 595.93)"><path fill="none" stroke="#000" d="M363.52-530.4l65.4 11.53"/><path stroke="#000" d="M435.97-517.63l-6.35-4.32 2.9 3.71-3.45-.61h0l3.45.61-3.99 2.5 7.44-1.89h0z"/></g><g class="node" transform="translate(4 595.93)"><path fill="#ffffa0" stroke="#000" d="M197-467.3h-89c-6 0-12 6-12 12v12c0 6 6 12 12 12h89c6 0 12-6 12-12v-12c0-6-6-12-12-12"/><text x="138" y="-452.7" font-family="Lato" font-size="12">x2y0</text><text x="104" y="-439.7" font-family="Lato" font-size="12">!odd_x &amp; !odd_y</text></g><g class="edge" transform="translate(4 595.93)"><path fill="none" stroke="#000" d="M278.09-521.81c-25.35 14.63-61.1 35.27-87.97 50.79"/><path stroke="#000" d="M183.83-467.39l7.64-.78-4.61-.97 3.03-1.75h0l-3.03 1.75 1.46-4.48-4.49 6.23h0z"/></g><g class="edge" transform="translate(4 595.93)"><path fill="none" stroke="#000" d="M145.86-126.86c-11.14-30.61-33.62-92.38-46.24-127.04"/><path stroke="#000" d="M97.09-260.87l-.57 7.66 1.76-4.37 1.2 3.29h0l-1.2-3.29 4.16 2.21-5.35-5.5h0z"/></g><g class="node" transform="translate(4 595.93)"><path fill="#ffffa0" stroke="#000" d="M351.48-36h-84c-6 0-12 6-12 12v12c0 6 6 12 12 12h84c6 0 12-6 12-12v-12c0-6-6-12-12-12"/><text x="294.98" y="-21.4" font-family="Lato" font-size="12">x1y2</text><text x="263.48" y="-8.4" font-family="Lato" font-size="12">odd_x &amp; !odd_y</text></g><g class="edge" transform="translate(4 595.93)"><path fill="none" stroke="#000" d="M183.89-90.51l87.97 50.79"/><path stroke="#000" d="M278.14-36.09l-4.49-6.23 1.46 4.48-3.03-1.75h0l3.03 1.75-4.61.98 7.64.77h0z"/></g><g class="edge" transform="translate(4 595.93)"><path fill="none" stroke="#000" d="M481.42-490.42c-27.22 74.8-131.3 360.75-162.83 447.39"/><path stroke="#000" d="M316.1-36.2l5.36-5.5-4.16 2.21 1.2-3.29h0l-1.2 3.29-1.76-4.37.56 7.66h0z"/></g><g class="node" transform="translate(4 595.93)"><path fill="#ffffa0" stroke="#000" d="M646.5-206.33h-84c-6 0-12 6-12 12v12c0 6 6 12 12 12h84c6 0 12-6 12-12v-12c0-6-6-12-12-12"/><text x="590" y="-191.73" font-family="Lato" font-size="12">x2y1</text><text x="558.5" y="-178.73" font-family="Lato" font-size="12">!odd_x &amp; odd_y</text></g><g class="edge" transform="translate(4 595.93)"><path fill="none" stroke="#000" d="M494.59-490.33c19.7 54.13 78.13 214.66 100.79 276.92"/><path stroke="#000" d="M597.83-206.66l.57-7.66-1.76 4.37-1.2-3.29h0l1.2 3.29-4.16-2.21 5.35 5.5h0z"/></g><g class="edge" transform="translate(4 595.93)"><path fill="none" stroke="#000" d="M145.86-431.07c-11.14 30.6-33.62 92.37-46.24 127.04"/><path stroke="#000" d="M97.09-297.06l5.35-5.51-4.16 2.22 1.2-3.29h0l-1.2 3.29-1.76-4.37.57 7.66h0z"/></g><g class="edge" transform="translate(4 595.93)"><path fill="none" stroke="#000" d="M183.92-431.16C264.78-384.47 479.79-260.34 566.99-210"/><path stroke="#000" d="M573.29-206.36l-4.49-6.23 1.46 4.48-3.03-1.75h0l3.03 1.75-4.61.98 7.64.77h0z"/></g><g class="edge" transform="translate(4 595.93)"><path fill="none" stroke="#000" d="M309.48-36.27v-478.41"/><path stroke="#000" d="M309.48-521.81l-3.15 7 3.15-3.5v3.5h0v-3.5l3.15 3.5-3.15-7h0z"/></g><g class="node" transform="translate(4 595.93)"><path fill="#ffffa0" stroke="#000" d="M532.49-67.48h-89c-6 0-12 6-12 12v12c0 6 6 12 12 12h89c6 0 12-6 12-12v-12c0-6-6-12-12-12"/><text x="473.49" y="-52.88" font-family="Lato" font-size="12">x2y2</text><text x="439.49" y="-39.88" font-family="Lato" font-size="12">!odd_x &amp; !odd_y</text></g><g class="edge" transform="translate(4 595.93)"><path fill="none" stroke="#000" d="M363.52-27.53c19.19-3.38 40.96-7.22 60.87-10.73"/><path stroke="#000" d="M431.34-39.49l-7.44-1.88 4 2.49-3.45.61h0l3.45-.61-2.9 3.71 6.34-4.32h0z"/></g><g class="edge" transform="translate(4 595.93)"><path fill="none" stroke="#000" d="M604.5-206.38v-137.53"/><path stroke="#000" d="M604.5-351.36l-3.14 7 3.14-3.5.01 3.5h0l-.01-3.5 3.16 3.5-3.16-7h0z"/></g><g class="edge" transform="translate(4 595.93)"><path fill="none" stroke="#000" d="M589.27-170.18c-20.84 24.84-58.3 69.48-81.35 96.96"/><path stroke="#000" d="M503.23-67.63l6.91-3.34-4.66.65 2.25-2.68h0l-2.25 2.68-.17-4.7-2.08 7.39h0z"/></g><g class="edge" transform="translate(4 595.93)"><path fill="none" stroke="#000" d="M431.46-59.44c-59.52-10.5-153.04-26.99-215.16-37.94"/><path stroke="#000" d="M209.26-98.62l6.35 4.31-2.9-3.71 3.44.61h0l-3.44-.61 3.99-2.49-7.44 1.89h0z"/></g><g class="edge" transform="translate(4 595.93)"><path fill="none" stroke="#000" d="M472.7-67.7c-54.47-64.91-239.08-284.93-300.3-357.88"/><path stroke="#000" d="M167.87-430.98l2.09 7.39.16-4.7 2.25 2.68h0l-2.25-2.68 4.67.65-6.92-3.34h0z"/></g></g></svg>