<?xml-stylesheet href="spot.css" type="text/css"?><svg width="595pt" height="232pt" viewBox="0 0 595 232" xmlns="http://www.w3.org/2000/svg"><g class="graph"><path fill="#fff" stroke="transparent" d="M0 232V0h595v232H0z"/><text x="263" y="-210.4" font-family="Lato" font-size="12" transform="translate(4 228)">[co-Büchi]</text><g class="node" transform="translate(4 228)"><circle fill="#ffffa0" stroke="#000" cx="60" cy="-103" r="18"/><circle fill="none" stroke="#000" cx="60" cy="-103" r="22"/><text text-anchor="middle" x="60" y="-99.9" font-family="Lato" font-size="12">0</text></g><g class="edge" transform="translate(4 228)"><path fill="none" stroke="#000" d="M1.17-103h29.54"/><path stroke="#000" d="M37.86-103l-7-3.15 3.5 3.15h-3.5 3.5l-3.5 3.15 7-3.15h0z"/></g><g class="node" transform="translate(4 228)"><circle fill="#ffffa0" stroke="#000" cx="177" cy="-18" r="18"/><text text-anchor="middle" x="177" y="-14.9" font-family="Lato" font-size="12">1</text></g><g class="edge" transform="translate(4 228)"><path fill="none" stroke="#000" d="M78.47-90.09c20.9 15.45 55.82 41.26 77.72 57.45"/><path stroke="#000" d="M162-28.35l-3.76-6.69.94 4.61-2.81-2.08h0l2.81 2.08-4.69.45 7.51 1.63h0z"/><text text-anchor="middle" x="120.5" y="-76.4" font-family="Lato" font-size="12">1</text></g><g class="node" transform="translate(4 228)"><circle fill="#ffffa0" stroke="#000" cx="351" cy="-67" r="18"/><text text-anchor="middle" x="351" y="-63.9" font-family="Lato" font-size="12">2</text></g><g class="edge" transform="translate(4 228)"><path fill="none" stroke="#000" d="M82.19-104.06C126.35-105.71 231.1-106.62 315-84c4.54 1.22 9.19 3.04 13.57 5.03"/><path stroke="#000" d="M335.15-75.75l-4.9-5.9 1.76 4.36-3.15-1.53h0l3.15 1.53-4.53 1.3 7.67.24h0z"/><text text-anchor="middle" x="177" y="-107.4" font-family="Lato" font-size="12">1</text></g><g class="node" transform="translate(4 228)"><circle fill="#ffffa0" stroke="#000" cx="460" cy="-101" r="18"/><text text-anchor="middle" x="460" y="-97.9" font-family="Lato" font-size="12">3</text></g><g class="edge" transform="translate(4 228)"><path fill="none" stroke="#000" d="M80.47-111.88c6.13-2.41 13-4.74 19.53-6.12 25.68-5.45 32.76-2.03 59-3 93.29-3.44 117.44-16.13 210-4 23.21 3.04 48.96 10.32 66.94 16.07"/><path stroke="#000" d="M442.67-106.74l-5.68-5.16 2.35 4.08-3.32-1.09h0l3.32 1.09-4.3 1.91 7.63-.83h0z"/><text text-anchor="middle" x="264" y="-133.4" font-family="Lato" font-size="12">1</text></g><g class="node" transform="translate(4 228)"><circle fill="#ffffa0" stroke="#000" cx="569" cy="-101" r="18"/><text text-anchor="middle" x="569" y="-97.9" font-family="Lato" font-size="12">4</text></g><g class="edge" transform="translate(4 228)"><path fill="none" stroke="#000" d="M73.16-121.03C91.96-146.51 130.69-190 176-190h285c42.05 0 76.38 41.14 94.05 67.48"/><path stroke="#000" d="M558.98-116.5l-1.19-7.59-.72 4.66-1.91-2.94h0l1.91 2.94-4.55-1.22 6.46 4.15h0z"/><text text-anchor="middle" x="351" y="-193.4" font-family="Lato" font-size="12">1</text></g><g class="edge" transform="translate(4 228)"><path fill="none" stroke="#000" d="M159-15.99c-16.55 1.05-41.67.13-59-12.01-15.78-11.05-25.63-30.48-31.48-46.8"/><path stroke="#000" d="M66.25-81.57l-.76 7.64 1.87-4.32 1.11 3.32h0l-1.11-3.32 4.1 2.32-5.21-5.64h0z"/><text x="100" y="-31.4" font-family="Lato" font-size="12">!a &amp; !b</text></g><g class="edge" transform="translate(4 228)"><path fill="none" stroke="#000" d="M167.43-33.54C164.73-43.91 167.92-54 177-54c6.95 0 10.45 5.92 10.5 13.34"/><path stroke="#000" d="M186.57-33.54l4.03-6.54-3.57 3.07.45-3.47h0l-.45 3.47-2.68-3.88 2.22 7.35h0z"/><text x="161" y="-57.4" font-family="Lato" font-size="12">a &amp; b</text></g><g class="edge" transform="translate(4 228)"><path fill="none" stroke="#000" d="M189.32-31.21c6.3-6.45 14.67-13.68 23.68-17.79 36.67-16.72 84.21-19.25 112.56-19.01"/><path stroke="#000" d="M332.68-67.89l-6.95-3.27 3.45 3.21-3.5-.06h0l3.5.06-3.56 3.09 7.06-3.03h0z"/><text x="213" y="-70.4" font-family="Lato" font-size="12">(!a &amp; b) | (a &amp; !b)</text></g><g class="edge" transform="translate(4 228)"><path fill="none" stroke="#000" d="M339.66-52.69C333.41-45.2 324.78-36.65 315-32c-36.47 17.33-84.46 17.89-112.88 16.26"/><path stroke="#000" d="M194.99-16.22l6.77 3.61-3.28-3.37 3.49.23h0l-3.49-.23 3.7-2.91-7.19 2.67h0z"/><text x="245.5" y="-35.4" font-family="Lato" font-size="12">!a &amp; b</text></g><g class="edge" transform="translate(4 228)"><path fill="none" stroke="#000" d="M341.77-82.54c-2.6-10.37.48-20.46 9.23-20.46 6.7 0 10.08 5.92 10.12 13.34"/><path stroke="#000" d="M360.23-82.54l4-6.56-3.56 3.09.43-3.48h0l-.43 3.48-2.69-3.87 2.25 7.34h0z"/><text x="300" y="-106.4" font-family="Lato" font-size="12">(!a &amp; !b) | (a &amp; b)</text></g><g class="edge" transform="translate(4 228)"><path fill="none" stroke="#000" d="M368.25-72.16c17.99-5.72 47.14-14.98 67.53-21.46"/><path stroke="#000" d="M442.6-95.79l-7.63-.88 4.29 1.94-3.34 1.06h0l3.34-1.06-2.38 4.06 5.72-5.12h0z"/><text x="387" y="-92.4" font-family="Lato" font-size="12">a &amp; !b</text></g><g class="edge" transform="translate(4 228)"><path fill="none" stroke="#000" d="M450.77-116.54c-2.6-10.37.48-20.46 9.23-20.46 6.7 0 10.08 5.92 10.12 13.34"/><path stroke="#000" d="M469.23-116.54l4-6.56-3.56 3.09.43-3.48h0l-.43 3.48-2.69-3.87 2.25 7.34h0z"/><text x="444.5" y="-140.4" font-family="Lato" font-size="12">!a | b</text></g><g class="edge" transform="translate(4 228)"><path fill="none" stroke="#000" d="M478.19-101h65.43"/><path stroke="#000" d="M550.85-101l-7-3.15 3.5 3.15h-3.5 3.5l-3.5 3.15 7-3.15h0z"/><text x="496" y="-104.4" font-family="Lato" font-size="12">a &amp; !b</text></g><g class="edge" transform="translate(4 228)"><path fill="none" stroke="#000" d="M552.47-93.79C513.56-76.17 408.29-31.25 315-16c-39.05 6.39-85.2 3.63-112.74.91"/><path stroke="#000" d="M195.01-15.84l6.64 3.86-3.15-3.5 3.48.36h0l-3.48-.36 3.8-2.77-7.29 2.41h0z"/><text x="387" y="-46.4" font-family="Lato" font-size="12">a &amp; !b</text></g><g class="edge" transform="translate(4 228)"><path fill="none" stroke="#000" d="M559.77-116.54c-2.6-10.37.48-20.46 9.23-20.46 6.7 0 10.08 5.92 10.12 13.34"/><path stroke="#000" d="M578.23-116.54l4-6.56-3.56 3.09.43-3.48h0l-.43 3.48-2.69-3.87 2.25 7.34h0z"/><text x="553.5" y="-140.4" font-family="Lato" font-size="12">!a | b</text></g></g></svg>