<?xml-stylesheet href="spot.css" type="text/css"?><svg width="274pt" height="204" viewBox="0 0 274 153" xmlns="http://www.w3.org/2000/svg"><g class="graph" transform="translate(4 149)"><path fill="#fff" stroke="transparent" d="M-4 4v-153h274V4H-4z"/><text x="113" y="-132.4" font-family="Lato" font-size="12">Fin(</text><text x="135" y="-132.4" font-family="Lato" font-size="12" fill="#1f78b4">⓿</text><text x="148" y="-132.4" font-family="Lato" font-size="12">)</text><text x="102.5" y="-120.4" font-family="Lato" font-size="12">[co-Büchi]</text><g class="node"><circle fill="#ffffa0" stroke="#000" cx="56" cy="-18" r="18"/><text text-anchor="middle" x="56" y="-14.9" font-family="Lato" font-size="12">1</text></g><g class="edge"><path fill="none" stroke="#000" d="M1.15-18h29.48"/><path stroke="#000" d="M37.94-18l-7-3.15 3.5 3.15h-3.5 3.5l-3.5 3.15 7-3.15h0z"/></g><g class="edge"><path fill="none" stroke="#000" d="M52.76-35.78C52.21-45.31 53.29-54 56-54c1.99 0 3.1 4.68 3.33 10.95"/><path stroke="#000" d="M59.24-35.78l3.24-6.96-3.2 3.46.05-3.5h0l-.05 3.5-3.1-3.54 3.06 7.04h0z"/><text x="26" y="-57.4" font-family="Lato" font-size="12">a &amp; !b &amp; c</text></g><g class="edge"><path fill="none" stroke="#000" d="M50.68-35.42C47.65-52.79 49.43-72 56-72c5.7 0 7.79 14.45 6.27 29.61"/><path stroke="#000" d="M61.32-35.42l4.07-6.51-3.6 3.04.47-3.47h0l-.47 3.47-2.65-3.89 2.18 7.36h0z"/><text x="24" y="-88.4" font-family="Lato" font-size="12">!a &amp; !b &amp; c</text><text x="49.5" y="-75.4" font-family="Lato" font-size="12" fill="#1f78b4">⓿</text></g><g class="node"><circle fill="#ffffa0" stroke="#000" cx="168" cy="-51" r="18"/><text text-anchor="middle" x="168" y="-47.9" font-family="Lato" font-size="12">0</text></g><g class="edge"><path fill="none" stroke="#000" d="M73.71-23.01c18.68-5.61 49.07-14.72 70.06-21.02"/><path stroke="#000" d="M150.5-46.05l-7.61-1 4.25 2.01-3.35 1h0l3.35-1-2.44 4.02 5.8-5.03h0z"/><text x="92" y="-43.4" font-family="Lato" font-size="12">!b &amp; !c</text></g><g class="node"><circle fill="#ffffa0" stroke="#000" cx="248" cy="-18" r="18"/><text text-anchor="middle" x="248" y="-14.9" font-family="Lato" font-size="12">2</text></g><g class="edge"><path fill="none" stroke="#000" d="M74.11-15.86C98.82-13.04 145.92-8.71 186-11c12.22-.7 25.75-2.18 36.96-3.6"/><path stroke="#000" d="M229.95-15.52l-7.35-2.21 3.88 2.67-3.47.45h0l3.47-.45-3.06 3.58 6.53-4.04h0z"/><text x="164" y="-14.4" font-family="Lato" font-size="12">b</text></g><g class="edge"><path fill="none" stroke="#000" d="M160.97-67.66C159.41-77.62 161.75-87 168-87c4.69 0 7.18 5.27 7.47 12.11"/><path stroke="#000" d="M175.03-67.66l3.57-6.8-3.36 3.3.22-3.49h0l-.22 3.49-2.93-3.68 2.72 7.18h0z"/><text x="161.5" y="-103.4" font-family="Lato" font-size="12">!b</text><text x="161.5" y="-90.4" font-family="Lato" font-size="12" fill="#1f78b4">⓿</text></g><g class="edge"><path fill="none" stroke="#000" d="M184.78-44.32c11.42 4.83 27.02 11.43 39.73 16.81"/><path stroke="#000" d="M231.24-24.67l-5.22-5.63 2 4.27-3.23-1.37h0l3.23 1.37-4.46 1.54 7.68-.18h0z"/><text x="204" y="-38.4" font-family="Lato" font-size="12">b</text></g><g class="edge"><path fill="none" stroke="#000" d="M244.4-35.78c-.61-9.53.59-18.22 3.6-18.22 2.21 0 3.44 4.68 3.7 10.95"/><path stroke="#000" d="M251.6-35.78l3.25-6.96-3.2 3.46.05-3.5h0l-.05 3.5-3.1-3.55 3.05 7.05h0z"/><text x="244" y="-57.4" font-family="Lato" font-size="12">a</text></g><g class="edge"><path fill="none" stroke="#000" d="M242.15-35.14C238.71-52.58 240.66-72 248-72c6.37 0 8.68 14.6 6.94 29.85"/><path stroke="#000" d="M253.85-35.14l4.19-6.44-3.65 2.98.53-3.46h0l-.53 3.46-2.58-3.94 2.04 7.4h0z"/><text x="241.5" y="-88.4" font-family="Lato" font-size="12">!a</text><text x="241.5" y="-75.4" font-family="Lato" font-size="12" fill="#1f78b4">⓿</text></g></g></svg>