<?xml-stylesheet href="spot.css" type="text/css"?><svg width="419pt" height="310pt" viewBox="0 0 418.5 309.89" xmlns="http://www.w3.org/2000/svg"><g class="graph" transform="translate(4 305.89)"><path fill="#fff" stroke="transparent" d="M-4 4v-309.89h418.5V4H-4z"/><text x="130.25" y="-289.29" font-family="Lato" font-size="12">Inf(</text><text x="151.25" y="-289.29" font-family="Lato" font-size="12" fill="#ff7f00">❷</text><text x="162.25" y="-289.29" font-family="Lato" font-size="12">) | (Fin(</text><text x="204.25" y="-289.29" font-family="Lato" font-size="12" fill="#ff4da0">❶</text><text x="215.25" y="-289.29" font-family="Lato" font-size="12">) &amp; Inf(</text><text x="257.25" y="-289.29" font-family="Lato" font-size="12" fill="#1f78b4">⓿</text><text x="270.25" y="-289.29" font-family="Lato" font-size="12">))</text><text x="146.25" y="-277.29" font-family="Lato" font-size="12">[parity max even 3]</text><g class="node"><path fill="#ffffa0" stroke="#000" d="M62-146.89H50c-6 0-12 6-12 12v12c0 6 6 12 12 12h12c6 0 12-6 12-12v-12c0-6-6-12-12-12"/><text x="52" y="-132.29" font-family="Lato" font-size="12">0</text><text x="50.5" y="-119.29" font-family="Lato" font-size="12" fill="#ff7f00">❷</text></g><g class="edge"><path fill="none" stroke="#000" d="M1.15-128.89h29.48"/><path stroke="#000" d="M37.94-128.89l-7-3.15 3.5 3.15h-3.5 3.5l-3.5 3.15 7-3.15h0z"/></g><g class="edge"><path fill="none" stroke="#000" d="M49.49-147.05c-1-9.38 1.17-17.84 6.51-17.84 3.92 0 6.14 4.56 6.64 10.7"/><path stroke="#000" d="M62.51-147.05l3.28-6.94-3.22 3.44.07-3.5h0l-.07 3.5-3.08-3.55 3.02 7.05h0z"/><text x="40" y="-168.29" font-family="Lato" font-size="12">a &amp; b</text></g><g class="node"><path fill="#ffffa0" stroke="#000" d="M171-188.89h-12c-6 0-12 6-12 12v12c0 6 6 12 12 12h12c6 0 12-6 12-12v-12c0-6-6-12-12-12"/><text x="161" y="-174.29" font-family="Lato" font-size="12">1</text><text x="159.5" y="-161.29" font-family="Lato" font-size="12" fill="#ff7f00">❷</text></g><g class="edge"><path fill="none" stroke="#000" d="M74.15-131.41c14.96-2.61 36.99-7.44 54.85-15.48 4.06-1.83 8.15-4.13 12.03-6.58"/><path stroke="#000" d="M146.92-157.39l-7.57 1.25 4.66.69-2.92 1.94h0l2.92-1.94-1.17 4.56 4.08-6.5h0z"/><text x="92" y="-150.29" font-family="Lato" font-size="12">a &amp; !b</text></g><g class="node"><path fill="#ffffa0" stroke="#000" d="M398-225.89h-12c-6 0-12 6-12 12v12c0 6 6 12 12 12h12c6 0 12-6 12-12v-12c0-6-6-12-12-12"/><text x="388" y="-211.29" font-family="Lato" font-size="12">2</text><text x="386.5" y="-198.29" font-family="Lato" font-size="12" fill="#ff4da0">❶</text></g><g class="edge"><path fill="none" stroke="#000" d="M74.25-125.76c40.38 6.6 143.65 19.08 222.75-9.13 28.4-10.13 54.96-32.43 72.55-49.73"/><path stroke="#000" d="M374.72-189.82l-7.17 2.75 4.7-.26-2.47 2.48h0l2.47-2.48-.24 4.7 2.71-7.19h0z"/><text x="215" y="-124.29" font-family="Lato" font-size="12">!a</text></g><g class="edge"><path fill="none" stroke="#000" d="M146.92-170.97c-15.11.54-37.4 2.87-54.92 11.08-4.44 2.08-8.74 4.91-12.71 8.01"/><path stroke="#000" d="M73.72-147.18l7.38-2.11-4.7-.15 2.67-2.26h0l-2.67 2.26.64-4.66-3.32 6.92h0z"/><text x="94.5" y="-172.29" font-family="Lato" font-size="12">a &amp; b</text></g><g class="edge"><path fill="none" stroke="#000" d="M173.33-189.05c5.71-11.56 14.83-25.66 27.67-32.84 60.12-33.64 87.71-14.75 155 0 3.76.82 7.63 2 11.37 3.33"/><path stroke="#000" d="M373.91-216.04l-5.4-5.45 2.13 4.19-3.26-1.25h0l3.26 1.25-4.39 1.69 7.66-.43h0z"/><text x="260" y="-243.29" font-family="Lato" font-size="12">!a &amp; b</text></g><g class="node"><path fill="#ffffa0" stroke="#000" d="M398-48.89h-12c-6 0-12 6-12 12v12c0 6 6 12 12 12h12c6 0 12-6 12-12v-12c0-6-6-12-12-12"/><text x="388" y="-34.29" font-family="Lato" font-size="12">3</text><text x="386.5" y="-21.29" font-family="Lato" font-size="12" fill="#ff4da0">❶</text></g><g class="edge"><path fill="none" stroke="#000" d="M183.16-169.1c36.21 4.62 121.32 20.01 172.84 66.21 13.91 12.47 22.86 31.69 28.23 47.14"/><path stroke="#000" d="M386.44-48.96l.83-7.63-1.91 4.31-1.09-3.33h0l1.09 3.33-4.08-2.35 5.16 5.67h0z"/><text x="260" y="-155.29" font-family="Lato" font-size="12">a &amp; !b</text></g><g class="node"><path fill="#ffffa0" stroke="#000" d="M284.5-53.89h-12c-6 0-12 6-12 12v12c0 6 6 12 12 12h12c6 0 12-6 12-12v-12c0-6-6-12-12-12"/><text x="274.5" y="-39.29" font-family="Lato" font-size="12">4</text><text x="273" y="-26.29" font-family="Lato" font-size="12" fill="#ff4da0">❶</text></g><g class="edge"><path fill="none" stroke="#000" d="M168.91-152.88c4.07 20.27 13.22 53.22 32.09 74.99 7.58 8.74 33.35 22 52.9 31.27"/><path stroke="#000" d="M260.26-43.64l-5-5.82 1.83 4.34-3.17-1.49h0l3.17 1.49-4.51 1.37 7.68.11h0z"/><text x="201" y="-81.29" font-family="Lato" font-size="12">!a &amp; !b</text></g><g class="edge"><path fill="none" stroke="#000" d="M374.45-225.91c-5.46-5.11-11.84-10.28-18.45-13.98-60.12-33.68-90.34-27.82-155-4-51.49 18.96-69.02 20.41-109 58-9.76 9.17-17.83 21.65-23.75 32.6"/><path stroke="#000" d="M65.01-147.07l6.02-4.76-4.41 1.66 1.62-3.11h0l-1.62 3.11-1.18-4.56-.43 7.66h0z"/><text x="205.5" y="-260.29" font-family="Lato" font-size="12">a &amp; b</text></g><g class="edge"><path fill="none" stroke="#000" d="M373.97-205.09c-39.53 6.5-137.6 22.62-183.52 30.17"/><path stroke="#000" d="M183.28-173.74l7.42 1.98-3.96-2.54 3.45-.57h0l-3.45.57 2.94-3.68-6.4 4.24h0z"/><text x="260" y="-194.29" font-family="Lato" font-size="12">a &amp; !b</text></g><g class="edge"><path fill="none" stroke="#000" d="M381.87-226.05c-1.56-9.38 1.82-17.84 10.13-17.84 6.1 0 9.55 4.56 10.33 10.7"/><path stroke="#000" d="M402.13-226.05l3.34-6.91-3.24 3.41.09-3.49h0l-.09 3.49-3.05-3.58 2.95 7.08h0z"/><text x="385.5" y="-247.29" font-family="Lato" font-size="12">!a</text></g><g class="edge"><path fill="none" stroke="#000" d="M373.93-16.18c-5.39 3.77-11.6 7.32-17.93 9.29-40.76 12.63-53.86 4.73-96-2-78.9-12.61-107.39-11.94-168-64-9.94-8.54-17.98-20.62-23.84-31.37"/><path stroke="#000" d="M64.8-110.74l.43 7.66 1.18-4.55 1.62 3.1h0l-1.62-3.1 4.41 1.65-6.02-4.76h0z"/><text x="217.5" y="-22.29" font-family="Lato" font-size="12">b</text></g><g class="edge"><path fill="none" stroke="#000" d="M381.87-49.05c-1.56-9.38 1.82-17.84 10.13-17.84 6.1 0 9.55 4.56 10.33 10.7"/><path stroke="#000" d="M402.13-49.05l3.34-6.91-3.24 3.41.09-3.49h0l-.09 3.49-3.05-3.58 2.95 7.08h0z"/><text x="373.5" y="-70.29" font-family="Lato" font-size="12">a &amp; !b</text></g><g class="edge"><path fill="none" stroke="#000" d="M373.77-20.62c-5.49 2.74-11.71 5.33-17.77 6.73-17.76 4.08-23.47 4.99-41 0-4.11-1.18-8.21-2.97-12.08-5.05"/><path stroke="#000" d="M296.64-22.63l4.44 6.27-1.42-4.49 3.02 1.77h0l-3.02-1.77 4.61-.94-7.63-.84h0z"/><text x="315" y="-17.29" font-family="Lato" font-size="12">!a &amp; !b</text></g><g class="edge"><path fill="none" stroke="#000" d="M260.23-38.49c-15.67-2.59-39.31-7.1-59.23-13.4-50.3-15.93-64.24-19.08-109-47-4.11-2.57-8.22-5.59-12.12-8.72"/><path stroke="#000" d="M74.36-112.22l3.35 6.9-.67-4.66 2.69 2.25h0l-2.69-2.25 4.71-.17-7.39-2.07h0z"/><text x="149" y="-72.29" font-family="Lato" font-size="12">a &amp; b</text></g><g class="edge"><path fill="none" stroke="#000" d="M296.7-42.8c17.46-7.88 44.04-22.41 59.3-43.09 21.28-28.85 29.65-70.31 32.92-96.7"/><path stroke="#000" d="M389.72-189.61l-3.92 6.6 3.52-3.12-.39 3.48h0l.39-3.48 2.74 3.83-2.34-7.31h0z"/><text x="317" y="-89.29" font-family="Lato" font-size="12">!a &amp; b</text></g><g class="edge"><path fill="none" stroke="#000" d="M296.92-35.11c18.74.84 48.67 2.18 69.73 3.12"/><path stroke="#000" d="M373.7-31.67l-6.85-3.46 3.35 3.3-3.49-.15h0l3.49.15-3.63 2.99 7.13-2.83h0z"/><text x="317" y="-38.29" font-family="Lato" font-size="12">a &amp; !b</text></g><g class="edge"><path fill="none" stroke="#000" d="M268.37-54.05c-1.56-9.38 1.82-17.84 10.13-17.84 6.1 0 9.55 4.56 10.33 10.7"/><path stroke="#000" d="M288.63-54.05l3.34-6.91-3.24 3.41.09-3.49h0l-.09 3.49-3.05-3.58 2.95 7.08h0z"/><text x="258" y="-75.29" font-family="Lato" font-size="12">!a &amp; !b</text></g></g></svg>