<?xml-stylesheet href="spot.css" type="text/css"?><svg width="290pt" height="133pt" viewBox="0 0 290 133" xmlns="http://www.w3.org/2000/svg"><g class="graph" transform="translate(4 129)"><path fill="#fff" stroke="transparent" d="M-4 4v-133h290V4H-4z"/><text x="119.5" y="-111.4" font-family="Lato" font-size="12">[Büchi]</text><g class="node"><circle fill="#ffffa0" stroke="#000" cx="60" cy="-22" r="18"/><circle fill="none" stroke="#000" cx="60" cy="-22" r="22"/><text text-anchor="middle" x="60" y="-18.9" font-family="Lato" font-size="12">2</text></g><g class="edge"><path fill="none" stroke="#000" d="M1.17-22h29.54"/><path stroke="#000" d="M37.86-22l-7-3.15 3.5 3.15h-3.5 3.5l-3.5 3.15 7-3.15h0z"/></g><g class="edge"><path fill="none" stroke="#000" d="M52.68-42.99C51.78-53.09 54.22-62 60-62c4.34 0 6.79 5.01 7.37 11.78"/><path stroke="#000" d="M67.32-42.99l3.2-6.98-3.18 3.48.03-3.5h0l-.03 3.5-3.12-3.52 3.1 7.02h0z"/><text x="42" y="-65.4" font-family="Lato" font-size="12">!b &amp; c</text></g><g class="node"><circle fill="#ffffa0" stroke="#000" cx="176" cy="-55" r="18"/><text text-anchor="middle" x="176" y="-51.9" font-family="Lato" font-size="12">0</text></g><g class="edge"><path fill="none" stroke="#000" d="M81.38-27.9c19.71-5.7 49.54-14.34 70.21-20.32"/><path stroke="#000" d="M158.49-50.22l-7.6-1.08 4.24 2.05-3.36.98h0l3.36-.98-2.49 4 5.85-4.97h0z"/><text x="100" y="-47.4" font-family="Lato" font-size="12">!b &amp; !c</text></g><g class="node"><circle fill="#ffffa0" stroke="#000" cx="260" cy="-22" r="18"/><circle fill="none" stroke="#000" cx="260" cy="-22" r="22"/><text text-anchor="middle" x="260" y="-18.9" font-family="Lato" font-size="12">1</text></g><g class="edge"><path fill="none" stroke="#000" d="M82.19-19.5c26.25 2.78 72.33 6.62 111.81 4.5 12.09-.65 25.38-1.97 36.78-3.29"/><path stroke="#000" d="M237.97-19.16l-7.33-2.29 3.85 2.71-3.47.42h0l3.47-.42-3.1 3.54 6.58-3.96h0z"/><text x="172" y="-18.4" font-family="Lato" font-size="12">b</text></g><g class="edge"><path fill="none" stroke="#000" d="M168.97-71.66C167.41-81.62 169.75-91 176-91c4.69 0 7.18 5.27 7.47 12.11"/><path stroke="#000" d="M183.03-71.66l3.57-6.8-3.36 3.3.22-3.49h0l-.22 3.49-2.93-3.68 2.72 7.18h0z"/><text x="169.5" y="-94.4" font-family="Lato" font-size="12">!b</text></g><g class="edge"><path fill="none" stroke="#000" d="M193.2-48.48c11.29 4.54 26.59 10.7 39.6 15.94"/><path stroke="#000" d="M239.36-29.9l-5.32-5.54 2.08 4.23-3.25-1.31h0l3.25 1.31-4.43 1.62 7.67-.31h0z"/><text x="212" y="-43.4" font-family="Lato" font-size="12">b</text></g><g class="edge"><path fill="none" stroke="#000" d="M251.99-42.58C250.89-52.84 253.55-62 260-62c4.83 0 7.54 5.15 8.13 12.05"/><path stroke="#000" d="M268.01-42.58l3.26-6.95-3.21 3.45.06-3.5h0l-.06 3.5-3.09-3.55 3.04 7.05h0z"/><text text-anchor="middle" x="260" y="-65.4" font-family="Lato" font-size="12">1</text></g></g></svg>