<svg width="716" height="916" viewBox="0 0 537.5 687.48" xmlns="http://www.w3.org/2000/svg"><g class="graph"><path fill="#fff" stroke="transparent" d="M0 687.48V0h537.5v687.48H0z"/><g class="node" transform="translate(4 683.48)"><path fill="#ffe6cc" stroke="#000" d="M256.25-118h-65v36h65v-36z"/><text text-anchor="middle" x="223.75" y="-96.3" font-family="Times,serif" font-size="14">L0_out</text></g><g class="node" transform="translate(4 683.48)"><circle fill="none" stroke="#000" cx="366.75" cy="-176.75" r="23"/><text text-anchor="middle" x="366.75" y="-173.05" font-family="Times,serif" font-size="14">10</text></g><g class="edge" transform="translate(4 683.48)"><path fill="none" stroke="#000" d="M256.56-118.15c24.49-12.8 57.66-30.14 81.19-42.44"/><path stroke="#000" d="M336.39-163.83l10.49-1.53-7.25 7.73-3.24-6.2z"/></g><g class="node" transform="translate(4 683.48)"><circle fill="none" stroke="#000" cx="264.75" cy="-176.75" r="23"/><text text-anchor="middle" x="264.75" y="-173.05" font-family="Times,serif" font-size="14">24</text></g><g class="edge" transform="translate(4 683.48)"><path fill="none" stroke="#000" d="M233.26-118.34c5.02-9.16 11.3-20.6 16.92-30.85"/><circle stroke="#000" cx="252.21" cy="-152.89" r="4"/></g><g class="node" transform="translate(4 683.48)"><circle fill="none" stroke="#000" cx="162.75" cy="-176.75" r="23"/><text text-anchor="middle" x="162.75" y="-173.05" font-family="Times,serif" font-size="14">28</text></g><g class="edge" transform="translate(4 683.48)"><path fill="none" stroke="#000" d="M209.6-118.34c-8.24-10.09-18.74-22.95-27.7-33.95"/><circle stroke="#000" cx="179.35" cy="-155.41" r="4"/></g><g class="node" transform="translate(4 683.48)"><circle fill="none" stroke="#000" cx="22.75" cy="-176.75" r="23"/><text text-anchor="middle" x="22.75" y="-173.05" font-family="Times,serif" font-size="14">34</text></g><g class="edge" transform="translate(4 683.48)"><path fill="none" stroke="#000" d="M191.01-113.18C152.33-127.56 88.58-151.26 51.66-165"/><circle stroke="#000" cx="47.51" cy="-166.54" r="4"/></g><g class="node" transform="translate(4 683.48)"><path fill="#ffe5f1" stroke="#000" d="M213.75-633.48l44.39-34.5h-88.79l44.4 34.5z"/><text text-anchor="middle" x="213.75" y="-652.78" font-family="Times,serif" font-size="14">o1</text></g><g class="edge" transform="translate(4 683.48)"><path fill="none" stroke="#000" d="M221.91-118.32c-2.88-28.8-8.16-88.37-8.16-138.92v-246.49-121.6"/><circle stroke="#000" cx="213.75" cy="-629.48" r="4"/></g><g class="node" transform="translate(4 683.48)"><path fill="#ffe6cc" stroke="#000" d="M389.25-118h-65v36h65v-36z"/><text text-anchor="middle" x="356.75" y="-96.3" font-family="Times,serif" font-size="14">L1_out</text></g><g class="edge" transform="translate(4 683.48)"><path fill="none" stroke="#000" d="M359.07-118.34c1.1-8.2 2.44-18.24 3.69-27.61"/><circle stroke="#000" cx="363.3" cy="-149.99" r="4"/></g><g class="node" transform="translate(4 683.48)"><circle fill="none" stroke="#000" cx="506.75" cy="-176.75" r="23"/><text text-anchor="middle" x="506.75" y="-173.05" font-family="Times,serif" font-size="14">12</text></g><g class="edge" transform="translate(4 683.48)"><path fill="none" stroke="#000" d="M389.3-117.22c26.86-13.38 64.55-32.17 89.93-44.81"/><circle stroke="#000" cx="483.1" cy="-163.97" r="4"/></g><g class="edge" transform="translate(4 683.48)"><path fill="none" stroke="#000" d="M335.41-118.34c-13.58-11.03-31.23-25.37-45.49-36.96"/><path stroke="#000" d="M287.53-152.73l-5.56-9.02 9.97 3.59-4.41 5.43z"/></g><g class="node" transform="translate(4 683.48)"><circle fill="none" stroke="#000" cx="468.75" cy="-258.24" r="23"/><text text-anchor="middle" x="468.75" y="-254.54" font-family="Times,serif" font-size="14">14</text></g><g class="edge" transform="translate(4 683.48)"><path fill="none" stroke="#000" d="M384.52-191.6c16.23-12.65 40.42-31.5 58.72-45.77"/><path stroke="#000" d="M441.15-240.17l10.03-3.39-5.73 8.91-4.3-5.52z"/></g><g class="node" transform="translate(4 683.48)"><circle fill="none" stroke="#000" cx="366.75" cy="-258.24" r="23"/><text text-anchor="middle" x="366.75" y="-254.54" font-family="Times,serif" font-size="14">20</text></g><g class="edge" transform="translate(4 683.48)"><path fill="none" stroke="#000" d="M366.75-199.89v-25.53"/><path stroke="#000" d="M363.25-225.49l3.5-10 3.5 10h-7z"/></g><g class="node" transform="translate(4 683.48)"><circle fill="none" stroke="#000" cx="468.75" cy="-339.74" r="23"/><text text-anchor="middle" x="468.75" y="-336.04" font-family="Times,serif" font-size="14">16</text></g><g class="edge" transform="translate(4 683.48)"><path fill="none" stroke="#000" d="M508.25-199.57c.83-21.23.39-54.17-7.5-81.42-3.28-11.32-9.09-22.86-14.86-32.62"/><circle stroke="#000" cx="483.62" cy="-317.29" r="4"/></g><g class="edge" transform="translate(4 683.48)"><path fill="none" stroke="#000" d="M468.75-281.39v-27.49"/><circle stroke="#000" cx="468.75" cy="-312.99" r="4"/></g><g class="node" transform="translate(4 683.48)"><circle fill="none" stroke="#000" cx="417.75" cy="-421.24" r="23"/><text text-anchor="middle" x="417.75" y="-417.54" font-family="Times,serif" font-size="14">18</text></g><g class="edge" transform="translate(4 683.48)"><path fill="none" stroke="#000" d="M456.92-359.18c-6.77-10.56-15.38-23.97-22.79-35.53"/><circle stroke="#000" cx="431.85" cy="-398.26" r="4"/></g><g class="node" transform="translate(4 683.48)"><circle fill="none" stroke="#000" cx="391.75" cy="-502.73" r="23"/><text text-anchor="middle" x="391.75" y="-499.03" font-family="Times,serif" font-size="14">22</text></g><g class="edge" transform="translate(4 683.48)"><path fill="none" stroke="#000" d="M410.92-443.12c-3.02-9.22-6.61-20.2-9.87-30.16"/><circle stroke="#000" cx="399.78" cy="-477.18" r="4"/></g><g class="edge" transform="translate(4 683.48)"><path fill="none" stroke="#000" d="M368.99-281.14c3.55-34.59 10.67-103.99 16.76-162.84.94-9.14 1.97-19.09 2.91-28.11"/><circle stroke="#000" cx="389.08" cy="-476.09" r="4"/></g><g class="node" transform="translate(4 683.48)"><path fill="#ffe6cc" stroke="#000" d="M419.25-597.48h-55v36h55v-36z"/><text text-anchor="middle" x="391.75" y="-575.78" font-family="Times,serif" font-size="14">L0_in</text></g><g class="edge" transform="translate(4 683.48)"><path fill="none" stroke="#000" d="M391.75-525.75v-27.46"/><circle stroke="#000" cx="391.75" cy="-557.35" r="4"/></g><g class="node" transform="translate(4 683.48)"><circle fill="none" stroke="#000" cx="162.75" cy="-258.24" r="23"/><text text-anchor="middle" x="162.75" y="-254.54" font-family="Times,serif" font-size="14">26</text></g><g class="edge" transform="translate(4 683.48)"><path fill="none" stroke="#000" d="M246.98-191.6c-16.23-12.65-40.43-31.5-58.73-45.77"/><path stroke="#000" d="M186.05-234.65l-5.74-8.91 10.04 3.39-4.3 5.52z"/></g><g class="node" transform="translate(4 683.48)"><circle fill="none" stroke="#000" cx="124.75" cy="-339.74" r="23"/><text text-anchor="middle" x="124.75" y="-336.04" font-family="Times,serif" font-size="14">30</text></g><g class="edge" transform="translate(4 683.48)"><path fill="none" stroke="#000" d="M153.16-279.3c-4.67-9.78-10.36-21.67-15.41-32.24"/><circle stroke="#000" cx="135.93" cy="-315.35" r="4"/></g><g class="edge" transform="translate(4 683.48)"><path fill="none" stroke="#000" d="M149.97-195.8c-7.01-10.94-15.11-25.49-19.22-39.7-6.94-23.94-8.12-52.29-7.74-73.22"/><circle stroke="#000" cx="123.13" cy="-312.91" r="4"/></g><g class="node" transform="translate(4 683.48)"><circle fill="none" stroke="#000" cx="73.75" cy="-421.24" r="23"/><text text-anchor="middle" x="73.75" y="-417.54" font-family="Times,serif" font-size="14">32</text></g><g class="edge" transform="translate(4 683.48)"><path fill="none" stroke="#000" d="M112.92-359.18c-6.77-10.56-15.38-23.97-22.79-35.53"/><circle stroke="#000" cx="87.85" cy="-398.26" r="4"/></g><g class="node" transform="translate(4 683.48)"><circle fill="none" stroke="#000" cx="48.75" cy="-502.73" r="23"/><text text-anchor="middle" x="48.75" y="-499.03" font-family="Times,serif" font-size="14">36</text></g><g class="edge" transform="translate(4 683.48)"><path fill="none" stroke="#000" d="M67.18-443.12c-2.88-9.15-6.3-20.03-9.41-29.92"/><circle stroke="#000" cx="56.56" cy="-476.89" r="4"/></g><g class="edge" transform="translate(4 683.48)"><path fill="none" stroke="#000" d="M23.94-199.52c2.56-45.47 9.09-153.83 17.81-244.46.88-9.16 2.02-19.12 3.12-28.14"/><circle stroke="#000" cx="45.37" cy="-476.13" r="4"/></g><g class="node" transform="translate(4 683.48)"><path fill="#ffe6cc" stroke="#000" d="M76.25-597.48h-55v36h55v-36z"/><text text-anchor="middle" x="48.75" y="-575.78" font-family="Times,serif" font-size="14">L1_in</text></g><g class="edge" transform="translate(4 683.48)"><path fill="none" stroke="#000" d="M48.75-525.75v-27.46"/><circle stroke="#000" cx="48.75" cy="-557.35" r="4"/></g><g class="node" transform="translate(4 683.48)"><path fill="#e9f4fb" stroke="#000" d="M184.75-46l-39 34.5h77.99L184.75-46z"/><text text-anchor="middle" x="184.75" y="-19.3" font-family="Times,serif" font-size="14">i1</text></g><g class="edge" transform="translate(4 683.48)"><path fill="none" stroke="#000" d="M206.47-26.97c48.99-7.15 165.82-26.8 192.28-55.03 29.07-31.02 19-51.24 19-93.75v-83.49-128.88"/><path stroke="#000" d="M414.25-388.36l3.5-10 3.5 10h-7z"/></g><g class="edge" transform="translate(4 683.48)"><path fill="none" stroke="#000" d="M200.28-32.39c17.51-10.04 46.07-28.2 65.47-49.61 5.65-6.24 59.49-101.44 86.17-148.84"/><circle stroke="#000" cx="354" cy="-234.53" r="4"/></g><g class="edge" transform="translate(4 683.48)"><path fill="none" stroke="#000" d="M170.24-33.89c-30.09-21.8-96.49-77.23-96.49-141.86v-83.49-128.88"/><path stroke="#000" d="M70.25-388.36l3.5-10 3.5 10h-7z"/></g><g class="edge" transform="translate(4 683.48)"><path fill="none" stroke="#000" d="M164.68-28.36C137.43-35.26 88.8-51.19 59.75-82c-16.78-17.79-26.26-44.09-31.42-64.31"/><circle stroke="#000" cx="27.36" cy="-150.39" r="4"/></g><g class="node" transform="translate(4 683.48)"><path fill="#e9f4fb" stroke="#000" d="M367.75-46l-39 34.5h77.99L367.75-46z"/><text text-anchor="middle" x="367.75" y="-19.3" font-family="Times,serif" font-size="14">i2</text></g><g class="edge" transform="translate(4 683.48)"><path fill="none" stroke="#000" d="M386.07-30.09c22.56-8.36 60.71-25.45 83.68-51.91 15.43-17.78 24.86-42.77 30.34-62.47"/><path stroke="#000" d="M496.72-145.42l5.88-8.81.89 10.56-6.77-1.75z"/></g><g class="edge" transform="translate(4 683.48)"><path fill="none" stroke="#000" d="M382.4-33.2c14.83-10.1 37.25-27.73 49.35-48.8 26.38-45.93 34.03-108.33 36.2-144.94"/><circle stroke="#000" cx="468.17" cy="-231.23" r="4"/></g><g class="edge" transform="translate(4 683.48)"><path fill="none" stroke="#000" d="M346.85-27.54C300.26-35.78 189.77-57.46 161.75-82c-40.63-35.58-44.52-65.21-31-117.5 2.8-10.84 8.13-21.83 13.65-31.26"/><path stroke="#000" d="M141.43-232.62l8.24-6.66-2.29 10.35-5.95-3.69z"/></g><g class="edge" transform="translate(4 683.48)"><path fill="none" stroke="#000" d="M342.76-24.18C302.56-25.89 223.79-35.42 181.75-82c-15.55-17.23-19.79-43.58-20.43-63.97"/><circle stroke="#000" cx="161.28" cy="-150.01" r="4"/></g></g></svg>