<?xml-stylesheet href="spot.css" type="text/css"?><svg width="244pt" height="176pt" viewBox="0 0 244 176" xmlns="http://www.w3.org/2000/svg"><g class="graph"><path fill="#fff" stroke="transparent" d="M0 176V0h244v176H0z"/><g class="node" transform="translate(4 172)"><circle fill="#ffffa0" stroke="#000" cx="56" cy="-64" r="18"/><text text-anchor="middle" x="56" y="-60.9" font-family="Lato" font-size="12">0</text></g><g class="edge" transform="translate(4 172)"><path fill="none" stroke="#000" d="M1.15-64h29.48"/><path stroke="#000" d="M37.94-64l-7-3.15 3.5 3.15h-3.5 3.5l-3.5 3.15 7-3.15h0z"/></g><g class="node" transform="translate(4 172)"><circle fill="#ffffa0" stroke="#000" cx="210" cy="-111" r="18"/><text text-anchor="middle" x="210" y="-107.9" font-family="Lato" font-size="12">1</text></g><g class="edge" transform="translate(4 172)"><path fill="none" stroke="#000" d="M73.34-69.75C79.2-71.78 85.88-74.04 92-76c32.2-10.33 69.69-21.38 93.39-28.23"/><path stroke="#000" d="M192.27-106.22l-7.6-1.09 4.24 2.06-3.36.97h0l3.36-.97-2.49 4 5.85-4.97h0z"/><path fill="#e9f4fb" stroke="transparent" d="M96-101.5v-17h42v17H96z"/><text x="98" y="-106.9" font-family="Lato" font-size="12">i1 &amp; i2</text><text x="142" y="-106.9" font-family="Lato" font-size="12">/</text><path fill="#ffe5f1" stroke="transparent" d="M150-101.5v-17h20v17h-20z"/><text x="152" y="-106.9" font-family="Lato" font-size="12">o1</text></g><g class="node" transform="translate(4 172)"><circle fill="#ffffa0" stroke="#000" cx="210" cy="-18" r="18"/><text text-anchor="middle" x="210" y="-14.9" font-family="Lato" font-size="12">2</text></g><g class="edge" transform="translate(4 172)"><path fill="none" stroke="#000" d="M73.56-58.99c27.06 8.19 80.88 24.48 111.91 33.87"/><path stroke="#000" d="M192.46-23l-5.78-5.05 2.43 4.03-3.35-1.01h0l3.35 1.01-4.26 2 7.61-.98h0z"/><path fill="#e9f4fb" stroke="transparent" d="M94-53.5v-17h46v17H94z"/><text x="96" y="-58.9" font-family="Lato" font-size="12">!i1 | !i2</text><text x="144" y="-58.9" font-family="Lato" font-size="12">/</text><path fill="#ffe5f1" stroke="transparent" d="M152-53.5v-17h20v17h-20z"/><text x="154" y="-58.9" font-family="Lato" font-size="12">o1</text></g><g class="edge" transform="translate(4 172)"><path fill="none" stroke="#000" d="M197.75-124.67C192.86-135.66 196.94-147 210-147c10.21 0 14.93 6.92 14.17 15.19"/><path stroke="#000" d="M222.25-124.67l4.86-5.94-3.95 2.56.91-3.38h0l-.91 3.38-2.13-4.2 1.22 7.58h0z"/><path fill="#e9f4fb" stroke="transparent" d="M186-148.5v-17h12v17h-12z"/><text x="188" y="-153.9" font-family="Lato" font-size="12">1</text><text x="202" y="-153.9" font-family="Lato" font-size="12">/</text><path fill="#ffe5f1" stroke="transparent" d="M210-148.5v-17h24v17h-24z"/><text x="212" y="-153.9" font-family="Lato" font-size="12">!o1</text></g><g class="edge" transform="translate(4 172)"><path fill="none" stroke="#000" d="M197.75-31.67C192.86-42.66 196.94-54 210-54c10.21 0 14.93 6.92 14.17 15.19"/><path stroke="#000" d="M222.25-31.67l4.86-5.94-3.95 2.56.91-3.38h0l-.91 3.38-2.13-4.2 1.22 7.58h0z"/><path fill="#e9f4fb" stroke="transparent" d="M188-55.5v-17h12v17h-12z"/><text x="190" y="-60.9" font-family="Lato" font-size="12">1</text><text x="204" y="-60.9" font-family="Lato" font-size="12">/</text><path fill="#ffe5f1" stroke="transparent" d="M212-55.5v-17h20v17h-20z"/><text x="214" y="-60.9" font-family="Lato" font-size="12">o1</text></g></g></svg>