<?xml-stylesheet href="spot.css" type="text/css"?><svg width="605pt" height="244pt" viewBox="0 0 605.22 244.19" xmlns="http://www.w3.org/2000/svg"><g class="graph"><path fill="#fff" stroke="transparent" d="M0 244.19V0h605.22v244.19H0z"/><text x="279.11" y="-223.59" font-family="Lato" font-size="12" transform="translate(4 240.19)">Inf(</text><text x="300.11" y="-223.59" font-family="Lato" font-size="12" fill="#1f78b4" transform="translate(4 240.19)">⓿</text><text x="313.11" y="-223.59" font-family="Lato" font-size="12" transform="translate(4 240.19)">)</text><text x="277.11" y="-211.59" font-family="Lato" font-size="12" transform="translate(4 240.19)">[Büchi]</text><g class="node" transform="translate(4 240.19)"><circle fill="#ffffa0" stroke="#000" cx="56" cy="-108.19" r="18"/><text text-anchor="middle" x="56" y="-105.09" font-family="Lato" font-size="12">2</text></g><g class="edge" transform="translate(4 240.19)"><path fill="none" stroke="#000" d="M1.15-108.19h29.48"/><path stroke="#000" d="M37.94-108.19l-7-3.15 3.5 3.15h-3.5 3.5l-3.5 3.15 7-3.15h0z"/></g><g class="node" transform="translate(4 240.19)"><path fill="#ffffa0" stroke="#000" d="M172.89-160.19l-20.78 18 20.78 18 20.79-18-20.79-18z"/><text text-anchor="middle" x="172.89" y="-139.09" font-family="Lato" font-size="12">7</text></g><g class="edge" transform="translate(4 240.19)"><path fill="none" stroke="#000" d="M73.46-113.06c20.16-5.96 54.36-16.09 76.67-22.69"/><path stroke="#000" d="M156.92-137.76l-7.6-1.03 4.25 2.03-3.36.99h0l3.36-.99-2.46 4.01 5.81-5.01h0z"/><text x="94" y="-133.59" font-family="Lato" font-size="12">i1 &amp; i2</text></g><g class="node" transform="translate(4 240.19)"><path fill="#ffffa0" stroke="#000" d="M172.89-99.19l-20.78 18 20.78 18 20.79-18-20.79-18z"/><text text-anchor="middle" x="172.89" y="-78.09" font-family="Lato" font-size="12">8</text></g><g class="edge" transform="translate(4 240.19)"><path fill="none" stroke="#000" d="M72.83-101.61c5.94 2.28 12.79 4.69 19.17 6.42 18.1 4.91 39 8.5 54.88 10.81"/><path stroke="#000" d="M154.24-83.34l-6.5-4.09 3.03 3.6-3.47-.49h0l3.47.49-3.9 2.63 7.37-2.14h0z"/><text x="92" y="-98.59" font-family="Lato" font-size="12">!i1 | !i2</text></g><g class="node" transform="translate(4 240.19)"><circle fill="#ffffa0" stroke="#000" cx="471.5" cy="-52.19" r="18"/><text text-anchor="middle" x="471.5" y="-49.09" font-family="Lato" font-size="12">0</text></g><g class="node" transform="translate(4 240.19)"><path fill="#ffffa0" stroke="#000" d="M569.36-88.19l-20.79 18 20.79 18 20.79-18-20.79-18z"/><text text-anchor="middle" x="569.36" y="-67.09" font-family="Lato" font-size="12">6</text></g><g class="edge" transform="translate(4 240.19)"><path fill="none" stroke="#000" d="M489.64-55.41l55.43-10.4"/><path stroke="#000" d="M552.01-67.12l-7.46-1.8 4.02 2.45-3.44.64h0l3.44-.64-2.86 3.74 6.3-4.39h0z"/><text x="511.5" y="-77.59" font-family="Lato" font-size="12">1</text><text x="509" y="-64.59" font-family="Lato" font-size="12" fill="#1f78b4">⓿</text></g><g class="edge" transform="translate(4 240.19)"><path fill="none" stroke="#000" d="M560.57-59.16c-7.98 10.23-21.39 24.78-37.07 30.97-11.15 4.41-23.31-.9-32.96-7.64"/><path stroke="#000" d="M484.88-40.14l3.66 6.75-.87-4.63 2.78 2.13h0l-2.78-2.13 4.69-.38-7.48-1.74h0z"/><text x="507.5" y="-44.59" font-family="Lato" font-size="12">o1</text><text x="509" y="-31.59" font-family="Lato" font-size="12" fill="#1f78b4">⓿</text></g><g class="node" transform="translate(4 240.19)"><circle fill="#ffffa0" stroke="#000" cx="267.79" cy="-186.19" r="18"/><text text-anchor="middle" x="267.79" y="-183.09" font-family="Lato" font-size="12">1</text></g><g class="edge" transform="translate(4 240.19)"><path fill="none" stroke="#000" d="M254.47-173.69c-6.31 5.77-14.39 12.26-22.68 16.5-10.44 5.34-22.94 8.89-33.64 11.19"/><path stroke="#000" d="M191.07-144.61l7.47 1.74-4.04-2.41 3.43-.68h0l-3.43.68 2.82-3.77-6.25 4.44h0z"/><text text-anchor="middle" x="221.79" y="-160.59" font-family="Lato" font-size="12">1</text></g><g class="edge" transform="translate(4 240.19)"><path fill="none" stroke="#000" d="M183.86-151.09c7.29-6.12 17.66-14.02 27.93-19.1 9.75-4.83 21.22-8.45 31.15-11.02"/><path stroke="#000" d="M249.85-182.89l-7.55-1.41 4.15 2.24-3.4.82h0l3.4-.82-2.65 3.89 6.05-4.72h0z"/><text x="211.79" y="-180.59" font-family="Lato" font-size="12">!o1</text></g><g class="node" transform="translate(4 240.19)"><circle fill="#ffffa0" stroke="#000" cx="267.79" cy="-127.19" r="18"/><text text-anchor="middle" x="267.79" y="-124.09" font-family="Lato" font-size="12">3</text></g><g class="edge" transform="translate(4 240.19)"><path fill="none" stroke="#000" d="M184.86-134.14c7.24 4.79 17.17 10.43 26.93 12.95 10.08 2.61 21.48 1.93 31.28.29"/><path stroke="#000" d="M250.2-122.31l-7.48-1.74 4.05 2.42-3.44.67h0l3.44-.67-2.83 3.76 6.26-4.44h0z"/><text x="213.79" y="-124.59" font-family="Lato" font-size="12">o1</text></g><g class="edge" transform="translate(4 240.19)"><path fill="none" stroke="#000" d="M192.6-82.4c43.37-2.34 153.87-5.56 242.9 15.21 4.4 1.03 8.94 2.57 13.23 4.29"/><path stroke="#000" d="M455.22-60.12l-5.19-5.65L452-61.5l-3.21-1.38h0L452-61.5l-4.45 1.52 7.67-.14h0z"/><text x="305.79" y="-85.59" font-family="Lato" font-size="12">o1</text></g><g class="node" transform="translate(4 240.19)"><circle fill="#ffffa0" stroke="#000" cx="267.79" cy="-32.19" r="18"/><text text-anchor="middle" x="267.79" y="-29.09" font-family="Lato" font-size="12">5</text></g><g class="edge" transform="translate(4 240.19)"><path fill="none" stroke="#000" d="M184.39-72.67c7.37 5.71 17.61 13.14 27.4 18.48 10.12 5.53 21.92 10.43 32 14.2"/><path stroke="#000" d="M250.44-37.57l-5.5-5.35 2.21 4.16-3.29-1.2h0l3.29 1.2-4.36 1.76 7.65-.57h0z"/><text x="211.79" y="-57.59" font-family="Lato" font-size="12">!o1</text></g><g class="node" transform="translate(4 240.19)"><path fill="#ffffa0" stroke="#000" d="M369.65-158.19l-20.79 18 20.79 18 20.78-18-20.78-18z"/><text text-anchor="middle" x="369.65" y="-137.09" font-family="Lato" font-size="12">9</text></g><g class="edge" transform="translate(4 240.19)"><path fill="none" stroke="#000" d="M285.39-132.14c5.77-1.54 12.32-3.09 18.4-4.05 12.46-1.97 26.4-2.98 38.16-3.49"/><path stroke="#000" d="M348.96-139.94l-7.12-2.89 3.62 3.02-3.5.13h0l3.5-.13-3.38 3.27 6.88-3.4h0z"/><text text-anchor="middle" x="313.79" y="-141.59" font-family="Lato" font-size="12">1</text></g><g class="edge" transform="translate(4 240.19)"><path fill="none" stroke="#000" d="M356.97-132.98c-8.77 4.97-21.26 11.14-33.18 13.79-10.31 2.3-21.86 1.17-31.7-.88"/><path stroke="#000" d="M285.27-121.68l6.09 4.67-2.69-3.87 3.41.81h0l-3.41-.81 4.14-2.26-7.54 1.46h0z"/><text x="305.79" y="-122.59" font-family="Lato" font-size="12">o1</text></g><g class="node" transform="translate(4 240.19)"><circle fill="#ffffa0" stroke="#000" cx="471.5" cy="-140.19" r="18"/><text text-anchor="middle" x="471.5" y="-137.09" font-family="Lato" font-size="12">4</text></g><g class="edge" transform="translate(4 240.19)"><path fill="none" stroke="#000" d="M390.85-140.19h55.1"/><path stroke="#000" d="M453.32-140.19l-7-3.15 3.5 3.15h-3.5 3.5l-3.5 3.15 7-3.15h0z"/><text x="415.5" y="-143.59" font-family="Lato" font-size="12">!o1</text></g><g class="node" transform="translate(4 240.19)"><path fill="#ffffa0" stroke="#000" d="M569.36-164.19l-27.71 18 27.71 18 27.72-18-27.72-18z"/><text text-anchor="middle" x="569.36" y="-143.09" font-family="Lato" font-size="12">10</text></g><g class="edge" transform="translate(4 240.19)"><path fill="none" stroke="#000" d="M486.41-150.35c6.15-3.89 13.65-7.86 21.09-9.84 12.85-3.41 27.34-.34 38.96 3.78"/><path stroke="#000" d="M553.29-153.76l-5.38-5.47 2.12 4.2-3.27-1.27h0l3.27 1.27-4.41 1.67 7.67-.4h0z"/><text x="511.5" y="-177.59" font-family="Lato" font-size="12">1</text><text x="509" y="-164.59" font-family="Lato" font-size="12" fill="#1f78b4">⓿</text></g><g class="edge" transform="translate(4 240.19)"><path fill="none" stroke="#000" d="M552.53-139.04c-8.43 3.42-19.09 7.13-29.03 8.85-7 1.21-8.95.99-16 0-3.91-.55-8-1.42-11.94-2.43"/><path stroke="#000" d="M488.68-134.55l5.89 4.92-2.52-3.98 3.37.95h0l-3.37-.95 4.22-2.09-7.59 1.15h0z"/><text x="511.5" y="-146.59" font-family="Lato" font-size="12">1</text><text x="509" y="-133.59" font-family="Lato" font-size="12" fill="#1f78b4">⓿</text></g><g class="node" transform="translate(4 240.19)"><path fill="#ffffa0" stroke="#000" d="M369.65-50.19l-27.72 18 27.72 18 27.71-18-27.71-18z"/><text text-anchor="middle" x="369.65" y="-29.09" font-family="Lato" font-size="12">11</text></g><g class="edge" transform="translate(4 240.19)"><path fill="none" stroke="#000" d="M286.18-32.19h48.24"/><path stroke="#000" d="M341.68-32.19l-7-3.15 3.5 3.15h-3.5 3.5l-3.5 3.15 7-3.15h0z"/><text x="309.79" y="-48.59" font-family="Lato" font-size="12">1</text><text x="307.29" y="-35.59" font-family="Lato" font-size="12" fill="#1f78b4">⓿</text></g><g class="edge" transform="translate(4 240.19)"><path fill="none" stroke="#000" d="M393.93-34.47c12.43-1.45 27.93-3.65 41.57-6.72 3.89-.87 7.96-1.97 11.9-3.14"/><path stroke="#000" d="M454.28-46.47l-7.62-.93 4.27 1.97-3.34 1.04h0l3.34-1.04-2.4 4.05 5.75-5.09h0z"/><text x="417.5" y="-57.59" font-family="Lato" font-size="12">o1</text><text x="419" y="-44.59" font-family="Lato" font-size="12" fill="#1f78b4">⓿</text></g><g class="edge" transform="translate(4 240.19)"><path fill="none" stroke="#000" d="M357.46-21.94c-8.53 7.08-20.94 15.89-33.67 19.75-8.51 2.58-11.67 3.09-20 0-6.87-2.54-13.3-7.1-18.73-11.9"/><path stroke="#000" d="M279.99-18.92l2.9 7.11-.36-4.7 2.53 2.42h0l-2.53-2.42 4.7.13-7.24-2.54h0z"/><text x="303.79" y="-18.59" font-family="Lato" font-size="12">!o1</text><text x="307.29" y="-5.59" font-family="Lato" font-size="12" fill="#1f78b4">⓿</text></g></g></svg>