<?xml-stylesheet href="spot.css" type="text/css"?><svg width="274pt" height="194pt" viewBox="0 0 274 194" xmlns="http://www.w3.org/2000/svg"><g class="graph" transform="translate(4 190)"><path fill="#fff" stroke="transparent" d="M-4 4v-194h274V4H-4z"/><text x="130.5" y="-172.4" font-family="Lato" font-size="12">t</text><text x="121.5" y="-159.4" font-family="Lato" font-size="12">[all]</text><g class="node"><circle fill="#ffffa0" stroke="#000" cx="56" cy="-76" r="18"/><text text-anchor="middle" x="56" y="-72.9" font-family="Lato" font-size="12">1</text></g><g class="edge"><path fill="none" stroke="#000" d="M1.15-76h29.48"/><path stroke="#000" d="M37.94-76l-7-3.15 3.5 3.15h-3.5 3.5l-3.5 3.15 7-3.15h0z"/></g><g class="node"><circle fill="#ffffa0" stroke="#000" cx="140" cy="-103" r="18"/><text text-anchor="middle" x="140" y="-99.9" font-family="Lato" font-size="12">3</text></g><g class="edge"><path fill="none" stroke="#000" d="M73.2-81.33c12.16-4.01 28.99-9.55 42.58-14.02"/><path stroke="#000" d="M122.55-97.58l-7.63-.81 4.31 1.9-3.33 1.09h0l3.33-1.09-2.34 4.09 5.66-5.18h0z"/><text x="92" y="-94.4" font-family="Lato" font-size="12">!c</text></g><g class="node"><circle fill="#ffffa0" stroke="#000" cx="140" cy="-49" r="18"/><text text-anchor="middle" x="140" y="-45.9" font-family="Lato" font-size="12">4</text></g><g class="edge"><path fill="none" stroke="#000" d="M73.2-70.67c12.16 4.01 28.99 9.55 42.58 14.02"/><path stroke="#000" d="M122.55-54.42l-5.66-5.18 2.34 4.09-3.33-1.09h0l3.33 1.09-4.31 1.9 7.63-.81h0z"/><text x="94.5" y="-67.4" font-family="Lato" font-size="12">c</text></g><g class="node"><circle fill="#ffffa0" stroke="#000" cx="248" cy="-18" r="18"/><text text-anchor="middle" x="248" y="-14.9" font-family="Lato" font-size="12">0</text></g><g class="edge"><path fill="none" stroke="#000" d="M238.77-33.54C236.17-43.91 239.25-54 248-54c6.7 0 10.08 5.92 10.12 13.34"/><path stroke="#000" d="M257.23-33.54l4-6.56-3.56 3.09.43-3.48h0l-.43 3.48-2.69-3.87 2.25 7.34h0z"/><text x="244.5" y="-57.4" font-family="Lato" font-size="12">c</text></g><g class="node"><circle fill="#ffffa0" stroke="#000" cx="248" cy="-103" r="18"/><text text-anchor="middle" x="248" y="-99.9" font-family="Lato" font-size="12">2</text></g><g class="edge"><path fill="none" stroke="#000" d="M158.03-103h64.46"/><path stroke="#000" d="M229.66-103l-7-3.15 3.5 3.15h-3.5 3.5l-3.5 3.15 7-3.15h0z"/><text x="190" y="-106.4" font-family="Lato" font-size="12">a</text></g><g class="edge"><path fill="none" stroke="#000" d="M155.41-39.18C161.52-35.44 168.87-31.5 176-29c15 5.25 32.66 8 46.61 9.43"/><path stroke="#000" d="M229.94-18.9l-6.69-3.77 3.2 3.46-3.48-.32h0l3.48.32-3.77 2.81 7.26-2.5h0z"/><text x="176" y="-32.4" font-family="Lato" font-size="12">!a &amp; c</text></g><g class="edge"><path fill="none" stroke="#000" d="M156.64-56.97c18.19-9.26 48.32-24.61 68.74-35.02"/><path stroke="#000" d="M231.64-95.17l-7.67.37 4.55 1.21L225.4-92h0l3.12-1.59-1.69 4.4 4.81-5.98h0z"/><text x="190" y="-86.4" font-family="Lato" font-size="12">a</text></g><g class="edge"><path fill="none" stroke="#000" d="M238.77-118.54c-2.6-10.37.48-20.46 9.23-20.46 6.7 0 10.08 5.92 10.12 13.34"/><path stroke="#000" d="M257.23-118.54l4-6.56-3.56 3.09.43-3.48h0l-.43 3.48-2.69-3.87 2.25 7.34h0z"/><text text-anchor="middle" x="248" y="-142.4" font-family="Lato" font-size="12">1</text></g></g></svg>