<?xml-stylesheet href="spot.css" type="text/css"?><svg width="382pt" height="253pt" viewBox="0 0 382 253.3" xmlns="http://www.w3.org/2000/svg"><g class="graph" transform="translate(4 249.3)"><path fill="#fff" stroke="transparent" d="M-4 4v-253.3h382V4H-4z"/><text x="165.5" y="-231.7" font-family="Lato" font-size="12">[Büchi]</text><g class="node"><circle fill="#ffffa0" stroke="#000" cx="60" cy="-98.3" r="18"/><circle fill="none" stroke="#000" cx="60" cy="-98.3" r="22"/><text text-anchor="middle" x="60" y="-95.2" font-family="Lato" font-size="12">1</text></g><g class="edge"><path fill="none" stroke="#000" d="M1.17-98.3h29.54"/><path stroke="#000" d="M37.86-98.3l-7-3.15 3.5 3.15h-3.5 3.5l-3.5 3.15 7-3.15h0z"/></g><g class="node"><circle fill="#ffffa0" stroke="#000" cx="152" cy="-141.3" r="18"/><circle fill="none" stroke="#000" cx="152" cy="-141.3" r="22"/><text text-anchor="middle" x="152" y="-138.2" font-family="Lato" font-size="12">3</text></g><g class="edge"><path fill="none" stroke="#000" d="M80.09-107.42c13.24-6.33 31.03-14.83 45.48-21.73"/><path stroke="#000" d="M131.94-132.2l-7.67.18 4.51 1.33-3.16 1.51h0l3.16-1.51-1.8 4.35 4.96-5.86h0z"/><text x="100" y="-125.7" font-family="Lato" font-size="12">!c</text></g><g class="node"><circle fill="#ffffa0" stroke="#000" cx="152" cy="-67.3" r="18"/><circle fill="none" stroke="#000" cx="152" cy="-67.3" r="22"/><text text-anchor="middle" x="152" y="-64.2" font-family="Lato" font-size="12">4</text></g><g class="edge"><path fill="none" stroke="#000" d="M80.97-91.42c12.7 4.37 29.31 10.09 43.16 14.86"/><path stroke="#000" d="M131.08-74.16l-5.59-5.26 2.28 4.12-3.31-1.14h0l3.31 1.14-4.33 1.84 7.64-.7h0z"/><text x="102.5" y="-87.7" font-family="Lato" font-size="12">c</text></g><g class="node"><circle fill="#ffffa0" stroke="#000" cx="268" cy="-48.3" r="18"/><circle fill="none" stroke="#000" cx="268" cy="-48.3" r="22"/><text text-anchor="middle" x="268" y="-45.2" font-family="Lato" font-size="12">0</text></g><g class="edge"><path fill="none" stroke="#000" d="M259.63-68.88c-1.16-10.27 1.63-19.42 8.37-19.42 5.05 0 7.89 5.15 8.5 12.05"/><path stroke="#000" d="M276.37-68.88l3.27-6.95-3.21 3.45.06-3.5h0l-.06 3.5-3.09-3.56 3.03 7.06h0z"/><text x="264.5" y="-91.7" font-family="Lato" font-size="12">c</text></g><g class="node"><circle fill="#ffffa0" stroke="#000" cx="356" cy="-48.3" r="18"/><text text-anchor="middle" x="356" y="-45.2" font-family="Lato" font-size="12">5</text></g><g class="edge"><path fill="none" stroke="#000" d="M290.26-48.3h40.35"/><path stroke="#000" d="M337.74-48.3l-7-3.15 3.5 3.15h-3.5 3.5l-3.5 3.15 7-3.15h0z"/><text x="308" y="-51.7" font-family="Lato" font-size="12">!c</text></g><g class="edge"><path fill="none" stroke="#000" d="M348.62-64.97c-1.64-9.96.82-19.33 7.38-19.33 4.92 0 7.54 5.27 7.84 12.11"/><path stroke="#000" d="M363.38-64.97l3.59-6.78-3.36 3.29.22-3.49h0l-.22 3.49-2.92-3.69 2.69 7.18h0z"/><text text-anchor="middle" x="356" y="-87.7" font-family="Lato" font-size="12">1</text></g><g class="edge"><path fill="none" stroke="#000" d="M167.8-157.43c26.02-26.38 81.11-73.19 122.2-45.87 43.78 29.11 58.13 94.03 62.79 129.93"/><path stroke="#000" d="M353.65-66.18l2.3-7.32-2.71 3.85-.42-3.48h0l.42 3.48-3.55-3.11 3.96 6.58h0z"/><text x="261.5" y="-214.7" font-family="Lato" font-size="12">!a</text></g><g class="node"><circle fill="#ffffa0" stroke="#000" cx="268" cy="-141.3" r="18"/><circle fill="none" stroke="#000" cx="268" cy="-141.3" r="22"/><text text-anchor="middle" x="268" y="-138.2" font-family="Lato" font-size="12">2</text></g><g class="edge"><path fill="none" stroke="#000" d="M174.18-141.3h64.71"/><path stroke="#000" d="M245.94-141.3l-7-3.15 3.5 3.15h-3.5 3.5l-3.5 3.15 7-3.15h0z"/><text x="206" y="-144.7" font-family="Lato" font-size="12">a</text></g><g class="edge"><path fill="none" stroke="#000" d="M173.91-63.82c18.32 3.06 45.09 7.52 65.22 10.87"/><path stroke="#000" d="M246.22-51.76l-6.38-4.26 2.93 3.68-3.45-.58h0l3.45.58-3.97 2.53 7.42-1.95h0z"/><text x="192" y="-64.7" font-family="Lato" font-size="12">!a &amp; c</text></g><g class="edge"><path fill="none" stroke="#000" d="M168.55-52.37C185.86-36.9 215.42-13.68 246-4.3c18.7 5.73 25.3 5.73 44 0 17.47-5.36 34.46-17.17 46.7-27.21"/><path stroke="#000" d="M342.3-36.26l-7.38 2.13 4.71.14-2.67 2.26h0l2.67-2.26-.63 4.66 3.3-6.93h0z"/><text x="248" y="-7.7" font-family="Lato" font-size="12">!a &amp; !c</text></g><g class="edge"><path fill="none" stroke="#000" d="M170.81-78.86l72.04-46.76"/><path stroke="#000" d="M248.94-129.58l-7.59 1.17 4.65.74-2.94 1.91h0l2.94-1.91-1.22 4.55 4.16-6.46h0z"/><text x="206" y="-117.7" font-family="Lato" font-size="12">a</text></g><g class="edge"><path fill="none" stroke="#000" d="M259.63-161.88c-1.16-10.27 1.63-19.42 8.37-19.42 5.05 0 7.89 5.15 8.5 12.05"/><path stroke="#000" d="M276.37-161.88l3.27-6.95-3.21 3.45.06-3.5h0l-.06 3.5-3.09-3.56 3.03 7.06h0z"/><text text-anchor="middle" x="268" y="-184.7" font-family="Lato" font-size="12">1</text></g></g></svg>