<svg width="400" height="427pt" viewBox="0 0 300 427" xmlns="http://www.w3.org/2000/svg"><g class="graph" transform="translate(4 423)"><path fill="#fff" stroke="transparent" d="M-4 4v-427h300V4H-4z"/><text text-anchor="middle" x="146" y="-403.8" font-family="Times,serif" font-size="14">(Gb | F!a) W c</text><text text-anchor="middle" x="146" y="-388.8" font-family="Times,serif" font-size="14">Inf(0)</text><text text-anchor="middle" x="146" y="-373.8" font-family="Times,serif" font-size="14">[Büchi]</text><g class="cluster"><path fill="none" stroke="green" d="M67-8v-52h98v52H67z"/></g><g class="cluster"><path fill="none" stroke="red" d="M67-95v-52h79v52H67z"/></g><g class="cluster"><path fill="none" stroke="green" d="M186-182v-52h98v52h-98z"/></g><g class="cluster"><path fill="none" stroke="green" d="M8-182v-154h151v154H8z"/></g><g class="node"><circle fill="none" stroke="#000" cx="65" cy="-310" r="18"/><text text-anchor="middle" x="65" y="-306.3" font-family="Times,serif" font-size="14">0</text></g><g class="edge"><path fill="none" stroke="#000" d="M65-364.85v26.48"/><path stroke="#000" d="M68.5-338.06l-3.5 10-3.5-10h7z"/></g><g class="edge"><path fill="none" stroke="#000" d="M82.04-316.38c9.82-1.3 18.96.83 18.96 6.38 0 3.47-3.57 5.6-8.65 6.4"/><path stroke="#000" d="M92.03-300.1l-9.99-3.52 10-3.48-.01 7z"/><text text-anchor="middle" x="126" y="-313.8" font-family="Times,serif" font-size="14">!a &amp; !c</text><text text-anchor="middle" x="126" y="-298.8" font-family="Times,serif" font-size="14">{0}</text></g><g class="node"><circle fill="none" stroke="#000" cx="93" cy="-34" r="18"/><text text-anchor="middle" x="93" y="-30.3" font-family="Times,serif" font-size="14">1</text></g><g class="edge"><path fill="none" stroke="#000" d="M82.5-305.26c16.39 4.48 40.16 13.69 52.5 31.26 32.67 46.51 11.66 70.26 15 127 1.36 23.07 8.57 30.54 0 52-6.99 17.51-21.8 32.84-34.57 43.62"/><path stroke="#000" d="M117.43-48.5l-9.99 3.52 5.62-8.98 4.37 5.46z"/><text text-anchor="middle" x="153" y="-160.8" font-family="Times,serif" font-size="14">c</text></g><g class="node"><circle fill="none" stroke="#000" cx="212" cy="-208" r="18"/><text text-anchor="middle" x="212" y="-204.3" font-family="Times,serif" font-size="14">3</text></g><g class="edge"><path fill="none" stroke="#000" d="M83.05-307.89c24.6 2.4 68.8 9.97 96.95 33.89 11.76 10 19.6 25.34 24.57 38.62"/><path stroke="#000" d="M207.94-236.35l-.1 10.59-6.53-8.35 6.63-2.24z"/><text text-anchor="middle" x="237.5" y="-255.3" font-family="Times,serif" font-size="14">a &amp; b &amp; !c</text></g><g class="node"><circle fill="none" stroke="#000" cx="43" cy="-208" r="18"/><text text-anchor="middle" x="43" y="-204.3" font-family="Times,serif" font-size="14">2</text></g><g class="edge"><path fill="none" stroke="#000" d="M51.73-297.8C45.36-291.54 38.39-283.16 35-274c-4.58 12.37-3.36 26.88-.67 39.05"/><path stroke="#000" d="M37.8-235.54l-.82 10.56-5.95-8.77 6.77-1.79z"/><text text-anchor="middle" x="57" y="-255.3" font-family="Times,serif" font-size="14">a &amp; !c</text></g><g class="edge"><path fill="none" stroke="#000" d="M109.66-41.38c9.96-1.64 19.34.82 19.34 7.38 0 4.2-3.85 6.72-9.23 7.56"/><path stroke="#000" d="M119.6-22.94l-9.94-3.68 10.06-3.32-.12 7z"/><text text-anchor="middle" x="143" y="-37.8" font-family="Times,serif" font-size="14">1</text><text text-anchor="middle" x="143" y="-22.8" font-family="Times,serif" font-size="14">{0}</text></g><g class="node"><circle fill="none" stroke="#000" cx="93" cy="-121" r="18"/><text text-anchor="middle" x="93" y="-117.3" font-family="Times,serif" font-size="14">4</text></g><g class="edge"><path fill="none" stroke="#000" d="M93-102.8v40.56"/><path stroke="#000" d="M96.5-62.18l-3.5 10-3.5-10h7z"/><text text-anchor="middle" x="100.5" y="-73.8" font-family="Times,serif" font-size="14">!a</text></g><g class="edge"><path fill="none" stroke="#000" d="M109.66-128.38c9.96-1.64 19.34.82 19.34 7.38 0 4.2-3.85 6.72-9.23 7.56"/><path stroke="#000" d="M119.6-109.94l-9.94-3.68 10.06-3.32-.12 7z"/><text text-anchor="middle" x="133.5" y="-117.3" font-family="Times,serif" font-size="14">a</text></g><g class="edge"><path fill="none" stroke="#000" d="M228.66-215.38c9.96-1.64 19.34.82 19.34 7.38 0 4.2-3.85 6.72-9.23 7.56"/><path stroke="#000" d="M238.6-196.94l-9.94-3.68 10.06-3.32-.12 7z"/><text text-anchor="middle" x="262" y="-211.8" font-family="Times,serif" font-size="14">b</text><text text-anchor="middle" x="262" y="-196.8" font-family="Times,serif" font-size="14">{0}</text></g><g class="edge"><path fill="none" stroke="#000" d="M57.74-218.79C65.66-224.97 74.66-233.72 79-244c5.42-12.84 2.62-28.02-1.86-40.49"/><path stroke="#000" d="M73.87-283.22l-.56-10.58 7.04 7.92-6.48 2.66z"/><text text-anchor="middle" x="106" y="-262.8" font-family="Times,serif" font-size="14">!a &amp; !c</text><text text-anchor="middle" x="106" y="-247.8" font-family="Times,serif" font-size="14">{0}</text></g><g class="edge"><path fill="none" stroke="#000" d="M34.04-192.16C21.92-170.03 3.51-127.49 19-95c10.09 21.16 31.69 37.29 48.97 47.46"/><path stroke="#000" d="M69.98-50.42l7.04 7.92-10.44-1.81 3.4-6.11z"/><text text-anchor="middle" x="41" y="-117.3" font-family="Times,serif" font-size="14">!a &amp; c</text></g><g class="edge"><path fill="none" stroke="#000" d="M51.71-192.19c7.55 12.84 18.62 31.65 27.4 46.57"/><path stroke="#000" d="M82.17-147.32l2.05 10.4-8.08-6.85 6.03-3.55z"/><text text-anchor="middle" x="89" y="-160.8" font-family="Times,serif" font-size="14">a &amp; c</text></g><g class="edge"><path fill="none" stroke="#000" d="M59.66-215.38c9.96-1.64 19.34.82 19.34 7.38 0 4.2-3.85 6.72-9.23 7.56"/><path stroke="#000" d="M69.6-196.94l-9.94-3.68 10.06-3.32-.12 7z"/><text text-anchor="middle" x="101" y="-204.3" font-family="Times,serif" font-size="14">a &amp; !c</text></g></g></svg>