<svg width="598pt" height="374pt" viewBox="0 0 598 374" xmlns="http://www.w3.org/2000/svg"><g class="graph"><path fill="#fff" stroke="transparent" d="M0 374V0h598v374H0z"/><text text-anchor="middle" x="295" y="-350.8" font-family="Times,serif" font-size="14" transform="translate(4 370)">(Inf(0)&amp;Inf(1)) &amp; Fin(2)</text><text text-anchor="middle" x="295" y="-335.8" font-family="Times,serif" font-size="14" transform="translate(4 370)">[Streett-like 3]</text><g class="cluster" transform="translate(4 370)"><path fill="none" stroke="gray" d="M412-153v-102h170v102H412z"/></g><g class="cluster" transform="translate(4 370)"><path fill="none" stroke="gray" d="M312-172v-148h52v148h-52z"/></g><g class="cluster" transform="translate(4 370)"><path fill="none" stroke="green" d="M412-8v-117h170V-8H412z"/></g><g class="cluster" transform="translate(4 370)"><path fill="none" stroke="green" d="M312-16v-148h52v148h-52z"/></g><g class="cluster" transform="translate(4 370)"><path fill="none" stroke="#000" d="M230-86v-52h52v52h-52z"/></g><g class="cluster" transform="translate(4 370)"><path fill="none" stroke="red" d="M148-86v-100h52v100h-52z"/></g><g class="cluster" transform="translate(4 370)"><path fill="none" stroke="green" d="M30-194v-102h170v102H30z"/></g><g class="node" transform="translate(4 370)"><circle fill="none" stroke="#000" cx="56" cy="-220" r="18"/><text text-anchor="middle" x="56" y="-216.3" font-family="Times,serif" font-size="14">1</text></g><g class="edge" transform="translate(4 370)"><path fill="none" stroke="#000" d="M1.15-220h26.48"/><path stroke="#000" d="M27.94-223.5l10 3.5-10 3.5v-7z"/></g><g class="node" transform="translate(4 370)"><circle fill="none" stroke="#000" cx="174" cy="-112" r="18"/><text text-anchor="middle" x="174" y="-108.3" font-family="Times,serif" font-size="14">4</text></g><g class="edge" transform="translate(4 370)"><path fill="none" stroke="#000" d="M69.86-208.03c20.03 18.65 58.87 54.81 82.75 77.04"/><path stroke="#000" d="M155.15-133.4l4.94 9.38-9.71-4.26 4.77-5.12z"/><text text-anchor="middle" x="115" y="-188.8" font-family="Times,serif" font-size="14">b</text></g><g class="node" transform="translate(4 370)"><circle fill="none" stroke="#000" cx="174" cy="-239" r="18"/><text text-anchor="middle" x="174" y="-235.3" font-family="Times,serif" font-size="14">3</text></g><g class="edge" transform="translate(4 370)"><path fill="none" stroke="#000" d="M74.04-217.97c16.6 1.46 42.4 2.33 63.96-3.03 3.73-.93 7.52-2.32 11.15-3.92"/><path stroke="#000" d="M147.76-228.14l10.51-1.36-7.36 7.61-3.15-6.25z"/><text text-anchor="middle" x="115" y="-224.8" font-family="Times,serif" font-size="14">a &amp; !b</text></g><g class="node" transform="translate(4 370)"><circle fill="none" stroke="#000" cx="438" cy="-198" r="18"/><text text-anchor="middle" x="438" y="-194.3" font-family="Times,serif" font-size="14">5</text></g><g class="node" transform="translate(4 370)"><circle fill="none" stroke="#000" cx="556" cy="-204" r="18"/><text text-anchor="middle" x="556" y="-200.3" font-family="Times,serif" font-size="14">6</text></g><g class="edge" transform="translate(4 370)"><path fill="none" stroke="#000" d="M453.72-188.46c6.03 3.38 13.24 6.76 20.28 8.46 19.87 4.81 26.47 6.05 46 0 4.76-1.48 9.45-3.85 13.78-6.54"/><path stroke="#000" d="M531.85-189.46l10.2-2.87-6.19 8.6-4.01-5.73z"/><text text-anchor="middle" x="497" y="-198.8" font-family="Times,serif" font-size="14">1</text><text text-anchor="middle" x="497" y="-183.8" font-family="Times,serif" font-size="14">{1}</text></g><g class="edge" transform="translate(4 370)"><path fill="none" stroke="#000" d="M538.14-207.57c-16.46-2.95-42.16-6.09-64.14-2.43-3.13.52-6.36 1.29-9.52 2.19"/><path stroke="#000" d="M465.33-204.41l-10.59-.22 8.42-6.44 2.17 6.66z"/><text text-anchor="middle" x="497" y="-214.8" font-family="Times,serif" font-size="14">1</text></g><g class="node" transform="translate(4 370)"><circle fill="none" stroke="#000" cx="338" cy="-198" r="18"/><text text-anchor="middle" x="338" y="-194.3" font-family="Times,serif" font-size="14">0</text></g><g class="edge" transform="translate(4 370)"><path fill="none" stroke="#000" d="M356.07-198h53.7"/><path stroke="#000" d="M409.8-201.5l10 3.5-10 3.5v-7z"/><text text-anchor="middle" x="388" y="-216.8" font-family="Times,serif" font-size="14">a</text><text text-anchor="middle" x="388" y="-201.8" font-family="Times,serif" font-size="14">{2}</text></g><g class="edge" transform="translate(4 370)"><path fill="none" stroke="#000" d="M334.4-215.78c-.61-9.53.59-18.22 3.6-18.22 1.83 0 2.99 3.23 3.48 7.9"/><path stroke="#000" d="M344.99-225.82l-3.39 10.04-3.61-9.96 7-.08z"/><text text-anchor="middle" x="338" y="-252.8" font-family="Times,serif" font-size="14">a &amp; b</text><text text-anchor="middle" x="338" y="-237.8" font-family="Times,serif" font-size="14">{0,1,2}</text></g><g class="edge" transform="translate(4 370)"><path fill="none" stroke="#000" d="M332.49-215.25c-3.9-21.18-2.07-48.75 5.51-48.75 6.42 0 8.72 19.81 6.89 38.74"/><path stroke="#000" d="M348.34-224.67l-4.83 9.42-2.1-10.38 6.93.96z"/><text text-anchor="middle" x="338" y="-282.8" font-family="Times,serif" font-size="14">!a &amp; !b</text><text text-anchor="middle" x="338" y="-267.8" font-family="Times,serif" font-size="14">{2}</text></g><g class="node" transform="translate(4 370)"><circle fill="none" stroke="#000" cx="438" cy="-42" r="18"/><text text-anchor="middle" x="438" y="-38.3" font-family="Times,serif" font-size="14">8</text></g><g class="edge" transform="translate(4 370)"><path fill="none" stroke="#000" d="M429.37-57.92C427.11-68.15 429.99-78 438-78c5.26 0 8.3 4.24 9.14 10.05"/><path stroke="#000" d="M450.63-67.73l-4 9.81-2.99-10.16 6.99.35z"/><text text-anchor="middle" x="438" y="-96.8" font-family="Times,serif" font-size="14">!a &amp; b</text><text text-anchor="middle" x="438" y="-81.8" font-family="Times,serif" font-size="14">{0,2}</text></g><g class="node" transform="translate(4 370)"><circle fill="none" stroke="#000" cx="556" cy="-42" r="18"/><text text-anchor="middle" x="556" y="-38.3" font-family="Times,serif" font-size="14">9</text></g><g class="edge" transform="translate(4 370)"><path fill="none" stroke="#000" d="M455.63-37.98c5.78 1.22 12.33 2.38 18.37 2.98 20.34 2.01 25.66 2.01 46 0 2.74-.27 5.58-.66 8.41-1.11"/><path stroke="#000" d="M527.89-39.58l10.48 1.6-9.19 5.28-1.29-6.88z"/><text text-anchor="middle" x="497" y="-53.8" font-family="Times,serif" font-size="14">a &amp; b</text><text text-anchor="middle" x="497" y="-38.8" font-family="Times,serif" font-size="14">{0,1}</text></g><g class="edge" transform="translate(4 370)"><path fill="none" stroke="#000" d="M541.64-53.43C535.48-57.97 527.8-62.67 520-65c-19.59-5.86-26.41-5.86-46 0-4.51 1.35-8.98 3.49-13.14 5.93"/><path stroke="#000" d="M462.63-56.04l-10.27 2.61 6.4-8.44 3.87 5.83z"/><text text-anchor="middle" x="497" y="-87.8" font-family="Times,serif" font-size="14">!a &amp; b</text><text text-anchor="middle" x="497" y="-72.8" font-family="Times,serif" font-size="14">{0,1}</text></g><g class="edge" transform="translate(4 370)"><path fill="none" stroke="#000" d="M546.19-57.17C543.21-67.66 546.48-78 556-78c6.24 0 9.8 4.45 10.67 10.48"/><path stroke="#000" d="M570.12-66.85l-4.31 9.68-2.66-10.25 6.97.57z"/><text text-anchor="middle" x="556" y="-96.8" font-family="Times,serif" font-size="14">a &amp; b</text><text text-anchor="middle" x="556" y="-81.8" font-family="Times,serif" font-size="14">{0,2}</text></g><g class="node" transform="translate(4 370)"><circle fill="none" stroke="#000" cx="338" cy="-42" r="18"/><text text-anchor="middle" x="338" y="-38.3" font-family="Times,serif" font-size="14">7</text></g><g class="edge" transform="translate(4 370)"><path fill="none" stroke="#000" d="M356.07-42h53.7"/><path stroke="#000" d="M409.8-45.5l10 3.5-10 3.5v-7z"/><text text-anchor="middle" x="388" y="-45.8" font-family="Times,serif" font-size="14">1</text></g><g class="edge" transform="translate(4 370)"><path fill="none" stroke="#000" d="M334.4-59.78c-.61-9.53.59-18.22 3.6-18.22 1.83 0 2.99 3.23 3.48 7.9"/><path stroke="#000" d="M344.99-69.82l-3.39 10.04-3.61-9.96 7-.08z"/><text text-anchor="middle" x="338" y="-96.8" font-family="Times,serif" font-size="14">!a &amp; b</text><text text-anchor="middle" x="338" y="-81.8" font-family="Times,serif" font-size="14">{0,2}</text></g><g class="edge" transform="translate(4 370)"><path fill="none" stroke="#000" d="M332.49-59.25C328.59-80.43 330.42-108 338-108c6.42 0 8.72 19.81 6.89 38.74"/><path stroke="#000" d="M348.34-68.67l-4.83 9.42-2.1-10.38 6.93.96z"/><text text-anchor="middle" x="338" y="-126.8" font-family="Times,serif" font-size="14">a &amp; b</text><text text-anchor="middle" x="338" y="-111.8" font-family="Times,serif" font-size="14">{0,1}</text></g><g class="node" transform="translate(4 370)"><circle fill="none" stroke="#000" cx="256" cy="-112" r="18"/><text text-anchor="middle" x="256" y="-108.3" font-family="Times,serif" font-size="14">2</text></g><g class="edge" transform="translate(4 370)"><path fill="none" stroke="#000" d="M268.8-124.69c13-13.97 34.08-36.63 49.37-53.07"/><path stroke="#000" d="M315.77-180.32l9.38-4.94-4.25 9.71-5.13-4.77z"/><text text-anchor="middle" x="297" y="-163.8" font-family="Times,serif" font-size="14">a</text></g><g class="edge" transform="translate(4 370)"><path fill="none" stroke="#000" d="M270.21-100.44c12.51 10.94 31.48 27.54 46.01 40.26"/><path stroke="#000" d="M318.55-62.8l5.22 9.22-9.83-3.95 4.61-5.27z"/><text text-anchor="middle" x="297" y="-84.8" font-family="Times,serif" font-size="14">b</text></g><g class="edge" transform="translate(4 370)"><path fill="none" stroke="#000" d="M192.36-112h35.42"/><path stroke="#000" d="M227.95-115.5l10 3.5-10 3.5v-7z"/><text text-anchor="middle" x="215" y="-115.8" font-family="Times,serif" font-size="14">b</text></g><g class="edge" transform="translate(4 370)"><path fill="none" stroke="#000" d="M166.97-128.66c-1.56-9.96.78-19.34 7.03-19.34 4 0 6.4 3.85 7.2 9.23"/><path stroke="#000" d="M184.7-138.6l-3.67 9.94-3.33-10.06 7 .12z"/><text text-anchor="middle" x="174" y="-166.8" font-family="Times,serif" font-size="14">!b</text><text text-anchor="middle" x="174" y="-151.8" font-family="Times,serif" font-size="14">{1,2}</text></g><g class="edge" transform="translate(4 370)"><path fill="none" stroke="#000" d="M155.99-240.27c-16.57-.8-42.36-.86-63.99 4.27-3.49.83-7.05 2.01-10.5 3.36"/><path stroke="#000" d="M82.77-229.37l-10.56.84 7.73-7.25 2.83 6.41z"/><text text-anchor="middle" x="115" y="-258.8" font-family="Times,serif" font-size="14">a &amp; b</text><text text-anchor="middle" x="115" y="-243.8" font-family="Times,serif" font-size="14">{0,1}</text></g></g></svg>