<?xml-stylesheet href="spot.css" type="text/css"?><svg width="247pt" height="151pt" viewBox="0 0 247 151" xmlns="http://www.w3.org/2000/svg" xmlns:xlink="http://www.w3.org/1999/xlink"><g id="iddemo" class="graph" transform="translate(4 147)"><path fill="#fff" stroke="transparent" d="M-4 4v-151h247V4H-4z"/><text x="16.5" y="-130.4" font-family="Lato" font-size="12">(Inf(</text><text x="41.5" y="-130.4" font-family="Lato" font-size="12" fill="#1f78b4">⓿</text><text x="54.5" y="-130.4" font-family="Lato" font-size="12">)&amp;Inf(</text><text x="88.5" y="-130.4" font-family="Lato" font-size="12" fill="#ff4da0">❶</text><text x="99.5" y="-130.4" font-family="Lato" font-size="12">)) | (Fin(</text><text x="145.5" y="-130.4" font-family="Lato" font-size="12" fill="#1f78b4">⓿</text><text x="158.5" y="-130.4" font-family="Lato" font-size="12">) &amp; Fin(</text><text x="201.5" y="-130.4" font-family="Lato" font-size="12" fill="#ff4da0">❶</text><text x="212.5" y="-130.4" font-family="Lato" font-size="12">))</text><g id="S0" class="node"><circle fill="#ffffa0" stroke="#000" cx="56" cy="-18" r="18"/><text text-anchor="middle" x="56" y="-14.9" font-family="Lato" font-size="12">0</text></g><g id="iddemo_edge1" class="edge"><path fill="none" stroke="#000" d="M1.15-18h29.48"/><path stroke="#000" d="M37.94-18l-7-3.15 3.5 3.15h-3.5 3.5l-3.5 3.15 7-3.15h0z"/></g><g id="S1" class="node"><circle fill="#ffffa0" stroke="#000" cx="136" cy="-18" r="18"/><text text-anchor="middle" x="136" y="-14.9" font-family="Lato" font-size="12">1</text></g><g id="E1" class="edge"><a xlink:title="0-&gt;1 #1" id="a_E1"><path fill="none" stroke="#000" d="M74.31-18h36.4"/><path stroke="#000" d="M117.74-18l-7-3.15 3.5 3.15h-3.5 3.5l-3.5 3.15 7-3.15h0z"/></a><text text-anchor="middle" x="96" y="-21.4" font-family="Lato" font-size="12">1</text></g><g id="E2" class="edge"><a xlink:title="1-&gt;1 #2" id="a_E2"><path fill="none" stroke="#000" d="M132.4-35.78c-.61-9.53.59-18.22 3.6-18.22 2.21 0 3.44 4.68 3.7 10.95"/><path stroke="#000" d="M139.6-35.78l3.25-6.96-3.2 3.46.05-3.5h0l-.05 3.5-3.1-3.55 3.05 7.05h0z"/></a><text x="117.5" y="-70.4" font-family="Lato" font-size="12">!a &amp; b</text><text x="129.5" y="-57.4" font-family="Lato" font-size="12" fill="#1f78b4">⓿</text></g><g id="E3" class="edge"><a xlink:title="1-&gt;1 #3" id="a_E3"><path fill="none" stroke="#000" d="M130.38-35.28C126.62-55.25 128.5-80 136-80c6.62 0 8.86 19.29 6.71 37.55"/><path stroke="#000" d="M141.62-35.28l4.17-6.45-3.64 2.99.52-3.46h0l-.52 3.46-2.59-3.93 2.06 7.39h0z"/></a><text x="120" y="-95.4" font-family="Lato" font-size="12">a &amp; b</text><text x="124" y="-83.4" font-family="Lato" font-size="12" fill="#1f78b4">⓿</text><text x="137" y="-83.4" font-family="Lato" font-size="12" fill="#ff4da0">❶</text></g><g id="S2" class="node"><circle fill="#ffffa0" stroke="#000" cx="221" cy="-18" r="18"/><text text-anchor="middle" x="221" y="-14.9" font-family="Lato" font-size="12">2</text></g><g id="E4" class="edge"><a xlink:title="1-&gt;2 #4" id="a_E4"><path fill="none" stroke="#000" d="M154.2-18h41.56"/><path stroke="#000" d="M202.82-18l-7-3.15 3.5 3.15h-3.5 3.5l-3.5 3.15 7-3.15h0z"/></a><text x="172" y="-21.4" font-family="Lato" font-size="12">!b</text></g><g id="E5" class="edge"><a xlink:title="2-&gt;2 #5" id="a_E5"><path fill="none" stroke="#000" d="M217.22-35.78c-.64-9.53.62-18.22 3.78-18.22 2.32 0 3.61 4.68 3.88 10.95"/><path stroke="#000" d="M224.78-35.78l3.25-6.95-3.2 3.45.05-3.5h0l-.05 3.5-3.1-3.55 3.05 7.05h0z"/></a><text x="214.5" y="-57.4" font-family="Lato" font-size="12">!a</text></g><g id="E6" class="edge"><a xlink:title="2-&gt;2 #6" id="a_E6"><path fill="none" stroke="#000" d="M214.86-35.14C211.24-52.58 213.29-72 221-72c6.69 0 9.12 14.6 7.29 29.85"/><path stroke="#000" d="M227.14-35.14l4.24-6.4-3.67 2.94.56-3.45h0l-.56 3.45-2.55-3.96 1.98 7.42h0z"/></a><text x="217" y="-88.4" font-family="Lato" font-size="12">a</text><text x="215.5" y="-75.4" font-family="Lato" font-size="12" fill="#ff4da0">❶</text></g></g></svg>