<?xml-stylesheet href="spot.css" type="text/css"?><svg width="496" height="155pt" viewBox="0 0 372 155.23" xmlns="http://www.w3.org/2000/svg"><g class="graph"><path fill="#fff" stroke="transparent" d="M0 155.23V0h372v155.23H0z"/><text x="160.5" y="-133.63" font-family="Lato" font-size="12" transform="translate(4 151.23)">[Büchi]</text><g class="node" transform="translate(4 151.23)"><circle fill="#ffffa0" stroke="#000" cx="56" cy="-55.23" r="18"/><text text-anchor="middle" x="56" y="-52.13" font-family="Lato" font-size="12">0</text></g><g class="edge" transform="translate(4 151.23)"><path fill="none" stroke="#000" d="M1.15-55.23h29.48"/><path stroke="#000" d="M37.94-55.23l-7-3.15 3.5 3.15h-3.5 3.5l-3.5 3.15 7-3.15h0z"/></g><g class="node" transform="translate(4 151.23)"><circle fill="#ffffa0" stroke="#000" cx="336" cy="-47.23" r="18"/><circle fill="none" stroke="#000" cx="336" cy="-47.23" r="22"/><text text-anchor="middle" x="336" y="-44.13" font-family="Lato" font-size="12">1</text></g><g class="edge" transform="translate(4 151.23)"><path fill="none" stroke="#000" d="M71.34-65.05c20.09-13.11 58.26-35.66 94.66-44.18 24.23-5.67 31.89-6.18 56 0 33.68 8.63 68.11 29.63 89.97 44.8"/><path stroke="#000" d="M317.79-60.32l-3.91-6.61 1.05 4.59-2.86-2.02h0l2.86 2.02-4.68.55 7.54 1.47h0z"/><text x="166" y="-116.63" font-family="Lato" font-size="12">!p0 &amp; !p1</text></g><g class="node" transform="translate(4 151.23)"><circle fill="#ffffa0" stroke="#000" cx="194" cy="-47.23" r="18"/><circle fill="none" stroke="#000" cx="194" cy="-47.23" r="22"/><text text-anchor="middle" x="194" y="-44.13" font-family="Lato" font-size="12">2</text></g><g class="edge" transform="translate(4 151.23)"><path fill="none" stroke="#000" d="M74.12-54.71c18.3.62 48.16 1.77 73.88 3.48 5.38.36 11.12.81 16.63 1.28"/><path stroke="#000" d="M171.95-49.3l-6.69-3.75 3.21 3.44-3.49-.31h0l3.49.31-3.77 2.83 7.25-2.52h0z"/><text x="92" y="-56.63" font-family="Lato" font-size="12">!p0 &amp; !p1</text></g><g class="edge" transform="translate(4 151.23)"><path fill="none" stroke="#000" d="M316.05-37.33C294.11-26.47 256.55-9.72 222-3.23c-24.46 4.59-31.39 3.73-56 0-34.05-5.17-43.72-6.59-74-23-6.01-3.26-11.96-7.63-17.21-12"/><path stroke="#000" d="M69.41-42.9l3.22 6.97-.58-4.68 2.64 2.3h0l-2.64-2.3 4.71-.08-7.35-2.21h0z"/><text x="170.5" y="-6.63" font-family="Lato" font-size="12">p0 &amp; p1</text></g><g class="edge" transform="translate(4 151.23)"><path fill="none" stroke="#000" d="M324.05-65.75c-2.66-11.06 1.33-21.48 11.95-21.48 8.3 0 12.55 6.36 12.74 14.42"/><path stroke="#000" d="M347.95-65.75l3.91-6.6-3.52 3.12.39-3.47h0l-.39 3.47-2.74-3.82 2.35 7.3h0z"/><text x="308" y="-90.63" font-family="Lato" font-size="12">!p0 &amp; !p1</text></g><g class="edge" transform="translate(4 151.23)"><path fill="none" stroke="#000" d="M172.93-40.05c-20.62 6.32-53.5 13.42-80.93 5.82-5.16-1.43-10.33-3.85-15.05-6.55"/><path stroke="#000" d="M70.84-44.56l4.29 6.36-1.32-4.52 2.98 1.84h0l-2.98-1.84 4.64-.83-7.61-1.01h0z"/><text x="96.5" y="-37.63" font-family="Lato" font-size="12">p0 &amp; p1</text></g><g class="edge" transform="translate(4 151.23)"><path fill="none" stroke="#000" d="M216.26-47.23h90.56"/><path stroke="#000" d="M314-47.23l-7-3.15 3.5 3.15H307h3.5l-3.5 3.15 7-3.15h0z"/><text x="240" y="-50.63" font-family="Lato" font-size="12">!p0 &amp; !p1</text></g><g class="edge" transform="translate(4 151.23)"><path fill="none" stroke="#000" d="M181.1-65.33c-3.11-11.22 1.19-21.9 12.9-21.9 9.15 0 13.77 6.52 13.87 14.72"/><path stroke="#000" d="M206.9-65.33l4.06-6.51-3.59 3.04.47-3.47h0l-.47 3.47-2.65-3.89 2.18 7.36h0z"/><text x="168" y="-90.63" font-family="Lato" font-size="12">p0 &amp; !p1</text></g></g></svg>