<?xml-stylesheet href="spot.css" type="text/css"?><svg width="353pt" height="164pt" viewBox="0 0 353 164" xmlns="http://www.w3.org/2000/svg"><g class="graph"><path fill="#fff" stroke="transparent" d="M0 164V0h353v164H0z"/><text x="108" y="-143.4" font-family="Lato" font-size="12" transform="translate(4 160)">Inf(</text><text x="129" y="-143.4" font-family="Lato" font-size="12" fill="#1f78b4" transform="translate(4 160)">⓿</text><text x="142" y="-143.4" font-family="Lato" font-size="12" transform="translate(4 160)">)&amp;Inf(</text><text x="176" y="-143.4" font-family="Lato" font-size="12" fill="#ff4da0" transform="translate(4 160)">❶</text><text x="187" y="-143.4" font-family="Lato" font-size="12" transform="translate(4 160)">)&amp;Inf(</text><text x="221" y="-143.4" font-family="Lato" font-size="12" fill="#ff7f00" transform="translate(4 160)">❷</text><text x="232" y="-143.4" font-family="Lato" font-size="12" transform="translate(4 160)">)</text><text x="130.5" y="-131.4" font-family="Lato" font-size="12" transform="translate(4 160)">[gen. Büchi 3]</text><g class="node" transform="translate(4 160)"><circle fill="#ffffa0" stroke="#000" cx="56" cy="-18" r="18"/><text text-anchor="middle" x="56" y="-14.9" font-family="Lato" font-size="12">0</text></g><g class="edge" transform="translate(4 160)"><path fill="none" stroke="#000" d="M1.15-18h29.48"/><path stroke="#000" d="M37.94-18l-7-3.15 3.5 3.15h-3.5 3.5l-3.5 3.15 7-3.15h0z"/></g><g class="edge" transform="translate(4 160)"><path fill="none" stroke="#000" d="M49.62-35.04C48.32-44.86 50.45-54 56-54c4.17 0 6.4 5.14 6.71 11.86"/><path stroke="#000" d="M62.38-35.04l3.47-6.84-3.31 3.35.17-3.5h0l-.17 3.5-2.98-3.65 2.82 7.14h0z"/><text x="28" y="-70.4" font-family="Lato" font-size="12">!p0 &amp; !p1</text><text x="50.5" y="-57.4" font-family="Lato" font-size="12" fill="#ff7f00">❷</text></g><g class="node" transform="translate(4 160)"><circle fill="#ffffa0" stroke="#000" cx="189.5" cy="-64" r="18"/><text text-anchor="middle" x="189.5" y="-60.9" font-family="Lato" font-size="12">1</text></g><g class="edge" transform="translate(4 160)"><path fill="none" stroke="#000" d="M73.12-23.64c23.17-8.1 65.99-23.08 92.45-32.34"/><path stroke="#000" d="M172.24-58.31l-7.64-.67 4.34 1.82-3.3 1.16h0l3.3-1.16-2.26 4.13 5.56-5.28h0z"/><text x="92" y="-52.4" font-family="Lato" font-size="12">!p0 &amp; !p1</text></g><g class="edge" transform="translate(4 160)"><path fill="none" stroke="#000" d="M178.59-78.42c-3.81-10.75-.18-21.58 10.91-21.58 8.66 0 12.78 6.61 12.34 14.63"/><path stroke="#000" d="M200.41-78.42l4.5-6.22-3.79 2.8.7-3.43h0l-.7 3.43-2.38-4.07 1.67 7.49h0z"/><text x="163.5" y="-115.4" font-family="Lato" font-size="12">!p0 &amp; p1</text><text x="177.5" y="-103.4" font-family="Lato" font-size="12" fill="#1f78b4">⓿</text><text x="190.5" y="-103.4" font-family="Lato" font-size="12" fill="#ff4da0">❶</text></g><g class="node" transform="translate(4 160)"><circle fill="#ffffa0" stroke="#000" cx="319" cy="-35" r="18"/><text text-anchor="middle" x="319" y="-31.9" font-family="Lato" font-size="12">2</text></g><g class="edge" transform="translate(4 160)"><path fill="none" stroke="#000" d="M207.44-66.72c18.99-2.36 50.42-4.16 75.56 4.72 6.14 2.17 12.05 5.86 17.21 9.83"/><path stroke="#000" d="M305.9-47.45l-3.38-6.89.68 4.65-2.69-2.23h0l2.69 2.23-4.7.19 7.4 2.05h0z"/><text x="231" y="-84.4" font-family="Lato" font-size="12">!p0 &amp; p1</text><text x="251.5" y="-71.4" font-family="Lato" font-size="12" fill="#ff4da0">❶</text></g><g class="edge" transform="translate(4 160)"><path fill="none" stroke="#000" d="M301.73-29.44c-5.86 1.89-12.55 3.9-18.73 5.44-30.71 7.65-38.49 10.1-70 13-20.8 1.92-26.12.67-47 0-29.29-.94-62.93-3.3-85.01-5.02"/><path stroke="#000" d="M73.98-16.57l6.73 3.69-3.25-3.41 3.49.27h0l-3.49-.27 3.74-2.87-7.22 2.59h0z"/><text x="166" y="-27.4" font-family="Lato" font-size="12">p0 &amp; p1</text><text x="183" y="-14.4" font-family="Lato" font-size="12" fill="#1f78b4">⓿</text></g><g class="edge" transform="translate(4 160)"><path fill="none" stroke="#000" d="M301.44-30.96C283.53-27.39 254.41-23.87 231-32c-8.6-2.99-16.75-8.64-23.45-14.37"/><path stroke="#000" d="M202.28-51.15l3.07 7.03-.48-4.68 2.59 2.35h0l-2.59-2.35 4.71.02-7.3-2.37h0z"/><text x="231" y="-48.4" font-family="Lato" font-size="12">!p0 &amp; p1</text><text x="250.5" y="-35.4" font-family="Lato" font-size="12" fill="#1f78b4">⓿</text></g><g class="edge" transform="translate(4 160)"><path fill="none" stroke="#000" d="M308.63-49.79C305.25-60.42 308.71-71 319-71c7.88 0 11.75 6.2 11.62 13.88"/><path stroke="#000" d="M329.37-49.79l4.28-6.37-3.69 2.92.59-3.45h0l-.59 3.45-2.52-3.98 1.93 7.43h0z"/><text x="293" y="-87.4" font-family="Lato" font-size="12">!p0 &amp; p1</text><text x="312.5" y="-74.4" font-family="Lato" font-size="12" fill="#1f78b4">⓿</text></g></g></svg>