<?xml-stylesheet href="spot.css" type="text/css"?><svg width="364pt" height="208" viewBox="0 0 363.5 155.75" xmlns="http://www.w3.org/2000/svg"><g class="graph"><path fill="#fff" stroke="transparent" d="M0 155.75V0h363.5v155.75H0z"/><text x="175.25" y="-134.15" font-family="Lato" font-size="12" transform="translate(4 151.75)">t</text><text x="166.25" y="-121.15" font-family="Lato" font-size="12" transform="translate(4 151.75)">[all]</text><g class="node" transform="translate(4 151.75)"><circle fill="#ffffa0" stroke="#000" cx="56" cy="-21.75" r="18"/><text text-anchor="middle" x="56" y="-18.65" font-family="Lato" font-size="12">0</text></g><g class="edge" transform="translate(4 151.75)"><path fill="none" stroke="#000" d="M1.15-21.75h29.48"/><path stroke="#000" d="M37.94-21.75l-7-3.15 3.5 3.15h-3.5 3.5l-3.5 3.15 7-3.15h0z"/></g><g class="edge" transform="translate(4 151.75)"><path fill="none" stroke="#000" d="M49.62-38.79c-1.3-9.82.83-18.96 6.38-18.96 4.17 0 6.4 5.14 6.71 11.86"/><path stroke="#000" d="M62.38-38.79l3.47-6.84-3.31 3.35.17-3.5h0l-.17 3.5-2.98-3.65 2.82 7.14h0z"/><text x="28" y="-61.15" font-family="Lato" font-size="12">!p0 &amp; !p1</text></g><g class="node" transform="translate(4 151.75)"><circle fill="#ffffa0" stroke="#000" cx="194" cy="-64.75" r="18"/><text text-anchor="middle" x="194" y="-61.65" font-family="Lato" font-size="12">2</text></g><g class="edge" transform="translate(4 151.75)"><path fill="none" stroke="#000" d="M68.3-35.01C74.59-41.47 82.96-48.7 92-52.75c24.5-10.99 55.53-13.15 76.69-13.1"/><path stroke="#000" d="M175.74-65.75L168.78-69l3.46 3.2-3.5-.05h0l3.5.05-3.55 3.1 7.05-3.05h0z"/><text x="92" y="-68.15" font-family="Lato" font-size="12">!p0 &amp; !p1</text></g><g class="node" transform="translate(4 151.75)"><circle fill="#ffffa0" stroke="#000" cx="332" cy="-21.75" r="18"/><text text-anchor="middle" x="332" y="-18.65" font-family="Lato" font-size="12">1</text></g><g class="edge" transform="translate(4 151.75)"><path fill="none" stroke="#000" d="M74.08-20.58c5.7.34 12.08.66 17.92.83 78.45 2.24 171.44.08 214.66-1.2"/><path stroke="#000" d="M313.9-21.17l-7.1-2.94 3.6 3.04-3.5.11h0l3.5-.11-3.4 3.26 6.9-3.36h0z"/><text x="166" y="-22.15" font-family="Lato" font-size="12">!p0 &amp; !p1</text></g><g class="edge" transform="translate(4 151.75)"><path fill="none" stroke="#000" d="M179.24-53.7c-8.52 6.26-19.94 13.67-31.24 17.95-21.64 8.21-47.91 11.61-66.65 13.02"/><path stroke="#000" d="M74.31-22.27l7.2 2.68-3.7-2.91 3.49-.23h0l-3.49.23 3.28-3.37-6.78 3.6h0z"/><text x="94" y="-39.15" font-family="Lato" font-size="12">p0 &amp; !p1</text></g><g class="edge" transform="translate(4 151.75)"><path fill="none" stroke="#000" d="M182.08-78.42c-4.77-10.98-.8-22.33 11.92-22.33 9.94 0 14.54 6.93 13.8 15.19"/><path stroke="#000" d="M205.92-78.42l4.83-5.97-3.94 2.59.89-3.39h0l-.89 3.39-2.16-4.19 1.27 7.57h0z"/><text x="168" y="-104.15" font-family="Lato" font-size="12">p0 &amp; !p1</text></g><g class="edge" transform="translate(4 151.75)"><path fill="none" stroke="#000" d="M212.26-65.75c20.8-.54 56.35.72 83.74 13 6.78 3.04 13.18 7.87 18.61 12.82"/><path stroke="#000" d="M319.7-35.01l-2.84-7.13.32 4.7-2.51-2.44h0l2.51 2.44-4.7-.18 7.22 2.61h0z"/><text x="240" y="-68.15" font-family="Lato" font-size="12">!p0 &amp; !p1</text></g><g class="edge" transform="translate(4 151.75)"><path fill="none" stroke="#000" d="M314.14-17.63C292.84-12.66 254.97-4.62 222-1.75c-57.85 5.04-72.93-2.28-130-13-3.64-.68-7.48-1.43-11.24-2.17"/><path stroke="#000" d="M73.72-18.32l6.25 4.46-2.82-3.78 3.43.69h0l-3.43-.69 4.05-2.4-7.48 1.72h0z"/><text x="168" y="-5.15" font-family="Lato" font-size="12">p0 &amp; !p1</text></g><g class="edge" transform="translate(4 151.75)"><path fill="none" stroke="#000" d="M313.8-23.53c-18.63-2.3-49-7.13-73.8-16.22-8.22-3.01-16.75-7.38-24.13-11.63"/><path stroke="#000" d="M209.44-55.2l4.41 6.29-1.4-4.5 3.01 1.79h0l-3.01-1.79 4.62-.92-7.63-.87h0z"/><text x="242" y="-43.15" font-family="Lato" font-size="12">p0 &amp; !p1</text></g><g class="edge" transform="translate(4 151.75)"><path fill="none" stroke="#000" d="M321.29-36.54c-3.48-10.62.09-21.21 10.71-21.21 8.13 0 12.13 6.21 12 13.88"/><path stroke="#000" d="M342.71-36.54l4.31-6.35-3.71 2.9.61-3.44h0l-.61 3.44-2.49-3.99 1.89 7.44h0z"/><text x="308.5" y="-61.15" font-family="Lato" font-size="12">p0 &amp; p1</text></g></g></svg>