<?xml-stylesheet href="spot.css" type="text/css"?><svg width="464" height="109pt" viewBox="0 0 348 109" xmlns="http://www.w3.org/2000/svg"><g class="graph"><path fill="#fff" stroke="transparent" d="M0 109V0h348v109H0z"/><text x="167.5" y="-87.4" font-family="Lato" font-size="12" transform="translate(4 105)">t</text><text x="158.5" y="-74.4" font-family="Lato" font-size="12" transform="translate(4 105)">[all]</text><g class="node" transform="translate(4 105)"><circle fill="#ffffa0" stroke="#000" cx="56" cy="-18" r="18"/><text text-anchor="middle" x="56" y="-14.9" font-family="Lato" font-size="12">0</text></g><g class="edge" transform="translate(4 105)"><path fill="none" stroke="#000" d="M1.15-18h29.48"/><path stroke="#000" d="M37.94-18l-7-3.15 3.5 3.15h-3.5 3.5l-3.5 3.15 7-3.15h0z"/></g><g class="node" transform="translate(4 105)"><circle fill="#ffffa0" stroke="#000" cx="184" cy="-18" r="18"/><text text-anchor="middle" x="184" y="-14.9" font-family="Lato" font-size="12">2</text></g><g class="edge" transform="translate(4 105)"><path fill="none" stroke="#000" d="M74.26-18h84.46"/><path stroke="#000" d="M165.95-18l-7-3.15 3.5 3.15h-3.5 3.5l-3.5 3.15 7-3.15h0z"/><text x="92" y="-21.4" font-family="Lato" font-size="12">!p0 &amp; !p1</text></g><g class="node" transform="translate(4 105)"><circle fill="#ffffa0" stroke="#000" cx="312" cy="-18" r="18"/><text text-anchor="middle" x="312" y="-14.9" font-family="Lato" font-size="12">1</text></g><g class="edge" transform="translate(4 105)"><path fill="none" stroke="#000" d="M202.26-18h84.46"/><path stroke="#000" d="M293.95-18l-7-3.15 3.5 3.15h-3.5 3.5l-3.5 3.15 7-3.15h0z"/><text x="220" y="-21.4" font-family="Lato" font-size="12">!p0 &amp; !p1</text></g><g class="edge" transform="translate(4 105)"><path fill="none" stroke="#000" d="M301.29-32.79C297.81-43.42 301.38-54 312-54c8.13 0 12.13 6.2 12 13.88"/><path stroke="#000" d="M322.71-32.79l4.31-6.35-3.71 2.9.61-3.45h0l-.61 3.45-2.49-3.99 1.89 7.44h0z"/><text x="284" y="-57.4" font-family="Lato" font-size="12">!p0 &amp; !p1</text></g></g></svg>