<?xml-stylesheet href="spot.css" type="text/css"?><svg width="1087pt" height="590pt" viewBox="0 0 1087 590" xmlns="http://www.w3.org/2000/svg"><g class="graph"><path fill="#fff" stroke="transparent" d="M0 590V0h1087v590H0z"/><text x="537" y="-568.4" font-family="Lato" font-size="12" transform="translate(4 586)">t</text><text x="528" y="-555.4" font-family="Lato" font-size="12" transform="translate(4 586)">[all]</text><g class="node" transform="translate(4 586)"><circle fill="#ffffa0" stroke="#000" cx="56" cy="-394" r="18"/><text text-anchor="middle" x="56" y="-390.9" font-family="Lato" font-size="12">0</text></g><g class="edge" transform="translate(4 586)"><path fill="none" stroke="#000" d="M1.15-394h29.48"/><path stroke="#000" d="M37.94-394l-7-3.15 3.5 3.15h-3.5 3.5l-3.5 3.15 7-3.15h0z"/></g><g class="node" transform="translate(4 586)"><circle fill="#ffffa0" stroke="#000" cx="171.5" cy="-294" r="18"/><text text-anchor="middle" x="171.5" y="-290.9" font-family="Lato" font-size="12">8</text></g><g class="edge" transform="translate(4 586)"><path fill="none" stroke="#000" d="M70.02-382.53c20.08 17.69 58.68 51.7 81.75 72.03"/><path stroke="#000" d="M157.28-305.65l-3.17-6.99.55 4.68-2.63-2.31h0l2.63 2.31-4.71.05 7.33 2.26h0z"/><text x="92" y="-364.4" font-family="Lato" font-size="12">!a &amp; !b</text></g><g class="node" transform="translate(4 586)"><circle fill="#ffffa0" stroke="#000" cx="283" cy="-294" r="18"/><text text-anchor="middle" x="283" y="-290.9" font-family="Lato" font-size="12">3</text></g><g class="edge" transform="translate(4 586)"><path fill="none" stroke="#000" d="M74.02-391.94c15.69 2.26 39.42 6.57 58.98 13.94 49.08 18.5 101.37 51.46 129.07 70.12"/><path stroke="#000" d="M267.92-303.9l-4.02-6.54 1.13 4.57-2.9-1.97h0l2.9 1.97-4.67.64 7.56 1.33h0z"/><text x="151" y="-373.4" font-family="Lato" font-size="12">!a &amp; !b</text></g><g class="node" transform="translate(4 586)"><circle fill="#ffffa0" stroke="#000" cx="1061" cy="-426" r="18"/><text text-anchor="middle" x="1061" y="-422.9" font-family="Lato" font-size="12">4</text></g><g class="edge" transform="translate(4 586)"><path fill="none" stroke="#000" d="M57.33-412.08c1.46-25.53 7.92-72 34.67-98.92 25.72-25.88 42.02-24 78.5-24H953c33.73 0 47.34.98 72 24 16.99 15.86 25.98 41.19 30.57 60.08"/><path stroke="#000" d="M1057.17-443.77l1.54-7.52-2.3 4.1-.77-3.41h0l.77 3.41-3.84-2.72 4.6 6.14h0z"/><text x="534" y="-538.4" font-family="Lato" font-size="12">!a &amp; !b</text></g><g class="edge" transform="translate(4 586)"><path fill="none" stroke="#000" d="M189.61-294h67.85"/><path stroke="#000" d="M264.65-294l-7-3.15 3.5 3.15h-3.5 3.5l-3.5 3.15 7-3.15h0z"/><text x="210" y="-297.4" font-family="Lato" font-size="12">!a &amp; b</text></g><g class="node" transform="translate(4 586)"><circle fill="#ffffa0" stroke="#000" cx="611.5" cy="-148" r="18"/><text text-anchor="middle" x="611.5" y="-144.9" font-family="Lato" font-size="12">1</text></g><g class="edge" transform="translate(4 586)"><path fill="none" stroke="#000" d="M176.67-276.68C187.13-238 218.32-148 282-148h304.22"/><path stroke="#000" d="M593.42-148l-7-3.15 3.5 3.15h-3.5 3.5l-3.5 3.15 7-3.15h0z"/><text x="371.5" y="-151.4" font-family="Lato" font-size="12">a &amp; b</text></g><g class="edge" transform="translate(4 586)"><path fill="none" stroke="#000" d="M274.02-309.92c-2.34-10.23.65-20.08 8.98-20.08 6.38 0 9.63 5.77 9.75 13.07"/><path stroke="#000" d="M291.98-309.92l3.89-6.61-3.51 3.13.38-3.47h0l-.38 3.47-2.75-3.82 2.37 7.3h0z"/><text x="264.5" y="-333.4" font-family="Lato" font-size="12">a &amp; !b</text></g><g class="node" transform="translate(4 586)"><circle fill="#ffffa0" stroke="#000" cx="387.5" cy="-374" r="18"/><text text-anchor="middle" x="387.5" y="-370.9" font-family="Lato" font-size="12">2</text></g><g class="edge" transform="translate(4 586)"><path fill="none" stroke="#000" d="M297.82-304.79c17.91-13.97 49.21-38.41 69.43-54.19"/><path stroke="#000" d="M372.9-363.38l-7.46 1.82 4.7.33-2.76 2.16h0l2.76-2.16-.82 4.64 3.58-6.79h0z"/><text x="319" y="-348.4" font-family="Lato" font-size="12">a &amp; b</text></g><g class="node" transform="translate(4 586)"><circle fill="#ffffa0" stroke="#000" cx="497.5" cy="-228" r="18"/><text text-anchor="middle" x="497.5" y="-224.9" font-family="Lato" font-size="12">9</text></g><g class="edge" transform="translate(4 586)"><path fill="none" stroke="#000" d="M299.91-287.26c5.94 2.41 12.78 5.08 19.09 7.26 54.4 18.8 119.64 36.77 153.87 45.85"/><path stroke="#000" d="M479.69-232.35l-5.96-4.83 2.58 3.94-3.39-.9h0l3.39.9-4.19 2.15 7.57-1.26h0z"/><text x="369" y="-267.4" font-family="Lato" font-size="12">a &amp; !b</text></g><g class="edge" transform="translate(4 586)"><path fill="none" stroke="#000" d="M1049.1-439.69C1031.35-460.32 994.02-497 953-497H170.5c-47.95 0-84.63 51.03-102.15 81.25"/><path stroke="#000" d="M64.91-409.64l6.18-4.55-4.46 1.5 1.72-3.05h0l-1.72 3.05-1.03-4.6-.69 7.65h0z"/><text x="534" y="-500.4" font-family="Lato" font-size="12">!a &amp; !b</text></g><g class="node" transform="translate(4 586)"><circle fill="#ffffa0" stroke="#000" cx="952" cy="-145" r="18"/><text text-anchor="middle" x="952" y="-141.9" font-family="Lato" font-size="12">7</text></g><g class="edge" transform="translate(4 586)"><path fill="none" stroke="#000" d="M1053.66-409.35c-18.21 47.82-70.7 185.68-91.76 240.98"/><path stroke="#000" d="M959.37-161.74l5.44-5.42-4.19 2.15 1.24-3.27h0l-1.24 3.27-1.7-4.39.45 7.66h0z"/><text x="988" y="-330.4" font-family="Lato" font-size="12">!a &amp; b</text></g><g class="edge" transform="translate(4 586)"><path fill="none" stroke="#000" d="M608.82-129.92C605.83-108.63 597.59-73.78 575-55c-26.58 22.1-41.94 14-76.5 14h-328C101.59-41 68.56-287.89 59.59-368.72"/><path stroke="#000" d="M58.8-376.01l-2.38 7.3 2.75-3.82.38 3.48h0l-.38-3.48 3.51 3.14-3.88-6.62h0z"/><text x="319" y="-44.4" font-family="Lato" font-size="12">a &amp; b</text></g><g class="edge" transform="translate(4 586)"><path fill="none" stroke="#000" d="M620.18-132.1c6.05 10.78 15.51 24.42 27.82 32.1 43.7 27.28 62.69 16.31 114 21 68.79 6.28 94.99 14.91 154-21 9.16-5.58 16.84-14.5 22.65-22.93"/><path stroke="#000" d="M942.72-129.22l-6.45 4.17 4.55-1.23-1.91 2.94h0l1.91-2.94.74 4.65 1.16-7.59h0z"/><text x="766.5" y="-82.4" font-family="Lato" font-size="12">a &amp; b</text></g><g class="node" transform="translate(4 586)"><circle fill="#ffffa0" stroke="#000" cx="723.5" cy="-334" r="18"/><text text-anchor="middle" x="723.5" y="-330.9" font-family="Lato" font-size="12">6</text></g><g class="edge" transform="translate(4 586)"><path fill="none" stroke="#000" d="M615.68-165.64c4.59-22.45 14.56-61.86 32.32-91.36 14.74-24.48 38.62-47.31 55.36-61.65"/><path stroke="#000" d="M708.74-323.18l-7.38 2.09 4.7.16-2.68 2.25h0l2.68-2.25-.65 4.66 3.33-6.91h0z"/><text x="648" y="-305.4" font-family="Lato" font-size="12">a &amp; !b</text></g><g class="edge" transform="translate(4 586)"><path fill="none" stroke="#000" d="M946.65-127.8C935.81-89.39 903.72 0 840 0H170.5C124.34 0 113.39-27.1 92-68c-27.31-52.21-33.34-233.17-34.65-300.5"/><path stroke="#000" d="M57.22-375.77l-3.02 7.06 3.09-3.56.06 3.5h0l-.06-3.5 3.21 3.45-3.28-6.95h0z"/><text x="479" y="-3.4" font-family="Lato" font-size="12">!a &amp; b</text></g><g class="edge" transform="translate(4 586)"><path fill="none" stroke="#000" d="M947.03-127.69C942.41-111.77 933.12-88.89 916-77c-21.69 15.06-32.64 5.44-59 7-183.5 10.85-229.68-9-413.5-9H282c-84.39 0-103.77-133.14-108.2-189.88"/><path stroke="#000" d="M173.29-276.04l-2.64 7.21 2.89-3.72.25 3.49h0l-.25-3.49 3.39 3.27-3.64-6.76h0z"/><text x="534" y="-81.4" font-family="Lato" font-size="12">!a &amp; !b</text></g><g class="edge" transform="translate(4 586)"><path fill="none" stroke="#000" d="M966.33-155.95c16.6-14.44 44.49-41.5 58.67-71.05 27.74-57.82 33.71-134.54 34.86-173.68"/><path stroke="#000" d="M1060.03-407.99l-3.32 6.92 3.23-3.42-.08 3.49h0l.08-3.49 3.07 3.57-2.98-7.07h0z"/><text x="990.5" y="-230.4" font-family="Lato" font-size="12">a &amp; b</text></g><g class="edge" transform="translate(4 586)"><path fill="none" stroke="#000" d="M933.91-144.74c-46.13.64-177.07 1.98-285.91-1.26-3.68-.11-7.58-.28-11.39-.47"/><path stroke="#000" d="M629.47-146.86l6.81 3.53-3.32-3.34 3.5.19h0l-3.5-.19 3.67-2.95-7.16 2.76h0z"/><text x="762" y="-148.4" font-family="Lato" font-size="12">!a &amp; !b</text></g><g class="edge" transform="translate(4 586)"><path fill="none" stroke="#000" d="M939-157.64C919.94-176.3 880.71-209 840-209H610.5c-30.97 0-66.08-7.15-88.6-12.67"/><path stroke="#000" d="M515.05-223.4l6.02 4.76-2.63-3.91 3.4.86h0l-3.4-.86 4.17-2.19-7.56 1.34h0z"/><text x="707.5" y="-212.4" font-family="Lato" font-size="12">a &amp; b</text></g><g class="edge" transform="translate(4 586)"><path fill="none" stroke="#000" d="M710.13-346.48c-23.7-22.9-78.21-70.9-135.13-88.52-64.11-19.85-85.82-15.99-151 0-95.29 23.38-192.1 93.62-232.24 125.25"/><path stroke="#000" d="M185.81-305.01l7.44-1.9-4.7-.28 2.74-2.18h0l-2.74 2.18.78-4.65-3.52 6.83h0z"/><text x="426.5" y="-446.4" font-family="Lato" font-size="12">a &amp; b</text></g><g class="edge" transform="translate(4 586)"><path fill="none" stroke="#000" d="M705.32-335.48C672.15-338.4 597.01-345.28 534-353c-42.79-5.24-92.45-12.71-121.29-17.18"/><path stroke="#000" d="M405.49-371.31l6.43 4.19-2.97-3.65 3.46.54h0l-3.46-.54 3.94-2.57-7.4 2.03h0z"/><text x="536" y="-356.4" font-family="Lato" font-size="12">a &amp; !b</text></g><g class="node" transform="translate(4 586)"><circle fill="#ffffa0" stroke="#000" cx="839" cy="-277" r="18"/><text text-anchor="middle" x="839" y="-273.9" font-family="Lato" font-size="12">5</text></g><g class="edge" transform="translate(4 586)"><path fill="none" stroke="#000" d="M740.94-328.56c16.25 5.66 41.57 15.27 62.06 26.56 5.24 2.89 10.63 6.42 15.57 9.91"/><path stroke="#000" d="M824.52-287.75l-3.8-6.67.97 4.61-2.82-2.06h0l2.82 2.06-4.68.48 7.51 1.58h0z"/><text x="764" y="-323.4" font-family="Lato" font-size="12">a &amp; !b</text></g><g class="edge" transform="translate(4 586)"><path fill="none" stroke="#000" d="M369.32-376.1C328.45-380.98 222.17-392.96 133-397c-18.2-.82-22.79-.78-41 0-3.47.15-7.13.38-10.73.65"/><path stroke="#000" d="M74.07-395.76l7.24 2.57-3.75-2.85 3.49-.29h0l-3.49.29 3.23-3.43-6.72 3.71h0z"/><text x="210" y="-395.4" font-family="Lato" font-size="12">a &amp; !b</text></g><g class="edge" transform="translate(4 586)"><path fill="none" stroke="#000" d="M403.19-383.01c6.2-3.38 13.64-6.91 20.81-8.99 153.3-44.42 197.89-34 357.5-34h254.26"/><path stroke="#000" d="M1042.95-426l-7-3.15 3.5 3.15h-3.5 3.5l-3.5 3.15 7-3.15h0z"/><text x="703" y="-429.4" font-family="Lato" font-size="12">!a &amp; !b</text></g><g class="edge" transform="translate(4 586)"><path fill="none" stroke="#000" d="M405.69-375.55c21.3-1.77 58.7-4.45 90.81-4.45h228c39.78 0 49.99 15.25 78.5 43 10.79 10.5 19.38 25.04 25.35 37.17"/><path stroke="#000" d="M831.4-293.38l-.14-7.67-1.36 4.51-1.49-3.17h0l1.49 3.17-4.34-1.83 5.84 4.99h0z"/><text x="593" y="-383.4" font-family="Lato" font-size="12">a &amp; !b</text></g><g class="edge" transform="translate(4 586)"><path fill="none" stroke="#000" d="M398.86-360c19.3 26.09 60.83 82.23 82.99 112.2"/><path stroke="#000" d="M486.02-242.17l-1.63-7.5-.45 4.68-2.09-2.81h0l2.09 2.81-4.62-.94 6.7 3.76h0z"/><text x="424" y="-325.4" font-family="Lato" font-size="12">!a &amp; b</text></g><g class="edge" transform="translate(4 586)"><path fill="none" stroke="#000" d="M821.06-279.34C792.9-283.11 734.61-290.35 685-293c-142.63-7.62-314.19-3.67-376.71-1.8"/><path stroke="#000" d="M301.21-294.58l7.1 2.93-3.6-3.04 3.5-.11h0l-3.5.11 3.4-3.25-6.9 3.36h0z"/><text x="536" y="-301.4" font-family="Lato" font-size="12">a &amp; !b</text></g><g class="edge" transform="translate(4 586)"><path fill="none" stroke="#000" d="M828.9-261.86c-14.73 23.05-46.08 66.52-84.9 87.86-33.93 18.65-79.29 24.04-106.9 25.53"/><path stroke="#000" d="M629.81-148.15l7.13 2.84-3.64-2.99 3.5-.16h0l-3.5.16 3.36-3.3-6.85 3.45h0z"/><text x="705" y="-177.4" font-family="Lato" font-size="12">!a &amp; b</text></g><g class="edge" transform="translate(4 586)"><path fill="none" stroke="#000" d="M855.56-269.21c16.82 9.1 43.49 25.57 60.44 46.21 13.1 15.96 22.3 37.61 27.97 54.05"/><path stroke="#000" d="M946.18-162.25l.8-7.64-1.9 4.31-1.09-3.32h0l1.09 3.32-4.09-2.33 5.19 5.66h0z"/><text x="875" y="-261.4" font-family="Lato" font-size="12">!a &amp; !b</text></g><g class="edge" transform="translate(4 586)"><path fill="none" stroke="#000" d="M829.43-292.54c-2.7-10.37.49-20.46 9.57-20.46 6.95 0 10.45 5.92 10.5 13.34"/><path stroke="#000" d="M848.57-292.54l4.03-6.54-3.57 3.07.45-3.47h0l-.45 3.47-2.68-3.88 2.22 7.35h0z"/><text x="818.5" y="-316.4" font-family="Lato" font-size="12">!a &amp; !b</text></g><g class="edge" transform="translate(4 586)"><path fill="none" stroke="#000" d="M821.66-272.06C793.87-263.88 735.52-247.68 685-240c-57.8 8.78-126.63 11.15-162.32 11.78"/><path stroke="#000" d="M515.58-228.11l7.05 3.04-3.55-3.1 3.5-.05h0l-3.5.05 3.45-3.2-6.95 3.26h0z"/><text x="648" y="-243.4" font-family="Lato" font-size="12">!a &amp; b</text></g><g class="edge" transform="translate(4 586)"><path fill="none" stroke="#000" d="M479.14-226.79c-24.96 1.21-72.17 1.45-110.14-10.21-25.72-7.9-50.75-26.39-66.91-40.19"/><path stroke="#000" d="M296.56-282.03l3.19 6.98-.56-4.67 2.64 2.3h0l-2.64-2.3 4.71-.07-7.34-2.24h0z"/><text x="369" y="-240.4" font-family="Lato" font-size="12">a &amp; !b</text></g><g class="edge" transform="translate(4 586)"><path fill="none" stroke="#000" d="M507.48-212.74c6.39 9.81 15.73 22.26 26.52 30.74 15.86 12.46 37 21.4 53.04 26.98"/><path stroke="#000" d="M594.01-152.7l-5.64-5.2 2.32 4.09-3.32-1.1h0l3.32 1.1-4.32 1.89 7.64-.78h0z"/><text x="536" y="-185.4" font-family="Lato" font-size="12">!a &amp; b</text></g></g></svg>