<?xml-stylesheet href="spot.css" type="text/css"?><svg width="259pt" height="152" viewBox="0 0 258.5 114.2" xmlns="http://www.w3.org/2000/svg"><g class="graph" transform="translate(4 110.2)"><path fill="#fff" stroke="transparent" d="M-4 4v-114.2h258.5V4H-4z"/><text x="122.75" y="-92.6" font-family="Lato" font-size="12">t</text><text x="113.75" y="-79.6" font-family="Lato" font-size="12">[all]</text><g class="node"><circle fill="#ffffa0" stroke="#000" cx="56" cy="-23.2" r="18"/><text text-anchor="middle" x="56" y="-20.1" font-family="Lato" font-size="12">0</text></g><g class="edge"><path fill="none" stroke="#000" d="M1.15-23.2h29.48"/><path stroke="#000" d="M37.94-23.2l-7-3.15 3.5 3.15h-3.5 3.5l-3.5 3.15 7-3.15h0z"/></g><g class="edge"><path fill="none" stroke="#000" d="M49.62-40.24c-1.3-9.82.83-18.96 6.38-18.96 4.17 0 6.4 5.14 6.71 11.86"/><path stroke="#000" d="M62.38-40.24l3.47-6.84-3.31 3.34.17-3.49h0l-.17 3.49-2.98-3.64 2.82 7.14h0z"/><text x="43.5" y="-62.6" font-family="Lato" font-size="12">!red</text></g><g class="node"><circle fill="#ffffa0" stroke="#000" cx="211" cy="-23.2" r="18"/><text text-anchor="middle" x="211" y="-20.1" font-family="Lato" font-size="12">1</text></g><g class="edge"><path fill="none" stroke="#000" d="M74.25-23.2h111.29"/><path stroke="#000" d="M192.57-23.2l-7-3.15 3.5 3.15h-3.5 3.5l-3.5 3.15 7-3.15h0z"/><text x="123.5" y="-26.6" font-family="Lato" font-size="12">red</text></g><g class="edge"><path fill="none" stroke="#000" d="M195.22-14.19C189.18-11 181.98-7.81 175-6.2c-35.95 8.27-47.05 8.27-83 0-4.58-1.05-9.25-2.79-13.64-4.76"/><path stroke="#000" d="M71.78-14.19l4.9 5.91-1.76-4.37 3.15 1.54h0l-3.15-1.54 4.53-1.29-7.67-.25h0z"/><text x="92" y="-9.6" font-family="Lato" font-size="12">!red &amp; !yellow</text></g><g class="edge"><path fill="none" stroke="#000" d="M198.75-36.87c-4.89-10.99-.81-22.33 12.25-22.33 10.21 0 14.93 6.92 14.17 15.19"/><path stroke="#000" d="M223.25-36.87l4.86-5.94-3.95 2.56.91-3.38h0l-.91 3.38-2.13-4.2 1.22 7.58h0z"/><text x="171.5" y="-62.6" font-family="Lato" font-size="12">red &amp; !yellow</text></g></g></svg>