<?xml-stylesheet href="spot.css" type="text/css"?><svg width="298pt" height="156" viewBox="0 0 298 117.27" xmlns="http://www.w3.org/2000/svg"><g class="graph" transform="translate(4 113.27)"><path fill="#fff" stroke="transparent" d="M-4 4v-117.27h298V4H-4z"/><text x="142.5" y="-95.67" font-family="Lato" font-size="12">t</text><text x="133.5" y="-82.67" font-family="Lato" font-size="12">[all]</text><g class="node"><circle fill="#ffffa0" stroke="#000" cx="56" cy="-26.27" r="18"/><text text-anchor="middle" x="56" y="-23.17" font-family="Lato" font-size="12">1</text></g><g class="edge"><path fill="none" stroke="#000" d="M1.15-26.27h29.48"/><path stroke="#000" d="M37.94-26.27l-7-3.15 3.5 3.15h-3.5 3.5l-3.5 3.15 7-3.15h0z"/></g><g class="edge"><path fill="none" stroke="#000" d="M49.62-43.3c-1.3-9.82.83-18.97 6.38-18.97 4.17 0 6.4 5.15 6.71 11.86"/><path stroke="#000" d="M62.38-43.3l3.47-6.85-3.31 3.35.17-3.49h0l-.17 3.49-2.98-3.64 2.82 7.14h0z"/><text x="15" y="-65.67" font-family="Lato" font-size="12">green | !press</text></g><g class="node"><circle fill="#ffffa0" stroke="#000" cx="252" cy="-26.27" r="18"/><text text-anchor="middle" x="252" y="-23.17" font-family="Lato" font-size="12">0</text></g><g class="edge"><path fill="none" stroke="#000" d="M74.22-26.27h152.15"/><path stroke="#000" d="M233.82-26.27l-7-3.15 3.5 3.15h-3.5 3.5l-3.5 3.15 7-3.15h0z"/><text x="92" y="-29.67" font-family="Lato" font-size="12">!green &amp; press &amp; red</text></g><g class="edge"><path fill="none" stroke="#000" d="M236.22-17.25c-6.04 3.19-13.24 6.38-20.22 7.98-53.71 12.36-70.29 12.36-124 0-4.58-1.05-9.25-2.78-13.64-4.75"/><path stroke="#000" d="M71.78-17.25l4.9 5.91-1.76-4.37 3.15 1.54h0l-3.15-1.54L79.45-17l-7.67-.25h0z"/><text x="136.5" y="-12.67" font-family="Lato" font-size="12">green</text></g><g class="edge"><path fill="none" stroke="#000" d="M237.66-37.69c-8.43-11.63-3.65-24.58 14.34-24.58 14.76 0 20.63 8.71 17.6 18.26"/><path stroke="#000" d="M266.34-37.69l6.01-4.77-4.4 1.66 1.6-3.11h0l-1.6 3.11-1.19-4.56-.42 7.67h0z"/><text x="214" y="-65.67" font-family="Lato" font-size="12">!green &amp; red</text></g></g></svg>