<?xml-stylesheet href="spot.css" type="text/css"?><svg width="384" height="160" viewBox="0 0 287.6 120" xmlns="http://www.w3.org/2000/svg"><g class="graph"><path fill="#fff" stroke="transparent" d="M0 120V0h287.6v120H0z"/><text x="119.8" y="-99.4" font-family="Lato" font-size="12" transform="translate(4 116)">Fin(</text><text x="141.8" y="-99.4" font-family="Lato" font-size="12" fill="#1f78b4" transform="translate(4 116)">⓿</text><text x="154.8" y="-99.4" font-family="Lato" font-size="12" transform="translate(4 116)">)</text><text x="109.3" y="-87.4" font-family="Lato" font-size="12" transform="translate(4 116)">[co-Büchi]</text><g class="node" transform="translate(4 116)"><circle fill="#ffffa0" stroke="#000" cx="56" cy="-18" r="18"/><text text-anchor="middle" x="56" y="-14.9" font-family="Lato" font-size="12">0</text></g><g class="edge" transform="translate(4 116)"><path fill="none" stroke="#000" d="M1.15-18h29.48"/><path stroke="#000" d="M37.94-18l-7-3.15 3.5 3.15h-3.5 3.5l-3.5 3.15 7-3.15h0z"/></g><g class="edge" transform="translate(4 116)"><path fill="none" stroke="#000" d="M49.62-35.04C48.32-44.86 50.45-54 56-54c4.17 0 6.4 5.14 6.71 11.86"/><path stroke="#000" d="M62.38-35.04l3.47-6.84-3.31 3.35.17-3.5h0l-.17 3.5-2.98-3.65 2.82 7.14h0z"/><text x="52" y="-57.4" font-family="Lato" font-size="12">a</text></g><g class="node" transform="translate(4 116)"><circle fill="#ffffa0" stroke="#000" cx="124.8" cy="-18" r="1.8"/></g><g class="edge" transform="translate(4 116)"><path fill="none" stroke="#000" d="M74.2-18h40.97M115.48-20.45l7 2.45-7 2.45v-4.9z"/><text x="92" y="-21.4" font-family="Lato" font-size="12">!a</text></g><g class="edge" transform="translate(4 116)"><path fill="none" stroke="#000" d="M122.78-17.85c-2.81.39-10.96 1.49-17.78 1.85-7.62.4-15.93.26-23.45-.08"/><path stroke="#000" d="M74.33-16.49l6.82 3.54-3.32-3.34 3.49.19h0l-3.49-.19 3.67-2.95-7.17 2.75h0z"/></g><g class="node" transform="translate(4 116)"><circle fill="#ffffa0" stroke="#000" cx="181.6" cy="-18" r="18"/><text text-anchor="middle" x="181.6" y="-14.9" font-family="Lato" font-size="12">1</text></g><g class="edge" transform="translate(4 116)"><path fill="none" stroke="#000" d="M126.75-18h29.62"/><path stroke="#000" d="M163.58-18l-7-3.15 3.5 3.15h-3.5 3.5l-3.5 3.15 7-3.15h0z"/></g><g class="edge" transform="translate(4 116)"><path fill="none" stroke="#000" d="M175.22-35.04c-1.3-9.82.83-18.96 6.38-18.96 4.17 0 6.4 5.14 6.71 11.86"/><path stroke="#000" d="M187.98-35.04l3.47-6.84-3.31 3.35.17-3.5h0l-.17 3.5-2.98-3.65 2.82 7.14h0z"/><text x="175.1" y="-70.4" font-family="Lato" font-size="12">!a</text><text x="175.1" y="-57.4" font-family="Lato" font-size="12" fill="#1f78b4">⓿</text></g><g class="node" transform="translate(4 116)"><circle fill="#ffffa0" stroke="#000" cx="261.6" cy="-18" r="18"/><text text-anchor="middle" x="261.6" y="-14.9" font-family="Lato" font-size="12">2</text></g><g class="edge" transform="translate(4 116)"><path fill="none" stroke="#000" d="M199.91-18h36.4"/><path stroke="#000" d="M243.34-18l-7-3.15 3.5 3.15h-3.5 3.5l-3.5 3.15 7-3.15h0z"/><text x="217.6" y="-21.4" font-family="Lato" font-size="12">a</text></g><g class="edge" transform="translate(4 116)"><path fill="none" stroke="#000" d="M254.57-34.66c-1.56-9.96.78-19.34 7.03-19.34 4.69 0 7.18 5.27 7.47 12.11"/><path stroke="#000" d="M268.63-34.66l3.57-6.8-3.36 3.3.22-3.49h0l-.22 3.49-2.93-3.68 2.72 7.18h0z"/><text text-anchor="middle" x="261.6" y="-57.4" font-family="Lato" font-size="12">1</text></g></g></svg>