<?xml-stylesheet href="spot.css" type="text/css"?><svg width="628" height="205pt" viewBox="0 0 471 205.06" xmlns="http://www.w3.org/2000/svg"><g class="graph" transform="translate(4 201.06)"><path fill="#fff" stroke="transparent" d="M-4 4v-205.06h471V4H-4z"/><text x="70.5" y="-184.46" font-family="Lato" font-size="12">(Fin(</text><text x="96.5" y="-184.46" font-family="Lato" font-size="12" fill="#1f78b4">⓿</text><text x="109.5" y="-184.46" font-family="Lato" font-size="12">) &amp; Inf(</text><text x="151.5" y="-184.46" font-family="Lato" font-size="12" fill="#ff4da0">❶</text><text x="162.5" y="-184.46" font-family="Lato" font-size="12">)) | (Fin(</text><text x="208.5" y="-184.46" font-family="Lato" font-size="12" fill="#ff7f00">❷</text><text x="219.5" y="-184.46" font-family="Lato" font-size="12">) &amp; Inf(</text><text x="261.5" y="-184.46" font-family="Lato" font-size="12" fill="#6a3d9a">❸</text><text x="272.5" y="-184.46" font-family="Lato" font-size="12">)) | (Fin(</text><text x="318.5" y="-184.46" font-family="Lato" font-size="12" fill="#33a02c">❹</text><text x="329.5" y="-184.46" font-family="Lato" font-size="12">) &amp; Inf(</text><text x="371.5" y="-184.46" font-family="Lato" font-size="12" fill="#e31a1c">❺</text><text x="382.5" y="-184.46" font-family="Lato" font-size="12">))</text><text x="204" y="-172.46" font-family="Lato" font-size="12">[Rabin 3]</text><g class="node"><path fill="#ffffa0" stroke="#000" d="M64-97.06H50c-6 0-12 6-12 12v12c0 6 6 12 12 12h14c6 0 12-6 12-12v-12c0-6-6-12-12-12"/><text x="53" y="-82.46" font-family="Lato" font-size="12">6</text><text x="46" y="-70.46" font-family="Lato" font-size="12" fill="#ff7f00">❷</text><text x="57" y="-70.46" font-family="Lato" font-size="12" fill="#33a02c">❹</text></g><g class="edge"><path fill="none" stroke="#000" d="M1.16-79.06h29.23"/><path stroke="#000" d="M37.74-79.06l-7-3.15 3.5 3.15h-3.5 3.5l-3.5 3.15 7-3.15h0z"/></g><g class="node"><path fill="#ffffa0" stroke="#000" d="M158-97.06h-14c-6 0-12 6-12 12v12c0 6 6 12 12 12h14c6 0 12-6 12-12v-12c0-6-6-12-12-12"/><text x="147" y="-82.46" font-family="Lato" font-size="12">5</text><text x="140" y="-70.46" font-family="Lato" font-size="12" fill="#ff7f00">❷</text><text x="151" y="-70.46" font-family="Lato" font-size="12" fill="#33a02c">❹</text></g><g class="edge"><path fill="none" stroke="#000" d="M76.18-79.06h48.49"/><path stroke="#000" d="M131.86-79.06l-7-3.15 3.5 3.15h-3.5 3.5l-3.5 3.15 7-3.15h0z"/><text x="94" y="-82.46" font-family="Lato" font-size="12">!p1</text></g><g class="edge"><path fill="none" stroke="#000" d="M76.12-68.6c5.56 2.68 11.81 5.18 17.88 6.54 8.67 1.95 11.33 1.95 20 0 3.79-.85 7.66-2.15 11.38-3.65"/><path stroke="#000" d="M131.88-68.6l-7.68-.04 4.48 1.46-3.2 1.42h0l3.2-1.42-1.92 4.3 5.12-5.72h0z"/><text x="96" y="-65.46" font-family="Lato" font-size="12">p1</text></g><g class="node"><path fill="#ffffa0" stroke="#000" d="M346-165.06h-14c-6 0-12 6-12 12v12c0 6 6 12 12 12h14c6 0 12-6 12-12v-12c0-6-6-12-12-12"/><text x="335" y="-150.46" font-family="Lato" font-size="12">0</text><text x="328" y="-138.46" font-family="Lato" font-size="12" fill="#ff7f00">❷</text><text x="339" y="-138.46" font-family="Lato" font-size="12" fill="#e31a1c">❺</text></g><g class="node"><path fill="#ffffa0" stroke="#000" d="M252-130.06h-14c-6 0-12 6-12 12v12c0 6 6 12 12 12h14c6 0 12-6 12-12v-12c0-6-6-12-12-12"/><text x="241" y="-115.46" font-family="Lato" font-size="12">2</text><text x="234" y="-103.46" font-family="Lato" font-size="12" fill="#6a3d9a">❸</text><text x="245" y="-103.46" font-family="Lato" font-size="12" fill="#33a02c">❹</text></g><g class="edge"><path fill="none" stroke="#000" d="M319.76-139.24c-5.67 2.37-11.95 4.94-17.76 7.18-10.07 3.9-21.26 7.95-30.98 11.38"/><path stroke="#000" d="M264.25-118.31l7.64.66-4.34-1.81 3.3-1.16h0l-3.3 1.16 2.26-4.14-5.56 5.29h0z"/><text x="282" y="-135.46" font-family="Lato" font-size="12">!p1</text></g><g class="node"><path fill="#ffffa0" stroke="#000" d="M451-102.06h-25c-6 0-12 6-12 12v12c0 6 6 12 12 12h25c6 0 12-6 12-12v-12c0-6-6-12-12-12"/><text x="434.5" y="-87.46" font-family="Lato" font-size="12">4</text><text x="422" y="-75.46" font-family="Lato" font-size="12" fill="#ff4da0">❶</text><text x="433" y="-75.46" font-family="Lato" font-size="12" fill="#ff7f00">❷</text><text x="444" y="-75.46" font-family="Lato" font-size="12" fill="#33a02c">❹</text></g><g class="edge"><path fill="none" stroke="#000" d="M358.01-136.02c11.03 6.81 25.39 15.78 37.99 23.96 3.92 2.55 8.02 5.26 12.06 7.95"/><path stroke="#000" d="M413.89-100.19l-4.06-6.52 1.16 4.57-2.91-1.95h0l2.91 1.95-4.66.66 7.56 1.29h0z"/><text x="378" y="-127.46" font-family="Lato" font-size="12">p1</text></g><g class="edge"><path fill="none" stroke="#000" d="M261.07-130.3c5.87-5.8 13.08-11.54 20.93-14.76 9.54-3.91 20.78-4.92 30.68-4.77"/><path stroke="#000" d="M319.93-149.51l-6.85-3.45 3.36 3.29-3.5-.15h0l3.5.15-3.64 3 7.13-2.84h0z"/><text x="282" y="-152.46" font-family="Lato" font-size="12">!p1</text></g><g class="edge"><path fill="none" stroke="#000" d="M264.02-109.42c32.76 4.79 102.43 14.97 142.8 20.88"/><path stroke="#000" d="M413.76-87.53l-6.47-4.13 3.01 3.63-3.46-.51h0l3.46.51-3.92 2.61 7.38-2.11h0z"/><text x="331" y="-103.46" font-family="Lato" font-size="12">p1</text></g><g class="edge"><path fill="none" stroke="#000" d="M433.8-102.21c-.73-9.39.84-17.85 4.7-17.85 2.83 0 4.43 4.57 4.8 10.71"/><path stroke="#000" d="M443.2-102.21l3.24-6.96-3.19 3.46.04-3.5h0l-.04 3.5-3.11-3.54 3.06 7.04h0z"/><text x="428.5" y="-123.46" font-family="Lato" font-size="12">!p1</text></g><g class="edge"><path fill="none" stroke="#000" d="M430.62-102.31c-4.09-17.15-1.46-35.75 7.88-35.75 8.03 0 11.1 13.74 9.21 28.48"/><path stroke="#000" d="M446.38-102.31l4.36-6.33-3.73 2.88.63-3.44h0l-.63 3.44-2.47-4.01 1.84 7.46h0z"/><text x="430.5" y="-141.46" font-family="Lato" font-size="12">p1</text></g><g class="node"><path fill="#ffffa0" stroke="#000" d="M346-62.06h-14c-6 0-12 6-12 12v12c0 6 6 12 12 12h14c6 0 12-6 12-12v-12c0-6-6-12-12-12"/><text x="335" y="-47.46" font-family="Lato" font-size="12">1</text><text x="328" y="-35.46" font-family="Lato" font-size="12" fill="#ff7f00">❷</text><text x="339" y="-35.46" font-family="Lato" font-size="12" fill="#e31a1c">❺</text></g><g class="edge"><path fill="none" stroke="#000" d="M358.34-51.58c13.71-5.62 32.76-13.44 48.73-19.99"/><path stroke="#000" d="M413.71-74.3l-7.67-.25 4.43 1.58-3.24 1.33h0l3.24-1.33-2.04 4.25 5.28-5.58h0z"/><text x="376" y="-69.46" font-family="Lato" font-size="12">!p1</text></g><g class="node"><path fill="#ffffa0" stroke="#000" d="M252-70.06h-14c-6 0-12 6-12 12v12c0 6 6 12 12 12h14c6 0 12-6 12-12v-12c0-6-6-12-12-12"/><text x="241" y="-55.46" font-family="Lato" font-size="12">3</text><text x="234" y="-43.46" font-family="Lato" font-size="12" fill="#6a3d9a">❸</text><text x="245" y="-43.46" font-family="Lato" font-size="12" fill="#33a02c">❹</text></g><g class="edge"><path fill="none" stroke="#000" d="M319.75-35.84c-10.99 3.88-25.24 7.03-37.75 3.78-3.81-.98-7.64-2.47-11.31-4.19"/><path stroke="#000" d="M264.29-39.56l4.77 6.01-1.66-4.4 3.11 1.6h0l-3.11-1.6 4.56-1.19-7.67-.42h0z"/><text x="284" y="-35.46" font-family="Lato" font-size="12">p1</text></g><g class="edge"><path fill="none" stroke="#000" d="M264.18-34.77C286.3-15.94 324.8 9.76 358-4.06c27.2-11.31 49.88-36.96 63.97-56.18"/><path stroke="#000" d="M426.06-65.98l-6.63 3.87 4.6-1.02-2.04 2.85h0l2.04-2.85.53 4.68 1.5-7.53h0z"/><text x="329" y="-7.46" font-family="Lato" font-size="12">!p1</text></g><g class="edge"><path fill="none" stroke="#000" d="M264.18-50.48c13.86 1.21 33.12 2.88 48.49 4.22"/><path stroke="#000" d="M319.86-45.63l-6.7-3.75 3.21 3.44-3.48-.3h0l3.48.3-3.76 2.84 7.25-2.53h0z"/><text x="284" y="-52.46" font-family="Lato" font-size="12">p1</text></g><g class="edge"><path fill="none" stroke="#000" d="M170.18-85.58c13.98-5.01 33.47-12 48.91-17.54"/><path stroke="#000" d="M225.86-105.55l-7.65-.6 4.36 1.78-3.3 1.18h0l3.3-1.18-2.23 4.15 5.52-5.33h0z"/><text x="188" y="-101.46" font-family="Lato" font-size="12">!p1</text></g><g class="edge"><path fill="none" stroke="#000" d="M170.18-73.72c13.98 4.1 33.47 9.82 48.91 14.35"/><path stroke="#000" d="M225.86-57.38l-5.83-4.99 2.47 4-3.36-.98h0l3.36.98-4.24 2.04 7.6-1.05h0z"/><text x="190" y="-70.46" font-family="Lato" font-size="12">p1</text></g></g></svg>