<?xml-stylesheet href="spot.css" type="text/css"?><svg width="167pt" height="130pt" viewBox="0 0 167 130.38" xmlns="http://www.w3.org/2000/svg"><g class="graph"><path fill="#fff" stroke="transparent" d="M0 130.38V0h167v130.38H0z"/><text x="60" y="-109.78" font-family="Lato" font-size="12" transform="translate(4 126.38)">Inf(</text><text x="81" y="-109.78" font-family="Lato" font-size="12" fill="#1f78b4" transform="translate(4 126.38)">⓿</text><text x="94" y="-109.78" font-family="Lato" font-size="12" transform="translate(4 126.38)">)</text><text x="58" y="-97.78" font-family="Lato" font-size="12" transform="translate(4 126.38)">[Büchi]</text><g class="node" transform="translate(4 126.38)"><circle fill="#ffffa0" stroke="#000" cx="56" cy="-28.38" r="18"/><text text-anchor="middle" x="56" y="-25.28" font-family="Lato" font-size="12">0</text></g><g class="edge" transform="translate(4 126.38)"><path fill="none" stroke="#000" d="M1.15-28.38h29.48"/><path stroke="#000" d="M37.94-28.38l-7-3.15 3.5 3.15h-3.5 3.5l-3.5 3.15 7-3.15h0z"/></g><g class="edge" transform="translate(4 126.38)"><path fill="none" stroke="#000" d="M49.62-45.42c-1.3-9.82.83-18.96 6.38-18.96 4.17 0 6.4 5.14 6.71 11.85"/><path stroke="#000" d="M62.38-45.42l3.47-6.84-3.31 3.34.17-3.49h0l-.17 3.49-2.98-3.64 2.82 7.14h0z"/><text x="52" y="-80.78" font-family="Lato" font-size="12">a</text><text x="49.5" y="-67.78" font-family="Lato" font-size="12" fill="#1f78b4">⓿</text></g><g class="node" transform="translate(4 126.38)"><circle fill="#ffffa0" stroke="#000" cx="141" cy="-28.38" r="18"/><text text-anchor="middle" x="141" y="-25.28" font-family="Lato" font-size="12">1</text></g><g class="edge" transform="translate(4 126.38)"><path fill="none" stroke="#000" d="M74.32-30.35c9.12-.81 20.5-1.47 30.68-1.03 3.47.15 7.13.38 10.73.65"/><path stroke="#000" d="M122.93-30.14l-6.72-3.71 3.23 3.42-3.49-.28h0l3.49.28-3.75 2.85 7.24-2.56h0z"/><text x="92" y="-34.78" font-family="Lato" font-size="12">!a</text></g><g class="edge" transform="translate(4 126.38)"><path fill="none" stroke="#000" d="M128.35-15.22C118.97-6.29 105.21 3.12 92-1.38c-6.16-2.1-12.08-5.77-17.24-9.75"/><path stroke="#000" d="M69.07-15.85l3.37 6.9-.67-4.66 2.69 2.23h0l-2.69-2.23 4.7-.19-7.4-2.05h0z"/><text x="94.5" y="-17.78" font-family="Lato" font-size="12">a</text><text x="92" y="-4.78" font-family="Lato" font-size="12" fill="#1f78b4">⓿</text></g><g class="edge" transform="translate(4 126.38)"><path fill="none" stroke="#000" d="M133.62-45.05c-1.64-9.96.82-19.33 7.38-19.33 4.92 0 7.54 5.27 7.84 12.11"/><path stroke="#000" d="M148.38-45.05l3.59-6.78-3.36 3.29.22-3.49h0l-.22 3.49-2.92-3.69 2.69 7.18h0z"/><text x="134.5" y="-67.78" font-family="Lato" font-size="12">!a</text></g></g></svg>