<?xml-stylesheet href="spot.css" type="text/css"?><svg width="472" height="181pt" viewBox="0 0 354 181" xmlns="http://www.w3.org/2000/svg"><g class="graph"><path fill="#fff" stroke="transparent" d="M0 181V0h354v181H0z"/><text x="151.5" y="-159.4" font-family="Lato" font-size="12" transform="translate(4 177)">[Büchi]</text><g class="node" transform="translate(4 177)"><circle fill="#ffffa0" stroke="#000" cx="56" cy="-60" r="18"/><text text-anchor="middle" x="56" y="-56.9" font-family="Lato" font-size="12">1</text></g><g class="edge" transform="translate(4 177)"><path fill="none" stroke="#000" d="M1.15-60h29.48"/><path stroke="#000" d="M37.94-60l-7-3.15 3.5 3.15h-3.5 3.5l-3.5 3.15 7-3.15h0z"/></g><g class="node" transform="translate(4 177)"><circle fill="#ffffa0" stroke="#000" cx="136" cy="-60" r="18"/><text text-anchor="middle" x="136" y="-56.9" font-family="Lato" font-size="12">2</text></g><g class="edge" transform="translate(4 177)"><path fill="none" stroke="#000" d="M74.31-60h36.4"/><path stroke="#000" d="M117.74-60l-7-3.15 3.5 3.15h-3.5 3.5l-3.5 3.15 7-3.15h0z"/><text text-anchor="middle" x="96" y="-63.4" font-family="Lato" font-size="12">1</text></g><g class="node" transform="translate(4 177)"><circle fill="#ffffa0" stroke="#000" cx="324" cy="-60" r="18"/><circle fill="none" stroke="#000" cx="324" cy="-60" r="22"/><text text-anchor="middle" x="324" y="-56.9" font-family="Lato" font-size="12">0</text></g><g class="edge" transform="translate(4 177)"><path fill="none" stroke="#000" d="M314.95-80.17C313.56-90.6 316.58-100 324-100c5.68 0 8.78 5.51 9.3 12.77"/><path stroke="#000" d="M333.05-80.17l3.39-6.88-3.27 3.38.13-3.5h0l-.13 3.5-3.02-3.61 2.9 7.11h0z"/><text text-anchor="middle" x="324" y="-103.4" font-family="Lato" font-size="12">1</text></g><g class="node" transform="translate(4 177)"><circle fill="#ffffa0" stroke="#000" cx="228" cy="-103" r="18"/><text text-anchor="middle" x="228" y="-99.9" font-family="Lato" font-size="12">3</text></g><g class="edge" transform="translate(4 177)"><path fill="none" stroke="#000" d="M152.68-67.49c14.45-6.91 36.05-17.23 52.25-24.97"/><path stroke="#000" d="M211.5-95.6l-7.67.18 4.51 1.33-3.15 1.51h0l3.15-1.51-1.8 4.35 4.96-5.86h0z"/><text x="172" y="-88.4" font-family="Lato" font-size="12">!p1</text></g><g class="node" transform="translate(4 177)"><circle fill="#ffffa0" stroke="#000" cx="228" cy="-18" r="18"/><text text-anchor="middle" x="228" y="-14.9" font-family="Lato" font-size="12">4</text></g><g class="edge" transform="translate(4 177)"><path fill="none" stroke="#000" d="M152.68-52.68c14.45 6.74 36.05 16.82 52.25 24.38"/><path stroke="#000" d="M211.5-25.23l-5.01-5.82 1.84 4.34-3.17-1.48h0l3.17 1.48-4.5 1.37 7.67.11h0z"/><text x="174" y="-45.4" font-family="Lato" font-size="12">p1</text></g><g class="edge" transform="translate(4 177)"><path fill="none" stroke="#000" d="M244.95-95.71c14.33 6.56 35.64 16.31 52.38 23.97"/><path stroke="#000" d="M303.72-68.82l-5.05-5.78 1.87 4.32-3.18-1.45h0l3.18 1.45-4.5 1.41 7.68.05h0z"/><text x="266" y="-89.4" font-family="Lato" font-size="12">p1</text></g><g class="edge" transform="translate(4 177)"><path fill="none" stroke="#000" d="M219.98-119.29c-1.93-10.1.74-19.71 8.02-19.71 5.46 0 8.33 5.41 8.6 12.37"/><path stroke="#000" d="M236.02-119.29l3.69-6.73-3.41 3.24.27-3.49h0l-.27 3.49-2.87-3.74 2.59 7.23h0z"/><text x="218" y="-142.4" font-family="Lato" font-size="12">!p1</text></g><g class="edge" transform="translate(4 177)"><path fill="none" stroke="#000" d="M244.95-25.12c14.33-6.41 35.64-15.93 52.38-23.41"/><path stroke="#000" d="M303.72-51.39l-7.68-.02 4.49 1.45-3.2 1.43h0l3.2-1.43-1.92 4.31 5.11-5.74h0z"/><text x="264" y="-44.4" font-family="Lato" font-size="12">!p1</text></g><g class="edge" transform="translate(4 177)"><path fill="none" stroke="#000" d="M219.98-34.29C218.05-44.39 220.72-54 228-54c5.46 0 8.33 5.41 8.6 12.37"/><path stroke="#000" d="M236.02-34.29l3.69-6.73-3.41 3.24.27-3.49h0l-.27 3.49-2.87-3.74 2.59 7.23h0z"/><text x="220" y="-57.4" font-family="Lato" font-size="12">p1</text></g></g></svg>