<svg xmlns="http://www.w3.org/2000/svg" height="1038" preserveAspectRatio="none" style="width:1368px;height:1038px" viewBox="0 0 1368 1038" width="1368"><defs><filter height="300%" id="a" width="300%" x="-1" y="-1"><feGaussianBlur result="blurOut" stdDeviation="2"/><feColorMatrix in="blurOut" result="blurOut2" values="0 0 0 0 0 0 0 0 0 0 0 0 0 0 0 0 0 0 .4 0"/><feOffset dx="4" dy="4" in="blurOut2" result="blurOut3"/><feBlend in="SourceGraphic" in2="blurOut3"/></filter></defs><path fill="#FFF" filter="url(#a)" stroke="#000" stroke-width="1.5" d="M22 690h25l7 22.297h106V779H22v-89z"/><path stroke="#000" stroke-width="1.5" d="M22 712.297h32"/><text font-family="sans-serif" font-size="14" font-weight="bold" lengthAdjust="spacingAndGlyphs" textLength="19" x="26" y="704.995">stl</text><path fill="#FFF" filter="url(#a)" stroke="#000" stroke-width="1.5" d="M184 24h41l7 22.297h1084V1026H184V24z"/><path stroke="#000" stroke-width="1.5" d="M184 46.297h48"/><text font-family="sans-serif" font-size="14" font-weight="bold" lengthAdjust="spacingAndGlyphs" textLength="35" x="188" y="38.995">spot</text><path fill="#FFF" filter="url(#a)" stroke="#000" stroke-width="1.5" d="M208 522h66l7 22.297h998V1002H208V522z"/><path stroke="#000" stroke-width="1.5" d="M208 544.297h73"/><text font-family="sans-serif" font-size="14" font-weight="bold" lengthAdjust="spacingAndGlyphs" textLength="60" x="212" y="536.995">internal</text><path fill="#FEFECE" filter="url(#a)" stroke="#a80036" stroke-width="1.5" d="M37.5 725h107v37.938h-107z"/><text font-family="sans-serif" font-size="12" font-style="italic" lengthAdjust="spacingAndGlyphs" textLength="66" x="58" y="741.139">«Concept»</text><text font-family="sans-serif" font-size="12" lengthAdjust="spacingAndGlyphs" textLength="101" x="40.5" y="755.107">Forward Iterator</text><path fill="#FEFECE" filter="url(#a)" stroke="#a80036" stroke-width="1.5" d="M767 152h406v148.035H767z"/><circle cx="933.25" cy="168" fill="#ADD1B2" stroke="#a80036" r="11"/><path d="M936.219 173.64q-.578.298-1.219.438-.64.156-1.344.156-2.5 0-3.828-1.64-1.312-1.656-1.312-4.781t1.312-4.782q1.328-1.656 3.828-1.656.703 0 1.344.156.656.156 1.219.453v2.72q-.625-.579-1.219-.845-.594-.28-1.219-.28-1.343 0-2.031 1.077-.688 1.063-.688 3.156 0 2.094.688 3.172.688 1.063 2.031 1.063.625 0 1.219-.266.594-.281 1.219-.86v2.72z"/><text font-family="sans-serif" font-size="12" lengthAdjust="spacingAndGlyphs" textLength="65" x="953.75" y="172.154">twa_graph</text><path stroke="#a80036" stroke-width="1.5" d="M768 184h404"/><circle cx="778" cy="195.902" fill="none" stroke="#038048" r="3"/><text font-family="sans-serif" font-size="11" lengthAdjust="spacingAndGlyphs" textLength="380" x="787" y="198.21">typedef digraph&lt;twa_graph_state, twa_graph_edge_data&gt; graph_t</text><path stroke="#a80036" stroke-width="1.5" d="M768 204.805h404"/><circle cx="778" cy="216.707" fill="#84BE84" stroke="#038048" r="3"/><text font-family="sans-serif" font-size="11" lengthAdjust="spacingAndGlyphs" textLength="181" x="787" y="219.015">twa_graph(const bdd_dict_ptr&amp;)</text><circle cx="778" cy="229.512" fill="#84BE84" stroke="#038048" r="3"/><text font-family="sans-serif" font-size="11" lengthAdjust="spacingAndGlyphs" textLength="122" x="787" y="231.82">graph_t&amp; get_graph()</text><circle cx="778" cy="259.121" fill="#84BE84" stroke="#038048" r="3"/><text font-family="sans-serif" font-size="11" lengthAdjust="spacingAndGlyphs" textLength="190" x="787" y="261.429">unsigned get_init_state_number()</text><circle cx="778" cy="271.926" fill="#84BE84" stroke="#038048" r="3"/><text font-family="sans-serif" font-size="11" lengthAdjust="spacingAndGlyphs" textLength="269" x="787" y="274.234">internal::state_out&lt;graph_t&gt; out(unsigned src)</text><path stroke="#a80036" stroke-dasharray="1,2" d="M768 244.816h170.5"/><text font-family="sans-serif" font-size="11" lengthAdjust="spacingAndGlyphs" textLength="63" x="938.5" y="248.125">exploration</text><path stroke="#a80036" stroke-dasharray="1,2" d="M1001.5 244.816H1172M768 287.231h139"/><text font-family="sans-serif" font-size="11" lengthAdjust="spacingAndGlyphs" textLength="126" x="907" y="290.539">other methods hidden</text><path stroke="#a80036" stroke-dasharray="1,2" d="M1033 287.231h139"/><path fill="#FEFECE" filter="url(#a)" stroke="#a80036" stroke-width="1.5" d="M1085 59h54v32h-54z"/><circle cx="1100" cy="75" fill="#A9DCDF" stroke="#a80036" r="11"/><path d="M1100.11 70.344l-1.157 5.078h2.328l-1.172-5.078zm-1.485-2.235h2.984l3.36 12.391h-2.453l-.766-3.063h-3.281l-.75 3.063h-2.438l3.344-12.39z"/><text font-family="sans-serif" font-size="12" font-style="italic" lengthAdjust="spacingAndGlyphs" textLength="22" x="1114" y="79.154">twa</text><path fill="#FEFECE" filter="url(#a)" stroke="#a80036" stroke-width="1.5" d="M771 361h450v97.621H771z"/><circle cx="832.75" cy="377" fill="#ADD1B2" stroke="#a80036" r="11"/><path d="M835.719 382.64q-.578.298-1.219.438-.64.156-1.344.156-2.5 0-3.828-1.64-1.312-1.656-1.312-4.781t1.312-4.782q1.328-1.656 3.828-1.656.703 0 1.344.156.656.156 1.219.453v2.72q-.625-.579-1.219-.845-.594-.28-1.219-.28-1.343 0-2.031 1.077-.688 1.063-.688 3.156 0 2.094.688 3.172.688 1.063 2.031 1.063.625 0 1.219-.266.594-.281 1.219-.86v2.72z"/><text font-family="sans-serif" font-size="12" lengthAdjust="spacingAndGlyphs" textLength="318" x="853.25" y="381.154">digraph&lt;twa_graph_state, twa_graph_edge_data&gt;</text><path stroke="#a80036" stroke-width="1.5" d="M772 393h448"/><circle cx="782" cy="404.902" fill="#84BE84" stroke="#038048" r="3"/><text font-family="sans-serif" font-size="11" lengthAdjust="spacingAndGlyphs" textLength="424" x="791" y="407.21">internal::edge_storage&lt;twa_graph_edge_data&gt; edge_storage(unsigned s)</text><circle cx="782" cy="417.707" fill="#84BE84" stroke="#038048" r="3"/><text font-family="sans-serif" font-size="11" lengthAdjust="spacingAndGlyphs" textLength="406" x="791" y="420.015">internal::distate_storage&lt;twa_graph_state&gt; state_storage(unsigned s)</text><circle cx="782" cy="430.512" fill="#84BE84" stroke="#038048" r="3"/><text font-family="sans-serif" font-size="11" lengthAdjust="spacingAndGlyphs" textLength="269" x="791" y="432.82">internal::state_out&lt;graph_t&gt; out(unsigned src)</text><path stroke="#a80036" stroke-dasharray="1,2" d="M772 445.816h164.5"/><text font-family="sans-serif" font-size="11" lengthAdjust="spacingAndGlyphs" textLength="119" x="936.5" y="449.125">other details omitted</text><path stroke="#a80036" stroke-dasharray="1,2" d="M1055.5 445.816H1220"/><path fill="#FEFECE" filter="url(#a)" stroke="#a80036" stroke-width="1.5" d="M566 373h170v73.609H566z"/><circle cx="581" cy="389" fill="#ADD1B2" stroke="#a80036" r="11"/><path d="M583.969 394.64q-.578.298-1.219.438-.64.156-1.344.156-2.5 0-3.828-1.64-1.312-1.656-1.312-4.781t1.312-4.782q1.328-1.656 3.828-1.656.703 0 1.344.156.656.156 1.219.453v2.72q-.625-.579-1.219-.845-.594-.28-1.219-.28-1.343 0-2.031 1.077-.688 1.063-.688 3.156 0 2.094.688 3.172.688 1.063 2.031 1.063.625 0 1.219-.266.594-.281 1.219-.86v2.72z"/><text font-family="sans-serif" font-size="12" lengthAdjust="spacingAndGlyphs" textLength="138" x="595" y="393.154">twa_graph_edge_data</text><path stroke="#a80036" stroke-width="1.5" d="M567 405h168"/><circle cx="577" cy="416.902" fill="none" stroke="#038048" r="3"/><text font-family="sans-serif" font-size="11" lengthAdjust="spacingAndGlyphs" textLength="52" x="586" y="419.21">bdd cond</text><circle cx="577" cy="429.707" fill="none" stroke="#038048" r="3"/><text font-family="sans-serif" font-size="11" lengthAdjust="spacingAndGlyphs" textLength="122" x="586" y="432.015">acc_cond::mark_t acc</text><path stroke="#a80036" stroke-width="1.5" d="M567 438.609h168"/><path fill="#FEFECE" filter="url(#a)" stroke="#a80036" stroke-width="1.5" d="M284 394h136v32H284z"/><circle cx="299" cy="410" fill="#ADD1B2" stroke="#a80036" r="11"/><path d="M301.969 415.64q-.578.298-1.219.438-.64.156-1.344.156-2.5 0-3.828-1.64-1.312-1.656-1.312-4.781t1.312-4.782q1.328-1.656 3.828-1.656.703 0 1.344.156.656.156 1.219.453v2.72q-.625-.579-1.219-.845-.594-.28-1.219-.28-1.344 0-2.031 1.077-.688 1.063-.688 3.156 0 2.094.688 3.172.688 1.063 2.031 1.063.625 0 1.219-.266.594-.281 1.219-.86v2.72z"/><text font-family="sans-serif" font-size="12" lengthAdjust="spacingAndGlyphs" textLength="104" x="313" y="414.154">twa_graph_state</text><path fill="#FEFECE" filter="url(#a)" stroke="#a80036" stroke-width="1.5" d="M1208.5 210h91v32h-91z"/><circle cx="1223.5" cy="226" fill="#ADD1B2" stroke="#a80036" r="11"/><path d="M1226.469 231.64q-.578.298-1.219.438-.64.156-1.344.156-2.5 0-3.828-1.64-1.312-1.656-1.312-4.781t1.312-4.782q1.328-1.656 3.828-1.656.703 0 1.344.156.656.156 1.219.453v2.72q-.625-.579-1.219-.845-.594-.28-1.219-.28-1.343 0-2.031 1.077-.688 1.063-.688 3.156 0 2.094.688 3.172.688 1.063 2.031 1.063.625 0 1.219-.266.594-.281 1.219-.86v2.72z"/><text font-family="sans-serif" font-size="12" lengthAdjust="spacingAndGlyphs" textLength="59" x="1237.5" y="230.154">acc_cond</text><path fill="#FEFECE" filter="url(#a)" stroke="#a80036" stroke-width="1.5" d="M827 557h436v86.414H827z"/><circle cx="844.7" cy="573" fill="#ADD1B2" stroke="#a80036" r="11"/><path d="M847.669 578.64q-.578.298-1.219.438-.64.156-1.344.156-2.5 0-3.828-1.64-1.312-1.657-1.312-4.782t1.312-4.78q1.328-1.657 3.828-1.657.703 0 1.344.156.656.157 1.219.453v2.72q-.625-.579-1.219-.845-.594-.28-1.219-.28-1.343 0-2.031 1.077-.688 1.063-.688 3.157 0 2.093.688 3.171.688 1.063 2.031 1.063.625 0 1.219-.266.594-.281 1.219-.86v2.72z"/><text font-family="sans-serif" font-size="12" lengthAdjust="spacingAndGlyphs" textLength="398" x="859.3" y="577.154">state_out&lt;digraph&lt;twa_graph_state, twa_graph_edge_data&gt;&gt;</text><path stroke="#a80036" stroke-width="1.5" d="M828 589h434"/><text font-family="sans-serif" font-size="11" lengthAdjust="spacingAndGlyphs" textLength="66" x="833" y="603.21">unsigned t_</text><path stroke="#a80036" stroke-width="1.5" d="M828 609.805h434"/><text font-family="sans-serif" font-size="11" lengthAdjust="spacingAndGlyphs" textLength="424" x="833" y="624.015">edge_iterator&lt;digraph&lt;twa_graph_state, twa_graph_edge_data&gt;&gt; begin()</text><text font-family="sans-serif" font-size="11" lengthAdjust="spacingAndGlyphs" textLength="414" x="833" y="636.82">edge_iterator&lt;digraph&lt;twa_graph_state, twa_graph_edge_data&gt;&gt; end()</text><path fill="#FEFECE" filter="url(#a)" stroke="#a80036" stroke-width="1.5" d="M808.5 842h455v144.035h-455z"/><circle cx="823.5" cy="858" fill="#ADD1B2" stroke="#a80036" r="11"/><path d="M826.469 863.64q-.578.298-1.219.438-.64.156-1.344.156-2.5 0-3.828-1.64-1.312-1.657-1.312-4.782t1.312-4.78q1.328-1.657 3.828-1.657.703 0 1.344.156.656.157 1.219.453v2.72q-.625-.579-1.219-.845-.594-.28-1.219-.28-1.343 0-2.031 1.077-.688 1.063-.688 3.157 0 2.093.688 3.171.688 1.063 2.031 1.063.625 0 1.219-.266.594-.281 1.219-.86v2.72z"/><text font-family="sans-serif" font-size="12" lengthAdjust="spacingAndGlyphs" textLength="423" x="837.5" y="862.154">edge_iterator&lt;digraph&lt;twa_graph_state, twa_graph_edge_data&gt;&gt;</text><path stroke="#a80036" stroke-width="1.5" d="M809.5 874h453"/><text font-family="sans-serif" font-size="11" lengthAdjust="spacingAndGlyphs" textLength="66" x="814.5" y="888.21">unsigned t_</text><path stroke="#a80036" stroke-width="1.5" d="M809.5 894.805h453"/><text font-family="sans-serif" font-size="11" lengthAdjust="spacingAndGlyphs" textLength="179" x="814.5" y="909.015">bool operator==(edge_iterator)</text><text font-family="sans-serif" font-size="11" lengthAdjust="spacingAndGlyphs" textLength="173" x="814.5" y="921.82">bool operator!=(edge_iterator)</text><text font-family="sans-serif" font-size="11" lengthAdjust="spacingAndGlyphs" textLength="373" x="814.5" y="934.625">edge_storage&lt;twa_graph_edge_data&gt;&amp; operator*(edge_iterator)</text><text font-family="sans-serif" font-size="11" lengthAdjust="spacingAndGlyphs" textLength="376" x="814.5" y="947.429">edge_storage&lt;twa_graph_edge_data&gt;* operator-&gt;(edge_iterator)</text><text font-family="sans-serif" font-size="11" lengthAdjust="spacingAndGlyphs" textLength="155" x="814.5" y="960.234">edge_iterator operator++()</text><path stroke="#a80036" stroke-dasharray="1,2" d="M809.5 973.231H973"/><text font-family="sans-serif" font-size="11" lengthAdjust="spacingAndGlyphs" textLength="126" x="973" y="976.539">other methods hidden</text><path stroke="#a80036" stroke-dasharray="1,2" d="M1099 973.231h163.5"/><path fill="#FEFECE" filter="url(#a)" stroke="#a80036" stroke-width="1.5" d="M514.5 557h277v86.414h-277z"/><circle cx="529.5" cy="573" fill="#ADD1B2" stroke="#a80036" r="11"/><path d="M532.469 578.64q-.578.298-1.219.438-.64.156-1.344.156-2.5 0-3.828-1.64-1.312-1.657-1.312-4.782t1.312-4.78q1.328-1.657 3.828-1.657.703 0 1.344.156.656.157 1.219.453v2.72q-.625-.579-1.219-.845-.594-.28-1.219-.28-1.343 0-2.031 1.077-.688 1.063-.688 3.157 0 2.093.688 3.171.688 1.063 2.031 1.063.625 0 1.219-.266.594-.281 1.219-.86v2.72z"/><text font-family="sans-serif" font-size="12" lengthAdjust="spacingAndGlyphs" textLength="245" x="543.5" y="577.154">edge_storage&lt;twa_graph_edge_data&gt;</text><path stroke="#a80036" stroke-width="1.5" d="M515.5 589h275"/><circle cx="525.5" cy="600.902" fill="none" stroke="#038048" r="3"/><text font-family="sans-serif" font-size="11" lengthAdjust="spacingAndGlyphs" textLength="74" x="534.5" y="603.21">unsigned src</text><circle cx="525.5" cy="613.707" fill="none" stroke="#038048" r="3"/><text font-family="sans-serif" font-size="11" lengthAdjust="spacingAndGlyphs" textLength="74" x="534.5" y="616.015">unsigned dst</text><circle cx="525.5" cy="626.512" fill="none" stroke="#038048" r="3"/><text font-family="sans-serif" font-size="11" lengthAdjust="spacingAndGlyphs" textLength="112" x="534.5" y="628.82">unsigned next_succ</text><path stroke="#a80036" stroke-width="1.5" d="M515.5 635.414h275"/><path fill="#FEFECE" filter="url(#a)" stroke="#a80036" stroke-width="1.5" d="M224.5 563h255v73.609h-255z"/><circle cx="239.5" cy="579" fill="#ADD1B2" stroke="#a80036" r="11"/><path d="M242.469 584.64q-.578.298-1.219.438-.64.156-1.344.156-2.5 0-3.828-1.64-1.312-1.657-1.312-4.782t1.312-4.78q1.328-1.657 3.828-1.657.703 0 1.344.156.656.157 1.219.453v2.72q-.625-.579-1.219-.845-.594-.28-1.219-.28-1.344 0-2.031 1.077-.688 1.063-.688 3.157 0 2.093.688 3.171.688 1.063 2.031 1.063.625 0 1.219-.266.594-.281 1.219-.86v2.72z"/><text font-family="sans-serif" font-size="12" lengthAdjust="spacingAndGlyphs" textLength="223" x="253.5" y="583.154">distate_storage&lt;twa_graph_state&gt;</text><path stroke="#a80036" stroke-width="1.5" d="M225.5 595h253"/><circle cx="235.5" cy="606.902" fill="none" stroke="#038048" r="3"/><text font-family="sans-serif" font-size="11" lengthAdjust="spacingAndGlyphs" textLength="82" x="244.5" y="609.21">unsigned succ</text><circle cx="235.5" cy="619.707" fill="none" stroke="#038048" r="3"/><text font-family="sans-serif" font-size="11" lengthAdjust="spacingAndGlyphs" textLength="105" x="244.5" y="622.015">unsigned succ_tail</text><path stroke="#a80036" stroke-width="1.5" d="M225.5 628.609h253"/><path d="M153.62 770c17.4 6.25 36.44 12.46 54.38 17 199.99 50.6 432.62 83.82 600.29 103.37" fill="none" stroke="#a80036" stroke-dasharray="7,7"/><path fill="none" stroke="#a80036" d="M151.13 776.54l-16.31-13.53 21.18.41-4.87 13.12z"/><text font-family="sans-serif" font-size="13" lengthAdjust="spacingAndGlyphs" textLength="56" x="297" y="808.067">model of</text><path d="M1083.7 105.69l-44.01 46.18M1078.74 100.76l18.86-9.65-8.73 19.3-10.13-9.65zM982.148 312.12s3.522 24.6 5.112 35.69" fill="none" stroke="#a80036"/><path fill="#A80036" stroke="#a80036" d="M989.14 360.96l2.684-9.476-3.393 4.526-4.526-3.392 5.235 8.342z"/><path stroke="#a80036" d="M988.431 356.01l-1.136-7.915"/><path fill="#A80036" stroke="#a80036" d="M980.46 300.24l-3.116 6.503 4.804 5.378 3.116-6.503-4.804-5.378z"/><text font-family="sans-serif" font-size="13" lengthAdjust="spacingAndGlyphs" textLength="8" x="979.545" y="349.76">1</text><path d="M897.585 464.934S788.85 524.54 741.37 550.57" fill="none" stroke="#a80036"/><path fill="#A80036" stroke="#a80036" d="M729.86 556.87l9.815-.814-5.43-1.588 1.588-5.43-5.973 7.832z"/><path stroke="#a80036" d="M734.245 554.468l7.02-3.848"/><path fill="#A80036" stroke="#a80036" d="M908.11 459.17l-7.184-.627-3.341 6.39 7.184.627 3.341-6.39z"/><text font-family="sans-serif" font-size="13" lengthAdjust="spacingAndGlyphs" textLength="7" x="734.552" y="545.845">*</text><path d="M759.207 458.134S510.27 508.9 497 514c-28.1 10.8-57.1 26.7-81.71 41.83" fill="none" stroke="#a80036"/><path fill="#A80036" stroke="#a80036" d="M403.95 562.94l9.75-1.388-5.513-1.266 1.266-5.514-5.503 8.168z"/><path stroke="#a80036" d="M408.187 560.286l6.778-4.251"/><path fill="#A80036" stroke="#a80036" d="M770.97 455.76l-6.673-2.734-5.09 5.108 6.673 2.734 5.09-5.108z"/><text font-family="sans-serif" font-size="13" lengthAdjust="spacingAndGlyphs" textLength="7" x="405.883" y="551.839">*</text><path d="M651.6 467.46c.31 28.75.67 63.1.95 89.5M644.6 467.32l6.79-20.07 7.21 19.92-14 .15zM352 446.08v116.78M345 446.07l7-20 7 20h-14zM1137.26 99.17s36.67 34.81 53.74 52.83c14.59 15.4 30.17 33.44 42.18 47.73" fill="none" stroke="#a80036"/><path fill="#A80036" stroke="#a80036" d="M1241.6 209.82l-2.685-9.476-.514 5.633-5.634-.514 8.833 4.357z"/><path stroke="#a80036" d="M1238.401 205.977l-5.126-6.137"/><path fill="#A80036" stroke="#a80036" d="M1128.47 91l1.671 7.015 7.118 1.155-1.671-7.015L1128.47 91z"/><path d="M1047.511 545S1045 506.42 1040 489c-1.71-5.95-3.94-11.93-6.51-17.79" fill="none" stroke="#a80036"/><path fill="#A80036" stroke="#a80036" d="M1027.84 459.4l.278 9.845 1.88-5.335 5.336 1.88-7.494-6.39z"/><path stroke="#a80036" d="M1029.999 463.91l3.446 7.215"/><path fill="#FFF" stroke="#a80036" d="M1047.63 557l3.94-6.04-4.059-5.96-3.94 6.04 4.059 5.96z"/><path d="M986.09 459.47c-1.41 15.12-1.21 31.71 2.91 46.53 4.48 16.13 12.59 32.26 21.28 46.45" fill="none" stroke="#a80036" stroke-dasharray="7,7"/><path fill="#A80036" stroke="#a80036" d="M1012.99 556.79l-1.363-9.754-1.28 5.51-5.51-1.28 8.153 5.524z"/><text font-family="sans-serif" font-size="13" lengthAdjust="spacingAndGlyphs" textLength="41" x="990" y="502.067">create</text><path d="M1021.03 643.05c-5.76 12.18-11.09 25.76-14.03 38.95-11.39 51.1-3.83 109.63 6.42 154.99" fill="none" stroke="#a80036" stroke-dasharray="7,7"/><path fill="#A80036" stroke="#a80036" d="M1014.55 841.89l1.865-9.67-2.993 4.799-4.8-2.994 5.928 7.865z"/><text font-family="sans-serif" font-size="13" lengthAdjust="spacingAndGlyphs" textLength="41" x="1008" y="748.567">create</text><path d="M1142.179 834.086S1356.21 621.15 1281 514c-13.64-19.44-31.34-35.22-51.23-48.04" fill="none" stroke="#a80036"/><path fill="#A80036" stroke="#a80036" d="M1218.51 459.14l5.628 8.083-1.35-5.494 5.493-1.35-9.771-1.239z"/><path stroke="#a80036" d="M1222.787 461.729l6.838 4.141"/><path fill="#FFF" stroke="#a80036" d="M1132.97 841.78l7.17-.777 2.039-6.917-7.17.777-2.039 6.917z"/></svg>