<svg xmlns="http://www.w3.org/2000/svg" height="729" preserveAspectRatio="none" style="width:872px;height:729px" viewBox="0 0 872 729" width="872"><defs><filter height="300%" id="a" width="300%" x="-1" y="-1"><feGaussianBlur result="blurOut" stdDeviation="2"/><feColorMatrix in="blurOut" result="blurOut2" values="0 0 0 0 0 0 0 0 0 0 0 0 0 0 0 0 0 0 .4 0"/><feOffset dx="4" dy="4" in="blurOut2" result="blurOut3"/><feBlend in="SourceGraphic" in2="blurOut3"/></filter></defs><path fill="#FFF" filter="url(#a)" stroke="#000" stroke-width="1.5" d="M22 24h41l7 22.297h780V511H22V24z"/><path stroke="#000" stroke-width="1.5" d="M22 46.297h48"/><text font-family="sans-serif" font-size="14" font-weight="bold" lengthAdjust="spacingAndGlyphs" textLength="35" x="26" y="38.995">spot</text><path d="M118.74 543.899c15.358-23.539 31.385-25.315 47.935-1.199 10.58-21.162 31.332-24.386 43.451-1.518 13.272-21.651 33.544-24.149 47.108-.303 13.851-21.764 33.3-23.882 47.28-.133 11.77-22.577 26.299-23.207 40.65-2.42 11.86-19.42 32.494-23.221 45.85-1.675 15.663-24.266 38.157-25.09 51.344 2.455 11.49-22.66 29.796-19.025 42.813-1.631 14.865-18.965 38.753-20.508 48.375 5.623 12.317-17.626 29.8-19.274 41.632.54 12.503-21.11 30.943-22.707 45.698-2.49 14.872-21.344 30.618-18.704 44.938.61 17.592-27.533 34.94-20.461 51.693.887C733.055 524.11 754.077 527.557 763 550c2.33-3.758 5.775-3.066 7.256.808 35.57 20.867 34.203 45.416.583 66.886C798.337 640.54 790.7 669.718 756 677c1.908-2.12 3.226-1.352 4.375.78-9.086 25.044-31.838 26.637-48.232 8.085-10.895 17.373-29.083 20.56-40.646.73-17.525 20.648-37.33 20.05-51.763-3.611-11.92 19.612-26.024 19.43-39.666 1.835-9.872 23.06-33.268 29.483-49.22 6.498-13.287 18.38-28.497 21.268-41.938.163-16.9 25.572-35.177 20.679-50.785-1.38-11.123 19.43-31.49 20.354-41.813-.823-12.714 25.541-36.071 22.137-49.526.782-15.24 18.982-29.7 18.509-42.311-2.764-15.706 21.9-33.359 18.913-47.698-1.539-11.446 17.346-31.455 18.815-41.74-1.293-13.21 22.691-34.713 22.18-47.278-.67C146.26 705.184 117.622 703.472 109 670c1.725-2.138 3.504-2.832 5.224.005-25.678-13.023-30.438-31.865-8.212-52.396C78.84 592.845 79.983 559.304 116 543c1.173-1.004 2.376-.564 2.74.899" fill="#FFF" stroke="#000" stroke-width="1.5"/><text font-family="sans-serif" font-size="14" font-weight="bold" lengthAdjust="spacingAndGlyphs" textLength="219" x="326.5" y="560.995">what we have to implement</text><path fill="#FEFECE" filter="url(#a)" stroke="#a80036" stroke-width="1.5" d="M253.5 83h349v216.059h-349z"/><circle cx="412.75" cy="99" fill="#A9DCDF" stroke="#a80036" r="11"/><path d="M412.86 94.344l-1.157 5.078h2.328l-1.172-5.078zm-1.485-2.235h2.984l3.36 12.391h-2.453l-.766-3.063h-3.281l-.75 3.063h-2.438l3.344-12.39z"/><text font-family="sans-serif" font-size="12" font-style="italic" lengthAdjust="spacingAndGlyphs" textLength="22" x="433.25" y="103.154">twa</text><path stroke="#a80036" stroke-width="1.5" d="M254.5 115h347"/><path fill="none" stroke="#b38d22" d="M264.5 121.902l4 4-4 4-4-4z"/><text font-family="sans-serif" font-size="11" lengthAdjust="spacingAndGlyphs" textLength="174" x="273.5" y="129.21">twa_succ_iterator* iter_cache_</text><path fill="none" stroke="#b38d22" d="M264.5 134.707l4 4-4 4-4-4z"/><text font-family="sans-serif" font-size="11" lengthAdjust="spacingAndGlyphs" textLength="99" x="273.5" y="142.015">bdd_dict_ptr dict_</text><path stroke="#a80036" stroke-width="1.5" d="M254.5 148.609h347"/><path fill="#FF4" stroke="#b38d22" d="M264.5 155.512l4 4-4 4-4-4z"/><text font-family="sans-serif" font-size="11" lengthAdjust="spacingAndGlyphs" textLength="142" x="273.5" y="162.82">twa(const bdd_dict_ptr&amp;)</text><circle cx="264.5" cy="190.121" fill="#84BE84" stroke="#038048" r="3"/><text font-family="sans-serif" font-size="11" font-style="italic" lengthAdjust="spacingAndGlyphs" textLength="123" x="273.5" y="192.429">state* get_init_state()</text><circle cx="264.5" cy="202.926" fill="#84BE84" stroke="#038048" r="3"/><text font-family="sans-serif" font-size="11" font-style="italic" lengthAdjust="spacingAndGlyphs" textLength="204" x="273.5" y="205.234">twa_succ_iterator* succ_iter(state*)</text><circle cx="264.5" cy="215.731" fill="#84BE84" stroke="#038048" r="3"/><text font-family="sans-serif" font-size="11" lengthAdjust="spacingAndGlyphs" textLength="234" x="273.5" y="218.039">internal::succ_iterable succ(const state*)</text><circle cx="264.5" cy="228.535" fill="#84BE84" stroke="#038048" r="3"/><text font-family="sans-serif" font-size="11" lengthAdjust="spacingAndGlyphs" textLength="209" x="273.5" y="230.843">void release_iter(twa_succ_iterator*)</text><path stroke="#a80036" stroke-dasharray="1,2" d="M254.5 175.816h142"/><text font-family="sans-serif" font-size="11" lengthAdjust="spacingAndGlyphs" textLength="63" x="396.5" y="179.125">exploration</text><path stroke="#a80036" stroke-dasharray="1,2" d="M459.5 175.816h142"/><circle cx="264.5" cy="258.144" fill="#84BE84" stroke="#038048" r="3"/><text font-family="sans-serif" font-size="11" font-style="italic" lengthAdjust="spacingAndGlyphs" textLength="214" x="273.5" y="260.453">std::string format_state(const state*)</text><circle cx="264.5" cy="270.949" fill="#84BE84" stroke="#038048" r="3"/><text font-family="sans-serif" font-size="11" lengthAdjust="spacingAndGlyphs" textLength="323" x="273.5" y="273.257">state* project_state(const state*, const const_twa_ptr&amp;)</text><path stroke="#a80036" stroke-dasharray="1,2" d="M254.5 243.84H375"/><text font-family="sans-serif" font-size="11" lengthAdjust="spacingAndGlyphs" textLength="106" x="375" y="247.148">state manipulation</text><path stroke="#a80036" stroke-dasharray="1,2" d="M481 243.84h120.5M254.5 286.254h100"/><text font-family="sans-serif" font-size="11" lengthAdjust="spacingAndGlyphs" textLength="147" x="354.5" y="289.562">other methods not shown</text><path stroke="#a80036" stroke-dasharray="1,2" d="M501.5 286.254h100"/><path fill="#FEFECE" filter="url(#a)" stroke="#a80036" stroke-width="1.5" d="M62 116h156v150.438H62z"/><circle cx="83.3" cy="132" fill="#A9DCDF" stroke="#a80036" r="11"/><path d="M83.41 127.344l-1.157 5.078h2.328l-1.172-5.078zm-1.485-2.235h2.984l3.36 12.391h-2.453l-.766-3.063h-3.281l-.75 3.063H78.58l3.344-12.39z"/><text font-family="sans-serif" font-size="12" font-style="italic" lengthAdjust="spacingAndGlyphs" textLength="110" x="98.7" y="136.154">twa_succ_iterator</text><path stroke="#a80036" stroke-width="1.5" d="M63 148h154"/><circle cx="73" cy="176.707" fill="#84BE84" stroke="#038048" r="3"/><text font-family="sans-serif" font-size="11" font-style="italic" lengthAdjust="spacingAndGlyphs" textLength="59" x="82" y="179.015">bool first()</text><circle cx="73" cy="189.512" fill="#84BE84" stroke="#038048" r="3"/><text font-family="sans-serif" font-size="11" font-style="italic" lengthAdjust="spacingAndGlyphs" textLength="60" x="82" y="191.82">bool next()</text><circle cx="73" cy="202.316" fill="#84BE84" stroke="#038048" r="3"/><text font-family="sans-serif" font-size="11" font-style="italic" lengthAdjust="spacingAndGlyphs" textLength="64" x="82" y="204.625">bool done()</text><path stroke="#a80036" stroke-dasharray="1,2" d="M63 162.402h53.5"/><text font-family="sans-serif" font-size="11" lengthAdjust="spacingAndGlyphs" textLength="47" x="116.5" y="165.71">iteration</text><path stroke="#a80036" stroke-dasharray="1,2" d="M163.5 162.402H217"/><circle cx="73" cy="231.926" fill="#84BE84" stroke="#038048" r="3"/><text font-family="sans-serif" font-size="11" font-style="italic" lengthAdjust="spacingAndGlyphs" textLength="100" x="82" y="234.234">const state* dst()</text><circle cx="73" cy="244.731" fill="#84BE84" stroke="#038048" r="3"/><text font-family="sans-serif" font-size="11" font-style="italic" lengthAdjust="spacingAndGlyphs" textLength="60" x="82" y="247.039">bdd cond()</text><circle cx="73" cy="257.535" fill="#84BE84" stroke="#038048" r="3"/><text font-family="sans-serif" font-size="11" font-style="italic" lengthAdjust="spacingAndGlyphs" textLength="130" x="82" y="259.843">acc_cond::mark_t acc()</text><path stroke="#a80036" stroke-dasharray="1,2" d="M63 217.621h48"/><text font-family="sans-serif" font-size="11" lengthAdjust="spacingAndGlyphs" textLength="58" x="111" y="220.929">inspection</text><path stroke="#a80036" stroke-dasharray="1,2" d="M169 217.621h48"/><path fill="#FEFECE" filter="url(#a)" stroke="#a80036" stroke-width="1.5" d="M638 135h172v112.023H638z"/><circle cx="703.25" cy="151" fill="#A9DCDF" stroke="#a80036" r="11"/><path d="M703.36 146.344l-1.157 5.078h2.328l-1.172-5.078zm-1.485-2.235h2.984l3.36 12.391h-2.453l-.766-3.063h-3.281l-.75 3.063h-2.438l3.344-12.39z"/><text font-family="sans-serif" font-size="12" font-style="italic" lengthAdjust="spacingAndGlyphs" textLength="33" x="723.75" y="155.154">state</text><path stroke="#a80036" stroke-width="1.5" d="M639 167h170M639 175h170"/><circle cx="649" cy="186.902" fill="#84BE84" stroke="#038048" r="3"/><text font-family="sans-serif" font-size="11" font-style="italic" lengthAdjust="spacingAndGlyphs" textLength="146" x="658" y="189.21">int compare(const state*)</text><circle cx="649" cy="199.707" fill="#84BE84" stroke="#038048" r="3"/><text font-family="sans-serif" font-size="11" font-style="italic" lengthAdjust="spacingAndGlyphs" textLength="72" x="658" y="202.015">size_t hash()</text><circle cx="649" cy="212.512" fill="#84BE84" stroke="#038048" r="3"/><text font-family="sans-serif" font-size="11" font-style="italic" lengthAdjust="spacingAndGlyphs" textLength="77" x="658" y="214.82">state* clone()</text><circle cx="649" cy="225.316" fill="#84BE84" stroke="#038048" r="3"/><text font-family="sans-serif" font-size="11" lengthAdjust="spacingAndGlyphs" textLength="78" x="658" y="227.625">void destroy()</text><path fill="#FF4" stroke="#b38d22" d="M649 233.121l4 4-4 4-4-4z"/><text font-family="sans-serif" font-size="11" lengthAdjust="spacingAndGlyphs" textLength="46" x="658" y="240.429">~state()</text><path fill="#FEFECE" filter="url(#a)" stroke="#a80036" stroke-width="1.5" d="M320.5 378h215v73.609h-215z"/><circle cx="404.75" cy="394" fill="#A9DCDF" stroke="#a80036" r="11"/><path d="M404.86 389.344l-1.157 5.078h2.328l-1.172-5.078zm-1.485-2.235h2.984l3.36 12.391h-2.453l-.766-3.063h-3.281l-.75 3.063h-2.438l3.344-12.39z"/><text font-family="sans-serif" font-size="12" font-style="italic" lengthAdjust="spacingAndGlyphs" textLength="38" x="425.25" y="398.154">kripke</text><path stroke="#a80036" stroke-width="1.5" d="M321.5 410h213M321.5 418h213"/><circle cx="331.5" cy="429.902" fill="#84BE84" stroke="#038048" r="3"/><text font-family="sans-serif" font-size="11" lengthAdjust="spacingAndGlyphs" textLength="181" x="340.5" y="432.21">fair_kripke(const bdd_dict_ptr&amp;)</text><circle cx="331.5" cy="442.707" fill="#84BE84" stroke="#038048" r="3"/><text font-family="sans-serif" font-size="11" font-style="italic" lengthAdjust="spacingAndGlyphs" textLength="189" x="340.5" y="445.015">bdd state_condition(const state*)</text><path fill="#FEFECE" filter="url(#a)" stroke="#a80036" stroke-width="1.5" d="M71 359h214v112.023H71z"/><circle cx="111.2" cy="375" fill="#A9DCDF" stroke="#a80036" r="11"/><path d="M111.31 370.344l-1.157 5.078h2.328l-1.172-5.078zm-1.485-2.235h2.984l3.36 12.391h-2.453l-.766-3.063h-3.281l-.75 3.063h-2.438l3.344-12.39z"/><text font-family="sans-serif" font-size="12" font-style="italic" lengthAdjust="spacingAndGlyphs" textLength="126" x="130.8" y="379.154">kripke_succ_iterator</text><path stroke="#a80036" stroke-width="1.5" d="M72 391h212"/><path fill="none" stroke="#b38d22" d="M82 397.902l4 4-4 4-4-4z"/><text font-family="sans-serif" font-size="11" lengthAdjust="spacingAndGlyphs" textLength="58" x="91" y="405.21">bdd cond_</text><path stroke="#a80036" stroke-width="1.5" d="M72 411.805h212"/><circle cx="82" cy="423.707" fill="#84BE84" stroke="#038048" r="3"/><text font-family="sans-serif" font-size="11" lengthAdjust="spacingAndGlyphs" textLength="188" x="91" y="426.015">kripke_succ_iterator(const bdd&amp;)</text><circle cx="82" cy="436.512" fill="#84BE84" stroke="#038048" r="3"/><text font-family="sans-serif" font-size="11" lengthAdjust="spacingAndGlyphs" textLength="141" x="91" y="438.82">void recycle(const bdd&amp;)</text><circle cx="82" cy="449.316" fill="#84BE84" stroke="#038048" r="3"/><text font-family="sans-serif" font-size="11" lengthAdjust="spacingAndGlyphs" textLength="60" x="91" y="451.625">bdd cond()</text><circle cx="82" cy="462.121" fill="#84BE84" stroke="#038048" r="3"/><text font-family="sans-serif" font-size="11" lengthAdjust="spacingAndGlyphs" textLength="130" x="91" y="464.429">acc_cond::mark_t acc()</text><path fill="#FEFECE" filter="url(#a)" stroke="#a80036" stroke-width="1.5" d="M308 570h240v99.219H308z"/><circle cx="384.25" cy="586" fill="#ADD1B2" stroke="#a80036" r="11"/><path d="M387.219 591.64q-.578.298-1.219.438-.64.156-1.344.156-2.5 0-3.828-1.64-1.312-1.657-1.312-4.782t1.312-4.78q1.328-1.657 3.828-1.657.703 0 1.344.156.656.157 1.219.453v2.72q-.625-.579-1.219-.845-.594-.28-1.219-.28-1.344 0-2.031 1.077-.688 1.063-.688 3.157 0 2.093.688 3.171.688 1.063 2.031 1.063.625 0 1.219-.266.594-.281 1.219-.86v2.72z"/><text font-family="sans-serif" font-size="12" lengthAdjust="spacingAndGlyphs" textLength="79" x="404.75" y="590.154">demo_kripke</text><path stroke="#a80036" stroke-width="1.5" d="M309 602h238M309 610h238"/><circle cx="319" cy="621.902" fill="#84BE84" stroke="#038048" r="3"/><text font-family="sans-serif" font-size="11" lengthAdjust="spacingAndGlyphs" textLength="123" x="328" y="624.21">state* get_init_state()</text><circle cx="319" cy="634.707" fill="#84BE84" stroke="#038048" r="3"/><text font-family="sans-serif" font-size="11" lengthAdjust="spacingAndGlyphs" textLength="204" x="328" y="637.015">twa_succ_iterator* succ_iter(state*)</text><circle cx="319" cy="647.512" fill="#84BE84" stroke="#038048" r="3"/><text font-family="sans-serif" font-size="11" lengthAdjust="spacingAndGlyphs" textLength="214" x="328" y="649.82">std::string format_state(const state*)</text><circle cx="319" cy="660.316" fill="#84BE84" stroke="#038048" r="3"/><text font-family="sans-serif" font-size="11" lengthAdjust="spacingAndGlyphs" textLength="189" x="328" y="662.625">bdd state_condition(const state*)</text><path fill="#FEFECE" filter="url(#a)" stroke="#a80036" stroke-width="1.5" d="M117.5 570h155v99.219h-155z"/><circle cx="132.5" cy="586" fill="#ADD1B2" stroke="#a80036" r="11"/><path d="M135.469 591.64q-.578.298-1.219.438-.64.156-1.344.156-2.5 0-3.828-1.64-1.312-1.657-1.312-4.782t1.312-4.78q1.328-1.657 3.828-1.657.703 0 1.344.156.656.157 1.219.453v2.72q-.625-.579-1.219-.845-.594-.28-1.219-.28-1.344 0-2.031 1.077-.688 1.063-.688 3.157 0 2.093.688 3.171.688 1.063 2.031 1.063.625 0 1.219-.266.594-.281 1.219-.86v2.72z"/><text font-family="sans-serif" font-size="12" lengthAdjust="spacingAndGlyphs" textLength="123" x="146.5" y="590.154">demo_succ_iterator</text><path stroke="#a80036" stroke-width="1.5" d="M118.5 602h153M118.5 610h153"/><circle cx="128.5" cy="621.902" fill="#84BE84" stroke="#038048" r="3"/><text font-family="sans-serif" font-size="11" lengthAdjust="spacingAndGlyphs" textLength="59" x="137.5" y="624.21">bool first()</text><circle cx="128.5" cy="634.707" fill="#84BE84" stroke="#038048" r="3"/><text font-family="sans-serif" font-size="11" lengthAdjust="spacingAndGlyphs" textLength="60" x="137.5" y="637.015">bool next()</text><circle cx="128.5" cy="647.512" fill="#84BE84" stroke="#038048" r="3"/><text font-family="sans-serif" font-size="11" lengthAdjust="spacingAndGlyphs" textLength="64" x="137.5" y="649.82">bool done()</text><circle cx="128.5" cy="660.316" fill="#84BE84" stroke="#038048" r="3"/><text font-family="sans-serif" font-size="11" lengthAdjust="spacingAndGlyphs" textLength="100" x="137.5" y="662.625">const state* dst()</text><path fill="#FEFECE" filter="url(#a)" stroke="#a80036" stroke-width="1.5" d="M583 576.5h172v86.414H583z"/><circle cx="627.75" cy="592.5" fill="#ADD1B2" stroke="#a80036" r="11"/><path d="M630.719 598.14q-.578.298-1.219.438-.64.156-1.344.156-2.5 0-3.828-1.64-1.312-1.657-1.312-4.782t1.312-4.78q1.328-1.657 3.828-1.657.703 0 1.344.156.656.157 1.219.453v2.72q-.625-.579-1.219-.845-.594-.28-1.219-.28-1.343 0-2.031 1.077-.688 1.063-.688 3.157 0 2.093.688 3.171.688 1.063 2.031 1.063.625 0 1.219-.266.594-.281 1.219-.86v2.72z"/><text font-family="sans-serif" font-size="12" lengthAdjust="spacingAndGlyphs" textLength="74" x="648.25" y="596.654">demo_state</text><path stroke="#a80036" stroke-width="1.5" d="M584 608.5h170M584 616.5h170"/><circle cx="594" cy="628.402" fill="#84BE84" stroke="#038048" r="3"/><text font-family="sans-serif" font-size="11" lengthAdjust="spacingAndGlyphs" textLength="146" x="603" y="630.71">int compare(const state*)</text><circle cx="594" cy="641.207" fill="#84BE84" stroke="#038048" r="3"/><text font-family="sans-serif" font-size="11" lengthAdjust="spacingAndGlyphs" textLength="72" x="603" y="643.515">size_t hash()</text><circle cx="594" cy="654.012" fill="#84BE84" stroke="#038048" r="3"/><text font-family="sans-serif" font-size="11" lengthAdjust="spacingAndGlyphs" textLength="77" x="603" y="656.32">state* clone()</text><path d="M428 319.35v58.49M421 319.1l7-20 7 20h-14zM156.12 286.19c4.24 24.76 8.67 50.66 12.43 72.62M149.18 287.13l3.53-20.9 10.27 18.53-13.8 2.37zM714.3 267.23c-11.6 89.95-30.61 237.32-39.87 309.2M707.37 266.26l9.5-18.94 4.38 20.73-13.88-1.79zM184.33 491.38c2.2 26.17 4.6 54.82 6.57 78.28M177.32 491.58l5.3-20.51 8.65 19.34-13.95 1.17zM428 472.55v97.12M421 472.2l7-20 7 20h-14z" fill="none" stroke="#a80036"/></svg>