<?xml-stylesheet href="spot.css" type="text/css"?><svg width="437pt" height="272pt" viewBox="0 0 437 272" xmlns="http://www.w3.org/2000/svg"><g class="graph" transform="translate(4 268)"><path fill="#fff" stroke="transparent" d="M-4 4v-272h437V4H-4z"/><text x="193" y="-250.4" font-family="Lato" font-size="12">[Büchi]</text><g class="node"><circle fill="#ffffa0" stroke="#000" cx="56" cy="-68" r="18"/><text text-anchor="middle" x="56" y="-64.9" font-family="Lato" font-size="12">0</text></g><g class="edge"><path fill="none" stroke="#000" d="M1.15-68h29.48"/><path stroke="#000" d="M37.94-68l-7-3.15 3.5 3.15h-3.5 3.5l-3.5 3.15 7-3.15h0z"/></g><g class="node"><circle fill="#ffffa0" stroke="#000" cx="173" cy="-190" r="18"/><circle fill="none" stroke="#000" cx="173" cy="-190" r="22"/><text text-anchor="middle" x="173" y="-186.9" font-family="Lato" font-size="12">1</text></g><g class="edge"><path fill="none" stroke="#000" d="M68.93-81.06C75.68-88.42 84.27-97.75 92-106c20.28-21.66 43.72-46.21 59.96-63.15"/><path stroke="#000" d="M157.18-174.59l-7.12 2.87 4.69-.35-2.42 2.53h0l2.42-2.53-.14 4.71 2.57-7.23h0z"/><text text-anchor="middle" x="112.5" y="-150.4" font-family="Lato" font-size="12">1</text></g><g class="node"><circle fill="#ffffa0" stroke="#000" cx="173" cy="-101" r="18"/><text text-anchor="middle" x="173" y="-97.9" font-family="Lato" font-size="12">2</text></g><g class="edge"><path fill="none" stroke="#000" d="M73.48-72.73c19.72-5.66 52.89-15.18 75.23-21.59"/><path stroke="#000" d="M155.55-96.28l-7.59-1.1 4.23 2.06-3.36.97h0l3.36-.97-2.5 4 5.86-4.96h0z"/><text x="92" y="-92.4" font-family="Lato" font-size="12">!a &amp; !b</text></g><g class="node"><circle fill="#ffffa0" stroke="#000" cx="407" cy="-22" r="18"/><circle fill="none" stroke="#000" cx="407" cy="-22" r="22"/><text text-anchor="middle" x="407" y="-18.9" font-family="Lato" font-size="12">3</text></g><g class="edge"><path fill="none" stroke="#000" d="M73.17-61.62C79.02-59.53 85.73-57.4 92-56c103.72 23.09 230.35 30.71 285.77 33.04"/><path stroke="#000" d="M384.79-22.67l-6.87-3.43 3.37 3.29-3.49-.14h0l3.49.14-3.62 3 7.12-2.86h0z"/><text x="213" y="-38.4" font-family="Lato" font-size="12">!a &amp; !b</text></g><g class="node"><circle fill="#ffffa0" stroke="#000" cx="290" cy="-76" r="18"/><text text-anchor="middle" x="290" y="-72.9" font-family="Lato" font-size="12">4</text></g><g class="edge"><path fill="none" stroke="#000" d="M74.02-65.72C100.09-62.54 151.48-57.55 195-61c24-1.9 51.12-6.5 70.04-10.1"/><path stroke="#000" d="M272.12-72.48l-7.48-1.75 4.04 2.42-3.44.67h0l3.44-.67-2.83 3.76 6.27-4.43h0z"/><text x="159.5" y="-64.4" font-family="Lato" font-size="12">a | b</text></g><g class="edge"><path fill="none" stroke="#000" d="M162.29-209.34c-2-10.76 1.57-20.66 10.71-20.66 7 0 10.73 5.8 11.2 13.35"/><path stroke="#000" d="M183.71-209.34l3.61-6.78-3.37 3.28.23-3.49h0l-.23 3.49-2.91-3.7 2.67 7.2h0z"/><text x="169" y="-233.4" font-family="Lato" font-size="12">b</text></g><g class="node"><circle fill="#ffffa0" stroke="#000" cx="290" cy="-172" r="18"/><text text-anchor="middle" x="290" y="-168.9" font-family="Lato" font-size="12">5</text></g><g class="edge"><path fill="none" stroke="#000" d="M194.83-186.74c19.8 3.1 49.56 7.76 70.31 11"/><path stroke="#000" d="M272.07-174.65l-6.43-4.19 2.97 3.65-3.46-.54h0l3.46.54-3.94 2.57 7.4-2.03h0z"/><text x="227" y="-186.4" font-family="Lato" font-size="12">!b</text></g><g class="edge"><path fill="none" stroke="#000" d="M162.85-116.17c-3.08-10.49.31-20.83 10.15-20.83 7.54 0 11.29 6.06 11.25 13.61"/><path stroke="#000" d="M183.15-116.17l4.17-6.44-3.64 2.98.52-3.46h0l-.52 3.46-2.59-3.93 2.06 7.39h0z"/><text x="152.5" y="-140.4" font-family="Lato" font-size="12">!a &amp; !b</text></g><g class="edge"><path fill="none" stroke="#000" d="M190.98-103.23c16.51-1.55 42.07-2.32 63.02 4.23 5.46 1.71 10.88 4.54 15.76 7.65"/><path stroke="#000" d="M275.61-87.34l-3.99-6.55 1.11 4.57-2.89-1.97h0l2.89 1.97-4.67.62 7.55 1.36h0z"/><text x="220" y="-107.4" font-family="Lato" font-size="12">a | b</text></g><g class="edge"><path fill="none" stroke="#000" d="M396.29-41.34C394.29-52.1 397.86-62 407-62c7 0 10.73 5.8 11.2 13.35"/><path stroke="#000" d="M417.71-41.34l3.61-6.78-3.37 3.28.23-3.49h0l-.23 3.49-2.91-3.7 2.67 7.2h0z"/><text x="386.5" y="-65.4" font-family="Lato" font-size="12">!a &amp; !b</text></g><g class="edge"><path fill="none" stroke="#000" d="M271.78-75.55c-15.61-.01-39.11-1.09-58.78-6.45-5.95-1.62-12.09-4.15-17.69-6.84"/><path stroke="#000" d="M189.04-92.03l4.81 5.98-1.69-4.4 3.12 1.59h0l-3.12-1.59 4.55-1.22-7.67-.36h0z"/><text x="213" y="-85.4" font-family="Lato" font-size="12">!a &amp; !b</text></g><g class="edge"><path fill="none" stroke="#000" d="M306.51-68.72c18.86 8.86 50.97 23.94 73.61 34.57"/><path stroke="#000" d="M386.52-31.15l-5-5.82 1.83 4.33-3.17-1.48h0l3.17 1.48-4.51 1.37 7.68.12h0z"/><text x="326" y="-61.4" font-family="Lato" font-size="12">!a &amp; !b</text></g><g class="edge"><path fill="none" stroke="#000" d="M280.43-91.54c-2.7-10.37.49-20.46 9.57-20.46 6.95 0 10.45 5.92 10.5 13.34"/><path stroke="#000" d="M299.57-91.54l4.03-6.54-3.57 3.07.45-3.47h0l-.45 3.47-2.68-3.88 2.22 7.35h0z"/><text x="276.5" y="-115.4" font-family="Lato" font-size="12">a | b</text></g><g class="edge"><path fill="none" stroke="#000" d="M273.2-165.19c-15.64 5.74-40.09 12.03-60.2 5.19-6.41-2.18-12.6-5.89-18.08-9.97"/><path stroke="#000" d="M189.28-174.49l3.49 6.83-.76-4.64 2.73 2.18h0l-2.73-2.18 4.7-.28-7.43-1.91h0z"/><text x="229.5" y="-163.4" font-family="Lato" font-size="12">b</text></g><g class="edge"><path fill="none" stroke="#000" d="M280.43-187.54c-2.7-10.37.49-20.46 9.57-20.46 6.95 0 10.45 5.92 10.5 13.34"/><path stroke="#000" d="M299.57-187.54l4.03-6.54-3.57 3.07.45-3.47h0l-.45 3.47-2.68-3.88 2.22 7.35h0z"/><text x="283.5" y="-211.4" font-family="Lato" font-size="12">!b</text></g></g></svg>