<?xml-stylesheet href="spot.css" type="text/css"?><svg width="274pt" height="197pt" viewBox="0 0 274 197" xmlns="http://www.w3.org/2000/svg"><g class="graph" transform="translate(4 193)"><path fill="#fff" stroke="transparent" d="M-4 4v-197h274V4H-4z"/><text x="111.5" y="-175.4" font-family="Lato" font-size="12">[Büchi]</text><g class="node"><circle fill="#ffffa0" stroke="#000" cx="56" cy="-68" r="18"/><text text-anchor="middle" x="56" y="-64.9" font-family="Lato" font-size="12">0</text></g><g class="edge"><path fill="none" stroke="#000" d="M1.15-68h29.48"/><path stroke="#000" d="M37.94-68l-7-3.15 3.5 3.15h-3.5 3.5l-3.5 3.15 7-3.15h0z"/></g><g class="node"><circle fill="#ffffa0" stroke="#000" cx="152" cy="-115" r="18"/><circle fill="none" stroke="#000" cx="152" cy="-115" r="22"/><text text-anchor="middle" x="152" y="-111.9" font-family="Lato" font-size="12">1</text></g><g class="edge"><path fill="none" stroke="#000" d="M72.52-75.76c14.37-7.18 35.99-17.99 52.9-26.45"/><path stroke="#000" d="M131.88-105.44l-7.67.31 4.54 1.26-3.13 1.56h0l3.13-1.56-1.72 4.38 4.85-5.95h0z"/><text x="94" y="-97.4" font-family="Lato" font-size="12">p0</text></g><g class="node"><circle fill="#ffffa0" stroke="#000" cx="152" cy="-22" r="18"/><circle fill="none" stroke="#000" cx="152" cy="-22" r="22"/><text text-anchor="middle" x="152" y="-18.9" font-family="Lato" font-size="12">2</text></g><g class="edge"><path fill="none" stroke="#000" d="M72.52-60.4c14.37 7.02 35.99 17.61 52.9 25.88"/><path stroke="#000" d="M131.88-31.36l-4.9-5.9 1.75 4.36-3.14-1.53h0l3.14 1.53-4.52 1.3 7.67.24h0z"/><text x="92" y="-53.4" font-family="Lato" font-size="12">!p0</text></g><g class="edge"><path fill="none" stroke="#000" d="M142.95-135.17C141.56-145.6 144.58-155 152-155c5.68 0 8.78 5.51 9.3 12.77"/><path stroke="#000" d="M161.05-135.17l3.39-6.88-3.27 3.38.13-3.5h0l-.13 3.5-3.02-3.61 2.9 7.11h0z"/><text text-anchor="middle" x="152" y="-158.4" font-family="Lato" font-size="12">1</text></g><g class="edge"><path fill="none" stroke="#000" d="M142.95-42.17C141.56-52.6 144.58-62 152-62c5.68 0 8.78 5.51 9.3 12.77"/><path stroke="#000" d="M161.05-42.17l3.39-6.88-3.27 3.38.13-3.5h0l-.13 3.5-3.02-3.61 2.9 7.11h0z"/><text x="144" y="-65.4" font-family="Lato" font-size="12">p1</text></g><g class="node"><circle fill="#ffffa0" stroke="#000" cx="248" cy="-22" r="18"/><text text-anchor="middle" x="248" y="-18.9" font-family="Lato" font-size="12">3</text></g><g class="edge"><path fill="none" stroke="#000" d="M174.33-22h48.1"/><path stroke="#000" d="M229.83-22l-7-3.15 3.5 3.15h-3.5 3.5l-3.5 3.15 7-3.15h0z"/><text x="192" y="-25.4" font-family="Lato" font-size="12">!p1</text></g><g class="edge"><path fill="none" stroke="#000" d="M232.22-12.98C226.18-9.8 218.98-6.61 212-5c-11.25 2.59-23.54-.06-33.97-3.97"/><path stroke="#000" d="M171.47-11.68l5.26 5.59-2.03-4.25L177.94-9h0l-3.24-1.34 4.44-1.58-7.67.24h0z"/><text x="194" y="-8.4" font-family="Lato" font-size="12">p1</text></g><g class="edge"><path fill="none" stroke="#000" d="M239.98-38.29C238.05-48.39 240.72-58 248-58c5.46 0 8.33 5.41 8.6 12.37"/><path stroke="#000" d="M256.02-38.29l3.69-6.73-3.41 3.24.27-3.49h0l-.27 3.49-2.87-3.74 2.59 7.23h0z"/><text x="238" y="-61.4" font-family="Lato" font-size="12">!p1</text></g></g></svg>