<?xml-stylesheet href="spot.css" type="text/css"?><svg width="304pt" height="145pt" viewBox="0 0 304 145" xmlns="http://www.w3.org/2000/svg"><g class="graph" transform="translate(4 141)"><path fill="#fff" stroke="transparent" d="M-4 4v-145h304V4H-4z"/><text x="126.5" y="-123.4" font-family="Lato" font-size="12">[Büchi]</text><g class="node"><circle fill="#ffffa0" stroke="#000" cx="60" cy="-34" r="18"/><circle fill="none" stroke="#000" cx="60" cy="-34" r="22"/><text text-anchor="middle" x="60" y="-30.9" font-family="Lato" font-size="12">0</text></g><g class="edge"><path fill="none" stroke="#000" d="M1.17-34h29.54"/><path stroke="#000" d="M37.86-34l-7-3.15 3.5 3.15h-3.5 3.5l-3.5 3.15 7-3.15h0z"/></g><g class="edge"><path fill="none" stroke="#000" d="M52.68-54.99C51.78-65.09 54.22-74 60-74c4.34 0 6.79 5.01 7.37 11.78"/><path stroke="#000" d="M67.32-54.99l3.2-6.98-3.18 3.48.03-3.5h0l-.03 3.5-3.12-3.52 3.1 7.02h0z"/><text x="44" y="-77.4" font-family="Lato" font-size="12">a &amp; b</text></g><g class="node"><circle fill="#ffffa0" stroke="#000" cx="168.5" cy="-67" r="18"/><text text-anchor="middle" x="168.5" y="-63.9" font-family="Lato" font-size="12">1</text></g><g class="edge"><path fill="none" stroke="#000" d="M75.87-49.56C82.61-55.55 91.06-61.73 100-65c13.71-5.02 30.06-5.62 43.23-4.93"/><path stroke="#000" d="M150.58-69.39l-6.75-3.65 3.26 3.4-3.49-.26h0l3.49.26-3.72 2.88 7.21-2.63h0z"/><text x="109.5" y="-73.4" font-family="Lato" font-size="12">!b</text></g><g class="node"><circle fill="#ffffa0" stroke="#000" cx="278" cy="-18" r="18"/><text text-anchor="middle" x="278" y="-14.9" font-family="Lato" font-size="12">2</text></g><g class="edge"><path fill="none" stroke="#000" d="M82.22-32.28c18.03 1.44 44.6 3.55 67.78 5.28 35.71 2.67 77.08 5.56 102.65 7.33"/><path stroke="#000" d="M259.74-19.18l-6.76-3.62 3.27 3.38-3.49-.24h0l3.49.24-3.71 2.9 7.2-2.66h0z"/><text x="150" y="-30.4" font-family="Lato" font-size="12">!a &amp; b</text></g><g class="edge"><path fill="none" stroke="#000" d="M152.75-57.84c-6.21 3.52-13.64 7.3-20.75 9.84-13.78 4.92-29.71 8.26-42.99 10.44"/><path stroke="#000" d="M81.94-36.46l7.4 2.04L85.4-37l3.46-.53h0L85.4-37l2.98-3.65-6.44 4.19h0z"/><text x="100" y="-51.4" font-family="Lato" font-size="12">a &amp; b</text></g><g class="edge"><path fill="none" stroke="#000" d="M159.52-82.92c-2.34-10.23.65-20.08 8.98-20.08 6.38 0 9.63 5.77 9.75 13.07"/><path stroke="#000" d="M177.48-82.92l3.89-6.61-3.51 3.13.38-3.47h0l-.38 3.47-2.75-3.82 2.37 7.3h0z"/><text x="162" y="-106.4" font-family="Lato" font-size="12">!b</text></g><g class="edge"><path fill="none" stroke="#000" d="M185.36-59.77c18.37 8.37 48.74 22.22 69.44 31.65"/><path stroke="#000" d="M261.42-25.1l-5.06-5.77 1.88 4.32-3.19-1.45h0l3.19 1.45-4.49 1.41 7.67.04h0z"/><text x="205" y="-52.4" font-family="Lato" font-size="12">!a &amp; b</text></g><g class="edge"><path fill="none" stroke="#000" d="M260.08-14.04C235.66-8.88 189.19-1.19 150-7c-21.57-3.2-45.16-10.54-62.63-16.76"/><path stroke="#000" d="M80.76-26.17l5.5 5.36-2.21-4.16 3.29 1.2h0l-3.29-1.2 4.37-1.76-7.66.56h0z"/><text x="164.5" y="-10.4" font-family="Lato" font-size="12">a</text></g><g class="edge"><path fill="none" stroke="#000" d="M268.77-33.54C266.17-43.91 269.25-54 278-54c6.7 0 10.08 5.92 10.12 13.34"/><path stroke="#000" d="M287.23-33.54l4-6.56-3.56 3.09.43-3.48h0l-.43 3.48-2.69-3.87 2.25 7.34h0z"/><text x="271.5" y="-57.4" font-family="Lato" font-size="12">!a</text></g></g></svg>