<?xml-stylesheet href="spot.css" type="text/css"?><svg width="144" height="316" viewBox="0 0 108 237" xmlns="http://www.w3.org/2000/svg"><g class="graph"><path fill="#fff" stroke="transparent" d="M0 237V0h108v237H0z"/><text x="8" y="-216.4" font-family="Lato" font-size="12" transform="translate(4 233)">Inf(</text><text x="29" y="-216.4" font-family="Lato" font-size="12" fill="#1f78b4" transform="translate(4 233)">⓿</text><text x="42" y="-216.4" font-family="Lato" font-size="12" transform="translate(4 233)">)&amp;Inf(</text><text x="76" y="-216.4" font-family="Lato" font-size="12" fill="#ff4da0" transform="translate(4 233)">❶</text><text x="87" y="-216.4" font-family="Lato" font-size="12" transform="translate(4 233)">)</text><text x="8" y="-204.4" font-family="Lato" font-size="12" transform="translate(4 233)">[gen. Büchi 2]</text><g class="node" transform="translate(4 233)"><circle fill="#ffffa0" stroke="#000" cx="67.75" cy="-18" r="18"/><text text-anchor="middle" x="67.75" y="-14.9" font-family="Lato" font-size="12">0</text></g><g class="edge" transform="translate(4 233)"><path fill="none" stroke="#000" d="M12.9-18h29.48"/><path stroke="#000" d="M49.69-18l-7-3.15 3.5 3.15h-3.5 3.5l-3.5 3.15 7-3.15h0z"/></g><g class="edge" transform="translate(4 233)"><path fill="none" stroke="#000" d="M66.12-36.15c-.25-9.39.29-17.85 1.63-17.85.98 0 1.53 4.56 1.66 10.7"/><path stroke="#000" d="M69.38-36.15l3.18-6.99-3.17 3.49.02-3.5h0l-.02 3.5-3.13-3.52 3.12 7.02h0z"/><text x="47.25" y="-57.4" font-family="Lato" font-size="12">!a &amp; !b</text></g><g class="edge" transform="translate(4 233)"><path fill="none" stroke="#000" d="M65.04-35.98C63.6-53.2 64.5-72 67.75-72c2.79 0 3.85 13.88 3.18 28.72"/><path stroke="#000" d="M70.46-35.98l3.59-6.78-3.37 3.29.23-3.49h0l-.23 3.49-2.92-3.7 2.7 7.19h0z"/><text x="49.25" y="-88.4" font-family="Lato" font-size="12">a &amp; !b</text><text x="61.25" y="-75.4" font-family="Lato" font-size="12" fill="#1f78b4">⓿</text></g><g class="edge" transform="translate(4 233)"><path fill="none" stroke="#000" d="M64.47-35.85C61.28-62.44 62.37-98 67.75-98c4.92 0 6.25 29.71 4.01 55.13"/><path stroke="#000" d="M71.03-35.85l3.85-6.64-3.49 3.16.36-3.48h0l-.36 3.48-2.77-3.81 2.41 7.29h0z"/><text x="49.25" y="-114.4" font-family="Lato" font-size="12">!a &amp; b</text><text x="62.25" y="-101.4" font-family="Lato" font-size="12" fill="#ff4da0">❶</text></g><g class="edge" transform="translate(4 233)"><path fill="none" stroke="#000" d="M64.05-35.94C58.99-70.89 60.23-124 67.75-124c7.02 0 8.57 46.29 4.63 80.88"/><path stroke="#000" d="M71.45-35.94l4.02-6.54-3.57 3.07.45-3.47h0l-.45 3.47-2.68-3.88 2.23 7.35h0z"/><text x="51.75" y="-139.4" font-family="Lato" font-size="12">a &amp; b</text><text x="55.75" y="-127.4" font-family="Lato" font-size="12" fill="#1f78b4">⓿</text><text x="68.75" y="-127.4" font-family="Lato" font-size="12" fill="#ff4da0">❶</text></g></g></svg>