<?xml-stylesheet href="spot.css" type="text/css"?><svg width="310pt" height="193pt" viewBox="0 0 310 193" xmlns="http://www.w3.org/2000/svg"><g class="graph"><path fill="#fff" stroke="transparent" d="M0 193V0h310v193H0z"/><text x="129.5" y="-171.4" font-family="Lato" font-size="12" transform="translate(4 189)">[Büchi]</text><g class="node" transform="translate(4 189)"><circle fill="#ffffa0" stroke="#ff4da0" stroke-width="2" cx="56" cy="-75" r="18"/><text text-anchor="middle" x="56" y="-71.9" font-family="Lato" font-size="12">0</text></g><g class="edge" transform="translate(4 189)"><path fill="none" stroke="#000" d="M1.15-75h29.48"/><path stroke="#000" d="M37.94-75l-7-3.15 3.5 3.15h-3.5 3.5l-3.5 3.15 7-3.15h0z"/></g><g class="edge" transform="translate(4 189)"><path fill="none" stroke="#ff4da0" stroke-width="2" d="M49.62-92.04c-1.3-9.82.83-18.96 6.38-18.96 4.17 0 6.4 5.14 6.71 11.86"/><path fill="#ff4da0" stroke="#ff4da0" stroke-width="2" d="M62.38-92.04l3.47-6.84-2.81 3.37.17-3.5-.5-.02-.5-.02-.17 3.49-2.48-3.62 2.82 7.14h0z"/><text x="49.5" y="-114.4" font-family="Lato" font-size="12">!a</text></g><g class="node" transform="translate(4 189)"><circle fill="#ffffa0" stroke="#ff4da0" stroke-width="2" cx="173" cy="-111" r="18"/><text text-anchor="middle" x="173" y="-107.9" font-family="Lato" font-size="12">1</text></g><g class="edge" transform="translate(4 189)"><path fill="none" stroke="#000" d="M72.89-81.79C78.83-84.22 85.67-86.87 92-89c18.71-6.29 40.31-12.15 56.34-16.24"/><path stroke="#000" d="M155.29-106.99l-7.56-1.34 4.16 2.2-3.39.85h0l3.39-.85-2.62 3.91 6.02-4.77h0z"/><text x="108.5" y="-104.4" font-family="Lato" font-size="12">a</text></g><g class="node" transform="translate(4 189)"><circle fill="#ffffa0" stroke="#000" cx="173" cy="-22" r="18"/><circle fill="none" stroke="#000" cx="173" cy="-22" r="22"/><text text-anchor="middle" x="173" y="-18.9" font-family="Lato" font-size="12">2</text></g><g class="edge" transform="translate(4 189)"><path fill="none" stroke="#ff4da0" stroke-width="2" d="M70.38-64.08C76.68-59.31 84.44-53.92 92-50c16.77 8.7 36.83 15.71 52.67 20.54"/><path fill="#ff4da0" stroke="#ff4da0" stroke-width="2" d="M151.62-27.39l-5.81-5.01 2.6 3.53-3.36-.99-.14.48-.14.47 3.35 1-4.11 1.54 7.61-1.02h0z"/><text x="106" y="-53.4" font-family="Lato" font-size="12">!a</text></g><g class="edge" transform="translate(4 189)"><path fill="none" stroke="#000" d="M161.95-96.22C154.98-87.37 144.85-76.91 133-72c-16.46 6.82-36.68 5.62-52.13 2.95"/><path stroke="#000" d="M73.71-70.44l6.27 4.43-2.83-3.76 3.43.67h0l-3.43-.67 4.04-2.42-7.48 1.75h0z"/><text x="92" y="-75.4" font-family="Lato" font-size="12">!a &amp; !b</text></g><g class="edge" transform="translate(4 189)"><path fill="none" stroke="#ff4da0" stroke-width="2" d="M164.02-126.92c-2.34-10.23.65-20.08 8.98-20.08 6.38 0 9.63 5.77 9.75 13.07"/><path fill="#ff4da0" stroke="#ff4da0" stroke-width="2" d="M181.98-126.92l3.89-6.61-3.01 3.19.38-3.48-.5-.05-.5-.06-.38 3.48-2.25-3.77 2.37 7.3h0z"/><text x="159.5" y="-150.4" font-family="Lato" font-size="12">a | b</text></g><g class="node" transform="translate(4 189)"><circle fill="#ffffa0" stroke="#000" cx="280" cy="-111" r="18"/><circle fill="none" stroke="#000" cx="280" cy="-111" r="22"/><text text-anchor="middle" x="280" y="-107.9" font-family="Lato" font-size="12">3</text></g><g class="edge" transform="translate(4 189)"><path fill="none" stroke="#ff4da0" stroke-width="2" d="M191.34-111h59.09"/><path fill="#ff4da0" stroke="#ff4da0" stroke-width="2" d="M257.64-111l-7-3.15 3.5 2.65h-3.5v1h3.5l-3.5 2.65 7-3.15h0z"/><text x="213" y="-114.4" font-family="Lato" font-size="12">a | b</text></g><g class="edge" transform="translate(4 189)"><path fill="none" stroke="#000" d="M163.59-42.17C162.15-52.6 165.28-62 173-62c5.91 0 9.13 5.51 9.67 12.77"/><path stroke="#000" d="M182.41-42.17l3.41-6.88-3.28 3.38.13-3.49h0l-.13 3.49-3.02-3.61 2.89 7.11h0z"/><text x="166.5" y="-65.4" font-family="Lato" font-size="12">!a</text></g><g class="edge" transform="translate(4 189)"><path fill="none" stroke="#000" d="M270.59-131.17C269.15-141.6 272.28-151 280-151c5.91 0 9.13 5.51 9.67 12.77"/><path stroke="#000" d="M289.41-131.17l3.41-6.88-3.28 3.38.13-3.49h0l-.13 3.49-3.02-3.61 2.89 7.11h0z"/><text x="266.5" y="-154.4" font-family="Lato" font-size="12">a | b</text></g></g></svg>