<?xml-stylesheet href="spot.css" type="text/css"?><svg width="412" height="244" viewBox="0 0 309 183.34" xmlns="http://www.w3.org/2000/svg"><g class="graph" transform="translate(4 179.34)"><path fill="#fff" stroke="transparent" d="M-4 4v-183.34h309V4H-4z"/><text x="131" y="-162.74" font-family="Lato" font-size="12">Inf(</text><text x="152" y="-162.74" font-family="Lato" font-size="12" fill="#1f78b4">⓿</text><text x="165" y="-162.74" font-family="Lato" font-size="12">)</text><text x="129" y="-150.74" font-family="Lato" font-size="12">[Büchi]</text><g class="node"><circle fill="#ffffa0" stroke="#000" cx="56" cy="-65.34" r="18"/><text text-anchor="middle" x="56" y="-62.24" font-family="Lato" font-size="12">0</text></g><g class="edge"><path fill="none" stroke="#000" d="M1.15-65.34h29.48"/><path stroke="#000" d="M37.94-65.34l-7-3.15 3.5 3.15h-3.5 3.5l-3.5 3.15 7-3.15h0z"/></g><g class="edge"><path fill="none" stroke="#000" d="M49.62-82.38c-1.3-9.82.83-18.96 6.38-18.96 4.17 0 6.4 5.14 6.71 11.85"/><path stroke="#000" d="M62.38-82.38l3.47-6.85-3.31 3.35.17-3.49h0l-.17 3.49-2.98-3.64 2.82 7.14h0z"/><text x="52" y="-117.74" font-family="Lato" font-size="12">a</text><text x="49.5" y="-104.74" font-family="Lato" font-size="12" fill="#1f78b4">⓿</text></g><g class="node"><circle fill="#ffffa0" stroke="#000" cx="283" cy="-56.34" r="18"/><text text-anchor="middle" x="283" y="-53.24" font-family="Lato" font-size="12">1</text></g><g class="edge"><path fill="none" stroke="#000" d="M69.23-78.26c22.71-22.33 73.2-64.36 118.77-49.08 30.93 10.36 59.81 35.37 77.18 52.76"/><path stroke="#000" d="M270.2-69.46l-2.65-7.21.2 4.71-2.45-2.5h0l2.45 2.5-4.7-.3 7.15 2.8h0z"/><text x="147" y="-133.74" font-family="Lato" font-size="12">!a &amp; !b</text></g><g class="node"><circle fill="#ffffa0" stroke="#000" cx="167.5" cy="-56.34" r="18"/><text text-anchor="middle" x="167.5" y="-53.24" font-family="Lato" font-size="12">2</text></g><g class="edge"><path fill="none" stroke="#000" d="M73.98-67.91c14.66-1.78 36.35-3.35 55.02-.43 4.81.75 9.85 2.01 14.61 3.44"/><path stroke="#000" d="M150.34-62.72l-5.69-5.16 2.36 4.08-3.33-1.08h0l3.33 1.08-4.3 1.92 7.63-.84h0z"/><text x="92" y="-72.74" font-family="Lato" font-size="12">!a &amp; b</text></g><g class="edge"><path fill="none" stroke="#000" d="M268.35-45.61C250.89-32.64 219.17-11.52 188-3.34c-17.63 4.62-23.25 4.12-41 0-26.53-6.16-32.85-11.16-55-27-6.64-4.75-13.16-10.79-18.75-16.51"/><path stroke="#000" d="M68.41-51.97l2.52 7.25-.12-4.71 2.41 2.55h0l-2.41-2.55 4.7.38-7.1-2.92h0z"/><text x="163.5" y="-19.74" font-family="Lato" font-size="12">a</text><text x="161" y="-6.74" font-family="Lato" font-size="12" fill="#1f78b4">⓿</text></g><g class="edge"><path fill="none" stroke="#000" d="M273.43-71.89c-2.7-10.36.49-20.45 9.57-20.45 6.95 0 10.45 5.91 10.5 13.34"/><path stroke="#000" d="M292.57-71.89l4.03-6.53-3.57 3.06.45-3.47h0l-.45 3.47-2.68-3.87 2.22 7.34h0z"/><text x="276.5" y="-95.74" font-family="Lato" font-size="12">!a</text></g><g class="edge"><path fill="none" stroke="#000" d="M151.74-47.37c-6.69 3.56-14.85 7.23-22.74 9.03-16.03 3.65-21.44 5.3-37 0-6.16-2.1-12.08-5.78-17.24-9.75"/><path stroke="#000" d="M69.07-52.81l3.37 6.9-.67-4.66 2.69 2.23h0l-2.69-2.23 4.7-.19-7.4-2.05h0z"/><text x="106.5" y="-54.74" font-family="Lato" font-size="12">a</text><text x="104" y="-41.74" font-family="Lato" font-size="12" fill="#1f78b4">⓿</text></g><g class="edge"><path fill="none" stroke="#000" d="M185.74-56.34h72.01"/><path stroke="#000" d="M264.97-56.34l-7-3.15 3.5 3.15h-3.5 3.5l-3.5 3.15 7-3.15h0z"/><text x="206" y="-59.74" font-family="Lato" font-size="12">!a &amp; !b</text></g><g class="edge"><path fill="none" stroke="#000" d="M157.93-71.89c-2.7-10.36.49-20.45 9.57-20.45 6.95 0 10.45 5.91 10.5 13.34"/><path stroke="#000" d="M177.07-71.89l4.03-6.53-3.57 3.06.45-3.47h0l-.45 3.47-2.68-3.87 2.22 7.34h0z"/><text x="149" y="-108.74" font-family="Lato" font-size="12">!a &amp; b</text><text x="161" y="-95.74" font-family="Lato" font-size="12" fill="#1f78b4">⓿</text></g></g></svg>