<?xml-stylesheet href="spot.css" type="text/css"?><svg width="371pt" height="204" viewBox="0 0 371 153" xmlns="http://www.w3.org/2000/svg"><g class="graph"><path fill="#fff" stroke="transparent" d="M0 153V0h371v153H0z"/><text x="160" y="-131.4" font-family="Lato" font-size="12" transform="translate(4 149)">[Büchi]</text><g class="node" transform="translate(4 149)"><circle fill="#ffffa0" stroke="#000" cx="56" cy="-34" r="18"/><text text-anchor="middle" x="56" y="-30.9" font-family="Lato" font-size="12">2</text></g><g class="edge" transform="translate(4 149)"><path fill="none" stroke="#000" d="M1.15-34h29.48"/><path stroke="#000" d="M37.94-34l-7-3.15 3.5 3.15h-3.5 3.5l-3.5 3.15 7-3.15h0z"/></g><g class="node" transform="translate(4 149)"><circle fill="#ffffa0" stroke="#000" cx="140" cy="-71" r="18"/><circle fill="none" stroke="#000" cx="140" cy="-71" r="22"/><text x="136" y="-67.9" font-family="Lato" font-size="12">1</text></g><g class="edge" transform="translate(4 149)"><path fill="none" stroke="#000" d="M72.81-41.13c11.41-5.15 27.08-12.22 40.31-18.19"/><path stroke="#000" d="M119.77-62.33l-7.67.01 4.48 1.43-3.19 1.44h0l3.19-1.44-1.89 4.32 5.08-5.76h0z"/><text x="92" y="-55.4" font-family="Lato" font-size="12">a</text></g><g class="node" transform="translate(4 149)"><circle fill="#ffffa0" stroke="#000" cx="257" cy="-18" r="18"/><text text-anchor="middle" x="257" y="-14.9" font-family="Lato" font-size="12">3</text></g><g class="edge" transform="translate(4 149)"><path fill="none" stroke="#000" d="M74.07-31.81C86.29-30.3 103.14-28.34 118-27c39.78 3.58 86.14 6.31 113.72 7.78"/><path stroke="#000" d="M238.98-18.84l-6.82-3.51 3.33 3.33-3.5-.19h0l3.5.19-3.66 2.96 7.15-2.78h0z"/><text x="133.5" y="-30.4" font-family="Lato" font-size="12">!a</text></g><g class="node" transform="translate(4 149)"><circle fill="#ffffa0" stroke="#000" cx="341" cy="-61" r="18"/><circle fill="none" stroke="#000" cx="341" cy="-61" r="22"/><text text-anchor="middle" x="341" y="-57.9" font-family="Lato" font-size="12">0</text></g><g class="edge" transform="translate(4 149)"><path fill="none" stroke="#000" d="M332.99-81.58C331.89-91.84 334.55-101 341-101c4.83 0 7.54 5.15 8.13 12.05"/><path stroke="#000" d="M349.01-81.58l3.26-6.95-3.21 3.45.06-3.5h0l-.06 3.5-3.09-3.55 3.04 7.05h0z"/><text x="337" y="-104.4" font-family="Lato" font-size="12">1</text></g><g class="edge" transform="translate(4 149)"><path fill="none" stroke="#000" d="M161.96-73.73C188.4-76.72 235.22-80.53 275-76c12.58 1.43 26.27 4.38 37.82 7.28"/><path stroke="#000" d="M319.71-66.93l-5.98-4.81 2.6 3.93-3.39-.88h0l3.39.88-4.18 2.17 7.56-1.29h0z"/><text x="253" y="-81.4" font-family="Lato" font-size="12">b</text></g><g class="edge" transform="translate(4 149)"><path fill="none" stroke="#000" d="M131.99-91.58c-1.1-10.26 1.56-19.42 8.01-19.42 4.83 0 7.54 5.15 8.13 12.05"/><path stroke="#000" d="M148.01-91.58l3.26-6.95-3.21 3.45.06-3.5h0l-.06 3.5-3.09-3.55 3.04 7.05h0z"/><text x="121.5" y="-114.4" font-family="Lato" font-size="12">a &amp; !b</text></g><g class="edge" transform="translate(4 149)"><path fill="none" stroke="#000" d="M160.25-62.13c20.31 9.36 52.27 24.09 73.61 33.93"/><path stroke="#000" d="M240.39-25.2l-5.04-5.79 1.86 4.33-3.18-1.47h0l3.18 1.47-4.5 1.39 7.68.07h0z"/><text x="180" y="-55.4" font-family="Lato" font-size="12">!a &amp; !b</text></g><g class="edge" transform="translate(4 149)"><path fill="none" stroke="#000" d="M273.42-26.09c11.65-6.1 27.87-14.61 41.38-21.7"/><path stroke="#000" d="M321.19-51.14l-7.66.46 4.56 1.17-3.1 1.62h0l3.1-1.62-1.64 4.41 4.74-6.04h0z"/><text x="293" y="-42.4" font-family="Lato" font-size="12">b</text></g><g class="edge" transform="translate(4 149)"><path fill="none" stroke="#000" d="M249.97-34.66C248.41-44.62 250.75-54 257-54c4.69 0 7.18 5.27 7.47 12.11"/><path stroke="#000" d="M264.03-34.66l3.57-6.8-3.36 3.3.22-3.49h0l-.22 3.49-2.93-3.68 2.72 7.18h0z"/><text x="250.5" y="-57.4" font-family="Lato" font-size="12">!b</text></g></g></svg>