<?xml-stylesheet href="spot.css" type="text/css"?><svg width="588" height="104pt" viewBox="0 0 441 104" xmlns="http://www.w3.org/2000/svg"><g class="graph" transform="translate(4 100)"><path fill="#fff" stroke="transparent" d="M-4 4v-104h441V4H-4z"/><text x="195" y="-82.4" font-family="Lato" font-size="12">[Büchi]</text><g class="node"><circle fill="#ffffa0" stroke="#000" cx="60" cy="-22" r="18"/><circle fill="none" stroke="#000" cx="60" cy="-22" r="22"/><text text-anchor="middle" x="60" y="-18.9" font-family="Lato" font-size="12">2</text></g><g class="edge"><path fill="none" stroke="#000" d="M1.17-22h29.54"/><path stroke="#000" d="M37.86-22l-7-3.15 3.5 3.15h-3.5 3.5l-3.5 3.15 7-3.15h0z"/></g><g class="edge"><path fill="none" stroke="#000" d="M52.68-42.99C51.78-53.09 54.22-62 60-62c4.34 0 6.79 5.01 7.37 11.78"/><path stroke="#000" d="M67.32-42.99l3.2-6.98-3.18 3.48.03-3.5h0l-.03 3.5-3.12-3.52 3.1 7.02h0z"/><text x="41.5" y="-65.4" font-family="Lato" font-size="12">!a &amp; b</text></g><g class="node"><circle fill="#ffffa0" stroke="#000" cx="177" cy="-22" r="18"/><circle fill="none" stroke="#000" cx="177" cy="-22" r="22"/><text text-anchor="middle" x="177" y="-18.9" font-family="Lato" font-size="12">1</text></g><g class="edge"><path fill="none" stroke="#000" d="M82.09-22h65.42"/><path stroke="#000" d="M154.65-22l-7-3.15 3.5 3.15h-3.5 3.5l-3.5 3.15 7-3.15h0z"/><text x="102.5" y="-25.4" font-family="Lato" font-size="12">a &amp; b</text></g><g class="node"><circle fill="#ffffa0" stroke="#000" cx="411" cy="-22" r="18"/><circle fill="none" stroke="#000" cx="411" cy="-22" r="22"/><text text-anchor="middle" x="411" y="-18.9" font-family="Lato" font-size="12">0</text></g><g class="edge"><path fill="none" stroke="#000" d="M400.57-41.76C398.8-52.35 402.28-62 411-62c6.68 0 10.28 5.66 10.81 13.06"/><path stroke="#000" d="M421.43-41.76l3.51-6.82-3.33 3.33.19-3.5h0l-.19 3.5-2.96-3.66 2.78 7.15h0z"/><text x="407" y="-65.4" font-family="Lato" font-size="12">b</text></g><g class="edge"><path fill="none" stroke="#000" d="M157.08-11.9C150.86-9.09 143.8-6.42 137-5c-16.1 3.36-20.9 3.36-37 0-4.46-.93-9.04-2.4-13.41-4.09"/><path stroke="#000" d="M79.92-11.9l5.23 5.62-2-4.26 3.22 1.36h0l-3.22-1.36 4.45-1.55-7.68.19h0z"/><text x="100" y="-8.4" font-family="Lato" font-size="12">!a &amp; b</text></g><g class="edge"><path fill="none" stroke="#000" d="M166.57-41.76C164.8-52.35 168.28-62 177-62c6.68 0 10.28 5.66 10.81 13.06"/><path stroke="#000" d="M187.43-41.76l3.51-6.82-3.33 3.33.19-3.5h0l-.19 3.5-2.96-3.66 2.78 7.15h0z"/><text x="161" y="-65.4" font-family="Lato" font-size="12">a &amp; b</text></g><g class="node"><circle fill="#ffffa0" stroke="#000" cx="294" cy="-22" r="18"/><circle fill="none" stroke="#000" cx="294" cy="-22" r="22"/><text text-anchor="middle" x="294" y="-18.9" font-family="Lato" font-size="12">3</text></g><g class="edge"><path fill="none" stroke="#000" d="M199.09-22h65.42"/><path stroke="#000" d="M271.65-22l-7-3.15 3.5 3.15h-3.5 3.5l-3.5 3.15 7-3.15h0z"/><text x="217" y="-25.4" font-family="Lato" font-size="12">a &amp; !b</text></g><g class="edge"><path fill="none" stroke="#000" d="M316.09-22h65.42"/><path stroke="#000" d="M388.65-22l-7-3.15 3.5 3.15h-3.5 3.5l-3.5 3.15 7-3.15h0z"/><text x="334" y="-25.4" font-family="Lato" font-size="12">!a &amp; b</text></g><g class="edge"><path fill="none" stroke="#000" d="M283.57-41.76C281.8-52.35 285.28-62 294-62c6.68 0 10.28 5.66 10.81 13.06"/><path stroke="#000" d="M304.43-41.76l3.51-6.82-3.33 3.33.19-3.5h0l-.19 3.5-2.96-3.66 2.78 7.15h0z"/><text x="290" y="-65.4" font-family="Lato" font-size="12">a</text></g></g></svg>