<?xml-stylesheet href="spot.css" type="text/css"?><svg width="85pt" height="151pt" viewBox="0 0 85 151" xmlns="http://www.w3.org/2000/svg"><g class="graph" transform="translate(4 147)"><path fill="#fff" stroke="transparent" d="M-4 4v-151h85V4H-4z"/><text x="18.5" y="-130.4" font-family="Lato" font-size="12">Fin(</text><text x="40.5" y="-130.4" font-family="Lato" font-size="12" fill="#1f78b4">⓿</text><text x="53.5" y="-130.4" font-family="Lato" font-size="12">)</text><text x="8" y="-118.4" font-family="Lato" font-size="12">[co-Büchi]</text><g class="node"><circle fill="#ffffa0" stroke="#000" cx="57.5" cy="-18" r="18"/><text text-anchor="middle" x="57.5" y="-14.9" font-family="Lato" font-size="12">0</text></g><g class="edge"><path fill="none" stroke="#000" d="M2.65-18h29.48"/><path stroke="#000" d="M39.44-18l-7-3.15 3.5 3.15h-3.5 3.5l-3.5 3.15 7-3.15h0z"/></g><g class="edge"><path fill="none" stroke="#000" d="M54.26-35.78C53.71-45.31 54.79-54 57.5-54c1.99 0 3.1 4.68 3.33 10.95"/><path stroke="#000" d="M60.74-35.78l3.24-6.96-3.2 3.46.05-3.5h0l-.05 3.5-3.1-3.54 3.06 7.04h0z"/><text x="51" y="-70.4" font-family="Lato" font-size="12">!a</text><text x="51" y="-57.4" font-family="Lato" font-size="12" fill="#1f78b4">⓿</text></g><g class="edge"><path fill="none" stroke="#000" d="M52.44-35.28C49.06-55.25 50.75-80 57.5-80c5.96 0 7.97 19.29 6.04 37.55"/><path stroke="#000" d="M62.56-35.28l4.07-6.51-3.59 3.04.47-3.47h0l-.47 3.47-2.65-3.89 2.17 7.36h0z"/><text x="53.5" y="-83.4" font-family="Lato" font-size="12">a</text></g></g></svg>