<?xml-stylesheet href="spot.css" type="text/css"?><svg width="1186pt" height="355pt" viewBox="0 0 1186 355" xmlns="http://www.w3.org/2000/svg"><g class="graph"><path fill="#fff" stroke="transparent" d="M0 355V0h1186v355H0z"/><text x="486" y="-334.4" font-family="Lato" font-size="12" transform="translate(4 351)">Inf(</text><text x="507" y="-334.4" font-family="Lato" font-size="12" fill="#1f78b4" transform="translate(4 351)">⓿</text><text x="520" y="-334.4" font-family="Lato" font-size="12" transform="translate(4 351)">) | (Fin(</text><text x="562" y="-334.4" font-family="Lato" font-size="12" fill="#ff4da0" transform="translate(4 351)">❶</text><text x="573" y="-334.4" font-family="Lato" font-size="12" transform="translate(4 351)">) &amp; (Inf(</text><text x="619" y="-334.4" font-family="Lato" font-size="12" fill="#ff7f00" transform="translate(4 351)">❷</text><text x="630" y="-334.4" font-family="Lato" font-size="12" transform="translate(4 351)">) | Fin(</text><text x="667" y="-334.4" font-family="Lato" font-size="12" fill="#6a3d9a" transform="translate(4 351)">❸</text><text x="678" y="-334.4" font-family="Lato" font-size="12" transform="translate(4 351)">)))</text><text x="531.5" y="-322.4" font-family="Lato" font-size="12" transform="translate(4 351)">[parity min even 4]</text><g class="node" transform="translate(4 351)"><path fill="#ffffa0" stroke="#000" d="M62-139H50c-6 0-12 6-12 12v12c0 6 6 12 12 12h12c6 0 12-6 12-12v-12c0-6-6-12-12-12"/><text x="52" y="-124.4" font-family="Lato" font-size="12">0</text><text x="50.5" y="-111.4" font-family="Lato" font-size="12" fill="#ff4da0">❶</text></g><g class="edge" transform="translate(4 351)"><path fill="none" stroke="#000" d="M1.15-121h29.48"/><path stroke="#000" d="M37.94-121l-7-3.15 3.5 3.15h-3.5 3.5l-3.5 3.15 7-3.15h0z"/></g><g class="edge" transform="translate(4 351)"><path fill="none" stroke="#000" d="M49.49-139.15c-1-9.39 1.17-17.85 6.51-17.85 3.92 0 6.14 4.56 6.64 10.7"/><path stroke="#000" d="M62.51-139.15l3.28-6.95-3.22 3.45.07-3.5h0l-.07 3.5-3.08-3.56 3.02 7.06h0z"/><text x="30" y="-160.4" font-family="Lato" font-size="12">p0 &amp; !p1</text></g><g class="node" transform="translate(4 351)"><path fill="#ffffa0" stroke="#000" d="M200-171h-12c-6 0-12 6-12 12v12c0 6 6 12 12 12h12c6 0 12-6 12-12v-12c0-6-6-12-12-12"/><text x="190" y="-156.4" font-family="Lato" font-size="12">2</text><text x="188.5" y="-143.4" font-family="Lato" font-size="12" fill="#ff7f00">❷</text></g><g class="edge" transform="translate(4 351)"><path fill="none" stroke="#000" d="M74.22-125.05c24.02-5.65 67.66-15.92 94.83-22.32"/><path stroke="#000" d="M175.92-148.98l-7.54-1.46 4.13 2.26-3.41.8h0l3.41-.8-2.69 3.87 6.1-4.67h0z"/><text x="92" y="-144.4" font-family="Lato" font-size="12">!p0 &amp; !p1</text></g><g class="node" transform="translate(4 351)"><path fill="#ffffa0" stroke="#000" d="M488-297h-12c-6 0-12 6-12 12v12c0 6 6 12 12 12h12c6 0 12-6 12-12v-12c0-6-6-12-12-12"/><text x="478" y="-282.4" font-family="Lato" font-size="12">8</text><text x="475.5" y="-269.4" font-family="Lato" font-size="12" fill="#1f78b4">⓿</text></g><g class="edge" transform="translate(4 351)"><path fill="none" stroke="#000" d="M72.46-139.32C78.24-145.62 85.1-152.48 92-158c87.25-69.81 113.16-92.72 222-118 49.63-11.53 109.81-8.64 142.67-5.7"/><path stroke="#000" d="M463.64-281.04l-6.67-3.8 3.19 3.47-3.49-.33h0l3.49.33-3.79 2.8 7.27-2.47h0z"/><text x="240" y="-274.4" font-family="Lato" font-size="12">!p0 &amp; !p1</text></g><g class="node" transform="translate(4 351)"><path fill="#ffffa0" stroke="#000" d="M1038-110h-12c-6 0-12 6-12 12v12c0 6 6 12 12 12h12c6 0 12-6 12-12v-12c0-6-6-12-12-12"/><text x="1028" y="-95.4" font-family="Lato" font-size="12">6</text><text x="1025.5" y="-82.4" font-family="Lato" font-size="12" fill="#1f78b4">⓿</text></g><g class="edge" transform="translate(4 351)"><path fill="none" stroke="#000" d="M62.62-102.96C68.09-87.81 77.7-66.39 92-52c35.59 35.81 50.51 52 101 52h708c46.91 0 58.69-16.3 95-46 7.55-6.18 14.41-14.3 20.02-21.99"/><path stroke="#000" d="M1020.06-73.76l-6.6 3.93 4.59-1.06-2.01 2.87h0l2.01-2.87.57 4.68 1.44-7.55h0z"/><text x="530" y="-3.4" font-family="Lato" font-size="12">!p0 &amp; p1</text></g><g class="node" transform="translate(4 351)"><path fill="#ffffa0" stroke="#000" d="M346-171h-12c-6 0-12 6-12 12v12c0 6 6 12 12 12h12c6 0 12-6 12-12v-12c0-6-6-12-12-12"/><text x="336" y="-156.4" font-family="Lato" font-size="12">5</text><text x="333.5" y="-143.4" font-family="Lato" font-size="12" fill="#1f78b4">⓿</text></g><g class="edge" transform="translate(4 351)"><path fill="none" stroke="#000" d="M212.08-153h102.53"/><path stroke="#000" d="M321.94-153l-7-3.15 3.5 3.15h-3.5 3.5l-3.5 3.15 7-3.15h0z"/><text x="240" y="-156.4" font-family="Lato" font-size="12">!p0 &amp; !p1</text></g><g class="node" transform="translate(4 351)"><path fill="#ffffa0" stroke="#000" d="M636-255h-12c-6 0-12 6-12 12v12c0 6 6 12 12 12h12c6 0 12-6 12-12v-12c0-6-6-12-12-12"/><text x="626" y="-240.4" font-family="Lato" font-size="12">4</text><text x="623.5" y="-227.4" font-family="Lato" font-size="12" fill="#1f78b4">⓿</text></g><g class="edge" transform="translate(4 351)"><path fill="none" stroke="#000" d="M212.34-160.15c8.29-3.26 18.4-7.02 27.66-9.85 134.46-41.08 303.24-59.35 364.98-64.98"/><path stroke="#000" d="M611.97-235.61l-7.26-2.51 3.77 2.82-3.49.32h0l3.49-.32-3.21 3.45 6.7-3.76h0z"/><text x="386.5" y="-216.4" font-family="Lato" font-size="12">p0 &amp; p1</text></g><g class="edge" transform="translate(4 351)"><path fill="none" stroke="#000" d="M463.94-287.61c-8.22-3.68-18.36-7.54-27.94-9.39-85.63-16.49-112.61-16.51-196 9-74.74 22.87-97.33 35.49-148 95-11.77 13.82-20.64 32.29-26.51 47.05"/><path stroke="#000" d="M62.85-139.03l5.44-5.42-4.19 2.15 1.25-3.27h0l-1.25 3.27-1.69-4.39.44 7.66h0z"/><text x="242" y="-305.4" font-family="Lato" font-size="12">!p0 &amp; p1</text></g><g class="edge" transform="translate(4 351)"><path fill="none" stroke="#000" d="M463.68-276.6C414.79-269.58 276.85-247.89 240-222c-15.63 10.98-27.2 29.28-34.69 44.28"/><path stroke="#000" d="M202.16-171.1l5.85-4.97-4.35 1.81 1.51-3.16h0l-1.51 3.16-1.33-4.52-.17 7.68h0z"/><text x="314" y="-262.4" font-family="Lato" font-size="12">p0 &amp; !p1</text></g><g class="edge" transform="translate(4 351)"><path fill="none" stroke="#000" d="M500.25-270.87c8.27 3.67 18.39 7.85 27.75 10.87 25.76 8.3 56.15 14.79 76.81 18.73"/><path stroke="#000" d="M611.96-239.93l-6.31-4.39 2.87 3.74-3.44-.64h0l3.44.64-4.02 2.46 7.46-1.81h0z"/><text x="530" y="-263.4" font-family="Lato" font-size="12">p0 &amp; !p1</text></g><g class="node" transform="translate(4 351)"><path fill="#ffffa0" stroke="#000" d="M1166-177h-12c-6 0-12 6-12 12v12c0 6 6 12 12 12h12c6 0 12-6 12-12v-12c0-6-6-12-12-12"/><text x="1156" y="-162.4" font-family="Lato" font-size="12">3</text><text x="1153.5" y="-149.4" font-family="Lato" font-size="12" fill="#1f78b4">⓿</text></g><g class="edge" transform="translate(4 351)"><path fill="none" stroke="#000" d="M500.07-280.54C527.3-282.87 582.29-287 629-287h404c57.39 0 97.39 66.16 115.33 103.35"/><path stroke="#000" d="M1151.43-177.07l-.13-7.67-1.36 4.5-1.49-3.16h0l1.49 3.16-4.34-1.82 5.83 4.99h0z"/><text x="802" y="-290.4" font-family="Lato" font-size="12">!p0 &amp; p1</text></g><g class="edge" transform="translate(4 351)"><path fill="none" stroke="#000" d="M1013.76-92H701c-172.66 0-216.42-7.28-387-34-33.19-5.2-70.93-14.32-94.84-20.51"/><path stroke="#000" d="M212.2-148.32l5.98 4.81-2.59-3.93 3.38.89h0l-3.38-.89 4.18-2.16-7.57 1.28h0z"/><text x="602" y="-96.4" font-family="Lato" font-size="12">!p0 &amp; !p1</text></g><g class="edge" transform="translate(4 351)"><path fill="none" stroke="#000" d="M1050.35-100.69c5.6-2.73 11.85-5.72 17.65-8.31 24.56-10.99 32.7-9.55 56-23 4.11-2.37 8.27-5.17 12.23-8.05"/><path stroke="#000" d="M1141.84-144.3l-7.48 1.71 4.69.4-2.79 2.11h0l2.79-2.11-.89 4.63 3.68-6.74h0z"/><text x="1068" y="-135.4" font-family="Lato" font-size="12">!p0 &amp; !p1</text></g><g class="node" transform="translate(4 351)"><path fill="#ffffa0" stroke="#000" d="M770-177h-12c-6 0-12 6-12 12v12c0 6 6 12 12 12h12c6 0 12-6 12-12v-12c0-6-6-12-12-12"/><text x="760" y="-162.4" font-family="Lato" font-size="12">1</text><text x="758.5" y="-149.4" font-family="Lato" font-size="12" fill="#6a3d9a">❸</text></g><g class="edge" transform="translate(4 351)"><path fill="none" stroke="#000" d="M745.66-154.83c-5.6 1.16-11.86 2.26-17.66 2.83-152.14 15.07-191.12 1.78-344 0-5.99-.07-12.44-.19-18.48-.33"/><path stroke="#000" d="M358.16-152.51l6.92 3.32-3.42-3.23 3.49.08h0l-3.49-.08 3.57-3.07-7.07 2.98h0z"/><text x="528" y="-149.4" font-family="Lato" font-size="12">!p0 &amp; !p1</text></g><g class="node" transform="translate(4 351)"><path fill="#ffffa0" stroke="#000" d="M906-64h-12c-6 0-12 6-12 12v12c0 6 6 12 12 12h12c6 0 12-6 12-12v-12c0-6-6-12-12-12"/><text x="896" y="-49.4" font-family="Lato" font-size="12">9</text><text x="894.5" y="-36.4" font-family="Lato" font-size="12" fill="#ff4da0">❶</text></g><g class="edge" transform="translate(4 351)"><path fill="none" stroke="#000" d="M782.24-144.46c24.02 20.26 67.59 57 94.18 79.42"/><path stroke="#000" d="M881.82-60.49l-3.32-6.92.65 4.67-2.68-2.26h0l2.68 2.26-4.71.15 7.38 2.1h0z"/><text x="802" y="-131.4" font-family="Lato" font-size="12">!p0 &amp; p1</text></g><g class="edge" transform="translate(4 351)"><path fill="none" stroke="#000" d="M321.63-145.03c-22.44 9.81-63 25.94-99.63 32.03-49.5 8.23-108.42 1.47-140.75-3.63"/><path stroke="#000" d="M74-117.82l6.4 4.24-2.94-3.67 3.45.56h0l-3.45-.56 3.96-2.54-7.42 1.97h0z"/><text x="166" y="-116.4" font-family="Lato" font-size="12">!p0 &amp; !p1</text></g><g class="edge" transform="translate(4 351)"><path fill="none" stroke="#000" d="M358.3-159.17c25.73-9.29 71.69-26.35 77.7-31.83 18.63-16.99 30.7-43.47 37.6-62.95"/><path stroke="#000" d="M475.91-260.78l-5.22 5.62 4.1-2.3-1.12 3.31h0l1.12-3.31 1.86 4.32-.74-7.64h0z"/><text x="384" y="-194.4" font-family="Lato" font-size="12">p0 &amp; !p1</text></g><g class="node" transform="translate(4 351)"><path fill="#ffffa0" stroke="#000" d="M636-197h-12c-6 0-12 6-12 12v12c0 6 6 12 12 12h12c6 0 12-6 12-12v-12c0-6-6-12-12-12"/><text x="626" y="-182.4" font-family="Lato" font-size="12">7</text><text x="624.5" y="-169.4" font-family="Lato" font-size="12" fill="#ff7f00">❷</text></g><g class="edge" transform="translate(4 351)"><path fill="none" stroke="#000" d="M358.15-154.55c49.03-4.42 189.85-17.14 246.66-22.27"/><path stroke="#000" d="M611.94-177.46l-7.26-2.51 3.77 2.83-3.48.31h0l3.48-.31-3.2 3.45 6.69-3.77h0z"/><text x="454" y="-171.4" font-family="Lato" font-size="12">!p0 &amp; !p1</text></g><g class="edge" transform="translate(4 351)"><path fill="none" stroke="#000" d="M881.65-46H193c-44.37 0-87.89-30.99-113.32-53.13"/><path stroke="#000" d="M74.23-103.98l3.13 7.01-.52-4.68 2.61 2.32h0l-2.61-2.32 4.71-.03-7.32-2.3h0z"/><text x="458.5" y="-49.4" font-family="Lato" font-size="12">p0 &amp; p1</text></g><g class="edge" transform="translate(4 351)"><path fill="none" stroke="#000" d="M918.19-47.07C937.8-48.82 970.44-53.36 996-65c4.13-1.88 8.21-4.33 12.05-6.98"/><path stroke="#000" d="M1013.87-76.27l-7.51 1.62 4.69.45-2.82 2.08h0l2.82-2.08-.94 4.62 3.76-6.69h0z"/><text x="944" y="-68.4" font-family="Lato" font-size="12">p0 &amp; !p1</text></g><g class="edge" transform="translate(4 351)"><path fill="none" stroke="#000" d="M648.26-239.63C694.7-246.03 825.64-259.44 926-225c35.92 12.33 46.2 19.41 70 49 13.99 17.39 23.19 41.16 28.64 58.98"/><path stroke="#000" d="M1026.61-110.27l1.06-7.6-2.04 4.24-.98-3.36h0l.98 3.36-4.01-2.48 4.99 5.84h0z"/><text x="800" y="-249.4" font-family="Lato" font-size="12">!p0 &amp; !p1</text></g><g class="edge" transform="translate(4 351)"><path fill="none" stroke="#000" d="M648.26-226.8c23.32 13.78 64.99 38.4 91.17 53.88"/><path stroke="#000" d="M745.74-169.2l-4.42-6.27 1.41 4.49-3.02-1.78h0l3.02 1.78-4.62.93 7.63.85h0z"/><text x="678.5" y="-212.4" font-family="Lato" font-size="12">p0 &amp; p1</text></g><g class="edge" transform="translate(4 351)"><path fill="none" stroke="#000" d="M1154.28-140.91c-4.92 14.84-14.21 34.97-30.28 44.91-19.92 12.32-47.24 11.72-66.74 9.03"/><path stroke="#000" d="M1050.2-88.08l6.43 4.2-2.97-3.65 3.46.54h0l-3.46-.54 3.95-2.57-7.41 2.02h0z"/><text x="1070" y="-99.4" font-family="Lato" font-size="12">p0 &amp; !p1</text></g><g class="edge" transform="translate(4 351)"><path fill="none" stroke="#000" d="M1141.73-159H789.62"/><path stroke="#000" d="M782.18-159l7 3.15-3.5-3.15h3.5-3.5l3.5-3.15-7 3.15h0z"/><text x="944" y="-162.4" font-family="Lato" font-size="12">!p0 &amp; p1</text></g><g class="edge" transform="translate(4 351)"><path fill="none" stroke="#000" d="M648.08-170.49c8.22 3.66 18.36 7.53 27.92 9.49 20.85 4.26 45.1 4.44 62.69 3.74"/><path stroke="#000" d="M745.79-157.61l-7.14-2.8 3.65 2.97-3.5.17h0l3.5-.17-3.34 3.32 6.83-3.49h0z"/><text x="676" y="-164.4" font-family="Lato" font-size="12">!p0 &amp; p1</text></g><g class="edge" transform="translate(4 351)"><path fill="none" stroke="#000" d="M648.07-194.4c7.9-6.12 17.78-12.44 27.93-15.6 22.07-6.87 28.91-1.08 52 0 176.57 8.23 224.17-4.47 396 37 3.74.9 7.6 2.13 11.34 3.48"/><path stroke="#000" d="M1141.88-166.99l-5.39-5.46 2.12 4.2-3.26-1.27h0l3.26 1.27-4.4 1.67 7.67-.41h0z"/><text x="874" y="-208.4" font-family="Lato" font-size="12">!p0 &amp; p1</text></g></g></svg>