<?xml-stylesheet href="spot.css" type="text/css"?><svg width="199pt" height="197pt" viewBox="0 0 199 197" xmlns="http://www.w3.org/2000/svg"><g class="graph" transform="translate(4 193)"><path fill="#fff" stroke="transparent" d="M-4 4v-197h199V4H-4z"/><text x="57" y="-175.4" font-family="Lato" font-size="12">a | (b &amp; X(0))</text><g class="node"><circle fill="#ffffa0" stroke="#000" cx="56" cy="-68" r="18"/><text text-anchor="middle" x="56" y="-64.9" font-family="Lato" font-size="12">1</text></g><g class="edge"><path fill="none" stroke="#000" d="M1.15-68h29.48"/><path stroke="#000" d="M37.94-68l-7-3.15 3.5 3.15h-3.5 3.5l-3.5 3.15 7-3.15h0z"/></g><g class="node"><circle fill="#ffffa0" stroke="#000" cx="169" cy="-115" r="18"/><circle fill="none" stroke="#000" cx="169" cy="-115" r="22"/><text text-anchor="middle" x="169" y="-111.9" font-family="Lato" font-size="12">0</text></g><g class="edge"><path fill="none" stroke="#000" d="M72.9-74.73c17.96-7.61 47.46-20.1 68.85-29.15"/><path stroke="#000" d="M148.38-106.69l-7.67-.17 4.45 1.53-3.22 1.37h0l3.22-1.37-1.99 4.27 5.21-5.63h0z"/><text x="92" y="-101.4" font-family="Lato" font-size="12">!a &amp; b</text></g><g class="node"><circle fill="#ffffa0" stroke="#000" cx="169" cy="-22" r="18"/><circle fill="none" stroke="#000" cx="169" cy="-22" r="22"/><text text-anchor="middle" x="169" y="-18.9" font-family="Lato" font-size="12">2</text></g><g class="edge"><path fill="none" stroke="#000" d="M72.9-61.41c17.96 7.44 47.46 19.67 68.85 28.53"/><path stroke="#000" d="M148.38-30.13l-5.26-5.59 2.03 4.25-3.23-1.34h0l3.23 1.34-4.44 1.57 7.67-.23h0z"/><text x="106.5" y="-56.4" font-family="Lato" font-size="12">a</text></g><g class="edge"><path fill="none" stroke="#000" d="M158.57-134.76C156.8-145.35 160.28-155 169-155c6.68 0 10.28 5.66 10.81 13.06"/><path stroke="#000" d="M179.43-134.76l3.51-6.82-3.33 3.33.19-3.5h0l-.19 3.5-2.96-3.66 2.78 7.15h0z"/><text text-anchor="middle" x="169" y="-158.4" font-family="Lato" font-size="12">0</text></g><g class="edge"><path fill="none" stroke="#000" d="M158.57-41.76C156.8-52.35 160.28-62 169-62c6.68 0 10.28 5.66 10.81 13.06"/><path stroke="#000" d="M179.43-41.76l3.51-6.82-3.33 3.33.19-3.5h0l-.19 3.5-2.96-3.66 2.78 7.15h0z"/><text text-anchor="middle" x="169" y="-65.4" font-family="Lato" font-size="12">1</text></g></g></svg>