<?xml-stylesheet href="spot.css" type="text/css"?><svg width="344" height="133pt" viewBox="0 0 258 133" xmlns="http://www.w3.org/2000/svg"><g class="graph" transform="translate(4 129)"><path fill="#fff" stroke="transparent" d="M-4 4v-133h258V4H-4z"/><text x="63.5" y="-111.4" font-family="Lato" font-size="12">(a &amp; Xa) | (b &amp; X[!]b)</text><g class="node"><circle fill="#ffffa0" stroke="#000" cx="56" cy="-51" r="18"/><text text-anchor="middle" x="56" y="-47.9" font-family="Lato" font-size="12">0</text></g><g class="edge"><path fill="none" stroke="#000" d="M1.15-51h29.48"/><path stroke="#000" d="M37.94-51l-7-3.15 3.5 3.15h-3.5 3.5l-3.5 3.15 7-3.15h0z"/></g><g class="node"><circle fill="#ffffa0" stroke="#000" cx="140" cy="-80" r="18"/><text text-anchor="middle" x="140" y="-76.9" font-family="Lato" font-size="12">1</text></g><g class="edge"><path fill="none" stroke="#000" d="M73.2-56.73c12.24-4.33 29.21-10.33 42.85-15.15"/><path stroke="#000" d="M122.83-74.28l-7.65-.64 4.35 1.8-3.3 1.17h0l3.3-1.17-2.25 4.14 5.55-5.3h0z"/><text x="92" y="-68.4" font-family="Lato" font-size="12">b</text></g><g class="node"><circle fill="#ffffa0" stroke="#000" cx="140" cy="-22" r="18"/><circle fill="none" stroke="#000" cx="140" cy="-22" r="22"/><text text-anchor="middle" x="140" y="-18.9" font-family="Lato" font-size="12">2</text></g><g class="edge"><path fill="none" stroke="#000" d="M73.2-45.27c11.11 3.93 26.1 9.23 38.97 13.78"/><path stroke="#000" d="M119.06-29.05l-5.55-5.3 2.25 4.13-3.3-1.16h0l3.3 1.16-4.35 1.8 7.65-.63h0z"/><text x="92" y="-41.4" font-family="Lato" font-size="12">a</text></g><g class="node"><circle fill="#ffffa0" stroke="#000" cx="228" cy="-51" r="18"/><circle fill="none" stroke="#000" cx="228" cy="-51" r="22"/><text text-anchor="middle" x="228" y="-47.9" font-family="Lato" font-size="12">3</text></g><g class="edge"><path fill="none" stroke="#000" d="M157.18-74.55c12.12 4.09 28.99 9.78 43.1 14.54"/><path stroke="#000" d="M206.96-57.76l-5.63-5.22 2.31 4.1-3.31-1.11h0l3.31 1.11-4.32 1.87 7.64-.75h0z"/><text x="180" y="-69.4" font-family="Lato" font-size="12">b</text></g><g class="edge"><path fill="none" stroke="#000" d="M161.38-28.87c11.57-3.9 26.19-8.83 38.69-13.05"/><path stroke="#000" d="M206.77-44.18l-7.64-.74 4.32 1.86-3.32 1.12h0l3.32-1.12-2.31 4.1 5.63-5.22h0z"/><text x="180" y="-40.4" font-family="Lato" font-size="12">a</text></g><g class="edge"><path fill="none" stroke="#000" d="M219.99-71.58C218.89-81.84 221.55-91 228-91c4.83 0 7.54 5.15 8.13 12.05"/><path stroke="#000" d="M236.01-71.58l3.26-6.95-3.21 3.45.06-3.5h0l-.06 3.5-3.09-3.55 3.04 7.05h0z"/><text text-anchor="middle" x="228" y="-94.4" font-family="Lato" font-size="12">1</text></g></g></svg>