<?xml-stylesheet href="spot.css" type="text/css"?><svg width="302pt" height="230pt" viewBox="0 0 302 230" xmlns="http://www.w3.org/2000/svg"><g class="graph"><path fill="#fff" stroke="transparent" d="M0 230V0h302v230H0z"/><text x="125.5" y="-208.4" font-family="Lato" font-size="12" transform="translate(4 226)">[Büchi]</text><g class="node" transform="translate(4 226)"><circle fill="#ffffa0" stroke="#000" cx="56" cy="-103" r="18"/><text text-anchor="middle" x="56" y="-99.9" font-family="Lato" font-size="12">2</text></g><g class="edge" transform="translate(4 226)"><path fill="none" stroke="#000" d="M1.15-103h29.48"/><path stroke="#000" d="M37.94-103l-7-3.15 3.5 3.15h-3.5 3.5l-3.5 3.15 7-3.15h0z"/></g><g class="edge" transform="translate(4 226)"><path fill="none" stroke="#000" d="M49.62-120.04c-1.3-9.82.83-18.96 6.38-18.96 4.17 0 6.4 5.14 6.71 11.86"/><path stroke="#000" d="M62.38-120.04l3.47-6.84-3.31 3.35.17-3.5h0l-.17 3.5-2.98-3.65 2.82 7.14h0z"/><text x="24" y="-142.4" font-family="Lato" font-size="12">a &amp; !b &amp; !c</text></g><g class="node" transform="translate(4 226)"><circle fill="#ffffa0" stroke="#000" cx="188" cy="-152" r="18"/><text text-anchor="middle" x="188" y="-148.9" font-family="Lato" font-size="12">0</text></g><g class="edge" transform="translate(4 226)"><path fill="none" stroke="#000" d="M72.99-109.5c5.96-2.4 12.78-5.11 19.01-7.5 24.55-9.43 52.86-19.79 72.14-26.78"/><path stroke="#000" d="M170.81-146.19l-7.65-.58 4.36 1.77-3.29 1.19h0l3.29-1.19-2.22 4.15 5.51-5.34h0z"/><text x="104" y="-141.4" font-family="Lato" font-size="12">b &amp; !c</text></g><g class="node" transform="translate(4 226)"><circle fill="#ffffa0" stroke="#000" cx="272" cy="-103" r="18"/><circle fill="none" stroke="#000" cx="272" cy="-103" r="22"/><text text-anchor="middle" x="272" y="-99.9" font-family="Lato" font-size="12">1</text></g><g class="edge" transform="translate(4 226)"><path fill="none" stroke="#000" d="M74.15-103h168.43"/><path stroke="#000" d="M249.71-103l-7-3.15 3.5 3.15h-3.5 3.5l-3.5 3.15 7-3.15h0z"/><text x="172.5" y="-106.4" font-family="Lato" font-size="12">b &amp; c</text></g><g class="node" transform="translate(4 226)"><circle fill="#ffffa0" stroke="#000" cx="188" cy="-18" r="18"/><text text-anchor="middle" x="188" y="-14.9" font-family="Lato" font-size="12">3</text></g><g class="edge" transform="translate(4 226)"><path fill="none" stroke="#000" d="M70.37-92.13C76.79-87.06 84.67-81.05 92-76c24.6 16.93 54.12 34.55 73.65 45.86"/><path stroke="#000" d="M171.87-26.55l-4.49-6.23 1.46 4.48-3.03-1.75h0l3.03 1.75-4.61.98 7.64.77h0z"/><text x="92" y="-79.4" font-family="Lato" font-size="12">a &amp; !b &amp; c</text></g><g class="edge" transform="translate(4 226)"><path fill="none" stroke="#000" d="M180.97-168.66c-1.56-9.96.78-19.34 7.03-19.34 4.69 0 7.18 5.27 7.47 12.11"/><path stroke="#000" d="M195.03-168.66l3.57-6.8-3.36 3.3.22-3.49h0l-.22 3.49-2.93-3.68 2.72 7.18h0z"/><text x="182" y="-191.4" font-family="Lato" font-size="12">!c</text></g><g class="edge" transform="translate(4 226)"><path fill="none" stroke="#000" d="M204.04-143.01c11.87 7.09 28.67 17.13 42.47 25.37"/><path stroke="#000" d="M252.61-113.99l-4.39-6.29 1.39 4.5-3.01-1.8h0l3.01 1.8-4.62.9 7.62.89h0z"/><text x="224.5" y="-133.4" font-family="Lato" font-size="12">c</text></g><g class="edge" transform="translate(4 226)"><path fill="none" stroke="#000" d="M263.99-123.58c-1.1-10.26 1.56-19.42 8.01-19.42 4.83 0 7.54 5.15 8.13 12.05"/><path stroke="#000" d="M280.01-123.58l3.26-6.95-3.21 3.45.06-3.5h0l-.06 3.5-3.09-3.55 3.04 7.05h0z"/><text text-anchor="middle" x="272" y="-146.4" font-family="Lato" font-size="12">1</text></g><g class="edge" transform="translate(4 226)"><path fill="none" stroke="#000" d="M201.1-30.54c13.13-13.61 34.3-35.56 49.91-51.74"/><path stroke="#000" d="M256.07-87.52l-7.13 2.85 4.7-.33-2.43 2.52h0l2.43-2.52-.17 4.7 2.6-7.22h0z"/><text x="224" y="-63.4" font-family="Lato" font-size="12">b</text></g><g class="edge" transform="translate(4 226)"><path fill="none" stroke="#000" d="M180.97-34.66C179.41-44.62 181.75-54 188-54c4.69 0 7.18 5.27 7.47 12.11"/><path stroke="#000" d="M195.03-34.66l3.57-6.8-3.36 3.3.22-3.49h0l-.22 3.49-2.93-3.68 2.72 7.18h0z"/><text x="169.5" y="-57.4" font-family="Lato" font-size="12">a &amp; !b</text></g></g></svg>