<?xml-stylesheet href="spot.css" type="text/css"?><svg width="581pt" height="256" viewBox="0 0 580.95 191.5" xmlns="http://www.w3.org/2000/svg"><g class="graph" transform="translate(4 187.5)"><path fill="#fff" stroke="transparent" d="M-4 4v-191.5h580.95V4H-4z"/><g class="node"><path fill="#ffffa0" stroke="#000" d="M451.95-101h-54v36h54v-36z"/><text text-anchor="middle" x="424.95" y="-86.4" font-family="Lato" font-size="12">2</text><text text-anchor="middle" x="424.95" y="-73.4" font-family="Lato" font-size="12">!a &amp; b</text></g><g class="edge"><path fill="none" stroke="#000" d="M292.53-162.51c14.67 1.63 58.15 7.92 87.42 27.51 11.01 7.37 20.81 18.24 28.35 28.15"/><path stroke="#000" d="M412.47-101.17l-1.6-7.51-.47 4.69-2.07-2.82h0l2.07 2.82-4.61-.96 6.68 3.78h0z"/><text text-anchor="middle" x="360.95" y="-154.4" font-family="Lato" font-size="12">!a &amp; b</text></g><g class="node"><path fill="#ffffa0" stroke="#000" d="M568.95-40h-54v36h54v-36z"/><path fill="none" stroke="#000" d="M572.95-44h-62V0h62v-44z"/><text text-anchor="middle" x="541.95" y="-18.9" font-family="Lato" font-size="12">3</text></g><g class="edge"><path fill="none" stroke="#000" d="M452.05-69.16c15.44 8.19 35.25 18.7 52.24 27.72"/><path stroke="#000" d="M510.9-37.94l-4.71-6.07 1.62 4.43-3.1-1.64h0l3.1 1.64-4.57 1.14 7.66.5h0z"/><text text-anchor="middle" x="481.45" y="-74.4" font-family="Lato" font-size="12">{a}</text><text text-anchor="middle" x="481.45" y="-61.4" font-family="Lato" font-size="12">{}</text></g><g class="node"><ellipse fill="#ffffa0" stroke="#000" cx="286.48" cy="-120" rx="37.45" ry="24.08"/><text text-anchor="middle" x="286.48" y="-123.4" font-family="Lato" font-size="12">1</text><text text-anchor="middle" x="286.48" y="-110.4" font-family="Lato" font-size="12">a &amp; !b</text></g><g class="edge"><path fill="none" stroke="#000" d="M151.58-182.47c8.37 2.83 48.33 16.57 79.42 31.47 7.06 3.38 14.46 7.32 21.45 11.22"/><path stroke="#000" d="M258.72-136.22l-4.53-6.19 1.49 4.46-3.05-1.72h0l3.05 1.72-4.6 1.02 7.64.71h0z"/><text text-anchor="middle" x="212.5" y="-169.4" font-family="Lato" font-size="12">a &amp; !b</text></g><g class="edge"><path fill="none" stroke="#000" d="M321.21-110.85c21.28 5.76 48.63 13.18 69.76 18.91"/><path stroke="#000" d="M397.88-90.07l-5.94-4.87 2.56 3.95-3.38-.91h0l3.38.91-4.2 2.13 7.58-1.21h0z"/><text text-anchor="middle" x="360.95" y="-121.4" font-family="Lato" font-size="12">{a, b}</text><text text-anchor="middle" x="360.95" y="-108.4" font-family="Lato" font-size="12">{}</text></g><g class="node"><path fill="#ffffa0" stroke="#000" d="M176-87h-54v36h54v-36z"/><text text-anchor="middle" x="149" y="-72.4" font-family="Lato" font-size="12">0</text><text text-anchor="middle" x="149" y="-59.4" font-family="Lato" font-size="12">a &amp; b</text></g><g class="edge"><path fill="none" stroke="#000" d="M260.97-102.15C251.92-96.26 241.34-90.16 231-86c-15.12 6.08-32.75 10.11-47.69 12.71"/><path stroke="#000" d="M176.22-72.12l7.41 1.97-3.96-2.54 3.45-.56h0l-3.45.56 2.94-3.67-6.39 4.24h0z"/><text text-anchor="middle" x="212.5" y="-102.4" font-family="Lato" font-size="12">{b}</text><text text-anchor="middle" x="212.5" y="-89.4" font-family="Lato" font-size="12">{}</text></g><g class="edge"><path fill="none" stroke="#000" d="M54.04-69h60.47"/><path stroke="#000" d="M121.6-69l-7-3.15 3.5 3.15h-3.5 3.5l-3.5 3.15 7-3.15h0z"/><text text-anchor="middle" x="88" y="-72.4" font-family="Lato" font-size="12">a &amp; b</text></g><g class="edge"><path fill="none" stroke="#000" d="M176.01-65.31c34.08 4.26 95.65 9.99 147.94 4.31 22.67-2.46 47.72-7.98 67.08-12.87"/><path stroke="#000" d="M397.89-75.64l-7.56-1.3 4.17 2.17-3.39.88h0l3.39-.88-2.6 3.93 5.99-4.8h0z"/><text text-anchor="middle" x="286.48" y="-77.4" font-family="Lato" font-size="12">{a}</text><text text-anchor="middle" x="286.48" y="-64.4" font-family="Lato" font-size="12">{}</text></g><g class="edge"><path fill="none" stroke="#000" d="M163.43-87.1c7.84-9.11 18.53-19.37 30.57-24.9 14.7-6.75 32.12-9.41 47.79-10.15"/><path stroke="#000" d="M248.85-122.37l-7.1-2.93 3.6 3.04-3.5.1h0l3.5-.1-3.4 3.25 6.9-3.36h0z"/><text text-anchor="middle" x="212.5" y="-137.4" font-family="Lato" font-size="12">{b}</text><text text-anchor="middle" x="212.5" y="-124.4" font-family="Lato" font-size="12">{}</text></g><g class="edge"><path fill="none" stroke="#000" d="M176.41-61.28c5.77 1.54 11.86 3.06 17.59 4.28 65.08 13.89 81.79 15.88 147.95 23 56.21 6.05 121.7 9.26 161.75 10.8"/><path stroke="#000" d="M510.87-22.93L504-26.34l3.38 3.28-3.5-.13h0l3.5.13-3.62 3.01 7.11-2.88h0z"/><text text-anchor="middle" x="360.95" y="-50.4" font-family="Lato" font-size="12">{a}</text><text text-anchor="middle" x="360.95" y="-37.4" font-family="Lato" font-size="12">{}</text></g><g class="edge"><path fill="none" stroke="#000" d="M530.84-44.21C529.93-53.8 533.63-62 541.95-62c6.11 0 9.73 4.42 10.87 10.57"/><path stroke="#000" d="M553.07-44.21l2.9-7.11-3.02 3.61-.13-3.5h0l.13 3.5-3.27-3.39 3.39 6.89h0z"/><text text-anchor="middle" x="541.95" y="-78.4" font-family="Lato" font-size="12">{a}</text><text text-anchor="middle" x="541.95" y="-65.4" font-family="Lato" font-size="12">{0}</text></g></g></svg>