<?xml-stylesheet href="spot.css" type="text/css"?><svg width="191pt" height="164pt" viewBox="0 0 191 163.98" xmlns="http://www.w3.org/2000/svg"><g class="graph"><path fill="#fff" stroke="transparent" d="M0 163.98V0h191v163.98H0z"/><text x="72" y="-143.38" font-family="Lato" font-size="12" transform="translate(4 159.98)">Inf(</text><text x="93" y="-143.38" font-family="Lato" font-size="12" fill="#1f78b4" transform="translate(4 159.98)">⓿</text><text x="106" y="-143.38" font-family="Lato" font-size="12" transform="translate(4 159.98)">)</text><text x="70" y="-131.38" font-family="Lato" font-size="12" transform="translate(4 159.98)">[Büchi]</text><g class="node" transform="translate(4 159.98)"><circle fill="#ffffa0" stroke="#000" cx="56" cy="-30.98" r="18"/><text text-anchor="middle" x="56" y="-27.88" font-family="Lato" font-size="12">0</text></g><g class="edge" transform="translate(4 159.98)"><path fill="none" stroke="#000" d="M1.15-30.98h29.48"/><path stroke="#000" d="M37.94-30.98l-7-3.15 3.5 3.15h-3.5 3.5l-3.5 3.15 7-3.15h0z"/></g><g class="edge" transform="translate(4 159.98)"><path fill="none" stroke="#000" d="M49.62-48.02c-1.3-9.82.83-18.96 6.38-18.96 4.17 0 6.4 5.14 6.71 11.86"/><path stroke="#000" d="M62.38-48.02l3.47-6.84-3.31 3.35.17-3.5h0l-.17 3.5-2.98-3.65 2.82 7.14h0z"/><text x="49.5" y="-70.38" font-family="Lato" font-size="12">!a</text></g><g class="node" transform="translate(4 159.98)"><circle fill="#ffffa0" stroke="#000" cx="165" cy="-30.98" r="18"/><text text-anchor="middle" x="165" y="-27.88" font-family="Lato" font-size="12">1</text></g><g class="edge" transform="translate(4 159.98)"><path fill="none" stroke="#000" d="M74.07-32.74c5.7-.5 12.08-.99 17.93-1.24 16.43-.7 20.57-.7 37 0 3.47.15 7.13.38 10.73.65"/><path stroke="#000" d="M146.93-32.74l-6.72-3.71 3.23 3.43-3.49-.29h0l3.49.29-3.75 2.85 7.24-2.57h0z"/><text x="106.5" y="-50.38" font-family="Lato" font-size="12">a</text><text x="104" y="-37.38" font-family="Lato" font-size="12" fill="#1f78b4">⓿</text></g><g class="edge" transform="translate(4 159.98)"><path fill="none" stroke="#000" d="M151.93-18.45C145.68-12.87 137.57-6.9 129-3.98c-15.56 5.31-21.44 5.31-37 0-6.16-2.1-12.08-5.77-17.24-9.74"/><path stroke="#000" d="M69.07-18.45l3.37 6.9-.67-4.66 2.69 2.24h0l-2.69-2.24 4.7-.18-7.4-2.06h0z"/><text x="92" y="-20.38" font-family="Lato" font-size="12">!a &amp; b</text><text x="104" y="-7.38" font-family="Lato" font-size="12" fill="#1f78b4">⓿</text></g><g class="edge" transform="translate(4 159.98)"><path fill="none" stroke="#000" d="M160.18-48.39c-.9-9.68.71-18.59 4.82-18.59 3.02 0 4.69 4.81 5.01 11.19"/><path stroke="#000" d="M169.82-48.39l3.33-6.92-3.24 3.42.09-3.5h0l-.09 3.5-3.06-3.58 2.97 7.08h0z"/><text x="158.5" y="-70.38" font-family="Lato" font-size="12">!b</text></g><g class="edge" transform="translate(4 159.98)"><path fill="none" stroke="#000" d="M157.33-47.29c-4.96-17.65-2.4-37.69 7.67-37.69 8.73 0 11.82 15.07 9.25 30.59"/><path stroke="#000" d="M172.67-47.29l4.59-6.15-3.83 2.74.76-3.42h0l-.76 3.42-2.32-4.1 1.56 7.51h0z"/><text x="149" y="-101.38" font-family="Lato" font-size="12">a &amp; b</text><text x="158.5" y="-88.38" font-family="Lato" font-size="12" fill="#1f78b4">⓿</text></g></g></svg>