<?xml-stylesheet href="spot.css" type="text/css"?><svg width="167pt" height="107pt" viewBox="0 0 167 107.21" xmlns="http://www.w3.org/2000/svg"><g class="graph"><path fill="#fff" stroke="transparent" d="M0 107.21V0h167v107.21H0z"/><text x="39" y="-86.61" font-family="Lato" font-size="12" transform="translate(4 103.21)">Fin(</text><text x="61" y="-86.61" font-family="Lato" font-size="12" fill="#1f78b4" transform="translate(4 103.21)">⓿</text><text x="74" y="-86.61" font-family="Lato" font-size="12" transform="translate(4 103.21)">)|Fin(</text><text x="104" y="-86.61" font-family="Lato" font-size="12" fill="#ff4da0" transform="translate(4 103.21)">❶</text><text x="115" y="-86.61" font-family="Lato" font-size="12" transform="translate(4 103.21)">)</text><text x="28.5" y="-74.61" font-family="Lato" font-size="12" transform="translate(4 103.21)">[gen. co-Büchi 2]</text><g class="node" transform="translate(4 103.21)"><path fill="#ffffa0" stroke="#000" d="M62-36.21H50c-6 0-12 6-12 12v12c0 6 6 12 12 12h12c6 0 12-6 12-12v-12c0-6-6-12-12-12"/><text x="52" y="-21.61" font-family="Lato" font-size="12">0</text><text x="49.5" y="-8.61" font-family="Lato" font-size="12" fill="#1f78b4">⓿</text></g><g class="edge" transform="translate(4 103.21)"><path fill="none" stroke="#000" d="M1.15-18.21h29.48"/><path stroke="#000" d="M37.94-18.21l-7-3.15 3.5 3.15h-3.5 3.5l-3.5 3.15 7-3.15h0z"/></g><g class="edge" transform="translate(4 103.21)"><path fill="none" stroke="#000" d="M49.49-36.36c-1-9.39 1.17-17.85 6.51-17.85 3.92 0 6.14 4.56 6.64 10.71"/><path stroke="#000" d="M62.51-36.36l3.28-6.94-3.22 3.44.07-3.5h0l-.07 3.5-3.08-3.56 3.02 7.06h0z"/><text x="52" y="-57.61" font-family="Lato" font-size="12">a</text></g><g class="node" transform="translate(4 103.21)"><path fill="#ffffa0" stroke="#000" d="M147-36.21h-12c-6 0-12 6-12 12v12c0 6 6 12 12 12h12c6 0 12-6 12-12v-12c0-6-6-12-12-12"/><text x="137" y="-21.61" font-family="Lato" font-size="12">1</text><text x="135.5" y="-8.61" font-family="Lato" font-size="12" fill="#ff4da0">❶</text></g><g class="edge" transform="translate(4 103.21)"><path fill="none" stroke="#000" d="M74.2-18.21h41.56"/><path stroke="#000" d="M122.82-18.21l-7-3.15 3.5 3.15h-3.5 3.5l-3.5 3.15 7-3.15h0z"/><text x="92" y="-21.61" font-family="Lato" font-size="12">!a</text></g><g class="edge" transform="translate(4 103.21)"><path fill="none" stroke="#000" d="M122.95-7.12C113.91-2.54 102.51 1.21 92-1.21c-3.79-.87-7.64-2.21-11.33-3.76"/><path stroke="#000" d="M74.23-7.93l5.04 5.79-1.86-4.33L80.59-5h0l-3.18-1.47 4.5-1.39-7.68-.07h0z"/><text x="92" y="-4.61" font-family="Lato" font-size="12">!b</text></g><g class="edge" transform="translate(4 103.21)"><path fill="none" stroke="#000" d="M133.4-36.36c-1.17-9.39 1.37-17.85 7.6-17.85 4.58 0 7.16 4.56 7.75 10.71"/><path stroke="#000" d="M148.6-36.36l3.29-6.93-3.22 3.43.07-3.5h0l-.07 3.5-3.08-3.57 3.01 7.07h0z"/><text x="137" y="-57.61" font-family="Lato" font-size="12">b</text></g></g></svg>