<?xml-stylesheet href="spot.css" type="text/css"?><svg width="400" height="208" viewBox="0 0 300 156" xmlns="http://www.w3.org/2000/svg"><g class="graph"><path fill="#fff" stroke="transparent" d="M0 156V0h300v156H0z"/><text x="71" y="-135.4" font-family="Lato" font-size="12" transform="translate(4 152)">Inf(</text><text x="92" y="-135.4" font-family="Lato" font-size="12" fill="#ff7f00" transform="translate(4 152)">❷</text><text x="103" y="-135.4" font-family="Lato" font-size="12" transform="translate(4 152)">) | (Fin(</text><text x="145" y="-135.4" font-family="Lato" font-size="12" fill="#ff4da0" transform="translate(4 152)">❶</text><text x="156" y="-135.4" font-family="Lato" font-size="12" transform="translate(4 152)">) &amp; Inf(</text><text x="198" y="-135.4" font-family="Lato" font-size="12" fill="#1f78b4" transform="translate(4 152)">⓿</text><text x="211" y="-135.4" font-family="Lato" font-size="12" transform="translate(4 152)">))</text><text x="87" y="-123.4" font-family="Lato" font-size="12" transform="translate(4 152)">[parity max even 3]</text><g class="node" transform="translate(4 152)"><path fill="#ffffa0" stroke="#000" d="M62-36H50c-6 0-12 6-12 12v12c0 6 6 12 12 12h12c6 0 12-6 12-12v-12c0-6-6-12-12-12"/><text text-anchor="middle" x="56" y="-14.9" font-family="Lato" font-size="12">0</text></g><g class="edge" transform="translate(4 152)"><path fill="none" stroke="#000" d="M1.15-18h29.48"/><path stroke="#000" d="M37.94-18l-7-3.15 3.5 3.15h-3.5 3.5l-3.5 3.15 7-3.15h0z"/></g><g class="edge" transform="translate(4 152)"><path fill="none" stroke="#000" d="M49.49-36.15C48.49-45.54 50.66-54 56-54c3.92 0 6.14 4.56 6.64 10.7"/><path stroke="#000" d="M62.51-36.15l3.28-6.95-3.22 3.45.07-3.5h0l-.07 3.5-3.08-3.56 3.02 7.06h0z"/><text x="49.5" y="-57.4" font-family="Lato" font-size="12">!a</text></g><g class="node" transform="translate(4 152)"><path fill="#ffffa0" stroke="#000" d="M171-85h-12c-6 0-12 6-12 12v12c0 6 6 12 12 12h12c6 0 12-6 12-12v-12c0-6-6-12-12-12"/><text text-anchor="middle" x="165" y="-63.9" font-family="Lato" font-size="12">1</text></g><g class="edge" transform="translate(4 152)"><path fill="none" stroke="#000" d="M74.19-25.87c17.94-8.22 46.19-21.16 66.21-30.32"/><path stroke="#000" d="M146.85-59.15l-7.67.05 4.49 1.41-3.18 1.46h0l3.18-1.46-1.87 4.32 5.05-5.78h0z"/><text x="92" y="-52.4" font-family="Lato" font-size="12">a &amp; !b</text></g><g class="node" transform="translate(4 152)"><path fill="#ffffa0" stroke="#000" d="M280-52h-12c-6 0-12 6-12 12v12c0 6 6 12 12 12h12c6 0 12-6 12-12v-12c0-6-6-12-12-12"/><text x="270" y="-37.4" font-family="Lato" font-size="12">2</text><text x="267.5" y="-24.4" font-family="Lato" font-size="12" fill="#1f78b4">⓿</text></g><g class="edge" transform="translate(4 152)"><path fill="none" stroke="#000" d="M74.12-19.19C98.36-20.88 144.07-24.1 183-27c22.15-1.65 47.37-3.62 65.46-5.05"/><path stroke="#000" d="M255.75-32.63l-7.23-2.58 3.74 2.86-3.49.28h0l3.49-.28-3.24 3.42 6.73-3.7h0z"/><text x="149" y="-30.4" font-family="Lato" font-size="12">a &amp; b</text></g><g class="edge" transform="translate(4 152)"><path fill="none" stroke="#000" d="M155.23-85.15c-1.5-9.39 1.75-17.85 9.77-17.85 5.89 0 9.21 4.56 9.96 10.7"/><path stroke="#000" d="M174.77-85.15l3.33-6.92-3.24 3.42.1-3.5h0l-.1 3.5-3.05-3.58 2.96 7.08h0z"/><text x="158.5" y="-106.4" font-family="Lato" font-size="12">!b</text></g><g class="edge" transform="translate(4 152)"><path fill="none" stroke="#000" d="M183.24-69.74c15.01-1.64 37.08-2.25 54.76 4.74 4.88 1.93 9.52 4.86 13.74 8.16"/><path stroke="#000" d="M257.22-52.16l-3.28-6.94.62 4.66-2.66-2.27h0l2.66 2.27-4.71.12 7.37 2.16h0z"/><text x="215.5" y="-73.4" font-family="Lato" font-size="12">b</text></g><g class="edge" transform="translate(4 152)"><path fill="none" stroke="#000" d="M255.73-27.43C237.84-21.01 208.93-11.67 183-8c-35.2 4.98-76.31-.35-101.75-4.93"/><path stroke="#000" d="M74.19-14.26l6.3 4.39-2.86-3.74 3.44.65h0l-3.44-.65 4.02-2.45-7.46 1.8h0z"/><text x="149.5" y="-11.4" font-family="Lato" font-size="12">!a | b</text></g><g class="edge" transform="translate(4 152)"><path fill="none" stroke="#000" d="M255.73-35.85C240.9-37.8 219.1-41.5 201-48c-3.74-1.34-7.57-3.04-11.25-4.87"/><path stroke="#000" d="M183.32-56.24l4.73 6.04-1.63-4.42 3.09 1.63h0l-3.09-1.63 4.56-1.16-7.66-.46h0z"/><text x="201" y="-51.4" font-family="Lato" font-size="12">a &amp; !b</text></g></g></svg>