<?xml-stylesheet href="spot.css" type="text/css"?><svg width="289pt" height="220" viewBox="0 0 288.5 164.52" xmlns="http://www.w3.org/2000/svg"><g class="graph" transform="translate(4 160.52)"><path fill="#fff" stroke="transparent" d="M-4 4v-164.52h288.5V4H-4z"/><text x="118.75" y="-142.92" font-family="Lato" font-size="12">[Büchi]</text><g class="node"><circle fill="#ffffa0" stroke="#000" cx="60" cy="-37.52" r="18"/><circle fill="none" stroke="#000" cx="60" cy="-37.52" r="22"/><text text-anchor="middle" x="60" y="-34.42" font-family="Lato" font-size="12">2</text></g><g class="edge"><path fill="none" stroke="#000" d="M1.17-37.52h29.54"/><path stroke="#000" d="M37.86-37.52l-7-3.15 3.5 3.15h-3.5 3.5l-3.5 3.15 7-3.15h0z"/></g><g class="node"><circle fill="#ffffa0" stroke="#000" cx="149" cy="-86.52" r="18"/><text text-anchor="middle" x="149" y="-83.42" font-family="Lato" font-size="12">0</text></g><g class="edge"><path fill="none" stroke="#000" d="M79.45-47.91c13.84-7.8 32.82-18.48 47.29-26.64"/><path stroke="#000" d="M133.04-78.1l-7.64.7 4.59 1.02-3.05 1.72h0l3.05-1.72-1.5 4.46 4.55-6.18h0z"/><text x="100" y="-68.92" font-family="Lato" font-size="12">!a</text></g><g class="node"><circle fill="#ffffa0" stroke="#000" cx="262" cy="-53.52" r="18"/><text text-anchor="middle" x="262" y="-50.42" font-family="Lato" font-size="12">1</text></g><g class="edge"><path fill="none" stroke="#000" d="M82.03-39.2c37.32-2.99 114.96-9.2 154.57-12.37"/><path stroke="#000" d="M243.99-52.16l-7.22-2.58 3.74 2.86-3.49.28h0l3.49-.28-3.24 3.42 6.72-3.7h0z"/><text x="145" y="-49.92" font-family="Lato" font-size="12">a</text></g><g class="edge"><path fill="none" stroke="#000" d="M141.62-103.18c-1.64-9.96.82-19.34 7.38-19.34 4.92 0 7.54 5.27 7.84 12.11"/><path stroke="#000" d="M156.38-103.18l3.59-6.79-3.36 3.29.22-3.49h0l-.22 3.49-2.92-3.69 2.69 7.19h0z"/><text x="142.5" y="-125.92" font-family="Lato" font-size="12">!a</text></g><g class="edge"><path fill="none" stroke="#000" d="M166.96-89.3c15.85-1.86 39.88-2.77 59.04 4.78 6.91 2.73 13.35 7.46 18.78 12.43"/><path stroke="#000" d="M249.84-67.12l-2.79-7.15.29 4.7-2.49-2.45h0l2.49 2.45-4.7-.21 7.2 2.66h0z"/><text x="201.5" y="-93.92" font-family="Lato" font-size="12">a</text></g><g class="edge"><path fill="none" stroke="#000" d="M248.58-40.89C242.24-35 234.17-28.25 226-23.52c-24.08 13.96-31.57 16.27-59 21-15.77 2.72-20.43 3.68-36 0-16.25-3.83-33.03-12.05-46.09-19.56"/><path stroke="#000" d="M78.82-25.69l4.42 6.28-1.41-4.5 3.02 1.79h0l-3.02-1.79 4.62-.92-7.63-.86h0z"/><text x="145" y="-5.92" font-family="Lato" font-size="12">b</text></g><g class="edge"><path fill="none" stroke="#000" d="M244-55.1c-15.67-1.82-39.39-5.49-59-12.42-4.73-1.67-9.59-3.92-14.13-6.29"/><path stroke="#000" d="M164.51-77.31l4.62 6.14-1.55-4.45 3.06 1.69h0l-3.06-1.69 4.58-1.07-7.65-.62h0z"/><text x="185" y="-70.92" font-family="Lato" font-size="12">!a &amp; !b</text></g><g class="edge"><path fill="none" stroke="#000" d="M252.43-69.06c-2.7-10.37.49-20.46 9.57-20.46 6.95 0 10.45 5.92 10.5 13.34"/><path stroke="#000" d="M271.57-69.06l4.03-6.54-3.57 3.07.45-3.47h0l-.45 3.47-2.68-3.88 2.22 7.35h0z"/><text x="243.5" y="-92.92" font-family="Lato" font-size="12">a &amp; !b</text></g></g></svg>