<?xml-stylesheet href="spot.css" type="text/css"?><svg width="296pt" height="208" viewBox="0 0 296 156" xmlns="http://www.w3.org/2000/svg"><g class="graph" transform="translate(4 152)"><path fill="#fff" stroke="transparent" d="M-4 4v-156h296V4H-4z"/><text x="124.5" y="-135.4" font-family="Lato" font-size="12">Inf(</text><text x="145.5" y="-135.4" font-family="Lato" font-size="12" fill="#1f78b4">⓿</text><text x="158.5" y="-135.4" font-family="Lato" font-size="12">)</text><text x="122.5" y="-123.4" font-family="Lato" font-size="12">[Büchi]</text><g class="node"><path fill="#ffffa0" stroke="#000" d="M62-52H50c-6 0-12 6-12 12v12c0 6 6 12 12 12h12c6 0 12-6 12-12v-12c0-6-6-12-12-12"/><text x="52" y="-37.4" font-family="Lato" font-size="12">0</text><text x="49.5" y="-24.4" font-family="Lato" font-size="12" fill="#1f78b4">⓿</text></g><g class="edge"><path fill="none" stroke="#000" d="M1.15-34h29.48"/><path stroke="#000" d="M37.94-34l-7-3.15 3.5 3.15h-3.5 3.5l-3.5 3.15 7-3.15h0z"/></g><g class="edge"><path fill="none" stroke="#000" d="M49.49-52.15C48.49-61.54 50.66-70 56-70c3.92 0 6.14 4.56 6.64 10.7"/><path stroke="#000" d="M62.51-52.15l3.28-6.95-3.22 3.45.07-3.5h0l-.07 3.5-3.08-3.56 3.02 7.06h0z"/><text x="40" y="-73.4" font-family="Lato" font-size="12">a &amp; b</text></g><g class="node"><path fill="#ffffa0" stroke="#000" d="M166.5-85h-12c-6 0-12 6-12 12v12c0 6 6 12 12 12h12c6 0 12-6 12-12v-12c0-6-6-12-12-12"/><text text-anchor="middle" x="160.5" y="-63.9" font-family="Lato" font-size="12">1</text></g><g class="edge"><path fill="none" stroke="#000" d="M72.79-52.15C78.3-57.26 84.91-62.19 92-65c13.7-5.43 30.23-6.01 43.49-5.19"/><path stroke="#000" d="M142.49-69.62l-6.72-3.71L139-69.9l-3.48-.29h0l3.48.29-3.74 2.85 7.23-2.57h0z"/><text x="101.5" y="-73.4" font-family="Lato" font-size="12">!b</text></g><g class="node"><path fill="#ffffa0" stroke="#000" d="M276-36h-12c-6 0-12 6-12 12v12c0 6 6 12 12 12h12c6 0 12-6 12-12v-12c0-6-6-12-12-12"/><text text-anchor="middle" x="270" y="-14.9" font-family="Lato" font-size="12">2</text></g><g class="edge"><path fill="none" stroke="#000" d="M74.25-32.52C91.42-31.06 118.53-28.8 142-27c35.71 2.74 77.08 5.61 102.65 7.36"/><path stroke="#000" d="M251.74-19.16l-6.77-3.62 3.28 3.38-3.49-.24h0l3.49.24-3.71 2.91 7.2-2.67h0z"/><text x="142" y="-30.4" font-family="Lato" font-size="12">!a &amp; b</text></g><g class="edge"><path fill="none" stroke="#000" d="M142.26-56.5c-5.66 3.1-12.08 6.25-18.26 8.5-13.72 4.99-29.71 8.41-42.62 10.63"/><path stroke="#000" d="M74.17-36.21l7.41 2-3.96-2.56 3.46-.55h0l-3.46.55 2.95-3.66-6.4 4.22h0z"/><text x="92" y="-51.4" font-family="Lato" font-size="12">a &amp; b</text></g><g class="edge"><path fill="none" stroke="#000" d="M151.09-85.15c-1.44-9.39 1.69-17.85 9.41-17.85 5.67 0 8.87 4.56 9.59 10.7"/><path stroke="#000" d="M169.91-85.15l3.33-6.92-3.24 3.42.09-3.5h0l-.09 3.5-3.06-3.58 2.97 7.08h0z"/><text x="154" y="-106.4" font-family="Lato" font-size="12">!b</text></g><g class="edge"><path fill="none" stroke="#000" d="M178.77-59.13c18.02 8.22 46.41 21.16 66.52 30.32"/><path stroke="#000" d="M251.77-25.85l-5.06-5.77 1.88 4.32-3.19-1.46h0l3.19 1.46-4.49 1.41 7.67.04h0z"/><text x="197" y="-52.4" font-family="Lato" font-size="12">!a &amp; b</text></g><g class="edge"><path fill="none" stroke="#000" d="M251.66-13.88C227.12-8.64 180.93-.97 142-7c-21.15-3.28-44.25-10.89-61.02-17.2"/><path stroke="#000" d="M74.2-26.81l5.41 5.46-2.14-4.2 3.27 1.26h0l-3.27-1.26 4.4-1.68-7.67.42h0z"/><text x="156.5" y="-10.4" font-family="Lato" font-size="12">a</text></g><g class="edge"><path fill="none" stroke="#000" d="M260.23-36.15C258.73-45.54 261.98-54 270-54c5.89 0 9.21 4.56 9.96 10.7"/><path stroke="#000" d="M279.77-36.15l3.33-6.92-3.24 3.42.1-3.5h0l-.1 3.5-3.05-3.58 2.96 7.08h0z"/><text x="263.5" y="-57.4" font-family="Lato" font-size="12">!a</text></g></g></svg>