<?xml-stylesheet href="spot.css" type="text/css"?><svg width="287pt" height="137pt" viewBox="0 0 287 137" xmlns="http://www.w3.org/2000/svg"><g class="graph" transform="translate(4 133)"><path fill="#fff" stroke="transparent" d="M-4 4v-137h287V4H-4z"/><text x="118" y="-115.4" font-family="Lato" font-size="12">[Büchi]</text><g class="node"><circle fill="#ffffa0" stroke="#000" cx="56" cy="-18" r="18"/><text text-anchor="middle" x="56" y="-14.9" font-family="Lato" font-size="12">0</text></g><g class="edge"><path fill="none" stroke="#000" d="M1.15-18h29.48"/><path stroke="#000" d="M37.94-18l-7-3.15 3.5 3.15h-3.5 3.5l-3.5 3.15 7-3.15h0z"/></g><g class="node"><circle fill="#ffffa0" stroke="#000" cx="140" cy="-55" r="18"/><circle fill="none" stroke="#000" cx="140" cy="-55" r="22"/><text text-anchor="middle" x="140" y="-51.9" font-family="Lato" font-size="12">1</text></g><g class="edge"><path fill="none" stroke="#000" d="M72.81-25.13c11.41-5.15 27.08-12.22 40.31-18.19"/><path stroke="#000" d="M119.77-46.33l-7.67.01 4.48 1.43-3.19 1.44h0l3.19-1.44-1.89 4.32 5.08-5.76h0z"/><text x="92" y="-39.4" font-family="Lato" font-size="12">a</text></g><g class="node"><circle fill="#ffffa0" stroke="#000" cx="257" cy="-35" r="18"/><circle fill="none" stroke="#000" cx="257" cy="-35" r="22"/><text text-anchor="middle" x="257" y="-31.9" font-family="Lato" font-size="12">2</text></g><g class="edge"><path fill="none" stroke="#000" d="M74.05-15.52C86.25-13.87 103.1-11.85 118-11c19.52 1.12 24.6 2.43 44 0 25.03-3.14 30.56-7.76 55-14 3.72-.95 7.65-1.96 11.52-2.95"/><path stroke="#000" d="M235.36-29.7l-7.57-1.31 4.18 2.18-3.39.87h0l3.39-.87-2.61 3.92 6-4.79h0z"/><text x="133.5" y="-14.4" font-family="Lato" font-size="12">!a</text></g><g class="edge"><path fill="none" stroke="#000" d="M131.99-75.58C130.89-85.84 133.55-95 140-95c4.83 0 7.54 5.15 8.13 12.05"/><path stroke="#000" d="M148.01-75.58l3.26-6.95-3.21 3.45.06-3.5h0l-.06 3.5-3.09-3.55 3.04 7.05h0z"/><text x="124" y="-98.4" font-family="Lato" font-size="12">a &amp; b</text></g><g class="edge"><path fill="none" stroke="#000" d="M162.19-54.83c15.36.49 36.56 1.91 54.81 5.83 4.15.89 8.45 2.11 12.62 3.47"/><path stroke="#000" d="M236.46-43.16l-5.59-5.27 2.28 4.12-3.31-1.14h0l3.31 1.14-4.34 1.83 7.65-.68h0z"/><text x="180" y="-56.4" font-family="Lato" font-size="12">!a &amp; b</text></g><g class="edge"><path fill="none" stroke="#000" d="M235.3-30.86c-15.5 2.31-37.08 3.83-55.3-1.14-5.21-1.42-10.44-3.74-15.3-6.37"/><path stroke="#000" d="M158.35-42.09l4.45 6.25-1.43-4.48 3.02 1.77h0l-3.02-1.77 4.61-.95-7.63-.82h0z"/><text x="180" y="-35.4" font-family="Lato" font-size="12">a &amp; !b</text></g><g class="edge"><path fill="none" stroke="#000" d="M246.57-54.76C244.8-65.35 248.28-75 257-75c6.68 0 10.28 5.66 10.81 13.06"/><path stroke="#000" d="M267.43-54.76l3.51-6.82-3.33 3.33.19-3.5h0l-.19 3.5-2.96-3.66 2.78 7.15h0z"/><text x="236.5" y="-78.4" font-family="Lato" font-size="12">!a &amp; !b</text></g></g></svg>