<?xml-stylesheet href="spot.css" type="text/css"?><svg width="178pt" height="73pt" viewBox="0 0 178 73" xmlns="http://www.w3.org/2000/svg"><g class="graph" transform="translate(4 69)"><path fill="#fff" stroke="transparent" d="M-4 4v-73h178V4H-4z"/><text x="63.5" y="-51.4" font-family="Lato" font-size="12">[Büchi]</text><g class="node"><circle fill="#ffffa0" stroke="#000" cx="60" cy="-22" r="18"/><circle fill="none" stroke="#000" cx="60" cy="-22" r="22"/><text text-anchor="middle" x="60" y="-18.9" font-family="Lato" font-size="12">0</text></g><g class="edge"><path fill="none" stroke="#000" d="M1.17-22h29.54"/><path stroke="#000" d="M37.86-22l-7-3.15 3.5 3.15h-3.5 3.5l-3.5 3.15 7-3.15h0z"/></g><g class="node"><circle fill="#ffffa0" stroke="#000" cx="148" cy="-22" r="18"/><circle fill="none" stroke="#000" cx="148" cy="-22" r="22"/><text text-anchor="middle" x="148" y="-18.9" font-family="Lato" font-size="12">1</text></g><g class="edge"><path fill="none" stroke="#000" d="M82.26-22h36.58"/><path stroke="#000" d="M125.99-22l-7-3.15 3.5 3.15h-3.5 3.5l-3.5 3.15 7-3.15h0z"/><text text-anchor="middle" x="104" y="-25.4" font-family="Lato" font-size="12">1</text></g><g class="edge"><path fill="none" stroke="#000" d="M128.08-11.9C121.86-9.09 114.8-6.42 108-5c-7.39 1.54-15.19.07-22.26-2.54"/><path stroke="#000" d="M78.95-10.47l5.19 5.67-1.97-4.28 3.21 1.38h0l-3.21-1.38 4.46-1.51-7.68.12h0z"/><text x="100" y="-8.4" font-family="Lato" font-size="12">a</text></g></g></svg>