<?xml-stylesheet href="spot.css" type="text/css"?><svg width="601pt" height="211pt" viewBox="0 0 600.84 211" xmlns="http://www.w3.org/2000/svg"><g class="graph"><path fill="#fff" stroke="transparent" d="M0 211V0h600.84v211H0z"/><text x="274.92" y="-189.4" font-family="Lato" font-size="12" transform="translate(4 207)">[Büchi]</text><g class="node" transform="translate(4 207)"><circle fill="#ffffa0" stroke="#000" cx="60" cy="-90" r="18"/><circle fill="none" stroke="#000" cx="60" cy="-90" r="22"/><text text-anchor="middle" x="60" y="-86.9" font-family="Lato" font-size="12">3</text></g><g class="edge" transform="translate(4 207)"><path fill="none" stroke="#000" d="M1.17-90h29.54"/><path stroke="#000" d="M37.86-90l-7-3.15 3.5 3.15h-3.5 3.5l-3.5 3.15 7-3.15h0z"/></g><g class="node" transform="translate(4 207)"><path fill="#ffffa0" stroke="#000" d="M165.21-157.85L138.04-140l27.17 17.85L192.38-140l-27.17-17.85z"/><path fill="none" stroke="#000" d="M165.21-162.62L130.79-140l34.42 22.62L199.63-140l-34.42-22.62z"/><text text-anchor="middle" x="165.21" y="-136.9" font-family="Lato" font-size="12">8</text></g><g class="edge" transform="translate(4 207)"><path fill="none" stroke="#000" d="M80.41-99.4c16.44-7.97 40.12-19.44 58.12-28.16"/><path stroke="#000" d="M144.88-130.64l-7.67.22 4.53 1.31-3.15 1.52h0l3.15-1.52-1.78 4.36 4.92-5.89h0z"/><text x="100" y="-118.4" font-family="Lato" font-size="12">!a</text></g><g class="node" transform="translate(4 207)"><path fill="#ffffa0" stroke="#000" d="M165.21-71.85L138.04-54l27.17 17.85L192.38-54l-27.17-17.85z"/><path fill="none" stroke="#000" d="M165.21-76.62L130.79-54l34.42 22.62L199.63-54l-34.42-22.62z"/><text text-anchor="middle" x="165.21" y="-50.9" font-family="Lato" font-size="12">9</text></g><g class="edge" transform="translate(4 207)"><path fill="none" stroke="#000" d="M80.9-83.06c15.51 5.41 37.27 13 54.66 19.07"/><path stroke="#000" d="M142.23-61.67l-5.57-5.28 2.26 4.13-3.3-1.15h0l3.3 1.15-4.34 1.82 7.65-.67h0z"/><text x="102.5" y="-80.4" font-family="Lato" font-size="12">a</text></g><g class="node" transform="translate(4 207)"><circle fill="#ffffa0" stroke="#000" cx="458.42" cy="-137" r="18"/><circle fill="none" stroke="#000" cx="458.42" cy="-137" r="22"/><text text-anchor="middle" x="458.42" y="-133.9" font-family="Lato" font-size="12">0</text></g><g class="node" transform="translate(4 207)"><path fill="#ffffa0" stroke="#000" d="M558.63-154.85L531.47-137l27.16 17.85L585.8-137l-27.17-17.85z"/><path fill="none" stroke="#000" d="M558.63-159.62L524.21-137l34.42 22.62L593.06-137l-34.43-22.62z"/><text text-anchor="middle" x="558.63" y="-133.9" font-family="Lato" font-size="12">4</text></g><g class="edge" transform="translate(4 207)"><path fill="none" stroke="#000" d="M480.73-137h36.42"/><path stroke="#000" d="M524.39-137l-7-3.15 3.5 3.15h-3.5 3.5l-3.5 3.15 7-3.15h0z"/><text x="498.42" y="-140.4" font-family="Lato" font-size="12">1</text></g><g class="edge" transform="translate(4 207)"><path fill="none" stroke="#000" d="M539.41-126.99c-11.62 5.19-27.06 9.89-40.99 6.99-4.46-.93-9.03-2.4-13.41-4.09"/><path stroke="#000" d="M478.34-126.9l5.24 5.62-2.01-4.26 3.23 1.36h0l-3.23-1.36 4.45-1.55-7.68.19h0z"/><text x="498.42" y="-123.4" font-family="Lato" font-size="12">1</text></g><g class="node" transform="translate(4 207)"><circle fill="#ffffa0" stroke="#000" cx="266.42" cy="-140" r="18"/><text x="262.42" y="-136.9" font-family="Lato" font-size="12">1</text></g><g class="node" transform="translate(4 207)"><path fill="#ffffa0" stroke="#000" d="M360.42-155l-27 18 27 18 27-18-27-18z"/><text text-anchor="middle" x="360.42" y="-133.9" font-family="Lato" font-size="12">5</text></g><g class="edge" transform="translate(4 207)"><path fill="none" stroke="#000" d="M284.73-139.44c11.96.39 28.25.93 42.55 1.39"/><path stroke="#000" d="M334.55-137.81l-6.89-3.38 3.4 3.26-3.5-.11h0l3.5.11-3.6 3.04 7.09-2.92h0z"/><text x="304.92" y="-141.4" font-family="Lato" font-size="12">1</text></g><g class="edge" transform="translate(4 207)"><path fill="none" stroke="#000" d="M387.65-137h41.7"/><path stroke="#000" d="M436.38-137l-7-3.15 3.5 3.15h-3.5 3.5l-3.5 3.15 7-3.15h0z"/><text x="405.42" y="-140.4" font-family="Lato" font-size="12">!b</text></g><g class="edge" transform="translate(4 207)"><path fill="none" stroke="#000" d="M345.42-128.86c-11.51 5.67-28.25 11.6-43 7.86-4.86-1.23-9.78-3.3-14.33-5.62"/><path stroke="#000" d="M281.73-130.13l4.6 6.14-1.53-4.45 3.06 1.7h0l-3.06-1.7 4.58-1.06-7.65-.63h0z"/><text x="304.92" y="-124.4" font-family="Lato" font-size="12">b</text></g><g class="node" transform="translate(4 207)"><circle fill="#ffffa0" stroke="#000" cx="266.42" cy="-45" r="18"/><text text-anchor="middle" x="266.42" y="-41.9" font-family="Lato" font-size="12">2</text></g><g class="node" transform="translate(4 207)"><path fill="#ffffa0" stroke="#000" d="M360.42-99l-27 18 27 18 27-18-27-18z"/><text text-anchor="middle" x="360.42" y="-77.9" font-family="Lato" font-size="12">6</text></g><g class="edge" transform="translate(4 207)"><path fill="none" stroke="#000" d="M283.45-51.27c14.59-5.71 36.32-14.21 52.8-20.66"/><path stroke="#000" d="M342.96-74.56l-7.67-.38 4.41 1.66-3.26 1.27h0l3.26-1.27-2.11 4.21 5.37-5.49h0z"/><text x="302.42" y="-66.4" font-family="Lato" font-size="12">!a</text></g><g class="node" transform="translate(4 207)"><path fill="#ffffa0" stroke="#000" d="M360.42-36l-27 18 27 18 27-18-27-18z"/><text text-anchor="middle" x="360.42" y="-14.9" font-family="Lato" font-size="12">7</text></g><g class="edge" transform="translate(4 207)"><path fill="none" stroke="#000" d="M283.87-40.17c13.98 4.1 34.29 10.06 50.32 14.77"/><path stroke="#000" d="M341.23-23.34l-5.83-4.99 2.47 4-3.36-.98h0l3.36.98-4.25 2.04 7.61-1.05h0z"/><text x="304.92" y="-38.4" font-family="Lato" font-size="12">a</text></g><g class="edge" transform="translate(4 207)"><path fill="none" stroke="#000" d="M375.59-89.26c14.95-8.73 38.83-22.66 56.94-33.22"/><path stroke="#000" d="M438.92-126.2l-7.64.8 4.61.96-3.02 1.76h0l3.02-1.76-1.43 4.48 4.46-6.24h0z"/><text x="407.92" y="-117.4" font-family="Lato" font-size="12">1</text></g><g class="edge" transform="translate(4 207)"><path fill="none" stroke="#000" d="M340.37-13.29c-11.36 1.92-25.87 2.76-37.95-1.71-6.87-2.54-13.3-7.1-18.72-11.91"/><path stroke="#000" d="M278.62-31.73l2.91 7.11-.37-4.7 2.54 2.41h0l-2.54-2.41 4.71.13-7.25-2.54h0z"/><text x="304.92" y="-18.4" font-family="Lato" font-size="12">1</text></g><g class="edge" transform="translate(4 207)"><path fill="none" stroke="#000" d="M186.7-148.78c16.36-6.51 40.06-14.81 61.72-18.22 25.76-4.05 97.59-4.13 139 3 15.31 2.64 31.54 8.67 44.51 14.37"/><path stroke="#000" d="M438.4-146.7l-5.08-5.76 1.89 4.32-3.19-1.45h0l3.19 1.45-4.49 1.42 7.68.02h0z"/><text x="302.42" y="-172.4" font-family="Lato" font-size="12">!b</text></g><g class="edge" transform="translate(4 207)"><path fill="none" stroke="#000" d="M199.52-140h41.68"/><path stroke="#000" d="M248.21-140l-7-3.15 3.5 3.15h-3.5 3.5l-3.5 3.15 7-3.15h0z"/><text x="219.92" y="-143.4" font-family="Lato" font-size="12">b</text></g><g class="edge" transform="translate(4 207)"><path fill="none" stroke="#000" d="M136.2-50.22c-11.56.49-24.89-.35-36.2-4.78-7.39-2.9-14.28-7.89-20.14-13.21"/><path stroke="#000" d="M74.77-73.13L77.61-66l-.32-4.7 2.51 2.44h0l-2.51-2.44 4.7.18-7.22-2.61h0z"/><text x="102.5" y="-58.4" font-family="Lato" font-size="12">b</text></g><g class="edge" transform="translate(4 207)"><path fill="none" stroke="#000" d="M195.71-51.32c14.46 1.31 31.66 2.87 45.36 4.11"/><path stroke="#000" d="M248.28-46.56l-6.69-3.76 3.2 3.45-3.48-.32h0l3.48.32-3.77 2.82 7.26-2.51h0z"/><text x="217.42" y="-53.4" font-family="Lato" font-size="12">!b</text></g></g></svg>