<?xml-stylesheet href="spot.css" type="text/css"?><svg width="367pt" height="560" viewBox="0 0 367 419.72" xmlns="http://www.w3.org/2000/svg"><g class="graph" transform="translate(4 415.72)"><path fill="#fff" stroke="transparent" d="M-4 4v-419.72h367V4H-4z"/><text x="158" y="-398.12" font-family="Lato" font-size="12">[Büchi]</text><g class="node"><circle fill="#ffffa0" stroke="#000" cx="60" cy="-209.72" r="18"/><circle fill="none" stroke="#000" cx="60" cy="-209.72" r="22"/><text text-anchor="middle" x="60" y="-206.62" font-family="Lato" font-size="12">6</text></g><g class="edge"><path fill="none" stroke="#000" d="M1.17-209.72h29.54"/><path stroke="#000" d="M37.86-209.72l-7-3.15 3.5 3.15h-3.5 3.5l-3.5 3.15 7-3.15h0z"/></g><g class="edge"><path fill="none" stroke="#000" d="M52.68-230.71c-.9-10.1 1.54-19.01 7.32-19.01 4.34 0 6.79 5.01 7.37 11.78"/><path stroke="#000" d="M67.32-230.71l3.2-6.98-3.18 3.48.03-3.5h0l-.03 3.5-3.12-3.52 3.1 7.02h0z"/><text x="32.5" y="-253.12" font-family="Lato" font-size="12">a &amp; b &amp; c</text></g><g class="node"><circle fill="#ffffa0" stroke="#000" cx="337" cy="-337.72" r="18"/><circle fill="none" stroke="#000" cx="337" cy="-337.72" r="22"/><text text-anchor="middle" x="337" y="-334.62" font-family="Lato" font-size="12">0</text></g><g class="edge"><path fill="none" stroke="#000" d="M68.13-230.38c6.52-16.9 17.35-40.78 31.87-58.34 27.7-33.5 36.79-45.17 78-59 43.97-14.76 98.62-5.72 130.77 2.16"/><path stroke="#000" d="M315.66-343.8l-6-4.78 2.61 3.91-3.39-.86h0l3.39.86-4.17 2.19 7.56-1.32h0z"/><text x="178" y="-358.12" font-family="Lato" font-size="12">!a &amp; !b &amp; c</text></g><g class="node"><circle fill="#ffffa0" stroke="#000" cx="210" cy="-285.72" r="18"/><circle fill="none" stroke="#000" cx="210" cy="-285.72" r="22"/><text text-anchor="middle" x="210" y="-282.62" font-family="Lato" font-size="12">1</text></g><g class="edge"><path fill="none" stroke="#000" d="M75.32-226.1c6.89-7.1 15.62-15.05 24.68-20.62 25.6-15.75 58.48-26.4 81.41-32.55"/><path stroke="#000" d="M188.18-281.03l-7.57-1.28 4.18 2.16-3.38.88h0l3.38-.88-2.59 3.93 5.98-4.81h0z"/><text x="100" y="-275.12" font-family="Lato" font-size="12">!a &amp; b &amp; c</text></g><g class="node"><circle fill="#ffffa0" stroke="#000" cx="337" cy="-232.72" r="18"/><circle fill="none" stroke="#000" cx="337" cy="-232.72" r="22"/><text text-anchor="middle" x="337" y="-229.62" font-family="Lato" font-size="12">2</text></g><g class="edge"><path fill="none" stroke="#000" d="M82.12-211.49c48.99-4.1 170.38-14.25 225.65-18.87"/><path stroke="#000" d="M314.81-230.95l-7.24-2.56 3.75 2.85-3.49.29h0l3.49-.29-3.23 3.43 6.72-3.72h0z"/><text x="178" y="-227.12" font-family="Lato" font-size="12">!a &amp; b &amp; !c</text></g><g class="node"><circle fill="#ffffa0" stroke="#000" cx="337" cy="-50.72" r="18"/><circle fill="none" stroke="#000" cx="337" cy="-50.72" r="22"/><text text-anchor="middle" x="337" y="-47.62" font-family="Lato" font-size="12">3</text></g><g class="edge"><path fill="none" stroke="#000" d="M64.88-188.04c9.55 45.6 39 149.8 113.12 181.32 45.94 19.54 103.05-8.32 134.5-27.82"/><path stroke="#000" d="M318.43-38.31l-7.6 1.09 4.65.78-2.96 1.88h0l2.96-1.88-1.27 4.54 4.22-6.41h0z"/><text x="178" y="-10.12" font-family="Lato" font-size="12">a &amp; !b &amp; !c</text></g><g class="node"><circle fill="#ffffa0" stroke="#000" cx="210" cy="-143.72" r="18"/><circle fill="none" stroke="#000" cx="210" cy="-143.72" r="22"/><text text-anchor="middle" x="210" y="-140.62" font-family="Lato" font-size="12">4</text></g><g class="edge"><path fill="none" stroke="#000" d="M80.35-201.09c26.26 11.71 73.26 32.67 102.6 45.75"/><path stroke="#000" d="M189.65-152.35l-5.11-5.73 1.91 4.3-3.2-1.42h0l3.2 1.42-4.48 1.45 7.68-.02h0z"/><text x="100" y="-195.12" font-family="Lato" font-size="12">a &amp; !b &amp; c</text></g><g class="node"><circle fill="#ffffa0" stroke="#000" cx="210" cy="-50.72" r="18"/><circle fill="none" stroke="#000" cx="210" cy="-50.72" r="22"/><text text-anchor="middle" x="210" y="-47.62" font-family="Lato" font-size="12">5</text></g><g class="edge"><path fill="none" stroke="#000" d="M71.62-190.74c7.26 12.26 17.51 28.24 28.38 41.02 26.72 31.41 63.05 62.55 86.27 81.28"/><path stroke="#000" d="M191.87-63.95l-3.49-6.83.76 4.64-2.73-2.18h0l2.73 2.18-4.7.27 7.43 1.92h0z"/><text x="100" y="-153.12" font-family="Lato" font-size="12">a &amp; b &amp; !c</text></g><g class="edge"><path fill="none" stroke="#000" d="M326.57-357.48c-1.77-10.59 1.71-20.24 10.43-20.24 6.68 0 10.28 5.65 10.81 13.06"/><path stroke="#000" d="M347.43-357.48l3.51-6.82-3.33 3.33.19-3.5h0l-.19 3.5-2.96-3.67 2.78 7.16h0z"/><text x="333.5" y="-381.12" font-family="Lato" font-size="12">c</text></g><g class="edge"><path fill="none" stroke="#000" d="M228.52-298.04c9.08-5.96 20.53-12.85 31.48-17.68 15.44-6.82 33.57-12.16 48.25-15.87"/><path stroke="#000" d="M315.15-333.28l-7.55-1.4 4.15 2.23-3.4.83h0l3.4-.83-2.65 3.89 6.05-4.72h0z"/><text x="260.5" y="-331.12" font-family="Lato" font-size="12">!b &amp; c</text></g><g class="edge"><path fill="none" stroke="#000" d="M198.05-304.24c-2.66-11.07 1.33-21.48 11.95-21.48 8.3 0 12.55 6.36 12.74 14.41"/><path stroke="#000" d="M221.95-304.24l3.91-6.6-3.52 3.12.39-3.47h0l-.39 3.47-2.74-3.82 2.35 7.3h0z"/><text x="194.5" y="-329.12" font-family="Lato" font-size="12">b &amp; c</text></g><g class="edge"><path fill="none" stroke="#000" d="M232.03-288.7c18.2-1.57 44.73-1.4 64.97 8.98 9.81 5.03 18.09 13.73 24.46 22.29"/><path stroke="#000" d="M325.56-251.58l-1.44-7.54-.57 4.68-2.01-2.87h0l2.01 2.87-4.59-1.06 6.6 3.92h0z"/><text x="260.5" y="-292.12" font-family="Lato" font-size="12">b &amp; !c</text></g><g class="edge"><path fill="none" stroke="#000" d="M326.57-252.48c-1.77-10.59 1.71-20.24 10.43-20.24 6.68 0 10.28 5.65 10.81 13.06"/><path stroke="#000" d="M347.43-252.48l3.51-6.82-3.33 3.33.19-3.5h0l-.19 3.5-2.96-3.67 2.78 7.16h0z"/><text x="333" y="-276.12" font-family="Lato" font-size="12">b</text></g><g class="edge"><path fill="none" stroke="#000" d="M326.57-70.48c-1.77-10.59 1.71-20.24 10.43-20.24 6.68 0 10.28 5.65 10.81 13.06"/><path stroke="#000" d="M347.43-70.48l3.51-6.82-3.33 3.33.19-3.5h0l-.19 3.5-2.96-3.67 2.78 7.16h0z"/><text x="333" y="-94.12" font-family="Lato" font-size="12">a</text></g><g class="edge"><path fill="none" stroke="#000" d="M224.35-160.52c17.64-22.57 49.23-64.24 72.65-102.2 9.75-15.82 19.4-34.33 26.66-49.01"/><path stroke="#000" d="M326.82-318.18l-5.91 4.9 4.37-1.76-1.54 3.14h0l1.54-3.14 1.29 4.53.25-7.67h0z"/><text x="260.5" y="-266.12" font-family="Lato" font-size="12">!a &amp; c</text></g><g class="edge"><path fill="none" stroke="#000" d="M231.57-139.34c18.65 4.78 46.1 13.94 65.43 29.62 10.94 8.87 19.91 21.65 26.48 33.04"/><path stroke="#000" d="M326.87-70.52l-.62-7.66-1.07 4.59-1.69-3.06h0l1.69 3.06-4.45-1.54 6.14 4.61h0z"/><text x="260.5" y="-133.12" font-family="Lato" font-size="12">a &amp; !c</text></g><g class="edge"><path fill="none" stroke="#000" d="M198.05-162.24c-2.66-11.07 1.33-21.48 11.95-21.48 8.3 0 12.55 6.36 12.74 14.41"/><path stroke="#000" d="M221.95-162.24l3.91-6.6-3.52 3.12.39-3.47h0l-.39 3.47-2.74-3.82 2.35 7.3h0z"/><text x="194.5" y="-187.12" font-family="Lato" font-size="12">a &amp; c</text></g><g class="edge"><path fill="none" stroke="#000" d="M230.93-58.24c22.49-8.84 57.09-23.69 66.07-34.48 26.45-31.78 35.02-80.24 37.76-111"/><path stroke="#000" d="M335.31-210.76l-3.69 6.73 3.42-3.24-.28 3.49h0l.28-3.49 2.86 3.73-2.59-7.22h0z"/><text x="260" y="-96.12" font-family="Lato" font-size="12">!a &amp; b</text></g><g class="edge"><path fill="none" stroke="#000" d="M232.2-50.72h75.39"/><path stroke="#000" d="M314.69-50.72l-7-3.15 3.5 3.15h-3.5 3.5l-3.5 3.15 7-3.15h0z"/><text x="260" y="-54.12" font-family="Lato" font-size="12">a &amp; !b</text></g><g class="edge"><path fill="none" stroke="#000" d="M198.05-69.24c-2.66-11.07 1.33-21.48 11.95-21.48 8.3 0 12.55 6.36 12.74 14.41"/><path stroke="#000" d="M221.95-69.24l3.91-6.6-3.52 3.12.39-3.47h0l-.39 3.47-2.74-3.82 2.35 7.3h0z"/><text x="194" y="-94.12" font-family="Lato" font-size="12">a &amp; b</text></g></g></svg>