<?xml-stylesheet href="spot.css" type="text/css"?><svg width="175pt" height="104pt" viewBox="0 0 175 104" xmlns="http://www.w3.org/2000/svg"><g class="graph" transform="translate(4 100)"><path fill="#fff" stroke="transparent" d="M-4 4v-104h175V4H-4z"/><text x="62" y="-82.4" font-family="Lato" font-size="12">[Büchi]</text><g class="node"><circle fill="#ffffa0" stroke="#000" cx="60" cy="-22" r="18"/><circle fill="none" stroke="#000" cx="60" cy="-22" r="22"/><text text-anchor="middle" x="60" y="-18.9" font-family="Lato" font-size="12">0</text></g><g class="edge"><path fill="none" stroke="#000" d="M1.17-22h29.54"/><path stroke="#000" d="M37.86-22l-7-3.15 3.5 3.15h-3.5 3.5l-3.5 3.15 7-3.15h0z"/></g><g class="edge"><path fill="none" stroke="#000" d="M52.68-42.99C51.78-53.09 54.22-62 60-62c4.34 0 6.79 5.01 7.37 11.78"/><path stroke="#000" d="M67.32-42.99l3.2-6.98-3.18 3.48.03-3.5h0l-.03 3.5-3.12-3.52 3.1 7.02h0z"/><text x="56" y="-65.4" font-family="Lato" font-size="12">a</text></g><g class="node"><circle fill="#ffffa0" stroke="#000" cx="149" cy="-22" r="18"/><text text-anchor="middle" x="149" y="-18.9" font-family="Lato" font-size="12">1</text></g><g class="edge"><path fill="none" stroke="#000" d="M82.06-22h41.55"/><path stroke="#000" d="M130.93-22l-7-3.15 3.5 3.15h-3.5 3.5l-3.5 3.15 7-3.15h0z"/><text x="100" y="-25.4" font-family="Lato" font-size="12">!a</text></g><g class="edge"><path fill="none" stroke="#000" d="M133.22-12.98C127.18-9.8 119.98-6.61 113-5c-9.06 2.08-18.79.09-27.35-3.17"/><path stroke="#000" d="M79.06-11l5.19 5.66-1.97-4.27 3.21 1.38h0l-3.21-1.38 4.46-1.52-7.68.13h0z"/><text x="102.5" y="-8.4" font-family="Lato" font-size="12">a</text></g><g class="edge"><path fill="none" stroke="#000" d="M141.62-38.66C139.98-48.62 142.44-58 149-58c4.92 0 7.54 5.27 7.84 12.11"/><path stroke="#000" d="M156.38-38.66l3.59-6.79-3.36 3.29.22-3.49h0l-.22 3.49-2.92-3.69 2.69 7.19h0z"/><text x="142.5" y="-61.4" font-family="Lato" font-size="12">!a</text></g></g></svg>