<?xml-stylesheet href="spot.css" type="text/css"?><svg width="484" height="119pt" viewBox="0 0 363 119" xmlns="http://www.w3.org/2000/svg"><g class="graph" transform="translate(4 115)"><path fill="#fff" stroke="transparent" d="M-4 4v-119h363V4H-4z"/><text x="156" y="-97.4" font-family="Lato" font-size="12">[Büchi]</text><g class="node"><circle fill="#ffffa0" stroke="#000" cx="56" cy="-61" r="18"/><text text-anchor="middle" x="56" y="-57.9" font-family="Lato" font-size="12">2</text></g><g class="edge"><path fill="none" stroke="#000" d="M1.15-61h29.48"/><path stroke="#000" d="M37.94-61l-7-3.15 3.5 3.15h-3.5 3.5l-3.5 3.15 7-3.15h0z"/></g><g class="node"><circle fill="#ffffa0" stroke="#000" cx="249" cy="-67" r="18"/><text x="245" y="-63.9" font-family="Lato" font-size="12">1</text></g><g class="edge"><path fill="none" stroke="#000" d="M73.37-66.17C85.54-69.73 102.63-74.14 118-76c36.79-4.46 79.74.48 105.89 4.61"/><path stroke="#000" d="M231.12-70.2l-6.4-4.25 2.95 3.68-3.46-.57h0l3.46.57-3.97 2.54 7.42-1.97h0z"/><text x="129.5" y="-80.4" font-family="Lato" font-size="12">!a</text></g><g class="node"><circle fill="#ffffa0" stroke="#000" cx="136" cy="-18" r="18"/><text text-anchor="middle" x="136" y="-14.9" font-family="Lato" font-size="12">3</text></g><g class="edge"><path fill="none" stroke="#000" d="M72.04-52.71c11.87 6.54 28.57 15.75 41.79 23.04"/><path stroke="#000" d="M120.01-26.27l-4.61-6.13 1.54 4.44-3.06-1.68h0l3.06 1.68-4.58 1.07 7.65.62h0z"/><text x="92" y="-43.4" font-family="Lato" font-size="12">a</text></g><g class="node"><circle fill="#ffffa0" stroke="#000" cx="333" cy="-34" r="18"/><circle fill="none" stroke="#000" cx="333" cy="-34" r="22"/><text text-anchor="middle" x="333" y="-30.9" font-family="Lato" font-size="12">0</text></g><g class="edge"><path fill="none" stroke="#000" d="M324.99-54.58C323.89-64.84 326.55-74 333-74c4.83 0 7.54 5.15 8.13 12.05"/><path stroke="#000" d="M341.01-54.58l3.26-6.95-3.21 3.45.06-3.5h0l-.06 3.5-3.09-3.55 3.04 7.05h0z"/><text x="329" y="-77.4" font-family="Lato" font-size="12">1</text></g><g class="edge"><path fill="none" stroke="#000" d="M266.2-60.48c11.29 4.54 26.59 10.7 39.6 15.94"/><path stroke="#000" d="M312.36-41.9l-5.32-5.54 2.08 4.23-3.25-1.31h0l3.25 1.31-4.43 1.62 7.67-.31h0z"/><text x="285" y="-55.4" font-family="Lato" font-size="12">b</text></g><g class="edge"><path fill="none" stroke="#000" d="M154.26-18.98c24.92-1.47 72.4-4.45 112.74-8.02 12.06-1.07 25.35-2.46 36.75-3.72"/><path stroke="#000" d="M310.94-31.53l-7.3-2.35 3.82 2.74-3.47.39h0l3.47-.39-3.12 3.52 6.6-3.91h0z"/><text x="245" y="-30.4" font-family="Lato" font-size="12">b</text></g><g class="edge"><path fill="none" stroke="#000" d="M152.9-25.02c19.04-8.41 51.06-22.54 72.62-32.06"/><path stroke="#000" d="M232.13-59.99l-7.68-.06 4.47 1.47-3.2 1.41h0l3.2-1.41-1.93 4.3 5.14-5.71h0z"/><text x="172" y="-54.4" font-family="Lato" font-size="12">!a &amp; !b</text></g><g class="edge"><path fill="none" stroke="#000" d="M128.97-34.66C127.41-44.62 129.75-54 136-54c4.69 0 7.18 5.27 7.47 12.11"/><path stroke="#000" d="M143.03-34.66l3.57-6.8-3.36 3.3.22-3.49h0l-.22 3.49-2.93-3.68 2.72 7.18h0z"/><text x="117.5" y="-57.4" font-family="Lato" font-size="12">a &amp; !b</text></g></g></svg>