<?xml-stylesheet href="spot.css" type="text/css"?><svg width="568" height="335pt" viewBox="0 0 426 335" xmlns="http://www.w3.org/2000/svg"><g class="graph" transform="translate(4 331)"><path fill="#fff" stroke="transparent" d="M-4 4v-335h426V4H-4z"/><g class="node"><circle fill="#ffffa0" stroke="#000" cx="56" cy="-150" r="18"/><text text-anchor="middle" x="56" y="-146.9" font-family="Lato" font-size="12">0</text></g><g class="edge"><path fill="none" stroke="#000" d="M1.15-150h29.48"/><path stroke="#000" d="M37.94-150l-7-3.15 3.5 3.15h-3.5 3.5l-3.5 3.15 7-3.15h0z"/></g><g class="edge"><path fill="none" stroke="#000" d="M49.62-167.04c-1.3-9.82.83-18.96 6.38-18.96 4.17 0 6.4 5.14 6.71 11.86"/><path stroke="#000" d="M62.38-167.04l3.47-6.84-3.31 3.35.17-3.5h0l-.17 3.5-2.98-3.65 2.82 7.14h0z"/><text x="36" y="-202.4" font-family="Lato" font-size="12">!a &amp; !c</text><text x="49.5" y="-189.4" font-family="Lato" font-size="12" fill="#1f78b4">⓿</text></g><g class="node"><circle fill="#ffffa0" stroke="#000" cx="400" cy="-152" r="18"/><text text-anchor="middle" x="400" y="-148.9" font-family="Lato" font-size="12">1</text></g><g class="edge"><path fill="none" stroke="#000" d="M72.74-157.28c5.93-2.48 12.8-5.04 19.26-6.72 33.83-8.78 43.12-7.77 78-10 86.3-5.51 108.55 1.7 194 15 3.66.57 7.51 1.25 11.27 1.97"/><path stroke="#000" d="M382.32-155.64l-6.26-4.45 2.82 3.77-3.43-.68h0l3.43.68-4.04 2.41 7.48-1.73h0z"/><text x="260" y="-179.4" font-family="Lato" font-size="12">c</text></g><g class="node"><circle fill="#ffffa0" stroke="#000" cx="200" cy="-116" r="18"/><text text-anchor="middle" x="200" y="-112.9" font-family="Lato" font-size="12">2</text></g><g class="edge"><path fill="none" stroke="#000" d="M74.09-148.81c19.23 1.65 51.27 5.31 77.91 12.81 8.37 2.35 17.21 5.84 24.95 9.24"/><path stroke="#000" d="M183.69-123.69l-5.06-5.77 1.88 4.32-3.19-1.45h0l3.19 1.45-4.49 1.42 7.67.03h0z"/><text x="104" y="-150.4" font-family="Lato" font-size="12">a &amp; !c</text></g><g class="node"><circle fill="#ffffa0" stroke="#000" cx="200" cy="-18" r="18"/><text text-anchor="middle" x="200" y="-14.9" font-family="Lato" font-size="12">3</text></g><g class="edge"><path fill="none" stroke="#000" d="M62.69-133.03C68.31-118.21 78.1-96.81 92-82c24.13 25.72 60.88 44.62 84.42 54.97"/><path stroke="#000" d="M182.98-24.22l-5.19-5.65 1.97 4.27-3.22-1.38h0l3.22 1.38-4.46 1.52 7.68-.14h0z"/><text x="92" y="-85.4" font-family="Lato" font-size="12">a &amp; b &amp; !c</text></g><g class="edge"><path fill="none" stroke="#000" d="M392.62-168.66c-1.64-9.96.82-19.34 7.38-19.34 4.92 0 7.54 5.27 7.84 12.11"/><path stroke="#000" d="M407.38-168.66l3.59-6.79-3.36 3.29.22-3.49h0l-.22 3.49-2.92-3.69 2.69 7.19h0z"/><text x="396" y="-204.4" font-family="Lato" font-size="12">1</text><text x="393.5" y="-191.4" font-family="Lato" font-size="12" fill="#1f78b4">⓿</text></g><g class="edge"><path fill="none" stroke="#000" d="M182.85-109.5c-21.79 7.69-61.27 17.77-90.85 3.5-9.53-4.6-17.26-13.19-23.01-21.56"/><path stroke="#000" d="M64.98-133.86l1.1 7.6.78-4.65 1.88 2.95h0l-1.88-2.95 4.54 1.26-6.42-4.21h0z"/><text x="102" y="-122.4" font-family="Lato" font-size="12">!a &amp; !c</text><text x="115.5" y="-109.4" font-family="Lato" font-size="12" fill="#1f78b4">⓿</text></g><g class="edge"><path fill="none" stroke="#000" d="M217.88-119.07c35.22-6.4 116.6-21.2 157.2-28.58"/><path stroke="#000" d="M382.16-148.94l-7.45-1.85 4.01 2.48-3.45.62h0l3.45-.62-2.88 3.72 6.32-4.35h0z"/><text x="297" y="-143.4" font-family="Lato" font-size="12">!a &amp; c</text></g><g class="edge"><path fill="none" stroke="#000" d="M189.63-130.79c-3.38-10.63.08-21.21 10.37-21.21 7.88 0 11.75 6.2 11.62 13.88"/><path stroke="#000" d="M210.37-130.79l4.28-6.37-3.69 2.92.59-3.45h0l-.59 3.45-2.52-3.98 1.93 7.43h0z"/><text x="182" y="-155.4" font-family="Lato" font-size="12">a &amp; !c</text></g><g class="node"><circle fill="#ffffa0" stroke="#000" cx="315" cy="-67" r="18"/><text text-anchor="middle" x="315" y="-63.9" font-family="Lato" font-size="12">4</text></g><g class="edge"><path fill="none" stroke="#000" d="M216.71-109.19c19.46 8.44 52.73 22.87 74.86 32.46"/><path stroke="#000" d="M298.06-73.91l-5.17-5.68 1.96 4.28-3.22-1.39h0l3.22 1.39-4.47 1.5 7.68-.1h0z"/><text x="248" y="-98.4" font-family="Lato" font-size="12">a &amp; c</text></g><g class="edge"><path fill="none" stroke="#000" d="M189.63-32.79C186.25-43.42 189.71-54 200-54c7.88 0 11.75 6.2 11.62 13.88"/><path stroke="#000" d="M210.37-32.79l4.28-6.37-3.69 2.92.59-3.45h0l-.59 3.45-2.52-3.98 1.93 7.43h0z"/><text x="196" y="-70.4" font-family="Lato" font-size="12">b</text><text x="193.5" y="-57.4" font-family="Lato" font-size="12" fill="#1f78b4">⓿</text></g><g class="edge"><path fill="none" stroke="#000" d="M328.25-79.54c14.1-14.44 37.36-38.26 53.34-54.63"/><path stroke="#000" d="M386.7-139.41l-7.14 2.81 4.7-.3-2.45 2.5h0l2.45-2.5-.19 4.7 2.63-7.21h0z"/><text x="351" y="-118.4" font-family="Lato" font-size="12">!a</text></g><g class="edge"><path fill="none" stroke="#000" d="M307.62-83.66c-1.64-9.96.82-19.34 7.38-19.34 4.92 0 7.54 5.27 7.84 12.11"/><path stroke="#000" d="M322.38-83.66l3.59-6.79-3.36 3.29.22-3.49h0l-.22 3.49-2.92-3.69 2.69 7.19h0z"/><text x="311" y="-106.4" font-family="Lato" font-size="12">a</text></g><g class="node"><circle fill="#ffffa0" stroke="#000" cx="56" cy="-266" r="18"/><text text-anchor="middle" x="56" y="-262.9" font-family="Lato" font-size="12">1</text></g><g class="edge"><path fill="none" stroke="#000" d="M1.15-266h29.48"/><path stroke="#000" d="M37.94-266l-7-3.15 3.5 3.15h-3.5 3.5l-3.5 3.15 7-3.15h0z"/></g><g class="edge"><path fill="none" stroke="#000" d="M49.62-283.04c-1.3-9.82.83-18.96 6.38-18.96 4.17 0 6.4 5.14 6.71 11.86"/><path stroke="#000" d="M62.38-283.04l3.47-6.84-3.31 3.35.17-3.5h0l-.17 3.5-2.98-3.65 2.82 7.14h0z"/><text x="37.5" y="-305.4" font-family="Lato" font-size="12">a &amp; !b</text></g><g class="node"><circle fill="#ffffa0" stroke="#000" cx="200" cy="-266" r="26"/><circle fill="none" stroke="#000" cx="200" cy="-266" r="30"/><text text-anchor="middle" x="200" y="-262.9" font-family="Lato" font-size="12">0</text></g><g class="edge"><path fill="none" stroke="#000" d="M74.13-266h88.85"/><path stroke="#000" d="M169.99-266l-7-3.15 3.5 3.15h-3.5 3.5l-3.5 3.15 7-3.15h0z"/><text x="118" y="-269.4" font-family="Lato" font-size="12">b</text></g><g class="edge"><path fill="none" stroke="#000" d="M188.42-294.1c-.51-10.87 3.35-19.9 11.58-19.9 6.3 0 10.04 5.29 11.22 12.65"/><path stroke="#000" d="M211.58-294.1l2.8-7.15-2.97 3.65-.18-3.49h0l.18 3.49-3.32-3.34 3.49 6.84h0z"/><text text-anchor="middle" x="200" y="-317.4" font-family="Lato" font-size="12">1</text></g></g></svg>