<?xml-stylesheet href="spot.css" type="text/css"?><svg width="191pt" height="236" viewBox="0 0 191 176.98" xmlns="http://www.w3.org/2000/svg"><g class="graph" transform="translate(4 172.98)"><path fill="#fff" stroke="transparent" d="M-4 4v-176.98h191V4H-4z"/><text x="16.5" y="-156.38" font-family="Lato" font-size="12">Fin(</text><text x="38.5" y="-156.38" font-family="Lato" font-size="12" fill="#1f78b4">⓿</text><text x="51.5" y="-156.38" font-family="Lato" font-size="12">) &amp; (Inf(</text><text x="97.5" y="-156.38" font-family="Lato" font-size="12" fill="#ff4da0">❶</text><text x="108.5" y="-156.38" font-family="Lato" font-size="12">) | Fin(</text><text x="145.5" y="-156.38" font-family="Lato" font-size="12" fill="#ff7f00">❷</text><text x="156.5" y="-156.38" font-family="Lato" font-size="12">))</text><text x="37.5" y="-144.38" font-family="Lato" font-size="12">[parity min odd 3]</text><g class="node"><circle fill="#ffffa0" stroke="#000" cx="56" cy="-30.98" r="18"/><text text-anchor="middle" x="56" y="-27.88" font-family="Lato" font-size="12">0</text></g><g class="edge"><path fill="none" stroke="#000" d="M1.15-30.98h29.48"/><path stroke="#000" d="M37.94-30.98l-7-3.15 3.5 3.15h-3.5 3.5l-3.5 3.15 7-3.15h0z"/></g><g class="edge"><path fill="none" stroke="#000" d="M52.76-48.76c-.55-9.53.53-18.22 3.24-18.22 1.99 0 3.1 4.68 3.33 10.95"/><path stroke="#000" d="M59.24-48.76l3.24-6.96-3.2 3.46.05-3.5h0l-.05 3.5-3.1-3.54 3.06 7.04h0z"/><text x="49.5" y="-83.38" font-family="Lato" font-size="12">!b</text><text x="50.5" y="-70.38" font-family="Lato" font-size="12" fill="#ff7f00">❷</text></g><g class="edge"><path fill="none" stroke="#000" d="M50.94-48.26C47.56-68.23 49.25-92.98 56-92.98c5.96 0 7.97 19.29 6.04 37.55"/><path stroke="#000" d="M61.06-48.26l4.07-6.51-3.59 3.04.47-3.47h0l-.47 3.47-2.65-3.89 2.17 7.36h0z"/><text x="40" y="-109.38" font-family="Lato" font-size="12">a &amp; b</text><text x="50.5" y="-96.38" font-family="Lato" font-size="12" fill="#ff4da0">❶</text></g><g class="node"><circle fill="#ffffa0" stroke="#000" cx="165" cy="-30.98" r="18"/><text text-anchor="middle" x="165" y="-27.88" font-family="Lato" font-size="12">1</text></g><g class="edge"><path fill="none" stroke="#000" d="M74.07-32.74c5.7-.5 12.08-.99 17.93-1.24 16.43-.7 20.57-.7 37 0 3.47.15 7.13.38 10.73.65"/><path stroke="#000" d="M146.93-32.74l-6.72-3.71 3.23 3.43-3.49-.29h0l3.49.29-3.75 2.85 7.24-2.57h0z"/><text x="92" y="-50.38" font-family="Lato" font-size="12">!a &amp; b</text><text x="105" y="-37.38" font-family="Lato" font-size="12" fill="#ff7f00">❷</text></g><g class="edge"><path fill="none" stroke="#000" d="M151.93-18.45C145.68-12.87 137.57-6.9 129-3.98c-15.56 5.31-21.44 5.31-37 0-6.16-2.1-12.08-5.77-17.24-9.74"/><path stroke="#000" d="M69.07-18.45l3.37 6.9-.67-4.66 2.69 2.24h0l-2.69-2.24 4.7-.18-7.4-2.06h0z"/><text x="106.5" y="-20.38" font-family="Lato" font-size="12">a</text><text x="105" y="-7.38" font-family="Lato" font-size="12" fill="#ff4da0">❶</text></g><g class="edge"><path fill="none" stroke="#000" d="M155.77-46.52c-2.6-10.37.48-20.46 9.23-20.46 6.7 0 10.08 5.92 10.12 13.34"/><path stroke="#000" d="M174.23-46.52l4-6.55-3.56 3.08.43-3.48h0l-.43 3.48-2.69-3.87 2.25 7.34h0z"/><text x="158.5" y="-83.38" font-family="Lato" font-size="12">!a</text><text x="159.5" y="-70.38" font-family="Lato" font-size="12" fill="#ff7f00">❷</text></g></g></svg>