<?xml-stylesheet href="spot.css" type="text/css"?><svg width="503pt" height="284" viewBox="0 0 503 213.18" xmlns="http://www.w3.org/2000/svg"><g class="graph" transform="translate(4 209.18)"><path fill="#fff" stroke="transparent" d="M-4 4v-213.18h503V4H-4z"/><text x="227.5" y="-192.58" font-family="Lato" font-size="12">Fin(</text><text x="249.5" y="-192.58" font-family="Lato" font-size="12" fill="#1f78b4">⓿</text><text x="262.5" y="-192.58" font-family="Lato" font-size="12">)</text><text x="217" y="-180.58" font-family="Lato" font-size="12">[co-Büchi]</text><g class="node"><circle fill="#ffffa0" stroke="#000" cx="56" cy="-80.18" r="18"/><text text-anchor="middle" x="56" y="-77.08" font-family="Lato" font-size="12">0</text></g><g class="edge"><path fill="none" stroke="#000" d="M1.15-80.18h29.48"/><path stroke="#000" d="M37.94-80.18l-7-3.15 3.5 3.15h-3.5 3.5l-3.5 3.15 7-3.15h0z"/></g><g class="edge"><path fill="none" stroke="#000" d="M52.76-97.96c-.55-9.53.53-18.22 3.24-18.22 1.99 0 3.1 4.69 3.33 10.95"/><path stroke="#000" d="M59.24-97.96l3.24-6.96-3.2 3.46.05-3.5h0l-.05 3.5-3.1-3.54 3.06 7.04h0z"/><text x="37.5" y="-119.58" font-family="Lato" font-size="12">!a &amp; b</text></g><g class="edge"><path fill="none" stroke="#000" d="M50.68-97.6c-3.03-17.37-1.25-36.58 5.32-36.58 5.7 0 7.79 14.45 6.27 29.61"/><path stroke="#000" d="M61.32-97.6l4.07-6.51-3.6 3.05.47-3.47h0l-.47 3.47-2.65-3.9 2.18 7.36h0z"/><text x="35.5" y="-150.58" font-family="Lato" font-size="12">!a &amp; !b</text><text x="49.5" y="-137.58" font-family="Lato" font-size="12" fill="#1f78b4">⓿</text></g><g class="node"><circle fill="#ffffa0" stroke="#000" cx="136" cy="-80.18" r="18"/><text text-anchor="middle" x="136" y="-77.08" font-family="Lato" font-size="12">1</text></g><g class="edge"><path fill="none" stroke="#000" d="M74.31-80.18h36.4"/><path stroke="#000" d="M117.74-80.18l-7-3.15 3.5 3.15h-3.5 3.5l-3.5 3.15 7-3.15h0z"/><text x="92" y="-83.58" font-family="Lato" font-size="12">a</text></g><g class="edge"><path fill="none" stroke="#000" d="M128.97-96.84c-1.56-9.96.78-19.34 7.03-19.34 4.69 0 7.18 5.28 7.47 12.12"/><path stroke="#000" d="M143.03-96.84l3.57-6.8-3.36 3.31.22-3.5h0l-.22 3.5-2.93-3.69 2.72 7.18h0z"/><text x="132" y="-119.58" font-family="Lato" font-size="12">a</text></g><g class="node"><circle fill="#ffffa0" stroke="#000" cx="249.5" cy="-31.18" r="18"/><text text-anchor="middle" x="249.5" y="-28.08" font-family="Lato" font-size="12">2</text></g><g class="edge"><path fill="none" stroke="#000" d="M152.98-73.16c19.12 8.41 51.28 22.54 72.94 32.06"/><path stroke="#000" d="M232.55-38.18l-5.14-5.7 1.94 4.29-3.2-1.41h0l3.2 1.41-4.47 1.47 7.67-.06h0z"/><text x="172" y="-67.58" font-family="Lato" font-size="12">!a &amp; !b</text></g><g class="node"><circle fill="#ffffa0" stroke="#000" cx="365.5" cy="-88.18" r="18"/><text text-anchor="middle" x="365.5" y="-85.08" font-family="Lato" font-size="12">3</text></g><g class="edge"><path fill="none" stroke="#000" d="M153.03-87.42c33.04-13.93 110.93-41.55 173.97-23.76 6.13 1.73 12.24 4.78 17.7 8.09"/><path stroke="#000" d="M350.77-99.13l-4.14-6.46 1.21 4.55-2.93-1.91h0l2.93 1.91-4.65.72 7.58 1.19h0z"/><text x="231" y="-119.58" font-family="Lato" font-size="12">!a &amp; b</text></g><g class="edge"><path fill="none" stroke="#000" d="M239.93-46.72c-2.7-10.37.49-20.46 9.57-20.46 6.95 0 10.45 5.92 10.5 13.34"/><path stroke="#000" d="M259.07-46.72l4.03-6.53-3.57 3.06.45-3.47h0l-.45 3.47-2.68-3.88 2.22 7.35h0z"/><text x="229" y="-83.58" font-family="Lato" font-size="12">!a &amp; !b</text><text x="243" y="-70.58" font-family="Lato" font-size="12" fill="#1f78b4">⓿</text></g><g class="edge"><path fill="none" stroke="#000" d="M267.5-33.7c16.13-2.93 40.62-8.78 59.5-19.48 7.59-4.3 14.87-10.44 20.96-16.37"/><path stroke="#000" d="M353.19-74.89l-7.15 2.79 4.7-.29-2.45 2.5h0l2.45-2.5-.2 4.7 2.65-7.2h0z"/><text x="288" y="-56.58" font-family="Lato" font-size="12">!a &amp; b</text></g><g class="node"><circle fill="#ffffa0" stroke="#000" cx="477" cy="-35.18" r="18"/><text text-anchor="middle" x="477" y="-32.08" font-family="Lato" font-size="12">4</text></g><g class="edge"><path fill="none" stroke="#000" d="M267.82-31.48c39.86-.71 138.16-2.45 183.97-3.27"/><path stroke="#000" d="M458.93-34.87l-7.06-3.03 3.56 3.09-3.5.06h0l3.5-.06-3.44 3.21 6.94-3.27h0z"/><text x="361.5" y="-36.58" font-family="Lato" font-size="12">a</text></g><g class="edge"><path fill="none" stroke="#000" d="M347.61-85.96c-16.58 2.74-42.15 8.49-61.61 19.78-7.22 4.19-14.04 10.2-19.74 16.05"/><path stroke="#000" d="M261.37-44.85l7.07-2.99-4.69.42 2.38-2.57h0l-2.38 2.57.07-4.71-2.45 7.28h0z"/><text x="286" y="-97.58" font-family="Lato" font-size="12">!a &amp; !b</text><text x="300" y="-84.58" font-family="Lato" font-size="12" fill="#1f78b4">⓿</text></g><g class="edge"><path fill="none" stroke="#000" d="M355.93-103.72c-2.7-10.37.49-20.46 9.57-20.46 6.95 0 10.45 5.92 10.5 13.34"/><path stroke="#000" d="M375.07-103.72l4.03-6.53-3.57 3.06.45-3.47h0l-.45 3.47-2.68-3.88 2.22 7.35h0z"/><text x="361.5" y="-127.58" font-family="Lato" font-size="12">b</text></g><g class="edge"><path fill="none" stroke="#000" d="M377.74-74.76c6.87 7.39 16.25 16.14 26.26 21.58 14.75 8.02 33.13 12.54 47.64 15.04"/><path stroke="#000" d="M458.82-37l-6.42-4.2 2.97 3.65-3.46-.54h0l3.46.54-3.95 2.57 7.4-2.02h0z"/><text x="404" y="-69.58" font-family="Lato" font-size="12">a &amp; !b</text><text x="416" y="-56.58" font-family="Lato" font-size="12" fill="#1f78b4">⓿</text></g><g class="edge"><path fill="none" stroke="#000" d="M460.54-27.6C442.97-19.45 413.2-7.01 386-2.18c-40.01 7.11-86.21-7.79-113.01-18.74"/><path stroke="#000" d="M266.28-23.75l5.23 5.62-2-4.26 3.22 1.36h0l-3.22-1.36 4.45-1.54-7.68.18h0z"/><text x="345" y="-18.58" font-family="Lato" font-size="12">!a &amp; !b</text><text x="359" y="-5.58" font-family="Lato" font-size="12" fill="#1f78b4">⓿</text></g><g class="edge"><path fill="none" stroke="#000" d="M467.78-50.85c-6.04-9.84-15.19-21.85-26.78-28.33-15.25-8.52-34.96-10.58-50.27-10.61"/><path stroke="#000" d="M383.6-89.67l7.06 3.03-3.56-3.09 3.5-.06h0l-3.5.06 3.44-3.21-6.94 3.27h0z"/><text x="404" y="-105.58" font-family="Lato" font-size="12">!a &amp; b</text><text x="416" y="-92.58" font-family="Lato" font-size="12" fill="#1f78b4">⓿</text></g><g class="edge"><path fill="none" stroke="#000" d="M467.77-50.72c-2.6-10.37.48-20.46 9.23-20.46 6.7 0 10.08 5.92 10.12 13.34"/><path stroke="#000" d="M486.23-50.72l4-6.55-3.56 3.08.43-3.47h0l-.43 3.47-2.69-3.87 2.25 7.34h0z"/><text x="473" y="-74.58" font-family="Lato" font-size="12">a</text></g></g></svg>