<?xml-stylesheet href="spot.css" type="text/css"?><svg width="755pt" height="296pt" viewBox="0 0 755 296" xmlns="http://www.w3.org/2000/svg"><g class="graph" transform="translate(4 292)"><path fill="#fff" stroke="transparent" d="M-4 4v-296h755V4H-4z"/><text x="353.5" y="-275.4" font-family="Lato" font-size="12">Fin(</text><text x="375.5" y="-275.4" font-family="Lato" font-size="12" fill="#1f78b4">⓿</text><text x="388.5" y="-275.4" font-family="Lato" font-size="12">)</text><text x="343" y="-263.4" font-family="Lato" font-size="12">[co-Büchi]</text><g class="node"><circle fill="#ffffa0" stroke="#000" cx="56" cy="-194" r="18"/><text text-anchor="middle" x="56" y="-190.9" font-family="Lato" font-size="12">0</text></g><g class="edge"><path fill="none" stroke="#000" d="M1.15-194h29.48"/><path stroke="#000" d="M37.94-194l-7-3.15 3.5 3.15h-3.5 3.5l-3.5 3.15 7-3.15h0z"/></g><g class="edge"><path fill="none" stroke="#000" d="M49.62-211.04c-1.3-9.82.83-18.96 6.38-18.96 4.17 0 6.4 5.14 6.71 11.86"/><path stroke="#000" d="M62.38-211.04l3.47-6.84-3.31 3.35.17-3.5h0l-.17 3.5-2.98-3.65 2.82 7.14h0z"/><text x="35.5" y="-246.4" font-family="Lato" font-size="12">!a &amp; !b</text><text x="49.5" y="-233.4" font-family="Lato" font-size="12" fill="#1f78b4">⓿</text></g><g class="node"><circle fill="#ffffa0" stroke="#000" cx="169" cy="-145" r="18"/><text text-anchor="middle" x="169" y="-141.9" font-family="Lato" font-size="12">1</text></g><g class="edge"><path fill="none" stroke="#000" d="M73.98-190.99c15.87 3.25 39.91 9.3 59.02 18.99 5.71 2.89 11.41 6.77 16.5 10.67"/><path stroke="#000" d="M155.17-156.78l-3.49-6.84.76 4.65-2.73-2.19h0l2.73 2.19-4.7.27 7.43 1.92h0z"/><text x="94" y="-189.4" font-family="Lato" font-size="12">!a &amp; b</text></g><g class="node"><circle fill="#ffffa0" stroke="#000" cx="385.5" cy="-181" r="18"/><text text-anchor="middle" x="385.5" y="-177.9" font-family="Lato" font-size="12">2</text></g><g class="edge"><path fill="none" stroke="#000" d="M73.57-199.17c5.77-1.56 12.33-3.06 18.43-3.83 99.23-12.55 218.38 7.11 268.47 16.94"/><path stroke="#000" d="M367.62-184.63l-6.24-4.46 2.81 3.77-3.43-.68h0l3.43.68-4.05 2.41 7.48-1.72h0z"/><text x="217" y="-208.4" font-family="Lato" font-size="12">a</text></g><g class="edge"><path fill="none" stroke="#000" d="M151.52-139.78c-16.16 4.1-40.99 7.65-59.52-2.22-11.53-6.14-19.95-17.96-25.63-28.78"/><path stroke="#000" d="M63.18-177.33l.23 7.67 1.3-4.52 1.53 3.14h0l-1.53-3.14 4.37 1.76-5.9-4.91h0z"/><text x="92" y="-158.4" font-family="Lato" font-size="12">!a &amp; !b</text><text x="106" y="-145.4" font-family="Lato" font-size="12" fill="#1f78b4">⓿</text></g><g class="edge"><path fill="none" stroke="#000" d="M160.02-160.92c-2.34-10.23.65-20.08 8.98-20.08 6.38 0 9.63 5.77 9.75 13.07"/><path stroke="#000" d="M177.98-160.92l3.89-6.61-3.51 3.13.38-3.47h0l-.38 3.47-2.75-3.82 2.37 7.3h0z"/><text x="150.5" y="-184.4" font-family="Lato" font-size="12">!a &amp; b</text></g><g class="edge"><path fill="none" stroke="#000" d="M186.83-147.82c37.81-6.35 129.6-21.76 173.5-29.12"/><path stroke="#000" d="M367.45-178.14l-7.42-1.95 3.97 2.53-3.45.58h0l3.45-.58-2.93 3.69 6.38-4.27h0z"/><text x="255" y="-168.4" font-family="Lato" font-size="12">a &amp; !b</text></g><g class="node"><circle fill="#ffffa0" stroke="#000" cx="273.5" cy="-96" r="18"/><text text-anchor="middle" x="273.5" y="-92.9" font-family="Lato" font-size="12">3</text></g><g class="edge"><path fill="none" stroke="#000" d="M185.57-137.56c17.23 8.24 45.15 21.59 64.69 30.93"/><path stroke="#000" d="M256.79-103.51l-4.96-5.86 1.8 4.35-3.16-1.51h0l3.16 1.51-4.52 1.33 7.68.18h0z"/><text x="205" y="-131.4" font-family="Lato" font-size="12">a &amp; b</text></g><g class="edge"><path fill="none" stroke="#000" d="M375.93-196.54c-2.7-10.37.49-20.46 9.57-20.46 6.95 0 10.45 5.92 10.5 13.34"/><path stroke="#000" d="M395.07-196.54l4.03-6.54-3.57 3.07.45-3.47h0l-.45 3.47-2.68-3.88 2.22 7.35h0z"/><text x="381.5" y="-220.4" font-family="Lato" font-size="12">a</text></g><g class="node"><circle fill="#ffffa0" stroke="#000" cx="501.5" cy="-103" r="18"/><text text-anchor="middle" x="501.5" y="-99.9" font-family="Lato" font-size="12">4</text></g><g class="edge"><path fill="none" stroke="#000" d="M400.94-171.12c20.04 13.71 56.4 38.59 79.19 54.19"/><path stroke="#000" d="M486.18-112.8l-4-6.55 1.11 4.58-2.89-1.98h0l2.89 1.98-4.67.62 7.56 1.35h0z"/><text x="424" y="-156.4" font-family="Lato" font-size="12">!a &amp; !b</text></g><g class="node"><circle fill="#ffffa0" stroke="#000" cx="617.5" cy="-166" r="18"/><text text-anchor="middle" x="617.5" y="-162.9" font-family="Lato" font-size="12">5</text></g><g class="edge"><path fill="none" stroke="#000" d="M403.15-185.35c33.91-8.08 113.07-23.02 175.85-4.65 6.43 1.88 12.8 5.24 18.42 8.86"/><path stroke="#000" d="M603.19-177.17l-3.98-6.57 1.1 4.58-2.89-1.98h0l2.89 1.98-4.67.61 7.55 1.38h0z"/><text x="483" y="-201.4" font-family="Lato" font-size="12">!a &amp; b</text></g><g class="edge"><path fill="none" stroke="#000" d="M288.43-106.77c19.42-15 54.72-42.28 76.7-59.26"/><path stroke="#000" d="M370.68-170.32l-7.46 1.79 4.69.35-2.77 2.14h0l2.77-2.14-.84 4.63 3.61-6.77h0z"/><text x="310" y="-154.4" font-family="Lato" font-size="12">a &amp; !b</text></g><g class="edge"><path fill="none" stroke="#000" d="M264.52-111.92c-2.34-10.23.65-20.08 8.98-20.08 6.38 0 9.63 5.77 9.75 13.07"/><path stroke="#000" d="M282.48-111.92l3.89-6.61-3.51 3.13.38-3.47h0l-.38 3.47-2.75-3.82 2.37 7.3h0z"/><text x="257.5" y="-135.4" font-family="Lato" font-size="12">a &amp; b</text></g><g class="edge"><path fill="none" stroke="#000" d="M291.86-96.54c39.95-1.23 138.47-4.29 184.37-5.71"/><path stroke="#000" d="M483.39-102.47l-7.09-2.93 3.59 3.04-3.5.11h0l3.5-.11-3.4 3.26 6.9-3.37h0z"/><text x="365" y="-103.4" font-family="Lato" font-size="12">!a &amp; !b</text></g><g class="node"><circle fill="#ffffa0" stroke="#000" cx="385.5" cy="-18" r="18"/><text text-anchor="middle" x="385.5" y="-14.9" font-family="Lato" font-size="12">6</text></g><g class="edge"><path fill="none" stroke="#000" d="M288.88-85.8c19.38 13.74 53.95 38.25 75.79 53.74"/><path stroke="#000" d="M370.46-27.95l-3.88-6.62 1.03 4.59-2.86-2.02h0l2.86 2.02-4.68.55 7.53 1.48h0z"/><text x="310" y="-74.4" font-family="Lato" font-size="12">!a &amp; b</text></g><g class="edge"><path fill="none" stroke="#000" d="M491.93-118.54c-2.7-10.37.49-20.46 9.57-20.46 6.95 0 10.45 5.92 10.5 13.34"/><path stroke="#000" d="M511.07-118.54l4.03-6.54-3.57 3.07.45-3.47h0l-.45 3.47-2.68-3.88 2.22 7.35h0z"/><text x="481" y="-155.4" font-family="Lato" font-size="12">!a &amp; !b</text><text x="495" y="-142.4" font-family="Lato" font-size="12" fill="#1f78b4">⓿</text></g><g class="edge"><path fill="none" stroke="#000" d="M519.18-107.03c16.1-4.35 40.78-12.27 59.82-23.97 7.44-4.57 14.67-10.77 20.78-16.68"/><path stroke="#000" d="M605.03-152.98l-7.16 2.75 4.7-.26-2.47 2.48h0l2.47-2.48-.23 4.7 2.69-7.19h0z"/><text x="554.5" y="-134.4" font-family="Lato" font-size="12">b</text></g><g class="node"><circle fill="#ffffa0" stroke="#000" cx="729" cy="-97" r="18"/><text text-anchor="middle" x="729" y="-93.9" font-family="Lato" font-size="12">7</text></g><g class="edge"><path fill="none" stroke="#000" d="M517.19-93.98C535.2-83.56 567.04-67.17 597-62c43.04 7.43 55.32-5.1 96-21 3.98-1.56 8.21-3.23 12.3-4.86"/><path stroke="#000" d="M711.99-90.53l-7.67-.33 4.42 1.62-3.25 1.3h0l3.25-1.3-2.08 4.23 5.33-5.52h0z"/><text x="599" y="-65.4" font-family="Lato" font-size="12">a &amp; !b</text></g><g class="edge"><path fill="none" stroke="#000" d="M599.42-164.11C582.68-161.62 557-156.05 538-144c-8.2 5.2-15.55 12.86-21.41 20.16"/><path stroke="#000" d="M512.03-117.85l6.75-3.66-4.63.87 2.12-2.78h0l-2.12 2.78-.38-4.69-1.74 7.48h0z"/><text x="538" y="-176.4" font-family="Lato" font-size="12">!a &amp; !b</text><text x="552" y="-163.4" font-family="Lato" font-size="12" fill="#1f78b4">⓿</text></g><g class="edge"><path fill="none" stroke="#000" d="M607.93-181.54c-2.7-10.37.49-20.46 9.57-20.46 6.95 0 10.45 5.92 10.5 13.34"/><path stroke="#000" d="M627.07-181.54l4.03-6.54-3.57 3.07.45-3.47h0l-.45 3.47-2.68-3.88 2.22 7.35h0z"/><text x="613.5" y="-205.4" font-family="Lato" font-size="12">b</text></g><g class="edge"><path fill="none" stroke="#000" d="M635.64-168.04c16.12-1.03 40.27-.19 57.36 11.04 12.96 8.52 21.73 23.62 27.25 36.54"/><path stroke="#000" d="M722.85-113.95l.33-7.67-1.63 4.42-1.3-3.26h0l1.3 3.26-4.22-2.09 5.52 5.34h0z"/><text x="656" y="-183.4" font-family="Lato" font-size="12">a &amp; !b</text><text x="668" y="-170.4" font-family="Lato" font-size="12" fill="#1f78b4">⓿</text></g><g class="edge"><path fill="none" stroke="#000" d="M400.44-28.21C416.17-39.75 442.49-59.13 465-76c5.17-3.87 10.73-8.09 15.89-12.01"/><path stroke="#000" d="M486.71-92.44l-7.48 1.73 4.7.39-2.79 2.12h0l2.79-2.12-.88 4.63 3.66-6.75h0z"/><text x="424" y="-79.4" font-family="Lato" font-size="12">!a &amp; !b</text></g><g class="edge"><path fill="none" stroke="#000" d="M375.93-33.54c-2.7-10.37.49-20.46 9.57-20.46 6.95 0 10.45 5.92 10.5 13.34"/><path stroke="#000" d="M395.07-33.54l4.03-6.54-3.57 3.07.45-3.47h0l-.45 3.47-2.68-3.88 2.22 7.35h0z"/><text x="381.5" y="-57.4" font-family="Lato" font-size="12">b</text></g><g class="edge"><path fill="none" stroke="#000" d="M403.82-17.1C452.25-15.28 592.1-14.95 693-64c6.99-3.4 13.51-8.68 19-14.03"/><path stroke="#000" d="M717.11-83.34l-7.13 2.86 4.7-.34-2.43 2.52h0l2.43-2.52-.16 4.71 2.59-7.23h0z"/><text x="540" y="-32.4" font-family="Lato" font-size="12">a &amp; !b</text></g><g class="edge"><path fill="none" stroke="#000" d="M710.93-97.45c-39.61-1.06-137.91-3.67-183.93-4.9"/><path stroke="#000" d="M519.82-102.54l6.91 3.34-3.41-3.25 3.5.1h0l-3.5-.1 3.58-3.05-7.08 2.96h0z"/><text x="597" y="-117.4" font-family="Lato" font-size="12">!a &amp; !b</text><text x="611" y="-104.4" font-family="Lato" font-size="12" fill="#1f78b4">⓿</text></g><g class="edge"><path fill="none" stroke="#000" d="M711.61-101.7c-15.25-4.84-38.17-13.37-55.61-25.3-7.87-5.39-15.4-12.64-21.62-19.42"/><path stroke="#000" d="M629.49-151.97l2.27 7.34.04-4.71 2.32 2.62h0l-2.32-2.62 4.68.54-6.99-3.17h0z"/><text x="656" y="-143.4" font-family="Lato" font-size="12">!a &amp; b</text><text x="668" y="-130.4" font-family="Lato" font-size="12" fill="#1f78b4">⓿</text></g><g class="edge"><path fill="none" stroke="#000" d="M719.77-112.54c-2.6-10.37.48-20.46 9.23-20.46 6.7 0 10.08 5.92 10.12 13.34"/><path stroke="#000" d="M738.23-112.54l4-6.56-3.56 3.09.43-3.48h0l-.43 3.48-2.69-3.87 2.25 7.34h0z"/><text x="725" y="-136.4" font-family="Lato" font-size="12">a</text></g></g></svg>