<svg xmlns="http://www.w3.org/2000/svg" xmlns:xlink="http://www.w3.org/1999/xlink" width="761.288" height="340.105" viewBox="0 0 570.966 255.079"><defs><symbol overflow="visible" id="a"><path d="M2.094-4.61H3.78v-.702H2.094v-1.516h-.828v1.516H.234v.703h1v3.187c0 .719.172 1.547.985 1.547a3.68 3.68 0 001.75-.453l-.188-.703c-.312.25-.703.39-1.078.39-.437 0-.61-.343-.61-.984zm0 0"/></symbol><symbol overflow="visible" id="b"><path d="M1.875-2.563c0-1.187.86-2.046 2.031-2.078v-.796c-1.062.015-1.719.593-2.094 1.14v-1.078H.985V0h.891zm0 0"/></symbol><symbol overflow="visible" id="c"><path d="M4.766-3.453c0-1.219-.875-2.063-1.97-2.063-.78 0-1.312.204-1.874.516l.062.797c.625-.453 1.235-.61 1.813-.61.562 0 1.047.485 1.047 1.375v.516C2.047-2.906.53-2.406.53-1.344c0 .5.313 1.469 1.36 1.469.171 0 1.28-.016 1.984-.563V0h.89zm-.922 1.875c0 .234 0 .531-.406.75-.36.219-.813.234-.938.234-.578 0-1.11-.281-1.11-.781 0-.844 1.938-.922 2.454-.938zm0 0"/></symbol><symbol overflow="visible" id="d"><path d="M5.203-3.563c0-.78-.187-1.874-1.64-1.874-1.079 0-1.657.812-1.735.906v-.844h-.86V0h.938v-2.922c0-.797.297-1.781 1.203-1.781 1.141 0 1.157.844 1.157 1.219V0h.937zm0 0"/></symbol><symbol overflow="visible" id="e"><path d="M4.094-5.125a3.629 3.629 0 00-1.719-.39c-.297 0-1.984 0-1.984 1.577 0 .579.343.97.656 1.188.36.266.625.313 1.281.438.438.093 1.125.234 1.125.859 0 .828-.937.828-1.125.828a3.26 3.26 0 01-1.844-.578l-.156.812c.39.188 1.047.516 2.016.516.219 0 .875 0 1.39-.375.36-.281.563-.766.563-1.281 0-.657-.438-1.063-.453-1.094-.469-.422-.797-.5-1.39-.61-.657-.124-1.204-.25-1.204-.828 0-.75.86-.75 1.016-.75.375 0 1.015.063 1.687.47zm0 0"/></symbol><symbol overflow="visible" id="f"><path d="M1.86-8.297H.968V0h.89zm0 0"/></symbol><symbol overflow="visible" id="g"><path d="M4.953-2.625c0-.406-.016-1.297-.484-2.016-.485-.734-1.219-.875-1.64-.875C1.5-5.516.421-4.25.421-2.703.422-1.125 1.562.125 3 .125c.75 0 1.438-.281 1.906-.61l-.078-.78a2.87 2.87 0 01-1.812.671c-.954 0-1.72-.86-1.766-2.031zm-3.64-.656c.187-.906.828-1.5 1.515-1.5.61 0 1.281.406 1.438 1.5zm0 0"/></symbol><symbol overflow="visible" id="h"><path d="M5.61-2.625c0-1.61-1.204-2.89-2.626-2.89C1.516-5.516.36-4.204.36-2.626S1.58.125 2.97.125c1.437 0 2.64-1.203 2.64-2.75zM2.968-.641c-.813 0-1.672-.656-1.672-2.109 0-1.453.906-2.031 1.672-2.031.844 0 1.703.625 1.703 2.031 0 1.406-.813 2.11-1.703 2.11zm0 0"/></symbol><symbol overflow="visible" id="i"><path d="M2.625-8.297H1.141V0h.937v-7.453h.016c.219.5.734 1.516.797 1.64L5.828 0h1.469v-8.297h-.922v7.453h-.016c-.234-.5-.734-1.515-.796-1.64zm0 0"/></symbol><symbol overflow="visible" id="j"><path d="M1.156-8.297V0h3.157C6.03 0 7.296-1.078 7.296-2.25c0-1.031-1.047-1.89-2.313-2.094 1.094-.265 1.985-.968 1.985-1.875 0-1.093-1.282-2.078-2.969-2.078zm1 3.625v-2.953h1.5c1.328 0 2.375.625 2.375 1.422 0 .719-.843 1.531-2.5 1.531zm0 4v-3.265h1.735c1.265 0 2.437.718 2.437 1.671 0 .907-1.062 1.594-2.344 1.594zm0 0"/></symbol><symbol overflow="visible" id="k"><path d="M4.5-8.297H3.453L.328 0h.89l.923-2.438h3.484L6.531 0h1.094zm.86 5.188H2.39l.782-2.157c.25-.703.625-1.734.703-2.171h.016c.015.171.109.468.375 1.25zm0 0"/></symbol><symbol overflow="visible" id="l"><path d="M1.906-.547c.375.344.907.672 1.625.672 1.156 0 2.203-1.172 2.203-2.797 0-1.422-.75-2.765-1.89-2.765-.719 0-1.422.25-1.969.718v-.593h-.89v7.625h.921zm0-3.437c.297-.422.766-.688 1.266-.688.922 0 1.64.906 1.64 2 0 1.235-.859 2.078-1.75 2.078-.468 0-.796-.25-1.03-.562-.126-.188-.126-.203-.126-.422zm0 0"/></symbol><symbol overflow="visible" id="m"><path d="M1.953-8.125H.891v1.063h1.062zM1.86-5.312H.97V0h.89zm0 0"/></symbol><symbol overflow="visible" id="n"><path d="M2.188-8.297H1.125V0h1.063zm0 0"/></symbol><symbol overflow="visible" id="o"><path d="M5.234-8.516c.063-.156.063-.187.063-.203 0-.14-.11-.25-.234-.25-.172 0-.22.125-.25.25L.734 2.531c-.062.156-.062.188-.062.219 0 .125.11.234.234.234.172 0 .219-.109.25-.234zm0 0"/></symbol><symbol overflow="visible" id="p"><path d="M8.11-4.125c0-2.516-1.72-4.438-3.704-4.438C2.36-8.563.672-6.609.672-4.125c0 2.531 1.765 4.39 3.719 4.39 2 0 3.718-1.874 3.718-4.39zM4.405-.515c-1.422 0-2.672-1.5-2.672-3.782 0-2.187 1.313-3.5 2.657-3.5 1.375 0 2.656 1.36 2.656 3.5 0 2.328-1.281 3.781-2.64 3.781zm0 0"/></symbol><symbol overflow="visible" id="q"><path d="M5.188-8.297h-.891v3.516a2.754 2.754 0 00-1.75-.657c-1.188 0-2.11 1.235-2.11 2.782 0 1.562.907 2.781 2.047 2.781.391 0 1.094-.094 1.766-.75V0h.938zm-.938 6.64c0 .157 0 .376-.39.72-.282.25-.579.343-.891.343-.735 0-1.61-.562-1.61-2.047 0-1.578 1.032-2.062 1.735-2.062.547 0 .906.266 1.156.656zm0 0"/></symbol><symbol overflow="visible" id="r"><path d="M8.516-3.563c0-.796-.188-1.874-1.625-1.874-.72 0-1.344.328-1.782.984-.312-.906-1.156-.984-1.53-.984-.86 0-1.423.484-1.75.921v-.859h-.86V0h.937v-2.922c0-.812.313-1.781 1.203-1.781 1.11 0 1.172.766 1.172 1.219V0h.938v-2.922c0-.812.312-1.781 1.203-1.781 1.11 0 1.172.766 1.172 1.219V0h.922zm0 0"/></symbol><symbol overflow="visible" id="s"><path d="M4.781-4.844v-.468H.5v.703H3.531L.328-.484V0h4.484v-.734H1.61zm0 0"/></symbol><symbol overflow="visible" id="t"><path d="M1.14-8.297V0h3.157c2.031 0 3.656-1.813 3.656-4.078 0-2.313-1.625-4.219-3.672-4.219zM2.173-.672v-6.953H4c1.672 0 2.922 1.438 2.922 3.547C6.922-2.047 5.672-.672 4-.672zm0 0"/></symbol><symbol overflow="visible" id="u"><path d="M4.203-3.453c1.484 0 2.75-1.094 2.75-2.422 0-1.281-1.187-2.422-2.828-2.422H1.141V0h1.078v-3.453zM3.86-7.625c1.313 0 2.125.734 2.125 1.75 0 .938-.75 1.734-2.125 1.734H2.172v-3.484zm0 0"/></symbol><symbol overflow="visible" id="v"><path d="M6.125-3.938v-.718H2.187V-7.5h1.657c.14 0 .281.016.422.016h2.187v-.782H1.125V0h5.5v-.844H2.188v-3.094zm0 0"/></symbol><symbol overflow="visible" id="w"><path d="M2.188-8.297H1.125V0h4.844v-.781c-1.063 0-2.125.015-3.203.015h-.579zm0 0"/></symbol><symbol overflow="visible" id="x"><path d="M3.234-8.969c-.375.36-1.171 1.094-1.734 2.563C1.031-5.125.937-3.86.937-2.984c0 3.859 1.735 5.453 2.297 5.968h.735C3.39 2.422 1.875.875 1.875-2.984c0-.672.031-2.079.531-3.485.485-1.39 1.172-2.11 1.563-2.5zm0 0"/></symbol><symbol overflow="visible" id="y"><path d="M5.203-5.313h-.937v3.47c0 .905-.672 1.312-1.438 1.312-.844 0-.922-.313-.922-.813v-3.968H.97v4.015c0 .86.281 1.422 1.265 1.422.641 0 1.485-.188 2.063-.703V0h.906zm0 0"/></symbol><symbol overflow="visible" id="z"><path d="M6.953-1.36c-.703.47-1.11.72-2.297.72-1.718 0-2.797-1.797-2.797-3.516 0-1.625 1-3.5 2.829-3.5.843 0 1.39.203 2.046.61l.157-.97c-.5-.25-1.422-.406-2.188-.406-2.219 0-3.922 1.86-3.922 4.375C.781-2.157 2.22.125 4.703.125c1.094 0 1.547-.188 2.328-.656zm0 0"/></symbol><symbol overflow="visible" id="A"><path d="M5.016-3.89c1.218-.36 2.03-1.22 2.03-2.188 0-1.172-1.312-2.219-3.015-2.219h-2.89V0h1.03v-3.797h1.892L6.313 0h1.062zm-2.844-.626v-3.109H3.89c1.39 0 2.187.703 2.187 1.547 0 .86-.766 1.562-2.187 1.562zm0 0"/></symbol><symbol overflow="visible" id="B"><path d="M1.406 2.984c.375-.359 1.172-1.078 1.719-2.546.484-1.282.563-2.547.563-3.422 0-3.86-1.72-5.454-2.282-5.985H.672c.578.578 2.094 2.125 2.094 5.985 0 .671-.047 2.062-.532 3.468-.484 1.391-1.171 2.11-1.562 2.5zm0 0"/></symbol><symbol overflow="visible" id="C"><path d="M2.156-.016v-.968h-1V0h.297l-.297 1.5h.5zm0 0"/></symbol><symbol overflow="visible" id="az"><path d="M4.906-5c-.703-.406-1.11-.516-1.843-.516-1.657 0-2.626 1.454-2.626 2.86C.438-1.172 1.516.125 3.017.125c.64 0 1.296-.156 1.937-.61l-.062-.796c-.61.484-1.25.64-1.86.64-1 0-1.672-.859-1.672-2.03 0-.923.454-2.079 1.72-2.079.608 0 1.015.094 1.671.531zm0 0"/></symbol><symbol overflow="visible" id="aA"><path d="M4.61-7.453H7.703v-.766H.437v.766H3.53V0H4.61zm0 0"/></symbol><symbol overflow="visible" id="aN"><path d="M5.328-5.313h-.89l-.954 2.485c-.25.672-.609 1.64-.718 2.187-.079-.421-.391-1.25-.5-1.578L1.094-5.313H.172L2.219 0H3.28zm0 0"/></symbol><symbol overflow="visible" id="aO"><path d="M5.328-5.313h-.89C2.875-1.5 2.859-.952 2.843-.688h-.016c-.062-.796-1.015-3.015-1.078-3.125l-.64-1.5H.171L2.484 0c-.14.375-.375.969-.421 1.078-.313.688-.516.688-.688.688-.188 0-.578-.047-.938-.188l.079.781c.265.063.593.094.859.094.422 0 .86-.14 1.344-1.36zm0 0"/></symbol><symbol overflow="visible" id="aP"><path d="M4.203-4.672c.266 0 .61-.047.89-.047.22 0 .673.032.704.032l-.125-.75c-.844 0-1.531.218-1.89.375-.25-.204-.657-.375-1.141-.375-1.032 0-1.907.859-1.907 1.953 0 .437.157.859.407 1.171-.36.5-.36.97-.36 1.016 0 .313.11.656.313.922C.484-.015.328.531.328.844c0 .906 1.188 1.625 2.64 1.625 1.485 0 2.657-.719 2.657-1.625 0-1.672-1.984-1.672-2.453-1.672H2.109c-.156 0-.687 0-.687-.625a.84.84 0 01.125-.438c.266.188.656.344 1.094.344 1.078 0 1.906-.875 1.906-1.937 0-.579-.25-1.016-.39-1.204zM2.641-2.219c-.438 0-1.063-.281-1.063-1.265 0-1 .625-1.266 1.063-1.266.515 0 1.078.328 1.078 1.266 0 .921-.563 1.265-1.078 1.265zm.53 2.25c.267 0 1.626 0 1.626.828 0 .532-.828.922-1.813.922-.968 0-1.812-.375-1.812-.937 0-.031 0-.813.937-.813zm0 0"/></symbol><symbol overflow="visible" id="aR"><path d="M7.922-8.297H6.875l-1.86 2.703c-.062.078-.109.172-.202.313l-.72 1.14c-.234-.375-.234-.406-.437-.687l-2.36-3.469H.032L3.47-3.328V0H4.5v-3.313zm0 0"/></symbol><symbol overflow="visible" id="aS"><path d="M7.172-3.578H4.656v.75h1.578v1.937a4.905 4.905 0 01-1.578.25C3.078-.64 1.86-2.219 1.86-4.156c0-1.875 1.204-3.5 2.782-3.5.968 0 1.64.281 2.25.781l.171-.984c-.671-.407-1.593-.579-2.39-.579-2.313 0-3.89 2.094-3.89 4.282 0 2.172 1.593 4.281 3.89 4.281.89 0 1.703-.234 2.5-.578zm0 0"/></symbol><symbol overflow="visible" id="aT"><path d="M2.11-4.61h1.312v-.702h-1.36v-1.422c0-.875.813-.97 1.11-.97.25 0 .562.032.969.204v-.797c-.141-.031-.5-.125-.954-.125-1.124 0-1.984.844-1.984 2.031v1.079H.328v.703h.875V0h.906zm0 0"/></symbol><symbol overflow="visible" id="bl"><path d="M5.203-3.563c0-.78-.187-1.874-1.64-1.874-.735 0-1.313.375-1.704.859v-3.719H.97V0h.937v-2.922c0-.797.297-1.781 1.203-1.781 1.141 0 1.157.844 1.157 1.219V0h.937zm0 0"/></symbol><symbol overflow="visible" id="bt"><path d="M5.797-3.766V-4.5h-3.61v-3H3.75c.14 0 .297.016.438.016H6.28v-.782H1.125V0h1.063v-3.766zm0 0"/></symbol><symbol overflow="visible" id="D"><path d="M1.156-.531H.61V0h.547zm0 0"/></symbol><symbol overflow="visible" id="F"><path d="M-.172-5.36c.047-.093.25-.437-.094-.64-.343-.203-.53.14-.593.234l-1.735 2.922c-.062.094-.265.438.078.625.344.219.547-.11.61-.219zm0 0"/></symbol><symbol overflow="visible" id="G"><path d="M-.047-5.375c.063-.094.266-.438-.062-.64-.344-.22-.547.124-.61.218L-2.53-2.922c-.047.094-.266.438.062.656.344.204.547-.125.61-.234zm0 0"/></symbol><symbol overflow="visible" id="H"><path d="M.031-5.516c-.703-.468-1.765-.375-2.594.86-.28.422-.89 1.328-.234 1.765.266.172.578.094.719-.109.094-.156.219-.484-.219-.766.156-.28.25-.437.313-.515.468-.703 1.046-.922 1.593-.547-1 1.5-1.343 2.969-.468 3.547.687.453 1.625.218 2.203-.64.062-.11.531-.798.531-1.516.422 0 .75-.485.953-.782.156-.25.313-.468.016-.672-.281-.187-.453.063-.547.204-.078.125-.203.312-.39.437zM.844-4c.219.14.39.266.344.75-.063.422-.344.828-.36.86-.344.53-.89.687-1.25.453-.437-.297-.156-1.391.578-2.516zm0 0"/></symbol><symbol overflow="visible" id="I"><path d="M-3.11-6.172c-.28-.219-.421-.203-.624.094L-4.75-4.656c-.094.125-.25.36.031.562.282.203.422-.015.532-.156l.812-1.14L.828-2.376l-.812 1.14c-.094.126-.25.36.03.563.298.203.438-.015.548-.156l2.094-2.938c.093-.125.265-.359-.016-.562-.297-.203-.453.016-.563.156l-.812 1.156zm0 0"/></symbol><symbol overflow="visible" id="J"><path d="M.844-2.203c-.047.062-.125.172-.219.234-.094.14-.125.157-.313.172a.55.55 0 01-.359-.14.52.52 0 01-.187-.188c.312-.14.578-.344.78-.625.61-.781.485-1.906-.265-2.469a1.516 1.516 0 00-.906-.343c.047-.282.14-.407.219-.547.265.125.453 0 .547-.125a.44.44 0 00-.078-.641c-.22-.172-.641-.188-1 .266-.141.203-.375.625-.36 1.125-.344.109-.656.328-.89.625-.61.812-.485 1.906.265 2.5.313.234.688.328 1 .359.094.156.235.422.438.594.359.265.75.281.78.265C.204-.266.75.172.876.281c.75.578 1.953.063 2.781-1.015.828-1.079 1.031-2.375.281-2.954-1.218-.937-2.421.626-2.624.876zm-.828-.969c-.344.453-.97.531-1.438.188-.469-.375-.562-1-.219-1.454a1.014 1.014 0 011.438-.14c.469.344.562.984.219 1.406zm1.5 1.156c.593-.765 1.312-1.687 2.015-1.14.344.265.266 1.14-.406 2-.64.828-1.484 1.187-1.844.906C.97-.5.828-1.031 1.125-1.5zm0 0"/></symbol><symbol overflow="visible" id="K"><path d="M1.438-5.36c-1.016-.859-2.485-.75-3.25.173-.782.937-.625 2.39.39 3.25 1.047.859 2.484.734 3.266-.204.765-.921.64-2.359-.407-3.218zm-.125 2.782c-.516.61-1.532.594-2.266-.031-.735-.61-.813-1.563-.328-2.141.484-.578 1.422-.672 2.156-.063.734.625.938 1.625.438 2.235zm0 0"/></symbol><symbol overflow="visible" id="L"><path d="M.422-6c.094-.094.344-.375.047-.64-.297-.282-.578.03-.672.14l-2.485 2.75c-.109.11-.39.422-.093.703.297.266.562-.015.64-.11zm1.187 1.14c.094-.109.375-.421.079-.687-.297-.266-.547.016-.641.11l-2.563 2.843c-.078.094-.343.375-.046.64.296.266.578-.046.687-.155zm0 0"/></symbol><symbol overflow="visible" id="M"><path d="M.203-6.297c-.11-.11-.312-.312-.547-.078-.172.188-.125.328-.094.406-.437.125-.812.516-.937.625-1.328 1.344-.75 2.14-.516 2.36.391.406.875.28 1.032.265.437-.094.671-.281 1.578-.953.234-.156.922-.672 1.297-.297.25.235.296.735-.438 1.469-.453.453-.922.61-1.516.313-.218-.094-.343-.157-.546.062-.282.266-.094.438.046.594l.704.687c.109.11.312.313.562.078.11-.109.172-.265 0-.546.656-.125 1.094-.563 1.235-.704 1.265-1.28.734-2.156.437-2.453a1.143 1.143 0 00-1.125-.297C.891-4.64.656-4.5-.172-3.89c-.36.282-.969.704-1.234.422-.203-.187-.172-.656.515-1.36.688-.702.985-.452 1.141-.296.234.188.438-.016.5-.078.281-.281.11-.453-.047-.594zm0 0"/></symbol><symbol overflow="visible" id="N"><path d="M-.734-7.64c-.235-.266-.344-.282-.625-.016l-.594.547c-.125.109-.344.296-.11.546.235.266.454.079.579-.03l.343-.313 1.11 1.203c-.313 0-.797.11-1.235.5-.875.797-.937 2.25-.03 3.25.89.984 2.312 1.094 3.171.297.36-.328.578-.766.61-1.297.218.234.343.375.671.062l.61-.562c.109-.094.343-.297.109-.547-.234-.266-.453-.078-.578.031l-.36.328zm2.14 3.515c.39.422.625 1.39.032 1.938-.547.5-1.5.39-2.141-.297-.64-.704-.625-1.72-.047-2.25.484-.454 1.25-.375 1.64.046zm0 0"/></symbol><symbol overflow="visible" id="O"><path d="M2.453-4.766c.094-.046.453-.25.266-.593-.203-.344-.547-.157-.656-.094L-.876-3.75c-.094.047-.438.25-.25.578.203.36.531.172.64.11zm0 0"/></symbol><symbol overflow="visible" id="P"><path d="M2.469-4.75c.094-.063.453-.266.25-.61-.203-.343-.547-.14-.656-.077L-.876-3.75c-.094.063-.438.266-.234.594.203.36.53.156.64.094zm0 0"/></symbol><symbol overflow="visible" id="Q"><path d="M2.469-4.922c-.406-.734-1.39-1.125-2.688-.375-.437.25-1.39.781-.984 1.469a.51.51 0 00.687.203c.141-.078.407-.328.141-.766.25-.171.406-.265.5-.312.734-.422 1.36-.36 1.672.203C.234-3.594-.734-2.437-.22-1.531c.422.718 1.375.922 2.281.406.11-.063.829-.469 1.141-1.11.39.188.89-.109 1.203-.28.266-.141.5-.282.328-.594-.171-.297-.437-.141-.578-.063-.14.078-.328.188-.562.219zm.078 1.734c.125.22.234.407-.031.813-.25.344-.672.578-.704.61-.546.312-1.125.202-1.343-.173-.25-.453.5-1.296 1.672-1.968zm0 0"/></symbol><symbol overflow="visible" id="R"><path d="M-.172-6.906c-.172-.328-.297-.36-.61-.188l-1.53.844c-.141.078-.391.219-.22.516.173.312.407.187.563.093l1.219-.671 2.516 4.53-1.22.673c-.14.078-.39.218-.218.515C.5-.28.734-.406.891-.5l3.156-1.75c.125-.078.39-.219.219-.516-.172-.312-.422-.171-.563-.093l-1.234.687zm0 0"/></symbol><symbol overflow="visible" id="S"><path d="M1.688-1.672a.999.999 0 01-.297.125c-.157.078-.172.094-.36.031-.125-.03-.218-.14-.281-.265-.016-.032-.078-.14-.094-.266.344 0 .672-.078.985-.234.875-.469 1.203-1.531.765-2.36-.172-.312-.39-.546-.703-.687.156-.234.297-.313.438-.406.187.218.406.171.546.109a.461.461 0 00.188-.625c-.14-.234-.5-.438-1.016-.156-.218.11-.593.406-.796.875A1.921 1.921 0 000-5.313c-.89.485-1.219 1.547-.766 2.375.172.344.47.579.75.735 0 .203.047.484.172.719.203.406.563.578.578.562C.297-.156.61.484.688.61c.453.844 1.75.86 2.953.204C4.828.188 5.547-.923 5.094-1.767c-.719-1.343-2.453-.406-2.735-.265zm-.375-1.203c-.5.266-1.11.078-1.375-.438-.282-.515-.11-1.14.39-1.406.484-.265 1.094-.062 1.375.453.266.516.094 1.125-.39 1.391zm.906 1.672c.844-.453 1.89-1.016 2.297-.234.203.375-.25 1.156-1.204 1.656C2.391.734 1.5.703 1.283.28c-.188-.344-.11-.89.374-1.187zm0 0"/></symbol><symbol overflow="visible" id="T"><path d="M3.438-4.36C2.844-5.546 1.452-6.03.374-5.483c-1.078.546-1.5 1.953-.906 3.14.61 1.203 1.984 1.656 3.062 1.11 1.078-.547 1.516-1.922.906-3.125zm-1.22 2.5c-.702.36-1.64-.046-2.077-.906-.422-.859-.11-1.765.546-2.109.672-.344 1.579-.047 2 .813.438.859.235 1.843-.468 2.203zm0 0"/></symbol><symbol overflow="visible" id="U"><path d="M2.703-5.375c.11-.047.469-.219.297-.594-.188-.36-.578-.172-.719-.11L-1.063-4.5c-.14.078-.515.25-.328.61.172.374.516.218.625.156zm.64 1.516c.141-.063.532-.25.345-.625-.172-.36-.532-.188-.641-.141l-3.469 1.64c-.11.063-.453.22-.281.579.187.375.562.203.703.125zm0 0"/></symbol><symbol overflow="visible" id="V"><path d="M1.828-7.453c-.14-.328-.25-.39-.594-.25L.5-7.375c-.156.063-.422.188-.297.5.14.344.406.219.563.156l.421-.187.657 1.5a1.885 1.885 0 00-1.328.062C-.563-4.875-1.11-3.5-.578-2.266c.515 1.22 1.812 1.782 2.89 1.329a1.836 1.836 0 001-1.047c.126.296.204.468.626.296l.75-.328c.14-.062.421-.187.28-.5-.14-.328-.405-.203-.562-.14l-.437.187zm.86 4.016c.234.53.14 1.515-.594 1.843-.688.297-1.578-.125-1.938-.984-.39-.875-.031-1.828.688-2.14.61-.25 1.312.046 1.547.577zm0 0"/></symbol><symbol overflow="visible" id="W"><path d="M2.797-5.64c-.047-.141-.156-.407-.485-.298-.234.094-.25.235-.25.313-.453-.047-.953.156-1.109.219C-.812-4.734-.594-3.781-.484-3.5c.187.531.687.64.812.672.453.078.75 0 1.844-.219.281-.047 1.11-.234 1.297.266.125.312-.031.797-1 1.156-.61.234-1.094.172-1.516-.344-.14-.187-.234-.265-.515-.172-.36.141-.266.375-.188.579l.344.921c.062.141.156.407.469.282.156-.047.28-.172.25-.5.625.171 1.218-.047 1.406-.125C4.39-1.625 4.28-2.641 4.125-3.031c-.188-.5-.61-.688-.906-.735-.485-.093-.766-.062-1.766.157C1-3.516.297-3.36.156-3.734c-.11-.25.094-.672 1.016-1.032.922-.343 1.094-.015 1.187.204.125.265.407.171.47.14.39-.14.296-.375.218-.562zm0 0"/></symbol><symbol overflow="visible" id="X"><path d="M4.516-2.89c.109 0 .515 0 .515-.391 0-.406-.39-.406-.515-.406H1.125c-.11 0-.516 0-.516.39 0 .406.391.406.516.406zm0 0"/></symbol><symbol overflow="visible" id="Y"><path d="M4.594-3.047c0-.844-.657-1.672-2.157-1.672-.5 0-1.593 0-1.593.797 0 .313.25.516.5.516.172 0 .515-.078.515-.594.297-.031.485-.031.579-.031.859 0 1.359.36 1.359 1.015C1.984-3 .578-2.484.578-1.437.578-.61 1.313.046 2.36.046c.125 0 .954 0 1.532-.406C4.14 0 4.719 0 5.078 0c.297 0 .563 0 .563-.36 0-.343-.297-.343-.47-.343-.155 0-.374 0-.577-.078zm-.797 1.531c0 .25 0 .47-.438.688-.39.187-.875.187-.921.187-.626 0-1.063-.359-1.063-.796 0-.516 1.078-.891 2.422-.907zm0 0"/></symbol><symbol overflow="visible" id="Z"><path d="M3.219-6.125c0-.36-.094-.453-.453-.453h-1.75c-.157 0-.438 0-.438.344 0 .359.266.359.438.359h1.406v5.172H1.016c-.157 0-.438 0-.438.344C.578 0 .844 0 1.016 0h3.609c.156 0 .453 0 .453-.344 0-.36-.281-.36-.453-.36H3.219zm0 0"/></symbol><symbol overflow="visible" id="aa"><path d="M2.266-.672c-.079 0-.22 0-.313-.031-.172 0-.203 0-.328-.14-.094-.095-.125-.235-.125-.376 0-.047 0-.172.047-.265.297.156.625.25.969.25 1 0 1.796-.782 1.796-1.72 0-.358-.093-.655-.28-.937.25-.125.405-.14.562-.156.062.281.281.36.437.36.25 0 .453-.188.453-.454 0-.28-.234-.625-.812-.625-.25 0-.719.079-1.125.391a1.824 1.824 0 00-1.031-.313C1.5-4.688.703-3.905.703-2.952c0 .39.14.734.328 1-.093.172-.203.453-.203.719 0 .453.235.765.25.78A1.545 1.545 0 00.312.86c0 .954 1.141 1.594 2.516 1.594 1.344 0 2.5-.64 2.5-1.594 0-1.53-1.984-1.53-2.297-1.53zm.25-1.25A1.017 1.017 0 011.5-2.953C1.5-3.547 1.953-4 2.516-4c.546 0 1 .453 1 1.047 0 .578-.454 1.031-1 1.031zm0 1.906c.968 0 2.14 0 2.14.891 0 .422-.75.89-1.828.89C1.766 1.766.984 1.329.984.86c0-.39.344-.843.891-.875zm0 0"/></symbol><symbol overflow="visible" id="ab"><path d="M5.047-2.328c0-1.328-1.016-2.39-2.219-2.39-1.219 0-2.234 1.062-2.234 2.39C.594-.984 1.609.047 2.828.047c1.203 0 2.219-1.031 2.219-2.375zM2.828-.641c-.797 0-1.437-.796-1.437-1.765 0-.953.687-1.625 1.437-1.625S4.25-3.36 4.25-2.406c0 .969-.64 1.765-1.422 1.765zm0 0"/></symbol><symbol overflow="visible" id="ac"><path d="M4.734-3.703c.125 0 .516 0 .516-.406 0-.407-.422-.407-.578-.407H.969c-.156 0-.578 0-.578.407 0 .406.39.406.515.406zm-.062 1.64c.156 0 .578 0 .578-.406s-.39-.406-.516-.406H.906c-.125 0-.515 0-.515.406s.421.406.578.406zm0 0"/></symbol><symbol overflow="visible" id="ad"><path d="M2.406-1.984C2.406-3.063 3.125-4 4.296-4c.032.406.329.484.47.484.25 0 .484-.187.484-.484 0-.203-.14-.688-1.031-.688-.61 0-1.297.25-1.813.829v-.329c0-.359-.078-.453-.453-.453H.75c-.156 0-.453 0-.453.344 0 .36.281.36.453.36h.86v3.234H.75c-.156 0-.453 0-.453.344C.297 0 .578 0 .75 0h2.86c.14 0 .453 0 .453-.344 0-.36-.297-.36-.454-.36H2.406zm0 0"/></symbol><symbol overflow="visible" id="ae"><path d="M3.516-.672a.707.707 0 00-.688-.703.704.704 0 00-.687.688c0 .39.328.687.687.687a.69.69 0 00.688-.672zm0 0"/></symbol><symbol overflow="visible" id="af"><path d="M4.625-6.125c0-.36-.078-.453-.453-.453h-.813c-.156 0-.453 0-.453.344 0 .359.297.359.453.359h.47v1.64c-.235-.218-.657-.452-1.235-.452-1.188 0-2.235 1.03-2.235 2.375C.36-.984 1.33.046 2.5.046c.484 0 .938-.172 1.328-.563 0 .329 0 .516.453.516h.828c.141 0 .454 0 .454-.344 0-.36-.297-.36-.454-.36h-.484zm-.797 4.031c0 .578-.484 1.453-1.281 1.453-.75 0-1.39-.734-1.39-1.671C1.156-3.266 1.858-4 2.64-4c.656 0 1.187.563 1.187 1.14zm0 0"/></symbol><symbol overflow="visible" id="ag"><path d="M5.36-.234c.093.047.452.25.64-.094.203-.344-.14-.531-.25-.594L2.812-2.625c-.093-.047-.437-.25-.624.078-.204.36.124.547.234.61zm0 0"/></symbol><symbol overflow="visible" id="ah"><path d="M5.344-.25c.093.063.453.266.656-.078.203-.344-.14-.547-.25-.61L2.812-2.625c-.093-.063-.437-.266-.64.063-.203.359.125.562.234.624zm0 0"/></symbol><symbol overflow="visible" id="ai"><path d="M5.5-.36c.406-.734.266-1.78-1.031-2.53-.438-.25-1.39-.782-1.797-.094a.517.517 0 00.187.703c.141.078.47.172.735-.266.281.11.437.203.531.25.734.422.984.985.672 1.547-1.594-.875-3.063-1.125-3.578-.219C.797-.25 1.125.703 2.03 1.22c.11.062.828.468 1.516.39.047.438.547.735.86.907.265.14.5.28.671-.032.172-.296-.094-.453-.234-.53a1.793 1.793 0 01-.469-.345zM4.047.563c-.125.22-.234.407-.719.375-.437-.03-.86-.265-.89-.296-.547-.313-.75-.829-.532-1.204.25-.453 1.375-.234 2.547.407zm0 0"/></symbol><symbol overflow="visible" id="aj"><path d="M5.797-3.781c.172-.328.14-.453-.172-.625L4.094-5.25c-.14-.078-.39-.219-.563.078-.172.313.063.438.219.531l1.219.672L2.453.562 1.234-.109c-.14-.079-.39-.22-.562.078C.5.28.734.406.89.5l3.156 1.75c.125.078.39.219.562-.078.172-.313-.078-.453-.218-.531L3.156.953zm0 0"/></symbol><symbol overflow="visible" id="ak"><path d="M2.313.484C2.233.438 2.108.375 2.046.297 1.89.219 1.875.203 1.844.016c-.063-.125 0-.266.062-.391a.7.7 0 01.157-.203c.187.281.421.515.734.672.875.469 1.953.156 2.39-.672.172-.313.235-.61.204-.938.28.016.421.063.562.125-.062.282.094.454.234.516.22.125.47.047.594-.188.14-.234.094-.656-.422-.937a2.149 2.149 0 00-1.171-.188 1.738 1.738 0 00-.75-.75c-.891-.484-1.97-.171-2.422.657a1.971 1.971 0 00-.188 1.047c-.156.109-.39.296-.516.53-.203.407-.156.798-.14.813C.297.156-.047.766-.125.891c-.453.843.25 1.953 1.453 2.609 1.188.625 2.5.61 2.953-.234C5 1.922 3.266.984 2.984.844zM3.125-.5c-.5-.266-.672-.89-.406-1.406.281-.516.89-.703 1.39-.438.485.266.657.875.375 1.39-.265.516-.875.72-1.359.454zm-.906 1.672c.86.453 1.89 1.016 1.484 1.797-.203.375-1.094.437-2.047-.063C.734 2.391.25 1.641.47 1.22.656.875 1.172.64 1.656.875zm0 0"/></symbol><symbol overflow="visible" id="al"><path d="M5.563.203c.593-1.187.171-2.578-.907-3.125C3.578-3.469 2.188-3 1.594-1.812.984-.61 1.422.78 2.5 1.328c1.078.547 2.453.078 3.063-1.125zm-2.75.5c-.704-.36-.922-1.36-.485-2.219.422-.859 1.36-1.14 2.016-.796.672.343.953 1.234.531 2.093-.438.86-1.36 1.282-2.063.922zm0 0"/></symbol><symbol overflow="visible" id="am"><path d="M5.86-1.313c.109.047.468.22.64-.156.188-.36-.203-.547-.344-.61L2.813-3.655c-.141-.078-.516-.25-.704.11-.171.374.172.53.282.593zM5.093.141c.14.062.531.25.718-.125.172-.36-.187-.532-.296-.579l-3.47-1.64c-.108-.063-.452-.219-.624.14-.188.376.187.547.328.626zm0 0"/></symbol><symbol overflow="visible" id="an"><path d="M5.375-4.36c.14-.327.094-.452-.234-.593l-1.61-.688c-.14-.062-.406-.171-.531.141-.14.344.11.438.266.516l1.28.546L2.5.313 1.219-.234c-.14-.063-.407-.172-.547.14-.14.328.11.422.265.5L4.25 1.828c.14.063.422.172.563-.14.14-.329-.125-.438-.282-.5L3.234.625zm0 0"/></symbol><symbol overflow="visible" id="ao"><path d="M5.375-1.203C5.688-2 5.359-3 3.969-3.531c-.469-.188-1.5-.578-1.797.156a.527.527 0 00.297.672c.172.062.5.11.687-.375.297.078.469.14.563.187.797.297 1.14.813.906 1.438-1.703-.64-3.188-.672-3.563.312C.766-.359 1.204.516 2.188.891c.126.046.891.343 1.579.171.109.407.64.625.984.75.266.11.516.204.64-.125.126-.328-.14-.437-.312-.5-.14-.062-.344-.14-.5-.28zM4.094-.063C4 .172 3.922.376 3.437.422c-.421.047-.874-.125-.921-.14-.594-.235-.875-.735-.72-1.141.188-.485 1.329-.438 2.579.03zm0 0"/></symbol><symbol overflow="visible" id="ap"><path d="M2.906-1.14c.328-1.016 1.313-1.688 2.422-1.313-.094.375.156.547.297.594a.47.47 0 00.61-.297c.062-.203.093-.703-.75-.985a2.489 2.489 0 00-2 .22l.109-.313c.11-.329.078-.454-.281-.563l-1.141-.375c-.156-.047-.438-.14-.547.188-.11.343.156.437.328.484l.813.266L1.75-.172.937-.438C.781-.483.5-.578.391-.25.28.094.547.188.719.234l2.703.891c.14.047.437.14.547-.188C4.079.595 3.797.5 3.64.454L2.5.078zm0 0"/></symbol><symbol overflow="visible" id="aq"><path d="M4.797 2.422c.047.094.25.437.594.234.343-.203.156-.547.093-.64L3.75-.906c-.063-.094-.266-.438-.61-.25-.343.218-.14.547-.078.656zm0 0"/></symbol><symbol overflow="visible" id="ar"><path d="M4.86 2.281c.062.094.265.438.593.235.344-.22.14-.563.078-.657L3.72-1.016c-.047-.093-.266-.437-.594-.218-.344.203-.14.53-.078.64zm0 0"/></symbol><symbol overflow="visible" id="as"><path d="M5.094 2.11c.703-.47 1.015-1.47.187-2.704-.281-.422-.89-1.328-1.547-.89a.503.503 0 00-.156.703c.094.156.344.39.781.11.188.218.282.374.344.452.469.703.453 1.328-.094 1.703-1-1.5-2.218-2.375-3.093-1.796C.828.14.703 1.125 1.28 1.983c.063.11.532.797 1.188 1.047-.172.406.156.89.36 1.188.155.25.312.468.608.265.282-.187.11-.437.016-.578-.078-.125-.203-.312-.234-.531zm-1.719.203c-.219.14-.39.265-.813.03a2.48 2.48 0 01-.671-.671C1.547 1.14 1.594.578 1.953.344c.438-.297 1.344.39 2.11 1.515zm0 0"/></symbol><symbol overflow="visible" id="at"><path d="M6.86-.953c.28-.219.296-.328.093-.625L5.937-3c-.093-.125-.25-.36-.53-.156-.282.203-.141.422-.032.562l.813 1.14-4.204 3.016-.812-1.14C1.078.297.922.062.64.266.344.469.484.687.594.828l2.094 2.938c.093.125.265.359.546.156.297-.203.141-.422.032-.563l-.813-1.156zm0 0"/></symbol><symbol overflow="visible" id="au"><path d="M1.906 1.39a1.083 1.083 0 01-.156-.265c-.094-.14-.125-.156-.094-.36.032-.124.125-.234.235-.328.03-.015.14-.093.218-.124.063.328.204.656.407.937.609.781 1.703.938 2.453.375.281-.219.468-.484.562-.813.266.125.36.25.469.36a.445.445 0 00-.016.562c.157.204.422.25.641.079.219-.172.36-.563 0-1.016-.14-.203-.5-.531-.984-.656a1.852 1.852 0 00-.391-1c-.61-.813-1.734-.97-2.484-.375a1.66 1.66 0 00-.594.859c-.188.031-.485.11-.688.281-.359.266-.468.656-.468.672C.203.266-.375.672-.5.781c-.75.578-.547 1.875.281 2.953C.61 4.813 1.812 5.328 2.562 4.75c1.22-.938.016-2.5-.187-2.75zm1.14-.562a1.013 1.013 0 01.22-1.437.991.991 0 011.437.171c.344.422.25 1.047-.219 1.422-.468.344-1.093.266-1.437-.156zm-1.5 1.156c.595.766 1.313 1.688.61 2.235-.344.265-1.172-.047-1.844-.907-.64-.828-.765-1.718-.406-2 .313-.25.89-.25 1.25.157zm0 0"/></symbol><symbol overflow="visible" id="av"><path d="M5.031 2.39c1.016-.859 1.172-2.312.407-3.234-.782-.937-2.25-1.047-3.266-.187-1.047.86-1.172 2.297-.39 3.234.765.922 2.202 1.047 3.25.188zm-2.718-.624C1.796 1.156 2 .14 2.733-.484c.735-.61 1.688-.5 2.172.078.485.578.39 1.515-.343 2.125-.735.625-1.75.656-2.25.047zm0 0"/></symbol><symbol overflow="visible" id="aw"><path d="M5.922 1.031c.094.094.344.375.64.11.297-.282.016-.594-.078-.704L4-2.313c-.11-.109-.39-.421-.688-.14-.296.265-.03.547.047.64zm-1.25 1.047c.094.11.375.422.672.156.297-.265.047-.546-.047-.64L2.734-1.25c-.078-.094-.343-.375-.64-.11-.297.266-.016.579.094.688zm0 0"/></symbol><symbol overflow="visible" id="ax"><path d="M-.094 3.313c.11.109.313.312.563.062.25-.25.047-.453-.063-.563L.078 2.47 1.61.953c-.015.469.157.906.5 1.235.844.859 2.297.874 3.266-.079.906-.906 1.016-2.312.156-3.171a1.984 1.984 0 00-1.265-.61c.28-.281.203-.406-.016-.625l-.578-.594c-.094-.093-.313-.312-.563-.078-.25.266-.046.469.063.578l.344.344-4 3.953-.344-.343c-.094-.094-.313-.313-.547-.079-.266.266-.063.47.047.579zm3.39-4.016c.454-.453 1.267-.375 1.72.094.53.53.453 1.5-.204 2.156-.671.672-1.703.687-2.25.125-.53-.531-.203-1.453.188-1.86zm0 0"/></symbol><symbol overflow="visible" id="ay"><path d="M6.297-.031c.11-.11.297-.328.047-.563-.188-.172-.313-.11-.39-.078-.157-.422-.548-.781-.688-.906C3.875-2.844 3.109-2.234 2.906-2c-.39.406-.25.89-.219 1.031.11.438.297.656 1.016 1.531.172.235.703.907.344 1.297-.234.25-.719.329-1.484-.375-.485-.437-.626-.906-.376-1.515.094-.203.141-.344-.078-.531-.28-.266-.453-.079-.609.078L.844.25C.734.36.547.563.797.797c.11.094.281.156.547 0 .14.625.61 1.047.75 1.187 1.328 1.22 2.187.657 2.469.344.359-.39.343-.86.25-1.14C4.671.703 4.53.468 3.89-.329c-.313-.344-.75-.938-.485-1.219.188-.219.656-.203 1.375.469.719.656.5.953.36 1.14-.204.235.015.438.078.485.297.281.468.094.61-.063zm0 0"/></symbol><symbol overflow="visible" id="aB"><path d="M3.984 3.594c.016.094.125.484.5.375.407-.11.313-.485.282-.594L3.859.094C3.83 0 3.72-.391 3.33-.281c-.392.11-.282.484-.25.594zm0 0"/></symbol><symbol overflow="visible" id="aC"><path d="M4.047 3.516c.031.109.14.5.516.39.39-.125.28-.5.25-.625l-.97-3.25c-.03-.11-.14-.5-.515-.39-.39.125-.281.5-.25.625zm0 0"/></symbol><symbol overflow="visible" id="aD"><path d="M7.25 2.531c.344-.125.406-.219.297-.578l-.25-.766c-.047-.156-.14-.437-.469-.343-.344.11-.25.39-.203.547l.14.437-1.562.516c.14-.297.219-.766.047-1.313C4.89-.094 3.594-.78 2.312-.359 1.048.047.36 1.28.72 2.39c.156.468.469.843.937 1.093-.312.094-.484.157-.343.594l.25.781c.046.141.14.438.468.329.344-.11.266-.391.203-.547l-.14-.454zM3.172 3c-.563.172-1.531-.016-1.781-.781C1.156 1.5 1.67.672 2.562.39c.907-.297 1.829.14 2.063.89.203.625-.188 1.297-.734 1.485zm0 0"/></symbol><symbol overflow="visible" id="aE"><path d="M3.453 3.594c.078.203.156.422.547.281 1.172-.422 1.89-1.422 1.422-2.734C4.984-.094 3.609-.688 2.406-.25 1.156.203.531 1.61 1 2.89c.484 1.376 1.563 1.5 1.813 1.422.218-.093.234-.28.156-.5-.047-.14-.094-.265-.36-.28-.656-.032-.89-.673-.937-.798-.203-.593-.172-1.562.719-2.093zM3.047.406c.89-.11 1.531.375 1.734.953.25.704-.062 1.297-.797 1.641zm0 0"/></symbol><symbol overflow="visible" id="aF"><path d="M2.984 4.188c.22-.079.25-.266.172-.485-.062-.14-.125-.281-.375-.265-.187-.016-.672-.016-.969-.704A1.68 1.68 0 012.75.547c.5-.203 1.703-.328 2.219.937.078.172.125.329.14.36.063.203.047.218-.03.265a.493.493 0 00-.266.641c.125.281.406.39.671.281.735-.312.313-1.312.125-1.797C4.906-.484 3.313-.53 2.453-.187a2.382 2.382 0 00-1.312 3.109c.593 1.422 1.703 1.328 1.843 1.265zm0 0"/></symbol><symbol overflow="visible" id="aG"><path d="M4.266 3.547C5.469 2.969 5.984 1.609 5.469.516 4.937-.578 3.547-1.047 2.344-.47S.64 1.47 1.172 2.562c.516 1.094 1.89 1.563 3.094.985zm-2.47-1.281c-.343-.72.095-1.641.97-2.047C3.625-.203 4.53.14 4.859.813c.329.687 0 1.562-.859 1.984-.875.406-1.86.172-2.203-.531zm0 0"/></symbol><symbol overflow="visible" id="aH"><path d="M5.266 2.688c.203-.11 1.25-.704.78-1.532-.046-.093-.312-.547-1-.672.032-.046.36-.468.079-.968a1.44 1.44 0 00-.766-.625c.25-.188.141-.375.047-.532l-.187-.312c-.078-.156-.219-.39-.516-.219-.312.172-.203.375-.015.688L.874.125C.687-.188.578-.391.265-.219-.03-.047.11.187.188.344l.485.844c.078.125.219.39.515.218.313-.172.204-.375.016-.718l1.64-.938c.798-.453 1.454-.313 1.657.063.11.187.047.39-.547.734l-2.14 1.219c-.047-.079-.204-.36-.5-.188C1 1.75 1.14 2 1.218 2.141l.375.671c.078.141.234.391.531.22.313-.173.188-.391 0-.72l1.64-.937c.797-.453 1.454-.297 1.672.063.11.187.032.39-.562.734L2.735 3.39c-.047-.079-.204-.36-.5-.188-.313.172-.172.422-.094.578l.39.656c.078.141.219.391.516.22.312-.173.187-.376 0-.704zm0 0"/></symbol><symbol overflow="visible" id="aI"><path d="M-.672 3.234c.094.125.266.375.547.188.297-.203.125-.453.031-.578l-.265-.39 1.78-1.235c-.093.453.016.922.282 1.297.688.984 2.11 1.28 3.219.5C5.984 2.28 6.328.89 5.64-.094a2.193 2.193 0 00-1.157-.828c.313-.219.282-.36.11-.625l-.485-.672c-.078-.11-.25-.36-.53-.156-.298.203-.126.438-.048.563l.281.39-4.624 3.219-.282-.39c-.078-.11-.25-.36-.531-.173-.297.204-.125.438-.047.563zM3.36-.125c.516-.375 1.313-.156 1.688.39.422.61.203 1.563-.578 2.094-.782.547-1.782.391-2.219-.25-.438-.64.031-1.484.484-1.812zm0 0"/></symbol><symbol overflow="visible" id="aJ"><path d="M5.078 2.266c1-.891 1.125-2.344.344-3.25-.813-.922-2.281-.985-3.281-.094-1.016.875-1.11 2.312-.297 3.234.781.906 2.218.985 3.234.11zM2.36 1.703C1.83 1.11 2 .093 2.734-.547c.704-.625 1.672-.547 2.172.016.485.562.422 1.5-.281 2.125-.734.64-1.75.687-2.266.11zm0 0"/></symbol><symbol overflow="visible" id="aK"><path d="M6.313-.234c.093-.11.28-.329.015-.547-.187-.172-.312-.11-.406-.078-.172-.422-.563-.766-.703-.875-1.422-1.235-2.188-.594-2.39-.36-.36.422-.22.89-.173 1.031.14.422.328.657 1.063 1.516.187.203.734.875.39 1.281-.234.266-.718.344-1.5-.328-.5-.437-.671-.875-.421-1.515.093-.204.124-.344-.094-.532-.297-.25-.469-.046-.61.11l-.64.75C.75.344.563.547.828.766c.11.093.281.156.547-.032.156.641.625 1.047.781 1.188 1.375 1.156 2.203.578 2.485.266.343-.407.312-.876.203-1.157-.157-.468-.297-.703-.985-1.484-.296-.344-.765-.906-.515-1.203.187-.219.656-.219 1.406.422.75.64.516.937.39 1.14-.187.219.032.422.094.469.313.266.485.078.61-.078zm0 0"/></symbol><symbol overflow="visible" id="aL"><path d="M4.938.625c.187.11.39.234.609-.11.656-1.078.578-2.312-.61-3.03-1.125-.688-2.562-.282-3.218.812C1.03-.578 1.406.922 2.594 1.64c1.234.75 2.172.171 2.297-.047.125-.203.015-.375-.188-.485-.11-.078-.234-.156-.453 0-.547.391-1.125.032-1.234-.03C2.484.765 1.906-.048 2.25-1zM2.608-1.594c.641-.656 1.454-.672 1.97-.343.64.375.765 1.062.39 1.78zm0 0"/></symbol><symbol overflow="visible" id="aU"><path d="M1.938-5c.093-.063.421-.297.187-.61-.234-.327-.547-.109-.656-.03l-2.735 2c-.093.078-.421.312-.203.624.25.329.578.094.672.016zm0 0"/></symbol><symbol overflow="visible" id="aV"><path d="M3.266-4.266c.093-.03.484-.171.343-.53-.125-.391-.5-.25-.609-.22L-.188-3.859c-.109.046-.484.187-.359.562.14.375.5.235.625.188zm0 0"/></symbol><symbol overflow="visible" id="aW"><path d="M3.828-3.953c-.187-.828-1-1.5-2.469-1.188-.484.11-1.546.344-1.375 1.125a.515.515 0 00.594.407c.172-.047.485-.204.375-.704.297-.093.469-.125.563-.156.843-.172 1.39.063 1.546.719C1.298-3.36.033-2.547.25-1.531.438-.72 1.297-.234 2.313-.453c.124-.031.937-.219 1.406-.734.328.296.89.171 1.234.093.297-.062.563-.125.484-.468-.078-.344-.375-.282-.546-.235-.157.031-.36.078-.579.047zm-.453 1.656c.063.25.11.469-.266.766a2.193 2.193 0 01-.875.375c-.609.14-1.109-.125-1.203-.547-.11-.5.86-1.11 2.172-1.39zm0 0"/></symbol><symbol overflow="visible" id="aX"><path d="M2.313-6.516c-.047-.28-.329-.5-.61-.453-.297.063-.516.344-.469.625.063.313.344.532.641.469a.544.544 0 00.438-.64zm-1.75 1.72c-.157.03-.47.077-.407.421s.36.297.531.266l1.204-.204.53 3.204-1.296.218c-.156.032-.453.079-.406.407.062.359.36.312.515.28l3.188-.53c.156-.032.469-.079.406-.422-.047-.344-.344-.297-.516-.266l-1.109.188-.578-3.438c-.063-.36-.172-.437-.531-.39zm0 0"/></symbol><symbol overflow="visible" id="aY"><path d="M2.125-1.016c-.078 0-.219.032-.313.016-.156.031-.187.031-.343-.094-.11-.078-.157-.218-.188-.36 0-.046-.015-.171.016-.265.297.11.64.157.984.094.985-.156 1.64-1.063 1.485-2a1.624 1.624 0 00-.407-.875c.204-.156.36-.203.516-.234.11.265.344.312.5.28a.441.441 0 00.36-.53c-.048-.266-.313-.563-.891-.47-.25.032-.688.188-1.047.563a1.759 1.759 0 00-1.063-.14c-1 .156-1.671 1.062-1.53 2 .077.39.265.703.5.937-.063.172-.141.469-.095.735.079.453.36.718.375.734A1.54 1.54 0 00.454.797c.155.937 1.374 1.39 2.733 1.172C4.5 1.75 5.563.922 5.408-.016c-.25-1.5-2.22-1.187-2.532-1.125zm.047-1.28c-.563.093-1.078-.298-1.172-.876a1.02 1.02 0 01.844-1.187c.531-.094 1.047.296 1.14.875.094.578-.28 1.093-.812 1.187zm.312 1.874c.954-.156 2.11-.344 2.25.531.063.422-.593 1.016-1.656 1.188-1.047.172-1.89-.14-1.969-.61-.062-.375.204-.89.735-1zm0 0"/></symbol><symbol overflow="visible" id="aZ"><path d="M4.047-2.89c.219-.047.453-.094.375-.5-.25-1.22-1.156-2.094-2.516-1.813C.625-4.937-.156-3.656.094-2.406.359-1.11 1.672-.296 3.016-.562 4.437-.86 4.719-1.907 4.672-2.141c-.047-.234-.234-.296-.469-.25-.14.032-.281.063-.328.313-.125.672-.797.797-.922.828-.61.125-1.578-.078-1.984-1.016zM.828-2.954c.031-.906.625-1.453 1.219-1.578.734-.157 1.281.265 1.5 1.031zm0 0"/></symbol><symbol overflow="visible" id="ba"><path d="M1.75-2.578C1.453-3.61 1.875-4.718 3-5.047c.14.375.453.375.594.328.234-.062.39-.312.312-.61-.062-.187-.312-.609-1.172-.359a2.36 2.36 0 00-1.5 1.313l-.093-.313C1.03-5.03.92-5.109.562-5l-1.156.328c-.156.047-.437.14-.328.469.094.344.375.266.531.203l.829-.234.906 3.109-.828.234C.359-.844.078-.75.187-.42c.094.343.376.265.532.202l2.75-.797c.125-.046.422-.125.328-.453-.11-.343-.39-.265-.531-.218l-1.157.343zm0 0"/></symbol><symbol overflow="visible" id="bb"><path d="M-2.89-4.516c0-.109 0-.515-.391-.515-.406 0-.406.39-.406.515v3.391c0 .11 0 .516.39.516.406 0 .406-.391.406-.516zm0 0"/></symbol><symbol overflow="visible" id="bc"><path d="M-1.984-2.406C-3.063-2.406-4-3.125-4-4.296c.406-.032.484-.329.484-.47A.477.477 0 00-4-5.25c-.203 0-.688.14-.688 1.031 0 .61.25 1.297.829 1.813h-.329c-.359 0-.453.078-.453.453V-.75c0 .156 0 .453.344.453.36 0 .36-.281.36-.453v-.86h3.234v.86c0 .156 0 .453.344.453C0-.297 0-.578 0-.75v-2.86c0-.14 0-.453-.344-.453-.36 0-.36.297-.36.454v1.203zm0 0"/></symbol><symbol overflow="visible" id="bd"><path d="M-2.031-4.547c0-.219 0-.453-.406-.453-1.25 0-2.282.703-2.282 2.094 0 1.312 1.094 2.328 2.375 2.328 1.328 0 2.39-1.11 2.39-2.485C.047-4.516-.921-5-1.171-5c-.234 0-.328.172-.328.406 0 .14 0 .282.234.39.625.25.625.938.625 1.063 0 .625-.375 1.532-1.39 1.735zm-.688 3.14c-.89-.202-1.312-.89-1.312-1.5 0-.75.5-1.202 1.312-1.265zm0 0"/></symbol><symbol overflow="visible" id="be"><path d="M-3.047-4.594c-.844 0-1.672.657-1.672 2.157 0 .5 0 1.593.797 1.593.313 0 .516-.25.516-.5 0-.172-.078-.515-.594-.515-.031-.297-.031-.485-.031-.579 0-.859.36-1.359 1.015-1.359C-3-1.984-2.484-.578-1.437-.578-.61-.578.046-1.313.046-2.36c0-.125 0-.954-.406-1.532C0-4.14 0-4.719 0-5.078c0-.297 0-.563-.36-.563-.343 0-.343.297-.343.47 0 .155 0 .374-.078.577zm1.531.797c.25 0 .47 0 .688.438.187.39.187.875.187.921 0 .626-.359 1.063-.796 1.063-.516 0-.891-1.078-.907-2.422zm0 0"/></symbol><symbol overflow="visible" id="bf"><path d="M-6.125-3.219c-.36 0-.453.094-.453.453v1.75c0 .157 0 .438.344.438.359 0 .359-.266.359-.438v-1.406h5.172v1.406c0 .157 0 .438.344.438C0-.578 0-.844 0-1.016v-3.609c0-.156 0-.453-.344-.453-.36 0-.36.281-.36.453v1.406zm0 0"/></symbol><symbol overflow="visible" id="bg"><path d="M-6.047-3.36a.554.554 0 00-.547.547.554.554 0 001.11 0 .557.557 0 00-.563-.546zm1.406 2.016c0 .157 0 .469.344.469.36 0 .36-.297.36-.469v-1.218h3.234v1.312c0 .156 0 .453.344.453C0-.797 0-1.094 0-1.25v-3.234c0-.157 0-.47-.344-.47-.36 0-.36.298-.36.47v1.125h-3.484c-.359 0-.453.093-.453.453zm0 0"/></symbol><symbol overflow="visible" id="bh"><path d="M-3.89-4.922c-.141-.156-.235-.156-.344-.156-.407 0-.407.25-.407.469v3.625c0 .359.094.453.47.453h.515c.203 0 .453 0 .453-.39 0-.407-.25-.407-.453-.407h-.281V-3.86L-.75-.5c.14.14.234.14.36.14C0-.36 0-.61 0-.812v-3.843c0-.36-.094-.453-.453-.453h-.656c-.204 0-.454 0-.454.39 0 .407.25.407.454.407h.406v2.75zm0 0"/></symbol><symbol overflow="visible" id="bi"><path d="M-6.125-1.813c-.36 0-.453.094-.453.454v.828c0 .14 0 .437.344.437.359 0 .359-.281.359-.437v-.485h5.406c.219 0 .469 0 .469-.39 0-.407-.25-.407-.469-.407.328-.328.516-.75.516-1.218 0-1.203-1.016-2.25-2.375-2.25-1.281 0-2.36.937-2.36 2.14 0 .5.172.954.485 1.329zm3.297 0c-.64 0-1.172-.625-1.172-1.28 0-.75.734-1.391 1.672-1.391.953 0 1.687.703 1.687 1.484 0 .766-.875 1.188-1.437 1.188zm0 0"/></symbol><symbol overflow="visible" id="bj"><path d="M-3.938-2.422V-4.14c0-.14 0-.453-.343-.453-.36 0-.36.297-.36.453v1.72h-.875c-.203 0-.453 0-.453.39 0 .406.25.406.469.406h.86v.89c0 .172 0 .47.359.47.343 0 .343-.297.343-.454v-.906h2.5c1.11 0 1.485-.781 1.485-1.547 0-.922-.64-1.656-1.438-1.656-.375 0-.375.281-.375.39 0 .172.016.391.36.407.531.015.765.453.765.812 0 .797-.593.797-.843.797zm0 0"/></symbol><symbol overflow="visible" id="bk"><path d="M-3.938-4.61c0-.187 0-.484-.03-.53-.016-.094-.095-.235-.329-.235-.344 0-.344.297-.344.484v1.22c0 .187 0 .483.344.483.14 0 .297-.062.328-.218.031-.063.031-.344.031-.516l1.61.516c.922.312 1.297.422 1.515.484-.312.078-.875.297-1.625.578l-1.5.578c0-.156 0-.437-.03-.5-.048-.14-.173-.203-.329-.203-.344 0-.344.281-.344.485v1.218c0 .172 0 .485.344.485.203 0 .297-.125.328-.219.031-.063.031-.375.031-.563l3.782-1.484c.015 0 .14-.047.156-.047.016 0 .86.25 1.172.406.437.235.547.547.578.813l-.203-.063c-.39.016-.484.282-.484.485 0 .297.203.484.484.484.437 0 .89-.328.89-.89 0-.75-.656-1.329-1.593-1.641zm0 0"/></symbol><symbol overflow="visible" id="bm"><path d="M3.953 2.875c0-.047 0-.063-.203-.266-1.484-1.515-1.875-3.765-1.875-5.593 0-2.079.453-4.157 1.922-5.657.156-.14.156-.171.156-.203 0-.078-.047-.125-.11-.125-.124 0-1.202.813-1.905 2.328-.61 1.329-.75 2.641-.75 3.657 0 .921.125 2.375.78 3.718.72 1.485 1.75 2.25 1.876 2.25.062 0 .11-.03.11-.109zm0 0"/></symbol><symbol overflow="visible" id="bp"><path d="M3.453-2.984c0-.938-.125-2.375-.781-3.735-.719-1.468-1.75-2.25-1.875-2.25-.063 0-.11.047-.11.125 0 .031 0 .063.22.266 1.171 1.187 1.859 3.094 1.859 5.594 0 2.046-.454 4.14-1.922 5.656-.156.14-.156.156-.156.203 0 .063.046.11.109.11.125 0 1.203-.813 1.906-2.329.61-1.312.75-2.64.75-3.64zm0 0"/></symbol><symbol overflow="visible" id="bn"><path d="M2.86-8.156c0-.016 0-.14-.157-.14-.281 0-1.156.093-1.453.124-.11.016-.234.016-.234.235 0 .14.109.14.28.14.579 0 .61.094.61.203 0 .094-.11.5-.172.75L.75-2.954c-.14.595-.188.798-.188 1.204 0 1.14.625 1.875 1.516 1.875 1.406 0 2.875-1.781 2.875-3.5 0-1.078-.625-1.906-1.578-1.906-.547 0-1.047.343-1.406.718zM1.733-3.641c.079-.265.079-.296.172-.421.594-.782 1.125-.954 1.438-.954.437 0 .75.36.75 1.125 0 .704-.39 2.079-.61 2.532-.39.796-.937 1.234-1.406 1.234-.406 0-.797-.328-.797-1.219 0-.218 0-.453.188-1.203zm0 0"/></symbol><symbol overflow="visible" id="br"><path d="M2.031 2.031c-.047.156-.062.188-.062.235 0 .265.234.343.343.343a.55.55 0 00.454-.312c.03-.094.093-.485.406-2.188.11.016.203.016.406.016 1.985 0 3.828-1.875 3.828-3.766 0-.921-.468-1.64-1.375-1.64-1.734 0-2.453 2.312-3.156 4.64C1.578-.875.906-1.547.906-2.406c0-.328.281-1.64 1-2.469C2-4.985 2-5.015 2-5.031c0-.047-.031-.125-.14-.125-.344 0-1.266 1.734-1.266 2.89C.594-1.14 1.39-.28 2.672.031zM3.687-.563c-.109 0-.124 0-.218-.015-.14 0-.156 0-.156-.047 0-.016.203-1.11.234-1.281.375-1.532 1.312-2.688 2.375-2.688.812 0 1.14.657 1.14 1.219 0 1.36-1.546 2.813-3.375 2.813zm0 0"/></symbol><symbol overflow="visible" id="bo"><path d="M2.813-5.328c0-.219-.032-.234-.266-.234-.531.53-1.297.53-1.64.53v.313c.202 0 .765 0 1.218-.234v4.266c0 .28 0 .39-.828.39H.969V0a39.512 39.512 0 011.5-.031c.25 0 1.312.015 1.5.031v-.297H3.64c-.829 0-.829-.11-.829-.39zm0 0"/></symbol><symbol overflow="visible" id="bu"><path d="M4.234-1.531h-.296c-.016.187-.11.687-.204.765-.078.047-.718.047-.843.047H1.359c.875-.765 1.172-1 1.672-1.406.625-.484 1.203-1 1.203-1.797 0-1.015-.89-1.64-1.968-1.64-1.032 0-1.735.734-1.735 1.5 0 .421.36.468.438.468.203 0 .453-.14.453-.437 0-.157-.063-.453-.5-.453.265-.594.828-.782 1.219-.782.843 0 1.28.657 1.28 1.344 0 .719-.53 1.297-.796 1.61L.609-.329C.531-.25.531-.234.531 0h3.453zm0 0"/></symbol><symbol overflow="visible" id="bq"><path d="M4.25-6.89c-.094-.204-.156-.25-.266-.25-.156 0-.187.077-.265.25L.734-.22C.672-.062.656-.03.656.031c0 .125.11.235.235.235.093 0 .187-.032.28-.25l2.813-6.344L6.797.016c.094.25.219.25.266.25A.23.23 0 007.296.03c0-.031 0-.062-.063-.203zm0 0"/></symbol><symbol overflow="visible" id="bs"><path d="M1.969-3.234c.656-.5.984-.985 1.078-1.141.531-.828.64-1.578.64-1.594 0-.14-.156-.14-.25-.14-.203 0-.203.03-.265.234-.266 1.172-.969 2.172-2.328 2.734-.125.047-.172.063-.172.157 0 .078.062.109.172.156 1.25.515 2.047 1.437 2.344 2.781.046.14.046.172.25.172.093 0 .25 0 .25-.14 0-.016-.11-.766-.61-1.579a5.019 5.019 0 00-1.11-1.156h8c-.655.5-.984 1-1.077 1.14-.532.829-.625 1.579-.625 1.594 0 .141.14.141.234.141.203 0 .219-.016.266-.234.265-1.172.968-2.172 2.328-2.72.14-.046.172-.077.172-.155 0-.094-.063-.125-.094-.141-.516-.203-1.969-.797-2.422-2.797-.031-.156-.047-.187-.25-.187-.094 0-.234 0-.234.14 0 .032.093.782.609 1.578.234.36.578.782 1.094 1.157zm0 0"/></symbol><clipPath id="E"><path d="M212 202h87v53.078h-87zm0 0"/></clipPath><clipPath id="aM"><path d="M473 20h97.965v61H473zm0 0"/></clipPath><clipPath id="aQ"><path d="M510 220h55v35.078h-55zm0 0"/></clipPath><clipPath id="bv"><path d="M514 0h56.965v99H514zm0 0"/></clipPath></defs><path d="M99.383 236.578V44.691c0-9.394 7.613-17.007 17.008-17.007h344.828c9.394 0 17.008 7.613 17.008 17.007v52.993c0 9.39-7.614 17.007-17.008 17.007H426.78c-9.394 0-17.008 7.614-17.008 17.008v104.88c0 9.394-7.617 17.007-17.007 17.007H116.39c-9.395 0-17.008-7.613-17.008-17.008 0 9.395 0 9.395 0 0zm0 0" fill="#cceffc"/><path d="M277.91 34.965h-45.387a6.802 6.802 0 00-6.804 6.8v17.012a6.805 6.805 0 006.804 6.805h45.387a6.805 6.805 0 006.805-6.805V41.766c0-3.758-3.047-6.801-6.805-6.801zm0 0" fill="#fffccc" stroke-width=".9564" stroke="#000" stroke-miterlimit="10"/><use xlink:href="#a" x="233.648" y="47.251"/><use xlink:href="#b" x="237.965" y="47.251"/><use xlink:href="#c" x="242.05" y="47.251"/><use xlink:href="#d" x="247.796" y="47.251"/><use xlink:href="#e" x="253.973" y="47.251"/><use xlink:href="#f" x="258.556" y="47.251"/><use xlink:href="#c" x="261.412" y="47.251"/><use xlink:href="#a" x="267.157" y="47.251"/><use xlink:href="#g" x="271.474" y="47.251"/><use xlink:href="#a" x="235.873" y="61.597"/><use xlink:href="#h" x="240.19" y="61.597"/><use xlink:href="#i" x="250.149" y="61.597"/><use xlink:href="#j" x="258.617" y="61.597"/><use xlink:href="#k" x="266.587" y="61.597"/><path d="M354.867 38.316H309.48a6.802 6.802 0 00-6.8 6.805v10.305c0 3.758 3.043 6.8 6.8 6.8h45.387a6.802 6.802 0 006.805-6.8V45.12a6.805 6.805 0 00-6.805-6.805zm0 0" fill="#fffccc" stroke-width=".9564" stroke="#000" stroke-miterlimit="10"/><use xlink:href="#e" x="310.739" y="53.262"/><use xlink:href="#l" x="315.321" y="53.262"/><use xlink:href="#f" x="321.498" y="53.262"/><use xlink:href="#m" x="324.354" y="53.262"/><use xlink:href="#a" x="327.211" y="53.262"/><use xlink:href="#n" x="335.509" y="53.262"/><use xlink:href="#o" x="338.83" y="53.262"/><use xlink:href="#p" x="344.807" y="53.262"/><path d="M448.836 34.965H386.44a6.802 6.802 0 00-6.804 6.8v17.012a6.805 6.805 0 006.804 6.805h62.395c3.758 0 6.8-3.047 6.8-6.805V41.766c0-3.758-3.042-6.801-6.8-6.801zm0 0" fill="#fffccc" stroke-width=".9564" stroke="#000" stroke-miterlimit="10"/><use xlink:href="#q" x="389.084" y="47.251"/><use xlink:href="#g" x="395.262" y="47.251"/><use xlink:href="#a" x="400.574" y="47.251"/><use xlink:href="#g" x="404.891" y="47.251"/><use xlink:href="#b" x="410.204" y="47.251"/><use xlink:href="#r" x="414.289" y="47.251"/><use xlink:href="#m" x="423.787" y="47.251"/><use xlink:href="#d" x="426.643" y="47.251"/><use xlink:href="#m" x="432.82" y="47.251"/><use xlink:href="#s" x="435.676" y="47.251"/><use xlink:href="#g" x="440.873" y="47.251"/><use xlink:href="#a" x="398.873" y="61.597"/><use xlink:href="#h" x="403.19" y="61.597"/><use xlink:href="#t" x="413.148" y="61.597"/><use xlink:href="#u" x="421.782" y="61.597"/><use xlink:href="#k" x="428.428" y="61.597"/><path d="M285.191 50.273h12.961" fill="none" stroke-width=".9564" stroke="#000" stroke-miterlimit="10"/><path d="M301.723 50.273l-4.985-1.886 1.653 1.886-1.653 1.883zm0 0" stroke-width=".9564" stroke-linejoin="round" stroke="#000" stroke-miterlimit="10"/><path d="M362.148 50.273h12.961" fill="none" stroke-width=".9564" stroke="#000" stroke-miterlimit="10"/><path d="M378.68 50.273l-4.985-1.886 1.653 1.886-1.653 1.883zm0 0" stroke-width=".9564" stroke-linejoin="round" stroke="#000" stroke-miterlimit="10"/><path d="M277.91 80.145h-45.387a6.805 6.805 0 00-6.804 6.804v17.012c0 3.754 3.047 6.8 6.804 6.8h45.387a6.804 6.804 0 006.805-6.8V86.949a6.805 6.805 0 00-6.805-6.804zm0 0" fill="#fffccc" stroke-width=".9564" stroke="#000" stroke-miterlimit="10"/><use xlink:href="#a" x="233.648" y="92.431"/><use xlink:href="#b" x="237.965" y="92.431"/><use xlink:href="#c" x="242.05" y="92.431"/><use xlink:href="#d" x="247.796" y="92.431"/><use xlink:href="#e" x="253.973" y="92.431"/><use xlink:href="#f" x="258.556" y="92.431"/><use xlink:href="#c" x="261.412" y="92.431"/><use xlink:href="#a" x="267.157" y="92.431"/><use xlink:href="#g" x="271.474" y="92.431"/><use xlink:href="#a" x="235.873" y="106.777"/><use xlink:href="#h" x="240.19" y="106.777"/><use xlink:href="#i" x="250.149" y="106.777"/><use xlink:href="#j" x="258.617" y="106.777"/><use xlink:href="#k" x="266.587" y="106.777"/><path d="M371.879 80.145H309.48a6.802 6.802 0 00-6.8 6.804v17.012a6.8 6.8 0 006.8 6.8h62.399c3.754 0 6.8-3.046 6.8-6.8V86.949a6.804 6.804 0 00-6.8-6.804zm0 0" fill="#fffccc" stroke-width=".9564" stroke="#000" stroke-miterlimit="10"/><use xlink:href="#q" x="312.127" y="92.431"/><use xlink:href="#g" x="318.304" y="92.431"/><use xlink:href="#a" x="323.617" y="92.431"/><use xlink:href="#g" x="327.934" y="92.431"/><use xlink:href="#b" x="333.247" y="92.431"/><use xlink:href="#r" x="337.332" y="92.431"/><use xlink:href="#m" x="346.829" y="92.431"/><use xlink:href="#d" x="349.685" y="92.431"/><use xlink:href="#m" x="355.863" y="92.431"/><use xlink:href="#s" x="358.719" y="92.431"/><use xlink:href="#g" x="363.916" y="92.431"/><use xlink:href="#a" x="321.916" y="106.777"/><use xlink:href="#h" x="326.233" y="106.777"/><use xlink:href="#t" x="336.191" y="106.777"/><use xlink:href="#u" x="344.825" y="106.777"/><use xlink:href="#k" x="351.471" y="106.777"/><path d="M455.637 83.5H410.25a6.798 6.798 0 00-6.8 6.8v10.305a6.802 6.802 0 006.8 6.805h45.387a6.805 6.805 0 006.804-6.805V90.301c0-3.758-3.046-6.801-6.804-6.801zm0 0" fill="#fffccc" stroke-width=".9564" stroke="#000" stroke-miterlimit="10"/><use xlink:href="#e" x="411.506" y="98.442"/><use xlink:href="#l" x="416.089" y="98.442"/><use xlink:href="#f" x="422.266" y="98.442"/><use xlink:href="#m" x="425.122" y="98.442"/><use xlink:href="#a" x="427.978" y="98.442"/><use xlink:href="#n" x="436.276" y="98.442"/><use xlink:href="#o" x="439.597" y="98.442"/><use xlink:href="#p" x="445.575" y="98.442"/><path d="M285.191 95.453h12.961" fill="none" stroke-width=".9564" stroke="#000" stroke-miterlimit="10"/><path d="M301.723 95.453l-4.985-1.883 1.653 1.883-1.653 1.887zm0 0" stroke-width=".9564" stroke-linejoin="round" stroke="#000" stroke-miterlimit="10"/><path d="M379.16 95.453h19.762" fill="none" stroke-width=".9564" stroke="#000" stroke-miterlimit="10"/><path d="M402.492 95.453l-4.984-1.883 1.652 1.883-1.652 1.887zm0 0" stroke-width=".9564" stroke-linejoin="round" stroke="#000" stroke-miterlimit="10"/><path d="M277.91 125.324h-45.387a6.805 6.805 0 00-6.804 6.805v17.012a6.805 6.805 0 006.804 6.804h45.387a6.805 6.805 0 006.805-6.804v-17.012a6.805 6.805 0 00-6.805-6.805zm0 0" fill="#fffccc" stroke-width=".9564" stroke="#000" stroke-miterlimit="10"/><use xlink:href="#a" x="233.648" y="137.612"/><use xlink:href="#b" x="237.965" y="137.612"/><use xlink:href="#c" x="242.05" y="137.612"/><use xlink:href="#d" x="247.796" y="137.612"/><use xlink:href="#e" x="253.973" y="137.612"/><use xlink:href="#f" x="258.556" y="137.612"/><use xlink:href="#c" x="261.412" y="137.612"/><use xlink:href="#a" x="267.157" y="137.612"/><use xlink:href="#g" x="271.474" y="137.612"/><use xlink:href="#a" x="232.968" y="151.958"/><use xlink:href="#h" x="237.285" y="151.958"/><use xlink:href="#t" x="247.244" y="151.958"/><use xlink:href="#v" x="255.878" y="151.958"/><use xlink:href="#w" x="263.017" y="151.958"/><use xlink:href="#k" x="269.493" y="151.958"/><path d="M371.879 123.922H309.48a6.8 6.8 0 00-6.8 6.8v19.821a6.802 6.802 0 006.8 6.805h62.399c3.754 0 6.8-3.047 6.8-6.805v-19.82c0-3.754-3.046-6.801-6.8-6.801zm0 0" fill="#fffccc" stroke-width=".9564" stroke="#000" stroke-miterlimit="10"/><use xlink:href="#l" x="322.572" y="136.027"/><use xlink:href="#c" x="328.749" y="136.027"/><use xlink:href="#b" x="334.16" y="136.027"/><use xlink:href="#m" x="338.245" y="136.027"/><use xlink:href="#a" x="341.101" y="136.027"/><use xlink:href="#m" x="345.418" y="136.027"/><use xlink:href="#s" x="348.274" y="136.027"/><use xlink:href="#g" x="353.471" y="136.027"/><use xlink:href="#x" x="311.497" y="150.373"/><use xlink:href="#l" x="316.147" y="150.373"/><use xlink:href="#y" x="322.324" y="150.373"/><use xlink:href="#b" x="328.501" y="150.373"/><use xlink:href="#g" x="332.586" y="150.373"/><use xlink:href="#z" x="341.88" y="150.373"/><use xlink:href="#k" x="349.518" y="150.373"/><use xlink:href="#A" x="357.489" y="150.373"/><use xlink:href="#B" x="365.209" y="150.373"/><path d="M285.191 140.633h12.961" fill="none" stroke-width=".9564" stroke="#000" stroke-miterlimit="10"/><path d="M301.723 140.633l-4.985-1.883 1.653 1.883-1.653 1.887zm0 0" stroke-width=".9564" stroke-linejoin="round" stroke="#000" stroke-miterlimit="10"/><path d="M379.16 140.633h7.856" fill="none" stroke-width=".9564" stroke="#000" stroke-miterlimit="10"/><path d="M390.586 140.633l-4.984-1.883 1.652 1.883-1.652 1.887zm0 0" stroke-width=".9564" stroke-linejoin="round" stroke="#000" stroke-miterlimit="10"/><path d="M277.91 170.508h-45.387a6.802 6.802 0 00-6.804 6.8v17.012a6.805 6.805 0 006.804 6.805h45.387a6.805 6.805 0 006.805-6.805V177.31c0-3.758-3.047-6.801-6.805-6.801zm0 0" fill="#fffccc" stroke-width=".9564" stroke="#000" stroke-miterlimit="10"/><use xlink:href="#a" x="233.648" y="182.792"/><use xlink:href="#b" x="237.965" y="182.792"/><use xlink:href="#c" x="242.05" y="182.792"/><use xlink:href="#d" x="247.796" y="182.792"/><use xlink:href="#e" x="253.973" y="182.792"/><use xlink:href="#f" x="258.556" y="182.792"/><use xlink:href="#c" x="261.412" y="182.792"/><use xlink:href="#a" x="267.157" y="182.792"/><use xlink:href="#g" x="271.474" y="182.792"/><use xlink:href="#a" x="232.968" y="197.138"/><use xlink:href="#h" x="237.285" y="197.138"/><use xlink:href="#t" x="247.244" y="197.138"/><use xlink:href="#v" x="255.878" y="197.138"/><use xlink:href="#w" x="263.017" y="197.138"/><use xlink:href="#k" x="269.493" y="197.138"/><path d="M371.879 169.102H309.48a6.802 6.802 0 00-6.8 6.804v19.82c0 3.758 3.043 6.801 6.8 6.801h62.399a6.8 6.8 0 006.8-6.8v-19.82a6.804 6.804 0 00-6.8-6.805zm0 0" fill="#fffccc" stroke-width=".9564" stroke="#000" stroke-miterlimit="10"/><use xlink:href="#l" x="322.572" y="181.207"/><use xlink:href="#c" x="328.749" y="181.207"/><use xlink:href="#b" x="334.16" y="181.207"/><use xlink:href="#m" x="338.245" y="181.207"/><use xlink:href="#a" x="341.101" y="181.207"/><use xlink:href="#m" x="345.418" y="181.207"/><use xlink:href="#s" x="348.274" y="181.207"/><use xlink:href="#g" x="353.471" y="181.207"/><use xlink:href="#x" x="308.892" y="195.554"/><use xlink:href="#z" x="313.541" y="195.554"/><use xlink:href="#k" x="321.179" y="195.554"/><use xlink:href="#A" x="329.15" y="195.554"/><use xlink:href="#C" x="336.871" y="195.554"/><use xlink:href="#n" x="340.192" y="195.554"/><use xlink:href="#k" x="343.513" y="195.554"/><use xlink:href="#A" x="351.483" y="195.554"/><use xlink:href="#C" x="359.204" y="195.554"/><use xlink:href="#D" x="362.524" y="195.554"/><use xlink:href="#D" x="364.288" y="195.554"/><use xlink:href="#D" x="366.052" y="195.554"/><use xlink:href="#B" x="367.817" y="195.554"/><path d="M285.191 185.816h12.961" fill="none" stroke-width=".9564" stroke="#000" stroke-miterlimit="10"/><path d="M301.723 185.816l-4.985-1.886 1.653 1.886-1.653 1.883zm0 0" stroke-width=".9564" stroke-linejoin="round" stroke="#000" stroke-miterlimit="10"/><path d="M379.16 185.816h7.856" fill="none" stroke-width=".9564" stroke="#000" stroke-miterlimit="10"/><path d="M390.586 185.816l-4.984-1.886 1.652 1.886-1.652 1.883zm0 0" stroke-width=".9564" stroke-linejoin="round" stroke="#000" stroke-miterlimit="10"/><path d="M277.91 215.688h-45.387a6.805 6.805 0 00-6.804 6.804v17.012c0 3.754 3.047 6.8 6.804 6.8h45.387a6.804 6.804 0 006.805-6.8v-17.012a6.805 6.805 0 00-6.805-6.804zm0 0" fill="#fffccc"/><g clip-path="url(#E)"><path d="M277.91 215.688h-45.387a6.805 6.805 0 00-6.804 6.804v17.012c0 3.754 3.047 6.8 6.804 6.8h45.387a6.804 6.804 0 006.805-6.8v-17.012a6.805 6.805 0 00-6.805-6.804zm0 0" fill="none" stroke-width=".9564" stroke="#000" stroke-miterlimit="10"/></g><use xlink:href="#a" x="233.648" y="227.972"/><use xlink:href="#b" x="237.965" y="227.972"/><use xlink:href="#c" x="242.05" y="227.972"/><use xlink:href="#d" x="247.796" y="227.972"/><use xlink:href="#e" x="253.973" y="227.972"/><use xlink:href="#f" x="258.556" y="227.972"/><use xlink:href="#c" x="261.412" y="227.972"/><use xlink:href="#a" x="267.157" y="227.972"/><use xlink:href="#g" x="271.474" y="227.972"/><use xlink:href="#a" x="236.455" y="242.318"/><use xlink:href="#h" x="240.772" y="242.318"/><use xlink:href="#t" x="250.731" y="242.318"/><use xlink:href="#u" x="259.365" y="242.318"/><use xlink:href="#k" x="266.011" y="242.318"/><path d="M285.191 230.996h101.09c2.64 0 4.782-2.14 4.782-4.781V99.504" fill="none" stroke-width=".9564" stroke="#000" stroke-miterlimit="10"/><path d="M391.063 95.934l-1.883 4.98 1.883-1.652 1.886 1.652zm0 0" stroke-width=".9564" stroke-linejoin="round" stroke="#000" stroke-miterlimit="10"/><path d="M116.39 140.633a3.4 3.4 0 00-3.402-3.399 3.4 3.4 0 100 6.801 3.403 3.403 0 003.403-3.402zm0 0M129.996 117.066a3.4 3.4 0 10-6.8 0 3.4 3.4 0 106.8 0zm0 0M139.957 127.027a3.403 3.403 0 10-6.805 0 3.403 3.403 0 006.805 0zm0 0M143.602 140.633a3.396 3.396 0 00-3.399-3.399 3.4 3.4 0 100 6.801 3.4 3.4 0 003.399-3.402zm0 0M139.957 154.242a3.403 3.403 0 00-6.805 0 3.4 3.4 0 003.403 3.399 3.4 3.4 0 003.402-3.399zm0 0M129.996 164.203a3.4 3.4 0 10-6.8 0 3.396 3.396 0 003.398 3.399 3.4 3.4 0 003.402-3.399zm0 0" fill="#fffccc" stroke-width=".9564" stroke="#000" stroke-miterlimit="10"/><path d="M128.535 113.707c21.965-38.043 49.692-61.965 92.668-63.367" fill="none" stroke-width=".9564" stroke="#000" stroke-miterlimit="10"/><path d="M224.766 50.273c-1.664-.609-3.356-1.199-5.07-1.761.605.601 1.179 1.207 1.745 1.82-.523.645-1.039 1.293-1.578 1.945 1.625-.691 3.258-1.359 4.903-2.004zm0 0" stroke-width=".9564" stroke-linejoin="round" stroke="#000" stroke-miterlimit="10"/><use xlink:href="#F" x="125.597" y="111.963"/><use xlink:href="#G" x="128.525" y="107.029"/><use xlink:href="#H" x="131.585" y="102.167"/><use xlink:href="#I" x="134.788" y="97.386"/><use xlink:href="#J" x="138.145" y="92.701"/><use xlink:href="#K" x="141.671" y="88.124"/><use xlink:href="#L" x="145.376" y="83.676"/><use xlink:href="#M" x="149.269" y="79.376"/><use xlink:href="#N" x="153.364" y="75.247"/><path d="M139.914 125.09c29.414-16.985 48.469-28.7 81.281-29.582" fill="none" stroke-width=".9564" stroke="#000" stroke-miterlimit="10"/><path d="M224.766 95.453a227.025 227.025 0 00-5.059-1.785c.59.61 1.16 1.219 1.727 1.832-.532.645-1.051 1.29-1.586 1.937 1.625-.68 3.257-1.34 4.918-1.984zm0 0" stroke-width=".9564" stroke-linejoin="round" stroke="#000" stroke-miterlimit="10"/><use xlink:href="#O" x="138.215" y="122.144"/><use xlink:href="#P" x="143.106" y="119.313"/><use xlink:href="#Q" x="148.012" y="116.483"/><use xlink:href="#R" x="152.947" y="113.667"/><use xlink:href="#S" x="157.926" y="110.893"/><use xlink:href="#T" x="162.967" y="108.186"/><use xlink:href="#U" x="168.088" y="105.579"/><use xlink:href="#V" x="173.302" y="103.111"/><use xlink:href="#W" x="178.621" y="100.824"/><path d="M144.082 140.633h77.113" fill="none" stroke-width=".9564" stroke="#000" stroke-miterlimit="10"/><path d="M224.766 140.633l-4.985-1.883 1.653 1.883-1.653 1.887zm0 0" stroke-width=".9564" stroke-linejoin="round" stroke="#000" stroke-miterlimit="10"/><use xlink:href="#X" x="144.083" y="137.232"/><use xlink:href="#X" x="149.732" y="137.232"/><use xlink:href="#Y" x="155.381" y="137.232"/><use xlink:href="#Z" x="161.029" y="137.232"/><use xlink:href="#aa" x="166.679" y="137.232"/><use xlink:href="#ab" x="172.327" y="137.232"/><use xlink:href="#ac" x="177.976" y="137.232"/><use xlink:href="#Z" x="183.624" y="137.232"/><use xlink:href="#Y" x="189.274" y="137.232"/><use xlink:href="#ad" x="194.922" y="137.232"/><use xlink:href="#ae" x="200.57" y="137.232"/><use xlink:href="#ab" x="206.22" y="137.232"/><use xlink:href="#Z" x="211.868" y="137.232"/><use xlink:href="#af" x="217.517" y="137.232"/><path d="M139.914 156.18c29.414 16.984 48.469 28.695 81.281 29.582" fill="none" stroke-width=".9564" stroke="#000" stroke-miterlimit="10"/><path d="M224.766 185.816a204.888 204.888 0 01-4.918-1.984c.535.648 1.054 1.293 1.586 1.938-.567.609-1.137 1.222-1.727 1.828a208.761 208.761 0 005.059-1.782zm0 0" stroke-width=".9564" stroke-linejoin="round" stroke="#000" stroke-miterlimit="10"/><use xlink:href="#ag" x="141.62" y="153.234"/><use xlink:href="#ah" x="146.504" y="156.06"/><use xlink:href="#ai" x="151.38" y="158.874"/><use xlink:href="#aj" x="156.257" y="161.655"/><use xlink:href="#ak" x="161.143" y="164.379"/><use xlink:href="#al" x="166.052" y="167.018"/><use xlink:href="#am" x="170.998" y="169.538"/><use xlink:href="#an" x="175.991" y="171.907"/><use xlink:href="#ao" x="181.046" y="174.087"/><use xlink:href="#ap" x="186.174" y="176.048"/><path d="M128.535 167.562c21.965 38.043 49.692 61.965 92.668 63.368" fill="none" stroke-width=".9564" stroke="#000" stroke-miterlimit="10"/><path d="M224.766 230.996a184.131 184.131 0 01-4.903-2.004c.54.653 1.055 1.301 1.578 1.945-.566.61-1.14 1.22-1.746 1.82a157.588 157.588 0 005.07-1.76zm0 0" stroke-width=".9564" stroke-linejoin="round" stroke="#000" stroke-miterlimit="10"/><use xlink:href="#aq" x="131.447" y="165.831"/><use xlink:href="#ar" x="134.282" y="170.615"/><use xlink:href="#as" x="137.237" y="175.315"/><use xlink:href="#at" x="140.317" y="179.918"/><use xlink:href="#au" x="143.534" y="184.416"/><use xlink:href="#av" x="146.899" y="188.791"/><use xlink:href="#aw" x="150.419" y="193.026"/><use xlink:href="#ax" x="154.103" y="197.103"/><use xlink:href="#ay" x="157.956" y="201.002"/><path d="M116.574 142.113l19.98 8.246" fill="none" stroke-width="1.9128" stroke="#000" stroke-miterlimit="10"/><path d="M91.621 140.633a3.396 3.396 0 00-3.398-3.399 3.4 3.4 0 100 6.801 3.4 3.4 0 003.398-3.402zm0 0M60.05 94.664H11.263a6.798 6.798 0 00-6.801 6.8v10.306a6.802 6.802 0 006.8 6.804h48.79a6.805 6.805 0 006.804-6.804v-10.305c0-3.758-3.046-6.8-6.804-6.8zm0 0" fill="#fffccc" stroke-width=".9564" stroke="#000" stroke-miterlimit="10"/><use xlink:href="#q" x="8.448" y="109.607"/><use xlink:href="#g" x="14.625" y="109.607"/><use xlink:href="#az" x="19.938" y="109.607"/><use xlink:href="#h" x="25.251" y="109.607"/><use xlink:href="#r" x="31.228" y="109.607"/><use xlink:href="#l" x="40.726" y="109.607"/><use xlink:href="#h" x="47.238" y="109.607"/><use xlink:href="#e" x="53.215" y="109.607"/><use xlink:href="#g" x="57.798" y="109.607"/><path d="M9.563 80.102h52.19V47.156H9.564zm0 0" fill="#fcd9ee" stroke-width=".9564" stroke="#000" stroke-miterlimit="10"/><use xlink:href="#w" x="25.615" y="59.444"/><use xlink:href="#aA" x="31.099" y="59.444"/><use xlink:href="#w" x="39.236" y="59.444"/><use xlink:href="#m" x="22.808" y="73.79"/><use xlink:href="#d" x="25.664" y="73.79"/><use xlink:href="#l" x="31.842" y="73.79"/><use xlink:href="#y" x="38.019" y="73.79"/><use xlink:href="#a" x="44.196" y="73.79"/><path d="M35.656 80.578v9.559" fill="none" stroke-width=".9564" stroke="#000" stroke-miterlimit="10"/><path d="M35.656 93.707l1.887-4.984-1.887 1.652-1.883-1.652zm0 0" stroke-width=".9564" stroke-linejoin="round" stroke="#000" stroke-miterlimit="10"/><path d="M48.09 119.05c10.683 10.684 18.336 19.884 32.203 21.372" fill="none" stroke-width=".9564" stroke="#000" stroke-miterlimit="10"/><path d="M83.86 140.633a51.58 51.58 0 01-4.7-2.254c.453.7.899 1.387 1.367 2.07a33.813 33.813 0 01-1.925 1.656 52.448 52.448 0 005.257-1.472zm0 0" stroke-width=".9564" stroke-linejoin="round" stroke="#000" stroke-miterlimit="10"/><path d="M44.36 119.05c10.804 15.427 18.597 30.552 35.933 32.579" fill="none" stroke-width=".9564" stroke="gray" stroke-miterlimit="10"/><path d="M83.863 151.855a45.93 45.93 0 01-4.68-2.28c.434.698.883 1.394 1.344 2.081a35.434 35.434 0 01-1.953 1.637 47.73 47.73 0 005.29-1.438zm0 0" fill="gray" stroke-width=".9564" stroke-linejoin="round" stroke="gray" stroke-miterlimit="10"/><path d="M41.453 119.05c9.547 20.47 17.875 41.434 38.84 43.813" fill="none" stroke-width=".9564" stroke="gray" stroke-miterlimit="10"/><path d="M83.86 163.082a48.568 48.568 0 01-4.688-2.273c.437.699.894 1.394 1.36 2.078a36.85 36.85 0 01-1.946 1.644 48.986 48.986 0 005.273-1.449zm0 0" fill="gray" stroke-width=".9564" stroke-linejoin="round" stroke="gray" stroke-miterlimit="10"/><path d="M38.988 119.05c6.887 25.704 16.356 52.766 41.305 55.391" fill="none" stroke-width=".9564" stroke="gray" stroke-miterlimit="10"/><path d="M83.863 174.648a53.389 53.389 0 01-4.715-2.25c.446.696.91 1.387 1.383 2.067a42.398 42.398 0 01-1.926 1.664 52.463 52.463 0 005.258-1.48zm0 0" fill="gray" stroke-width=".9564" stroke-linejoin="round" stroke="gray" stroke-miterlimit="10"/><g><use xlink:href="#aB" x="27.455" y="122.223"/></g><g><use xlink:href="#aC" x="29.01" y="127.88"/></g><g><use xlink:href="#aD" x="30.694" y="133.592"/></g><g><use xlink:href="#aE" x="32.556" y="139.352"/></g><g><use xlink:href="#aF" x="34.657" y="145.157"/></g><g><use xlink:href="#aG" x="37.072" y="150.996"/></g><g><use xlink:href="#aH" x="39.896" y="156.849"/></g><g><use xlink:href="#aI" x="43.258" y="162.68"/></g><g><use xlink:href="#aJ" x="47.315" y="168.399"/></g><g><use xlink:href="#aK" x="52.23" y="173.831"/></g><g><use xlink:href="#aL" x="58.104" y="178.677"/></g><path d="M92.102 140.633h12.957" fill="none" stroke-width=".9564" stroke="#000" stroke-miterlimit="10"/><path d="M108.629 140.633l-4.984-1.883 1.656 1.883-1.656 1.887zm0 0" stroke-width=".9564" stroke-linejoin="round" stroke="#000" stroke-miterlimit="10"/><path d="M556.406 33.8h-62.394a6.802 6.802 0 00-6.801 6.805v19.336c0 3.758 3.043 6.801 6.8 6.801h62.395a6.802 6.802 0 006.805-6.8V40.604a6.805 6.805 0 00-6.805-6.804zm0 0" fill="#fffccc"/><g clip-path="url(#aM)"><path d="M556.406 33.8h-62.394a6.802 6.802 0 00-6.801 6.805v19.336c0 3.758 3.043 6.801 6.8 6.801h62.395a6.802 6.802 0 006.805-6.8V40.604a6.805 6.805 0 00-6.805-6.804zm0 0" fill="none" stroke-width=".9564" stroke="#000" stroke-miterlimit="10"/></g><g><use xlink:href="#e" x="513.086" y="46.088"/><use xlink:href="#h" x="517.669" y="46.088"/><use xlink:href="#f" x="523.646" y="46.088"/><use xlink:href="#aN" x="526.502" y="46.088"/><use xlink:href="#g" x="532.015" y="46.088"/></g><g><use xlink:href="#l" x="495.934" y="60.434"/><use xlink:href="#c" x="502.111" y="60.434"/></g><g><use xlink:href="#b" x="507.522" y="60.434"/><use xlink:href="#m" x="511.607" y="60.434"/><use xlink:href="#a" x="514.463" y="60.434"/></g><g><use xlink:href="#aO" x="518.445" y="60.434"/></g><g><use xlink:href="#aP" x="527.951" y="60.434"/><use xlink:href="#c" x="533.928" y="60.434"/><use xlink:href="#r" x="539.674" y="60.434"/><use xlink:href="#g" x="549.171" y="60.434"/></g><path d="M528.613 84.707a3.4 3.4 0 00-3.402-3.398 3.4 3.4 0 100 6.8 3.403 3.403 0 003.402-3.402zm0 0M540.902 107.203a3.403 3.403 0 10-6.805 0 3.403 3.403 0 006.805 0zm0 0M516.32 107.203a3.402 3.402 0 00-3.398-3.402 3.403 3.403 0 000 6.804 3.402 3.402 0 003.398-3.402zm0 0" fill="#fffccc" stroke-width=".9564" stroke="#000" stroke-miterlimit="10"/><path d="M526.57 88.344l7.051 18.86" fill="none" stroke-width="1.9128" stroke="#000" stroke-miterlimit="10"/><path d="M525.21 67.223v9.558" fill="none" stroke-width=".9564" stroke="#000" stroke-miterlimit="10"/><path d="M525.21 80.352l1.884-4.985-1.883 1.653-1.887-1.653zm0 0" stroke-width=".9564" stroke-linejoin="round" stroke="#000" stroke-miterlimit="10"/><path d="M511.406 254.602h52.188v-33.606h-52.188zm0 0" fill="#fcd9ee"/><g clip-path="url(#aQ)"><path d="M511.406 254.602h52.188v-33.606h-52.188zm0 0" fill="none" stroke-width=".9564" stroke="#000" stroke-miterlimit="10"/></g><g><use xlink:href="#aR" x="526.289" y="233.945"/><use xlink:href="#o" x="534.259" y="233.945"/><use xlink:href="#i" x="540.237" y="233.945"/></g><g><use xlink:href="#h" x="520.926" y="248.291"/><use xlink:href="#y" x="526.904" y="248.291"/><use xlink:href="#a" x="533.081" y="248.291"/><use xlink:href="#l" x="537.398" y="248.291"/><use xlink:href="#y" x="543.575" y="248.291"/><use xlink:href="#a" x="549.752" y="248.291"/></g><path d="M444.652 254.27h48.79v-32.942h-48.79zm0 0" fill="#fcd9ee" stroke-width=".9564" stroke="#000" stroke-miterlimit="10"/><g><use xlink:href="#k" x="451.982" y="233.613"/><use xlink:href="#n" x="459.953" y="233.613"/><use xlink:href="#aS" x="463.274" y="233.613"/><use xlink:href="#v" x="471.244" y="233.613"/><use xlink:href="#A" x="478.384" y="233.613"/></g><g><use xlink:href="#h" x="452.472" y="247.959"/><use xlink:href="#y" x="458.45" y="247.959"/><use xlink:href="#a" x="464.627" y="247.959"/><use xlink:href="#l" x="468.944" y="247.959"/><use xlink:href="#y" x="475.121" y="247.959"/><use xlink:href="#a" x="481.298" y="247.959"/></g><path d="M491.738 179.547h-45.386a6.802 6.802 0 00-6.801 6.805v17.011a6.802 6.802 0 006.8 6.805h45.387a6.805 6.805 0 006.805-6.805v-17.011a6.805 6.805 0 00-6.805-6.805zm0 0" fill="#fffccc" stroke-width=".9564" stroke="#000" stroke-miterlimit="10"/><g><use xlink:href="#g" x="445.234" y="191.834"/><use xlink:href="#d" x="450.546" y="191.834"/><use xlink:href="#az" x="456.724" y="191.834"/><use xlink:href="#h" x="462.037" y="191.834"/></g><g><use xlink:href="#q" x="468.349" y="191.834"/><use xlink:href="#g" x="474.526" y="191.834"/></g><g><use xlink:href="#m" x="483.82" y="191.834"/><use xlink:href="#d" x="486.676" y="191.834"/></g><g><use xlink:href="#k" x="451.982" y="206.18"/><use xlink:href="#n" x="459.953" y="206.18"/><use xlink:href="#aS" x="463.274" y="206.18"/><use xlink:href="#v" x="471.244" y="206.18"/><use xlink:href="#A" x="478.384" y="206.18"/></g><path d="M491.738 128.64h-45.386a6.802 6.802 0 00-6.801 6.805v19.336a6.802 6.802 0 006.8 6.805h45.387a6.805 6.805 0 006.805-6.805v-19.336a6.805 6.805 0 00-6.805-6.804zm0 0" fill="#fffccc" stroke-width=".9564" stroke="#000" stroke-miterlimit="10"/><g><use xlink:href="#e" x="450.048" y="140.928"/><use xlink:href="#m" x="454.63" y="140.928"/><use xlink:href="#r" x="457.486" y="140.928"/><use xlink:href="#l" x="466.984" y="140.928"/><use xlink:href="#f" x="473.161" y="140.928"/><use xlink:href="#m" x="476.017" y="140.928"/><use xlink:href="#aT" x="478.873" y="140.928"/><use xlink:href="#aO" x="482.526" y="140.928"/></g><g><use xlink:href="#e" x="449.118" y="155.274"/><use xlink:href="#a" x="453.7" y="155.274"/><use xlink:href="#b" x="458.017" y="155.274"/><use xlink:href="#c" x="462.102" y="155.274"/><use xlink:href="#a" x="467.848" y="155.274"/><use xlink:href="#g" x="472.165" y="155.274"/><use xlink:href="#aP" x="477.478" y="155.274"/><use xlink:href="#aO" x="483.455" y="155.274"/></g><path d="M456.117 50.273h26.567" fill="none" stroke-width=".9564" stroke="#000" stroke-miterlimit="10"/><path d="M486.254 50.273l-4.984-1.886 1.652 1.886-1.652 1.883zm0 0" stroke-width=".9564" stroke-linejoin="round" stroke="#000" stroke-miterlimit="10"/><path d="M462.918 95.453h3.723c2.64 0 4.78-2.14 4.78-4.781V54.32" fill="none" stroke-width=".9564" stroke="#000" stroke-miterlimit="10"/><path d="M471.422 50.75l-1.883 4.984 1.883-1.652 1.887 1.652zm0 0" stroke-width=".9564" stroke-linejoin="round" stroke="#000" stroke-miterlimit="10"/><path d="M469.54 124.145c3.483-12.922 24.66-10.13 39.733-15.614" fill="none" stroke-width=".9564" stroke="#000" stroke-miterlimit="10"/><path d="M469.05 127.68c.747-1.578 1.645-2.985 2.696-4.203-.758.23-1.516.535-2.27.906-.449-.73-.859-1.508-1.222-2.32.004 2.027.297 3.882.797 5.617zm0 0" stroke-width=".9564" stroke-linejoin="round" stroke="#000" stroke-miterlimit="10"/><g><use xlink:href="#aU" x="469.679" y="116.701"/></g><g><use xlink:href="#aV" x="475.165" y="112.976"/></g><g><use xlink:href="#aW" x="480.925" y="110.972"/></g><g><use xlink:href="#aX" x="486.62" y="109.752"/></g><g><use xlink:href="#aY" x="492.204" y="108.842"/></g><g><use xlink:href="#aZ" x="497.653" y="107.973"/></g><g><use xlink:href="#ba" x="502.918" y="106.938"/></g><path d="M469.047 162.063v12.96" fill="none" stroke-width=".9564" stroke="#000" stroke-miterlimit="10"/><path d="M469.047 178.594l1.883-4.985-1.883 1.653-1.887-1.653zm0 0" stroke-width=".9564" stroke-linejoin="round" stroke="#000" stroke-miterlimit="10"/><path d="M475.848 168.867v6.156" fill="none" stroke-width=".9564" stroke="gray" stroke-miterlimit="10"/><path d="M475.848 178.594l1.886-4.985-1.886 1.653-1.883-1.653zm0 0" fill="gray" stroke-width=".9564" stroke-linejoin="round" stroke="gray" stroke-miterlimit="10"/><path d="M482.652 168.867v6.156" fill="none" stroke-width=".9564" stroke="gray" stroke-miterlimit="10"/><path d="M482.652 178.594l1.887-4.985-1.887 1.653-1.882-1.653zm0 0" fill="gray" stroke-width=".9564" stroke-linejoin="round" stroke="gray" stroke-miterlimit="10"/><path d="M489.457 168.867v6.156" fill="none" stroke-width=".9564" stroke="gray" stroke-miterlimit="10"/><path d="M489.457 178.594l1.883-4.985-1.883 1.653-1.887-1.653zm0 0" fill="gray" stroke-width=".9564" stroke-linejoin="round" stroke="gray" stroke-miterlimit="10"/><path d="M537.5 216.469V111.082" fill="none" stroke-width=".9564" stroke="#000" stroke-miterlimit="10"/><path d="M537.5 220.04l1.887-4.985-1.887 1.652-1.883-1.652zm0 0" stroke-width=".9564" stroke-linejoin="round" stroke="#000" stroke-miterlimit="10"/><g><use xlink:href="#bb" x="534.095" y="201.463"/></g><g><use xlink:href="#bb" x="534.095" y="195.813"/></g><g><use xlink:href="#bc" x="534.095" y="190.165"/></g><g><use xlink:href="#bd" x="534.095" y="184.517"/></g><g><use xlink:href="#be" x="534.095" y="178.867"/></g><g><use xlink:href="#bf" x="534.095" y="173.219"/></g><g><use xlink:href="#bg" x="534.095" y="167.57"/></g><g><use xlink:href="#bh" x="534.095" y="161.922"/></g><g><use xlink:href="#be" x="534.095" y="156.272"/></g><g><use xlink:href="#bi" x="534.095" y="150.624"/></g><g><use xlink:href="#bg" x="534.095" y="144.975"/></g><g><use xlink:href="#bf" x="534.095" y="139.326"/></g><g><use xlink:href="#bg" x="534.095" y="133.677"/></g><g><use xlink:href="#bj" x="534.095" y="128.029"/></g><g><use xlink:href="#bk" x="534.095" y="122.379"/></g><path d="M544.305 210.312v6.157" fill="none" stroke-width=".9564" stroke="gray" stroke-miterlimit="10"/><path d="M544.305 220.04l1.882-4.985-1.882 1.652-1.887-1.652zm0 0" fill="gray" stroke-width=".9564" stroke-linejoin="round" stroke="gray" stroke-miterlimit="10"/><path d="M551.105 210.312v6.157" fill="none" stroke-width=".9564" stroke="gray" stroke-miterlimit="10"/><path d="M551.105 220.04l1.887-4.985-1.887 1.652-1.882-1.652zm0 0" fill="gray" stroke-width=".9564" stroke-linejoin="round" stroke="gray" stroke-miterlimit="10"/><path d="M557.91 210.312v6.157" fill="none" stroke-width=".9564" stroke="gray" stroke-miterlimit="10"/><path d="M557.91 220.04l1.883-4.985-1.883 1.652-1.887-1.652zm0 0" fill="gray" stroke-width=".9564" stroke-linejoin="round" stroke="gray" stroke-miterlimit="10"/><path d="M469.047 210.645v6.156" fill="none" stroke-width=".9564" stroke="#000" stroke-miterlimit="10"/><path d="M469.047 220.371l1.883-4.984-1.883 1.652-1.887-1.652zm0 0" stroke-width=".9564" stroke-linejoin="round" stroke="#000" stroke-miterlimit="10"/><path d="M520.895.477H134.828a6.8 6.8 0 00-6.8 6.8v6.32a6.802 6.802 0 006.8 6.805h386.067a6.805 6.805 0 006.804-6.804v-6.32c0-3.755-3.047-6.801-6.804-6.801zm0 0" fill="#fffccc" stroke-width=".9564" stroke="#000" stroke-miterlimit="10"/><g><use xlink:href="#e" x="132.012" y="13.428"/><use xlink:href="#l" x="136.594" y="13.428"/></g><g><use xlink:href="#g" x="143.106" y="13.428"/><use xlink:href="#az" x="148.419" y="13.428"/><use xlink:href="#m" x="153.732" y="13.428"/><use xlink:href="#c" x="156.588" y="13.428"/><use xlink:href="#f" x="162.334" y="13.428"/><use xlink:href="#m" x="165.19" y="13.428"/><use xlink:href="#s" x="168.046" y="13.428"/><use xlink:href="#g" x="173.243" y="13.428"/><use xlink:href="#q" x="178.556" y="13.428"/></g><g><use xlink:href="#e" x="188.714" y="13.428"/><use xlink:href="#a" x="193.296" y="13.428"/><use xlink:href="#b" x="197.613" y="13.428"/><use xlink:href="#c" x="201.698" y="13.428"/><use xlink:href="#a" x="207.444" y="13.428"/><use xlink:href="#g" x="211.761" y="13.428"/><use xlink:href="#aP" x="217.074" y="13.428"/><use xlink:href="#aO" x="223.051" y="13.428"/></g><g><use xlink:href="#az" x="232.557" y="13.428"/><use xlink:href="#h" x="237.87" y="13.428"/><use xlink:href="#d" x="243.847" y="13.428"/><use xlink:href="#e" x="250.025" y="13.428"/><use xlink:href="#a" x="254.607" y="13.428"/><use xlink:href="#b" x="258.924" y="13.428"/><use xlink:href="#y" x="263.009" y="13.428"/><use xlink:href="#az" x="269.186" y="13.428"/><use xlink:href="#a" x="274.499" y="13.428"/><use xlink:href="#m" x="278.816" y="13.428"/><use xlink:href="#h" x="281.672" y="13.428"/><use xlink:href="#d" x="287.65" y="13.428"/></g><g><use xlink:href="#aT" x="297.808" y="13.428"/><use xlink:href="#h" x="301.461" y="13.428"/></g><g><use xlink:href="#b" x="307.104" y="13.428"/></g><g><use xlink:href="#aT" x="315.17" y="13.428"/><use xlink:href="#h" x="318.824" y="13.428"/></g><g><use xlink:href="#b" x="324.479" y="13.428"/><use xlink:href="#r" x="328.564" y="13.428"/><use xlink:href="#y" x="338.061" y="13.428"/><use xlink:href="#f" x="344.238" y="13.428"/><use xlink:href="#c" x="347.094" y="13.428"/></g><g><use xlink:href="#e" x="352.828" y="13.428"/></g><g><use xlink:href="#h" x="361.403" y="13.428"/><use xlink:href="#aT" x="367.381" y="13.428"/></g><g><use xlink:href="#a" x="375.015" y="13.428"/><use xlink:href="#bl" x="379.332" y="13.428"/><use xlink:href="#g" x="385.51" y="13.428"/></g><g><use xlink:href="#aT" x="394.815" y="13.428"/></g><g><use xlink:href="#h" x="398.457" y="13.428"/></g><g><use xlink:href="#b" x="404.112" y="13.428"/><use xlink:href="#r" x="408.197" y="13.428"/></g><g><use xlink:href="#aS" x="421.675" y="13.428"/></g><g><use xlink:href="#bm" x="429.646" y="13.428"/></g><g><use xlink:href="#bn" x="434.296" y="13.428"/></g><g><use xlink:href="#bo" x="439.426" y="15.221"/></g><g><use xlink:href="#bp" x="444.79" y="13.428"/></g><g><use xlink:href="#bq" x="452.095" y="13.428"/></g><g><use xlink:href="#bm" x="462.722" y="13.428"/></g><g><use xlink:href="#br" x="467.371" y="13.428"/></g><g><use xlink:href="#bs" x="478.513" y="13.428"/></g><g><use xlink:href="#aS" x="493.789" y="13.428"/><use xlink:href="#bt" x="501.76" y="13.428"/></g><g><use xlink:href="#bn" x="508.567" y="13.428"/></g><g><use xlink:href="#bu" x="513.697" y="15.221"/></g><g><use xlink:href="#bp" x="519.061" y="13.428"/></g><path d="M88.223 136.754V15.219c0-2.64 2.14-4.782 4.78-4.782H123.5" fill="none" stroke-width=".9564" stroke="#000" stroke-miterlimit="10"/><path d="M127.07 10.437l-4.984-1.882 1.652 1.882-1.652 1.887zm0 0" stroke-width=".9564" stroke-linejoin="round" stroke="#000" stroke-miterlimit="10"/><g clip-path="url(#bv)"><path d="M528.176 10.437h37.535c2.64 0 4.781 2.141 4.781 4.782v64.706c0 2.641-2.14 4.782-4.781 4.782h-32.574" fill="none" stroke-width=".9564" stroke="#000" stroke-miterlimit="10"/></g><path d="M529.566 84.707l4.985 1.887-1.653-1.887 1.653-1.883zm0 0" stroke-width=".9564" stroke-linejoin="round" stroke="#000" stroke-miterlimit="10"/></svg>