<?xml-stylesheet href="spot.css" type="text/css"?><svg width="1332" height="370pt" viewBox="0 0 999 370" xmlns="http://www.w3.org/2000/svg"><g class="graph"><path fill="#fff" stroke="transparent" d="M0 370V0h999v370H0z"/><text x="389.5" y="-349.4" font-family="Lato" font-size="12" transform="translate(4 366)">Fin(</text><text x="411.5" y="-349.4" font-family="Lato" font-size="12" fill="#1f78b4" transform="translate(4 366)">⓿</text><text x="424.5" y="-349.4" font-family="Lato" font-size="12" transform="translate(4 366)">) &amp; (Inf(</text><text x="470.5" y="-349.4" font-family="Lato" font-size="12" fill="#ff4da0" transform="translate(4 366)">❶</text><text x="481.5" y="-349.4" font-family="Lato" font-size="12" transform="translate(4 366)">) | (Fin(</text><text x="523.5" y="-349.4" font-family="Lato" font-size="12" fill="#ff7f00" transform="translate(4 366)">❷</text><text x="534.5" y="-349.4" font-family="Lato" font-size="12" transform="translate(4 366)">) &amp; Inf(</text><text x="576.5" y="-349.4" font-family="Lato" font-size="12" fill="#6a3d9a" transform="translate(4 366)">❸</text><text x="587.5" y="-349.4" font-family="Lato" font-size="12" transform="translate(4 366)">)))</text><text x="441.5" y="-337.4" font-family="Lato" font-size="12" transform="translate(4 366)">[parity min odd 4]</text><g class="cluster" transform="translate(4 366)"><path fill="none" stroke="green" d="M594-111v-176h389v176H594z"/></g><g class="cluster" transform="translate(4 366)"><path fill="none" stroke="#000" d="M482.5-78v-52h52v52h-52z"/></g><g class="cluster" transform="translate(4 366)"><path fill="none" stroke="red" d="M366.5-24v-96h52v96h-52z"/></g><g class="cluster" transform="translate(4 366)"><path fill="none" stroke="green" d="M143-125v-109h161.5v109H143z"/></g><g class="cluster" transform="translate(4 366)"><path fill="none" stroke="green" d="M30-8v-109h165V-8H30z"/></g><g class="node" transform="translate(4 366)"><circle fill="#ffffa0" stroke="#000" cx="56" cy="-87" r="18"/><text text-anchor="middle" x="56" y="-83.9" font-family="Lato" font-size="12">0</text></g><g class="edge" transform="translate(4 366)"><path fill="none" stroke="#000" d="M1.15-87h29.48"/><path stroke="#000" d="M37.94-87l-7-3.15 3.5 3.15h-3.5 3.5l-3.5 3.15 7-3.15h0z"/></g><g class="node" transform="translate(4 366)"><circle fill="#ffffa0" stroke="#000" cx="620" cy="-250" r="18"/><text text-anchor="middle" x="620" y="-246.9" font-family="Lato" font-size="12">1</text></g><g class="edge" transform="translate(4 366)"><path fill="none" stroke="#000" d="M57.83-105.13C61.29-157.28 78.92-304 168-304h341.5c34.73 0 69.85 22.12 90.64 38.04"/><path stroke="#000" d="M605.87-261.45l-3.55-6.81.8 4.64-2.75-2.16h0l2.75 2.16-4.7.31 7.45 1.86h0z"/><text x="319.5" y="-320.4" font-family="Lato" font-size="12">a &amp; b</text><text x="329" y="-307.4" font-family="Lato" font-size="12" fill="#1f78b4">⓿</text></g><g class="node" transform="translate(4 366)"><circle fill="#ffffa0" stroke="#000" cx="169" cy="-183" r="18"/><text text-anchor="middle" x="169" y="-179.9" font-family="Lato" font-size="12">3</text></g><g class="edge" transform="translate(4 366)"><path fill="none" stroke="#000" d="M70.17-98.39l79.32-68.6"/><path stroke="#000" d="M154.85-171.63l-7.36 2.2 4.71.09-2.65 2.29h0l2.65-2.29-.59 4.68 3.24-6.97h0z"/><text x="92" y="-167.4" font-family="Lato" font-size="12">!a &amp; !b</text><text x="107" y="-154.4" font-family="Lato" font-size="12" fill="#6a3d9a">❸</text></g><g class="node" transform="translate(4 366)"><circle fill="#ffffa0" stroke="#000" cx="169" cy="-34" r="18"/><text text-anchor="middle" x="169" y="-30.9" font-family="Lato" font-size="12">4</text></g><g class="edge" transform="translate(4 366)"><path fill="none" stroke="#000" d="M63.21-70.38C68.74-58.19 78.12-42.51 92-35c15.76 8.52 36.18 8.29 51.89 6.18"/><path stroke="#000" d="M151.18-29.97l-7.41-2.02 3.95 2.57-3.46.55h0l3.46-.55-2.97 3.66 6.43-4.21h0z"/><text x="94" y="-51.4" font-family="Lato" font-size="12">a &amp; !b</text><text x="107" y="-38.4" font-family="Lato" font-size="12" fill="#ff4da0">❶</text></g><g class="node" transform="translate(4 366)"><circle fill="#ffffa0" stroke="#000" cx="729.5" cy="-155" r="18"/><text text-anchor="middle" x="729.5" y="-151.9" font-family="Lato" font-size="12">7</text></g><g class="edge" transform="translate(4 366)"><path fill="none" stroke="#000" d="M634.55-239.27c14.69 11.76 38.68 31.35 58.45 49.27 6.09 5.52 12.54 11.76 18.25 17.42"/><path stroke="#000" d="M716.26-167.57l-2.72-7.18.24 4.71-2.47-2.48h0l2.47 2.48-4.7-.25 7.18 2.72h0z"/><text x="656" y="-237.4" font-family="Lato" font-size="12">a &amp; !b</text><text x="669" y="-224.4" font-family="Lato" font-size="12" fill="#ff4da0">❶</text></g><g class="edge" transform="translate(4 366)"><path fill="none" stroke="#000" d="M720.27-170.54c-2.6-10.37.48-20.46 9.23-20.46 6.7 0 10.08 5.92 10.12 13.34"/><path stroke="#000" d="M738.73-170.54l4-6.56-3.56 3.09.43-3.48h0l-.43 3.48-2.69-3.87 2.25 7.34h0z"/><text x="713.5" y="-207.4" font-family="Lato" font-size="12">a &amp; b</text><text x="724" y="-194.4" font-family="Lato" font-size="12" fill="#ff7f00">❷</text></g><g class="node" transform="translate(4 366)"><circle fill="#ffffa0" stroke="#000" cx="841.5" cy="-137" r="18"/><text text-anchor="middle" x="841.5" y="-133.9" font-family="Lato" font-size="12">5</text></g><g class="edge" transform="translate(4 366)"><path fill="none" stroke="#000" d="M746.71-160.92c14.95-4.54 37.58-9.11 56.29-3.08 6.73 2.17 13.27 6.05 18.95 10.2"/><path stroke="#000" d="M827.75-149.26l-3.57-6.8.82 4.64-2.76-2.16h0l2.76 2.16-4.7.32 7.45 1.84h0z"/><text x="768.5" y="-182.4" font-family="Lato" font-size="12">a &amp; b</text><text x="779" y="-169.4" font-family="Lato" font-size="12" fill="#ff7f00">❷</text></g><g class="node" transform="translate(4 366)"><circle fill="#ffffa0" stroke="#000" cx="957" cy="-191" r="18"/><text text-anchor="middle" x="957" y="-187.9" font-family="Lato" font-size="12">6</text></g><g class="edge" transform="translate(4 366)"><path fill="none" stroke="#000" d="M739.11-170.68c6.35-10.47 15.8-23.98 26.89-33.32 20.83-17.54 28.47-20.84 55-27 41.05-9.53 88.03 11.91 114.34 26.94"/><path stroke="#000" d="M941.57-200.4l-4.44-6.27 1.42 4.49-3.02-1.77h0l3.02 1.77-4.61.95 7.63.83h0z"/><text x="821" y="-249.4" font-family="Lato" font-size="12">!a &amp; !b</text><text x="836" y="-236.4" font-family="Lato" font-size="12" fill="#6a3d9a">❸</text></g><g class="edge" transform="translate(4 366)"><path fill="none" stroke="#000" d="M833.11-153.09C826.6-165.93 816.12-183.73 803-196c-39.49-36.94-57.05-41.04-110-52-15.6-3.23-33.51-3.74-47.56-3.44"/><path stroke="#000" d="M638.07-251.2l7.1 2.92-3.6-3.03 3.5-.12h0l-3.5.12 3.39-3.26-6.89 3.37h0z"/><text x="711" y="-259.4" font-family="Lato" font-size="12">!a &amp; b</text><text x="724" y="-246.4" font-family="Lato" font-size="12" fill="#ff7f00">❷</text></g><g class="edge" transform="translate(4 366)"><path fill="none" stroke="#000" d="M823.38-135.16c-15.26 1.15-38.11 1.67-57.38-2.84-4.74-1.11-9.59-2.92-14.12-4.95"/><path stroke="#000" d="M745.52-146.03l4.92 5.89-1.77-4.37 3.15 1.53h0l-3.15-1.53 4.52-1.3-7.67-.22h0z"/><text x="766" y="-154.4" font-family="Lato" font-size="12">a &amp; !b</text><text x="778" y="-141.4" font-family="Lato" font-size="12" fill="#1f78b4">⓿</text></g><g class="edge" transform="translate(4 366)"><path fill="none" stroke="#000" d="M859.57-139.76c16.49-3.17 41.79-9.39 61.43-20.24 6.26-3.46 12.36-8.21 17.66-12.96"/><path stroke="#000" d="M944.08-178.04l-7.26 2.5 4.71-.1-2.55 2.39h0l2.55-2.39-.4 4.69 2.95-7.09h0z"/><text x="880" y="-176.4" font-family="Lato" font-size="12">!a &amp; !b</text><text x="894" y="-163.4" font-family="Lato" font-size="12" fill="#1f78b4">⓿</text></g><g class="edge" transform="translate(4 366)"><path fill="none" stroke="#000" d="M938.86-193.34c-40.77-5.28-142.4-16.58-172.86-2.66-9.14 4.18-16.84 12-22.7 19.71"/><path stroke="#000" d="M739.18-170.49l6.62-3.88-4.59 1.03 2.02-2.86h0l-2.02 2.86-.54-4.68-1.49 7.53h0z"/><text x="823" y="-218.4" font-family="Lato" font-size="12">!a &amp; b</text><text x="836" y="-205.4" font-family="Lato" font-size="12" fill="#6a3d9a">❸</text></g><g class="node" transform="translate(4 366)"><circle fill="#ffffa0" stroke="#000" cx="508.5" cy="-104" r="18"/><text text-anchor="middle" x="508.5" y="-100.9" font-family="Lato" font-size="12">2</text></g><g class="edge" transform="translate(4 366)"><path fill="none" stroke="#000" d="M520-118c19.57-26.09 61.68-82.23 84.15-112.2"/><path stroke="#000" d="M608.37-235.83l-6.72 3.71 4.62-.91-2.1 2.8h0l2.1-2.8.42 4.69 1.68-7.49h0z"/><text x="549.5" y="-218.4" font-family="Lato" font-size="12">a &amp; b</text><text x="559" y="-205.4" font-family="Lato" font-size="12" fill="#1f78b4">⓿</text></g><g class="edge" transform="translate(4 366)"><path fill="none" stroke="#000" d="M526.77-104.95C572.17-107.57 698.6-115.67 803-130c4.48-.61 9.23-1.4 13.8-2.22"/><path stroke="#000" d="M823.76-133.52l-7.46-1.81 4.01 2.45-3.44.65h0l3.44-.65-2.86 3.74 6.31-4.38h0z"/><text x="656" y="-133.4" font-family="Lato" font-size="12">a &amp; !b</text><text x="669" y="-120.4" font-family="Lato" font-size="12" fill="#ff4da0">❶</text></g><g class="node" transform="translate(4 366)"><circle fill="#ffffa0" stroke="#000" cx="392.5" cy="-50" r="18"/><text text-anchor="middle" x="392.5" y="-46.9" font-family="Lato" font-size="12">9</text></g><g class="edge" transform="translate(4 366)"><path fill="none" stroke="#000" d="M409.35-57.51c19.74-9.35 53.57-25.37 75.9-35.95"/><path stroke="#000" d="M491.78-96.56l-7.67.15 4.51 1.35-3.16 1.5h0l3.16-1.5-1.81 4.35 4.97-5.85h0z"/><text x="429" y="-100.4" font-family="Lato" font-size="12">!a &amp; !b</text><text x="443" y="-87.4" font-family="Lato" font-size="12" fill="#1f78b4">⓿</text></g><g class="edge" transform="translate(4 366)"><path fill="none" stroke="#000" d="M382.93-65.54c-2.7-10.37.49-20.46 9.57-20.46 6.95 0 10.45 5.92 10.5 13.34"/><path stroke="#000" d="M402.07-65.54l4.03-6.54-3.57 3.07.45-3.47h0l-.45 3.47-2.68-3.88 2.22 7.35h0z"/><text x="376.5" y="-102.4" font-family="Lato" font-size="12">a &amp; b</text><text x="387" y="-89.4" font-family="Lato" font-size="12" fill="#ff7f00">❷</text></g><g class="edge" transform="translate(4 366)"><path fill="none" stroke="#000" d="M181.42-196.24c18.2-19.52 55.84-53.76 96.08-53.76h317.37"/><path stroke="#000" d="M601.93-250l-7-3.15 3.5 3.15h-3.5 3.5l-3.5 3.15 7-3.15h0z"/><text x="376.5" y="-266.4" font-family="Lato" font-size="12">a &amp; b</text><text x="387" y="-253.4" font-family="Lato" font-size="12" fill="#6a3d9a">❸</text></g><g class="node" transform="translate(4 366)"><circle fill="#ffffa0" stroke="#000" cx="278.5" cy="-151" r="18"/><text text-anchor="middle" x="278.5" y="-147.9" font-family="Lato" font-size="12">8</text></g><g class="edge" transform="translate(4 366)"><path fill="none" stroke="#000" d="M181.14-169.35c6.24 6.57 14.62 13.78 23.86 17.35 15.29 5.92 33.8 6.07 48.29 4.8"/><path stroke="#000" d="M260.46-147.98l-7.3-2.38 3.82 2.76-3.48.37h0l3.48-.37-3.14 3.51 6.62-3.89h0z"/><text x="205" y="-168.4" font-family="Lato" font-size="12">!a &amp; b</text><text x="218" y="-155.4" font-family="Lato" font-size="12" fill="#ff4da0">❶</text></g><g class="edge" transform="translate(4 366)"><path fill="none" stroke="#000" d="M296.41-154.54c17.46-3.47 45.54-8.5 70.09-10.46 126.85-10.14 279.42 2.01 337.73 7.54"/><path stroke="#000" d="M711.5-156.76l-6.66-3.81 3.18 3.47-3.48-.33h0l3.48.33-3.79 2.8 7.27-2.46h0z"/><text x="488" y="-184.4" font-family="Lato" font-size="12">!a &amp; !b</text><text x="503" y="-171.4" font-family="Lato" font-size="12" fill="#6a3d9a">❸</text></g><g class="edge" transform="translate(4 366)"><path fill="none" stroke="#000" d="M284.82-133.89C290.63-116.78 301-90.18 315-70c37.73 54.38 67.31 66 133.5 66h282c55.99 0 88.85-70.87 102.52-109.14"/><path stroke="#000" d="M835.35-119.88l-5.27 5.58 4.12-2.28-1.14 3.31h0l1.14-3.31 1.84 4.34-.69-7.64h0z"/><text x="547" y="-20.4" font-family="Lato" font-size="12">a &amp; !b</text><text x="560" y="-7.4" font-family="Lato" font-size="12" fill="#ff7f00">❷</text></g><g class="edge" transform="translate(4 366)"><path fill="none" stroke="#000" d="M296.4-148.12c33.35 5.77 109.9 19.46 173.6 34.12 4.48 1.03 9.24 2.22 13.81 3.42"/><path stroke="#000" d="M490.76-108.73l-5.95-4.85 2.57 3.95-3.38-.9h0l3.38.9-4.19 2.14 7.57-1.24h0z"/><text x="374" y="-151.4" font-family="Lato" font-size="12">a &amp; !b</text><text x="387" y="-138.4" font-family="Lato" font-size="12" fill="#6a3d9a">❸</text></g><g class="edge" transform="translate(4 366)"><path fill="none" stroke="#000" d="M289.93-136.73c6.7 8.73 15.85 19.88 25.07 28.73 17.52 16.81 39.87 33.27 55.88 44.33"/><path stroke="#000" d="M376.9-59.56l-4.01-6.55 1.12 4.58-2.89-1.98h0l2.89 1.98-4.67.62 7.56 1.35h0z"/><text x="315" y="-124.4" font-family="Lato" font-size="12">!a &amp; !b</text><text x="330" y="-111.4" font-family="Lato" font-size="12" fill="#ff4da0">❶</text></g><g class="edge" transform="translate(4 366)"><path fill="none" stroke="#000" d="M265.13-163.27c-6.37-5.53-14.58-11.51-23.13-14.73-15.18-5.71-33.42-6.92-47.74-6.73"/><path stroke="#000" d="M187.17-184.51l7.09 2.93-3.59-3.04 3.49-.11h0l-3.49.11 3.4-3.25-6.9 3.36h0z"/><text x="205" y="-200.4" font-family="Lato" font-size="12">!a &amp; b</text><text x="218" y="-187.4" font-family="Lato" font-size="12" fill="#ff4da0">❶</text></g><g class="edge" transform="translate(4 366)"><path fill="none" stroke="#000" d="M155.08-45.61C148.76-50.85 140.84-56.78 133-61c-16.57-8.91-36.79-15.65-52.2-20.03"/><path stroke="#000" d="M73.66-82.99l5.91 4.89-2.54-3.97 3.38.93h0l-3.38-.93 4.21-2.11-7.58 1.19h0z"/><text x="94" y="-93.4" font-family="Lato" font-size="12">!a &amp; b</text><text x="107" y="-80.4" font-family="Lato" font-size="12" fill="#6a3d9a">❸</text></g><g class="edge" transform="translate(4 366)"><path fill="none" stroke="#000" d="M186.22-28.39C227.12-15.23 336.96 14.06 418.5-20c31.76-13.27 58.97-43.38 74.66-63.71"/><path stroke="#000" d="M497.47-89.42l-6.73 3.69 4.62-.89-2.11 2.79h0l2.11-2.79.41 4.69 1.7-7.49h0z"/><text x="317" y="-22.4" font-family="Lato" font-size="12">!a &amp; b</text><text x="330" y="-9.4" font-family="Lato" font-size="12" fill="#ff4da0">❶</text></g><g class="edge" transform="translate(4 366)"><path fill="none" stroke="#000" d="M187.01-35.23c39.06-2.82 135.24-9.77 180.37-13.03"/><path stroke="#000" d="M374.43-48.77l-7.21-2.63 3.72 2.89-3.49.25h0l3.49-.25-3.27 3.39 6.76-3.65h0z"/><text x="260" y="-59.4" font-family="Lato" font-size="12">a &amp; !b</text><text x="272" y="-46.4" font-family="Lato" font-size="12" fill="#1f78b4">⓿</text></g></g></svg>