<?xml-stylesheet href="spot.css" type="text/css"?><svg width="631pt" height="266pt" viewBox="0 0 631 266" xmlns="http://www.w3.org/2000/svg"><g class="graph"><path fill="#fff" stroke="transparent" d="M0 266V0h631v266H0z"/><text x="207.5" y="-245.4" font-family="Lato" font-size="12" transform="translate(4 262)">(Fin(</text><text x="233.5" y="-245.4" font-family="Lato" font-size="12" fill="#1f78b4" transform="translate(4 262)">⓿</text><text x="246.5" y="-245.4" font-family="Lato" font-size="12" transform="translate(4 262)">) | Inf(</text><text x="283.5" y="-245.4" font-family="Lato" font-size="12" fill="#ff4da0" transform="translate(4 262)">❶</text><text x="294.5" y="-245.4" font-family="Lato" font-size="12" transform="translate(4 262)">)) &amp; (Fin(</text><text x="346.5" y="-245.4" font-family="Lato" font-size="12" fill="#ff7f00" transform="translate(4 262)">❷</text><text x="357.5" y="-245.4" font-family="Lato" font-size="12" transform="translate(4 262)">) | Inf(</text><text x="394.5" y="-245.4" font-family="Lato" font-size="12" fill="#6a3d9a" transform="translate(4 262)">❸</text><text x="405.5" y="-245.4" font-family="Lato" font-size="12" transform="translate(4 262)">))</text><text x="281" y="-233.4" font-family="Lato" font-size="12" transform="translate(4 262)">[Streett 2]</text><g class="node" transform="translate(4 262)"><path fill="#ffffa0" stroke="#000" d="M62-81H50c-6 0-12 6-12 12v12c0 6 6 12 12 12h12c6 0 12-6 12-12v-12c0-6-6-12-12-12"/><text text-anchor="middle" x="56" y="-59.9" font-family="Lato" font-size="12">0</text></g><g class="edge" transform="translate(4 262)"><path fill="none" stroke="#000" d="M1.15-63h29.48"/><path stroke="#000" d="M37.94-63l-7-3.15 3.5 3.15h-3.5 3.5l-3.5 3.15 7-3.15h0z"/></g><g class="node" transform="translate(4 262)"><path fill="#ffffa0" stroke="#000" d="M202-116h-16c-6 0-12 6-12 12v12c0 6 6 12 12 12h16c6 0 12-6 12-12v-12c0-6-6-12-12-12"/><text x="190" y="-101.4" font-family="Lato" font-size="12">2</text><text x="182" y="-89.4" font-family="Lato" font-size="12" fill="#1f78b4">⓿</text><text x="195" y="-89.4" font-family="Lato" font-size="12" fill="#ff7f00">❷</text></g><g class="edge" transform="translate(4 262)"><path fill="none" stroke="#000" d="M74.22-67.43l92.57-23.82"/><path stroke="#000" d="M173.73-93.04l-7.57-1.31 4.18 2.18-3.39.87h0l3.39-.87-2.61 3.93 6-4.8h0z"/><text x="92" y="-88.4" font-family="Lato" font-size="12">!p0 &amp; !p1</text></g><g class="node" transform="translate(4 262)"><path fill="#ffffa0" stroke="#000" d="M344-90h-12c-6 0-12 6-12 12v12c0 6 6 12 12 12h12c6 0 12-6 12-12v-12c0-6-6-12-12-12"/><text text-anchor="middle" x="338" y="-68.9" font-family="Lato" font-size="12">1</text></g><g class="edge" transform="translate(4 262)"><path fill="none" stroke="#000" d="M74.24-57.32C113.7-45.22 213.24-19.82 292-43c7.65-2.25 15.22-6.25 21.91-10.57"/><path stroke="#000" d="M319.78-57.59l-7.55 1.36 4.66.62-2.89 1.98h0l2.89-1.98-1.11 4.58 4-6.56h0z"/><text x="166" y="-39.4" font-family="Lato" font-size="12">!p0 &amp; !p1</text></g><g class="node" transform="translate(4 262)"><path fill="#ffffa0" stroke="#000" d="M603-185h-12c-6 0-12 6-12 12v12c0 6 6 12 12 12h12c6 0 12-6 12-12v-12c0-6-6-12-12-12"/><text text-anchor="middle" x="597" y="-163.9" font-family="Lato" font-size="12">3</text></g><g class="edge" transform="translate(4 262)"><path fill="none" stroke="#000" d="M63.47-81.09C79.02-120.99 122.52-213 193-213h285c34.77 0 71.61 17.55 94.69 30.97"/><path stroke="#000" d="M578.83-178.37l-4.4-6.29 1.39 4.5-3.01-1.8h0l3.01 1.8-4.62.91 7.63.88h0z"/><text x="310" y="-216.4" font-family="Lato" font-size="12">!p0 &amp; !p1</text></g><g class="edge" transform="translate(4 262)"><path fill="none" stroke="#000" d="M180.97-116.15c-2-9.39 2.34-17.85 13.03-17.85 7.85 0 12.27 4.56 13.28 10.7"/><path stroke="#000" d="M207.03-116.15l3.39-6.89-3.27 3.39.12-3.5h0l-.12 3.5-3.02-3.61 2.9 7.11h0z"/><text x="166" y="-137.4" font-family="Lato" font-size="12">!p0 &amp; !p1</text></g><g class="edge" transform="translate(4 262)"><path fill="none" stroke="#000" d="M214.15-94.49c25.57 4.68 70.88 12.97 98.75 18.08"/><path stroke="#000" d="M319.92-75.13l-6.31-4.36 2.87 3.73-3.44-.63h0l3.44.63-4.01 2.47 7.45-1.84h0z"/><text x="240" y="-92.4" font-family="Lato" font-size="12">!p0 &amp; p1</text></g><g class="node" transform="translate(4 262)"><path fill="#ffffa0" stroke="#000" d="M344-36h-12c-6 0-12 6-12 12v12c0 6 6 12 12 12h12c6 0 12-6 12-12v-12c0-6-6-12-12-12"/><text text-anchor="middle" x="338" y="-14.9" font-family="Lato" font-size="12">4</text></g><g class="edge" transform="translate(4 262)"><path fill="none" stroke="#000" d="M214.02-81.66C221.79-75.4 231.04-68.46 240-63c23.82 14.53 53.1 27.51 73.22 35.75"/><path stroke="#000" d="M319.93-24.54l-5.31-5.54 2.07 4.23-3.25-1.31h0l3.25 1.31-4.43 1.61 7.67-.3h0z"/><text x="242.5" y="-66.4" font-family="Lato" font-size="12">p0 &amp; p1</text></g><g class="node" transform="translate(4 262)"><path fill="#ffffa0" stroke="#000" d="M484-116h-14c-6 0-12 6-12 12v12c0 6 6 12 12 12h14c6 0 12-6 12-12v-12c0-6-6-12-12-12"/><text x="473" y="-101.4" font-family="Lato" font-size="12">5</text><text x="466" y="-89.4" font-family="Lato" font-size="12" fill="#ff4da0">❶</text><text x="477" y="-89.4" font-family="Lato" font-size="12" fill="#ff7f00">❷</text></g><g class="edge" transform="translate(4 262)"><path fill="none" stroke="#000" d="M356.15-65.82C376.83-59.41 412.27-51.74 440-63c6.41-2.6 12.3-6.95 17.38-11.71"/><path stroke="#000" d="M462.56-79.98l-7.15 2.78 4.7-.29-2.46 2.5h0l2.46-2.5-.21 4.71 2.66-7.2h0z"/><text x="386" y="-66.4" font-family="Lato" font-size="12">!p0 &amp; p1</text></g><g class="edge" transform="translate(4 262)"><path fill="none" stroke="#000" d="M578.91-164.87C534.54-159.32 412.02-143.98 310-131c-31.12 3.96-40.12-.54-70 9-6.57 2.1-13.3 5.14-19.49 8.35"/><path stroke="#000" d="M214.03-110.12l7.66-.58-4.58-1.1 3.07-1.67h0l-3.07 1.67 1.57-4.44-4.65 6.12h0z"/><text x="384" y="-150.4" font-family="Lato" font-size="12">!p0 &amp; !p1</text></g><g class="edge" transform="translate(4 262)"><path fill="none" stroke="#000" d="M586.51-185.15C584.89-194.54 588.39-203 597-203c6.32 0 9.89 4.56 10.7 10.7"/><path stroke="#000" d="M607.49-185.15l3.35-6.91-3.25 3.41.1-3.5h0l-.1 3.5-3.05-3.59 2.95 7.09h0z"/><text x="571" y="-206.4" font-family="Lato" font-size="12">!p0 &amp; p1</text></g><g class="edge" transform="translate(4 262)"><path fill="none" stroke="#000" d="M457.89-104.06c-5.66-1.62-11.98-3.13-17.89-3.94-88.08-12.01-111.51-6.42-200 2-6.13.58-12.68 1.55-18.83 2.61"/><path stroke="#000" d="M214.18-102.12l7.45 1.85-4.01-2.47 3.44-.63h0l-3.44.63 2.88-3.73-6.32 4.35h0z"/><text x="310" y="-117.4" font-family="Lato" font-size="12">!p0 &amp; !p1</text></g><g class="edge" transform="translate(4 262)"><path fill="none" stroke="#000" d="M457.84-94.55c-24.32 4.61-67.51 12.81-94.59 17.95"/><path stroke="#000" d="M356.07-75.24l7.47 1.79-4.03-2.44 3.44-.66h0l-3.44.66 2.85-3.75-6.29 4.4h0z"/><text x="388.5" y="-94.4" font-family="Lato" font-size="12">p0 &amp; p1</text></g><g class="edge" transform="translate(4 262)"><path fill="none" stroke="#000" d="M496.02-105.92c17.18-7.82 43.54-20.55 64.98-34.08 4.01-2.53 8.13-5.41 12.06-8.33"/><path stroke="#000" d="M578.66-152.59l-7.47 1.73 4.69.39-2.79 2.12h0l2.79-2.12-.88 4.62 3.66-6.74h0z"/><text x="514" y="-143.4" font-family="Lato" font-size="12">p0 &amp; p1</text></g><g class="edge" transform="translate(4 262)"><path fill="none" stroke="#000" d="M319.91-16.19C289.03-13.27 221.92-8.58 166-16c-33.77-4.48-43.48-4.86-74-20-4.06-2.01-8.11-4.54-11.94-7.22"/><path stroke="#000" d="M74.26-47.54L78-40.83l-.93-4.62 2.81 2.09h0l-2.81-2.09 4.69-.44-7.5-1.65h0z"/><text x="166" y="-19.4" font-family="Lato" font-size="12">!p0 &amp; !p1</text></g><g class="edge" transform="translate(4 262)"><path fill="none" stroke="#000" d="M356.34-17.8c21.52-.58 58.45-4.39 83.66-22.2 11.68-8.25 20.35-21.61 26.25-33.42"/><path stroke="#000" d="M469.24-79.79l-5.83 4.99 4.34-1.82-1.49 3.17h0l1.49-3.17 1.36 4.51.13-7.68h0z"/><text x="386" y="-43.4" font-family="Lato" font-size="12">!p0 &amp; p1</text></g></g></svg>