<?xml-stylesheet href="spot.css" type="text/css"?><svg width="535pt" height="230pt" viewBox="0 0 535 230" xmlns="http://www.w3.org/2000/svg"><g class="graph" transform="translate(4 226)"><path fill="#fff" stroke="transparent" d="M-4 4v-230h535V4H-4z"/><text x="242" y="-208.4" font-family="Lato" font-size="12">[Büchi]</text><g class="node"><circle fill="#ffffa0" stroke="#000" cx="56" cy="-103" r="18"/><text text-anchor="middle" x="56" y="-99.9" font-family="Lato" font-size="12">3</text></g><g class="edge"><path fill="none" stroke="#000" d="M1.15-103h29.48"/><path stroke="#000" d="M37.94-103l-7-3.15 3.5 3.15h-3.5 3.5l-3.5 3.15 7-3.15h0z"/></g><g class="edge"><path fill="none" stroke="#000" d="M49.62-120.04c-1.3-9.82.83-18.96 6.38-18.96 4.17 0 6.4 5.14 6.71 11.86"/><path stroke="#000" d="M62.38-120.04l3.47-6.84-3.31 3.35.17-3.5h0l-.17 3.5-2.98-3.65 2.82 7.14h0z"/><text x="1.5" y="-142.4" font-family="Lato" font-size="12">a &amp; alive &amp; !b &amp; !c</text></g><g class="node"><circle fill="#ffffa0" stroke="#000" cx="252" cy="-152" r="18"/><text text-anchor="middle" x="252" y="-148.9" font-family="Lato" font-size="12">1</text></g><g class="edge"><path fill="none" stroke="#000" d="M72.83-109.97c5.94-2.44 12.79-5.07 19.17-7.03 47.02-14.47 103.6-25.44 135-30.99"/><path stroke="#000" d="M234.05-149.21l-7.43-1.91 3.99 2.51-3.45.6h0l3.45-.6-2.91 3.7 6.35-4.3h0z"/><text x="104" y="-144.4" font-family="Lato" font-size="12">alive &amp; b &amp; !c</text></g><g class="node"><circle fill="#ffffa0" stroke="#000" cx="396" cy="-103" r="18"/><text text-anchor="middle" x="396" y="-99.9" font-family="Lato" font-size="12">2</text></g><g class="edge"><path fill="none" stroke="#000" d="M74.23-103h296.21"/><path stroke="#000" d="M377.81-103l-7-3.15 3.5 3.15h-3.5 3.5l-3.5 3.15 7-3.15h0z"/><text x="214" y="-106.4" font-family="Lato" font-size="12">alive &amp; b &amp; c</text></g><g class="node"><circle fill="#ffffa0" stroke="#000" cx="252" cy="-18" r="18"/><text text-anchor="middle" x="252" y="-14.9" font-family="Lato" font-size="12">4</text></g><g class="edge"><path fill="none" stroke="#000" d="M69.96-91.46C76.28-86.24 84.2-80.29 92-76c45.46 25.04 103.89 43.14 135.74 51.95"/><path stroke="#000" d="M234.5-22.21l-5.93-4.88 2.55 3.96-3.38-.92h0l3.38.92-4.21 2.12 7.59-1.2h0z"/><text x="92" y="-79.4" font-family="Lato" font-size="12">a &amp; alive &amp; !b &amp; c</text></g><g class="node"><circle fill="#ffffa0" stroke="#000" cx="505" cy="-103" r="18"/><circle fill="none" stroke="#000" cx="505" cy="-103" r="22"/><text text-anchor="middle" x="505" y="-99.9" font-family="Lato" font-size="12">0</text></g><g class="edge"><path fill="none" stroke="#000" d="M494.93-122.76C493.22-133.35 496.58-143 505-143c6.45 0 9.93 5.66 10.43 13.06"/><path stroke="#000" d="M515.07-122.76l3.5-6.83-3.32 3.34.18-3.5h0l-.18 3.5-2.97-3.66 2.79 7.15h0z"/><text x="488.5" y="-146.4" font-family="Lato" font-size="12">!alive</text></g><g class="edge"><path fill="none" stroke="#000" d="M239.16-164.92C233.31-176.13 237.59-188 252-188c11.49 0 16.54 7.53 15.15 16.27"/><path stroke="#000" d="M264.84-164.92l5.23-5.61-4.11 2.3 1.13-3.32h0l-1.13 3.32-1.85-4.33.73 7.64h0z"/><text x="224" y="-191.4" font-family="Lato" font-size="12">alive &amp; !c</text></g><g class="edge"><path fill="none" stroke="#000" d="M269.43-146.99c21.1 6.52 58.79 18.45 90.57 29.99 4.02 1.46 8.27 3.09 12.37 4.7"/><path stroke="#000" d="M379.05-109.63l-5.33-5.52 2.08 4.22-3.25-1.3h0l3.25 1.3-4.42 1.63 7.67-.33h0z"/><text x="308" y="-136.4" font-family="Lato" font-size="12">alive &amp; c</text></g><g class="edge"><path fill="none" stroke="#000" d="M414.19-103h61.43"/><path stroke="#000" d="M482.8-103l-7-3.15 3.5 3.15h-3.5 3.5l-3.5 3.15 7-3.15h0z"/><text x="432" y="-106.4" font-family="Lato" font-size="12">!alive</text></g><g class="edge"><path fill="none" stroke="#000" d="M387.02-118.92c-2.34-10.23.65-20.08 8.98-20.08 6.38 0 9.63 5.77 9.75 13.07"/><path stroke="#000" d="M404.98-118.92l3.89-6.61-3.51 3.13.38-3.47h0l-.38 3.47-2.75-3.82 2.37 7.3h0z"/><text x="382" y="-142.4" font-family="Lato" font-size="12">alive</text></g><g class="edge"><path fill="none" stroke="#000" d="M268.69-25.51C289.94-35.91 328.83-55.72 360-76c5.36-3.49 10.95-7.57 16.03-11.49"/><path stroke="#000" d="M381.74-91.96l-7.45 1.84 4.7.32-2.76 2.16h0l2.76-2.16-.81 4.64 3.56-6.8h0z"/><text x="308" y="-79.4" font-family="Lato" font-size="12">alive &amp; b</text></g><g class="edge"><path fill="none" stroke="#000" d="M239.16-30.92C233.31-42.13 237.59-54 252-54c11.49 0 16.54 7.53 15.15 16.27"/><path stroke="#000" d="M264.84-30.92l5.23-5.61-4.11 2.3 1.13-3.32h0l-1.13 3.32-1.85-4.33.73 7.64h0z"/><text x="211.5" y="-57.4" font-family="Lato" font-size="12">a &amp; alive &amp; !b</text></g></g></svg>