<?xml-stylesheet href="spot.css" type="text/css"?><svg width="215pt" height="205pt" viewBox="0 0 214.6 205" xmlns="http://www.w3.org/2000/svg"><g class="graph"><path fill="#fff" stroke="transparent" d="M0 205V0h214.6v205H0z"/><text x="83.3" y="-184.4" font-family="Lato" font-size="12" transform="translate(4 201)">Fin(</text><text x="105.3" y="-184.4" font-family="Lato" font-size="12" fill="#1f78b4" transform="translate(4 201)">⓿</text><text x="118.3" y="-184.4" font-family="Lato" font-size="12" transform="translate(4 201)">)</text><text x="72.8" y="-172.4" font-family="Lato" font-size="12" transform="translate(4 201)">[co-Büchi]</text><g class="node" transform="translate(4 201)"><circle fill="#ffffa0" stroke="#000" cx="39.8" cy="-88" r="1.8"/></g><g class="edge" transform="translate(4 201)"><path fill="none" stroke="#000" d="M1.11-88H30.8M30.92-90.45l7 2.45-7 2.45v-4.9z"/></g><g class="node" transform="translate(4 201)"><circle fill="#ffffa0" stroke="#000" cx="108.6" cy="-116" r="18"/><text text-anchor="middle" x="108.6" y="-112.9" font-family="Lato" font-size="12">0</text></g><g class="edge" transform="translate(4 201)"><path fill="none" stroke="#000" d="M41.74-88.89c2.61-2.45 10.28-9.34 17.86-13.11 7.5-3.73 16.16-6.64 24.04-8.81"/><path stroke="#000" d="M90.61-112.61l-7.56-1.3 4.17 2.18-3.39.87h0l3.39-.87-2.6 3.92 5.99-4.8h0z"/></g><g class="node" transform="translate(4 201)"><circle fill="#ffffa0" stroke="#000" cx="108.6" cy="-18" r="18"/><text text-anchor="middle" x="108.6" y="-14.9" font-family="Lato" font-size="12">1</text></g><g class="edge" transform="translate(4 201)"><path fill="none" stroke="#000" d="M41.55-87.21c4.73 4.95 30.78 32.25 48.72 51.05"/><path stroke="#000" d="M95.54-30.64l-2.55-7.23.14 4.7-2.42-2.53h0l2.42 2.53-4.7-.36 7.11 2.89h0z"/></g><g class="edge" transform="translate(4 201)"><path fill="none" stroke="#000" d="M96.48-102.3C90.24-95.72 81.86-88.51 72.6-85c-7.8 2.96-17.42 1.4-24.03-.38M47.51-83.15l-5.89-4.51 7.42-.15-1.53 4.66z"/><text x="59.6" y="-88.4" font-family="Lato" font-size="12">!a</text></g><g class="edge" transform="translate(4 201)"><path fill="none" stroke="#000" d="M101.57-132.66c-1.56-9.96.78-19.34 7.03-19.34 4.69 0 7.18 5.27 7.47 12.11"/><path stroke="#000" d="M115.63-132.66l3.57-6.8-3.36 3.3.22-3.49h0l-.22 3.49-2.93-3.68 2.72 7.18h0z"/><text x="104.6" y="-155.4" font-family="Lato" font-size="12">a</text></g><g class="edge" transform="translate(4 201)"><path fill="none" stroke="#000" d="M101.57-34.66c-1.56-9.96.78-19.34 7.03-19.34 4.69 0 7.18 5.27 7.47 12.11"/><path stroke="#000" d="M115.63-34.66l3.57-6.8-3.36 3.3.22-3.49h0l-.22 3.49-2.93-3.68 2.72 7.18h0z"/><text x="102.1" y="-70.4" font-family="Lato" font-size="12">!a</text><text x="102.1" y="-57.4" font-family="Lato" font-size="12" fill="#1f78b4">⓿</text></g><g class="node" transform="translate(4 201)"><circle fill="#ffffa0" stroke="#000" cx="188.6" cy="-18" r="18"/><text text-anchor="middle" x="188.6" y="-14.9" font-family="Lato" font-size="12">2</text></g><g class="edge" transform="translate(4 201)"><path fill="none" stroke="#000" d="M126.91-18h36.4"/><path stroke="#000" d="M170.34-18l-7-3.15 3.5 3.15h-3.5 3.5l-3.5 3.15 7-3.15h0z"/><text x="144.6" y="-21.4" font-family="Lato" font-size="12">a</text></g><g class="edge" transform="translate(4 201)"><path fill="none" stroke="#000" d="M181.57-34.66c-1.56-9.96.78-19.34 7.03-19.34 4.69 0 7.18 5.27 7.47 12.11"/><path stroke="#000" d="M195.63-34.66l3.57-6.8-3.36 3.3.22-3.49h0l-.22 3.49-2.93-3.68 2.72 7.18h0z"/><text text-anchor="middle" x="188.6" y="-57.4" font-family="Lato" font-size="12">1</text></g></g></svg>