<?xml-stylesheet href="spot.css" type="text/css"?><svg width="620pt" height="176" viewBox="0 0 619.72 132" xmlns="http://www.w3.org/2000/svg"><g class="graph"><path fill="#fff" stroke="transparent" d="M0 132V0h619.72v132H0z"/><text x="303.36" y="-110.4" font-family="Lato" font-size="12" transform="translate(4 128)">t</text><text x="294.36" y="-97.4" font-family="Lato" font-size="12" transform="translate(4 128)">[all]</text><g class="node" transform="translate(4 128)"><path fill="#ffffa0" stroke="#000" d="M73-63H49c-6 0-12 6-12 12v12c0 6 6 12 12 12h24c6 0 12-6 12-12v-12c0-6-6-12-12-12"/><text x="45" y="-41.9" font-family="Lato" font-size="12">(4, 0)</text></g><g class="edge" transform="translate(4 128)"><path fill="none" stroke="#000" d="M1.17-45H29.8"/><path stroke="#000" d="M36.86-45l-7-3.15 3.5 3.15h-3.5 3.5l-3.5 3.15 7-3.15h0z"/></g><g class="node" transform="translate(4 128)"><path fill="#ffffa0" stroke="#000" d="M151.78-58.23l-19.56 8.46c-5.5 2.39-5.5 7.15 0 9.54l19.56 8.46c5.5 2.39 16.51 2.39 22.02 0l19.55-8.46c5.51-2.39 5.51-7.15 0-9.54l-19.55-8.46c-5.51-2.39-16.52-2.39-22.02 0"/><text x="146.79" y="-41.9" font-family="Lato" font-size="12">(6, 0)</text></g><g class="edge" transform="translate(4 128)"><path fill="none" stroke="#000" d="M85.14-45h28.77"/><path stroke="#000" d="M121.16-45l-7-3.15 3.5 3.15h-3.5 3.5l-3.5 3.15 7-3.15h0z"/></g><g class="node" transform="translate(4 128)"><path fill="#ffffa0" stroke="#000" d="M276.57-90h-24c-6 0-12 6-12 12v12c0 6 6 12 12 12h24c6 0 12-6 12-12v-12c0-6-6-12-12-12"/><text x="248.57" y="-68.9" font-family="Lato" font-size="12">(5, 1)</text></g><g class="edge" transform="translate(4 128)"><path fill="none" stroke="#000" d="M188.97-51.81c13.59-3.68 30.46-8.25 44.72-12.1"/><path stroke="#000" d="M240.45-65.74l-7.58-1.22 4.21 2.13-3.38.91h0l3.38-.91-2.56 3.95 5.93-4.86h0z"/></g><g class="node" transform="translate(4 128)"><path fill="#ffffa0" stroke="#000" d="M276.57-36h-24c-6 0-12 6-12 12v12c0 6 6 12 12 12h24c6 0 12-6 12-12v-12c0-6-6-12-12-12"/><text x="248.57" y="-14.9" font-family="Lato" font-size="12">(5, 2)</text></g><g class="edge" transform="translate(4 128)"><path fill="none" stroke="#000" d="M188.97-38.19c13.59 3.68 30.46 8.25 44.72 12.1"/><path stroke="#000" d="M240.45-24.26l-5.93-4.86 2.56 3.95-3.38-.91h0l3.38.91-4.21 2.13 7.58-1.22h0z"/></g><g class="node" transform="translate(4 128)"><path fill="#ffffa0" stroke="#000" d="M355.35-85.23l-19.55 8.46c-5.51 2.39-5.51 7.15 0 9.54l19.55 8.46c5.51 2.39 16.52 2.39 22.02 0l19.56-8.46c5.5-2.39 5.5-7.15 0-9.54l-19.56-8.46c-5.5-2.39-16.51-2.39-22.02 0"/><text x="350.36" y="-68.9" font-family="Lato" font-size="12">(7, 1)</text></g><g class="edge" transform="translate(4 128)"><path fill="none" stroke="#000" d="M288.72-66.2c12.65 1 28.55 1.21 42.59.64"/><path stroke="#000" d="M338.46-65.93l-7.16-2.79 3.66 2.97-3.49.18h0l3.49-.18-3.33 3.33 6.83-3.51h0z"/></g><g class="node" transform="translate(4 128)"><path fill="#ffffa0" stroke="#000" d="M355.35-31.23l-19.55 8.46c-5.51 2.39-5.51 7.15 0 9.54l19.55 8.46c5.51 2.39 16.52 2.39 22.02 0l19.56-8.46c5.5-2.39 5.5-7.15 0-9.54l-19.56-8.46c-5.5-2.39-16.51-2.39-22.02 0"/><text x="350.36" y="-14.9" font-family="Lato" font-size="12">(7, 2)</text></g><g class="edge" transform="translate(4 128)"><path fill="none" stroke="#000" d="M288.72-18h28.77"/><path stroke="#000" d="M324.74-18l-7-3.15 3.5 3.15h-3.5 3.5l-3.5 3.15 7-3.15h0z"/></g><g class="edge" transform="translate(4 128)"><path fill="none" stroke="#000" d="M338.46-78.07c-13.11-.83-28.93-.9-42.48-.2"/><path stroke="#000" d="M288.72-77.8l7.19 2.69-3.7-2.92 3.49-.22h0l-3.49.22 3.29-3.37-6.78 3.6h0z"/></g><g class="node" transform="translate(4 128)"><path fill="#ffffa0" stroke="#000" d="M480.15-36h-24c-6 0-12 6-12 12v12c0 6 6 12 12 12h24c6 0 12-6 12-12v-12c0-6-6-12-12-12"/><text x="452.15" y="-14.9" font-family="Lato" font-size="12">(5, 3)</text></g><g class="edge" transform="translate(4 128)"><path fill="none" stroke="#000" d="M407.95-18h29.04"/><path stroke="#000" d="M444.07-18l-7-3.15 3.5 3.15h-3.5 3.5l-3.5 3.15 7-3.15h0z"/></g><g class="node" transform="translate(4 128)"><path fill="#ffffa0" stroke="#000" d="M558.92-31.23l-19.55 8.46c-5.5 2.39-5.5 7.15 0 9.54l19.55 8.46c5.51 2.39 16.52 2.39 22.03 0l19.55-8.46c5.51-2.39 5.51-7.15 0-9.54l-19.55-8.46c-5.51-2.39-16.52-2.39-22.03 0"/><text x="553.94" y="-14.9" font-family="Lato" font-size="12">(7, 3)</text></g><g class="edge" transform="translate(4 128)"><path fill="none" stroke="#000" d="M492.29-18h28.77"/><path stroke="#000" d="M528.31-18l-7-3.15 3.5 3.15h-3.5 3.5l-3.5 3.15 7-3.15h0z"/></g></g></svg>