<?xml-stylesheet href="spot.css" type="text/css"?><svg width="216" height="104" viewBox="0 0 162 78" xmlns="http://www.w3.org/2000/svg"><g class="graph" transform="translate(4 74)"><path fill="#fff" stroke="transparent" d="M-4 4v-78h162V4H-4z"/><text x="74.5" y="-56.4" font-family="Lato" font-size="12">t</text><text x="65.5" y="-43.4" font-family="Lato" font-size="12">[all]</text><g class="node"><circle fill="#ffffa0" stroke="#000" cx="56" cy="-18" r="18"/><text text-anchor="middle" x="56" y="-14.9" font-family="Lato" font-size="12">0</text></g><g class="edge"><path fill="none" stroke="#000" d="M1.15-18h29.48"/><path stroke="#000" d="M37.94-18l-7-3.15 3.5 3.15h-3.5 3.5l-3.5 3.15 7-3.15h0z"/></g><g class="node"><circle fill="#ffffa0" stroke="#000" cx="136" cy="-18" r="18"/><text text-anchor="middle" x="136" y="-14.9" font-family="Lato" font-size="12">1</text></g><g class="edge"><path fill="none" stroke="#000" d="M74.31-18h36.4"/><path stroke="#000" d="M117.74-18l-7-3.15 3.5 3.15h-3.5 3.5l-3.5 3.15 7-3.15h0z"/><text text-anchor="middle" x="96" y="-21.4" font-family="Lato" font-size="12">1</text></g><g class="edge"><path fill="none" stroke="#000" d="M120.22-8.98C114.18-5.8 106.98-2.61 100-1 92.49.73 84.57-1.23 77.59-4.35"/><path stroke="#000" d="M70.99-7.77l4.77 6.01-1.66-4.4 3.11 1.61h0L74.1-6.16l4.55-1.19-7.66-.42h0z"/><text x="92" y="-4.4" font-family="Lato" font-size="12">a</text></g></g></svg>