<?xml-stylesheet href="spot.css" type="text/css"?><svg width="652" height="170pt" viewBox="0 0 488.6 169.8" xmlns="http://www.w3.org/2000/svg"><g class="graph"><path fill="#fff" stroke="transparent" d="M0 169.8V0h488.6v169.8H0z"/><text x="220.3" y="-149.2" font-family="Lato" font-size="12" transform="translate(4 165.8)">Fin(</text><text x="242.3" y="-149.2" font-family="Lato" font-size="12" fill="#1f78b4" transform="translate(4 165.8)">⓿</text><text x="255.3" y="-149.2" font-family="Lato" font-size="12" transform="translate(4 165.8)">)</text><text x="209.8" y="-137.2" font-family="Lato" font-size="12" transform="translate(4 165.8)">[co-Büchi]</text><g class="node" transform="translate(4 165.8)"><path fill="#ffffa0" stroke="#000" d="M122-72.8H50c-6 0-12 6-12 12v12c0 6 6 12 12 12h72c6 0 12-6 12-12v-12c0-6-6-12-12-12"/><text x="46" y="-51.7" font-family="Lato" font-size="12">GF(a &lt;-&gt; Xb)</text></g><g class="edge" transform="translate(4 165.8)"><path fill="none" stroke="#000" d="M1.06-54.8h29.4"/><path stroke="#000" d="M37.7-54.8l-7-3.15 3.5 3.15h-3.5 3.5l-3.5 3.15 7-3.15h0z"/></g><g class="node" transform="translate(4 165.8)"><circle fill="#ffffa0" stroke="#000" cx="184.8" cy="-124.8" r="1.8"/></g><g class="edge" transform="translate(4 165.8)"><path fill="none" stroke="#000" d="M105.16-73.05c12.43-11.81 29.71-26.94 46.84-37.75 7.68-4.84 17.32-8.83 23.96-11.3M175.55-124.55l7.42.01-5.81 4.62-1.61-4.63z"/><text x="152" y="-120.2" font-family="Lato" font-size="12">!a</text></g><g class="node" transform="translate(4 165.8)"><circle fill="#ffffa0" stroke="#000" cx="184.8" cy="-1.8" r="1.8"/></g><g class="edge" transform="translate(4 165.8)"><path fill="none" stroke="#000" d="M120.04-36.71c20.25 11.09 44.51 24.37 56.42 30.89M177.93-7.81l4.96 5.51-7.31-1.21 2.35-4.3z"/><text x="154.5" y="-23.2" font-family="Lato" font-size="12">a</text></g><g class="node" transform="translate(4 165.8)"><circle fill="#ffffa0" stroke="#000" cx="184.8" cy="-47.8" r="1.8"/></g><g class="edge" transform="translate(4 165.8)"><path fill="none" stroke="#000" d="M134.04-52.1c10.22.67 20.95 1.45 30.96 2.3 3.51.3 7.38.7 10.69 1.06M176.11-51.16l6.67 3.24-7.23 1.63.56-4.87z"/><text x="154.5" y="-55.2" font-family="Lato" font-size="12">1</text></g><g class="edge" transform="translate(4 165.8)"><path fill="none" stroke="#000" d="M183.04-124.25c-5.49 3.97-39.38 28.48-65.37 47.27"/><path stroke="#000" d="M111.93-72.83l7.52-1.55-4.69-.5 2.84-2.05h0l-2.84 2.05.99-4.6-3.82 6.65h0z"/></g><g class="node" transform="translate(4 165.8)"><path fill="#ffffa0" stroke="#000" d="M383.6-107.8h-12c-6 0-12 6-12 12v12c0 6 6 12 12 12h12c6 0 12-6 12-12v-12c0-6-6-12-12-12"/><text x="371.1" y="-86.7" font-family="Lato" font-size="12">!b</text></g><g class="edge" transform="translate(4 165.8)"><path fill="none" stroke="#000" d="M186.81-124.68c8.73 1.04 72.61 8.8 123.79 18.88 14.02 2.76 29.56 6.49 42.04 9.66"/><path stroke="#000" d="M359.6-94.35l-6-4.79 2.61 3.92-3.39-.87h0l3.39.87-4.18 2.18 7.57-1.31h0z"/></g><g class="node" transform="translate(4 165.8)"><path fill="#ffffa0" stroke="#000" d="M468.6-80.8h-12c-6 0-12 6-12 12v12c0 6 6 12 12 12h12c6 0 12-6 12-12v-12c0-6-6-12-12-12"/><text text-anchor="middle" x="462.6" y="-59.7" font-family="Lato" font-size="12">t</text></g><g class="edge" transform="translate(4 165.8)"><path fill="none" stroke="#000" d="M395.8-84.21c12.13 3.95 28.54 9.29 41.93 13.65"/><path stroke="#000" d="M444.42-68.39l-5.68-5.16 2.36 4.08-3.33-1.08h0l3.33 1.08-4.31 1.91 7.63-.83h0z"/><text x="413.6" y="-81.2" font-family="Lato" font-size="12">!b</text></g><g class="edge" transform="translate(4 165.8)"><path fill="none" stroke="#000" d="M182.98-1.9c-3.73-.46-19.37-2.63-30.98-7.9-12.97-5.89-26.11-14.4-37.14-22.43"/><path stroke="#000" d="M108.96-36.63l3.73 6.71-.93-4.62 2.81 2.09h0l-2.81-2.09 4.69-.43-7.49-1.66h0z"/></g><g class="node" transform="translate(4 165.8)"><path fill="#ffffa0" stroke="#000" d="M383.6-53.8h-12c-6 0-12 6-12 12v12c0 6 6 12 12 12h12c6 0 12-6 12-12v-12c0-6-6-12-12-12"/><text x="373.6" y="-32.7" font-family="Lato" font-size="12">b</text></g><g class="edge" transform="translate(4 165.8)"><path fill="none" stroke="#000" d="M186.8-1.92c8.73-1.09 72.55-9.17 123.8-18.88 13.99-2.65 29.53-6.16 42.02-9.11"/><path stroke="#000" d="M359.58-31.57l-7.54-1.44 4.13 2.25-3.4.81h0l3.4-.81-2.67 3.88 6.08-4.69h0z"/></g><g class="edge" transform="translate(4 165.8)"><path fill="none" stroke="#000" d="M396.02-40.56c9.15-2.58 20.53-5.91 30.58-9.24 3.69-1.22 7.58-2.59 11.36-3.96"/><path stroke="#000" d="M444.6-56.21l-7.66-.53 4.37 1.75-3.28 1.21h0l3.28-1.21-2.19 4.16 5.48-5.38h0z"/><text x="416.1" y="-53.2" font-family="Lato" font-size="12">b</text></g><g class="edge" transform="translate(4 165.8)"><path fill="none" stroke="#000" d="M182.68-47.88c-4.56-.33-22.34-1.62-41.37-2.99"/><path stroke="#000" d="M134.27-51.38l6.75 3.64-3.26-3.39 3.49.25h0l-3.49-.25 3.71-2.89-7.2 2.64h0z"/></g><g class="node" transform="translate(4 165.8)"><path fill="#ffffa0" stroke="#000" d="M298.6-65.8h-63c-6 0-12 6-12 12v12c0 6 6 12 12 12h63c6 0 12-6 12-12v-12c0-6-6-12-12-12"/><text x="231.6" y="-51.2" font-family="Lato" font-size="12">F(a &lt;-&gt; Xb)</text><text x="260.6" y="-38.2" font-family="Lato" font-size="12" fill="#1f78b4">⓿</text></g><g class="edge" transform="translate(4 165.8)"><path fill="none" stroke="#000" d="M186.7-47.8h29.46"/><path stroke="#000" d="M223.54-47.8l-7-3.15 3.5 3.15h-3.5 3.5l-3.5 3.15 7-3.15h0z"/></g><g class="edge" transform="translate(4 165.8)"><path fill="none" stroke="#000" d="M310.67-64.28c14.19-5.49 29.51-11.42 41.8-16.18"/><path stroke="#000" d="M359.33-83.11l-7.67-.41 4.4 1.67-3.26 1.26h0l3.26-1.26-2.12 4.2 5.39-5.46h0z"/><text x="328.6" y="-80.2" font-family="Lato" font-size="12">!a</text></g><g class="edge" transform="translate(4 165.8)"><path fill="none" stroke="#000" d="M310.67-43.09c14.06 1.55 29.22 3.23 41.46 4.58"/><path stroke="#000" d="M359.33-37.71l-6.61-3.9 3.13 3.51-3.48-.38h0l3.48.38-3.83 2.75 7.31-2.36h0z"/><text x="331.1" y="-45.2" font-family="Lato" font-size="12">a</text></g><g class="edge" transform="translate(4 165.8)"><path fill="none" stroke="#000" d="M255.88-65.95c-1.72-9.39 2.02-17.85 11.22-17.85 6.76 0 10.57 4.56 11.43 10.7"/><path stroke="#000" d="M278.32-65.95l3.36-6.9-3.26 3.4.11-3.5h0l-.11 3.5-3.04-3.6 2.94 7.1h0z"/><text x="263.1" y="-87.2" font-family="Lato" font-size="12">1</text></g><g class="edge" transform="translate(4 165.8)"><path fill="none" stroke="#000" d="M455-80.95c-1.17-9.39 1.37-17.85 7.6-17.85 4.58 0 7.16 4.56 7.75 10.7"/><path stroke="#000" d="M470.2-80.95l3.29-6.94-3.22 3.44.07-3.5h0l-.07 3.5-3.08-3.57 3.01 7.07h0z"/><text x="458.6" y="-102.2" font-family="Lato" font-size="12">1</text></g></g></svg>