<?xml-stylesheet href="spot.css" type="text/css"?><svg width="428pt" height="259pt" viewBox="0 0 427.5 259.24" xmlns="http://www.w3.org/2000/svg"><g class="graph" transform="translate(4 255.24)"><path fill="#fff" stroke="transparent" d="M-4 4v-259.24h427.5V4H-4z"/><text x="167.75" y="-238.64" font-family="Lato" font-size="12">Inf(</text><text x="188.75" y="-238.64" font-family="Lato" font-size="12" fill="#1f78b4">⓿</text><text x="201.75" y="-238.64" font-family="Lato" font-size="12">)&amp;Inf(</text><text x="235.75" y="-238.64" font-family="Lato" font-size="12" fill="#ff4da0">❶</text><text x="246.75" y="-238.64" font-family="Lato" font-size="12">)</text><text x="167.75" y="-226.64" font-family="Lato" font-size="12">[gen. Büchi 2]</text><g class="node"><path fill="#ffffa0" stroke="#000" d="M66-62.24H50c-6 0-12 6-12 12v12c0 6 6 12 12 12h16c6 0 12-6 12-12v-12c0-6-6-12-12-12"/><text x="54" y="-47.64" font-family="Lato" font-size="12">0</text><text x="46" y="-35.64" font-family="Lato" font-size="12" fill="#1f78b4">⓿</text><text x="59" y="-35.64" font-family="Lato" font-size="12" fill="#ff4da0">❶</text></g><g class="edge"><path fill="none" stroke="#000" d="M1.16-44.24h29.61"/><path stroke="#000" d="M37.81-44.24l-7-3.15 3.5 3.15h-3.5 3.5l-3.5 3.15 7-3.15h0z"/></g><g class="edge"><path fill="none" stroke="#000" d="M51.13-62.4c-1.06-9.38 1.23-17.84 6.87-17.84 4.14 0 6.48 4.56 7.01 10.7"/><path stroke="#000" d="M64.87-62.4l3.29-6.93-3.22 3.44.07-3.5h0l-.07 3.5-3.08-3.56 3.01 7.05h0z"/><text x="42" y="-83.64" font-family="Lato" font-size="12">a &amp; b</text></g><g class="node"><path fill="#ffffa0" stroke="#000" d="M177.5-156.24h-12c-6 0-12 6-12 12v12c0 6 6 12 12 12h12c6 0 12-6 12-12v-12c0-6-6-12-12-12"/><text x="167.5" y="-141.64" font-family="Lato" font-size="12">1</text><text x="165" y="-128.64" font-family="Lato" font-size="12" fill="#1f78b4">⓿</text></g><g class="edge"><path fill="none" stroke="#000" d="M63.9-62.53c5.3-16.36 15.32-39.82 32.1-53.71 14.1-11.68 34.2-17.16 49.97-19.73"/><path stroke="#000" d="M153.32-137.01l-7.37-2.14 3.91 2.63-3.47.49h0l3.47-.49-3.03 3.61 6.49-4.1h0z"/><text x="96" y="-135.64" font-family="Lato" font-size="12">a &amp; !b</text></g><g class="node"><path fill="#ffffa0" stroke="#000" d="M407-93.24h-12c-6 0-12 6-12 12v12c0 6 6 12 12 12h12c6 0 12-6 12-12v-12c0-6-6-12-12-12"/><text x="397" y="-78.64" font-family="Lato" font-size="12">2</text><text x="395.5" y="-65.64" font-family="Lato" font-size="12" fill="#ff4da0">❶</text></g><g class="edge"><path fill="none" stroke="#000" d="M78.29-36.26c5.62 1.99 11.83 3.88 17.71 5.02 67.67 13.07 86.45 12.14 155 5 51.5-5.36 66.59-3.18 114-24 4.04-1.78 8.08-4.06 11.9-6.53"/><path stroke="#000" d="M382.7-60.75l-7.56 1.36 4.67.62-2.88 1.98h0l2.88-1.98-1.1 4.58 3.99-6.56h0z"/><text x="212" y="-29.64" font-family="Lato" font-size="12">!a &amp; b</text></g><g class="node"><path fill="#ffffa0" stroke="#000" d="M293.5-93.24h-12c-6 0-12 6-12 12v12c0 6 6 12 12 12h12c6 0 12-6 12-12v-12c0-6-6-12-12-12"/><text text-anchor="middle" x="287.5" y="-72.14" font-family="Lato" font-size="12">3</text></g><g class="edge"><path fill="none" stroke="#000" d="M78.01-46.83c41.17-5.61 138.55-18.88 184.15-25.1"/><path stroke="#000" d="M269.27-72.9l-7.36-2.17 3.9 2.65-3.47.47h0l3.47-.47-3.05 3.59 6.51-4.07h0z"/><text x="151" y="-65.64" font-family="Lato" font-size="12">!a &amp; !b</text></g><g class="edge"><path fill="none" stroke="#000" d="M155.19-119.89c-6.4 7-14.2 14.7-22.19 20.65-14.83 11.03-21.99 8.21-37 19-5.13 3.68-10.23 8.06-14.94 12.48"/><path stroke="#000" d="M75.73-62.6l7.22-2.61-4.7.18 2.51-2.44h0l-2.51 2.44.32-4.7-2.84 7.13h0z"/><text x="98.5" y="-102.64" font-family="Lato" font-size="12">a &amp; b</text></g><g class="edge"><path fill="none" stroke="#000" d="M161.37-156.4c-1.56-9.38 1.82-17.84 10.13-17.84 6.1 0 9.55 4.56 10.33 10.7"/><path stroke="#000" d="M181.63-156.4l3.34-6.91-3.24 3.42.09-3.5h0l-.09 3.5-3.05-3.59 2.95 7.08h0z"/><text x="153" y="-177.64" font-family="Lato" font-size="12">a &amp; !b</text></g><g class="edge"><path fill="none" stroke="#000" d="M183.73-156.49c6.49-8.82 15.51-18.6 26.27-23.75 62.14-29.74 100.16-41.69 155 0 24.4 18.54 31.98 54.74 34.23 79.39"/><path stroke="#000" d="M399.77-93.6l2.62-7.21-2.88 3.72-.26-3.49h0l.26 3.49-3.4-3.26 3.66 6.75h0z"/><text x="269" y="-209.64" font-family="Lato" font-size="12">!a &amp; b</text></g><g class="edge"><path fill="none" stroke="#000" d="M189.58-136.35c16.74 2.49 42.42 8.05 61.42 20.11 7.06 4.48 13.5 10.78 18.89 17.11"/><path stroke="#000" d="M274.54-93.37l-1.95-7.42-.25 4.7-2.2-2.73h0l2.2 2.73-4.65-.75 6.85 3.47h0z"/><text x="210" y="-135.64" font-family="Lato" font-size="12">!a &amp; !b</text></g><g class="edge"><path fill="none" stroke="#000" d="M389.56-56.91c-6.06 9.04-14.48 19.33-24.56 25.67-43.99 27.67-62.36 20.18-114 26-68.78 7.74-90.06 8.93-155-15-3.96-1.46-7.93-3.4-11.72-5.55"/><path stroke="#000" d="M78.11-29.56l4.33 6.33-1.35-4.51 2.99 1.82h0l-2.99-1.82 4.63-.87-7.61-.95h0z"/><text x="214.5" y="-8.64" font-family="Lato" font-size="12">a &amp; b</text></g><g class="edge"><path fill="none" stroke="#000" d="M382.77-87.86c-18.28-12.9-48.38-32.77-76.77-45.38-23.27-10.34-29.8-12.41-55-16-18.04-2.57-22.96-2.59-41 0-4.41.63-9.02 1.66-13.44 2.85"/><path stroke="#000" d="M189.82-144.44l7.6 1.07-4.24-2.05 3.37-.97h0l-3.37.97 2.49-4-5.85 4.98h0z"/><text x="269" y="-149.64" font-family="Lato" font-size="12">a &amp; !b</text></g><g class="edge"><path fill="none" stroke="#000" d="M390.87-93.4c-1.56-9.38 1.82-17.84 10.13-17.84 6.1 0 9.55 4.56 10.33 10.7"/><path stroke="#000" d="M411.13-93.4l3.34-6.91-3.24 3.42.09-3.5h0l-.09 3.5-3.05-3.59 2.95 7.08h0z"/><text x="382.5" y="-114.64" font-family="Lato" font-size="12">!a &amp; b</text></g><g class="edge"><path fill="none" stroke="#000" d="M382.7-75.24h-69.72"/><path stroke="#000" d="M305.92-75.24l7 3.15-3.5-3.15h3.5-3.5l3.5-3.15-7 3.15h0z"/><text x="324" y="-78.64" font-family="Lato" font-size="12">!a &amp; !b</text></g><g class="edge"><path fill="none" stroke="#000" d="M269.31-66.37c-18.51 9-49.11 22.26-77.31 27.13-36.63 6.32-79.75 2.72-106.73-.82"/><path stroke="#000" d="M78.11-41.06l6.5 4.08-3.04-3.6 3.47.48h0l-3.47-.48 3.9-2.64-7.36 2.16h0z"/><text x="155.5" y="-42.64" font-family="Lato" font-size="12">a &amp; b</text></g><g class="edge"><path fill="none" stroke="#000" d="M269.36-78.07c-16.22-3.25-40.78-9.67-59.36-21.17-6.73-4.17-13.08-9.81-18.59-15.51"/><path stroke="#000" d="M186.61-119.96l2.43 7.28-.06-4.71 2.37 2.57h0l-2.37-2.57 4.69.44-7.06-3.01h0z"/><text x="212" y="-102.64" font-family="Lato" font-size="12">a &amp; !b</text></g><g class="edge"><path fill="none" stroke="#000" d="M305.63-65.14c5.66 2.81 12.11 5.47 18.37 6.9 17.77 4.03 23.24 4.08 41 0 3.79-.87 7.64-2.21 11.33-3.76"/><path stroke="#000" d="M382.77-64.97l-7.68.07 4.5 1.4-3.18 1.46h0l3.18-1.46-1.86 4.32 5.04-5.79h0z"/><text x="326" y="-61.64" font-family="Lato" font-size="12">!a &amp; b</text></g><g class="edge"><path fill="none" stroke="#000" d="M277.37-93.4c-1.56-9.38 1.82-17.84 10.13-17.84 6.1 0 9.55 4.56 10.33 10.7"/><path stroke="#000" d="M297.63-93.4l3.34-6.91-3.24 3.42.09-3.5h0l-.09 3.5-3.05-3.59 2.95 7.08h0z"/><text x="267" y="-114.64" font-family="Lato" font-size="12">!a &amp; !b</text></g></g></svg>