<?xml-stylesheet href="spot.css" type="text/css"?><svg width="468" height="412pt" viewBox="0 0 351 412.08" xmlns="http://www.w3.org/2000/svg"><g class="graph" transform="translate(4 408.08)"><path fill="#fff" stroke="transparent" d="M-4 4v-412.08h351V4H-4z"/><text x="169" y="-390.48" font-family="Lato" font-size="12">t</text><text x="160" y="-377.48" font-family="Lato" font-size="12">[all]</text><g class="node"><circle fill="#ffffa0" stroke="#000" cx="56" cy="-194.08" r="18"/><text text-anchor="middle" x="56" y="-190.98" font-family="Lato" font-size="12">6</text></g><g class="edge"><path fill="none" stroke="#000" d="M1.15-194.08h29.48"/><path stroke="#000" d="M37.94-194.08l-7-3.15 3.5 3.15h-3.5 3.5l-3.5 3.15 7-3.15h0z"/></g><g class="edge"><path fill="none" stroke="#000" d="M49.62-211.12c-1.3-9.82.83-18.96 6.38-18.96 4.17 0 6.4 5.14 6.71 11.85"/><path stroke="#000" d="M62.38-211.12l3.47-6.85-3.31 3.35.17-3.49h0l-.17 3.49-2.98-3.64 2.82 7.14h0z"/><text x="28.5" y="-233.48" font-family="Lato" font-size="12">a &amp; b &amp; c</text></g><g class="node"><circle fill="#ffffa0" stroke="#000" cx="325" cy="-321.08" r="18"/><text text-anchor="middle" x="325" y="-317.98" font-family="Lato" font-size="12">0</text></g><g class="edge"><path fill="none" stroke="#000" d="M61.75-211.21C67.04-227.9 76.87-253.3 92-271.08c26.99-31.74 38.12-39.93 78-52 44.3-13.42 99.11-7.78 129.96-2.72"/><path stroke="#000" d="M306.9-324.6l-6.37-4.29 2.92 3.7-3.45-.6h0l3.45.6-3.99 2.51 7.44-1.92h0z"/><text x="170" y="-334.48" font-family="Lato" font-size="12">!a &amp; !b &amp; c</text></g><g class="node"><circle fill="#ffffa0" stroke="#000" cx="202" cy="-265.08" r="18"/><text text-anchor="middle" x="202" y="-261.98" font-family="Lato" font-size="12">1</text></g><g class="edge"><path fill="none" stroke="#000" d="M67.69-208.03c6.35-7.45 14.98-16.27 24.31-22.05 26.67-16.55 61.91-26 85-30.81"/><path stroke="#000" d="M184.05-262.3l-7.48-1.72 4.04 2.41-3.43.68h0l3.43-.68-2.81 3.77 6.25-4.46h0z"/><text x="92" y="-257.48" font-family="Lato" font-size="12">!a &amp; b &amp; c</text></g><g class="node"><circle fill="#ffffa0" stroke="#000" cx="325" cy="-216.08" r="18"/><text text-anchor="middle" x="325" y="-212.98" font-family="Lato" font-size="12">2</text></g><g class="edge"><path fill="none" stroke="#000" d="M74.11-195.49c46.06-3.8 172.77-14.24 225.93-18.62"/><path stroke="#000" d="M307.03-214.69l-7.23-2.56 3.75 2.85-3.49.29h0l3.49-.29-3.23 3.43 6.71-3.72h0z"/><text x="170" y="-211.48" font-family="Lato" font-size="12">!a &amp; b &amp; !c</text></g><g class="node"><circle fill="#ffffa0" stroke="#000" cx="325" cy="-46.08" r="18"/><text text-anchor="middle" x="325" y="-42.98" font-family="Lato" font-size="12">3</text></g><g class="edge"><path fill="none" stroke="#000" d="M59.36-176.37c3.82 23.84 13 66.9 32.64 98.29 25.03 39.99 34.06 54.82 78 72 46.16 18.04 103.27-8.86 133.3-26.57"/><path stroke="#000" d="M309.63-36.48l-7.62.93 4.63.88-3 1.81h0l3-1.81-1.36 4.51 4.35-6.32h0z"/><text x="170" y="-9.48" font-family="Lato" font-size="12">a &amp; !b &amp; !c</text></g><g class="node"><circle fill="#ffffa0" stroke="#000" cx="202" cy="-131.08" r="18"/><text text-anchor="middle" x="202" y="-127.98" font-family="Lato" font-size="12">4</text></g><g class="edge"><path fill="none" stroke="#000" d="M72.68-187.22l106.03 46.38"/><path stroke="#000" d="M185.33-137.94l-5.15-5.69 1.95 4.29-3.21-1.4h0l3.21 1.4-4.47 1.48 7.67-.08h0z"/><text x="92" y="-180.48" font-family="Lato" font-size="12">a &amp; !b &amp; c</text></g><g class="node"><circle fill="#ffffa0" stroke="#000" cx="202" cy="-46.08" r="18"/><text text-anchor="middle" x="202" y="-42.98" font-family="Lato" font-size="12">5</text></g><g class="edge"><path fill="none" stroke="#000" d="M64.75-178.11C71.11-165.89 80.86-149 92-136.08c26.93 31.21 65.45 60.21 88.76 76.47"/><path stroke="#000" d="M186.62-55.57l-3.97-6.57 1.09 4.58-2.88-1.98h0l2.88 1.98-4.67.61 7.55 1.38h0z"/><text x="92" y="-139.48" font-family="Lato" font-size="12">a &amp; b &amp; !c</text></g><g class="edge"><path fill="none" stroke="#000" d="M315.77-336.63c-2.6-10.36.48-20.45 9.23-20.45 6.7 0 10.08 5.91 10.12 13.34"/><path stroke="#000" d="M334.23-336.63l4-6.55-3.56 3.08.43-3.47h0l-.43 3.47-2.69-3.86 2.25 7.33h0z"/><text x="321.5" y="-360.48" font-family="Lato" font-size="12">c</text></g><g class="edge"><path fill="none" stroke="#000" d="M218.87-272.58c9.58-4.51 22.05-10.36 33.13-15.5 16.62-7.71 35.43-16.33 49.66-22.83"/><path stroke="#000" d="M308.25-313.92l-7.68.04 4.5 1.42-3.19 1.45h0l3.19-1.45-1.88 4.32 5.06-5.78h0z"/><text x="252.5" y="-307.48" font-family="Lato" font-size="12">!b &amp; c</text></g><g class="edge"><path fill="none" stroke="#000" d="M190.76-279.5c-3.93-10.75-.18-21.58 11.24-21.58 8.92 0 13.16 6.61 12.72 14.63"/><path stroke="#000" d="M213.24-279.5l4.54-6.19-3.81 2.77.73-3.43h0l-.73 3.43-2.36-4.08 1.63 7.5h0z"/><text x="186.5" y="-304.48" font-family="Lato" font-size="12">b &amp; c</text></g><g class="edge"><path fill="none" stroke="#000" d="M219.91-268.85c18.16-3.14 47.33-5.48 69.09 5.77 10.28 5.31 18.34 15.18 24.11 24.51"/><path stroke="#000" d="M316.75-232.26l-.77-7.64-.98 4.61-1.75-3.04h0l1.75 3.04-4.48-1.46 6.23 4.49h0z"/><text x="252.5" y="-274.48" font-family="Lato" font-size="12">b &amp; !c</text></g><g class="edge"><path fill="none" stroke="#000" d="M315.77-231.63c-2.6-10.36.48-20.45 9.23-20.45 6.7 0 10.08 5.91 10.12 13.34"/><path stroke="#000" d="M334.23-231.63l4-6.55-3.56 3.08.43-3.47h0l-.43 3.47-2.69-3.86 2.25 7.33h0z"/><text x="321" y="-255.48" font-family="Lato" font-size="12">b</text></g><g class="edge"><path fill="none" stroke="#000" d="M315.77-61.63c-2.6-10.36.48-20.45 9.23-20.45 6.7 0 10.08 5.91 10.12 13.34"/><path stroke="#000" d="M334.23-61.63l4-6.55-3.56 3.08.43-3.47h0l-.43 3.47-2.69-3.86 2.25 7.33h0z"/><text x="321" y="-85.48" font-family="Lato" font-size="12">a</text></g><g class="edge"><path fill="none" stroke="#000" d="M214.27-144.26c17.42-20.73 51.3-62.68 74.73-101.82 9.98-16.68 19.19-36.68 25.65-51.83"/><path stroke="#000" d="M317.42-304.5l-5.62 5.24 4.26-2.01-1.35 3.23h0l1.35-3.23 1.55 4.45-.19-7.68h0z"/><text x="252.5" y="-249.48" font-family="Lato" font-size="12">!a &amp; c</text></g><g class="edge"><path fill="none" stroke="#000" d="M220.16-129.06c18.65 2.94 48.49 9.94 68.84 25.98 11.21 8.83 19.72 22.31 25.54 33.95"/><path stroke="#000" d="M317.66-62.54l-.15-7.67-1.35 4.51-1.49-3.17h0l1.49 3.17-4.34-1.82 5.84 4.98h0z"/><text x="252.5" y="-124.48" font-family="Lato" font-size="12">a &amp; !c</text></g><g class="edge"><path fill="none" stroke="#000" d="M190.76-145.5c-3.93-10.75-.18-21.58 11.24-21.58 8.92 0 13.16 6.61 12.72 14.63"/><path stroke="#000" d="M213.24-145.5l4.54-6.19-3.81 2.77.73-3.43h0l-.73 3.43-2.36-4.08 1.63 7.5h0z"/><text x="186.5" y="-170.48" font-family="Lato" font-size="12">a &amp; c</text></g><g class="edge"><path fill="none" stroke="#000" d="M219.46-51.84c22.21-8.07 60.11-23.03 69.54-34.24 25.13-29.89 32.37-76.14 34.36-104.66"/><path stroke="#000" d="M323.78-197.94l-3.55 6.81 3.35-3.31-.21 3.49h0l.21-3.49 2.94 3.67-2.74-7.17h0z"/><text x="252" y="-89.48" font-family="Lato" font-size="12">!a &amp; b</text></g><g class="edge"><path fill="none" stroke="#000" d="M220.08-46.08h79.31"/><path stroke="#000" d="M306.62-46.08l-7-3.15 3.5 3.15h-3.5 3.5l-3.5 3.15 7-3.15h0z"/><text x="252" y="-49.48" font-family="Lato" font-size="12">a &amp; !b</text></g><g class="edge"><path fill="none" stroke="#000" d="M190.76-60.5c-3.93-10.75-.18-21.58 11.24-21.58 8.92 0 13.16 6.61 12.72 14.63"/><path stroke="#000" d="M213.24-60.5l4.54-6.19-3.81 2.77.73-3.43h0l-.73 3.43-2.36-4.08 1.63 7.5h0z"/><text x="186" y="-85.48" font-family="Lato" font-size="12">a &amp; b</text></g></g></svg>