<?xml-stylesheet href="spot.css" type="text/css"?><svg width="535pt" height="340pt" viewBox="0 0 534.5 340" xmlns="http://www.w3.org/2000/svg"><g class="graph" transform="translate(4 336)"><path fill="#fff" stroke="transparent" d="M-4 4v-340h534.5V4H-4z"/><text x="219.25" y="-319.4" font-family="Lato" font-size="12">Fin(</text><text x="241.25" y="-319.4" font-family="Lato" font-size="12" fill="#1f78b4">⓿</text><text x="254.25" y="-319.4" font-family="Lato" font-size="12">) | Inf(</text><text x="291.25" y="-319.4" font-family="Lato" font-size="12" fill="#ff4da0">❶</text><text x="302.25" y="-319.4" font-family="Lato" font-size="12">)</text><text x="232.75" y="-307.4" font-family="Lato" font-size="12">[Streett 1]</text><g class="node"><path fill="#ffffa0" stroke="#000" d="M62-191H50c-6 0-12 6-12 12v12c0 6 6 12 12 12h12c6 0 12-6 12-12v-12c0-6-6-12-12-12"/><text x="52" y="-176.4" font-family="Lato" font-size="12">2</text><text x="50.5" y="-163.4" font-family="Lato" font-size="12" fill="#ff4da0">❶</text></g><g class="edge"><path fill="none" stroke="#000" d="M1.15-173h29.48"/><path stroke="#000" d="M37.94-173l-7-3.15 3.5 3.15h-3.5 3.5l-3.5 3.15 7-3.15h0z"/></g><g class="node"><path fill="#ffffa0" stroke="#000" d="M173.5-242h-12c-6 0-12 6-12 12v12c0 6 6 12 12 12h12c6 0 12-6 12-12v-12c0-6-6-12-12-12"/><text x="163.5" y="-227.4" font-family="Lato" font-size="12">1</text><text x="162" y="-214.4" font-family="Lato" font-size="12" fill="#ff4da0">❶</text></g><g class="edge"><path fill="none" stroke="#000" d="M74.31-191.16c5.3-4.74 11.4-9.46 17.69-12.84 15.71-8.45 35.24-13.52 50.36-16.44"/><path stroke="#000" d="M149.4-221.71l-7.45-1.86 4 2.48-3.44.62h0l3.44-.62-2.88 3.72 6.33-4.34h0z"/><text x="92" y="-220.4" font-family="Lato" font-size="12">a &amp; !b</text></g><g class="edge"><path fill="none" stroke="#000" d="M74.22-173.56c15.19-1.13 37.55-4.35 54.78-13.44 6.55-3.46 12.71-8.43 18.07-13.61"/><path stroke="#000" d="M152.15-205.82l-7.14 2.81 4.7-.3-2.45 2.5h0l2.45-2.5-.19 4.7 2.63-7.21h0z"/><text x="94.5" y="-190.4" font-family="Lato" font-size="12">a &amp; b</text></g><g class="node"><path fill="#ffffa0" stroke="#000" d="M289-152h-12c-6 0-12 6-12 12v12c0 6 6 12 12 12h12c6 0 12-6 12-12v-12c0-6-6-12-12-12"/><text x="279" y="-137.4" font-family="Lato" font-size="12">3</text><text x="277.5" y="-124.4" font-family="Lato" font-size="12" fill="#ff4da0">❶</text></g><g class="edge"><path fill="none" stroke="#000" d="M74.28-170c39.77 6.89 137.86 23.89 183.56 31.81"/><path stroke="#000" d="M264.97-136.95l-6.36-4.3 2.91 3.7-3.45-.6h0l3.45.6-3.99 2.51 7.44-1.91h0z"/><text x="147" y="-160.4" font-family="Lato" font-size="12">!a &amp; !b</text></g><g class="edge"><path fill="none" stroke="#000" d="M74.18-162.7c17.58 9.88 46.04 24.11 72.82 29.7 37.96 7.92 83.24 5.19 110.52 2.26"/><path stroke="#000" d="M264.72-131.56l-7.31-2.34 3.83 2.74-3.47.39h0l3.47-.39-3.12 3.52 6.6-3.92h0z"/><text x="149" y="-136.4" font-family="Lato" font-size="12">!a &amp; b</text></g><g class="node"><path fill="#ffffa0" stroke="#000" d="M512-176h-12c-6 0-12 6-12 12v12c0 6 6 12 12 12h12c6 0 12-6 12-12v-12c0-6-6-12-12-12"/><text x="502" y="-161.4" font-family="Lato" font-size="12">0</text><text x="500.5" y="-148.4" font-family="Lato" font-size="12" fill="#ff4da0">❶</text></g><g class="edge"><path fill="none" stroke="#000" d="M503.56-176.15c-.38-9.39.44-17.85 2.44-17.85 1.47 0 2.3 4.56 2.49 10.7"/><path stroke="#000" d="M508.44-176.15l3.2-6.98-3.17 3.48.02-3.5h0l-.02 3.5-3.13-3.52 3.1 7.02h0z"/><text x="485.5" y="-197.4" font-family="Lato" font-size="12">!a &amp; !b</text></g><g class="edge"><path fill="none" stroke="#000" d="M501.91-176.26C499.78-193.4 501.15-212 506-212c4.17 0 5.76 13.73 4.78 28.48"/><path stroke="#000" d="M510.09-176.26l3.8-6.67-3.47 3.19.33-3.49h0l-.33 3.49-2.8-3.78 2.47 7.26h0z"/><text x="487.5" y="-215.4" font-family="Lato" font-size="12">a &amp; !b</text></g><g class="edge"><path fill="none" stroke="#000" d="M500.88-176.08C496.34-200.41 498.05-230 506-230c7.2 0 9.28 24.3 6.23 46.97"/><path stroke="#000" d="M511.12-176.08l4.22-6.41-3.66 2.96.55-3.46h0l-.55 3.46-2.56-3.96 2 7.41h0z"/><text x="487.5" y="-233.4" font-family="Lato" font-size="12">!a &amp; b</text></g><g class="edge"><path fill="none" stroke="#000" d="M500.13-176.11C492.92-207.24 494.87-248 506-248c10.3 0 12.74 34.93 7.32 64.82"/><path stroke="#000" d="M511.87-176.11l4.49-6.22-3.79 2.79.71-3.43h0l-.71 3.43-2.38-4.06 1.68 7.49h0z"/><text x="490" y="-251.4" font-family="Lato" font-size="12">a &amp; b</text></g><g class="edge"><path fill="none" stroke="#000" d="M185.69-231.25c49.22-19.5 192.99-67.67 284.31-6.75 18.26 12.18 27.06 36.17 31.26 54.72"/><path stroke="#000" d="M502.7-176.22l1.69-7.49-2.39 4.06-.7-3.43h0l.7 3.43-3.79-2.8 4.49 6.23h0z"/><text x="321" y="-270.4" font-family="Lato" font-size="12">!a &amp; b</text></g><g class="edge"><path fill="none" stroke="#000" d="M185.82-222.52c46.7 4.3 178.76 18.49 284.18 49.52 3.73 1.1 7.58 2.48 11.32 3.96"/><path stroke="#000" d="M487.85-166.31l-5.24-5.61 2.01 4.26-3.23-1.35h0l3.23 1.35-4.44 1.56 7.67-.21h0z"/><text x="323.5" y="-208.4" font-family="Lato" font-size="12">a &amp; b</text></g><g class="edge"><path fill="none" stroke="#000" d="M157.37-242.15c-1.56-9.39 1.82-17.85 10.13-17.85 6.1 0 9.55 4.56 10.33 10.7"/><path stroke="#000" d="M177.63-242.15l3.34-6.91-3.24 3.41.09-3.5h0l-.09 3.5-3.05-3.59 2.95 7.09h0z"/><text x="149" y="-263.4" font-family="Lato" font-size="12">a &amp; !b</text></g><g class="edge"><path fill="none" stroke="#000" d="M185.53-211.42c6.36 4.62 13.69 9.84 20.47 14.42 17.87 12.09 24.35 12.28 41 26 5.01 4.13 10.03 8.93 14.63 13.69"/><path stroke="#000" d="M266.45-152.21l-2.51-7.25.11 4.71-2.4-2.55h0l2.4 2.55-4.69-.39 7.09 2.93h0z"/><text x="206" y="-200.4" font-family="Lato" font-size="12">!a &amp; !b</text></g><g class="edge"><path fill="none" stroke="#000" d="M301.09-142.13c5.59-2.31 11.9-4.54 17.91-5.87 56.9-12.55 125.85-12.39 161.69-11.19"/><path stroke="#000" d="M487.82-158.92l-6.87-3.41 3.38 3.28-3.5-.14h0l3.5.14-3.62 3.01 7.11-2.88h0z"/><text x="378" y="-162.4" font-family="Lato" font-size="12">!a &amp; b</text></g><g class="edge"><path fill="none" stroke="#000" d="M301.03-133.73c25.07.19 73.31-.24 113.97-5.27 22.47-2.78 47.65-8.31 65.65-12.69"/><path stroke="#000" d="M487.89-153.48l-7.55-1.38 4.16 2.22-3.4.84h0l3.4-.84-2.64 3.9 6.03-4.74h0z"/><text x="380.5" y="-142.4" font-family="Lato" font-size="12">a &amp; b</text></g><g class="node"><path fill="#ffffa0" stroke="#000" d="M402.5-36h-12c-6 0-12 6-12 12v12c0 6 6 12 12 12h12c6 0 12-6 12-12v-12c0-6-6-12-12-12"/><text x="392.5" y="-21.4" font-family="Lato" font-size="12">4</text><text x="390" y="-8.4" font-family="Lato" font-size="12" fill="#1f78b4">⓿</text></g><g class="edge"><path fill="none" stroke="#000" d="M301.18-116.13c19.45 20.24 51.2 53.27 72.42 75.34"/><path stroke="#000" d="M378.49-35.7l-2.58-7.23.15 4.71-2.42-2.53h0l2.42 2.53-4.7-.34 7.13 2.86h0z"/><text x="319" y="-100.4" font-family="Lato" font-size="12">!a &amp; !b</text></g><g class="edge"><path fill="none" stroke="#000" d="M285.74-115.88C288.78-94.47 296.99-59.21 319-39c14.16 13.01 35.63 18.07 52.22 19.99"/><path stroke="#000" d="M378.46-18.33l-6.67-3.79 3.19 3.46-3.49-.33h0l3.49.33-3.78 2.81 7.26-2.48h0z"/><text x="321" y="-42.4" font-family="Lato" font-size="12">a &amp; !b</text></g><g class="edge"><path fill="none" stroke="#000" d="M412.94-36.06c15-17.74 38.19-45.73 57.06-70.94 6.42-8.58 13.15-18.22 18.98-26.79"/><path stroke="#000" d="M493.04-139.81l-6.52 4.04 4.57-1.14-1.96 2.9h0l1.96-2.9.65 4.67 1.3-7.57h0z"/><text x="433" y="-110.4" font-family="Lato" font-size="12">!a &amp; b</text></g><g class="edge"><path fill="none" stroke="#000" d="M414.52-19.75c16.39-2.57 40.8-8.87 55.48-24.25 23.03-24.13 30.94-63.03 33.63-88.56"/><path stroke="#000" d="M504.29-139.7l-3.78 6.68 3.46-3.2-.32 3.49h0l.32-3.49 2.81 3.77-2.49-7.25h0z"/><text x="435.5" y="-47.4" font-family="Lato" font-size="12">a &amp; b</text></g><g class="edge"><path fill="none" stroke="#000" d="M391.62-36.15c-.76-9.39.87-17.85 4.88-17.85 2.94 0 4.6 4.56 4.98 10.7"/><path stroke="#000" d="M401.38-36.15l3.25-6.96-3.2 3.46.05-3.5h0l-.05 3.5-3.1-3.54 3.05 7.04h0z"/><text x="376" y="-57.4" font-family="Lato" font-size="12">!a &amp; !b</text></g><g class="edge"><path fill="none" stroke="#000" d="M388.31-36.26C384.07-53.4 386.8-72 396.5-72c8.34 0 11.53 13.73 9.56 28.48"/><path stroke="#000" d="M404.69-36.26l4.4-6.29-3.75 2.85.65-3.44h0l-.65 3.44-2.44-4.02 1.79 7.46h0z"/><text x="378" y="-75.4" font-family="Lato" font-size="12">a &amp; !b</text></g></g></svg>