<?xml-stylesheet href="spot.css" type="text/css"?><svg width="532" height="349pt" viewBox="0 0 399.07 348.7" xmlns="http://www.w3.org/2000/svg" xmlns:xlink="http://www.w3.org/1999/xlink"><g class="graph"><path fill="#fff" stroke="transparent" d="M0 348.7V0h399.07v348.7H0z"/><g class="node" transform="translate(4 344.7)"><a xlink:title="(x = 0, y = 0) !odd_x &amp; !odd_y"><circle fill="#ffffa0" stroke="#000" cx="73" cy="-170.35" r="18"/><text text-anchor="middle" x="73" y="-167.25" font-family="Lato" font-size="12">0</text></a></g><g class="edge" transform="translate(4 344.7)"><path fill="none" stroke="#000" d="M1.31-170.35h46.42"/><path stroke="#000" d="M54.92-170.35l-7-3.15 3.5 3.15h-3.5 3.5l-3.5 3.15 7-3.15h0z"/></g><g class="node" transform="translate(4 344.7)"><a xlink:title="(x = 1, y = 0) odd_x &amp; !odd_y"><circle fill="#ffffa0" stroke="#000" cx="373.07" cy="-223.26" r="18"/><text text-anchor="middle" x="373.07" y="-220.16" font-family="Lato" font-size="12">1</text></a></g><g class="edge" transform="translate(4 344.7)"><path fill="none" stroke="#e31a1c" stroke-width="2" d="M90.87-173.5c51.18-9.02 198.4-34.98 257.35-45.38"/><path fill="#e31a1c" stroke="#e31a1c" stroke-width="2" d="M355.29-220.12l-7.44-1.89 3.91 2-3.45.61.09.49.08.49 3.45-.6-2.99 3.21 6.35-4.31h0z"/></g><g class="node" transform="translate(4 344.7)"><a xlink:title="(x = 0, y = 1) !odd_x &amp; odd_y"><circle fill="#ffffa0" stroke="#000" cx="200.84" cy="-322.7" r="18"/><text text-anchor="middle" x="200.84" y="-319.6" font-family="Lato" font-size="12">2</text></a></g><g class="edge" transform="translate(4 344.7)"><path fill="none" stroke="#000" d="M84.8-184.41c22.92-27.32 73.53-87.63 99.68-118.8"/><path stroke="#000" d="M189.07-308.67l-6.92 3.34 4.67-.66-2.25 2.68h0l2.25-2.68.16 4.71 2.09-7.39h0z"/></g><g class="node" transform="translate(4 344.7)"><a xlink:title="(x = 2, y = 0) !odd_x &amp; !odd_y"><circle fill="#ffffa0" stroke="#000" cx="109.19" cy="-70.91" r="18"/><text text-anchor="middle" x="109.19" y="-67.81" font-family="Lato" font-size="12">3</text></a></g><g class="edge" transform="translate(4 344.7)"><path fill="none" stroke="#000" d="M357.35-214.18C312.34-188.2 182.88-113.45 131.04-83.52"/><path stroke="#000" d="M124.83-79.94l7.63-.77-4.6-.98 3.03-1.75h0l-3.03 1.75 1.45-4.47-4.48 6.22h0z"/></g><g class="node" transform="translate(4 344.7)"><a xlink:title="(x = 1, y = 1) odd_x &amp; odd_y"><circle fill="#ffffa0" stroke="#000" cx="305.05" cy="-304.32" r="18"/><text text-anchor="middle" x="305.05" y="-301.22" font-family="Lato" font-size="12">4</text></a></g><g class="edge" transform="translate(4 344.7)"><path fill="none" stroke="#e31a1c" stroke-width="2" d="M361.22-237.38c-11.02-13.13-27.54-32.82-39.82-47.45"/><path fill="#e31a1c" stroke="#e31a1c" stroke-width="2" d="M316.76-290.36l2.09 7.38-.22-4.38 2.25 2.68.38-.32.38-.32-2.25-2.68 4.28.97-6.91-3.33h0z"/></g><g class="edge" transform="translate(4 344.7)"><path fill="none" stroke="#000" d="M218.99-319.5c16.88 2.98 42.2 7.44 61 10.76"/><path stroke="#000" d="M287.1-307.49l-6.34-4.31 2.9 3.71-3.45-.61h0l3.45.61-4 2.49 7.44-1.89h0z"/></g><g class="node" transform="translate(4 344.7)"><a xlink:title="(x = 0, y = 2) !odd_x &amp; !odd_y"><circle fill="#ffffa0" stroke="#000" cx="109.19" cy="-269.79" r="18"/><text text-anchor="middle" x="109.19" y="-266.69" font-family="Lato" font-size="12">5</text></a></g><g class="edge" transform="translate(4 344.7)"><path fill="none" stroke="#000" d="M184.87-313.48c-14.85 8.57-37.11 21.42-53.64 30.97"/><path stroke="#000" d="M124.97-278.9l7.64-.77-4.61-.98 3.03-1.75h0l-3.03 1.75 1.46-4.48-4.49 6.23h0z"/></g><g class="edge" transform="translate(4 344.7)"><path fill="none" stroke="#000" d="M102.89-88.23c-5.87-16.11-14.66-40.27-21.19-58.21"/><path stroke="#000" d="M79.23-153.23l-.56 7.66 1.76-4.37 1.2 3.29h0l-1.2-3.29 4.16 2.21-5.36-5.5h0z"/></g><g class="node" transform="translate(4 344.7)"><a xlink:title="(x = 2, y = 1) !odd_x &amp; odd_y"><circle fill="#ffffa0" stroke="#000" cx="200.84" cy="-18" r="18"/><text text-anchor="middle" x="200.84" y="-14.9" font-family="Lato" font-size="12">6</text></a></g><g class="edge" transform="translate(4 344.7)"><path fill="none" stroke="#000" d="M125.16-61.69c14.84 8.57 37.1 21.42 53.64 30.97"/><path stroke="#000" d="M185.06-27.11l-4.49-6.23 1.45 4.48-3.03-1.75h0l3.03 1.75-4.6.98 7.64.77h0z"/></g><g class="edge" transform="translate(4 344.7)"><path fill="none" stroke="#000" d="M298.84-287.27c-17.77 48.84-68.9 189.31-89.38 245.56"/><path stroke="#000" d="M207.01-34.96l5.35-5.5-4.15 2.21 1.19-3.29h0l-1.19 3.29-1.77-4.37.57 7.66h0z"/></g><g class="node" transform="translate(4 344.7)"><a xlink:title="(x = 1, y = 2) odd_x &amp; !odd_y"><circle fill="#ffffa0" stroke="#000" cx="373.07" cy="-117.44" r="18"/><text text-anchor="middle" x="373.07" y="-114.34" font-family="Lato" font-size="12">7</text></a></g><g class="edge" transform="translate(4 344.7)"><path fill="none" stroke="#e31a1c" stroke-width="2" d="M311.33-287.07c12.22 33.6 39.26 107.87 53.14 146.01"/><path fill="#e31a1c" stroke="#e31a1c" stroke-width="2" d="M366.9-134.37l.57-7.66-1.29 4.2-1.2-3.29-.47.17-.47.17 1.2 3.29-3.69-2.38 5.35 5.5h0z"/></g><g class="edge" transform="translate(4 344.7)"><path fill="none" stroke="#000" d="M102.89-252.47c-5.87 16.12-14.66 40.27-21.19 58.21"/><path stroke="#000" d="M79.23-187.47l5.36-5.5-4.16 2.21 1.2-3.29h0l-1.2 3.29-1.76-4.37.56 7.66h0z"/></g><g class="edge" transform="translate(4 344.7)"><path fill="none" stroke="#e31a1c" stroke-width="2" d="M124.91-260.71c45.01 25.98 174.47 100.73 226.31 130.66"/><path fill="#e31a1c" stroke="#e31a1c" stroke-width="2" d="M357.43-126.46l-4.48-6.23 1.7 4.04-3.03-1.75-.25.44-.25.43 3.03 1.75-4.35.54 7.63.78h0z"/></g><g class="edge" transform="translate(4 344.7)"><path fill="none" stroke="#000" d="M200.84-36.15v-261.32"/><path stroke="#000" d="M200.84-304.64l-3.15 7 3.15-3.5v3.5h0v-3.5l3.15 3.5-3.15-7h0z"/></g><g class="node" transform="translate(4 344.7)"><a xlink:title="(x = 2, y = 2) !odd_x &amp; !odd_y"><circle fill="#ffffa0" stroke="#000" cx="305.05" cy="-36.38" r="18"/><text text-anchor="middle" x="305.05" y="-33.28" font-family="Lato" font-size="12">8</text></a></g><g class="edge" transform="translate(4 344.7)"><path fill="none" stroke="#000" d="M218.99-21.2c16.88-2.98 42.2-7.44 61-10.76"/><path stroke="#000" d="M287.1-33.21l-7.44-1.89 4 2.5-3.45.6h0l3.45-.6-2.9 3.71 6.34-4.32h0z"/></g><g class="edge" transform="translate(4 344.7)"><path fill="none" stroke="#000" d="M373.07-135.87v-61.95"/><path stroke="#000" d="M373.07-205.04l-3.15 7 3.15-3.5v3.5h0v-3.5l3.15 3.5-3.15-7h0z"/></g><g class="edge" transform="translate(4 344.7)"><path fill="none" stroke="#e31a1c" stroke-width="2" d="M361.22-103.32c-11.02 13.14-27.54 32.83-39.82 47.46"/><path fill="#e31a1c" stroke="#e31a1c" stroke-width="2" d="M316.76-50.33l6.91-3.34-4.28.98 2.25-2.68-.38-.33-.38-.32-2.25 2.68.22-4.38-2.09 7.39h0z"/></g><g class="edge" transform="translate(4 344.7)"><path fill="none" stroke="#000" d="M286.97-39.56L133.95-66.55"/><path stroke="#000" d="M126.94-67.78l6.35 4.32-2.9-3.71 3.44.61h0l-3.44-.61 3.99-2.5-7.44 1.89h0z"/></g><g class="edge" transform="translate(4 344.7)"><path fill="none" stroke="#e31a1c" stroke-width="2" d="M293.38-50.28c-33.4-39.81-129.49-154.33-167.97-200.18"/><path fill="#e31a1c" stroke="#e31a1c" stroke-width="2" d="M120.8-255.96l2.08 7.39-.22-4.39 2.25 2.69.39-.33.38-.32-2.25-2.68 4.28.98-6.91-3.34h0z"/></g></g></svg>