<?xml-stylesheet href="spot.css" type="text/css"?><svg width="170pt" height="104pt" viewBox="0 0 170 104" xmlns="http://www.w3.org/2000/svg"><g class="graph" transform="translate(4 100)"><path fill="#fff" stroke="transparent" d="M-4 4v-104h170V4H-4z"/><text x="59.5" y="-82.4" font-family="Lato" font-size="12">[Büchi]</text><g class="node"><circle fill="#ffffa0" stroke="#000" cx="56" cy="-22" r="18"/><text text-anchor="middle" x="56" y="-18.9" font-family="Lato" font-size="12">0</text></g><g class="edge"><path fill="none" stroke="#000" d="M1.15-22h29.48"/><path stroke="#000" d="M37.94-22l-7-3.15 3.5 3.15h-3.5 3.5l-3.5 3.15 7-3.15h0z"/></g><g class="edge"><path fill="none" stroke="#000" d="M49.62-39.04C48.32-48.86 50.45-58 56-58c4.17 0 6.4 5.14 6.71 11.86"/><path stroke="#000" d="M62.38-39.04l3.47-6.84-3.31 3.35.17-3.5h0l-.17 3.5-2.98-3.65 2.82 7.14h0z"/><text x="52" y="-61.4" font-family="Lato" font-size="12">1</text></g><g class="node"><circle fill="#ffffa0" stroke="#000" cx="140" cy="-22" r="18"/><circle fill="none" stroke="#000" cx="140" cy="-22" r="22"/><text x="136" y="-18.9" font-family="Lato" font-size="12">1</text></g><g class="edge"><path fill="none" stroke="#000" d="M74.39-22h36.21"/><path stroke="#000" d="M117.85-22l-7-3.15 3.5 3.15h-3.5 3.5l-3.5 3.15 7-3.15h0z"/><text x="92" y="-25.4" font-family="Lato" font-size="12">a</text></g><g class="edge"><path fill="none" stroke="#000" d="M131.99-42.58C130.89-52.84 133.55-62 140-62c4.83 0 7.54 5.15 8.13 12.05"/><path stroke="#000" d="M148.01-42.58l3.26-6.95-3.21 3.45.06-3.5h0l-.06 3.5-3.09-3.55 3.04 7.05h0z"/><text x="136" y="-65.4" font-family="Lato" font-size="12">a</text></g></g></svg>