<svg xmlns="http://www.w3.org/2000/svg" xmlns:xlink="http://www.w3.org/1999/xlink" width="360" height="360" viewBox="0 0 360 360"><defs><path d="M2.297-8.047h-.922v3.735l.25 2.453h.438l.234-2.454zm0 6.89h-.922V0h.922zm0 0" id="q"/><path d="M2.61-8.047C1.5-6.609.812-4.594.812-2.859c0 1.75.687 3.75 1.796 5.203h.61C2.25.766 1.703-1.094 1.703-2.86c0-1.766.547-3.625 1.516-5.188zm0 0" id="r"/><path d="M2.016-3.672h3.843v-.906H2.016v-2.563H6.39v-.906H1V0h1.016zm0 0" id="s"/><path d="M.594 2.406h.937V-.609c.485.593 1.016.859 1.766.859C4.812.25 5.78-.953 5.78-2.797c0-1.937-.953-3.156-2.484-3.156-.797 0-1.422.36-1.844 1.031v-.86h-.86zm2.547-7.5c1.015 0 1.671.89 1.671 2.282C4.813-1.5 4.141-.61 3.141-.61c-.985 0-1.61-.875-1.61-2.235 0-1.36.625-2.25 1.61-2.25zm0 0" id="t"/><path d="M2.86-5.688V0h.968v-7.984h-.64c-.344 1.218-.563 1.39-2.063 1.593v.704zm0 0" id="u"/><path d="M1.031 2.344C2.125.89 2.828-1.11 2.828-2.844c0-1.75-.703-3.765-1.797-5.203h-.61c.97 1.578 1.516 3.422 1.516 5.203 0 1.75-.546 3.61-1.515 5.188zm0 0" id="v"/><path d="M5.453-3.688c0 .391-.125.922-.344 1.313L3.641-4.172c1.14-.656 1.515-1.125 1.515-1.922 0-1.015-.75-1.734-1.797-1.734-1.062 0-1.89.766-1.89 1.734 0 .516.203.922.89 1.797C.984-3.5.58-2.953.58-1.937.578-.625 1.483.25 2.843.25c.547 0 1.062-.125 1.453-.375.234-.156.422-.313.844-.734L5.828 0h1.203L5.688-1.672c.406-.625.64-1.36.64-2.016zM3.141-4.766c-.672-.765-.766-.953-.766-1.343 0-.579.375-.954.953-.954.547 0 .953.407.953.938 0 .484-.297.844-1.14 1.36zm1.484 3.25C4-.859 3.531-.609 2.953-.609 2.156-.61 1.5-1.234 1.5-2.016c0-.625.344-1.062 1.344-1.703zm0 0" id="x"/><path d="M5.594-.969H1.469c.093-.656.453-1.078 1.422-1.656l1.093-.625c1.094-.61 1.657-1.422 1.657-2.406 0-.657-.266-1.282-.72-1.719-.468-.406-1.046-.61-1.78-.61-1 0-1.735.344-2.172 1.032-.266.422-.39.922-.422 1.734h.984c.032-.547.094-.875.219-1.14.266-.485.766-.782 1.36-.782.874 0 1.546.641 1.546 1.5 0 .641-.375 1.204-1.062 1.594l-1.016.594C.938-2.5.468-1.75.375-.016h5.219zm0 0" id="y"/><path d="M2.438-3.672h.53c1.063 0 1.626.485 1.626 1.453 0 1-.61 1.61-1.61 1.61-1.078 0-1.593-.547-1.656-1.704H.36c.032.641.157 1.047.344 1.407C1.11-.125 1.86.25 2.938.25c1.609 0 2.656-.969 2.656-2.484 0-1.016-.39-1.563-1.328-1.891.734-.313 1.093-.86 1.093-1.656 0-1.375-.89-2.203-2.39-2.203-1.578 0-2.422.875-2.453 2.578h.968c.016-.5.063-.766.188-1.016.219-.453.703-.719 1.312-.719.86 0 1.375.532 1.375 1.391 0 .563-.187.906-.625 1.094-.265.11-.625.156-1.296.156zm0 0" id="z"/><path d="M3.61-1.938V0h.968v-1.938H5.75v-.875H4.578v-5.171H3.86L.313-2.954v1.017zm0-.875H1.155L3.61-6.328zm0 0" id="A"/><path d="M5.266-7.828H1.219L.625-3.562h.906c.453-.547.828-.735 1.438-.735 1.047 0 1.703.719 1.703 1.875 0 1.125-.656 1.813-1.719 1.813-.844 0-1.36-.422-1.594-1.313H.391c.125.64.234.953.468 1.234.438.594 1.235.938 2.125.938 1.579 0 2.688-1.14 2.688-2.797 0-1.547-1.031-2.61-2.531-2.61-.563 0-1 .141-1.454.47L2-6.876h3.266zm0 0" id="B"/><path d="M2.422-6.36c-.578 0-1.11.266-1.438.688C.578-5.109.375-4.25.375-3.078c0 2.14.703 3.281 2.047 3.281 1.312 0 2.031-1.14 2.031-3.234 0-1.219-.187-2.047-.594-2.64-.328-.438-.843-.688-1.437-.688zm0 .688c.828 0 1.25.844 1.25 2.578 0 1.813-.406 2.656-1.266 2.656-.828 0-1.234-.875-1.234-2.624 0-1.766.406-2.61 1.25-2.61zm0 0" id="C"/><path d="M2.281-4.531V0h.766v-6.36h-.5c-.281.97-.453 1.11-1.656 1.266v.563zm0 0" id="D"/><path d="M4.453-.766H1.172c.078-.53.36-.859 1.125-1.328l.875-.5C4.047-3.063 4.5-3.719 4.5-4.5c0-.531-.219-1.031-.578-1.375-.375-.328-.828-.484-1.422-.484-.797 0-1.375.28-1.719.828-.234.328-.328.734-.344 1.375h.782c.015-.438.078-.688.187-.907.188-.375.594-.625 1.063-.625.703 0 1.234.516 1.234 1.204 0 .515-.297.953-.844 1.265l-.812.469C.75-2 .375-1.406.297-.016h4.156zm0 0" id="E"/><path d="M1.938-2.922h.421c.844 0 1.297.39 1.297 1.156 0 .797-.484 1.282-1.281 1.282-.86 0-1.266-.438-1.313-1.36h-.78c.03.5.124.844.265 1.125.328.61.937.922 1.797.922 1.281 0 2.11-.781 2.11-1.984 0-.813-.313-1.25-1.063-1.516.578-.234.875-.672.875-1.312 0-1.094-.72-1.75-1.907-1.75-1.25 0-1.921.703-1.953 2.046h.781c.016-.39.047-.609.141-.796.172-.36.563-.579 1.047-.579.688 0 1.094.422 1.094 1.11 0 .437-.156.719-.5.86-.203.093-.485.124-1.031.14zm0 0" id="F"/><path d="M4.813-4.156c0-1.14-.75-1.766-2.079-1.766-1.343 0-2.218.688-2.218 1.75 0 .906.468 1.328 1.828 1.656l.86.22c.64.155.89.39.89.796 0 .547-.547.906-1.344.906-.5 0-.906-.14-1.14-.39-.141-.157-.22-.329-.266-.735H.375C.422-.39 1.172.25 2.672.25c1.453 0 2.375-.719 2.375-1.828 0-.86-.484-1.328-1.625-1.594l-.875-.219c-.75-.171-1.078-.421-1.078-.828 0-.531.484-.86 1.218-.86.75 0 1.141.313 1.157.923zm0 0" id="G"/><path d="M2.797-5.766h-.953v-1.578H.937v1.578h-.78v.75h.78v4.36c0 .594.391.906 1.11.906.234 0 .437-.016.75-.078v-.766c-.14.031-.25.047-.438.047-.406 0-.515-.11-.515-.515v-3.954h.953zm0 0" id="H"/><path d="M5.89-.531c-.109.015-.156.015-.202.015-.313 0-.5-.171-.5-.453v-3.39c0-1.016-.75-1.563-2.157-1.563-.86 0-1.531.234-1.922.656-.265.297-.375.641-.39 1.204h.922c.078-.704.5-1.016 1.343-1.016.844 0 1.297.297 1.297.86v.234c-.015.39-.218.546-.953.64-1.297.172-1.5.203-1.86.36-.671.28-1 .78-1 1.53C.469-.405 1.189.25 2.36.25c.72 0 1.297-.25 1.954-.844.062.594.343.844.953.844.187 0 .312-.016.625-.094zM4.282-1.812c0 .312-.093.5-.36.75-.374.343-.827.515-1.374.515-.703 0-1.125-.344-1.125-.922 0-.61.39-.922 1.39-1.062.97-.125 1.157-.172 1.47-.313zm0 0" id="I"/><path d="M5.64-2.578c0-.875-.062-1.406-.234-1.828-.375-.953-1.25-1.516-2.328-1.516-1.61 0-2.64 1.219-2.64 3.11 0 1.906 1 3.062 2.624 3.062 1.313 0 2.235-.75 2.454-2h-.922c-.25.766-.766 1.156-1.5 1.156a1.61 1.61 0 01-1.39-.75c-.22-.328-.298-.656-.313-1.234zm-4.218-.75c.078-1.063.719-1.75 1.64-1.75.938 0 1.594.719 1.594 1.75zm0 0" id="J"/><path d="M2.094-1.14H.954V0h1.14zm0 0" id="K"/><path d="M.766-5.766V0h.921v-3.625c0-.828.61-1.5 1.36-1.5.687 0 1.062.422 1.062 1.156V0h.922v-3.625c0-.828.61-1.5 1.36-1.5.671 0 1.062.422 1.062 1.156V0h.922v-4.328c0-1.031-.594-1.594-1.672-1.594-.766 0-1.219.219-1.766.875-.343-.625-.796-.875-1.546-.875-.766 0-1.297.281-1.782.969v-.813zm0 0" id="L"/><path d="M1.672-8.016H.75V0h.922zm0 0" id="M"/><path d="M-4.156-4.813c-1.14 0-1.766.75-1.766 2.079 0 1.343.688 2.218 1.75 2.218.906 0 1.328-.468 1.656-1.828l.22-.86c.155-.64.39-.89.796-.89.547 0 .906.547.906 1.344 0 .5-.14.906-.39 1.14-.157.141-.329.22-.735.266v.969C-.39-.422.25-1.172.25-2.672c0-1.453-.719-2.375-1.828-2.375-.86 0-1.328.484-1.594 1.625l-.219.875c-.171.75-.421 1.078-.828 1.078-.531 0-.86-.484-.86-1.218 0-.75.313-1.141.923-1.157zm0 0" id="N"/><path d="M-5.766-2.797v.953h-1.578v.907h1.578v.78h.75v-.78h4.36c.594 0 .906-.391.906-1.11 0-.234-.016-.437-.078-.75h-.766c.031.14.047.25.047.438 0 .406-.11.515-.515.515h-3.954v-.953zm0 0" id="O"/><path d="M-.531-5.89c.015.109.015.156.015.202 0 .313-.171.5-.453.5h-3.39c-1.016 0-1.563.75-1.563 2.157 0 .86.234 1.531.656 1.922.297.265.641.375 1.204.39v-.922c-.704-.078-1.016-.5-1.016-1.343 0-.844.297-1.297.86-1.297h.234c.39.015.546.218.64.953.172 1.297.203 1.5.36 1.86.28.671.78 1 1.53 1C-.405-.469.25-1.189.25-2.36c0-.72-.25-1.297-.844-1.954C0-4.375.25-4.655.25-5.266c0-.187-.016-.312-.094-.625zm-1.281 1.609c.312 0 .5.093.75.36.343.374.515.827.515 1.374 0 .703-.344 1.125-.922 1.125-.61 0-.922-.39-1.062-1.39-.125-.97-.172-1.157-.313-1.47zm0 0" id="P"/><path d="M-2.578-5.64c-.875 0-1.406.062-1.828.234-.953.375-1.516 1.25-1.516 2.328 0 1.61 1.219 2.64 3.11 2.64 1.906 0 3.062-1 3.062-2.624 0-1.313-.75-2.235-2-2.454v.922c.766.25 1.156.766 1.156 1.5a1.61 1.61 0 01-.75 1.39c-.328.22-.656.298-1.234.313zm-.75 4.218c-1.063-.078-1.75-.719-1.75-1.64 0-.938.719-1.594 1.75-1.594zm0 0" id="Q"/><path d="M-1.14-2.094v1.14H0v-1.14zm0 0" id="R"/><path d="M-8.016-5.438v.907h2.985c-.594.39-.89 1-.89 1.765 0 1.5 1.187 2.485 3.03 2.485C-.953-.281.25-1.234.25-2.797c0-.797-.297-1.344-1.016-1.828H0v-.813zm2.938 2.516c0-.984.875-1.61 2.266-1.61 1.328 0 2.203.641 2.203 1.61 0 1.016-.891 1.672-2.235 1.672-1.344 0-2.234-.656-2.234-1.672zm0 0" id="S"/><path d="M-5.766-.766H0v-.921h-2.984c-1.391 0-2.016-.579-1.985-1.844h-.922c-.03.156-.03.25-.03.36 0 .593.343 1.03 1.202 1.562h-1.047zm0 0" id="T"/><clipPath id="a"><path d="M35.152 5.48h319.371v320.372H35.153zm0 0"/></clipPath><clipPath id="b"><path d="M35.152 273h319.371v1H35.153zm0 0"/></clipPath><clipPath id="c"><path d="M35.152 179h319.371v2H35.153zm0 0"/></clipPath><clipPath id="d"><path d="M35.152 85h319.371v2H35.153zm0 0"/></clipPath><clipPath id="e"><path d="M86 5.48h2v320.372h-2zm0 0"/></clipPath><clipPath id="f"><path d="M180 5.48h2v320.372h-2zm0 0"/></clipPath><clipPath id="g"><path d="M274 5.48h1v320.372h-1zm0 0"/></clipPath><clipPath id="h"><path d="M35.152 320h319.371v2H35.153zm0 0"/></clipPath><clipPath id="i"><path d="M35.152 226h319.371v2H35.153zm0 0"/></clipPath><clipPath id="j"><path d="M35.152 132h319.371v2H35.153zm0 0"/></clipPath><clipPath id="k"><path d="M35.152 38h319.371v2H35.153zm0 0"/></clipPath><clipPath id="l"><path d="M39 5.48h2v320.372h-2zm0 0"/></clipPath><clipPath id="m"><path d="M133 5.48h2v320.372h-2zm0 0"/></clipPath><clipPath id="n"><path d="M227 5.48h2v320.372h-2zm0 0"/></clipPath><clipPath id="o"><path d="M320 5.48h2v320.372h-2zm0 0"/></clipPath><clipPath id="p"><path d="M35.152 5.48h319.371v320.372H35.153zm0 0"/></clipPath></defs><path fill="#FFF" d="M-36-36h432v432H-36z"/><path fill="#FFF" d="M-36-36h432v432H-36z"/><path fill="none" stroke-width="1.067" stroke-linecap="round" stroke-linejoin="round" stroke="#FFF" stroke-miterlimit="10" d="M0 360h360V0H0zm0 0"/><g clip-path="url(#a)"><path fill="#EBEBEB" d="M35.152 325.848h319.371V5.477H35.153zm0 0"/></g><g clip-path="url(#b)"><path fill="none" stroke-width=".533" stroke-linejoin="round" stroke="#FFF" stroke-miterlimit="10" d="M35.152 273.707H354.52"/></g><g clip-path="url(#c)"><path fill="none" stroke-width=".533" stroke-linejoin="round" stroke="#FFF" stroke-miterlimit="10" d="M35.152 179.758H354.52"/></g><g clip-path="url(#d)"><path fill="none" stroke-width=".533" stroke-linejoin="round" stroke="#FFF" stroke-miterlimit="10" d="M35.152 85.809H354.52"/></g><g clip-path="url(#e)"><path fill="none" stroke-width=".533" stroke-linejoin="round" stroke="#FFF" stroke-miterlimit="10" d="M87.129 325.848V5.48"/></g><g clip-path="url(#f)"><path fill="none" stroke-width=".533" stroke-linejoin="round" stroke="#FFF" stroke-miterlimit="10" d="M180.785 325.848V5.48"/></g><g clip-path="url(#g)"><path fill="none" stroke-width=".533" stroke-linejoin="round" stroke="#FFF" stroke-miterlimit="10" d="M274.445 325.848V5.48"/></g><g clip-path="url(#h)"><path fill="none" stroke-width="1.067" stroke-linejoin="round" stroke="#FFF" stroke-miterlimit="10" d="M35.152 320.684H354.52"/></g><g clip-path="url(#i)"><path fill="none" stroke-width="1.067" stroke-linejoin="round" stroke="#FFF" stroke-miterlimit="10" d="M35.152 226.73H354.52"/></g><g clip-path="url(#j)"><path fill="none" stroke-width="1.067" stroke-linejoin="round" stroke="#FFF" stroke-miterlimit="10" d="M35.152 132.781H354.52"/></g><g clip-path="url(#k)"><path fill="none" stroke-width="1.067" stroke-linejoin="round" stroke="#FFF" stroke-miterlimit="10" d="M35.152 38.832H354.52"/></g><g clip-path="url(#l)"><path fill="none" stroke-width="1.067" stroke-linejoin="round" stroke="#FFF" stroke-miterlimit="10" d="M40.3 325.848V5.48"/></g><g clip-path="url(#m)"><path fill="none" stroke-width="1.067" stroke-linejoin="round" stroke="#FFF" stroke-miterlimit="10" d="M133.957 325.848V5.48"/></g><g clip-path="url(#n)"><path fill="none" stroke-width="1.067" stroke-linejoin="round" stroke="#FFF" stroke-miterlimit="10" d="M227.617 325.848V5.48"/></g><g clip-path="url(#o)"><path fill="none" stroke-width="1.067" stroke-linejoin="round" stroke="#FFF" stroke-miterlimit="10" d="M321.273 325.848V5.48"/></g><g clip-path="url(#p)"><path fill="none" stroke-width="1.067" stroke-linejoin="round" stroke="#FFF" stroke-miterlimit="10" d="M-284.219 646.219l958.11-961.11"/></g><path stroke-width=".709" stroke-linecap="round" stroke-linejoin="round" stroke="#000" stroke-miterlimit="10" d="M98.45 29.438c0 2.605-3.907 2.605-3.907 0 0-2.606 3.906-2.606 3.906 0M89.086 179.758c0 2.605-3.91 2.605-3.91 0 0-2.606 3.91-2.606 3.91 0M79.719 254.918c0 2.605-3.91 2.605-3.91 0 0-2.606 3.91-2.606 3.91 0M70.355 292.496c0 2.606-3.91 2.606-3.91 0 0-2.605 3.91-2.605 3.91 0M51.621 311.285c0 2.61-3.91 2.61-3.91 0 0-2.605 3.91-2.605 3.91 0M79.719 283.102c0 2.605-3.91 2.605-3.91 0 0-2.606 3.91-2.606 3.91 0M117.184 245.523c0 2.606-3.91 2.606-3.91 0 0-2.609 3.91-2.609 3.91 0M192.11 170.363c0 2.606-3.91 2.606-3.91 0 0-2.61 3.91-2.61 3.91 0M341.957 20.043c0 2.605-3.906 2.605-3.906 0 0-2.61 3.906-2.61 3.906 0M60.988 301.89c0 2.61-3.91 2.61-3.91 0 0-2.605 3.91-2.605 3.91 0"/><use xlink:href="#q" x="101.18" y="32.985"/><use xlink:href="#r" x="104.18" y="32.985"/><use xlink:href="#r" x="108.18" y="32.985"/><use xlink:href="#s" x="112.18" y="32.985"/><use xlink:href="#r" x="119.18" y="32.985"/><use xlink:href="#t" x="123.18" y="32.985"/><use xlink:href="#u" x="129.18" y="32.985"/><use xlink:href="#v" x="135.18" y="32.985"/><use xlink:href="#v" x="139.18" y="32.985"/><use xlink:href="#w" x="143.18" y="32.985"/><use xlink:href="#x" x="146.18" y="32.985"/><use xlink:href="#w" x="153.18" y="32.985"/><use xlink:href="#r" x="156.18" y="32.985"/><use xlink:href="#s" x="160.18" y="32.985"/><use xlink:href="#r" x="167.18" y="32.985"/><use xlink:href="#t" x="171.18" y="32.985"/><use xlink:href="#y" x="177.18" y="32.985"/><use xlink:href="#v" x="183.18" y="32.985"/><use xlink:href="#v" x="187.18" y="32.985"/><use xlink:href="#w" x="191.18" y="32.985"/><use xlink:href="#x" x="194.18" y="32.985"/><use xlink:href="#w" x="201.18" y="32.985"/><use xlink:href="#r" x="204.18" y="32.985"/><use xlink:href="#s" x="208.18" y="32.985"/><use xlink:href="#r" x="215.18" y="32.985"/><use xlink:href="#t" x="219.18" y="32.985"/><use xlink:href="#z" x="225.18" y="32.985"/><use xlink:href="#v" x="231.18" y="32.985"/><use xlink:href="#v" x="235.18" y="32.985"/><use xlink:href="#w" x="239.18" y="32.985"/><use xlink:href="#x" x="242.18" y="32.985"/><use xlink:href="#w" x="249.18" y="32.985"/><use xlink:href="#r" x="252.18" y="32.985"/><use xlink:href="#s" x="256.18" y="32.985"/><use xlink:href="#r" x="263.18" y="32.985"/><use xlink:href="#t" x="267.18" y="32.985"/><use xlink:href="#A" x="273.18" y="32.985"/><use xlink:href="#v" x="279.18" y="32.985"/><use xlink:href="#v" x="283.18" y="32.985"/><use xlink:href="#w" x="287.18" y="32.985"/><use xlink:href="#x" x="290.18" y="32.985"/><use xlink:href="#w" x="297.18" y="32.985"/><use xlink:href="#r" x="300.18" y="32.985"/><use xlink:href="#s" x="304.18" y="32.985"/><use xlink:href="#r" x="311.18" y="32.985"/><use xlink:href="#t" x="315.18" y="32.985"/><use xlink:href="#B" x="321.18" y="32.985"/><use xlink:href="#v" x="327.18" y="32.985"/><use xlink:href="#v" x="331.18" y="32.985"/><use xlink:href="#v" x="335.18" y="32.985"/><g><use xlink:href="#q" x="91.813" y="183.306"/><use xlink:href="#r" x="94.813" y="183.306"/><use xlink:href="#r" x="98.813" y="183.306"/><use xlink:href="#s" x="102.813" y="183.306"/><use xlink:href="#r" x="109.813" y="183.306"/><use xlink:href="#t" x="113.813" y="183.306"/><use xlink:href="#u" x="119.813" y="183.306"/><use xlink:href="#v" x="125.813" y="183.306"/><use xlink:href="#v" x="129.813" y="183.306"/><use xlink:href="#w" x="133.813" y="183.306"/><use xlink:href="#x" x="136.813" y="183.306"/><use xlink:href="#w" x="143.813" y="183.306"/><use xlink:href="#r" x="146.813" y="183.306"/><use xlink:href="#s" x="150.813" y="183.306"/><use xlink:href="#r" x="157.813" y="183.306"/><use xlink:href="#t" x="161.813" y="183.306"/><use xlink:href="#y" x="167.813" y="183.306"/><use xlink:href="#v" x="173.813" y="183.306"/><use xlink:href="#v" x="177.813" y="183.306"/><use xlink:href="#w" x="181.813" y="183.306"/><use xlink:href="#x" x="184.813" y="183.306"/><use xlink:href="#w" x="191.813" y="183.306"/><use xlink:href="#r" x="194.813" y="183.306"/><use xlink:href="#s" x="198.813" y="183.306"/><use xlink:href="#r" x="205.813" y="183.306"/><use xlink:href="#t" x="209.813" y="183.306"/><use xlink:href="#z" x="215.813" y="183.306"/><use xlink:href="#v" x="221.813" y="183.306"/><use xlink:href="#v" x="225.813" y="183.306"/><use xlink:href="#w" x="229.813" y="183.306"/><use xlink:href="#x" x="232.813" y="183.306"/><use xlink:href="#w" x="239.813" y="183.306"/><use xlink:href="#r" x="242.813" y="183.306"/><use xlink:href="#s" x="246.813" y="183.306"/><use xlink:href="#r" x="253.813" y="183.306"/><use xlink:href="#t" x="257.813" y="183.306"/><use xlink:href="#A" x="263.813" y="183.306"/><use xlink:href="#v" x="269.813" y="183.306"/><use xlink:href="#v" x="273.813" y="183.306"/><use xlink:href="#v" x="277.813" y="183.306"/></g><g><use xlink:href="#q" x="82.449" y="258.466"/><use xlink:href="#r" x="85.449" y="258.466"/><use xlink:href="#r" x="89.449" y="258.466"/><use xlink:href="#s" x="93.449" y="258.466"/><use xlink:href="#r" x="100.449" y="258.466"/><use xlink:href="#t" x="104.449" y="258.466"/><use xlink:href="#u" x="110.449" y="258.466"/><use xlink:href="#v" x="116.449" y="258.466"/><use xlink:href="#v" x="120.449" y="258.466"/><use xlink:href="#w" x="124.449" y="258.466"/><use xlink:href="#x" x="127.449" y="258.466"/><use xlink:href="#w" x="134.449" y="258.466"/><use xlink:href="#r" x="137.449" y="258.466"/><use xlink:href="#s" x="141.449" y="258.466"/><use xlink:href="#r" x="148.449" y="258.466"/><use xlink:href="#t" x="152.449" y="258.466"/><use xlink:href="#y" x="158.449" y="258.466"/><use xlink:href="#v" x="164.449" y="258.466"/><use xlink:href="#v" x="168.449" y="258.466"/><use xlink:href="#w" x="172.449" y="258.466"/><use xlink:href="#x" x="175.449" y="258.466"/><use xlink:href="#w" x="182.449" y="258.466"/><use xlink:href="#r" x="185.449" y="258.466"/><use xlink:href="#s" x="189.449" y="258.466"/><use xlink:href="#r" x="196.449" y="258.466"/><use xlink:href="#t" x="200.449" y="258.466"/><use xlink:href="#z" x="206.449" y="258.466"/><use xlink:href="#v" x="212.449" y="258.466"/><use xlink:href="#v" x="216.449" y="258.466"/><use xlink:href="#v" x="220.449" y="258.466"/></g><g fill="#4D4D4D"><use xlink:href="#C" x="25.219" y="323.599"/></g><g fill="#4D4D4D"><use xlink:href="#D" x="20.219" y="229.646"/><use xlink:href="#C" x="25.219" y="229.646"/></g><g fill="#4D4D4D"><use xlink:href="#E" x="20.219" y="135.696"/><use xlink:href="#C" x="25.219" y="135.696"/></g><g fill="#4D4D4D"><use xlink:href="#F" x="20.219" y="41.747"/><use xlink:href="#C" x="25.219" y="41.747"/></g><path fill="none" stroke-width="1.067" stroke-linejoin="round" stroke="#333" stroke-miterlimit="10" d="M32.41 320.684h2.742M32.41 226.73h2.742M32.41 132.781h2.742M32.41 38.832h2.742M40.3 328.59v-2.742M133.957 328.59v-2.742M227.617 328.59v-2.742M321.273 328.59v-2.742"/><g fill="#4D4D4D"><use xlink:href="#C" x="37.801" y="337.196"/></g><g fill="#4D4D4D"><use xlink:href="#D" x="128.957" y="337.196"/><use xlink:href="#C" x="133.957" y="337.196"/></g><g fill="#4D4D4D"><use xlink:href="#E" x="222.617" y="337.196"/><use xlink:href="#C" x="227.617" y="337.196"/></g><g fill="#4D4D4D"><use xlink:href="#F" x="316.273" y="337.196"/><use xlink:href="#C" x="321.273" y="337.196"/></g><g><use xlink:href="#G" x="166.836" y="350.538"/><use xlink:href="#H" x="171.836" y="350.538"/><use xlink:href="#I" x="174.836" y="350.538"/><use xlink:href="#H" x="180.836" y="350.538"/><use xlink:href="#J" x="183.836" y="350.538"/><use xlink:href="#G" x="189.836" y="350.538"/><use xlink:href="#K" x="194.836" y="350.538"/><use xlink:href="#G" x="197.836" y="350.538"/><use xlink:href="#L" x="203.836" y="350.538"/><use xlink:href="#I" x="212.836" y="350.538"/><use xlink:href="#M" x="218.836" y="350.538"/><use xlink:href="#M" x="220.836" y="350.538"/></g><g><use xlink:href="#N" x="13.499" y="193.664"/><use xlink:href="#O" x="13.499" y="188.664"/><use xlink:href="#P" x="13.499" y="185.664"/><use xlink:href="#O" x="13.499" y="179.664"/><use xlink:href="#Q" x="13.499" y="176.664"/><use xlink:href="#N" x="13.499" y="170.664"/><use xlink:href="#R" x="13.499" y="165.664"/><use xlink:href="#S" x="13.499" y="162.664"/><use xlink:href="#Q" x="13.499" y="156.664"/><use xlink:href="#O" x="13.499" y="150.664"/><use xlink:href="#Q" x="13.499" y="147.664"/><use xlink:href="#T" x="13.499" y="141.664"/></g></svg>