<svg xmlns="http://www.w3.org/2000/svg" xmlns:xlink="http://www.w3.org/1999/xlink" width="360" height="360" viewBox="0 0 360 360"><defs><path d="M2.422-6.36c-.578 0-1.11.266-1.438.688C.578-5.109.375-4.25.375-3.078c0 2.14.703 3.281 2.047 3.281 1.312 0 2.031-1.14 2.031-3.234 0-1.219-.187-2.047-.594-2.64-.328-.438-.843-.688-1.437-.688zm0 .688c.828 0 1.25.844 1.25 2.578 0 1.813-.406 2.656-1.266 2.656-.828 0-1.234-.875-1.234-2.624 0-1.766.406-2.61 1.25-2.61zm0 0" id="q"/><path d="M2.281-4.531V0h.766v-6.36h-.5c-.281.97-.453 1.11-1.656 1.266v.563zm0 0" id="r"/><path d="M4.453-.766H1.172c.078-.53.36-.859 1.125-1.328l.875-.5C4.047-3.063 4.5-3.719 4.5-4.5c0-.531-.219-1.031-.578-1.375-.375-.328-.828-.484-1.422-.484-.797 0-1.375.28-1.719.828-.234.328-.328.734-.344 1.375h.782c.015-.438.078-.688.187-.907.188-.375.594-.625 1.063-.625.703 0 1.234.516 1.234 1.204 0 .515-.297.953-.844 1.265l-.812.469C.75-2 .375-1.406.297-.016h4.156zm0 0" id="s"/><path d="M1.938-2.922h.421c.844 0 1.297.39 1.297 1.156 0 .797-.484 1.282-1.281 1.282-.86 0-1.266-.438-1.313-1.36h-.78c.03.5.124.844.265 1.125.328.61.937.922 1.797.922 1.281 0 2.11-.781 2.11-1.984 0-.813-.313-1.25-1.063-1.516.578-.234.875-.672.875-1.312 0-1.094-.72-1.75-1.907-1.75-1.25 0-1.921.703-1.953 2.046h.781c.016-.39.047-.609.141-.796.172-.36.563-.579 1.047-.579.688 0 1.094.422 1.094 1.11 0 .437-.156.719-.5.86-.203.093-.485.124-1.031.14zm0 0" id="t"/><path d="M4.813-4.156c0-1.14-.75-1.766-2.079-1.766-1.343 0-2.218.688-2.218 1.75 0 .906.468 1.328 1.828 1.656l.86.22c.64.155.89.39.89.796 0 .547-.547.906-1.344.906-.5 0-.906-.14-1.14-.39-.141-.157-.22-.329-.266-.735H.375C.422-.39 1.172.25 2.672.25c1.453 0 2.375-.719 2.375-1.828 0-.86-.484-1.328-1.625-1.594l-.875-.219c-.75-.171-1.078-.421-1.078-.828 0-.531.484-.86 1.218-.86.75 0 1.141.313 1.157.923zm0 0" id="u"/><path d="M2.797-5.766h-.953v-1.578H.937v1.578h-.78v.75h.78v4.36c0 .594.391.906 1.11.906.234 0 .437-.016.75-.078v-.766c-.14.031-.25.047-.438.047-.406 0-.515-.11-.515-.515v-3.954h.953zm0 0" id="v"/><path d="M5.89-.531c-.109.015-.156.015-.202.015-.313 0-.5-.171-.5-.453v-3.39c0-1.016-.75-1.563-2.157-1.563-.86 0-1.531.234-1.922.656-.265.297-.375.641-.39 1.204h.922c.078-.704.5-1.016 1.343-1.016.844 0 1.297.297 1.297.86v.234c-.015.39-.218.546-.953.64-1.297.172-1.5.203-1.86.36-.671.28-1 .78-1 1.53C.469-.405 1.189.25 2.36.25c.72 0 1.297-.25 1.954-.844.062.594.343.844.953.844.187 0 .312-.016.625-.094zM4.282-1.812c0 .312-.093.5-.36.75-.374.343-.827.515-1.374.515-.703 0-1.125-.344-1.125-.922 0-.61.39-.922 1.39-1.062.97-.125 1.157-.172 1.47-.313zm0 0" id="w"/><path d="M5.64-2.578c0-.875-.062-1.406-.234-1.828-.375-.953-1.25-1.516-2.328-1.516-1.61 0-2.64 1.219-2.64 3.11 0 1.906 1 3.062 2.624 3.062 1.313 0 2.235-.75 2.454-2h-.922c-.25.766-.766 1.156-1.5 1.156a1.61 1.61 0 01-1.39-.75c-.22-.328-.298-.656-.313-1.234zm-4.218-.75c.078-1.063.719-1.75 1.64-1.75.938 0 1.594.719 1.594 1.75zm0 0" id="x"/><path d="M2.094-1.14H.954V0h1.14zm0 0" id="y"/><path d="M.766-5.766V0h.921v-3.625c0-.828.61-1.5 1.36-1.5.687 0 1.062.422 1.062 1.156V0h.922v-3.625c0-.828.61-1.5 1.36-1.5.671 0 1.062.422 1.062 1.156V0h.922v-4.328c0-1.031-.594-1.594-1.672-1.594-.766 0-1.219.219-1.766.875-.343-.625-.796-.875-1.546-.875-.766 0-1.297.281-1.782.969v-.813zm0 0" id="z"/><path d="M1.672-8.016H.75V0h.922zm0 0" id="A"/><path d="M-4.156-4.813c-1.14 0-1.766.75-1.766 2.079 0 1.343.688 2.218 1.75 2.218.906 0 1.328-.468 1.656-1.828l.22-.86c.155-.64.39-.89.796-.89.547 0 .906.547.906 1.344 0 .5-.14.906-.39 1.14-.157.141-.329.22-.735.266v.969C-.39-.422.25-1.172.25-2.672c0-1.453-.719-2.375-1.828-2.375-.86 0-1.328.484-1.594 1.625l-.219.875c-.171.75-.421 1.078-.828 1.078-.531 0-.86-.484-.86-1.218 0-.75.313-1.141.923-1.157zm0 0" id="B"/><path d="M-5.766-2.797v.953h-1.578v.907h1.578v.78h.75v-.78h4.36c.594 0 .906-.391.906-1.11 0-.234-.016-.437-.078-.75h-.766c.031.14.047.25.047.438 0 .406-.11.515-.515.515h-3.954v-.953zm0 0" id="C"/><path d="M-.531-5.89c.015.109.015.156.015.202 0 .313-.171.5-.453.5h-3.39c-1.016 0-1.563.75-1.563 2.157 0 .86.234 1.531.656 1.922.297.265.641.375 1.204.39v-.922c-.704-.078-1.016-.5-1.016-1.343 0-.844.297-1.297.86-1.297h.234c.39.015.546.218.64.953.172 1.297.203 1.5.36 1.86.28.671.78 1 1.53 1C-.405-.469.25-1.189.25-2.36c0-.72-.25-1.297-.844-1.954C0-4.375.25-4.655.25-5.266c0-.187-.016-.312-.094-.625zm-1.281 1.609c.312 0 .5.093.75.36.343.374.515.827.515 1.374 0 .703-.344 1.125-.922 1.125-.61 0-.922-.39-1.062-1.39-.125-.97-.172-1.157-.313-1.47zm0 0" id="D"/><path d="M-2.578-5.64c-.875 0-1.406.062-1.828.234-.953.375-1.516 1.25-1.516 2.328 0 1.61 1.219 2.64 3.11 2.64 1.906 0 3.062-1 3.062-2.624 0-1.313-.75-2.235-2-2.454v.922c.766.25 1.156.766 1.156 1.5a1.61 1.61 0 01-.75 1.39c-.328.22-.656.298-1.234.313zm-.75 4.218c-1.063-.078-1.75-.719-1.75-1.64 0-.938.719-1.594 1.75-1.594zm0 0" id="E"/><path d="M-1.14-2.094v1.14H0v-1.14zm0 0" id="F"/><path d="M-8.016-5.438v.907h2.985c-.594.39-.89 1-.89 1.765 0 1.5 1.187 2.485 3.03 2.485C-.953-.281.25-1.234.25-2.797c0-.797-.297-1.344-1.016-1.828H0v-.813zm2.938 2.516c0-.984.875-1.61 2.266-1.61 1.328 0 2.203.641 2.203 1.61 0 1.016-.891 1.672-2.235 1.672-1.344 0-2.234-.656-2.234-1.672zm0 0" id="G"/><path d="M-5.766-.766H0v-.921h-2.984c-1.391 0-2.016-.579-1.985-1.844h-.922c-.03.156-.03.25-.03.36 0 .593.343 1.03 1.202 1.562h-1.047zm0 0" id="H"/><clipPath id="a"><path d="M35.152 5.48h319.371v320.372H35.153zm0 0"/></clipPath><clipPath id="b"><path d="M35.152 273h319.371v1H35.153zm0 0"/></clipPath><clipPath id="c"><path d="M35.152 179h319.371v2H35.153zm0 0"/></clipPath><clipPath id="d"><path d="M35.152 85h319.371v2H35.153zm0 0"/></clipPath><clipPath id="e"><path d="M86 5.48h2v320.372h-2zm0 0"/></clipPath><clipPath id="f"><path d="M180 5.48h2v320.372h-2zm0 0"/></clipPath><clipPath id="g"><path d="M274 5.48h1v320.372h-1zm0 0"/></clipPath><clipPath id="h"><path d="M35.152 320h319.371v2H35.153zm0 0"/></clipPath><clipPath id="i"><path d="M35.152 226h319.371v2H35.153zm0 0"/></clipPath><clipPath id="j"><path d="M35.152 132h319.371v2H35.153zm0 0"/></clipPath><clipPath id="k"><path d="M35.152 38h319.371v2H35.153zm0 0"/></clipPath><clipPath id="l"><path d="M39 5.48h2v320.372h-2zm0 0"/></clipPath><clipPath id="m"><path d="M133 5.48h2v320.372h-2zm0 0"/></clipPath><clipPath id="n"><path d="M227 5.48h2v320.372h-2zm0 0"/></clipPath><clipPath id="o"><path d="M320 5.48h2v320.372h-2zm0 0"/></clipPath><clipPath id="p"><path d="M35.152 5.48h319.371v320.372H35.153zm0 0"/></clipPath></defs><path fill="#FFF" d="M-36-36h432v432H-36z"/><path fill="#FFF" d="M-36-36h432v432H-36z"/><path fill="none" stroke-width="1.067" stroke-linecap="round" stroke-linejoin="round" stroke="#FFF" stroke-miterlimit="10" d="M0 360h360V0H0zm0 0"/><g clip-path="url(#a)"><path fill="#EBEBEB" d="M35.152 325.848h319.371V5.477H35.153zm0 0"/></g><g clip-path="url(#b)"><path fill="none" stroke-width=".533" stroke-linejoin="round" stroke="#FFF" stroke-miterlimit="10" d="M35.152 273.707H354.52"/></g><g clip-path="url(#c)"><path fill="none" stroke-width=".533" stroke-linejoin="round" stroke="#FFF" stroke-miterlimit="10" d="M35.152 179.758H354.52"/></g><g clip-path="url(#d)"><path fill="none" stroke-width=".533" stroke-linejoin="round" stroke="#FFF" stroke-miterlimit="10" d="M35.152 85.809H354.52"/></g><g clip-path="url(#e)"><path fill="none" stroke-width=".533" stroke-linejoin="round" stroke="#FFF" stroke-miterlimit="10" d="M87.129 325.848V5.48"/></g><g clip-path="url(#f)"><path fill="none" stroke-width=".533" stroke-linejoin="round" stroke="#FFF" stroke-miterlimit="10" d="M180.785 325.848V5.48"/></g><g clip-path="url(#g)"><path fill="none" stroke-width=".533" stroke-linejoin="round" stroke="#FFF" stroke-miterlimit="10" d="M274.445 325.848V5.48"/></g><g clip-path="url(#h)"><path fill="none" stroke-width="1.067" stroke-linejoin="round" stroke="#FFF" stroke-miterlimit="10" d="M35.152 320.684H354.52"/></g><g clip-path="url(#i)"><path fill="none" stroke-width="1.067" stroke-linejoin="round" stroke="#FFF" stroke-miterlimit="10" d="M35.152 226.73H354.52"/></g><g clip-path="url(#j)"><path fill="none" stroke-width="1.067" stroke-linejoin="round" stroke="#FFF" stroke-miterlimit="10" d="M35.152 132.781H354.52"/></g><g clip-path="url(#k)"><path fill="none" stroke-width="1.067" stroke-linejoin="round" stroke="#FFF" stroke-miterlimit="10" d="M35.152 38.832H354.52"/></g><g clip-path="url(#l)"><path fill="none" stroke-width="1.067" stroke-linejoin="round" stroke="#FFF" stroke-miterlimit="10" d="M40.3 325.848V5.48"/></g><g clip-path="url(#m)"><path fill="none" stroke-width="1.067" stroke-linejoin="round" stroke="#FFF" stroke-miterlimit="10" d="M133.957 325.848V5.48"/></g><g clip-path="url(#n)"><path fill="none" stroke-width="1.067" stroke-linejoin="round" stroke="#FFF" stroke-miterlimit="10" d="M227.617 325.848V5.48"/></g><g clip-path="url(#o)"><path fill="none" stroke-width="1.067" stroke-linejoin="round" stroke="#FFF" stroke-miterlimit="10" d="M321.273 325.848V5.48"/></g><g clip-path="url(#p)"><path fill="none" stroke-width="1.067" stroke-linejoin="round" stroke="#FFF" stroke-miterlimit="10" d="M-284.219 646.219l958.11-961.11"/></g><path stroke-width=".709" stroke-linecap="round" stroke-linejoin="round" stroke="#000" stroke-miterlimit="10" d="M98.45 29.438c0 2.605-3.907 2.605-3.907 0 0-2.606 3.906-2.606 3.906 0M89.086 179.758c0 2.605-3.91 2.605-3.91 0 0-2.606 3.91-2.606 3.91 0M79.719 254.918c0 2.605-3.91 2.605-3.91 0 0-2.606 3.91-2.606 3.91 0M70.355 292.496c0 2.606-3.91 2.606-3.91 0 0-2.605 3.91-2.605 3.91 0M51.621 311.285c0 2.61-3.91 2.61-3.91 0 0-2.605 3.91-2.605 3.91 0M79.719 283.102c0 2.605-3.91 2.605-3.91 0 0-2.606 3.91-2.606 3.91 0M117.184 245.523c0 2.606-3.91 2.606-3.91 0 0-2.609 3.91-2.609 3.91 0M192.11 170.363c0 2.606-3.91 2.606-3.91 0 0-2.61 3.91-2.61 3.91 0M341.957 20.043c0 2.605-3.906 2.605-3.906 0 0-2.61 3.906-2.61 3.906 0M60.988 301.89c0 2.61-3.91 2.61-3.91 0 0-2.605 3.91-2.605 3.91 0"/><use xlink:href="#q" x="25.219" y="323.599" fill="#4D4D4D"/><g fill="#4D4D4D"><use xlink:href="#r" x="20.219" y="229.646"/><use xlink:href="#q" x="25.219" y="229.646"/></g><g fill="#4D4D4D"><use xlink:href="#s" x="20.219" y="135.696"/><use xlink:href="#q" x="25.219" y="135.696"/></g><g fill="#4D4D4D"><use xlink:href="#t" x="20.219" y="41.747"/><use xlink:href="#q" x="25.219" y="41.747"/></g><path fill="none" stroke-width="1.067" stroke-linejoin="round" stroke="#333" stroke-miterlimit="10" d="M32.41 320.684h2.742M32.41 226.73h2.742M32.41 132.781h2.742M32.41 38.832h2.742M40.3 328.59v-2.742M133.957 328.59v-2.742M227.617 328.59v-2.742M321.273 328.59v-2.742"/><use xlink:href="#q" x="37.801" y="337.196" fill="#4D4D4D"/><g fill="#4D4D4D"><use xlink:href="#r" x="128.957" y="337.196"/><use xlink:href="#q" x="133.957" y="337.196"/></g><g fill="#4D4D4D"><use xlink:href="#s" x="222.617" y="337.196"/><use xlink:href="#q" x="227.617" y="337.196"/></g><g fill="#4D4D4D"><use xlink:href="#t" x="316.273" y="337.196"/><use xlink:href="#q" x="321.273" y="337.196"/></g><use xlink:href="#u" x="166.836" y="350.538"/><use xlink:href="#v" x="171.836" y="350.538"/><use xlink:href="#w" x="174.836" y="350.538"/><use xlink:href="#v" x="180.836" y="350.538"/><use xlink:href="#x" x="183.836" y="350.538"/><use xlink:href="#u" x="189.836" y="350.538"/><use xlink:href="#y" x="194.836" y="350.538"/><use xlink:href="#u" x="197.836" y="350.538"/><use xlink:href="#z" x="203.836" y="350.538"/><use xlink:href="#w" x="212.836" y="350.538"/><use xlink:href="#A" x="218.836" y="350.538"/><use xlink:href="#A" x="220.836" y="350.538"/><g><use xlink:href="#B" x="13.499" y="193.664"/><use xlink:href="#C" x="13.499" y="188.664"/><use xlink:href="#D" x="13.499" y="185.664"/><use xlink:href="#C" x="13.499" y="179.664"/><use xlink:href="#E" x="13.499" y="176.664"/><use xlink:href="#B" x="13.499" y="170.664"/><use xlink:href="#F" x="13.499" y="165.664"/><use xlink:href="#G" x="13.499" y="162.664"/><use xlink:href="#E" x="13.499" y="156.664"/><use xlink:href="#C" x="13.499" y="150.664"/><use xlink:href="#E" x="13.499" y="147.664"/><use xlink:href="#H" x="13.499" y="141.664"/></g></svg>