<?xml-stylesheet href="spot.css" type="text/css"?><svg width="242pt" height="194pt" viewBox="0 0 242 194" xmlns="http://www.w3.org/2000/svg"><g class="graph" transform="translate(4 190)"><path fill="#fff" stroke="transparent" d="M-4 4v-194h242V4H-4z"/><text x="114.5" y="-172.4" font-family="Lato" font-size="12">t</text><text x="105.5" y="-159.4" font-family="Lato" font-size="12">[all]</text><g class="node"><circle fill="#ffffa0" stroke="#000" cx="56" cy="-60" r="18"/><text text-anchor="middle" x="56" y="-56.9" font-family="Lato" font-size="12">0</text></g><g class="edge"><path fill="none" stroke="#000" d="M1.15-60h29.48"/><path stroke="#000" d="M37.94-60l-7-3.15 3.5 3.15h-3.5 3.5l-3.5 3.15 7-3.15h0z"/></g><g class="node"><circle fill="#ffffa0" stroke="#000" cx="136" cy="-103" r="18"/><text text-anchor="middle" x="136" y="-99.9" font-family="Lato" font-size="12">1</text></g><g class="edge"><path fill="none" stroke="#000" d="M72.04-68.29c11.87-6.54 28.57-15.75 41.79-23.04"/><path stroke="#000" d="M120.01-94.73l-7.65.62 4.58 1.07-3.06 1.68h0l3.06-1.68-1.54 4.44 4.61-6.13h0z"/><text text-anchor="middle" x="96" y="-86.4" font-family="Lato" font-size="12">1</text></g><g class="node"><circle fill="#ffffa0" stroke="#000" cx="136" cy="-18" r="18"/><text text-anchor="middle" x="136" y="-14.9" font-family="Lato" font-size="12">2</text></g><g class="edge"><path fill="none" stroke="#000" d="M72.41-51.7l41.01 22.08"/><path stroke="#000" d="M119.89-26.14l-4.67-6.09 1.59 4.43-3.09-1.66h0l3.09 1.66-4.58 1.12 7.66.54h0z"/><text x="92.5" y="-44.4" font-family="Lato" font-size="12">c</text></g><g class="node"><circle fill="#ffffa0" stroke="#000" cx="216" cy="-103" r="18"/><text text-anchor="middle" x="216" y="-99.9" font-family="Lato" font-size="12">3</text></g><g class="edge"><path fill="none" stroke="#000" d="M154.31-103h36.4"/><path stroke="#000" d="M197.74-103l-7-3.15 3.5 3.15h-3.5 3.5l-3.5 3.15 7-3.15h0z"/><text x="172" y="-106.4" font-family="Lato" font-size="12">a</text></g><g class="edge"><path fill="none" stroke="#000" d="M128.97-34.66C127.41-44.62 129.75-54 136-54c4.69 0 7.18 5.27 7.47 12.11"/><path stroke="#000" d="M143.03-34.66l3.57-6.8-3.36 3.3.22-3.49h0l-.22 3.49-2.93-3.68 2.72 7.18h0z"/><text x="132.5" y="-57.4" font-family="Lato" font-size="12">c</text></g><g class="edge"><path fill="none" stroke="#000" d="M208.97-119.66c-1.56-9.96.78-19.34 7.03-19.34 4.69 0 7.18 5.27 7.47 12.11"/><path stroke="#000" d="M223.03-119.66l3.57-6.8-3.36 3.3.22-3.49h0l-.22 3.49-2.93-3.68 2.72 7.18h0z"/><text text-anchor="middle" x="216" y="-142.4" font-family="Lato" font-size="12">1</text></g></g></svg>