<svg width="434pt" height="268pt" viewBox="0 0 434 268" xmlns="http://www.w3.org/2000/svg"><g class="graph" transform="translate(4 264)"><path fill="#fff" stroke="transparent" d="M-4 4v-268h434V4H-4z"/><text text-anchor="middle" x="213" y="-244.8" font-family="Times,serif" font-size="14">Inf(0)</text><text text-anchor="middle" x="213" y="-229.8" font-family="Times,serif" font-size="14">[Büchi]</text><g class="node"><circle fill="none" stroke="#000" cx="56" cy="-127" r="18"/><text text-anchor="middle" x="56" y="-123.3" font-family="Times,serif" font-size="14">0</text></g><g class="edge"><path fill="none" stroke="#000" d="M1.15-127h26.48"/><path stroke="#000" d="M27.94-130.5l10 3.5-10 3.5v-7z"/></g><g class="edge"><path fill="none" stroke="#000" d="M49.62-144.04c-1.3-9.82.83-18.96 6.38-18.96 3.47 0 5.6 3.57 6.4 8.65"/><path stroke="#000" d="M65.9-154.03l-3.52 9.99-3.48-10 7 .01z"/><text text-anchor="middle" x="56" y="-181.8" font-family="Times,serif" font-size="14">!a &amp; !c</text><text text-anchor="middle" x="56" y="-166.8" font-family="Times,serif" font-size="14">{0}</text></g><g class="node"><circle fill="none" stroke="#000" cx="408" cy="-156" r="18"/><text text-anchor="middle" x="408" y="-152.3" font-family="Times,serif" font-size="14">1</text></g><g class="edge"><path fill="none" stroke="#000" d="M70.23-138.58C76.48-143.59 84.27-149.16 92-153c38.55-19.14 50.39-20.94 93-27 70.44-10.02 153.98 6.66 195.63 16.91"/><path stroke="#000" d="M381.69-166.43l8.83 5.85-10.55.93 1.72-6.78z"/><text text-anchor="middle" x="258" y="-185.8" font-family="Times,serif" font-size="14">c</text></g><g class="node"><circle fill="none" stroke="#000" cx="203" cy="-120" r="18"/><text text-anchor="middle" x="203" y="-116.3" font-family="Times,serif" font-size="14">2</text></g><g class="edge"><path fill="none" stroke="#000" d="M73.9-129.95c21.71-3.29 60.48-7.49 93.1-2.05 3.13.52 6.36 1.29 9.52 2.19"/><path stroke="#000" d="M177.84-133.07l8.42 6.44-10.59.22 2.17-6.66z"/><text text-anchor="middle" x="129.5" y="-137.8" font-family="Times,serif" font-size="14">a &amp; !c</text></g><g class="node"><circle fill="none" stroke="#000" cx="203" cy="-18" r="18"/><text text-anchor="middle" x="203" y="-14.3" font-family="Times,serif" font-size="14">3</text></g><g class="edge"><path fill="none" stroke="#000" d="M64.05-110.8C70.03-98.59 79.62-82.09 92-71c24.48 21.93 59.66 36.74 83.6 45.01"/><path stroke="#000" d="M177.02-29.21l8.39 6.46-10.59.19 2.2-6.65z"/><text text-anchor="middle" x="129.5" y="-74.8" font-family="Times,serif" font-size="14">a &amp; b &amp; !c</text></g><g class="edge"><path fill="none" stroke="#000" d="M400.62-172.66c-1.64-9.96.82-19.34 7.38-19.34 4.2 0 6.72 3.85 7.56 9.23"/><path stroke="#000" d="M419.06-182.6l-3.68 9.94-3.32-10.06 7 .12z"/><text text-anchor="middle" x="408" y="-210.8" font-family="Times,serif" font-size="14">1</text><text text-anchor="middle" x="408" y="-195.8" font-family="Times,serif" font-size="14">{0}</text></g><g class="edge"><path fill="none" stroke="#000" d="M188.57-109.06c-6.18 4.34-13.85 8.83-21.57 11.06-32.03 9.23-43.64 11.3-75 0-5.57-2.01-10.88-5.33-15.6-9.02"/><path stroke="#000" d="M73.81-104.64l-5.21-9.22 9.82 3.96-4.61 5.26z"/><text text-anchor="middle" x="129.5" y="-116.8" font-family="Times,serif" font-size="14">!a &amp; !c</text><text text-anchor="middle" x="129.5" y="-101.8" font-family="Times,serif" font-size="14">{0}</text></g><g class="edge"><path fill="none" stroke="#000" d="M220.96-123.01c35.31-6.26 116.97-20.74 159.39-28.26"/><path stroke="#000" d="M379.77-154.73l10.46 1.7-9.23 5.2-1.23-6.9z"/><text text-anchor="middle" x="317" y="-146.8" font-family="Times,serif" font-size="14">!a &amp; c</text></g><g class="edge"><path fill="none" stroke="#000" d="M193.77-135.54c-2.6-10.37.48-20.46 9.23-20.46 5.74 0 9.04 4.35 9.9 10.26"/><path stroke="#000" d="M216.38-145.29l-4.15 9.75-2.84-10.21 6.99.46z"/><text text-anchor="middle" x="203" y="-159.8" font-family="Times,serif" font-size="14">a &amp; !c</text></g><g class="node"><circle fill="none" stroke="#000" cx="317" cy="-69" r="18"/><text text-anchor="middle" x="317" y="-65.3" font-family="Times,serif" font-size="14">4</text></g><g class="edge"><path fill="none" stroke="#000" d="M219.57-112.91c18.45 8.4 49.45 22.52 71.3 32.47"/><path stroke="#000" d="M292.55-83.53l7.65 7.33-10.55-.95 2.9-6.38z"/><text text-anchor="middle" x="258" y="-106.8" font-family="Times,serif" font-size="14">a &amp; c</text></g><g class="edge"><path fill="none" stroke="#000" d="M193.77-33.54C191.17-43.91 194.25-54 203-54c5.74 0 9.04 4.35 9.9 10.26"/><path stroke="#000" d="M216.38-43.29l-4.15 9.75-2.84-10.21 6.99.46z"/><text text-anchor="middle" x="203" y="-72.8" font-family="Times,serif" font-size="14">b</text><text text-anchor="middle" x="203" y="-57.8" font-family="Times,serif" font-size="14">{0}</text></g><g class="edge"><path fill="none" stroke="#000" d="M330.38-81.1l56.65-55.38"/><path stroke="#000" d="M384.85-139.24l9.59-4.49-4.7 9.5-4.89-5.01z"/><text text-anchor="middle" x="364.5" y="-123.8" font-family="Times,serif" font-size="14">!a</text></g><g class="edge"><path fill="none" stroke="#000" d="M308.98-85.29c-1.93-10.1.74-19.71 8.02-19.71 4.66 0 7.43 3.94 8.32 9.43"/><path stroke="#000" d="M328.81-95.18l-3.79 9.89-3.21-10.1 7 .21z"/><text text-anchor="middle" x="317" y="-108.8" font-family="Times,serif" font-size="14">a</text></g></g></svg>