<?xml-stylesheet href="spot.css" type="text/css"?><svg width="290pt" height="149pt" viewBox="0 0 290 148.74" xmlns="http://www.w3.org/2000/svg"><g class="graph"><path fill="#fff" stroke="transparent" d="M0 148.74V0h290v148.74H0z"/><text x="99" y="-128.14" font-family="Lato" font-size="12" transform="translate(4 144.74)">Inf(</text><text x="120" y="-128.14" font-family="Lato" font-size="12" fill="#1f78b4" transform="translate(4 144.74)">⓿</text><text x="133" y="-128.14" font-family="Lato" font-size="12" transform="translate(4 144.74)">)&amp;Inf(</text><text x="167" y="-128.14" font-family="Lato" font-size="12" fill="#ff4da0" transform="translate(4 144.74)">❶</text><text x="178" y="-128.14" font-family="Lato" font-size="12" transform="translate(4 144.74)">)</text><text x="99" y="-116.14" font-family="Lato" font-size="12" transform="translate(4 144.74)">[gen. Büchi 2]</text><g class="node" transform="translate(4 144.74)"><circle fill="#ffffa0" stroke="#000" cx="56" cy="-33.74" r="18"/><text text-anchor="middle" x="56" y="-30.64" font-family="Lato" font-size="12">0</text></g><g class="edge" transform="translate(4 144.74)"><path fill="none" stroke="#000" d="M1.15-33.74h29.48"/><path stroke="#000" d="M37.94-33.74l-7-3.15 3.5 3.15h-3.5 3.5l-3.5 3.15 7-3.15h0z"/></g><g class="node" transform="translate(4 144.74)"><circle fill="#ffffa0" stroke="#000" cx="158" cy="-83.74" r="18"/><text text-anchor="middle" x="158" y="-80.64" font-family="Lato" font-size="12">1</text></g><g class="edge" transform="translate(4 144.74)"><path fill="none" stroke="#000" d="M65.16-49.52C71.17-59.4 80.32-71.43 92-77.74c12.33-6.67 27.93-8.29 40.75-8.19"/><path stroke="#000" d="M139.93-85.69l-6.89-3.38 3.4 3.26-3.5-.11h0l3.5.11-3.61 3.04 7.1-2.92h0z"/><text x="94" y="-87.14" font-family="Lato" font-size="12">p0</text></g><g class="node" transform="translate(4 144.74)"><circle fill="#ffffa0" stroke="#000" cx="256" cy="-33.74" r="18"/><text text-anchor="middle" x="256" y="-30.64" font-family="Lato" font-size="12">2</text></g><g class="edge" transform="translate(4 144.74)"><path fill="none" stroke="#000" d="M74.22-33.74h156.66"/><path stroke="#000" d="M237.96-33.74l-7-3.15 3.5 3.15h-3.5 3.5l-3.5 3.15 7-3.15h0z"/><text x="148" y="-37.14" font-family="Lato" font-size="12">!p0</text></g><g class="edge" transform="translate(4 144.74)"><path fill="none" stroke="#000" d="M144.64-71.42c-8.52 7.83-20.46 17.62-32.64 23.68-9.65 4.81-21.1 8.06-31.05 10.21"/><path stroke="#000" d="M74.02-36.15l7.48 1.73-4.05-2.41 3.43-.68h0l-3.43.68 2.82-3.77-6.25 4.45h0z"/><text x="92" y="-64.14" font-family="Lato" font-size="12">!p0</text><text x="95.5" y="-51.14" font-family="Lato" font-size="12" fill="#1f78b4">⓿</text></g><g class="edge" transform="translate(4 144.74)"><path fill="none" stroke="#000" d="M176.08-85.51c12.84-.54 30.46.45 43.92 7.77 9.29 5.06 16.99 13.72 22.78 22.03"/><path stroke="#000" d="M246.82-49.5l-1.18-7.58-.73 4.65-1.91-2.93h0l1.91 2.93-4.54-1.21 6.45 4.14h0z"/><text x="204" y="-99.14" font-family="Lato" font-size="12">p0</text><text x="206.5" y="-86.14" font-family="Lato" font-size="12" fill="#ff4da0">❶</text></g><g class="edge" transform="translate(4 144.74)"><path fill="none" stroke="#000" d="M239.98-25.05C226.39-17.73 205.57-7.81 186-3.74c-24.37 5.07-31.58 4.82-56 0-18.02-3.56-37.19-11.62-51.36-18.49"/><path stroke="#000" d="M72.12-25.48l4.86 5.94-1.73-4.38 3.13 1.56h0l-3.13-1.56 4.54-1.26-7.67-.3h0z"/><text x="130" y="-20.14" font-family="Lato" font-size="12">!p0 &amp; !p1</text><text x="152.5" y="-7.14" font-family="Lato" font-size="12" fill="#ff4da0">❶</text></g><g class="edge" transform="translate(4 144.74)"><path fill="none" stroke="#000" d="M237.83-36.64c-10.21-2.15-23.2-5.68-33.83-11.1-9.66-4.92-19.21-12.13-27-18.8"/><path stroke="#000" d="M171.4-71.5l3.15 7-.53-4.68 2.62 2.32h0l-2.62-2.32 4.71-.04-7.33-2.28h0z"/><text x="204" y="-64.14" font-family="Lato" font-size="12">p0</text><text x="205.5" y="-51.14" font-family="Lato" font-size="12" fill="#1f78b4">⓿</text></g><g class="edge" transform="translate(4 144.74)"><path fill="none" stroke="#000" d="M248.33-50.03c-1.85-10.1.71-19.71 7.67-19.71 5.22 0 7.96 5.41 8.23 12.37"/><path stroke="#000" d="M263.67-50.03l3.67-6.74-3.41 3.25.27-3.49h0l-.27 3.49-2.87-3.73 2.61 7.22h0z"/><text x="230" y="-86.14" font-family="Lato" font-size="12">!p0 &amp; p1</text><text x="249.5" y="-73.14" font-family="Lato" font-size="12" fill="#1f78b4">⓿</text></g></g></svg>