<?xml-stylesheet href="spot.css" type="text/css"?><svg width="262pt" height="106pt" viewBox="0 0 262 106" xmlns="http://www.w3.org/2000/svg"><g class="graph"><path fill="#fff" stroke="transparent" d="M0 106V0h262v106H0z"/><text x="105.5" y="-84.4" font-family="Lato" font-size="12" transform="translate(4 102)">[Büchi]</text><g class="node" transform="translate(4 102)"><circle fill="#ffffa0" stroke="#000" cx="60" cy="-35" r="18"/><circle fill="none" stroke="#000" cx="60" cy="-35" r="22"/><text x="54.5" y="-31.9" font-family="Lato" font-size="12">s₁</text></g><g class="edge" transform="translate(4 102)"><path fill="none" stroke="#000" d="M1.17-35h29.54"/><path stroke="#000" d="M37.86-35l-7-3.15 3.5 3.15h-3.5 3.5l-3.5 3.15 7-3.15h0z"/></g><g class="node" transform="translate(4 102)"><circle fill="#ffffa0" stroke="#000" cx="150" cy="-55" r="18"/><circle fill="none" stroke="#000" cx="150" cy="-55" r="22"/><text x="144.5" y="-51.9" font-family="Lato" font-size="12">s₂</text></g><g class="edge" transform="translate(4 102)"><path fill="none" stroke="#000" d="M80.58-42.99C86.71-45.23 93.56-47.47 100-49c6.61-1.57 13.83-2.74 20.65-3.62"/><path stroke="#000" d="M127.83-53.45l-7.31-2.32 3.84 2.72-3.48.41h0l3.48-.41-3.12 3.54 6.59-3.94h0z"/><text x="100" y="-53.4" font-family="Lato" font-size="12">ℓ₁</text></g><g class="edge" transform="translate(4 102)"><path fill="none" stroke="#000" d="M131.65-42.09C125.19-38.03 117.58-34.07 110-32c-6.64 1.81-13.97 2.18-20.89 1.84"/><path stroke="#000" d="M81.81-30.78l6.71 3.73-3.22-3.43 3.48.29h0l-3.48-.29 3.75-2.85-7.24 2.55h0z"/><text x="100" y="-35.4" font-family="Lato" font-size="12">ℓ₃</text></g><g class="node" transform="translate(4 102)"><circle fill="#ffffa0" stroke="#000" cx="236" cy="-18" r="18"/><text x="230.5" y="-14.9" font-family="Lato" font-size="12">s₃</text></g><g class="edge" transform="translate(4 102)"><path fill="none" stroke="#000" d="M170.48-46.42c12.63 5.56 29.12 12.83 42.26 18.62"/><path stroke="#000" d="M219.27-24.93l-5.13-5.7 1.93 4.29-3.2-1.41h0l3.2 1.41-4.47 1.47 7.67-.06h0z"/><text x="190" y="-40.4" font-family="Lato" font-size="12">ℓ₂</text></g><g class="edge" transform="translate(4 102)"><path fill="none" stroke="#000" d="M218.19-14.46C197-10.56 159.55-5.52 128-11c-14.07-2.44-29.1-7.57-41.34-12.47"/><path stroke="#000" d="M80.16-26.14l5.27 5.58-2.03-4.25 3.23 1.33h0l-3.23-1.33 4.43-1.58-7.67.25h0z"/><text x="145" y="-14.4" font-family="Lato" font-size="12">ℓ₃</text></g></g></svg>