<?xml-stylesheet href="spot.css" type="text/css"?><svg width="336" height="352" viewBox="0 0 251.5 263.62" xmlns="http://www.w3.org/2000/svg"><g class="graph"><path fill="#fff" stroke="transparent" d="M0 263.62V0h251.5v263.62H0z"/><text x="100.25" y="-242.02" font-family="Lato" font-size="12" transform="translate(4 259.62)">[Büchi]</text><g class="node" transform="translate(4 259.62)"><circle fill="#ffffa0" stroke="#000" cx="60" cy="-26.62" r="18"/><circle fill="none" stroke="#000" cx="60" cy="-26.62" r="22"/><text text-anchor="middle" x="60" y="-23.52" font-family="Lato" font-size="12">1</text></g><g class="edge" transform="translate(4 259.62)"><path fill="none" stroke="#000" d="M1.17-26.62h29.54"/><path stroke="#000" d="M37.86-26.62l-7-3.15 3.5 3.15h-3.5 3.5l-3.5 3.15 7-3.15h0z"/></g><g class="edge" transform="translate(4 259.62)"><path fill="none" stroke="#000" d="M58.15-48.84c-.15-9.58.46-17.78 1.85-17.78 1.02 0 1.62 4.42 1.81 10.57"/><path stroke="#000" d="M61.85-48.84l3.11-7.01-3.13 3.51-.02-3.49h0l.02 3.49-3.17-3.48 3.19 6.98h0z"/><text x="28" y="-70.02" font-family="Lato" font-size="12">a &amp; !b &amp; !c</text></g><g class="edge" transform="translate(4 259.62)"><path fill="none" stroke="#000" d="M56.78-48.64c-1.29-17.71-.22-35.98 3.22-35.98 2.98 0 4.18 13.74 3.61 28.94"/><path stroke="#000" d="M63.22-48.64l3.53-6.82-3.33 3.32.19-3.49h0l-.19 3.49-2.96-3.66 2.76 7.16h0z"/><text x="30" y="-88.02" font-family="Lato" font-size="12">a &amp; !b &amp; c</text></g><g class="edge" transform="translate(4 259.62)"><path fill="none" stroke="#000" d="M55.87-48.41c-2.93-25.12-1.55-54.21 4.13-54.21 5.15 0 6.76 23.89 4.84 47.07"/><path stroke="#000" d="M64.13-48.41l3.83-6.65-3.48 3.17.34-3.48h0l-.34 3.48-2.79-3.79 2.44 7.27h0z"/><text x="30" y="-106.02" font-family="Lato" font-size="12">a &amp; b &amp; !c</text></g><g class="edge" transform="translate(4 259.62)"><path fill="none" stroke="#000" d="M55.21-48.34c-4.81-32.1-3.22-72.28 4.79-72.28 7.41 0 9.33 34.44 5.75 65.02"/><path stroke="#000" d="M64.79-48.34l4.04-6.52-3.58 3.05.46-3.47h0l-.46 3.47-2.66-3.88 2.2 7.35h0z"/><text x="32.5" y="-124.02" font-family="Lato" font-size="12">a &amp; b &amp; c</text></g><g class="node" transform="translate(4 259.62)"><circle fill="#ffffa0" stroke="#000" cx="209" cy="-26.62" r="18"/><circle fill="none" stroke="#000" cx="209" cy="-26.62" r="22"/><text text-anchor="middle" x="209" y="-23.52" font-family="Lato" font-size="12">0</text></g><g class="edge" transform="translate(4 259.62)"><path fill="none" stroke="#000" d="M80.48-35.1c6.13-2.26 13-4.39 19.52-5.52 30.21-5.26 38.79-5.26 69 0 4.18.72 8.5 1.86 12.68 3.17"/><path stroke="#000" d="M188.52-35.1l-5.6-5.25 2.29 4.11-3.31-1.13h0l3.31 1.13-4.33 1.85 7.64-.71h0z"/><text x="100" y="-47.02" font-family="Lato" font-size="12">!a &amp; !b &amp; !c</text></g><g class="edge" transform="translate(4 259.62)"><path fill="none" stroke="#000" d="M82.03-24.71c5.82.45 12.13.86 17.97 1.09 30.64 1.17 38.36 1.17 69 0 3.56-.14 7.29-.35 10.98-.59"/><path stroke="#000" d="M186.97-24.71l-7.21-2.64 3.72 2.89-3.49.25h0l3.49-.25-3.27 3.39 6.76-3.64h0z"/><text x="102.5" y="-27.02" font-family="Lato" font-size="12">!a &amp; !b &amp; c</text></g><g class="edge" transform="translate(4 259.62)"><path fill="none" stroke="#000" d="M78.88-14.6c6.38 3.63 13.81 7.13 21.12 8.98 29.74 7.49 39.26 7.49 69 0 5.02-1.27 10.1-3.32 14.86-5.66"/><path stroke="#000" d="M190.12-14.6l-7.66.5 4.57 1.14-3.09 1.64h0l3.09-1.64-1.62 4.42 4.71-6.06h0z"/><text x="104.5" y="-9.02" font-family="Lato" font-size="12">!a &amp; b &amp; c</text></g><g class="edge" transform="translate(4 259.62)"><path fill="none" stroke="#000" d="M206.72-48.84c-.19-9.58.57-17.78 2.28-17.78 1.26 0 2 4.42 2.23 10.57"/><path stroke="#000" d="M211.28-48.84l3.1-7.02-3.12 3.52-.03-3.49h0l.03 3.49-3.18-3.47 3.2 6.97h0z"/><text x="174.5" y="-70.02" font-family="Lato" font-size="12">!a &amp; !b &amp; !c</text></g><g class="edge" transform="translate(4 259.62)"><path fill="none" stroke="#000" d="M205.05-48.34c-1.63-17.8-.31-36.28 3.95-36.28 3.7 0 5.18 13.9 4.44 29.2"/><path stroke="#000" d="M212.95-48.34l3.63-6.76-3.39 3.27.24-3.49h0l-.24 3.49-2.9-3.71 2.66 7.2h0z"/><text x="177" y="-88.02" font-family="Lato" font-size="12">!a &amp; !b &amp; c</text></g><g class="edge" transform="translate(4 259.62)"><path fill="none" stroke="#000" d="M203.91-48.41c-3.62-25.12-1.92-54.21 5.09-54.21 6.35 0 8.34 23.89 5.97 47.07"/><path stroke="#000" d="M214.09-48.41l3.98-6.56-3.55 3.09.43-3.48h0l-.43 3.48-2.7-3.86 2.27 7.33h0z"/><text x="179" y="-106.02" font-family="Lato" font-size="12">!a &amp; b &amp; c</text></g><g class="edge" transform="translate(4 259.62)"><path fill="none" stroke="#000" d="M203.18-47.87c-6.04-32.17-4.1-72.75 5.82-72.75 9.19 0 11.53 34.78 7.03 65.47"/><path stroke="#000" d="M214.82-47.87l4.25-6.38-3.68 2.93.58-3.45h0l-.58 3.45-2.53-3.97 1.96 7.42h0z"/><text x="177" y="-124.02" font-family="Lato" font-size="12">a &amp; !b &amp; !c</text></g><g class="edge" transform="translate(4 259.62)"><path fill="none" stroke="#000" d="M202.6-47.79c-8.59-38.9-6.46-90.83 6.4-90.83 12.1 0 14.7 46.02 7.8 83.87"/><path stroke="#000" d="M215.4-47.79l4.47-6.24-3.78 2.81.69-3.43h0l-.69 3.43-2.39-4.05 1.7 7.48h0z"/><text x="179" y="-142.02" font-family="Lato" font-size="12">a &amp; !b &amp; c</text></g><g class="edge" transform="translate(4 259.62)"><path fill="none" stroke="#000" d="M202.14-47.73c-11.25-45.47-8.97-108.89 6.86-108.89 15.02 0 17.85 57.14 8.47 101.83"/><path stroke="#000" d="M215.86-47.73l4.63-6.13-3.85 2.71.78-3.41h0l-.78 3.41-2.29-4.11 1.51 7.53h0z"/><text x="181.5" y="-160.02" font-family="Lato" font-size="12">a &amp; b &amp; c</text></g></g></svg>