<?xml-stylesheet href="spot.css" type="text/css"?><svg width="307pt" height="180" viewBox="0 0 307 135" xmlns="http://www.w3.org/2000/svg"><g class="graph"><path fill="#fff" stroke="transparent" d="M0 135V0h307v135H0z"/><text x="128" y="-113.4" font-family="Lato" font-size="12" transform="translate(4 131)">[Büchi]</text><g class="node" transform="translate(4 131)"><circle fill="#ffffa0" stroke="#000" cx="60" cy="-22" r="18"/><circle fill="none" stroke="#000" cx="60" cy="-22" r="22"/><text text-anchor="middle" x="60" y="-18.9" font-family="Lato" font-size="12">1</text></g><g class="edge" transform="translate(4 131)"><path fill="none" stroke="#000" d="M1.17-22h29.54"/><path stroke="#000" d="M37.86-22l-7-3.15 3.5 3.15h-3.5 3.5l-3.5 3.15 7-3.15h0z"/></g><g class="edge" transform="translate(4 131)"><path fill="none" stroke="#000" d="M56.31-43.81C55.96-53.56 57.19-62 60-62c2.07 0 3.28 4.55 3.64 10.83"/><path stroke="#000" d="M63.69-43.81l3.1-7.02-3.12 3.52-.03-3.5h0l.03 3.5-3.18-3.47 3.2 6.97h0z"/><text x="11.5" y="-65.4" font-family="Lato" font-size="12">(a &amp; !b) | (a &amp; c)</text></g><g class="edge" transform="translate(4 131)"><path fill="none" stroke="#000" d="M53.69-43.11C50.9-61.1 53.01-80 60-80c6.06 0 8.45 14.22 7.16 29.72"/><path stroke="#000" d="M66.31-43.11l3.95-6.58-3.54 3.1.42-3.48h0l-.42 3.48-2.71-3.85 2.3 7.33h0z"/><text x="30" y="-83.4" font-family="Lato" font-size="12">a &amp; b &amp; !c</text></g><g class="node" transform="translate(4 131)"><circle fill="#ffffa0" stroke="#000" cx="246" cy="-22" r="18"/><circle fill="none" stroke="#000" cx="246" cy="-22" r="22"/><text text-anchor="middle" x="246" y="-18.9" font-family="Lato" font-size="12">0</text></g><g class="edge" transform="translate(4 131)"><path fill="none" stroke="#000" d="M82.11-22h134.71"/><path stroke="#000" d="M223.86-22l-7-3.15 3.5 3.15h-3.5 3.5l-3.5 3.15 7-3.15h0z"/><text x="100" y="-25.4" font-family="Lato" font-size="12">(!a &amp; !b) | (!a &amp; c)</text></g><g class="edge" transform="translate(4 131)"><path fill="none" stroke="#000" d="M237.63-42.58C236.47-52.84 239.26-62 246-62c5.05 0 7.89 5.15 8.5 12.05"/><path stroke="#000" d="M254.37-42.58l3.27-6.94-3.21 3.44.06-3.5h0l-.06 3.5-3.09-3.55 3.03 7.05h0z"/><text x="197.5" y="-65.4" font-family="Lato" font-size="12">(a &amp; !b) | (a &amp; c)</text></g><g class="edge" transform="translate(4 131)"><path fill="none" stroke="#000" d="M232.8-39.81C224.53-58.7 228.93-80 246-80c15.07 0 20.27 16.6 15.59 33.48"/><path stroke="#000" d="M259.2-39.81l5.32-5.54-4.14 2.24 1.17-3.3h0l-1.17 3.3-1.8-4.36.62 7.66h0z"/><text x="193" y="-83.4" font-family="Lato" font-size="12">(!a &amp; !b) | (!a &amp; c)</text></g></g></svg>