<?xml-stylesheet href="spot.css" type="text/css"?><svg width="368" height="104pt" viewBox="0 0 276 104" xmlns="http://www.w3.org/2000/svg"><g class="graph" transform="translate(4 100)"><path fill="#fff" stroke="transparent" d="M-4 4v-104h276V4H-4z"/><text x="112.5" y="-82.4" font-family="Lato" font-size="12">[Büchi]</text><g class="node"><circle fill="#ffffa0" stroke="#000" cx="60" cy="-22" r="18"/><circle fill="none" stroke="#000" cx="60" cy="-22" r="22"/><text text-anchor="middle" x="60" y="-18.9" font-family="Lato" font-size="12">1</text></g><g class="edge"><path fill="none" stroke="#000" d="M1.17-22h29.54"/><path stroke="#000" d="M37.86-22l-7-3.15 3.5 3.15h-3.5 3.5l-3.5 3.15 7-3.15h0z"/></g><g class="edge"><path fill="none" stroke="#000" d="M52.68-42.99C51.78-53.09 54.22-62 60-62c4.34 0 6.79 5.01 7.37 11.78"/><path stroke="#000" d="M67.32-42.99l3.2-6.98-3.18 3.48.03-3.5h0l-.03 3.5-3.12-3.52 3.1 7.02h0z"/><text x="56" y="-65.4" font-family="Lato" font-size="12">a</text></g><g class="node"><circle fill="#ffffa0" stroke="#000" cx="246" cy="-22" r="18"/><circle fill="none" stroke="#000" cx="246" cy="-22" r="22"/><text text-anchor="middle" x="246" y="-18.9" font-family="Lato" font-size="12">0</text></g><g class="edge"><path fill="none" stroke="#000" d="M82.11-22h134.71"/><path stroke="#000" d="M223.86-22l-7-3.15 3.5 3.15h-3.5 3.5l-3.5 3.15 7-3.15h0z"/><text x="100" y="-25.4" font-family="Lato" font-size="12">(!a &amp; !b) | (!a &amp; c)</text></g><g class="edge"><path fill="none" stroke="#000" d="M230.79-38.02C225.48-49.96 230.55-62 246-62c12.43 0 18.15 7.79 17.14 17.06"/><path stroke="#000" d="M261.21-38.02l4.91-5.9-3.97 2.53.94-3.37h0l-.94 3.37-2.1-4.22 1.16 7.59h0z"/><text x="230.5" y="-65.4" font-family="Lato" font-size="12">!b | c</text></g></g></svg>