<?xml-stylesheet href="spot.css" type="text/css"?><svg width="284pt" height="268" viewBox="0 0 284 201" xmlns="http://www.w3.org/2000/svg"><g class="graph"><path fill="#fff" stroke="transparent" d="M0 201V0h284v201H0z"/><text x="118.5" y="-180.4" font-family="Lato" font-size="12" transform="translate(4 197)">Inf(</text><text x="139.5" y="-180.4" font-family="Lato" font-size="12" fill="#1f78b4" transform="translate(4 197)">⓿</text><text x="152.5" y="-180.4" font-family="Lato" font-size="12" transform="translate(4 197)">)</text><text x="116.5" y="-168.4" font-family="Lato" font-size="12" transform="translate(4 197)">[Büchi]</text><g class="node" transform="translate(4 197)"><circle fill="#ffffa0" stroke="#000" cx="98" cy="-45" r="18"/><text text-anchor="middle" x="98" y="-41.9" font-family="Lato" font-size="12">0</text></g><g class="edge" transform="translate(4 197)"><path fill="none" stroke="#000" d="M19.06-45h53.49"/><path stroke="#000" d="M79.78-45l-7-3.15 3.5 3.15h-3.5 3.5l-3.5 3.15 7-3.15h0z"/></g><g class="node" transform="translate(4 197)"><circle fill="#ffffa0" stroke="#000" cx="178" cy="-72" r="18"/><text text-anchor="middle" x="178" y="-68.9" font-family="Lato" font-size="12">1</text></g><g class="edge" transform="translate(4 197)"><path fill="none" stroke="#000" d="M115.16-50.59c11.3-3.91 26.54-9.19 39.06-13.53"/><path stroke="#000" d="M160.86-66.41l-7.65-.69 4.34 1.83-3.31 1.15h0l3.31-1.15-2.28 4.12 5.59-5.26h0z"/><text x="134" y="-63.4" font-family="Lato" font-size="12">b</text><text text-anchor="middle" x="124.16" y="-40.99" font-family="Lato" font-size="12">#1</text></g><g class="node" transform="translate(4 197)"><circle fill="#ffffa0" stroke="#000" cx="178" cy="-18" r="18"/><text text-anchor="middle" x="178" y="-14.9" font-family="Lato" font-size="12">2</text></g><g class="edge" transform="translate(4 197)"><path fill="none" stroke="#000" d="M115.16-39.41c11.3 3.91 26.54 9.19 39.06 13.53"/><path stroke="#000" d="M160.86-23.59l-5.59-5.26 2.28 4.12-3.31-1.15h0l3.31 1.15-4.34 1.83 7.65-.69h0z"/><text x="134" y="-36.4" font-family="Lato" font-size="12">b</text><text text-anchor="middle" x="124.16" y="-29.81" font-family="Lato" font-size="12">#2</text></g><g class="edge" transform="translate(4 197)"><path fill="none" stroke="#000" d="M170.97-88.66c-1.56-9.96.78-19.34 7.03-19.34 4.69 0 7.18 5.27 7.47 12.11"/><path stroke="#000" d="M185.03-88.66l3.57-6.8-3.36 3.3.22-3.49h0l-.22 3.49-2.93-3.68 2.72 7.18h0z"/><text x="162" y="-111.4" font-family="Lato" font-size="12">a &amp; b</text><text text-anchor="middle" x="161.97" y="-92.06" font-family="Lato" font-size="12">#3</text></g><g class="node" transform="translate(4 197)"><circle fill="#ffffa0" stroke="#000" cx="258" cy="-18" r="18"/><text text-anchor="middle" x="258" y="-14.9" font-family="Lato" font-size="12">3</text></g><g class="edge" transform="translate(4 197)"><path fill="none" stroke="#000" d="M196.31-18h36.4"/><path stroke="#000" d="M239.74-18l-7-3.15 3.5 3.15h-3.5 3.5l-3.5 3.15 7-3.15h0z"/><text x="214" y="-21.4" font-family="Lato" font-size="12">a</text><text text-anchor="middle" x="205.31" y="-8.4" font-family="Lato" font-size="12">#4</text></g><g class="edge" transform="translate(4 197)"><path fill="none" stroke="#000" d="M250.97-34.66C249.41-44.62 251.75-54 258-54c4.69 0 7.18 5.27 7.47 12.11"/><path stroke="#000" d="M265.03-34.66l3.57-6.8-3.36 3.3.22-3.49h0l-.22 3.49-2.93-3.68 2.72 7.18h0z"/><text x="254" y="-70.4" font-family="Lato" font-size="12">b</text><text x="251.5" y="-57.4" font-family="Lato" font-size="12" fill="#1f78b4">⓿</text><text text-anchor="middle" x="241.97" y="-38.06" font-family="Lato" font-size="12">#5</text></g><g class="node" transform="translate(4 197)"><circle fill="#ffffa0" stroke="#000" cx="18" cy="-99" r="18"/><text text-anchor="middle" x="18" y="-95.9" font-family="Lato" font-size="12">4</text></g><g class="node" transform="translate(4 197)"><circle fill="#ffffa0" stroke="#000" cx="98" cy="-99" r="18"/><text text-anchor="middle" x="98" y="-95.9" font-family="Lato" font-size="12">5</text></g><g class="edge" transform="translate(4 197)"><path fill="none" stroke="#000" d="M36.31-99h36.4"/><path stroke="#000" d="M79.74-99l-7-3.15 3.5 3.15h-3.5 3.5l-3.5 3.15 7-3.15h0z"/><text x="54" y="-102.4" font-family="Lato" font-size="12">b</text><text text-anchor="middle" x="45.31" y="-89.4" font-family="Lato" font-size="12">#6</text></g><g class="edge" transform="translate(4 197)"><path fill="none" stroke="#000" d="M90.97-115.66C89.41-125.62 91.75-135 98-135c4.69 0 7.18 5.27 7.47 12.11"/><path stroke="#000" d="M105.03-115.66l3.57-6.8-3.36 3.3.22-3.49h0l-.22 3.49-2.93-3.68 2.72 7.18h0z"/><text x="94" y="-151.4" font-family="Lato" font-size="12">a</text><text x="91.5" y="-138.4" font-family="Lato" font-size="12" fill="#1f78b4">⓿</text><text text-anchor="middle" x="81.97" y="-119.06" font-family="Lato" font-size="12">#7</text></g></g></svg>