<svg xmlns="http://www.w3.org/2000/svg" height="776" preserveAspectRatio="none" style="width:976px;height:776px" viewBox="0 0 976 776" width="976"><defs><filter height="300%" id="a" width="300%" x="-1" y="-1"><feGaussianBlur result="blurOut" stdDeviation="2"/><feColorMatrix in="blurOut" result="blurOut2" values="0 0 0 0 0 0 0 0 0 0 0 0 0 0 0 0 0 0 .4 0"/><feOffset dx="4" dy="4" in="blurOut2" result="blurOut3"/><feBlend in="SourceGraphic" in2="blurOut3"/></filter></defs><path fill="#FFF" filter="url(#a)" stroke="#000" stroke-width="1.5" d="M22 24h41l7 22.297h884V764H22V24z"/><path stroke="#000" stroke-width="1.5" d="M22 46.297h48"/><text font-family="sans-serif" font-size="14" font-weight="bold" lengthAdjust="spacingAndGlyphs" textLength="35" x="26" y="38.995">spot</text><path fill="#FFF" filter="url(#a)" stroke="#000" stroke-width="1.5" d="M277 364h66l7 22.297h179V740H277V364z"/><path stroke="#000" stroke-width="1.5" d="M277 386.297h73"/><text font-family="sans-serif" font-size="14" font-weight="bold" lengthAdjust="spacingAndGlyphs" textLength="60" x="281" y="378.995">internal</text><path fill="#FEFECE" filter="url(#a)" stroke="#a80036" stroke-width="1.5" d="M38.5 420h91v32h-91z"/><circle cx="53.5" cy="436" fill="#ADD1B2" stroke="#a80036" r="11"/><path d="M56.469 441.64q-.578.298-1.219.438-.64.156-1.344.156-2.5 0-3.828-1.64-1.312-1.656-1.312-4.781t1.312-4.782q1.328-1.656 3.828-1.656.703 0 1.344.156.656.156 1.219.453v2.72q-.625-.579-1.219-.845-.594-.28-1.219-.28-1.343 0-2.031 1.077-.688 1.063-.688 3.156 0 2.094.688 3.172.688 1.063 2.031 1.063.625 0 1.219-.266.594-.281 1.219-.86v2.72z"/><text font-family="sans-serif" font-size="12" lengthAdjust="spacingAndGlyphs" textLength="59" x="67.5" y="440.154">acc_cond</text><path fill="#FEFECE" filter="url(#a)" stroke="#a80036" stroke-width="1.5" d="M164.5 420h97v32h-97z"/><circle cx="179.5" cy="436" fill="#ADD1B2" stroke="#a80036" r="11"/><path d="M182.469 441.64q-.578.298-1.219.438-.64.156-1.344.156-2.5 0-3.828-1.64-1.312-1.656-1.312-4.781t1.312-4.782q1.328-1.656 3.828-1.656.703 0 1.344.156.656.156 1.219.453v2.72q-.625-.579-1.219-.845-.594-.28-1.219-.28-1.344 0-2.031 1.077-.688 1.063-.688 3.156 0 2.094.688 3.172.688 1.063 2.031 1.063.625 0 1.219-.266.594-.281 1.219-.86v2.72z"/><text font-family="sans-serif" font-size="12" lengthAdjust="spacingAndGlyphs" textLength="65" x="193.5" y="440.154">twa_graph</text><path fill="#FEFECE" filter="url(#a)" stroke="#a80036" stroke-width="1.5" d="M802 420h136v32H802z"/><circle cx="817" cy="436" fill="#ADD1B2" stroke="#a80036" r="11"/><path d="M819.969 441.64q-.578.298-1.219.438-.64.156-1.344.156-2.5 0-3.828-1.64-1.312-1.656-1.312-4.781t1.312-4.782q1.328-1.656 3.828-1.656.703 0 1.344.156.656.156 1.219.453v2.72q-.625-.579-1.219-.845-.594-.28-1.219-.28-1.343 0-2.031 1.077-.688 1.063-.688 3.156 0 2.094.688 3.172.688 1.063 2.031 1.063.625 0 1.219-.266.594-.281 1.219-.86v2.72z"/><text font-family="sans-serif" font-size="12" lengthAdjust="spacingAndGlyphs" textLength="104" x="831" y="440.154">twa_graph_state</text><path fill="#FEFECE" filter="url(#a)" stroke="#a80036" stroke-width="1.5" d="M544.5 420h185v32h-185z"/><circle cx="559.5" cy="436" fill="#ADD1B2" stroke="#a80036" r="11"/><path d="M562.469 441.64q-.578.298-1.219.438-.64.156-1.344.156-2.5 0-3.828-1.64-1.312-1.656-1.312-4.781t1.312-4.782q1.328-1.656 3.828-1.656.703 0 1.344.156.656.156 1.219.453v2.72q-.625-.579-1.219-.845-.594-.28-1.219-.28-1.343 0-2.031 1.077-.688 1.063-.688 3.156 0 2.094.688 3.172.688 1.063 2.031 1.063.625 0 1.219-.266.594-.281 1.219-.86v2.72z"/><text font-family="sans-serif" font-size="12" lengthAdjust="spacingAndGlyphs" textLength="153" x="573.5" y="440.154">twa_graph_succ_iterator</text><path fill="#FEFECE" filter="url(#a)" stroke="#a80036" stroke-width="1.5" d="M302 399h194v73.609H302z"/><circle cx="353.25" cy="415" fill="#ADD1B2" stroke="#a80036" r="11"/><path d="M356.219 420.64q-.578.298-1.219.438-.64.156-1.344.156-2.5 0-3.828-1.64-1.312-1.656-1.312-4.781t1.312-4.782q1.328-1.656 3.828-1.656.703 0 1.344.156.656.156 1.219.453v2.72q-.625-.579-1.219-.845-.594-.28-1.219-.28-1.344 0-2.031 1.077-.688 1.063-.688 3.156 0 2.094.688 3.172.688 1.063 2.031 1.063.625 0 1.219-.266.594-.281 1.219-.86v2.72z"/><text font-family="sans-serif" font-size="12" lengthAdjust="spacingAndGlyphs" textLength="83" x="373.75" y="419.154">succ_iterable</text><path stroke="#a80036" stroke-width="1.5" d="M303 431h192M303 439h192"/><circle cx="313" cy="450.902" fill="#84BE84" stroke="#038048" r="3"/><text font-family="sans-serif" font-size="11" lengthAdjust="spacingAndGlyphs" textLength="168" x="322" y="453.21">internal::succ_iterator begin()</text><circle cx="313" cy="463.707" fill="#84BE84" stroke="#038048" r="3"/><text font-family="sans-serif" font-size="11" lengthAdjust="spacingAndGlyphs" textLength="158" x="322" y="466.015">internal::succ_iterator end()</text><path fill="#FEFECE" filter="url(#a)" stroke="#a80036" stroke-width="1.5" d="M293 612h220v112.023H293z"/><circle cx="357.75" cy="628" fill="#ADD1B2" stroke="#a80036" r="11"/><path d="M360.719 633.64q-.578.298-1.219.438-.64.156-1.344.156-2.5 0-3.828-1.64-1.312-1.657-1.312-4.782t1.312-4.78q1.328-1.657 3.828-1.657.703 0 1.344.156.656.157 1.219.453v2.72q-.625-.579-1.219-.845-.594-.28-1.219-.28-1.344 0-2.031 1.077-.688 1.063-.688 3.157 0 2.093.688 3.171.688 1.063 2.031 1.063.625 0 1.219-.266.594-.281 1.219-.86v2.72z"/><text font-family="sans-serif" font-size="12" lengthAdjust="spacingAndGlyphs" textLength="82" x="378.25" y="632.154">succ_iterator</text><path stroke="#a80036" stroke-width="1.5" d="M294 644h218M294 652h218"/><text font-family="sans-serif" font-size="11" lengthAdjust="spacingAndGlyphs" textLength="188" x="299" y="666.21">succ_iterator(twa_succ_iterator*)</text><text font-family="sans-serif" font-size="11" lengthAdjust="spacingAndGlyphs" textLength="177" x="299" y="679.015">bool operator==(succ_iterator)</text><text font-family="sans-serif" font-size="11" lengthAdjust="spacingAndGlyphs" textLength="171" x="299" y="691.82">bool operator!=(succ_iterator)</text><text font-family="sans-serif" font-size="11" lengthAdjust="spacingAndGlyphs" textLength="208" x="299" y="704.625">const twa_succ_iterator* operator*()</text><text font-family="sans-serif" font-size="11" lengthAdjust="spacingAndGlyphs" textLength="102" x="299" y="717.429">void operator++()</text><path fill="#FEFECE" filter="url(#a)" stroke="#a80036" stroke-width="1.5" d="M166.5 83h349v216.059h-349z"/><circle cx="325.75" cy="99" fill="#A9DCDF" stroke="#a80036" r="11"/><path d="M325.86 94.344l-1.157 5.078h2.328l-1.172-5.078zm-1.485-2.235h2.984l3.36 12.391h-2.453l-.766-3.063h-3.281l-.75 3.063h-2.438l3.344-12.39z"/><text font-family="sans-serif" font-size="12" font-style="italic" lengthAdjust="spacingAndGlyphs" textLength="22" x="346.25" y="103.154">twa</text><path stroke="#a80036" stroke-width="1.5" d="M167.5 115h347"/><path fill="none" stroke="#b38d22" d="M177.5 121.902l4 4-4 4-4-4z"/><text font-family="sans-serif" font-size="11" lengthAdjust="spacingAndGlyphs" textLength="174" x="186.5" y="129.21">twa_succ_iterator* iter_cache_</text><path fill="none" stroke="#b38d22" d="M177.5 134.707l4 4-4 4-4-4z"/><text font-family="sans-serif" font-size="11" lengthAdjust="spacingAndGlyphs" textLength="99" x="186.5" y="142.015">bdd_dict_ptr dict_</text><path stroke="#a80036" stroke-width="1.5" d="M167.5 148.609h347"/><path fill="#FF4" stroke="#b38d22" d="M177.5 155.512l4 4-4 4-4-4z"/><text font-family="sans-serif" font-size="11" lengthAdjust="spacingAndGlyphs" textLength="142" x="186.5" y="162.82">twa(const bdd_dict_ptr&amp;)</text><circle cx="177.5" cy="190.121" fill="#84BE84" stroke="#038048" r="3"/><text font-family="sans-serif" font-size="11" font-style="italic" lengthAdjust="spacingAndGlyphs" textLength="123" x="186.5" y="192.429">state* get_init_state()</text><circle cx="177.5" cy="202.926" fill="#84BE84" stroke="#038048" r="3"/><text font-family="sans-serif" font-size="11" font-style="italic" lengthAdjust="spacingAndGlyphs" textLength="204" x="186.5" y="205.234">twa_succ_iterator* succ_iter(state*)</text><circle cx="177.5" cy="215.731" fill="#84BE84" stroke="#038048" r="3"/><text font-family="sans-serif" font-size="11" lengthAdjust="spacingAndGlyphs" textLength="234" x="186.5" y="218.039">internal::succ_iterable succ(const state*)</text><circle cx="177.5" cy="228.535" fill="#84BE84" stroke="#038048" r="3"/><text font-family="sans-serif" font-size="11" lengthAdjust="spacingAndGlyphs" textLength="209" x="186.5" y="230.843">void release_iter(twa_succ_iterator*)</text><path stroke="#a80036" stroke-dasharray="1,2" d="M167.5 175.816h142"/><text font-family="sans-serif" font-size="11" lengthAdjust="spacingAndGlyphs" textLength="63" x="309.5" y="179.125">exploration</text><path stroke="#a80036" stroke-dasharray="1,2" d="M372.5 175.816h142"/><circle cx="177.5" cy="258.144" fill="#84BE84" stroke="#038048" r="3"/><text font-family="sans-serif" font-size="11" font-style="italic" lengthAdjust="spacingAndGlyphs" textLength="214" x="186.5" y="260.453">std::string format_state(const state*)</text><circle cx="177.5" cy="270.949" fill="#84BE84" stroke="#038048" r="3"/><text font-family="sans-serif" font-size="11" lengthAdjust="spacingAndGlyphs" textLength="323" x="186.5" y="273.257">state* project_state(const state*, const const_twa_ptr&amp;)</text><path stroke="#a80036" stroke-dasharray="1,2" d="M167.5 243.84H288"/><text font-family="sans-serif" font-size="11" lengthAdjust="spacingAndGlyphs" textLength="106" x="288" y="247.148">state manipulation</text><path stroke="#a80036" stroke-dasharray="1,2" d="M394 243.84h120.5M167.5 286.254h100"/><text font-family="sans-serif" font-size="11" lengthAdjust="spacingAndGlyphs" textLength="147" x="267.5" y="289.562">other methods not shown</text><path stroke="#a80036" stroke-dasharray="1,2" d="M414.5 286.254h100"/><path fill="#FEFECE" filter="url(#a)" stroke="#a80036" stroke-width="1.5" d="M551 116h156v150.438H551z"/><circle cx="572.3" cy="132" fill="#A9DCDF" stroke="#a80036" r="11"/><path d="M572.41 127.344l-1.157 5.078h2.328l-1.172-5.078zm-1.485-2.235h2.984l3.36 12.391h-2.453l-.766-3.063h-3.281l-.75 3.063h-2.438l3.344-12.39z"/><text font-family="sans-serif" font-size="12" font-style="italic" lengthAdjust="spacingAndGlyphs" textLength="110" x="587.7" y="136.154">twa_succ_iterator</text><path stroke="#a80036" stroke-width="1.5" d="M552 148h154"/><circle cx="562" cy="176.707" fill="#84BE84" stroke="#038048" r="3"/><text font-family="sans-serif" font-size="11" font-style="italic" lengthAdjust="spacingAndGlyphs" textLength="59" x="571" y="179.015">bool first()</text><circle cx="562" cy="189.512" fill="#84BE84" stroke="#038048" r="3"/><text font-family="sans-serif" font-size="11" font-style="italic" lengthAdjust="spacingAndGlyphs" textLength="60" x="571" y="191.82">bool next()</text><circle cx="562" cy="202.316" fill="#84BE84" stroke="#038048" r="3"/><text font-family="sans-serif" font-size="11" font-style="italic" lengthAdjust="spacingAndGlyphs" textLength="64" x="571" y="204.625">bool done()</text><path stroke="#a80036" stroke-dasharray="1,2" d="M552 162.402h53.5"/><text font-family="sans-serif" font-size="11" lengthAdjust="spacingAndGlyphs" textLength="47" x="605.5" y="165.71">iteration</text><path stroke="#a80036" stroke-dasharray="1,2" d="M652.5 162.402H706"/><circle cx="562" cy="231.926" fill="#84BE84" stroke="#038048" r="3"/><text font-family="sans-serif" font-size="11" font-style="italic" lengthAdjust="spacingAndGlyphs" textLength="100" x="571" y="234.234">const state* dst()</text><circle cx="562" cy="244.731" fill="#84BE84" stroke="#038048" r="3"/><text font-family="sans-serif" font-size="11" font-style="italic" lengthAdjust="spacingAndGlyphs" textLength="60" x="571" y="247.039">bdd cond()</text><circle cx="562" cy="257.535" fill="#84BE84" stroke="#038048" r="3"/><text font-family="sans-serif" font-size="11" font-style="italic" lengthAdjust="spacingAndGlyphs" textLength="130" x="571" y="259.843">acc_cond::mark_t acc()</text><path stroke="#a80036" stroke-dasharray="1,2" d="M552 217.621h48"/><text font-family="sans-serif" font-size="11" lengthAdjust="spacingAndGlyphs" textLength="58" x="600" y="220.929">inspection</text><path stroke="#a80036" stroke-dasharray="1,2" d="M658 217.621h48"/><path fill="#FEFECE" filter="url(#a)" stroke="#a80036" stroke-width="1.5" d="M742 135h172v112.023H742z"/><circle cx="807.25" cy="151" fill="#A9DCDF" stroke="#a80036" r="11"/><path d="M807.36 146.344l-1.157 5.078h2.328l-1.172-5.078zm-1.485-2.235h2.984l3.36 12.391h-2.453l-.766-3.063h-3.281l-.75 3.063h-2.438l3.344-12.39z"/><text font-family="sans-serif" font-size="12" font-style="italic" lengthAdjust="spacingAndGlyphs" textLength="33" x="827.75" y="155.154">state</text><path stroke="#a80036" stroke-width="1.5" d="M743 167h170M743 175h170"/><circle cx="753" cy="186.902" fill="#84BE84" stroke="#038048" r="3"/><text font-family="sans-serif" font-size="11" font-style="italic" lengthAdjust="spacingAndGlyphs" textLength="146" x="762" y="189.21">int compare(const state*)</text><circle cx="753" cy="199.707" fill="#84BE84" stroke="#038048" r="3"/><text font-family="sans-serif" font-size="11" font-style="italic" lengthAdjust="spacingAndGlyphs" textLength="72" x="762" y="202.015">size_t hash()</text><circle cx="753" cy="212.512" fill="#84BE84" stroke="#038048" r="3"/><text font-family="sans-serif" font-size="11" font-style="italic" lengthAdjust="spacingAndGlyphs" textLength="77" x="762" y="214.82">state* clone()</text><circle cx="753" cy="225.316" fill="#84BE84" stroke="#038048" r="3"/><text font-family="sans-serif" font-size="11" lengthAdjust="spacingAndGlyphs" textLength="78" x="762" y="227.625">void destroy()</text><path fill="#FF4" stroke="#b38d22" d="M753 233.121l4 4-4 4-4-4z"/><text font-family="sans-serif" font-size="11" lengthAdjust="spacingAndGlyphs" textLength="46" x="762" y="240.429">~state()</text><path d="M275.06 317.19c-21.64 41.08-42.99 81.6-54.13 102.75M268.97 313.72l15.51-14.43-3.12 20.96-12.39-6.53zM198.205 307.127S162.75 339.79 147 356c-16.13 16.6-32.38 37.08-44.33 53.03" fill="none" stroke="#a80036"/><path fill="#A80036" stroke="#a80036" d="M94.79 419.72l8.559-4.874-5.593.848-.848-5.593-2.118 9.619z"/><path stroke="#a80036" d="M97.756 415.694l4.749-6.444"/><path fill="#A80036" stroke="#a80036" d="M207.17 299.15l-7.141 1-1.824 6.977 7.141-1 1.824-6.977z"/><path d="M632.11 286.46c1.65 50.07 3.51 106.58 4.38 133.17M625.11 286.45l6.33-20.22 7.66 19.76-13.99.46zM370.501 388.062S357.77 361.11 354 348c-3.28-11.41-5.83-23.47-7.78-35.63" fill="none" stroke="#a80036"/><path fill="#A80036" stroke="#a80036" d="M344.31 299.17l-2.674 9.479 3.388-4.53 4.53 3.387-5.244-8.336z"/><path stroke="#a80036" d="M345.024 304.119l1.141 7.921"/><path fill="#FFF" stroke="#a80036" d="M376.13 398.66l.718-7.175-6.347-3.423-.718 7.175 6.347 3.423z"/><path d="M366.61 299.29c7.99 33.49 16.34 68.45 22.55 94.49" fill="none" stroke="#a80036" stroke-dasharray="7,7"/><path fill="#A80036" stroke="#a80036" d="M390.38 398.87l1.812-9.68-2.968 4.815-4.816-2.967 5.972 7.832z"/><text font-family="sans-serif" font-size="13" lengthAdjust="spacingAndGlyphs" textLength="41" x="377" y="344.067">create</text><path d="M571.64 276.65c-12.1 15.96-25.27 32.1-38.64 46.35-22.78 24.28-75.913 68.552-75.913 68.552" fill="none" stroke="#a80036"/><path fill="#A80036" stroke="#a80036" d="M447.67 398.99l7.188-.58 2.229-6.858-7.188.58-2.229 6.858zM579.42 266.21l-8.585 4.826 5.597-.817.817 5.598 2.171-9.607z"/><path stroke="#a80036" d="M576.432 270.219l-4.782 6.411"/><path d="M677.5 277.15c13.39 17.39 29.32 33.98 47.5 45.85 13.72 8.96 25.74-4.79 36 8 9.87 12.31 8.07 128.44 0 142-50.66 85.07-236.51 163.393-236.51 163.393" fill="none" stroke="#a80036"/><path fill="#FFF" stroke="#a80036" d="M513.09 640.14l6.949 1.926 4.45-5.673-6.948-1.927-4.451 5.674z"/><path fill="#A80036" stroke="#a80036" d="M669.49 266.26l2.103 9.622.856-5.592 5.592.857-8.551-4.887z"/><path stroke="#a80036" d="M672.449 270.29l4.741 6.445"/><path d="M399.63 473.19c.62 35.74 1.58 91.05 2.32 133.45" fill="none" stroke="#a80036" stroke-dasharray="7,7"/><path fill="#A80036" stroke="#a80036" d="M402.04 611.74l3.845-9.067-3.93 4.068-4.069-3.931 4.154 8.93z"/><text font-family="sans-serif" font-size="13" lengthAdjust="spacingAndGlyphs" textLength="41" x="401" y="547.067">create</text><path d="M840.97 267.06c9.35 54.1 21.2 122.67 26.39 152.69M834.04 268.04l3.49-20.9 10.3 18.52-13.79 2.38z" fill="none" stroke="#a80036"/></svg>